<?xml version="1.0" standalone="no"?>
<!DOCTYPE svg PUBLIC "-//W3C//DTD SVG 1.1//EN" "http://www.w3.org/Graphics/SVG/1.1/DTD/svg11.dtd" >
<svg>
<metadata>
Created by FontForge 20090622 at Thu Feb  9 20:32:07 2017
 By deploy user
Copyright (c) 2012 by TypeTogether. All rights reserved.
</metadata>
<defs>
<font id="AdelleSans-BoldItalic" horiz-adv-x="570" >
  <font-face 
    font-family="Adelle Sans"
    font-weight="700"
    font-style="italic"
    font-stretch="normal"
    units-per-em="1000"
    panose-1="2 0 5 3 0 0 0 2 0 4"
    ascent="755"
    descent="-245"
    x-height="521"
    cap-height="724"
    bbox="-207 -290 1271 1062"
    underline-thickness="50"
    underline-position="-50"
    slope="-8"
    unicode-range="U+000D-U+FB06"
  />
<missing-glyph horiz-adv-x="500" 
 />
    <glyph glyph-name="ij" unicode="ij" horiz-adv-x="534" 
d="M236 521l-73 -521h-151l73 521h151zM275 695q0 -49 -27.5 -76.5t-76.5 -27.5q-38 0 -59 20t-21 55q0 48 28 75.5t76 27.5q80 0 80 -74zM275 -33l78 554h151l-79 -565q-27 -179 -206 -179q-38 0 -74 8.5t-50 19.5l27 103q36 -17 75 -17q67 0 78 76zM543 695
q0 -49 -28 -76.5t-77 -27.5q-38 0 -58.5 19.5t-20.5 55.5q0 48 28 75.5t76 27.5q80 0 80 -74z" />
    <glyph glyph-name="ff" unicode="ff" horiz-adv-x="701" 
d="M779 744l-21 -100q-35 13 -71 13q-37 0 -57.5 -17t-28.5 -67l-7 -52h138l-15 -107h-138l-88 -626h-151l88 626h-187l-89 -626h-151l89 626h-71l15 107h70l10 68q24 177 206 177q70 0 107 -20l-20 -100q-30 11 -65 11q-32 0 -51.5 -17t-27.5 -67l-8 -52h188l9 68
q25 177 209 177q74 0 118 -22z" />
    <glyph glyph-name="fi" unicode="fi" horiz-adv-x="626" 
d="M594 521l-73 -521h-151l58 414h-187l-89 -626h-151l89 626h-70l14 107h71l9 68q25 177 201 177q61 0 95 -18l-19 -101q-30 10 -58 10q-33 0 -48 -17.5t-22 -64.5l-7 -54h338zM633 695q0 -49 -27.5 -76.5t-76.5 -27.5q-38 0 -58.5 19.5t-20.5 55.5q0 49 27.5 76t76.5 27
q79 0 79 -74z" />
    <glyph glyph-name="fl" unicode="fl" horiz-adv-x="626" 
d="M415 748l-19 -101q-31 10 -58 10q-33 0 -50.5 -18t-24.5 -64l-7 -54h124l-14 -107h-125l-89 -626h-151l89 626h-70l14 107h71l9 68q25 177 201 177q66 0 100 -18zM370 0l106 755h151l-106 -755h-151z" />
    <glyph glyph-name="ffi" unicode="ffi" horiz-adv-x="964" 
d="M932 521l-73 -521h-151l58 414h-187l-89 -626h-151l89 626h-187l-89 -626h-151l89 626h-71l15 107h70l10 68q24 177 206 177q70 0 107 -20l-20 -100q-30 11 -65 11q-32 0 -51.5 -17t-27.5 -67l-8 -52h188l9 68q25 177 201 177q61 0 95 -18l-19 -101q-30 10 -58 10
q-33 0 -48 -17.5t-22 -64.5l-7 -54h338zM971 695q0 -49 -27.5 -76.5t-76.5 -27.5q-38 0 -58.5 19.5t-20.5 55.5q0 49 27.5 76t76.5 27q79 0 79 -74z" />
    <glyph glyph-name="ffl" unicode="ffl" horiz-adv-x="964" 
d="M752 748l-19 -101q-31 10 -58 10q-33 0 -50.5 -18t-24.5 -64l-7 -54h124l-14 -107h-125l-89 -626h-151l89 626h-186l-89 -626h-151l89 626h-71l15 107h70l10 68q24 177 206 177q70 0 107 -20l-20 -100q-30 11 -65 11q-32 0 -51.5 -17t-27.5 -67l-8 -52h187l9 68
q25 177 201 177q66 0 100 -18zM707 0l106 755h151l-106 -755h-151z" />
    <glyph glyph-name="f_k" unicode="fk" horiz-adv-x="918" 
d="M415 748l-19 -101q-31 10 -58 10q-33 0 -50.5 -18t-24.5 -64l-7 -54h124l-14 -107h-125l-89 -626h-151l89 626h-70l14 107h71l9 68q25 177 201 177q66 0 100 -18zM873 0h-167l-99 241l-60 -52l-27 -189h-151l106 755h151l-59 -419l197 185h169l-200 -187z" />
    <glyph glyph-name="f_b" unicode="fb" horiz-adv-x="952" 
d="M415 748l-20 -101q-30 10 -57 10q-34 0 -51.5 -18t-23.5 -64l-8 -54h125l-15 -107h-124l-89 -626h-151l89 626h-71l15 107h70l10 68q24 177 200 177q65 0 101 -18zM504 0h-135l106 755h148l-41 -290q77 66 166 66q74 0 117.5 -47.5t43.5 -151.5q0 -170 -69 -257t-175 -87
q-89 0 -146 62h-3zM571 367l-32 -226q40 -35 92 -35q59 0 88.5 56t29.5 149q0 102 -72 102q-25 0 -55.5 -14t-50.5 -32z" />
    <glyph glyph-name="f_h" unicode="fh" horiz-adv-x="943" 
d="M415 748l-19 -101q-31 10 -58 10q-33 0 -50.5 -18t-24.5 -64l-7 -54h124l-14 -107h-125l-89 -626h-151l89 626h-70l14 107h71l9 68q25 177 201 177q66 0 100 -18zM572 357l-51 -357h-151l106 755h150l-44 -297q82 73 172 73q164 0 139 -176l-50 -355h-151l47 331
q6 43 -7 60.5t-46 17.5q-49 0 -114 -52z" />
    <glyph glyph-name="f_t" unicode="ft" horiz-adv-x="744" 
d="M678 123l16 -99q-61 -36 -147 -36q-179 0 -154 175l36 251h-188l-89 -626h-151l89 626h-71l15 107h70l10 68q24 177 203 177q61 0 102 -22l-21 -100q-35 13 -64 13q-32 0 -48 -18.5t-23 -65.5l-8 -52h188l22 150l154 23l-25 -173h139l-14 -107h-139l-34 -237
q-5 -38 5.5 -57t44.5 -19q40 0 82 22z" />
    <glyph glyph-name="f_j" unicode="fj" horiz-adv-x="624" 
d="M410 748l-20 -101q-30 10 -57 10q-33 0 -48.5 -17.5t-21.5 -64.5l-8 -54h339l-80 -565q-25 -179 -194 -179q-57 0 -103 17l18 105q37 -10 61 -10q29 0 45.5 16.5t22.5 61.5l63 447h-186l-89 -626h-151l89 626h-71l15 107h70l10 68q24 177 200 177q60 0 96 -18zM632 695
q0 -49 -27.5 -76.5t-76.5 -27.5q-38 0 -58.5 19.5t-20.5 55.5q0 48 28 75.5t76 27.5q79 0 79 -74z" />
    <glyph glyph-name="f_f_j" unicode="ffj" horiz-adv-x="962" 
d="M749 748l-20 -101q-30 10 -57 10q-33 0 -48.5 -17.5t-21.5 -64.5l-8 -54h339l-80 -565q-25 -179 -194 -179q-57 0 -103 17l18 105q38 -10 61 -10q29 0 45.5 16.5t22.5 61.5l63 447h-186l-89 -626h-151l89 626h-188l-89 -626h-151l89 626h-71l15 107h70l10 68
q24 177 206 177q70 0 107 -20l-20 -100q-30 11 -65 11q-32 0 -51.5 -17t-27.5 -67l-8 -52h188l10 68q24 177 200 177q60 0 96 -18zM971 695q0 -49 -27.5 -76.5t-76.5 -27.5q-38 0 -58.5 19.5t-20.5 55.5q0 48 28 75.5t76 27.5q79 0 79 -74z" />
    <glyph glyph-name="f_f_k" unicode="ffk" horiz-adv-x="1257" 
d="M753 748l-19 -101q-31 10 -58 10q-33 0 -50.5 -18t-24.5 -64l-7 -54h124l-14 -107h-125l-89 -626h-151l89 626h-187l-89 -626h-151l89 626h-71l15 107h70l10 68q24 177 206 177q70 0 107 -20l-20 -100q-30 11 -65 11q-32 0 -51.5 -17t-27.5 -67l-8 -52h188l9 68
q25 177 201 177q66 0 100 -18zM1211 0h-167l-99 241l-60 -52l-27 -189h-151l106 755h151l-59 -419l197 185h169l-200 -187z" />
    <glyph glyph-name="f_f_b" unicode="ffb" horiz-adv-x="1291" 
d="M754 748l-20 -101q-30 10 -57 10q-34 0 -51.5 -18t-23.5 -64l-8 -54h125l-15 -107h-124l-89 -626h-151l89 626h-188l-89 -626h-151l89 626h-71l15 107h70l10 68q24 177 206 177q70 0 107 -20l-20 -100q-30 11 -65 11q-32 0 -51.5 -17t-27.5 -67l-8 -52h188l10 68
q24 177 200 177q65 0 101 -18zM843 0h-135l106 755h148l-41 -290q77 66 166 66q74 0 117.5 -47.5t43.5 -151.5q0 -170 -69 -257t-175 -87q-89 0 -146 62h-3zM910 367l-32 -226q40 -35 92 -35q59 0 88.5 56t29.5 149q0 102 -72 102q-25 0 -55.5 -14t-50.5 -32z" />
    <glyph glyph-name="f_f_h" unicode="ffh" horiz-adv-x="1281" 
d="M753 748l-19 -101q-31 10 -58 10q-33 0 -50.5 -18t-24.5 -64l-7 -54h124l-14 -107h-125l-89 -626h-151l89 626h-187l-89 -626h-151l89 626h-71l15 107h70l10 68q24 177 206 177q70 0 107 -20l-20 -100q-30 11 -65 11q-32 0 -51.5 -17t-27.5 -67l-8 -52h188l9 68
q25 177 201 177q66 0 100 -18zM910 357l-51 -357h-151l106 755h150l-44 -297q82 73 172 73q164 0 139 -176l-50 -355h-151l47 331q6 43 -7 60.5t-46 17.5q-49 0 -114 -52z" />
    <glyph glyph-name="f_f_t" unicode="fft" horiz-adv-x="1082" 
d="M1016 123l16 -99q-61 -36 -147 -36q-179 0 -154 175l36 251h-188l-89 -626h-151l89 626h-187l-89 -626h-151l89 626h-71l15 107h70l10 68q24 177 206 177q70 0 107 -20l-20 -100q-30 11 -65 11q-32 0 -51.5 -17t-27.5 -67l-8 -52h187l10 68q24 177 203 177q61 0 102 -22
l-21 -100q-35 13 -64 13q-32 0 -48 -18.5t-23 -65.5l-8 -52h188l22 150l154 23l-25 -173h139l-14 -107h-139l-34 -237q-5 -38 5.5 -57t44.5 -19q40 0 82 22z" />
    <glyph glyph-name="f_iacute" unicode="f&#xed;" horiz-adv-x="628" 
d="M596 521l-73 -521h-151l58 414h-189l-89 -626h-151l89 626h-71l15 107h70l10 68q24 177 200 177q65 0 101 -18l-20 -101q-30 10 -57 10q-34 0 -51.5 -18t-23.5 -64l-8 -54h341zM465 581l96 162h163l-159 -171z" />
    <glyph glyph-name="t_t" unicode="tt" horiz-adv-x="766" 
d="M700 123l16 -99q-24 -14 -65.5 -25t-82.5 -11q-178 0 -153 175l36 251h-203l-34 -237q-12 -76 50 -76q40 0 82 22l16 -99q-24 -14 -65.5 -25t-82.5 -11q-178 0 -153 175l36 251h-78l14 107h78l22 150l154 23l-25 -173h203l22 150l154 23l-25 -173h138l-14 -107h-138
l-34 -237q-12 -76 50 -76q40 0 82 22z" />
    <glyph glyph-name=".notdef" horiz-adv-x="500" 
 />
    <glyph glyph-name=".null" horiz-adv-x="0" 
 />
    <glyph glyph-name=".null" horiz-adv-x="0" 
 />
    <glyph glyph-name="nonmarkingreturn" horiz-adv-x="333" 
 />
    <glyph glyph-name="CR" unicode="&#xd;" horiz-adv-x="500" 
 />
    <glyph glyph-name="space" unicode=" " horiz-adv-x="174" 
 />
    <glyph glyph-name="exclam" unicode="!" horiz-adv-x="289" 
d="M186 196h-126l55 528h164zM195 79q0 -43 -25.5 -67t-75.5 -24q-80 0 -80 65q0 93 102 93q79 0 79 -67z" />
    <glyph glyph-name="quotedbl" unicode="&#x22;" horiz-adv-x="428" 
d="M187 465h-135l36 259h135zM383 465h-135l36 259h135z" />
    <glyph glyph-name="numbersign" unicode="#" horiz-adv-x="606" 
d="M350 0h-104l41 139h-86l-41 -139h-104l40 139h-99l36 102h93l34 113h-100l36 102h94l38 135h104l-38 -135h86l38 135h104l-39 -135h102l-35 -102h-97l-32 -113h101l-35 -102h-96zM317 241l33 113h-86l-34 -113h87z" />
    <glyph glyph-name="dollar" unicode="$" horiz-adv-x="547" 
d="M299 598q-45 0 -73 -21.5t-28 -59.5q0 -40 27 -61t88 -43q86 -32 114 -50q72 -48 72 -140q0 -96 -67 -156.5t-164 -68.5l-11 -80h-128l13 84q-157 37 -160 199l134 22q6 -117 118 -117q51 0 83 23.5t32 67.5q0 27 -17 46t-35.5 27t-57.5 21q-8 3 -12 4q-34 11 -52.5 18
t-47.5 24t-44.5 35t-27.5 48.5t-12 69.5q0 86 56.5 143.5t147.5 73.5l13 85h128l-12 -88q146 -33 146 -190l-136 -14q0 98 -87 98z" />
    <glyph glyph-name="percent" unicode="%" horiz-adv-x="845" 
d="M204 374q-153 0 -153 149q0 96 49.5 155t150.5 59q151 0 151 -150q0 -94 -51.5 -153.5t-146.5 -59.5zM214 456q73 0 73 131q0 67 -45 67q-75 0 -75 -130q0 -68 47 -68zM217 -14h-133l542 738h132zM605 -13q-154 0 -154 149q0 96 49.5 155t150.5 59q151 0 151 -150
q0 -93 -51 -153t-146 -60zM615 69q73 0 73 131q0 67 -46 67q-75 0 -75 -130q0 -68 48 -68z" />
    <glyph glyph-name="ampersand" unicode="&#x26;" horiz-adv-x="752" 
d="M573 577q0 -70 -47 -120t-155 -89q50 -95 109 -165q36 56 50 154h134q-18 -137 -95 -224q32 -22 66 -23q18 0 39 6l13 -109q-36 -16 -90 -16q-80 0 -152 48q-76 -51 -204 -51q-109 0 -168.5 51.5t-59.5 131.5q0 154 178 225q-23 49 -23 102q0 95 69.5 149t173.5 54
q69 0 115.5 -29.5t46.5 -94.5zM229 305q-57 -42 -57 -112q0 -47 29.5 -74t83.5 -27q39 0 76 18q-78 85 -132 195zM322 523q0 -30 16 -74q59 25 83 49t24 60q0 48 -49 48q-32 0 -53 -21.5t-21 -61.5z" />
    <glyph glyph-name="quotesingle" unicode="'" horiz-adv-x="232" 
d="M187 465h-135l36 259h135z" />
    <glyph glyph-name="parenleft" unicode="(" horiz-adv-x="363" 
d="M279 -153h-158q-93 167 -93 357q0 149 56.5 270.5t160.5 249.5h167q-54 -67 -88 -117.5t-68 -116t-50.5 -136t-16.5 -149.5q0 -170 90 -358z" />
    <glyph glyph-name="parenright" unicode=")" horiz-adv-x="363" 
d="M62 724h158q93 -167 93 -357q0 -149 -56.5 -270.5t-160.5 -249.5h-167q54 67 88 117.5t68 116t50.5 136t16.5 149.5q0 170 -90 358z" />
    <glyph glyph-name="asterisk" unicode="*" horiz-adv-x="476" 
d="M328 755l-2 -125l119 29l12 -70l-114 -54l56 -109l-60 -44l-83 91l-109 -93l-56 44l86 111l-101 53l32 70l114 -28l34 125h72z" />
    <glyph glyph-name="plus" unicode="+" 
d="M311 121h-120l20 144h-133l16 116h133l20 140h120l-20 -140h134l-16 -116h-134z" />
    <glyph glyph-name="comma" unicode="," horiz-adv-x="284" 
d="M-35 -123l98 253h158l-136 -266z" />
    <glyph glyph-name="hyphen" unicode="-" horiz-adv-x="312" 
d="M276 229h-271l18 125h271z" />
    <glyph glyph-name="period" unicode="." horiz-adv-x="278" 
d="M198 90q0 -102 -105 -102q-83 0 -83 71q0 102 107 102q81 0 81 -71z" />
    <glyph glyph-name="slash" unicode="/" horiz-adv-x="443" 
d="M87 -92h-139l400 847h138z" />
    <glyph glyph-name="zero" unicode="0" horiz-adv-x="584" 
d="M239 -12q-119 0 -169 61.5t-50 188.5q0 55 8 132q22 179 98 273t217 94q117 0 167 -63.5t50 -182.5q0 -62 -7 -121q-22 -189 -96.5 -285.5t-217.5 -96.5zM251 98q61 0 92.5 65t49.5 207q7 52 11 114q0 33 -1 48q-3 49 -20 71.5t-53 22.5q-59 0 -91.5 -62.5t-50.5 -197.5
q-10 -70 -11 -118q-1 -28 0 -51q2 -52 19.5 -75.5t54.5 -23.5z" />
    <glyph glyph-name="one" unicode="1" horiz-adv-x="441" 
d="M292 0h-150l78 547q-25 -12 -77.5 -21t-81.5 -9v121q152 12 230 86h103z" />
    <glyph glyph-name="two" unicode="2" horiz-adv-x="542" 
d="M452 0h-461l17 123l182 185q108 110 142 155.5t34 90.5q0 68 -71 68q-41 0 -66.5 -26t-42.5 -81l-136 23q21 102 92.5 150.5t174.5 48.5q99 0 151.5 -44.5t52.5 -124.5q0 -82 -43 -142.5t-179 -188.5l-117 -111h288z" />
    <glyph glyph-name="three" unicode="3" horiz-adv-x="554" 
d="M321 737q96 0 150 -41.5t54 -116.5q0 -72 -50.5 -124t-115.5 -72l-1 -4q64 -16 98.5 -51.5t34.5 -103.5q0 -108 -74.5 -172t-201.5 -64q-98 0 -158.5 43.5t-64.5 138.5l135 29q4 -99 90 -99q51 0 86 33t35 95q0 89 -115 89h-61l15 113h47q70 0 109.5 32.5t39.5 89.5
q0 32 -17.5 52t-55.5 20q-44 0 -68.5 -22.5t-40.5 -69.5l-133 27q46 178 263 178z" />
    <glyph glyph-name="four" unicode="4" horiz-adv-x="601" 
d="M450 0h-146l23 163h-324l15 104l341 457h193l-62 -443h81l-16 -118h-82zM156 281h188l44 311z" />
    <glyph glyph-name="five" unicode="5" horiz-adv-x="560" 
d="M505 600h-270l-47 -188q63 49 148 49q74 0 119.5 -45t45.5 -137q0 -133 -81 -212t-205 -79q-98 0 -157.5 45t-64.5 140l133 24q2 -95 93 -95q55 0 93.5 38.5t38.5 110.5q0 94 -82 94q-56 0 -115 -51l-98 45l81 385h386z" />
    <glyph glyph-name="six" unicode="6" horiz-adv-x="577" 
d="M569 560l-136 -32q-3 52 -21 74.5t-54 22.5q-124 0 -163 -232q78 50 164 50q78 0 124 -44t46 -128q0 -135 -78.5 -209t-193.5 -74q-121 0 -171.5 70t-50.5 197q0 47 6 95.5t19.5 105t40 105t63 89t92 64t123.5 23.5q78 0 131 -44.5t59 -132.5zM189 291q-5 -40 -5 -74
q0 -119 83 -119q47 0 77 40.5t30 112.5q0 84 -72 84q-54 0 -113 -44z" />
    <glyph glyph-name="seven" unicode="7" horiz-adv-x="531" 
d="M173 -1h-163l362 599h-314l18 126h475l-15 -113z" />
    <glyph glyph-name="eight" unicode="8" horiz-adv-x="569" 
d="M411 388q57 -29 88 -66t31 -96q0 -102 -79.5 -170t-217.5 -68q-114 0 -175.5 46.5t-61.5 125.5q0 77 43 126t125 84q-91 57 -91 150q0 103 78 160t196 57q99 0 156 -41.5t57 -113.5q0 -63 -36 -105.5t-113 -88.5zM251 312q-107 -51 -107 -132q0 -36 26.5 -59t74.5 -23
q56 0 88.5 30t32.5 76q0 41 -28.5 63.5t-86.5 44.5zM318 441q51 33 74.5 62t23.5 64q0 68 -83 68q-47 0 -74 -26t-27 -65q0 -60 86 -103z" />
    <glyph glyph-name="nine" unicode="9" horiz-adv-x="576" 
d="M-4 159l136 34q11 -95 87 -95q67 0 107.5 62.5t54.5 170.5q-67 -52 -162 -52q-78 0 -126 48t-48 134q0 134 77.5 205t191.5 71q117 0 171 -73t54 -198q0 -102 -18 -186t-55.5 -151t-101.5 -104t-149 -37q-93 0 -151 41.5t-68 129.5zM386 433q5 40 5 72q0 122 -81 122
q-49 0 -80 -39t-31 -108q0 -91 77 -91q66 0 110 44z" />
    <glyph glyph-name="colon" unicode=":" horiz-adv-x="304" 
d="M208 90q0 -102 -105 -102q-83 0 -83 71q0 102 107 102q81 0 81 -71zM264 433q0 -102 -105 -102q-83 0 -83 71q0 102 107 102q81 0 81 -71z" />
    <glyph glyph-name="semicolon" unicode=";" horiz-adv-x="305" 
d="M-46 -123l98 253h158l-136 -266zM275 433q0 -102 -105 -102q-83 0 -83 71q0 102 107 102q81 0 81 -71z" />
    <glyph glyph-name="less" unicode="&#x3c;" horiz-adv-x="569" 
d="M422 84l-370 138l19 138l410 141l-17 -125l-286 -87l261 -89z" />
    <glyph glyph-name="equal" unicode="=" 
d="M445 130h-385l16 117h386zM471 316h-385l17 117h385z" />
    <glyph glyph-name="greater" unicode="&#x3e;" horiz-adv-x="569" 
d="M494 360l-19 -136l-410 -138l17 127l286 88l-262 87l18 113z" />
    <glyph glyph-name="question" unicode="?" horiz-adv-x="555" 
d="M329 733q95 0 156.5 -44t61.5 -138q0 -208 -244 -262l-13 -93h-150l25 183q46 3 81 11t69.5 24.5t53 47t18.5 74.5q0 78 -79 78q-89 0 -118 -103l-142 23q24 96 95 147.5t186 51.5zM285 79q0 -43 -25.5 -67t-75.5 -24q-80 0 -80 65q0 93 102 93q79 0 79 -67z" />
    <glyph glyph-name="at" unicode="@" horiz-adv-x="854" 
d="M555 -56l31 -81q-88 -55 -244 -55q-147 0 -239 87t-92 241q0 203 132.5 324.5t340.5 121.5q146 0 235.5 -76t89.5 -204q0 -150 -69 -230.5t-173 -80.5q-87 0 -107 55q-51 -54 -125 -54q-56 0 -85.5 41.5t-29.5 107.5q0 110 58 183t148 73q53 0 81 -35l13 29h81l-46 -262
q-2 -16 -2 -23q0 -34 36 -34q56 0 86 68.5t30 148.5q0 92 -60.5 147.5t-176.5 55.5q-91 0 -160.5 -30t-109.5 -80.5t-60 -111t-20 -128.5q0 -116 66.5 -180t176.5 -64q104 0 194 46zM457 113l32 184q-19 23 -54 23q-48 0 -80 -42.5t-32 -122.5q0 -83 53 -83q40 0 81 41z" />
    <glyph glyph-name="A" unicode="A" horiz-adv-x="693" 
d="M298 724h191l152 -724h-165l-34 180h-237l-81 -180h-162zM426 299l-50 285h-2l-128 -285h180z" />
    <glyph glyph-name="B" unicode="B" horiz-adv-x="631" 
d="M287 0h-262l101 724h284q195 0 195 -154q0 -149 -162 -192v-2q144 -18 144 -148q0 -120 -81 -174t-219 -54zM194 110h78q77 0 115 24.5t38 94.5q0 50 -33 66.5t-93 16.5h-77zM237 422h56q157 0 157 118q0 33 -18 49.5t-40 19.5t-65 3h-63z" />
    <glyph glyph-name="C" unicode="C" horiz-adv-x="693" 
d="M512 239l135 -22q-21 -82 -71.5 -135t-112 -73.5t-137.5 -20.5q-147 0 -220 81t-73 220q0 204 105 326t291 122q126 0 195 -69t62 -197l-142 -13q8 159 -127 159q-103 0 -163 -83t-60 -239q0 -187 150 -187q68 0 106.5 33.5t61.5 97.5z" />
    <glyph glyph-name="D" unicode="D" horiz-adv-x="718" 
d="M260 0h-235l101 724h251q159 0 235.5 -75.5t76.5 -213.5q0 -196 -108.5 -315.5t-320.5 -119.5zM197 119h73q261 0 261 309q0 96 -44.5 137t-137.5 41h-85z" />
    <glyph glyph-name="E" unicode="E" horiz-adv-x="576" 
d="M498 0h-473l101 724h454l-16 -122h-301l-25 -181h283l-17 -120h-283l-25 -179h319z" />
    <glyph glyph-name="F" unicode="F" horiz-adv-x="547" 
d="M219 289l-40 -289h-154l101 724h452l-17 -122h-298l-27 -193h274l-17 -120h-274z" />
    <glyph glyph-name="G" unicode="G" horiz-adv-x="728" 
d="M681 377l-54 -377h-111l-4 88q-28 -47 -89.5 -73.5t-129.5 -26.5q-132 0 -196 80t-64 215q0 205 106 329.5t293 124.5q126 0 193.5 -62t63.5 -187l-145 -14q7 143 -123 143q-112 0 -169 -88t-57 -237q0 -95 37 -140t113 -45q69 0 113 37t51 92l5 37h-129l15 104h281z" />
    <glyph glyph-name="H" unicode="H" horiz-adv-x="724" 
d="M705 724l-100 -724h-154l41 301h-272l-41 -301h-154l101 724h153l-41 -295h273l41 295h153z" />
    <glyph glyph-name="I" unicode="I" horiz-adv-x="298" 
d="M179 0h-154l101 724h154z" />
    <glyph glyph-name="J" unicode="J" horiz-adv-x="539" 
d="M300 194l74 530h153l-72 -525q-15 -111 -76 -161t-167 -50q-215 0 -216 200l150 22q4 -51 18 -77t54 -26q35 0 55 20t27 67z" />
    <glyph glyph-name="K" unicode="K" horiz-adv-x="665" 
d="M279 724l-44 -316l309 316h174l-301 -307l196 -417h-172l-147 310l-84 -81l-32 -229h-153l101 724h153z" />
    <glyph glyph-name="L" unicode="L" horiz-adv-x="561" 
d="M485 0h-460l101 724h154l-83 -598h306z" />
    <glyph glyph-name="M" unicode="M" horiz-adv-x="904" 
d="M886 724l-101 -724h-143l80 572h-4l-246 -572h-140l-82 574h-4l-80 -574h-141l101 724h228l74 -536h5l225 536h228z" />
    <glyph glyph-name="N" unicode="N" horiz-adv-x="736" 
d="M617 0h-177l-202 519l-73 -519h-140l101 724h184l196 -520l73 520h138z" />
    <glyph glyph-name="O" unicode="O" horiz-adv-x="751" 
d="M329 -12q-152 0 -224 82t-72 221q0 125 43.5 224t136 160.5t220.5 61.5q151 0 221 -83t70 -220q0 -194 -103.5 -320t-291.5 -126zM345 111q73 0 124.5 47.5t73.5 118t22 155.5q0 77 -35.5 129.5t-112.5 52.5q-111 0 -168 -91t-57 -229q0 -80 36.5 -131.5t116.5 -51.5z
" />
    <glyph glyph-name="P" unicode="P" horiz-adv-x="613" 
d="M211 240l-33 -240h-153l101 724h267q112 0 163.5 -53t51.5 -136q0 -142 -81 -218.5t-239 -76.5h-77zM227 357h60q75 0 117.5 34t42.5 120q0 55 -31.5 75t-88.5 20h-65z" />
    <glyph glyph-name="Q" unicode="Q" horiz-adv-x="751" 
d="M327 -12q-152 0 -223.5 82t-71.5 221q0 125 43.5 224t135.5 160.5t220 61.5q151 0 221 -83t70 -220q0 -138 -53.5 -245.5t-155.5 -159.5q66 -78 173 -74l-31 -121q-86 -6 -160 39.5t-114 117.5q-27 -3 -54 -3zM344 111q73 0 124.5 47.5t73.5 118t22 155.5q0 40 -9 73
q-26 109 -139 109q-112 0 -169 -91t-57 -229q0 -37 8 -72q27 -111 146 -111z" />
    <glyph glyph-name="R" unicode="R" horiz-adv-x="637" 
d="M462 318l119 -318h-166l-101 281h-97l-39 -281h-153l101 724h275q113 0 164.5 -50.5t51.5 -129.5q0 -86 -39 -140t-116 -86zM233 394h70q152 0 152 132q0 80 -109 80h-84z" />
    <glyph glyph-name="S" unicode="S" horiz-adv-x="593" 
d="M580 527l-143 -16q2 54 -20.5 83.5t-81.5 29.5q-58 0 -88 -25t-30 -68q0 -25 16 -43t35 -27t55 -21q8 -3 32 -10.5l34.5 -11t32.5 -12.5t33 -16.5l28.5 -19t26.5 -25t19 -30.5t14 -38t4 -46q0 -119 -85.5 -181t-209.5 -62q-54 0 -97.5 10.5t-82 34t-60 69.5t-21.5 110
l143 20q3 -60 28.5 -95t96.5 -35q58 0 95.5 25t37.5 79q0 17 -7 31t-17 23t-28.5 18t-33 14t-39.5 12l-41.5 13t-39.5 14.5t-40 19t-32.5 24.5t-29 33t-16.5 42t-7 55q0 106 82.5 169t204.5 63q241 0 232 -210z" />
    <glyph glyph-name="T" unicode="T" horiz-adv-x="589" 
d="M325 0h-154l83 599h-210l17 125h574l-18 -125h-209z" />
    <glyph glyph-name="U" unicode="U" horiz-adv-x="700" 
d="M688 724l-63 -465q-38 -271 -318 -271q-152 0 -212.5 70t-39.5 212l63 454h153l-61 -444q-13 -90 10 -130.5t98 -40.5q74 0 108.5 38t46.5 129l63 448h152z" />
    <glyph glyph-name="V" unicode="V" horiz-adv-x="655" 
d="M387 0h-207l-131 724h167l86 -578h6l239 578h163z" />
    <glyph glyph-name="W" unicode="W" horiz-adv-x="961" 
d="M748 0h-196l-45 506h-4l-182 -506h-204l-53 724h160l22 -563h4l205 563h164l54 -566h4l171 566h154z" />
    <glyph glyph-name="X" unicode="X" horiz-adv-x="644" 
d="M598 0h-177l-121 244l-182 -244h-166l281 367l-169 357h170l112 -248l181 248h159l-272 -359z" />
    <glyph glyph-name="Y" unicode="Y" horiz-adv-x="597" 
d="M373 274l-38 -274h-154l39 274l-185 450h160l115 -314h4l193 314h162z" />
    <glyph glyph-name="Z" unicode="Z" horiz-adv-x="581" 
d="M510 0h-530l15 105l406 497h-329l17 122h508l-16 -108l-399 -494h345z" />
    <glyph glyph-name="bracketleft" unicode="[" horiz-adv-x="318" 
d="M215 -143h-227l122 867h226l-12 -90h-81l-96 -687h80z" />
    <glyph glyph-name="backslash" unicode="\" horiz-adv-x="445" 
d="M377 -92h-138l-161 847h137z" />
    <glyph glyph-name="bracketright" unicode="]" horiz-adv-x="318" 
d="M82 724h227l-122 -867h-226l12 90h81l96 687h-80z" />
    <glyph glyph-name="asciicircum" unicode="^" horiz-adv-x="683" 
d="M615 299h-144l-133 240l-130 -240h-142l197 365h153z" />
    <glyph glyph-name="underscore" unicode="_" horiz-adv-x="500" 
d="M465 -181h-500v107h500v-107z" />
    <glyph glyph-name="grave" unicode="`" horiz-adv-x="500" 
d="M452 581l-101 -9l-111 171h161z" />
    <glyph glyph-name="a" unicode="a" horiz-adv-x="614" 
d="M559 521l-56 -397q-3 -21 2 -30t23 -9q14 0 32 5l-9 -82q-38 -18 -93 -18q-88 0 -98 71q-63 -73 -163 -73q-82 0 -128.5 50t-46.5 153q0 158 73.5 249t179.5 91q81 0 135 -52l8 42h141zM356 146l33 237q-34 32 -82 32q-45 0 -75 -35.5t-40.5 -79.5t-10.5 -91
q0 -105 78 -105q50 0 97 42z" />
    <glyph glyph-name="b" unicode="b" horiz-adv-x="593" 
d="M146 0h-136l106 755h149l-41 -290q76 66 166 66q74 0 117.5 -47.5t43.5 -151.5q0 -169 -69.5 -256.5t-175.5 -87.5q-90 0 -145 62h-4zM212 367l-32 -226q42 -35 92 -35q60 0 89 55.5t29 149.5q0 102 -71 102q-52 0 -107 -46z" />
    <glyph glyph-name="c" unicode="c" horiz-adv-x="545" 
d="M249 -12q-112 0 -170 61t-58 162q0 150 79 235t214 85q101 0 153.5 -58t46.5 -154l-132 -9q5 109 -78 109q-54 0 -89.5 -46.5t-35.5 -156.5q0 -113 86 -113q81 0 106 92l125 -20q-22 -95 -87.5 -141t-159.5 -46z" />
    <glyph glyph-name="d" unicode="d" horiz-adv-x="591" 
d="M488 0h-127v55q-1 1 -2 1q-70 -68 -162 -68q-82 0 -128 50t-46 152q0 90 23 158.5t61 107t81.5 57t89.5 18.5q78 0 133 -51l38 275h145zM357 144l34 241q-35 31 -79 31q-46 0 -76.5 -34t-42 -79t-11.5 -98q0 -40 18.5 -69t59.5 -29q52 0 97 37z" />
    <glyph glyph-name="e" unicode="e" horiz-adv-x="531" 
d="M241 -12q-115 0 -167.5 62.5t-52.5 162.5q0 146 83 232t211 86q94 0 138.5 -39.5t44.5 -103.5q0 -102 -110 -147q-66 -28 -210 -40q1 -46 18.5 -73t68.5 -27q72 0 98 74l120 -29q-24 -74 -87 -116t-155 -42zM302 427q-47 0 -78.5 -35t-39.5 -94q60 2 104 16q67 19 67 68
q0 45 -53 45z" />
    <glyph glyph-name="f" unicode="f" horiz-adv-x="362" 
d="M440 744l-21 -100q-35 13 -71 13t-56.5 -17t-28.5 -67l-8 -52h138l-14 -106h-138l-89 -627h-151l89 627h-71l15 106h70l10 68q26 177 208 177q77 0 118 -22z" />
    <glyph glyph-name="g" unicode="g" horiz-adv-x="587" 
d="M307 415q-43 0 -72.5 -32t-40 -72.5t-10.5 -84.5q0 -97 76 -97q55 0 99 39l30 215q-30 32 -82 32zM342 1l11 72q-64 -62 -157 -62q-79 0 -126 49t-47 147q0 46 8.5 90t28 87t48.5 75t73 52t97 20q91 0 136 -60l12 50h133l-72 -511q-33 -233 -276 -233q-102 0 -161 45
t-66 130l142 21q2 -42 22 -63.5t68 -21.5q107 0 126 113z" />
    <glyph glyph-name="h" unicode="h" horiz-adv-x="583" 
d="M212 357l-51 -357h-151l106 755h150l-44 -297q82 73 172 73q83 0 117 -43t22 -133l-50 -355h-151l47 331q6 43 -7 60.5t-46 17.5q-49 0 -114 -52z" />
    <glyph glyph-name="i" unicode="i" horiz-adv-x="268" 
d="M236 521l-73 -521h-151l73 521h151zM275 695q0 -49 -27.5 -76.5t-76.5 -27.5q-38 0 -59 20t-21 55q0 48 28 75.5t76 27.5q80 0 80 -74z" />
    <glyph glyph-name="j" unicode="j" horiz-adv-x="266" 
d="M7 -33l78 554h151l-79 -565q-27 -179 -206 -179q-38 0 -74 8.5t-50 19.5l27 103q36 -17 75 -17q67 0 78 76zM275 695q0 -49 -28 -76.5t-77 -27.5q-38 0 -58.5 19.5t-20.5 55.5q0 48 28 75.5t76 27.5q80 0 80 -74z" />
    <glyph glyph-name="k" unicode="k" horiz-adv-x="559" 
d="M514 0h-167l-99 241l-60 -52l-27 -189h-151l106 755h151l-59 -419l197 185h169l-200 -187z" />
    <glyph glyph-name="l" unicode="l" horiz-adv-x="268" 
d="M12 0l106 755h151l-106 -755h-151z" />
    <glyph glyph-name="m" unicode="m" horiz-adv-x="854" 
d="M383 531q96 0 119 -74q76 74 171 74q154 0 131 -173l-50 -358h-151l47 335q10 73 -43 73q-47 0 -98 -47l-50 -361h-151l47 335q11 73 -39 73q-48 0 -105 -50l-50 -358h-151l73 521h139l-9 -69h2q81 79 168 79z" />
    <glyph glyph-name="n" unicode="n" horiz-adv-x="583" 
d="M211 357l-50 -357h-151l73 521h141l-9 -68l1 -1q81 79 184 79q136 0 136 -133q0 -20 -3 -43l-50 -355h-151l47 331q2 18 2 23q0 55 -52 55q-56 0 -118 -52z" />
    <glyph glyph-name="o" unicode="o" horiz-adv-x="587" 
d="M248 -12q-227 0 -227 222q0 140 78.5 230.5t223.5 90.5q222 0 222 -224q0 -87 -30.5 -157t-99.5 -116t-167 -46zM260 93q37 0 64 22t40 57.5t18.5 69.5t5.5 70q0 111 -83 111q-38 0 -65 -21t-40.5 -55t-19.5 -68t-6 -70q0 -116 86 -116z" />
    <glyph glyph-name="p" unicode="p" horiz-adv-x="593" 
d="M224 521l-9 -62l2 -1q71 73 173 73q74 0 118 -48.5t44 -151.5q0 -172 -72.5 -257.5t-182.5 -85.5q-83 0 -134 51l-35 -251h-147l104 733h139zM391 312q0 54 -16.5 77.5t-52.5 23.5q-25 0 -56.5 -14t-52.5 -31l-32 -227q12 -13 36 -24.5t49 -11.5q66 0 95.5 58.5
t29.5 148.5z" />
    <glyph glyph-name="q" unicode="q" horiz-adv-x="589" 
d="M279 531q91 0 136 -60l12 50h133l-103 -733h-144l37 261q-67 -61 -155 -61q-81 0 -127 50t-46 154q0 90 23 158t61 106t81.5 56.5t91.5 18.5zM181 214q0 -107 77 -107q54 0 99 37l33 242q-30 30 -79 30q-65 0 -97.5 -58t-32.5 -144z" />
    <glyph glyph-name="r" unicode="r" horiz-adv-x="397" 
d="M208 332l-47 -332h-151l73 521h138l-11 -87h2q78 97 171 97q9 0 27 -2l-20 -141q-100 6 -182 -56z" />
    <glyph glyph-name="s" unicode="s" horiz-adv-x="501" 
d="M270 531q89 0 140 -39.5t61 -111.5l-125 -29q-11 78 -83 78q-73 0 -73 -48q0 -7 1.5 -12.5t6 -10.5t8 -8.5t11.5 -7t13 -6t16 -5.5t16 -4t18.5 -4.5t18.5 -4.5q33 -8 54.5 -16t46 -24t37 -43.5t12.5 -64.5q0 -88 -67 -135t-175 -47q-103 0 -155.5 40.5t-58.5 109.5
l128 34q12 -82 97 -82q83 0 83 53q0 9 -2.5 16.5t-10 13l-13 9.5t-19 8.5t-20 6.5t-24 6.5t-24.5 6.5q-31 8 -52.5 17t-44.5 25t-35 43t-12 64q0 85 65.5 128.5t160.5 43.5z" />
    <glyph glyph-name="t" unicode="t" horiz-adv-x="412" 
d="M346 123l16 -99q-24 -14 -65.5 -25t-82.5 -11q-178 0 -153 175l36 251h-78l14 107h78l22 150l154 23l-25 -173h138l-14 -107h-138l-34 -237q-12 -76 50 -76q40 0 82 22z" />
    <glyph glyph-name="u" unicode="u" horiz-adv-x="577" 
d="M345 158l51 363h151l-73 -521h-127l2 64q-1 0 -1 0.5t-1 0.5q-30 -33 -77.5 -55t-99.5 -22q-80 0 -115.5 46t-23.5 134l49 353h151l-46 -331q-11 -82 54 -82q54 0 106 50z" />
    <glyph glyph-name="v" unicode="v" horiz-adv-x="537" 
d="M307 0h-176l-108 521h163l55 -380h3l162 380h155z" />
    <glyph glyph-name="w" unicode="w" horiz-adv-x="814" 
d="M280 0h-180l-77 521h150l43 -370l143 370h149l43 -368l139 368h149l-226 -521h-170l-38 345z" />
    <glyph glyph-name="x" unicode="x" horiz-adv-x="525" 
d="M472 0h-157l-81 161l-118 -161h-153l206 266l-137 255h155l80 -163l122 163h151l-203 -262z" />
    <glyph glyph-name="y" unicode="y" horiz-adv-x="524" 
d="M142 -10l-119 531h157l58 -369h2l152 369h160l-273 -557q-52 -106 -98.5 -146.5t-128.5 -40.5q-66 0 -108 22l25 104q43 -15 73 -15q33 0 52 21.5t48 80.5z" />
    <glyph glyph-name="z" unicode="z" horiz-adv-x="464" 
d="M394 0h-414l14 100l277 314h-232l15 107h399l-15 -101l-270 -306h243z" />
    <glyph glyph-name="braceleft" unicode="{" horiz-adv-x="336" 
d="M2 338h22q57 0 72 63q7 37 11 103.5t6 86.5q11 82 56.5 114t138.5 32h55l-13 -99h-21q-29 0 -41.5 -14.5t-14.5 -50.5q-11 -136 -14 -154q-11 -57 -33 -82t-65 -42q-1 -1 -1 -2q35 -13 51.5 -32.5t16.5 -56.5t-20.5 -110.5t-20.5 -101.5q0 -39 46 -39h17l-14 -98h-76
q-121 0 -136 83q-2 10 -2 33q1 37 21 111t20 111q0 56 -52 56h-22z" />
    <glyph glyph-name="bar" unicode="|" horiz-adv-x="280" 
d="M141 -143h-136l125 898h137z" />
    <glyph glyph-name="braceright" unicode="}" horiz-adv-x="337" 
d="M310 254h-22q-57 0 -72 -63q-7 -37 -11 -103.5t-6 -86.5q-11 -82 -56.5 -114t-138.5 -32h-55l13 99h21q29 0 41.5 14.5t14.5 50.5q11 136 14 154q11 57 33 82t65 42q1 1 1 2q-35 13 -51.5 32.5t-16.5 56.5t20.5 110.5t20.5 101.5q0 39 -46 39h-17l14 98h76q121 0 136 -83
q2 -10 2 -33q-1 -37 -21 -111t-20 -111q0 -56 52 -56h22z" />
    <glyph glyph-name="asciitilde" unicode="~" horiz-adv-x="600" 
d="M188 447q36 0 130 -21.5t114 -21.5q17 0 23 9.5t6 34.5l83 -4q8 -64 -17 -104.5t-81 -40.5q-37 0 -132.5 22t-113.5 22t-25.5 -10.5t-3.5 -36.5l-89 3q-8 67 20 107.5t86 40.5z" />
    <glyph glyph-name="uni00A0" unicode="&#xa0;" horiz-adv-x="174" 
 />
    <glyph glyph-name="exclamdown" unicode="&#xa1;" horiz-adv-x="290" 
d="M91 323h126l-55 -528h-164zM82 440q0 43 25.5 67t75.5 24q80 0 80 -65q0 -93 -102 -93q-79 0 -79 67z" />
    <glyph glyph-name="cent" unicode="&#xa2;" horiz-adv-x="537" 
d="M268 710h127l-15 -104q64 -14 98 -65.5t32 -122.5l-134 -9q2 93 -71 93q-55 0 -87.5 -47.5t-32.5 -138.5q0 -96 81 -96q41 0 65 21t37 67l122 -22q-18 -74 -66.5 -119.5t-122.5 -57.5l-14 -109h-127l16 116q-144 34 -144 198q0 127 60 202t162 93z" />
    <glyph glyph-name="sterling" unicode="&#xa3;" horiz-adv-x="593" 
d="M-16 116h56q48 38 69.5 69.5t21.5 73.5q0 27 -8 54h-96l15 107h65q-24 58 -24 108q0 92 71.5 150.5t191.5 58.5q222 0 222 -206l-137 -10q-1 50 -19.5 78t-69.5 28q-50 0 -78 -26t-28 -76q0 -40 25 -105h195l-15 -107h-165q3 -18 3 -40q0 -80 -90 -157h114q61 0 89 23.5
t42 80.5l125 -21q-33 -199 -251 -199h-339z" />
    <glyph glyph-name="currency" unicode="&#xa4;" 
d="M519 78l-92 -82l-79 87q-51 -30 -121 -30q-69 0 -118 31l-96 -88l-70 81l100 91q-16 36 -16 89q0 69 37 128l-81 89l93 82l76 -84q56 34 126 34q74 0 121 -31l89 80l69 -80l-93 -85q16 -38 16 -83q0 -71 -42 -140zM244 160q52 0 82 38.5t30 94.5q0 49 -24 76t-71 27
q-53 0 -82 -36t-29 -93q0 -48 23.5 -77.5t70.5 -29.5z" />
    <glyph glyph-name="yen" unicode="&#xa5;" horiz-adv-x="574" 
d="M468 160h-132l-22 -160h-155l23 160h-121l15 95h119l10 68h-123l12 94h76l-124 307h165l87 -279h4l149 279h160l-192 -307h83l-14 -94h-128l-1 -2l-9 -66h131z" />
    <glyph glyph-name="brokenbar" unicode="&#xa6;" horiz-adv-x="280" 
d="M141 -143h-136l54 388h137zM220 417h-137l47 338h137z" />
    <glyph glyph-name="section" unicode="&#xa7;" horiz-adv-x="572" 
d="M342 608q-44 0 -70.5 -22t-26.5 -57q0 -33 28.5 -54.5t69.5 -35t82.5 -30t70 -49t28.5 -82.5q0 -92 -114 -169q45 -43 45 -108q0 -100 -68.5 -157.5t-175.5 -57.5q-96 0 -155 44t-63 140l133 14q2 -95 90 -95q39 0 64.5 21t25.5 56q0 34 -29 55t-70 33.5t-82.5 28
t-70.5 49.5t-29 86t27 89.5t87 76.5q-45 45 -45 112q0 101 73 157t185 56q94 0 149.5 -44.5t51.5 -139.5l-133 -15q4 49 -14.5 73.5t-63.5 24.5zM166 262q0 -18 8.5 -31t27 -23t35.5 -16t45.5 -15t45.5 -15q56 32 56 74q0 26 -21 41t-75 32t-73 25q-49 -32 -49 -72z" />
    <glyph glyph-name="dieresis" unicode="&#xa8;" horiz-adv-x="500" 
d="M176 670q0 42 28.5 67.5t73.5 25.5q36 0 57 -19.5t21 -51.5q0 -41 -28.5 -67t-71.5 -26q-37 0 -58.5 19t-21.5 52zM411 670q0 42 28.5 67.5t73.5 25.5q36 0 57 -19t21 -52q0 -42 -28 -67.5t-72 -25.5q-37 0 -58.5 19t-21.5 52z" />
    <glyph glyph-name="copyright" unicode="&#xa9;" horiz-adv-x="802" 
d="M750 339q0 -157 -97.5 -254t-254.5 -97q-168 0 -259.5 94t-91.5 243q0 160 101 255t252 95q163 0 256.5 -91t93.5 -245zM400 65q124 0 195 71.5t71 196.5q0 127 -73 196t-193 69q-117 0 -192 -72.5t-75 -199.5q0 -122 70.5 -191.5t196.5 -69.5zM492 279l71 -12
q-5 -37 -22 -64t-41 -40.5t-47.5 -19.5t-48.5 -6q-92 0 -135.5 52.5t-43.5 142.5q0 87 48 140.5t134 53.5q62 0 104.5 -33.5t46.5 -99.5l-73 -8q-4 40 -24 58.5t-57 18.5q-44 0 -70.5 -32t-26.5 -100q0 -128 96 -128q74 0 89 77z" />
    <glyph glyph-name="ordfeminine" unicode="&#xaa;" horiz-adv-x="446" 
d="M420 624l-39 -254q-2 -14 1.5 -19.5t15.5 -5.5q10 0 23 4l-7 -62q-28 -13 -72 -13q-63 0 -72 45q-43 -45 -109 -45q-57 0 -90 33t-33 101q0 109 52.5 166t123.5 57q54 0 90 -34l5 27h111zM266 381l22 148q-19 16 -47 16t-46.5 -21t-25 -47.5t-6.5 -54.5q0 -62 49 -62
q29 0 54 21z" />
    <glyph glyph-name="guillemotleft" unicode="&#xab;" horiz-adv-x="465" 
d="M211 103h-121l-64 154l110 151h122l-108 -147zM397 103h-121l-64 154l110 151h122l-108 -147z" />
    <glyph glyph-name="logicalnot" unicode="&#xac;" 
d="M453 172h-111l10 94h-276l13 117h387z" />
    <glyph glyph-name="uni00AD" unicode="&#xad;" horiz-adv-x="311" 
d="M270 229h-271l18 125h271z" />
    <glyph glyph-name="registered" unicode="&#xae;" horiz-adv-x="464" 
d="M439 474q0 -86 -53.5 -139t-139.5 -53q-91 0 -141 51.5t-50 133.5q0 87 55.5 140t137.5 53q88 0 139.5 -50.5t51.5 -135.5zM390 471q0 68 -39.5 105t-102.5 37q-62 0 -102.5 -39t-40.5 -106q0 -64 38.5 -101.5t104.5 -37.5q65 0 103.5 38.5t38.5 103.5zM291 467l51 -85
h-53l-42 72h-17v-72h-48v190h72q72 0 72 -55q0 -37 -35 -50zM230 487h13q34 0 34 26q0 24 -30 24h-17v-50z" />
    <glyph glyph-name="macron" unicode="&#xaf;" horiz-adv-x="500" 
d="M221 603l14 100h311l-14 -100h-311z" />
    <glyph glyph-name="degree" unicode="&#xb0;" horiz-adv-x="345" 
d="M191 580q22 0 37 14.5t17 37.5q1 22 -11.5 36.5t-32.5 14.5q-22 0 -38 -16t-16 -41q0 -21 11.5 -33.5t32.5 -12.5zM314 643q0 -56 -37 -92t-93 -36q-49 0 -78.5 28.5t-29.5 74.5q0 58 39 94.5t93 36.5q47 0 76.5 -28.5t29.5 -77.5z" />
    <glyph glyph-name="plusminus" unicode="&#xb1;" horiz-adv-x="569" 
d="M402 0h-387l17 116h387zM287 144h-120l19 121h-134l17 116h134l19 140h120l-19 -140h133l-17 -116h-133z" />
    <glyph glyph-name="twosuperior" unicode="&#xb2;" horiz-adv-x="382" 
d="M351 349h-326l16 107l115 103q67 61 85.5 84t18.5 44q0 28 -32 28q-20 0 -33 -14t-22 -44l-114 19q11 67 65 100t125 33q73 0 110 -30t37 -80t-28.5 -88t-115.5 -106l-53 -46l1 -2h167z" />
    <glyph glyph-name="threesuperior" unicode="&#xb3;" horiz-adv-x="393" 
d="M256 809q68 0 107 -26t39 -76q0 -40 -28 -69.5t-75 -45.5v-2q83 -21 83 -98q0 -70 -50 -110t-139 -40q-154 0 -164 123l117 21q0 -51 49 -51q24 0 39 14.5t15 41.5q0 44 -52 44h-51l13 86h31q39 0 60 18t21 47q0 14 -9 23t-26 9q-40 0 -55 -48l-113 19q34 120 188 120z
" />
    <glyph glyph-name="acute" unicode="&#xb4;" horiz-adv-x="499" 
d="M290 581l96 162h163l-160 -171z" />
    <glyph glyph-name="mu" unicode="&#xb5;" horiz-adv-x="606" 
d="M353 69q-74 -74 -143 -74q-33 0 -53 6l-29 -213h-147l104 733h145l-46 -333q-2 -20 -2 -25q0 -55 55 -55q54 0 108 50l50 363h151l-55 -389q-3 -22 2 -31t25 -9q16 0 32 5l-9 -92q-30 -12 -75 -12q-48 0 -78 20t-35 56z" />
    <glyph glyph-name="paragraph" unicode="&#xb6;" horiz-adv-x="604" 
d="M587 724l-120 -857h-104l107 765h-66l-107 -765h-105l53 377q-94 6 -141 56t-47 136q0 76 25.5 133t70.5 90t101 49t123 16h210z" />
    <glyph glyph-name="periodcentered" unicode="&#xb7;" horiz-adv-x="238" 
d="M202 322q0 -91 -97 -91q-77 0 -77 64q0 92 99 92q75 0 75 -65z" />
    <glyph glyph-name="cedilla" unicode="&#xb8;" horiz-adv-x="499" 
d="M105 -230l18 69q29 -12 54 -12t39.5 11t14.5 32q0 20 -15 27.5t-45 8.5l34 124l70 -8l-19 -67q74 -14 74 -81q0 -58 -40 -89.5t-103 -31.5q-48 0 -82 17z" />
    <glyph glyph-name="onesuperior" unicode="&#xb9;" horiz-adv-x="340" 
d="M262 348h-131l47 310q-16 -7 -50.5 -12.5t-53.5 -5.5v105q101 7 160 54h95z" />
    <glyph glyph-name="ordmasculine" unicode="&#xba;" horiz-adv-x="415" 
d="M198 274q-161 0 -161 148q0 92 57.5 150.5t155.5 58.5q157 0 157 -148q0 -89 -55 -149t-154 -60zM208 352q63 0 75 97q2 32 2 41q0 63 -49 63q-64 0 -77 -98q-2 -14 -2 -39q0 -64 51 -64z" />
    <glyph glyph-name="guillemotright" unicode="&#xbb;" horiz-adv-x="464" 
d="M122 103h-121l108 154l-68 151h122l67 -153zM308 103h-121l108 154l-68 151h122l67 -153z" />
    <glyph glyph-name="onequarter" unicode="&#xbc;" horiz-adv-x="1012" 
d="M253 280h-131l47 310q-16 -7 -50.5 -12.5t-53.5 -5.5v105q101 7 160 54h95zM308 -12h-139l458 736h138zM853 0h-128l15 92h-208l12 88l214 272h162l-39 -260h51l-14 -100h-51zM653 192h100l26 159z" />
    <glyph glyph-name="onehalf" unicode="&#xbd;" horiz-adv-x="1012" 
d="M260 280h-131l47 310q-16 -7 -50.5 -12.5t-53.5 -5.5v105q101 7 160 54h95zM298 -12h-139l458 736h138zM881 0h-326l16 107l115 103q67 61 85.5 84t18.5 44q0 28 -32 28q-20 0 -33 -14t-22 -44l-114 19q11 67 65 100t125 33q73 0 110 -30t37 -80t-28.5 -88t-115.5 -106
l-53 -46l1 -2h167z" />
    <glyph glyph-name="threequarters" unicode="&#xbe;" horiz-adv-x="1012" 
d="M339 -12h-139l458 736h138zM864 0h-128l15 92h-208l12 88l214 272h162l-39 -260h51l-14 -100h-51zM664 192h100l26 159zM248 741q68 0 107 -26t39 -76q0 -40 -28 -69.5t-75 -45.5v-2q83 -21 83 -98q0 -70 -50 -110t-139 -40q-154 0 -164 123l117 21q0 -51 49 -51
q24 0 39 14.5t15 41.5q0 44 -52 44h-51l13 86h31q39 0 60 18t21 47q0 14 -9 23t-26 9q-40 0 -55 -48l-113 19q34 120 188 120z" />
    <glyph glyph-name="questiondown" unicode="&#xbf;" horiz-adv-x="544" 
d="M203 -214q-95 0 -156.5 44t-61.5 138q0 208 244 262l13 93h150l-25 -183q-46 -3 -81 -11t-69.5 -24.5t-53 -47t-18.5 -74.5q0 -78 79 -78q89 0 118 103l142 -23q-24 -96 -95 -147.5t-186 -51.5zM247 440q0 43 25.5 67t75.5 24q80 0 80 -65q0 -93 -102 -93q-79 0 -79 67z
" />
    <glyph glyph-name="Agrave" unicode="&#xc0;" horiz-adv-x="693" 
d="M298 724h191l152 -724h-165l-34 180h-237l-81 -180h-162zM426 299l-50 285h-2l-128 -285h180zM258 916h161l71 -140l-107 -8z" />
    <glyph glyph-name="Aacute" unicode="&#xc1;" horiz-adv-x="693" 
d="M298 724h191l152 -724h-165l-34 180h-237l-81 -180h-162zM426 299l-50 285h-2l-128 -285h180zM306 776l109 140h163l-167 -148z" />
    <glyph glyph-name="Acircumflex" unicode="&#xc2;" horiz-adv-x="693" 
d="M298 724h191l152 -724h-165l-34 180h-237l-81 -180h-162zM426 299l-50 285h-2l-128 -285h180zM572 775l-101 -6l-61 73l-85 -74l-102 7l127 141h140z" />
    <glyph glyph-name="Atilde" unicode="&#xc3;" horiz-adv-x="693" 
d="M298 724h191l152 -724h-165l-34 180h-237l-81 -180h-162zM426 299l-50 285h-2l-128 -285h180zM349 927q35 0 77 -21.5t62 -21.5q16 0 24 10t12 34l75 -4q0 -63 -29.5 -100.5t-80.5 -37.5q-38 0 -81 22t-61 22t-26.5 -10.5t-9.5 -37.5l-81 3q1 64 34.5 103t84.5 39z" />
    <glyph glyph-name="Adieresis" unicode="&#xc4;" horiz-adv-x="693" 
d="M298 724h191l152 -724h-165l-34 180h-237l-81 -180h-162zM426 299l-50 285h-2l-128 -285h180zM203 846q0 42 29 67.5t74 25.5q36 0 56.5 -19.5t20.5 -51.5q0 -42 -28 -67.5t-72 -25.5q-37 0 -58.5 19t-21.5 52zM439 846q0 42 28.5 67.5t73.5 25.5q36 0 57 -19.5t21 -51.5
q0 -41 -28.5 -67t-71.5 -26q-37 0 -58.5 19t-21.5 52z" />
    <glyph glyph-name="Aring" unicode="&#xc5;" horiz-adv-x="693" 
d="M519 797q0 -48 -28 -83l150 -714h-165l-34 180h-237l-81 -180h-162l330 711q-14 20 -14 51q0 61 40 95t96 34q46 0 75.5 -25t29.5 -69zM426 299l-50 285h-2l-128 -285h180zM391 734q25 0 39.5 14.5t14.5 40.5q0 18 -11 28t-29 10q-24 0 -39.5 -14.5t-15.5 -40.5
q0 -38 41 -38z" />
    <glyph glyph-name="AE" unicode="&#xc6;" horiz-adv-x="990" 
d="M911 0h-473l41 290h-180l-178 -290h-159l454 724h578l-17 -122h-301l-26 -190h283l-18 -120h-282l-24 -170h319zM495 407l27 195h-41l-121 -195h135z" />
    <glyph glyph-name="Ccedilla" unicode="&#xc7;" horiz-adv-x="693" 
d="M196 -230l18 69q26 -12 54 -12q24 0 38.5 11.5t14.5 31.5t-14.5 27.5t-44.5 8.5l22 84q-126 12 -188.5 91t-62.5 208q0 204 105 326t291 122q126 0 195 -69t62 -197l-142 -13q8 159 -127 159q-103 0 -163 -83t-60 -239q0 -187 150 -187q68 0 106.5 33.5t61.5 97.5
l135 -22q-29 -113 -106.5 -167t-184.5 -61l-9 -34q73 -13 73 -81q0 -58 -39.5 -89.5t-102.5 -31.5q-50 0 -82 17z" />
    <glyph glyph-name="Egrave" unicode="&#xc8;" horiz-adv-x="576" 
d="M498 0h-473l101 724h454l-16 -122h-301l-25 -181h283l-17 -120h-283l-25 -179h319zM216 916h161l71 -140l-107 -8z" />
    <glyph glyph-name="Eacute" unicode="&#xc9;" horiz-adv-x="576" 
d="M498 0h-473l101 724h454l-16 -122h-301l-25 -181h283l-17 -120h-283l-25 -179h319zM264 776l109 140h163l-167 -148z" />
    <glyph glyph-name="Ecircumflex" unicode="&#xca;" horiz-adv-x="576" 
d="M498 0h-473l101 724h454l-16 -122h-301l-25 -181h283l-17 -120h-283l-25 -179h319zM530 775l-101 -6l-61 73l-85 -74l-102 7l127 141h140z" />
    <glyph glyph-name="Edieresis" unicode="&#xcb;" horiz-adv-x="576" 
d="M498 0h-473l101 724h454l-16 -122h-301l-25 -181h283l-17 -120h-283l-25 -179h319zM161 846q0 42 29 67.5t74 25.5q36 0 56.5 -19.5t20.5 -51.5q0 -42 -28 -67.5t-72 -25.5q-37 0 -58.5 19t-21.5 52zM397 846q0 42 28.5 67.5t73.5 25.5q36 0 57 -19.5t21 -51.5
q0 -41 -28.5 -67t-71.5 -26q-37 0 -58.5 19t-21.5 52z" />
    <glyph glyph-name="Igrave" unicode="&#xcc;" horiz-adv-x="298" 
d="M179 0h-154l101 724h154zM65 916h161l71 -140l-107 -8z" />
    <glyph glyph-name="Iacute" unicode="&#xcd;" horiz-adv-x="298" 
d="M179 0h-154l101 724h154zM113 776l109 140h163l-167 -148z" />
    <glyph glyph-name="Icircumflex" unicode="&#xce;" horiz-adv-x="298" 
d="M179 0h-154l101 724h154zM379 775l-101 -6l-61 73l-85 -74l-102 7l127 141h140z" />
    <glyph glyph-name="Idieresis" unicode="&#xcf;" horiz-adv-x="298" 
d="M179 0h-154l101 724h154zM10 846q0 42 29 67.5t74 25.5q36 0 56.5 -19.5t20.5 -51.5q0 -42 -28 -67.5t-72 -25.5q-37 0 -58.5 19t-21.5 52zM246 846q0 42 28.5 67.5t73.5 25.5q36 0 57 -19.5t21 -51.5q0 -41 -28.5 -67t-71.5 -26q-37 0 -58.5 19t-21.5 52z" />
    <glyph glyph-name="Eth" unicode="&#xd0;" horiz-adv-x="738" 
d="M280 0h-235l43 308h-68l18 124h67l41 292h251q159 0 235.5 -75.5t76.5 -213.5q0 -196 -108.5 -315.5t-320.5 -119.5zM217 119h73q261 0 261 309q0 96 -44.5 137t-137.5 41h-85l-24 -174h179l-18 -124h-178z" />
    <glyph glyph-name="Ntilde" unicode="&#xd1;" horiz-adv-x="736" 
d="M617 0h-177l-202 519l-73 -519h-140l101 724h184l196 -520l73 520h138zM383 927q35 0 77 -21.5t62 -21.5q16 0 24 10t12 34l75 -4q0 -63 -29.5 -100.5t-80.5 -37.5q-38 0 -81 22t-61 22t-26.5 -10.5t-9.5 -37.5l-81 3q1 64 34.5 103t84.5 39z" />
    <glyph glyph-name="Ograve" unicode="&#xd2;" horiz-adv-x="751" 
d="M329 -12q-152 0 -224 82t-72 221q0 125 43.5 224t136 160.5t220.5 61.5q151 0 221 -83t70 -220q0 -194 -103.5 -320t-291.5 -126zM345 111q73 0 124.5 47.5t73.5 118t22 155.5q0 77 -35.5 129.5t-112.5 52.5q-111 0 -168 -91t-57 -229q0 -80 36.5 -131.5t116.5 -51.5z
M296 916h161l71 -140l-107 -8z" />
    <glyph glyph-name="Oacute" unicode="&#xd3;" horiz-adv-x="751" 
d="M329 -12q-152 0 -224 82t-72 221q0 125 43.5 224t136 160.5t220.5 61.5q151 0 221 -83t70 -220q0 -194 -103.5 -320t-291.5 -126zM345 111q73 0 124.5 47.5t73.5 118t22 155.5q0 77 -35.5 129.5t-112.5 52.5q-111 0 -168 -91t-57 -229q0 -80 36.5 -131.5t116.5 -51.5z
M344 776l109 140h163l-167 -148z" />
    <glyph glyph-name="Ocircumflex" unicode="&#xd4;" horiz-adv-x="751" 
d="M329 -12q-152 0 -224 82t-72 221q0 125 43.5 224t136 160.5t220.5 61.5q151 0 221 -83t70 -220q0 -194 -103.5 -320t-291.5 -126zM345 111q73 0 124.5 47.5t73.5 118t22 155.5q0 77 -35.5 129.5t-112.5 52.5q-111 0 -168 -91t-57 -229q0 -80 36.5 -131.5t116.5 -51.5z
M610 775l-101 -6l-61 73l-85 -74l-102 7l127 141h140z" />
    <glyph glyph-name="Otilde" unicode="&#xd5;" horiz-adv-x="751" 
d="M329 -12q-152 0 -224 82t-72 221q0 125 43.5 224t136 160.5t220.5 61.5q151 0 221 -83t70 -220q0 -194 -103.5 -320t-291.5 -126zM345 111q73 0 124.5 47.5t73.5 118t22 155.5q0 77 -35.5 129.5t-112.5 52.5q-111 0 -168 -91t-57 -229q0 -80 36.5 -131.5t116.5 -51.5z
M387 927q35 0 77 -21.5t62 -21.5q16 0 24 10t12 34l75 -4q0 -63 -29.5 -100.5t-80.5 -37.5q-38 0 -81 22t-61 22t-26.5 -10.5t-9.5 -37.5l-81 3q1 64 34.5 103t84.5 39z" />
    <glyph glyph-name="Odieresis" unicode="&#xd6;" horiz-adv-x="751" 
d="M329 -12q-152 0 -224 82t-72 221q0 125 43.5 224t136 160.5t220.5 61.5q151 0 221 -83t70 -220q0 -194 -103.5 -320t-291.5 -126zM345 111q73 0 124.5 47.5t73.5 118t22 155.5q0 77 -35.5 129.5t-112.5 52.5q-111 0 -168 -91t-57 -229q0 -80 36.5 -131.5t116.5 -51.5z
M241 846q0 42 29 67.5t74 25.5q36 0 56.5 -19.5t20.5 -51.5q0 -42 -28 -67.5t-72 -25.5q-37 0 -58.5 19t-21.5 52zM477 846q0 42 28.5 67.5t73.5 25.5q36 0 57 -19.5t21 -51.5q0 -41 -28.5 -67t-71.5 -26q-37 0 -58.5 19t-21.5 52z" />
    <glyph glyph-name="multiply" unicode="&#xd7;" horiz-adv-x="569" 
d="M349 138l-85 99l-112 -99l-73 84l113 99l-84 100l96 84l84 -99l113 99l73 -84l-114 -100l86 -99z" />
    <glyph glyph-name="Oslash" unicode="&#xd8;" horiz-adv-x="751" 
d="M329 -12q-15 0 -41 2l-31 -69h-141l47 104q-130 71 -130 266q0 125 43.5 224t136 160.5t220.5 61.5q27 0 49 -3l25 55h141l-43 -95q119 -73 119 -260q0 -194 -103.5 -320t-291.5 -126zM192 294q0 -83 34 -129l202 449h-11q-111 0 -168 -91t-57 -229zM345 111
q73 0 124.5 47.5t73.5 118t22 155.5q0 67 -26 115l-197 -436h3z" />
    <glyph glyph-name="Ugrave" unicode="&#xd9;" horiz-adv-x="700" 
d="M688 724l-63 -465q-38 -271 -318 -271q-152 0 -212.5 70t-39.5 212l63 454h153l-61 -444q-13 -90 10 -130.5t98 -40.5q74 0 108.5 38t46.5 129l63 448h152zM265 916h161l71 -140l-107 -8z" />
    <glyph glyph-name="Uacute" unicode="&#xda;" horiz-adv-x="700" 
d="M688 724l-63 -465q-38 -271 -318 -271q-152 0 -212.5 70t-39.5 212l63 454h153l-61 -444q-13 -90 10 -130.5t98 -40.5q74 0 108.5 38t46.5 129l63 448h152zM329 776l109 140h163l-167 -148z" />
    <glyph glyph-name="Ucircumflex" unicode="&#xdb;" horiz-adv-x="700" 
d="M688 724l-63 -465q-38 -271 -318 -271q-152 0 -212.5 70t-39.5 212l63 454h153l-61 -444q-13 -90 10 -130.5t98 -40.5q74 0 108.5 38t46.5 129l63 448h152zM579 775l-101 -6l-61 73l-85 -74l-102 7l127 141h140z" />
    <glyph glyph-name="Udieresis" unicode="&#xdc;" horiz-adv-x="700" 
d="M688 724l-63 -465q-38 -271 -318 -271q-152 0 -212.5 70t-39.5 212l63 454h153l-61 -444q-13 -90 10 -130.5t98 -40.5q74 0 108.5 38t46.5 129l63 448h152zM210 846q0 42 29 67.5t74 25.5q36 0 56.5 -19.5t20.5 -51.5q0 -42 -28 -67.5t-72 -25.5q-37 0 -58.5 19t-21.5 52
zM446 846q0 42 28.5 67.5t73.5 25.5q36 0 57 -19.5t21 -51.5q0 -41 -28.5 -67t-71.5 -26q-37 0 -58.5 19t-21.5 52z" />
    <glyph glyph-name="Yacute" unicode="&#xdd;" horiz-adv-x="597" 
d="M373 274l-38 -274h-154l39 274l-185 450h160l115 -314h4l193 314h162zM264 776l109 140h163l-167 -148z" />
    <glyph glyph-name="Thorn" unicode="&#xde;" horiz-adv-x="638" 
d="M225 133l-20 -133h-153l100 724h152l-15 -117h97q125 0 181.5 -55.5t56.5 -150.5q0 -128 -78.5 -198t-231.5 -70h-89zM241 251h61q77 0 118.5 30.5t41.5 111.5q0 53 -31 74t-86 21h-71z" />
    <glyph glyph-name="germandbls" unicode="&#xdf;" horiz-adv-x="659" 
d="M138 -212h-150l99 725q19 137 94.5 195.5t202.5 58.5q105 0 165 -46t60 -125q0 -78 -41 -124.5t-95 -65.5v-3q26 -7 47 -17t43.5 -29.5t35 -53.5t12.5 -80q0 -95 -58.5 -165t-167.5 -70q-104 0 -160 47l39 102q47 -35 98 -35q42 0 70 30.5t28 95.5q0 110 -122 110h-36
l15 104h17q60 0 90.5 37.5t30.5 96.5q0 40 -22.5 60.5t-63.5 20.5q-54 0 -86 -28t-43 -106z" />
    <glyph glyph-name="agrave" unicode="&#xe0;" horiz-adv-x="614" 
d="M559 521l-56 -397q-3 -21 2 -30t23 -9q14 0 32 5l-9 -82q-38 -18 -93 -18q-88 0 -98 71q-63 -73 -163 -73q-82 0 -128.5 50t-46.5 153q0 158 73.5 249t179.5 91q81 0 135 -52l8 42h141zM356 146l33 237q-34 32 -82 32q-45 0 -75 -35.5t-40.5 -79.5t-10.5 -91
q0 -105 78 -105q50 0 97 42zM418 581l-101 -9l-111 171h161z" />
    <glyph glyph-name="aacute" unicode="&#xe1;" horiz-adv-x="614" 
d="M559 521l-56 -397q-3 -21 2 -30t23 -9q14 0 32 5l-9 -82q-38 -18 -93 -18q-88 0 -98 71q-63 -73 -163 -73q-82 0 -128.5 50t-46.5 153q0 158 73.5 249t179.5 91q81 0 135 -52l8 42h141zM356 146l33 237q-34 32 -82 32q-45 0 -75 -35.5t-40.5 -79.5t-10.5 -91
q0 -105 78 -105q50 0 97 42zM256 581l96 162h163l-160 -171z" />
    <glyph glyph-name="acircumflex" unicode="&#xe2;" horiz-adv-x="614" 
d="M559 521l-56 -397q-3 -21 2 -30t23 -9q14 0 32 5l-9 -82q-38 -18 -93 -18q-88 0 -98 71q-63 -73 -163 -73q-82 0 -128.5 50t-46.5 153q0 158 73.5 249t179.5 91q81 0 135 -52l8 42h141zM356 146l33 237q-34 32 -82 32q-45 0 -75 -35.5t-40.5 -79.5t-10.5 -91
q0 -105 78 -105q50 0 97 42zM509 581l-100 -5l-60 95l-85 -96l-109 6l132 164h144z" />
    <glyph glyph-name="atilde" unicode="&#xe3;" horiz-adv-x="614" 
d="M559 521l-56 -397q-3 -21 2 -30t23 -9q14 0 32 5l-9 -82q-38 -18 -93 -18q-88 0 -98 71q-63 -73 -163 -73q-82 0 -128.5 50t-46.5 153q0 158 73.5 249t179.5 91q81 0 135 -52l8 42h141zM356 146l33 237q-34 32 -82 32q-45 0 -75 -35.5t-40.5 -79.5t-10.5 -91
q0 -105 78 -105q50 0 97 42zM279 730q35 0 77 -21.5t62 -21.5q17 0 24.5 10t11.5 34l75 -4q-3 -64 -30.5 -101t-79.5 -37q-38 0 -81 22t-61 22t-26.5 -10.5t-9.5 -37.5l-81 3q3 66 35.5 104t83.5 38z" />
    <glyph glyph-name="adieresis" unicode="&#xe4;" horiz-adv-x="614" 
d="M559 521l-56 -397q-3 -21 2 -30t23 -9q14 0 32 5l-9 -82q-38 -18 -93 -18q-88 0 -98 71q-63 -73 -163 -73q-82 0 -128.5 50t-46.5 153q0 158 73.5 249t179.5 91q81 0 135 -52l8 42h141zM356 146l33 237q-34 32 -82 32q-45 0 -75 -35.5t-40.5 -79.5t-10.5 -91
q0 -105 78 -105q50 0 97 42zM142 670q0 42 28.5 67.5t73.5 25.5q36 0 57 -19.5t21 -51.5q0 -41 -28.5 -67t-71.5 -26q-37 0 -58.5 19t-21.5 52zM377 670q0 42 28.5 67.5t73.5 25.5q36 0 57 -19t21 -52q0 -42 -28 -67.5t-72 -25.5q-37 0 -58.5 19t-21.5 52z" />
    <glyph glyph-name="aring" unicode="&#xe5;" horiz-adv-x="614" 
d="M559 521l-56 -397q-3 -21 2 -30t23 -9q14 0 32 5l-9 -82q-38 -18 -93 -18q-88 0 -98 71q-63 -73 -163 -73q-82 0 -128.5 50t-46.5 153q0 158 73.5 249t179.5 91q81 0 135 -52l8 42h141zM356 146l33 237q-34 32 -82 32q-45 0 -75 -35.5t-40.5 -79.5t-10.5 -91
q0 -105 78 -105q50 0 97 42zM463 690q0 -56 -36 -88t-92 -32q-46 0 -73 23t-27 64q0 57 37.5 89.5t91.5 32.5q44 0 71.5 -23.5t27.5 -65.5zM342 630q23 0 37 13.5t14 38.5q0 36 -38 36q-22 0 -37 -14t-15 -38q0 -36 39 -36z" />
    <glyph glyph-name="ae" unicode="&#xe6;" horiz-adv-x="859" 
d="M569 -12q-120 0 -175 73q-88 -73 -194 -73q-82 0 -130 50t-48 153q0 158 73.5 249t179.5 91q81 0 135 -52l8 42h108l-5 -32q51 42 140 42q82 0 124 -40t42 -103q0 -34 -13.5 -61.5t-31.5 -46t-50.5 -32.5t-56 -21.5t-63 -13.5t-56 -7.5l-50.5 -4.5q0 -56 23 -78t64 -22
q71 0 98 74l120 -29q-24 -75 -86.5 -116.5t-155.5 -41.5zM355 146q-6 31 -6 67q0 99 39 171q-34 31 -81 31q-45 0 -75 -35.5t-40.5 -79.5t-10.5 -91q0 -105 78 -105q50 0 96 42zM631 427q-48 0 -79.5 -34t-38.5 -95q36 2 63 6t53.5 13t40.5 24.5t14 38.5q0 47 -53 47z" />
    <glyph glyph-name="ccedilla" unicode="&#xe7;" horiz-adv-x="545" 
d="M114 -230l18 69q29 -12 54 -12t39.5 11t14.5 32q0 20 -15 27.5t-45 8.5l23 85q-90 12 -136 71t-46 149q0 150 79 235t214 85q101 0 153.5 -58t46.5 -154l-132 -9q5 109 -78 109q-54 0 -89.5 -46.5t-35.5 -156.5q0 -113 86 -113q81 0 106 92l125 -20q-21 -88 -79 -134
t-143 -52l-9 -34q74 -14 74 -81q0 -58 -40 -89.5t-103 -31.5q-48 0 -82 17z" />
    <glyph glyph-name="egrave" unicode="&#xe8;" horiz-adv-x="531" 
d="M241 -12q-115 0 -167.5 62.5t-52.5 162.5q0 146 83 232t211 86q94 0 138.5 -39.5t44.5 -103.5q0 -102 -110 -147q-66 -28 -210 -40q1 -46 18.5 -73t68.5 -27q72 0 98 74l120 -29q-24 -74 -87 -116t-155 -42zM302 427q-47 0 -78.5 -35t-39.5 -94q60 2 104 16q67 19 67 68
q0 45 -53 45zM402 581l-101 -9l-111 171h161z" />
    <glyph glyph-name="eacute" unicode="&#xe9;" horiz-adv-x="531" 
d="M241 -12q-115 0 -167.5 62.5t-52.5 162.5q0 146 83 232t211 86q94 0 138.5 -39.5t44.5 -103.5q0 -102 -110 -147q-66 -28 -210 -40q1 -46 18.5 -73t68.5 -27q72 0 98 74l120 -29q-24 -74 -87 -116t-155 -42zM302 427q-47 0 -78.5 -35t-39.5 -94q60 2 104 16q67 19 67 68
q0 45 -53 45zM240 581l96 162h163l-160 -171z" />
    <glyph glyph-name="ecircumflex" unicode="&#xea;" horiz-adv-x="531" 
d="M241 -12q-115 0 -167.5 62.5t-52.5 162.5q0 146 83 232t211 86q94 0 138.5 -39.5t44.5 -103.5q0 -102 -110 -147q-66 -28 -210 -40q1 -46 18.5 -73t68.5 -27q72 0 98 74l120 -29q-24 -74 -87 -116t-155 -42zM302 427q-47 0 -78.5 -35t-39.5 -94q60 2 104 16q67 19 67 68
q0 45 -53 45zM493 581l-100 -5l-60 95l-85 -96l-109 6l132 164h144z" />
    <glyph glyph-name="edieresis" unicode="&#xeb;" horiz-adv-x="531" 
d="M241 -12q-115 0 -167.5 62.5t-52.5 162.5q0 146 83 232t211 86q94 0 138.5 -39.5t44.5 -103.5q0 -102 -110 -147q-66 -28 -210 -40q1 -46 18.5 -73t68.5 -27q72 0 98 74l120 -29q-24 -74 -87 -116t-155 -42zM302 427q-47 0 -78.5 -35t-39.5 -94q60 2 104 16q67 19 67 68
q0 45 -53 45zM126 670q0 42 28.5 67.5t73.5 25.5q36 0 57 -19.5t21 -51.5q0 -41 -28.5 -67t-71.5 -26q-37 0 -58.5 19t-21.5 52zM361 670q0 42 28.5 67.5t73.5 25.5q36 0 57 -19t21 -52q0 -42 -28 -67.5t-72 -25.5q-37 0 -58.5 19t-21.5 52z" />
    <glyph glyph-name="igrave" unicode="&#xec;" horiz-adv-x="268" 
d="M236 521l-73 -521h-151l73 521h151zM248 581l-101 -9l-111 171h161z" />
    <glyph glyph-name="iacute" unicode="&#xed;" horiz-adv-x="268" 
d="M236 521l-73 -521h-151l73 521h151zM86 581l96 162h163l-160 -171z" />
    <glyph glyph-name="icircumflex" unicode="&#xee;" horiz-adv-x="268" 
d="M236 521l-73 -521h-151l73 521h151zM339 581l-100 -5l-60 95l-85 -96l-109 6l132 164h144z" />
    <glyph glyph-name="idieresis" unicode="&#xef;" horiz-adv-x="268" 
d="M236 521l-73 -521h-151l73 521h151zM-28 670q0 42 28.5 67.5t73.5 25.5q36 0 57 -19.5t21 -51.5q0 -41 -28.5 -67t-71.5 -26q-37 0 -58.5 19t-21.5 52zM207 670q0 42 28.5 67.5t73.5 25.5q36 0 57 -19t21 -52q0 -42 -28 -67.5t-72 -25.5q-37 0 -58.5 19t-21.5 52z" />
    <glyph glyph-name="eth" unicode="&#xf0;" horiz-adv-x="588" 
d="M20 215q0 121 68 206t190 85q73 0 125 -40q2 -1 5 5q-29 79 -98.5 132.5t-160.5 79.5l93 97q70 -24 129 -63l92 59l71 -94l-72 -46q86 -105 86 -250q0 -398 -301 -398q-227 0 -227 227zM298 399q-66 0 -95.5 -57.5t-29.5 -137.5q0 -109 85 -109q42 0 71.5 26.5t43 71
t18.5 85.5t5 88q-42 33 -98 33z" />
    <glyph glyph-name="ntilde" unicode="&#xf1;" horiz-adv-x="583" 
d="M211 357l-50 -357h-151l73 521h141l-9 -68l1 -1q81 79 184 79q136 0 136 -133q0 -20 -3 -43l-50 -355h-151l47 331q2 18 2 23q0 55 -52 55q-56 0 -118 -52zM268 730q35 0 77 -21.5t62 -21.5q17 0 24.5 10t11.5 34l75 -4q-3 -64 -30.5 -101t-79.5 -37q-38 0 -81 22t-61 22
t-26.5 -10.5t-9.5 -37.5l-81 3q3 66 35.5 104t83.5 38z" />
    <glyph glyph-name="ograve" unicode="&#xf2;" horiz-adv-x="587" 
d="M248 -12q-227 0 -227 222q0 140 78.5 230.5t223.5 90.5q222 0 222 -224q0 -87 -30.5 -157t-99.5 -116t-167 -46zM260 93q37 0 64 22t40 57.5t18.5 69.5t5.5 70q0 111 -83 111q-38 0 -65 -21t-40.5 -55t-19.5 -68t-6 -70q0 -116 86 -116zM407 581l-101 -9l-111 171h161z
" />
    <glyph glyph-name="oacute" unicode="&#xf3;" horiz-adv-x="587" 
d="M248 -12q-227 0 -227 222q0 140 78.5 230.5t223.5 90.5q222 0 222 -224q0 -87 -30.5 -157t-99.5 -116t-167 -46zM260 93q37 0 64 22t40 57.5t18.5 69.5t5.5 70q0 111 -83 111q-38 0 -65 -21t-40.5 -55t-19.5 -68t-6 -70q0 -116 86 -116zM245 581l96 162h163l-160 -171z
" />
    <glyph glyph-name="ocircumflex" unicode="&#xf4;" horiz-adv-x="587" 
d="M248 -12q-227 0 -227 222q0 140 78.5 230.5t223.5 90.5q222 0 222 -224q0 -87 -30.5 -157t-99.5 -116t-167 -46zM260 93q37 0 64 22t40 57.5t18.5 69.5t5.5 70q0 111 -83 111q-38 0 -65 -21t-40.5 -55t-19.5 -68t-6 -70q0 -116 86 -116zM498 581l-100 -5l-60 95l-85 -96
l-109 6l132 164h144z" />
    <glyph glyph-name="otilde" unicode="&#xf5;" horiz-adv-x="587" 
d="M248 -12q-227 0 -227 222q0 140 78.5 230.5t223.5 90.5q222 0 222 -224q0 -87 -30.5 -157t-99.5 -116t-167 -46zM260 93q37 0 64 22t40 57.5t18.5 69.5t5.5 70q0 111 -83 111q-38 0 -65 -21t-40.5 -55t-19.5 -68t-6 -70q0 -116 86 -116zM268 730q35 0 77 -21.5t62 -21.5
q17 0 24.5 10t11.5 34l75 -4q-3 -64 -30.5 -101t-79.5 -37q-38 0 -81 22t-61 22t-26.5 -10.5t-9.5 -37.5l-81 3q3 66 35.5 104t83.5 38z" />
    <glyph glyph-name="odieresis" unicode="&#xf6;" horiz-adv-x="587" 
d="M248 -12q-227 0 -227 222q0 140 78.5 230.5t223.5 90.5q222 0 222 -224q0 -87 -30.5 -157t-99.5 -116t-167 -46zM260 93q37 0 64 22t40 57.5t18.5 69.5t5.5 70q0 111 -83 111q-38 0 -65 -21t-40.5 -55t-19.5 -68t-6 -70q0 -116 86 -116zM131 670q0 42 28.5 67.5
t73.5 25.5q36 0 57 -19.5t21 -51.5q0 -41 -28.5 -67t-71.5 -26q-37 0 -58.5 19t-21.5 52zM366 670q0 42 28.5 67.5t73.5 25.5q36 0 57 -19t21 -52q0 -42 -28 -67.5t-72 -25.5q-37 0 -58.5 19t-21.5 52z" />
    <glyph glyph-name="divide" unicode="&#xf7;" horiz-adv-x="569" 
d="M334 166q0 -38 -23 -60.5t-67 -22.5q-69 0 -69 60q0 38 23.5 62t66.5 24q34 0 51.5 -17t17.5 -46zM466 263h-387l16 116h387zM381 497q0 -39 -23 -61t-67 -22q-70 0 -70 60q0 38 23.5 61.5t67.5 23.5q34 0 51.5 -16.5t17.5 -45.5z" />
    <glyph glyph-name="oslash" unicode="&#xf8;" horiz-adv-x="587" 
d="M248 -12q-22 0 -43 3l-30 -63h-107l45 94q-92 57 -92 191q0 138 78.5 228t223.5 90q14 0 36 -2l31 63h107l-44 -91q92 -53 92 -203q0 -126 -77 -218t-220 -92zM174 203q0 -30 4 -47l130 267h-3q-38 0 -65 -21t-40.5 -55.5t-19.5 -70t-6 -73.5zM260 93q38 0 64.5 22
t39.5 58t18.5 71t5.5 73q0 18 -4 42l-129 -266h5z" />
    <glyph glyph-name="ugrave" unicode="&#xf9;" horiz-adv-x="577" 
d="M345 158l51 363h151l-73 -521h-127l2 64q-1 0 -1 0.5t-1 0.5q-30 -33 -77.5 -55t-99.5 -22q-80 0 -115.5 46t-23.5 134l49 353h151l-46 -331q-11 -82 54 -82q54 0 106 50zM400 581l-101 -9l-111 171h161z" />
    <glyph glyph-name="uacute" unicode="&#xfa;" horiz-adv-x="577" 
d="M345 158l51 363h151l-73 -521h-127l2 64q-1 0 -1 0.5t-1 0.5q-30 -33 -77.5 -55t-99.5 -22q-80 0 -115.5 46t-23.5 134l49 353h151l-46 -331q-11 -82 54 -82q54 0 106 50zM238 581l96 162h163l-160 -171z" />
    <glyph glyph-name="ucircumflex" unicode="&#xfb;" horiz-adv-x="577" 
d="M345 158l51 363h151l-73 -521h-127l2 64q-1 0 -1 0.5t-1 0.5q-30 -33 -77.5 -55t-99.5 -22q-80 0 -115.5 46t-23.5 134l49 353h151l-46 -331q-11 -82 54 -82q54 0 106 50zM491 581l-100 -5l-60 95l-85 -96l-109 6l132 164h144z" />
    <glyph glyph-name="udieresis" unicode="&#xfc;" horiz-adv-x="577" 
d="M345 158l51 363h151l-73 -521h-127l2 64q-1 0 -1 0.5t-1 0.5q-30 -33 -77.5 -55t-99.5 -22q-80 0 -115.5 46t-23.5 134l49 353h151l-46 -331q-11 -82 54 -82q54 0 106 50zM124 670q0 42 28.5 67.5t73.5 25.5q36 0 57 -19.5t21 -51.5q0 -41 -28.5 -67t-71.5 -26
q-37 0 -58.5 19t-21.5 52zM359 670q0 42 28.5 67.5t73.5 25.5q36 0 57 -19t21 -52q0 -42 -28 -67.5t-72 -25.5q-37 0 -58.5 19t-21.5 52z" />
    <glyph glyph-name="yacute" unicode="&#xfd;" horiz-adv-x="524" 
d="M142 -10l-119 531h157l58 -369h2l152 369h160l-273 -557q-52 -106 -98.5 -146.5t-128.5 -40.5q-66 0 -108 22l25 104q43 -15 73 -15q33 0 52 21.5t48 80.5zM214 581l96 162h163l-160 -171z" />
    <glyph glyph-name="thorn" unicode="&#xfe;" horiz-adv-x="593" 
d="M213 367l-32 -226q40 -35 89 -35q61 0 91 56.5t30 148.5q0 53 -16.5 77.5t-55.5 24.5q-25 0 -55.5 -14t-50.5 -32zM-19 -212l135 967h149l-41 -290q76 66 166 66q74 0 118 -48.5t44 -151.5q0 -172 -72.5 -257.5t-182.5 -85.5q-85 0 -134 51l-35 -251h-147z" />
    <glyph glyph-name="ydieresis" unicode="&#xff;" horiz-adv-x="524" 
d="M142 -10l-119 531h157l58 -369h2l152 369h160l-273 -557q-52 -106 -98.5 -146.5t-128.5 -40.5q-66 0 -108 22l25 104q43 -15 73 -15q33 0 52 21.5t48 80.5zM100 670q0 42 28.5 67.5t73.5 25.5q36 0 57 -19.5t21 -51.5q0 -41 -28.5 -67t-71.5 -26q-37 0 -58.5 19t-21.5 52
zM335 670q0 42 28.5 67.5t73.5 25.5q36 0 57 -19t21 -52q0 -42 -28 -67.5t-72 -25.5q-37 0 -58.5 19t-21.5 52z" />
    <glyph glyph-name="Amacron" unicode="&#x100;" horiz-adv-x="693" 
d="M298 724h191l152 -724h-165l-34 180h-237l-81 -180h-162zM426 299l-50 285h-2l-128 -285h180zM560 785h-317l15 100h317z" />
    <glyph glyph-name="amacron" unicode="&#x101;" horiz-adv-x="614" 
d="M559 521l-56 -397q-3 -21 2 -30t23 -9q14 0 32 5l-9 -82q-38 -18 -93 -18q-88 0 -98 71q-63 -73 -163 -73q-82 0 -128.5 50t-46.5 153q0 158 73.5 249t179.5 91q81 0 135 -52l8 42h141zM356 146l33 237q-34 32 -82 32q-45 0 -75 -35.5t-40.5 -79.5t-10.5 -91
q0 -105 78 -105q50 0 97 42zM187 603l14 100h311l-14 -100h-311z" />
    <glyph glyph-name="Abreve" unicode="&#x102;" horiz-adv-x="693" 
d="M298 724h191l152 -724h-165l-34 180h-237l-81 -180h-162zM426 299l-50 285h-2l-128 -285h180zM411 860q33 0 52.5 14.5t31.5 52.5l96 -6q-31 -151 -189 -151q-74 0 -115 37t-40 111l102 11q0 -37 15 -53t47 -16z" />
    <glyph glyph-name="abreve" unicode="&#x103;" horiz-adv-x="614" 
d="M559 521l-56 -397q-3 -21 2 -30t23 -9q14 0 32 5l-9 -82q-38 -18 -93 -18q-88 0 -98 71q-63 -73 -163 -73q-82 0 -128.5 50t-46.5 153q0 158 73.5 249t179.5 91q81 0 135 -52l8 42h141zM356 146l33 237q-34 32 -82 32q-45 0 -75 -35.5t-40.5 -79.5t-10.5 -91
q0 -105 78 -105q50 0 97 42zM345 659q36 0 56 17t32 60l96 -6q-10 -81 -60 -121t-131 -40q-158 0 -155 158l102 11q-1 -42 13 -60.5t47 -18.5z" />
    <glyph glyph-name="Aogonek" unicode="&#x104;" horiz-adv-x="693" 
d="M611 -110l64 -30q-17 -48 -55 -73.5t-86 -25.5q-55 0 -84.5 24.5t-29.5 69.5q0 77 97 145h-41l-34 180h-237l-81 -180h-162l336 724h191l152 -724q-58 -36 -83.5 -63.5t-25.5 -56.5q0 -32 30 -32q28 0 49 42zM426 299l-50 285h-2l-128 -285h180z" />
    <glyph glyph-name="aogonek" unicode="&#x105;" horiz-adv-x="614" 
d="M498 -110l62 -30q-22 -47 -63 -73t-89 -26q-51 0 -78 22t-27 62q0 79 106 152q-42 13 -49 64q-63 -73 -163 -73q-82 0 -128.5 50t-46.5 153q0 158 73.5 249t179.5 91q81 0 135 -52l8 42h141l-56 -397q-3 -21 2 -30t23 -9q14 0 32 5l-9 -82q-55 -16 -93.5 -58t-38.5 -75
q0 -27 26 -27q29 0 53 42zM356 146l33 237q-34 32 -82 32q-45 0 -75 -35.5t-40.5 -79.5t-10.5 -91q0 -105 78 -105q50 0 97 42z" />
    <glyph glyph-name="Cacute" unicode="&#x106;" horiz-adv-x="693" 
d="M512 239l135 -22q-21 -82 -71.5 -135t-112 -73.5t-137.5 -20.5q-147 0 -220 81t-73 220q0 204 105 326t291 122q126 0 195 -69t62 -197l-142 -13q8 159 -127 159q-103 0 -163 -83t-60 -239q0 -187 150 -187q68 0 106.5 33.5t61.5 97.5zM339 776l109 140h163l-167 -148z
" />
    <glyph glyph-name="cacute" unicode="&#x107;" horiz-adv-x="545" 
d="M249 -12q-112 0 -170 61t-58 162q0 150 79 235t214 85q101 0 153.5 -58t46.5 -154l-132 -9q5 109 -78 109q-54 0 -89.5 -46.5t-35.5 -156.5q0 -113 86 -113q81 0 106 92l125 -20q-22 -95 -87.5 -141t-159.5 -46zM238 581l96 162h163l-160 -171z" />
    <glyph glyph-name="Ccircumflex" unicode="&#x108;" horiz-adv-x="693" 
d="M512 239l135 -22q-21 -82 -71.5 -135t-112 -73.5t-137.5 -20.5q-147 0 -220 81t-73 220q0 204 105 326t291 122q126 0 195 -69t62 -197l-142 -13q8 159 -127 159q-103 0 -163 -83t-60 -239q0 -187 150 -187q68 0 106.5 33.5t61.5 97.5zM605 775l-101 -6l-61 73l-85 -74
l-102 7l127 141h140z" />
    <glyph glyph-name="ccircumflex" unicode="&#x109;" horiz-adv-x="545" 
d="M249 -12q-112 0 -170 61t-58 162q0 150 79 235t214 85q101 0 153.5 -58t46.5 -154l-132 -9q5 109 -78 109q-54 0 -89.5 -46.5t-35.5 -156.5q0 -113 86 -113q81 0 106 92l125 -20q-22 -95 -87.5 -141t-159.5 -46zM491 581l-100 -5l-60 95l-85 -96l-109 6l132 164h144z" />
    <glyph glyph-name="Cdotaccent" unicode="&#x10a;" horiz-adv-x="693" 
d="M512 239l135 -22q-21 -82 -71.5 -135t-112 -73.5t-137.5 -20.5q-147 0 -220 81t-73 220q0 204 105 326t291 122q126 0 195 -69t62 -197l-142 -13q8 159 -127 159q-103 0 -163 -83t-60 -239q0 -187 150 -187q68 0 106.5 33.5t61.5 97.5zM539 880q0 -49 -28 -76.5
t-77 -27.5q-38 0 -58.5 19.5t-20.5 55.5q0 49 27.5 76t76.5 27q80 0 80 -74z" />
    <glyph glyph-name="cdotaccent" unicode="&#x10b;" horiz-adv-x="545" 
d="M249 -12q-112 0 -170 61t-58 162q0 150 79 235t214 85q101 0 153.5 -58t46.5 -154l-132 -9q5 109 -78 109q-54 0 -89.5 -46.5t-35.5 -156.5q0 -113 86 -113q81 0 106 92l125 -20q-22 -95 -87.5 -141t-159.5 -46zM239 666q0 48 28 75.5t76 27.5q81 0 81 -74
q0 -49 -28 -76.5t-77 -27.5q-38 0 -59 20t-21 55z" />
    <glyph glyph-name="Ccaron" unicode="&#x10c;" horiz-adv-x="693" 
d="M512 239l135 -22q-21 -82 -71.5 -135t-112 -73.5t-137.5 -20.5q-147 0 -220 81t-73 220q0 204 105 326t291 122q126 0 195 -69t62 -197l-142 -13q8 159 -127 159q-103 0 -163 -83t-60 -239q0 -187 150 -187q68 0 106.5 33.5t61.5 97.5zM279 912l100 6l62 -73l85 74
l101 -7l-126 -141h-140z" />
    <glyph glyph-name="ccaron" unicode="&#x10d;" horiz-adv-x="545" 
d="M249 -12q-112 0 -170 61t-58 162q0 150 79 235t214 85q101 0 153.5 -58t46.5 -154l-132 -9q5 109 -78 109q-54 0 -89.5 -46.5t-35.5 -156.5q0 -113 86 -113q81 0 106 92l125 -20q-22 -95 -87.5 -141t-159.5 -46zM168 736l102 5l59 -95l85 96l107 -6l-131 -164h-144z" />
    <glyph glyph-name="Dcaron" unicode="&#x10e;" horiz-adv-x="718" 
d="M260 0h-235l101 724h251q159 0 235.5 -75.5t76.5 -213.5q0 -196 -108.5 -315.5t-320.5 -119.5zM197 119h73q261 0 261 309q0 96 -44.5 137t-137.5 41h-85zM226 912l100 6l62 -73l85 74l101 -7l-126 -141h-140z" />
    <glyph glyph-name="dcaron" unicode="&#x10f;" horiz-adv-x="632" 
d="M488 0h-127v55q-1 1 -2 1q-70 -68 -162 -68q-82 0 -128 50t-46 152q0 90 23 158.5t61 107t81.5 57t89.5 18.5q78 0 133 -51l38 275h145zM357 144l34 241q-35 31 -79 31q-46 0 -76.5 -34t-42 -79t-11.5 -98q0 -40 18.5 -69t59.5 -29q52 0 97 37zM601 562l60 193h139
l-94 -202z" />
    <glyph glyph-name="Dcroat" unicode="&#x110;" horiz-adv-x="739" 
d="M281 0h-235l42 306h-68l16 116h68l43 302h251q159 0 235.5 -75.5t76.5 -213.5q0 -196 -108.5 -315.5t-320.5 -119.5zM218 119h73q261 0 261 309q0 96 -44.5 137t-137.5 41h-85l-26 -184h170l-18 -116h-168z" />
    <glyph glyph-name="dcroat" unicode="&#x111;" horiz-adv-x="591" 
d="M488 0h-131l4 55q-1 1 -2 1q-70 -68 -162 -68q-82 0 -128 50t-46 152q0 89 23 156.5t61 105t80.5 55.5t89.5 18q80 0 133 -51l15 113h-180l11 86h181l12 82h145l-12 -82h63l-12 -86h-63zM357 144l33 235q-35 31 -79 31q-66 0 -97.5 -62t-31.5 -143q0 -84 58 -97
q19 -3 41 0q42 6 76 36z" />
    <glyph glyph-name="Emacron" unicode="&#x112;" horiz-adv-x="576" 
d="M498 0h-473l101 724h454l-16 -122h-301l-25 -181h283l-17 -120h-283l-25 -179h319zM518 785h-317l15 100h317z" />
    <glyph glyph-name="emacron" unicode="&#x113;" horiz-adv-x="531" 
d="M241 -12q-115 0 -167.5 62.5t-52.5 162.5q0 146 83 232t211 86q94 0 138.5 -39.5t44.5 -103.5q0 -102 -110 -147q-66 -28 -210 -40q1 -46 18.5 -73t68.5 -27q72 0 98 74l120 -29q-24 -74 -87 -116t-155 -42zM302 427q-47 0 -78.5 -35t-39.5 -94q60 2 104 16q67 19 67 68
q0 45 -53 45zM171 603l14 100h311l-14 -100h-311z" />
    <glyph glyph-name="Ebreve" unicode="&#x114;" horiz-adv-x="576" 
d="M498 0h-473l101 724h454l-16 -122h-301l-25 -181h283l-17 -120h-283l-25 -179h319zM369 860q33 0 52.5 14.5t31.5 52.5l96 -6q-31 -151 -189 -151q-74 0 -115 37t-40 111l102 11q0 -37 15 -53t47 -16z" />
    <glyph glyph-name="ebreve" unicode="&#x115;" horiz-adv-x="531" 
d="M241 -12q-115 0 -167.5 62.5t-52.5 162.5q0 146 83 232t211 86q94 0 138.5 -39.5t44.5 -103.5q0 -102 -110 -147q-66 -28 -210 -40q1 -46 18.5 -73t68.5 -27q72 0 98 74l120 -29q-24 -74 -87 -116t-155 -42zM302 427q-47 0 -78.5 -35t-39.5 -94q60 2 104 16q67 19 67 68
q0 45 -53 45zM329 659q36 0 56 17t32 60l96 -6q-10 -81 -60 -121t-131 -40q-158 0 -155 158l102 11q-1 -42 13 -60.5t47 -18.5z" />
    <glyph glyph-name="Edotaccent" unicode="&#x116;" horiz-adv-x="576" 
d="M498 0h-473l101 724h454l-16 -122h-301l-25 -181h283l-17 -120h-283l-25 -179h319zM464 880q0 -49 -28 -76.5t-77 -27.5q-38 0 -58.5 19.5t-20.5 55.5q0 49 27.5 76t76.5 27q80 0 80 -74z" />
    <glyph glyph-name="edotaccent" unicode="&#x117;" horiz-adv-x="531" 
d="M241 -12q-115 0 -167.5 62.5t-52.5 162.5q0 146 83 232t211 86q94 0 138.5 -39.5t44.5 -103.5q0 -102 -110 -147q-66 -28 -210 -40q1 -46 18.5 -73t68.5 -27q72 0 98 74l120 -29q-24 -74 -87 -116t-155 -42zM302 427q-47 0 -78.5 -35t-39.5 -94q60 2 104 16q67 19 67 68
q0 45 -53 45zM241 666q0 48 28 75.5t76 27.5q81 0 81 -74q0 -49 -28 -76.5t-77 -27.5q-38 0 -59 20t-21 55z" />
    <glyph glyph-name="Eogonek" unicode="&#x118;" horiz-adv-x="576" 
d="M441 -110l64 -30q-17 -48 -55 -73.5t-86 -25.5q-55 0 -84.5 24.5t-29.5 69.5q0 77 97 145h-322l101 724h454l-16 -122h-301l-25 -181h283l-17 -120h-283l-25 -179h319l-17 -122h-52q-31 -29 -45.5 -44.5t-26.5 -36t-12 -39.5q0 -32 30 -32q28 0 49 42z" />
    <glyph glyph-name="eogonek" unicode="&#x119;" horiz-adv-x="531" 
d="M324 -110l62 -30q-22 -47 -63 -73t-89 -26q-51 0 -78 22t-27 62q0 75 94 144q-106 5 -154 66.5t-48 157.5q0 146 83 232t211 86q94 0 138.5 -39.5t44.5 -103.5q0 -102 -110 -147q-66 -28 -210 -40q1 -46 18.5 -74t68.5 -28q71 0 98 76l120 -29q-15 -47 -47 -78.5
t-85 -62.5q-106 -61 -106 -130q0 -27 26 -27q29 0 53 42zM302 429q-48 0 -79 -35t-38 -98q66 3 103 14q67 19 67 70q0 49 -53 49z" />
    <glyph glyph-name="Ecaron" unicode="&#x11a;" horiz-adv-x="576" 
d="M498 0h-473l101 724h454l-16 -122h-301l-25 -181h283l-17 -120h-283l-25 -179h319zM204 912l100 6l62 -73l85 74l101 -7l-126 -141h-140z" />
    <glyph glyph-name="ecaron" unicode="&#x11b;" horiz-adv-x="531" 
d="M241 -12q-115 0 -167.5 62.5t-52.5 162.5q0 146 83 232t211 86q94 0 138.5 -39.5t44.5 -103.5q0 -102 -110 -147q-66 -28 -210 -40q1 -46 18.5 -73t68.5 -27q72 0 98 74l120 -29q-24 -74 -87 -116t-155 -42zM302 427q-47 0 -78.5 -35t-39.5 -94q60 2 104 16q67 19 67 68
q0 45 -53 45zM170 736l102 5l59 -95l85 96l107 -6l-131 -164h-144z" />
    <glyph glyph-name="Gcircumflex" unicode="&#x11c;" horiz-adv-x="728" 
d="M681 377l-54 -377h-111l-4 88q-28 -47 -89.5 -73.5t-129.5 -26.5q-132 0 -196 80t-64 215q0 205 106 329.5t293 124.5q126 0 193.5 -62t63.5 -187l-145 -14q7 143 -123 143q-112 0 -169 -88t-57 -237q0 -95 37 -140t113 -45q69 0 113 37t51 92l5 37h-129l15 104h281z
M604 775l-101 -6l-61 73l-85 -74l-102 7l127 141h140z" />
    <glyph glyph-name="gcircumflex" unicode="&#x11d;" horiz-adv-x="587" 
d="M307 415q-43 0 -72.5 -32t-40 -72.5t-10.5 -84.5q0 -97 76 -97q55 0 99 39l30 215q-30 32 -82 32zM342 1l11 72q-64 -62 -157 -62q-79 0 -126 49t-47 147q0 46 8.5 90t28 87t48.5 75t73 52t97 20q91 0 136 -60l12 50h133l-72 -511q-33 -233 -276 -233q-102 0 -161 45
t-66 130l142 21q2 -42 22 -63.5t68 -21.5q107 0 126 113zM518 581l-100 -5l-60 95l-85 -96l-109 6l132 164h144z" />
    <glyph glyph-name="Gbreve" unicode="&#x11e;" horiz-adv-x="728" 
d="M681 377l-54 -377h-111l-4 88q-28 -47 -89.5 -73.5t-129.5 -26.5q-132 0 -196 80t-64 215q0 205 106 329.5t293 124.5q126 0 193.5 -62t63.5 -187l-145 -14q7 143 -123 143q-112 0 -169 -88t-57 -237q0 -95 37 -140t113 -45q69 0 113 37t51 92l5 37h-129l15 104h281z
M443 860q33 0 52.5 14.5t31.5 52.5l96 -6q-31 -151 -189 -151q-74 0 -115 37t-40 111l102 11q0 -37 15 -53t47 -16z" />
    <glyph glyph-name="gbreve" unicode="&#x11f;" horiz-adv-x="587" 
d="M307 415q-43 0 -72.5 -32t-40 -72.5t-10.5 -84.5q0 -97 76 -97q55 0 99 39l30 215q-30 32 -82 32zM342 1l11 72q-64 -62 -157 -62q-79 0 -126 49t-47 147q0 46 8.5 90t28 87t48.5 75t73 52t97 20q91 0 136 -60l12 50h133l-72 -511q-33 -233 -276 -233q-102 0 -161 45
t-66 130l142 21q2 -42 22 -63.5t68 -21.5q107 0 126 113zM341 659q36 0 56 17t32 60l96 -6q-10 -81 -60 -121t-131 -40q-158 0 -155 158l102 11q-1 -42 13 -60.5t47 -18.5z" />
    <glyph glyph-name="Gdotaccent" unicode="&#x120;" horiz-adv-x="728" 
d="M681 377l-54 -377h-111l-4 88q-28 -47 -89.5 -73.5t-129.5 -26.5q-132 0 -196 80t-64 215q0 205 106 329.5t293 124.5q126 0 193.5 -62t63.5 -187l-145 -14q7 143 -123 143q-112 0 -169 -88t-57 -237q0 -95 37 -140t113 -45q69 0 113 37t51 92l5 37h-129l15 104h281z
M538 880q0 -49 -28 -76.5t-77 -27.5q-38 0 -58.5 19.5t-20.5 55.5q0 49 27.5 76t76.5 27q80 0 80 -74z" />
    <glyph glyph-name="gdotaccent" unicode="&#x121;" horiz-adv-x="587" 
d="M307 415q-43 0 -72.5 -32t-40 -72.5t-10.5 -84.5q0 -97 76 -97q55 0 99 39l30 215q-30 32 -82 32zM342 1l11 72q-64 -62 -157 -62q-79 0 -126 49t-47 147q0 46 8.5 90t28 87t48.5 75t73 52t97 20q91 0 136 -60l12 50h133l-72 -511q-33 -233 -276 -233q-102 0 -161 45
t-66 130l142 21q2 -42 22 -63.5t68 -21.5q107 0 126 113zM253 666q0 48 28 75.5t76 27.5q81 0 81 -74q0 -49 -28 -76.5t-77 -27.5q-38 0 -59 20t-21 55z" />
    <glyph glyph-name="Gcommaaccent" unicode="&#x122;" horiz-adv-x="728" 
d="M681 377l-54 -377h-111l-4 88q-28 -47 -89.5 -73.5t-129.5 -26.5q-132 0 -196 80t-64 215q0 205 106 329.5t293 124.5q126 0 193.5 -62t63.5 -187l-145 -14q7 143 -123 143q-112 0 -169 -88t-57 -237q0 -95 37 -140t113 -45q69 0 113 37t51 92l5 37h-129l15 104h281z
M186 -257l73 189h140l-112 -203z" />
    <glyph glyph-name="gcommaaccent" unicode="&#x123;" horiz-adv-x="587" 
d="M307 415q-43 0 -72.5 -32t-40 -72.5t-10.5 -84.5q0 -97 76 -97q55 0 99 39l30 215q-30 32 -82 32zM342 1l11 72q-64 -62 -157 -62q-79 0 -126 49t-47 147q0 46 8.5 90t28 87t48.5 75t73 52t97 20q91 0 136 -60l12 50h133l-72 -511q-33 -233 -276 -233q-102 0 -161 45
t-66 130l142 21q2 -42 22 -63.5t68 -21.5q107 0 126 113zM466 769l-73 -190h-140l112 204z" />
    <glyph glyph-name="Hcircumflex" unicode="&#x124;" horiz-adv-x="724" 
d="M705 724l-100 -724h-154l41 301h-272l-41 -301h-154l101 724h153l-41 -295h273l41 295h153zM592 775l-101 -6l-61 73l-85 -74l-102 7l127 141h140z" />
    <glyph glyph-name="hcircumflex" unicode="&#x125;" horiz-adv-x="583" 
d="M212 357l-51 -357h-151l106 755h150l-44 -297q82 73 172 73q83 0 117 -43t22 -133l-50 -355h-151l47 331q6 43 -7 60.5t-46 17.5q-49 0 -114 -52zM367 800l-101 -6l-61 73l-85 -74l-102 7l127 141h140z" />
    <glyph glyph-name="Hbar" unicode="&#x126;" horiz-adv-x="724" 
d="M705 724l-15 -105h64l-14 -102h-64l-71 -517h-154l41 301h-272l-41 -301h-154l72 517h-68l15 102h67l15 105h153l-15 -105h273l15 105h153zM238 429h273l12 88h-273z" />
    <glyph glyph-name="hbar" unicode="&#x127;" horiz-adv-x="583" 
d="M211 351l-50 -351h-151l82 583h-59l11 86h60l12 86h150l-13 -86h174l-11 -86h-175l-19 -131q79 73 171 73q83 0 117.5 -43t22.5 -133l-50 -349h-151l46 325q6 43 -7 60.5t-45 17.5q-50 0 -115 -52z" />
    <glyph glyph-name="Itilde" unicode="&#x128;" horiz-adv-x="298" 
d="M179 0h-154l101 724h154zM156 927q35 0 77 -21.5t62 -21.5q16 0 24 10t12 34l75 -4q0 -63 -29.5 -100.5t-80.5 -37.5q-38 0 -81 22t-61 22t-26.5 -10.5t-9.5 -37.5l-81 3q1 64 34.5 103t84.5 39z" />
    <glyph glyph-name="itilde" unicode="&#x129;" horiz-adv-x="268" 
d="M236 521l-73 -521h-151l73 521h151zM109 730q35 0 77 -21.5t62 -21.5q17 0 24.5 10t11.5 34l75 -4q-3 -64 -30.5 -101t-79.5 -37q-38 0 -81 22t-61 22t-26.5 -10.5t-9.5 -37.5l-81 3q3 66 35.5 104t83.5 38z" />
    <glyph glyph-name="Imacron" unicode="&#x12a;" horiz-adv-x="298" 
d="M179 0h-154l101 724h154zM367 785h-317l15 100h317z" />
    <glyph glyph-name="imacron" unicode="&#x12b;" horiz-adv-x="268" 
d="M236 521l-73 -521h-151l73 521h151zM17 603l14 100h311l-14 -100h-311z" />
    <glyph glyph-name="Ibreve" unicode="&#x12c;" horiz-adv-x="298" 
d="M179 0h-154l101 724h154zM218 860q33 0 52.5 14.5t31.5 52.5l96 -6q-31 -151 -189 -151q-74 0 -115 37t-40 111l102 11q0 -37 15 -53t47 -16z" />
    <glyph glyph-name="ibreve" unicode="&#x12d;" horiz-adv-x="268" 
d="M236 521l-73 -521h-151l73 521h151zM175 659q36 0 56 17t32 60l96 -6q-10 -81 -60 -121t-131 -40q-158 0 -155 158l102 11q-1 -42 13 -60.5t47 -18.5z" />
    <glyph glyph-name="Iogonek" unicode="&#x12e;" horiz-adv-x="298" 
d="M156 -110l64 -30q-17 -48 -55 -73.5t-86 -25.5q-55 0 -84.5 24.5t-29.5 69.5q0 77 97 145h-37l101 724h154l-101 -724q-54 -37 -78 -64t-24 -56q0 -32 30 -32q28 0 49 42z" />
    <glyph glyph-name="iogonek" unicode="&#x12f;" horiz-adv-x="268" 
d="M133 -110l62 -30q-22 -47 -63 -73t-89 -26q-51 0 -78 22t-27 62q0 47 29.5 81.5t89.5 73.5h-45l73 521h151l-73 -521q-55 -39 -82 -67t-27 -58q0 -27 26 -27q29 0 53 42zM275 695q0 -49 -27.5 -76.5t-76.5 -27.5q-38 0 -59 20t-21 55q0 48 28 75.5t76 27.5q80 0 80 -74z
" />
    <glyph glyph-name="Idotaccent" unicode="&#x130;" horiz-adv-x="298" 
d="M179 0h-154l101 724h154zM313 880q0 -49 -28 -76.5t-77 -27.5q-38 0 -58.5 19.5t-20.5 55.5q0 49 27.5 76t76.5 27q80 0 80 -74z" />
    <glyph glyph-name="dotlessi" unicode="&#x131;" horiz-adv-x="268" 
d="M236 521l-73 -521h-151l73 521h151z" />
    <glyph glyph-name="IJ" unicode="&#x132;" horiz-adv-x="837" 
d="M179 0h-154l101 724h154zM598 194l74 530h153l-72 -525q-15 -111 -76 -161t-167 -50q-215 0 -216 200l150 22q4 -51 18 -77t54 -26q35 0 55 20t27 67z" />
    <glyph glyph-name="Jcircumflex" unicode="&#x134;" horiz-adv-x="539" 
d="M300 194l74 530h153l-72 -525q-15 -111 -76 -161t-167 -50q-215 0 -216 200l150 22q4 -51 18 -77t54 -26q35 0 55 20t27 67zM627 775l-101 -6l-61 73l-85 -74l-102 7l127 141h140z" />
    <glyph glyph-name="jcircumflex" unicode="&#x135;" horiz-adv-x="266" 
d="M7 -33l78 554h151l-79 -565q-27 -179 -206 -179q-38 0 -74 8.5t-50 19.5l27 103q36 -17 75 -17q67 0 78 76zM332 581l-100 -5l-60 95l-85 -96l-109 6l132 164h144z" />
    <glyph glyph-name="Kcommaaccent" unicode="&#x136;" horiz-adv-x="665" 
d="M279 724l-44 -316l309 316h174l-301 -307l196 -417h-172l-147 310l-84 -81l-32 -229h-153l101 724h153zM156 -257l73 189h140l-112 -203z" />
    <glyph glyph-name="kcommaaccent" unicode="&#x137;" horiz-adv-x="559" 
d="M514 0h-167l-99 241l-60 -52l-27 -189h-151l106 755h151l-59 -419l197 185h169l-200 -187zM107 -257l73 189h140l-112 -203z" />
    <glyph glyph-name="kgreenlandic" unicode="&#x138;" horiz-adv-x="559" 
d="M514 0h-167l-99 241l-60 -52l-27 -189h-151l73 521h151l-26 -185l197 185h169l-200 -187z" />
    <glyph glyph-name="Lacute" unicode="&#x139;" horiz-adv-x="561" 
d="M485 0h-460l101 724h154l-83 -598h306zM140 776l109 140h163l-167 -148z" />
    <glyph glyph-name="lacute" unicode="&#x13a;" horiz-adv-x="268" 
d="M12 0l106 755h151l-106 -755h-151zM114 797l109 140h163l-167 -148z" />
    <glyph glyph-name="Lcommaaccent" unicode="&#x13b;" horiz-adv-x="561" 
d="M485 0h-460l101 724h154l-83 -598h306zM124 -257l73 189h140l-112 -203z" />
    <glyph glyph-name="lcommaaccent" unicode="&#x13c;" horiz-adv-x="268" 
d="M12 0l106 755h151l-106 -755h-151zM-52 -257l73 189h140l-112 -203z" />
    <glyph glyph-name="Lcaron" unicode="&#x13d;" horiz-adv-x="561" 
d="M485 0h-460l101 724h154l-83 -598h306zM318 531l60 193h139l-94 -202z" />
    <glyph glyph-name="lcaron" unicode="&#x13e;" horiz-adv-x="307" 
d="M12 0l106 755h151l-106 -755h-151zM270 562l60 193h139l-94 -202z" />
    <glyph glyph-name="Ldot" unicode="&#x13f;" horiz-adv-x="561" 
d="M485 0h-460l101 724h154l-83 -598h306zM517 430q0 -47 -27 -73.5t-74 -26.5q-36 0 -56 19t-20 53q0 47 26.5 73t73.5 26q77 0 77 -71z" />
    <glyph glyph-name="ldot" unicode="&#x140;" horiz-adv-x="401" 
d="M12 0l106 755h151l-106 -755h-151zM256 387q0 46 26.5 72t72.5 26q77 0 77 -70q0 -47 -27 -73.5t-73 -26.5q-36 0 -56 19t-20 53z" />
    <glyph glyph-name="Lslash" unicode="&#x141;" horiz-adv-x="561" 
d="M-18 227l13 119l83 35l48 343h154l-40 -289l186 80l-12 -120l-191 -80l-26 -189h306l-18 -126h-460l36 261z" />
    <glyph glyph-name="lslash" unicode="&#x142;" horiz-adv-x="328" 
d="M0 269l19 119l75 34l47 333h151l-39 -279l80 34l-19 -121l-78 -33l-50 -356h-151l42 303z" />
    <glyph glyph-name="Nacute" unicode="&#x143;" horiz-adv-x="736" 
d="M617 0h-177l-202 519l-73 -519h-140l101 724h184l196 -520l73 520h138zM355 776l109 140h163l-167 -148z" />
    <glyph glyph-name="nacute" unicode="&#x144;" horiz-adv-x="583" 
d="M211 357l-50 -357h-151l73 521h141l-9 -68l1 -1q81 79 184 79q136 0 136 -133q0 -20 -3 -43l-50 -355h-151l47 331q2 18 2 23q0 55 -52 55q-56 0 -118 -52zM262 581l96 162h163l-160 -171z" />
    <glyph glyph-name="Ncommaaccent" unicode="&#x145;" horiz-adv-x="736" 
d="M617 0h-177l-202 519l-73 -519h-140l101 724h184l196 -520l73 520h138zM189 -257l73 189h140l-112 -203z" />
    <glyph glyph-name="ncommaaccent" unicode="&#x146;" horiz-adv-x="583" 
d="M211 357l-50 -357h-151l73 521h141l-9 -68l1 -1q81 79 184 79q136 0 136 -133q0 -20 -3 -43l-50 -355h-151l47 331q2 18 2 23q0 55 -52 55q-56 0 -118 -52zM109 -257l73 189h140l-112 -203z" />
    <glyph glyph-name="Ncaron" unicode="&#x147;" horiz-adv-x="736" 
d="M617 0h-177l-202 519l-73 -519h-140l101 724h184l196 -520l73 520h138zM270 912l100 6l62 -73l85 74l101 -7l-126 -141h-140z" />
    <glyph glyph-name="ncaron" unicode="&#x148;" horiz-adv-x="583" 
d="M211 357l-50 -357h-151l73 521h141l-9 -68l1 -1q81 79 184 79q136 0 136 -133q0 -20 -3 -43l-50 -355h-151l47 331q2 18 2 23q0 55 -52 55q-56 0 -118 -52zM173 736l102 5l59 -95l85 96l107 -6l-131 -164h-144z" />
    <glyph glyph-name="napostrophe" unicode="&#x149;" horiz-adv-x="651" 
d="M279 357l-50 -357h-151l73 521h141l-9 -68l1 -1q81 79 184 79q136 0 136 -133q0 -20 -3 -43l-50 -355h-151l47 331q2 18 2 23q0 55 -52 55q-56 0 -118 -52zM7 501l66 172h127l-102 -185z" />
    <glyph glyph-name="Eng" unicode="&#x14a;" horiz-adv-x="736" 
d="M617 0l-9 -60q-27 -179 -206 -179q-38 0 -73.5 8.5t-50.5 19.5l27 103q36 -17 76 -17q66 0 77 76l6 43l-226 525l-73 -519h-140l101 724h184l202 -485l67 485h138z" />
    <glyph glyph-name="eng" unicode="&#x14b;" horiz-adv-x="583" 
d="M327 -33l7 50l45 314q11 78 -50 78q-56 0 -118 -52l-50 -357h-151l73 521h141l-9 -68l1 -1q81 79 184 79q76 0 111 -44t22 -132l-49 -344h1l-8 -55q-27 -179 -206 -179q-38 0 -74 8.5t-50 19.5l27 103q36 -17 75 -17q67 0 78 76z" />
    <glyph glyph-name="Omacron" unicode="&#x14c;" horiz-adv-x="751" 
d="M329 -12q-152 0 -224 82t-72 221q0 125 43.5 224t136 160.5t220.5 61.5q151 0 221 -83t70 -220q0 -194 -103.5 -320t-291.5 -126zM345 111q73 0 124.5 47.5t73.5 118t22 155.5q0 77 -35.5 129.5t-112.5 52.5q-111 0 -168 -91t-57 -229q0 -80 36.5 -131.5t116.5 -51.5z
M598 785h-317l15 100h317z" />
    <glyph glyph-name="omacron" unicode="&#x14d;" horiz-adv-x="587" 
d="M248 -12q-227 0 -227 222q0 140 78.5 230.5t223.5 90.5q222 0 222 -224q0 -87 -30.5 -157t-99.5 -116t-167 -46zM260 93q37 0 64 22t40 57.5t18.5 69.5t5.5 70q0 111 -83 111q-38 0 -65 -21t-40.5 -55t-19.5 -68t-6 -70q0 -116 86 -116zM176 603l14 100h311l-14 -100
h-311z" />
    <glyph glyph-name="Obreve" unicode="&#x14e;" horiz-adv-x="751" 
d="M329 -12q-152 0 -224 82t-72 221q0 125 43.5 224t136 160.5t220.5 61.5q151 0 221 -83t70 -220q0 -194 -103.5 -320t-291.5 -126zM345 111q73 0 124.5 47.5t73.5 118t22 155.5q0 77 -35.5 129.5t-112.5 52.5q-111 0 -168 -91t-57 -229q0 -80 36.5 -131.5t116.5 -51.5z
M449 860q33 0 52.5 14.5t31.5 52.5l96 -6q-31 -151 -189 -151q-74 0 -115 37t-40 111l102 11q0 -37 15 -53t47 -16z" />
    <glyph glyph-name="obreve" unicode="&#x14f;" horiz-adv-x="587" 
d="M248 -12q-227 0 -227 222q0 140 78.5 230.5t223.5 90.5q222 0 222 -224q0 -87 -30.5 -157t-99.5 -116t-167 -46zM260 93q37 0 64 22t40 57.5t18.5 69.5t5.5 70q0 111 -83 111q-38 0 -65 -21t-40.5 -55t-19.5 -68t-6 -70q0 -116 86 -116zM334 659q36 0 56 17t32 60l96 -6
q-10 -81 -60 -121t-131 -40q-158 0 -155 158l102 11q-1 -42 13 -60.5t47 -18.5z" />
    <glyph glyph-name="Ohungarumlaut" unicode="&#x150;" horiz-adv-x="751" 
d="M329 -12q-152 0 -224 82t-72 221q0 125 43.5 224t136 160.5t220.5 61.5q151 0 221 -83t70 -220q0 -194 -103.5 -320t-291.5 -126zM345 111q73 0 124.5 47.5t73.5 118t22 155.5q0 77 -35.5 129.5t-112.5 52.5q-111 0 -168 -91t-57 -229q0 -80 36.5 -131.5t116.5 -51.5z
M305 780l68 135h155l-128 -147zM455 776l114 143h162l-175 -151z" />
    <glyph glyph-name="ohungarumlaut" unicode="&#x151;" horiz-adv-x="587" 
d="M248 -12q-227 0 -227 222q0 140 78.5 230.5t223.5 90.5q222 0 222 -224q0 -87 -30.5 -157t-99.5 -116t-167 -46zM260 93q37 0 64 22t40 57.5t18.5 69.5t5.5 70q0 111 -83 111q-38 0 -65 -21t-40.5 -55t-19.5 -68t-6 -70q0 -116 86 -116zM190 584l67 159h154l-127 -171z
M342 581l109 166h162l-171 -175z" />
    <glyph glyph-name="OE" unicode="&#x152;" horiz-adv-x="1066" 
d="M987 0h-458l9 67q-85 -79 -218 -79q-144 0 -215.5 80.5t-71.5 218.5q0 198 104.5 324t285.5 126q133 0 197 -86l10 73h440l-17 -122h-302l-25 -181h284l-16 -120h-284l-26 -179h321zM345 110q97 0 161 79.5t64 244.5q0 87 -39.5 134t-111.5 47q-102 0 -164.5 -81.5
t-62.5 -241.5q0 -89 40 -135.5t113 -46.5z" />
    <glyph glyph-name="oe" unicode="&#x153;" horiz-adv-x="883" 
d="M601 -12q-60 0 -103.5 23.5t-63.5 60.5q-72 -84 -195 -84q-110 0 -164 58t-54 166q0 136 77.5 227.5t216.5 91.5q124 0 173 -83q29 36 78 59.5t108 23.5q88 0 132 -40t44 -103q0 -38 -14.5 -68t-42.5 -49t-57 -32t-70.5 -20.5t-69 -11t-66.5 -6.5q2 -46 19 -73t68 -27
q72 0 98 74l120 -29q-24 -74 -85.5 -116t-148.5 -42zM260 93q36 0 62.5 21t40 56t19.5 70.5t6 74.5q0 108 -83 108q-37 0 -64 -21t-40.5 -55.5t-20 -70t-6.5 -71.5q0 -112 86 -112zM654 428q-46 0 -78 -36t-39 -93q66 3 103 14q68 20 68 67q0 23 -14.5 35.5t-39.5 12.5z" />
    <glyph glyph-name="Racute" unicode="&#x154;" horiz-adv-x="637" 
d="M462 318l119 -318h-166l-101 281h-97l-39 -281h-153l101 724h275q113 0 164.5 -50.5t51.5 -129.5q0 -86 -39 -140t-116 -86zM233 394h70q152 0 152 132q0 80 -109 80h-84zM272 776l109 140h163l-167 -148z" />
    <glyph glyph-name="racute" unicode="&#x155;" horiz-adv-x="397" 
d="M208 332l-47 -332h-151l73 521h138l-11 -87h2q78 97 171 97q9 0 27 -2l-20 -141q-100 6 -182 -56zM189 581l96 162h163l-160 -171z" />
    <glyph glyph-name="Rcommaaccent" unicode="&#x156;" horiz-adv-x="637" 
d="M462 318l119 -318h-166l-101 281h-97l-39 -281h-153l101 724h275q113 0 164.5 -50.5t51.5 -129.5q0 -86 -39 -140t-116 -86zM233 394h70q152 0 152 132q0 80 -109 80h-84zM141 -257l73 189h140l-112 -203z" />
    <glyph glyph-name="rcommaaccent" unicode="&#x157;" horiz-adv-x="397" 
d="M208 332l-47 -332h-151l73 521h138l-11 -87h2q78 97 171 97q9 0 27 -2l-20 -141q-100 6 -182 -56zM-49 -257l73 189h140l-112 -203z" />
    <glyph glyph-name="Rcaron" unicode="&#x158;" horiz-adv-x="637" 
d="M462 318l119 -318h-166l-101 281h-97l-39 -281h-153l101 724h275q113 0 164.5 -50.5t51.5 -129.5q0 -86 -39 -140t-116 -86zM233 394h70q152 0 152 132q0 80 -109 80h-84zM201 912l100 6l62 -73l85 74l101 -7l-126 -141h-140z" />
    <glyph glyph-name="rcaron" unicode="&#x159;" horiz-adv-x="397" 
d="M208 332l-47 -332h-151l73 521h138l-11 -87h2q78 97 171 97q9 0 27 -2l-20 -141q-100 6 -182 -56zM104 736l102 5l59 -95l85 96l107 -6l-131 -164h-144z" />
    <glyph glyph-name="Sacute" unicode="&#x15a;" horiz-adv-x="593" 
d="M580 527l-143 -16q2 54 -20.5 83.5t-81.5 29.5q-58 0 -88 -25t-30 -68q0 -25 16 -43t35 -27t55 -21q8 -3 32 -10.5l34.5 -11t32.5 -12.5t33 -16.5l28.5 -19t26.5 -25t19 -30.5t14 -38t4 -46q0 -119 -85.5 -181t-209.5 -62q-54 0 -97.5 10.5t-82 34t-60 69.5t-21.5 110
l143 20q3 -60 28.5 -95t96.5 -35q58 0 95.5 25t37.5 79q0 17 -7 31t-17 23t-28.5 18t-33 14t-39.5 12l-41.5 13t-39.5 14.5t-40 19t-32.5 24.5t-29 33t-16.5 42t-7 55q0 106 82.5 169t204.5 63q241 0 232 -210zM258 776l109 140h163l-167 -148z" />
    <glyph glyph-name="sacute" unicode="&#x15b;" horiz-adv-x="501" 
d="M270 531q89 0 140 -39.5t61 -111.5l-125 -29q-11 78 -83 78q-73 0 -73 -48q0 -7 1.5 -12.5t6 -10.5t8 -8.5t11.5 -7t13 -6t16 -5.5t16 -4t18.5 -4.5t18.5 -4.5q33 -8 54.5 -16t46 -24t37 -43.5t12.5 -64.5q0 -88 -67 -135t-175 -47q-103 0 -155.5 40.5t-58.5 109.5
l128 34q12 -82 97 -82q83 0 83 53q0 9 -2.5 16.5t-10 13l-13 9.5t-19 8.5t-20 6.5t-24 6.5t-24.5 6.5q-31 8 -52.5 17t-44.5 25t-35 43t-12 64q0 85 65.5 128.5t160.5 43.5zM201 581l96 162h163l-160 -171z" />
    <glyph glyph-name="Scircumflex" unicode="&#x15c;" horiz-adv-x="593" 
d="M580 527l-143 -16q2 54 -20.5 83.5t-81.5 29.5q-58 0 -88 -25t-30 -68q0 -25 16 -43t35 -27t55 -21q8 -3 32 -10.5l34.5 -11t32.5 -12.5t33 -16.5l28.5 -19t26.5 -25t19 -30.5t14 -38t4 -46q0 -119 -85.5 -181t-209.5 -62q-54 0 -97.5 10.5t-82 34t-60 69.5t-21.5 110
l143 20q3 -60 28.5 -95t96.5 -35q58 0 95.5 25t37.5 79q0 17 -7 31t-17 23t-28.5 18t-33 14t-39.5 12l-41.5 13t-39.5 14.5t-40 19t-32.5 24.5t-29 33t-16.5 42t-7 55q0 106 82.5 169t204.5 63q241 0 232 -210zM524 775l-101 -6l-61 73l-85 -74l-102 7l127 141h140z" />
    <glyph glyph-name="scircumflex" unicode="&#x15d;" horiz-adv-x="501" 
d="M270 531q89 0 140 -39.5t61 -111.5l-125 -29q-11 78 -83 78q-73 0 -73 -48q0 -7 1.5 -12.5t6 -10.5t8 -8.5t11.5 -7t13 -6t16 -5.5t16 -4t18.5 -4.5t18.5 -4.5q33 -8 54.5 -16t46 -24t37 -43.5t12.5 -64.5q0 -88 -67 -135t-175 -47q-103 0 -155.5 40.5t-58.5 109.5
l128 34q12 -82 97 -82q83 0 83 53q0 9 -2.5 16.5t-10 13l-13 9.5t-19 8.5t-20 6.5t-24 6.5t-24.5 6.5q-31 8 -52.5 17t-44.5 25t-35 43t-12 64q0 85 65.5 128.5t160.5 43.5zM454 581l-100 -5l-60 95l-85 -96l-109 6l132 164h144z" />
    <glyph glyph-name="Scedilla" unicode="&#x15e;" horiz-adv-x="593" 
d="M118 -230l18 69q26 -12 54 -12q24 0 38.5 11.5t14.5 31.5t-14.5 27.5t-44.5 8.5l22 84q-216 19 -215 222l143 20q3 -60 28.5 -95t96.5 -35q58 0 95.5 25t37.5 79q0 17 -7 31t-17 23t-28.5 18t-33 14t-39.5 12l-41.5 13t-39.5 14.5t-40 19t-32.5 24.5t-29 33t-16.5 42
t-7 55q0 106 82.5 169t204.5 63q241 0 232 -210l-143 -16q2 54 -20.5 83.5t-81.5 29.5q-58 0 -88 -25t-30 -68q0 -25 16 -43t35 -27t55 -21q8 -3 32 -10.5l34.5 -11t32.5 -12.5t33 -16.5l28.5 -19t26.5 -25t19 -30.5t14 -38t4 -46q0 -112 -77 -173.5t-192 -68.5l-9 -34
q73 -13 73 -81q0 -58 -39.5 -89.5t-102.5 -31.5q-50 0 -82 17z" />
    <glyph glyph-name="scedilla" unicode="&#x15f;" horiz-adv-x="501" 
d="M80 -230l18 69q29 -12 54 -12t39.5 11t14.5 32q0 20 -15 27.5t-45 8.5l23 84q-84 7 -127 46.5t-49 101.5l128 34q12 -82 97 -82q83 0 83 53q0 9 -2.5 16.5t-10 13l-13 9.5t-19 8.5t-20 6.5t-24 6.5t-24.5 6.5q-31 8 -52.5 17t-44.5 25t-35 43t-12 64q0 85 65.5 128.5
t160.5 43.5q89 0 140 -39.5t61 -111.5l-125 -29q-11 78 -83 78q-73 0 -73 -48q0 -7 1.5 -12.5t6 -10.5t8 -8.5t11.5 -7t13 -6t16 -5.5t16 -4t18.5 -4.5t18.5 -4.5q33 -8 54.5 -16t46 -24t37 -43.5t12.5 -64.5q0 -80 -57 -126.5t-152 -53.5l-9 -35q74 -14 74 -81
q0 -58 -40 -89.5t-103 -31.5q-48 0 -82 17z" />
    <glyph glyph-name="Scaron" unicode="&#x160;" horiz-adv-x="593" 
d="M580 527l-143 -16q2 54 -20.5 83.5t-81.5 29.5q-58 0 -88 -25t-30 -68q0 -25 16 -43t35 -27t55 -21q8 -3 32 -10.5l34.5 -11t32.5 -12.5t33 -16.5l28.5 -19t26.5 -25t19 -30.5t14 -38t4 -46q0 -119 -85.5 -181t-209.5 -62q-54 0 -97.5 10.5t-82 34t-60 69.5t-21.5 110
l143 20q3 -60 28.5 -95t96.5 -35q58 0 95.5 25t37.5 79q0 17 -7 31t-17 23t-28.5 18t-33 14t-39.5 12l-41.5 13t-39.5 14.5t-40 19t-32.5 24.5t-29 33t-16.5 42t-7 55q0 106 82.5 169t204.5 63q241 0 232 -210zM198 912l100 6l62 -73l85 74l101 -7l-126 -141h-140z" />
    <glyph glyph-name="scaron" unicode="&#x161;" horiz-adv-x="501" 
d="M270 531q89 0 140 -39.5t61 -111.5l-125 -29q-11 78 -83 78q-73 0 -73 -48q0 -7 1.5 -12.5t6 -10.5t8 -8.5t11.5 -7t13 -6t16 -5.5t16 -4t18.5 -4.5t18.5 -4.5q33 -8 54.5 -16t46 -24t37 -43.5t12.5 -64.5q0 -88 -67 -135t-175 -47q-103 0 -155.5 40.5t-58.5 109.5
l128 34q12 -82 97 -82q83 0 83 53q0 9 -2.5 16.5t-10 13l-13 9.5t-19 8.5t-20 6.5t-24 6.5t-24.5 6.5q-31 8 -52.5 17t-44.5 25t-35 43t-12 64q0 85 65.5 128.5t160.5 43.5zM131 736l102 5l59 -95l85 96l107 -6l-131 -164h-144z" />
    <glyph glyph-name="uni0162" unicode="&#x162;" horiz-adv-x="589" 
d="M118 -230l18 69q26 -12 54 -12q24 0 38.5 11.5t14.5 31.5t-14.5 27.5t-44.5 8.5l25 94h-38l83 599h-210l17 125h574l-18 -125h-209l-83 -599h-43l-13 -45q73 -13 73 -81q0 -58 -39.5 -89.5t-102.5 -31.5q-50 0 -82 17z" />
    <glyph glyph-name="uni0163" unicode="&#x163;" horiz-adv-x="412" 
d="M59 -230l18 69q29 -12 54 -12t39.5 11t14.5 32q0 20 -15 27.5t-45 8.5l24 90q-109 28 -88 167l36 251h-78l14 107h78l22 150l154 23l-25 -173h138l-14 -107h-138l-34 -237q-12 -76 50 -76q40 0 82 22l16 -99q-57 -34 -143 -36l-9 -33q74 -14 74 -81q0 -58 -40 -89.5
t-103 -31.5q-48 0 -82 17z" />
    <glyph glyph-name="Tcaron" unicode="&#x164;" horiz-adv-x="589" 
d="M325 0h-154l83 599h-210l17 125h574l-18 -125h-209zM199 912l100 6l62 -73l85 74l101 -7l-126 -141h-140z" />
    <glyph glyph-name="tcaron" unicode="&#x165;" horiz-adv-x="412" 
d="M346 123l16 -99q-24 -14 -65.5 -25t-82.5 -11q-178 0 -153 175l36 251h-78l14 107h78l22 150l154 23l-25 -173h138l-14 -107h-138l-34 -237q-12 -76 50 -76q40 0 82 22zM304 562l60 193h139l-94 -202z" />
    <glyph glyph-name="Tbar" unicode="&#x166;" horiz-adv-x="589" 
d="M80 295l16 114h131l27 190h-210l17 125h574l-18 -125h-209l-27 -190h139l-16 -114h-138l-41 -295h-154l41 295h-132z" />
    <glyph glyph-name="tbar" unicode="&#x167;" horiz-adv-x="412" 
d="M346 123l16 -99q-24 -14 -65.5 -25t-82.5 -11q-178 0 -153 175l9 63h-75l13 99h76l13 89h-78l14 107h78l22 150l154 23l-25 -173h138l-14 -107h-138l-13 -89h140l-14 -99h-140l-7 -49q-12 -76 50 -76q40 0 82 22z" />
    <glyph glyph-name="Utilde" unicode="&#x168;" horiz-adv-x="700" 
d="M688 724l-63 -465q-38 -271 -318 -271q-152 0 -212.5 70t-39.5 212l63 454h153l-61 -444q-13 -90 10 -130.5t98 -40.5q74 0 108.5 38t46.5 129l63 448h152zM356 927q35 0 77 -21.5t62 -21.5q16 0 24 10t12 34l75 -4q0 -63 -29.5 -100.5t-80.5 -37.5q-38 0 -81 22t-61 22
t-26.5 -10.5t-9.5 -37.5l-81 3q1 64 34.5 103t84.5 39z" />
    <glyph glyph-name="utilde" unicode="&#x169;" horiz-adv-x="577" 
d="M345 158l51 363h151l-73 -521h-127l2 64q-1 0 -1 0.5t-1 0.5q-30 -33 -77.5 -55t-99.5 -22q-80 0 -115.5 46t-23.5 134l49 353h151l-46 -331q-11 -82 54 -82q54 0 106 50zM261 730q35 0 77 -21.5t62 -21.5q17 0 24.5 10t11.5 34l75 -4q-3 -64 -30.5 -101t-79.5 -37
q-38 0 -81 22t-61 22t-26.5 -10.5t-9.5 -37.5l-81 3q3 66 35.5 104t83.5 38z" />
    <glyph glyph-name="Umacron" unicode="&#x16a;" horiz-adv-x="700" 
d="M688 724l-63 -465q-38 -271 -318 -271q-152 0 -212.5 70t-39.5 212l63 454h153l-61 -444q-13 -90 10 -130.5t98 -40.5q74 0 108.5 38t46.5 129l63 448h152zM567 785h-317l15 100h317z" />
    <glyph glyph-name="umacron" unicode="&#x16b;" horiz-adv-x="577" 
d="M345 158l51 363h151l-73 -521h-127l2 64q-1 0 -1 0.5t-1 0.5q-30 -33 -77.5 -55t-99.5 -22q-80 0 -115.5 46t-23.5 134l49 353h151l-46 -331q-11 -82 54 -82q54 0 106 50zM169 603l14 100h311l-14 -100h-311z" />
    <glyph glyph-name="Ubreve" unicode="&#x16c;" horiz-adv-x="700" 
d="M688 724l-63 -465q-38 -271 -318 -271q-152 0 -212.5 70t-39.5 212l63 454h153l-61 -444q-13 -90 10 -130.5t98 -40.5q74 0 108.5 38t46.5 129l63 448h152zM418 860q33 0 52.5 14.5t31.5 52.5l96 -6q-31 -151 -189 -151q-74 0 -115 37t-40 111l102 11q0 -37 15 -53
t47 -16z" />
    <glyph glyph-name="ubreve" unicode="&#x16d;" horiz-adv-x="577" 
d="M345 158l51 363h151l-73 -521h-127l2 64q-1 0 -1 0.5t-1 0.5q-30 -33 -77.5 -55t-99.5 -22q-80 0 -115.5 46t-23.5 134l49 353h151l-46 -331q-11 -82 54 -82q54 0 106 50zM327 659q36 0 56 17t32 60l96 -6q-10 -81 -60 -121t-131 -40q-158 0 -155 158l102 11
q-1 -42 13 -60.5t47 -18.5z" />
    <glyph glyph-name="Uring" unicode="&#x16e;" horiz-adv-x="700" 
d="M688 724l-63 -465q-38 -271 -318 -271q-152 0 -212.5 70t-39.5 212l63 454h153l-61 -444q-13 -90 10 -130.5t98 -40.5q74 0 108.5 38t46.5 129l63 448h152zM530 850q0 -57 -37 -90t-95 -33q-47 0 -74.5 23.5t-27.5 66.5q0 58 39 91t93 33q45 0 73.5 -23.5t28.5 -67.5z
M406 787q25 0 40 15.5t15 42.5q0 38 -41 38q-25 0 -41 -14.5t-16 -40.5q0 -41 43 -41z" />
    <glyph glyph-name="uring" unicode="&#x16f;" horiz-adv-x="577" 
d="M345 158l51 363h151l-73 -521h-127l2 64q-1 0 -1 0.5t-1 0.5q-30 -33 -77.5 -55t-99.5 -22q-80 0 -115.5 46t-23.5 134l49 353h151l-46 -331q-11 -82 54 -82q54 0 106 50zM445 690q0 -56 -36 -88t-92 -32q-46 0 -73 23t-27 64q0 57 37.5 89.5t91.5 32.5q44 0 71.5 -23.5
t27.5 -65.5zM324 630q23 0 37 13.5t14 38.5q0 36 -38 36q-22 0 -37 -14t-15 -38q0 -36 39 -36z" />
    <glyph glyph-name="Uhungarumlaut" unicode="&#x170;" horiz-adv-x="700" 
d="M688 724l-63 -465q-38 -271 -318 -271q-152 0 -212.5 70t-39.5 212l63 454h153l-61 -444q-13 -90 10 -130.5t98 -40.5q74 0 108.5 38t46.5 129l63 448h152zM274 780l68 135h155l-128 -147zM424 776l114 143h162l-175 -151z" />
    <glyph glyph-name="uhungarumlaut" unicode="&#x171;" horiz-adv-x="577" 
d="M345 158l51 363h151l-73 -521h-127l2 64q-1 0 -1 0.5t-1 0.5q-30 -33 -77.5 -55t-99.5 -22q-80 0 -115.5 46t-23.5 134l49 353h151l-46 -331q-11 -82 54 -82q54 0 106 50zM183 584l67 159h154l-127 -171zM335 581l109 166h162l-171 -175z" />
    <glyph glyph-name="Uogonek" unicode="&#x172;" horiz-adv-x="700" 
d="M436 -110l64 -30q-17 -48 -55 -73.5t-86 -25.5q-55 0 -84.5 24.5t-29.5 69.5q0 70 81 133h-19q-152 0 -212 70t-40 212l63 454h153l-61 -444q-13 -90 10 -130.5t98 -40.5q74 0 108 38t47 129l63 448h152l-63 -465q-14 -100 -51 -152t-108 -97q-49 -31 -79 -65.5
t-30 -64.5q0 -32 30 -32q28 0 49 42z" />
    <glyph glyph-name="uogonek" unicode="&#x173;" horiz-adv-x="577" 
d="M443 -110l62 -30q-22 -47 -63 -73t-89 -26q-51 0 -78 22t-27 62q0 47 26 82.5t78 73.5l-3 63q-1 0 -1 0.5t-1 0.5q-30 -32 -77.5 -54t-99.5 -22q-80 0 -115.5 45.5t-23.5 133.5l49 353h151l-46 -331q-6 -42 6.5 -62t47.5 -20q54 0 106 50l51 363h151l-73 -521
q-59 -40 -84.5 -67t-25.5 -58q0 -27 26 -27q29 0 53 42z" />
    <glyph glyph-name="Wcircumflex" unicode="&#x174;" horiz-adv-x="961" 
d="M748 0h-196l-45 506h-4l-182 -506h-204l-53 724h160l22 -563h4l205 563h164l54 -566h4l171 566h154zM713 775l-101 -6l-61 73l-85 -74l-102 7l127 141h140z" />
    <glyph glyph-name="wcircumflex" unicode="&#x175;" horiz-adv-x="814" 
d="M280 0h-180l-77 521h150l43 -370l143 370h149l43 -368l139 368h149l-226 -521h-170l-38 345zM611 581l-100 -5l-60 95l-85 -96l-109 6l132 164h144z" />
    <glyph glyph-name="Ycircumflex" unicode="&#x176;" horiz-adv-x="597" 
d="M373 274l-38 -274h-154l39 274l-185 450h160l115 -314h4l193 314h162zM530 775l-101 -6l-61 73l-85 -74l-102 7l127 141h140z" />
    <glyph glyph-name="ycircumflex" unicode="&#x177;" horiz-adv-x="524" 
d="M142 -10l-119 531h157l58 -369h2l152 369h160l-273 -557q-52 -106 -98.5 -146.5t-128.5 -40.5q-66 0 -108 22l25 104q43 -15 73 -15q33 0 52 21.5t48 80.5zM467 581l-100 -5l-60 95l-85 -96l-109 6l132 164h144z" />
    <glyph glyph-name="Ydieresis" unicode="&#x178;" horiz-adv-x="597" 
d="M373 274l-38 -274h-154l39 274l-185 450h160l115 -314h4l193 314h162zM161 846q0 42 29 67.5t74 25.5q36 0 56.5 -19.5t20.5 -51.5q0 -42 -28 -67.5t-72 -25.5q-37 0 -58.5 19t-21.5 52zM397 846q0 42 28.5 67.5t73.5 25.5q36 0 57 -19.5t21 -51.5q0 -41 -28.5 -67
t-71.5 -26q-37 0 -58.5 19t-21.5 52z" />
    <glyph glyph-name="Zacute" unicode="&#x179;" horiz-adv-x="581" 
d="M510 0h-530l15 105l406 497h-329l17 122h508l-16 -108l-399 -494h345zM243 776l109 140h163l-167 -148z" />
    <glyph glyph-name="zacute" unicode="&#x17a;" horiz-adv-x="464" 
d="M394 0h-414l14 100l277 314h-232l15 107h399l-15 -101l-270 -306h243zM187 581l96 162h163l-160 -171z" />
    <glyph glyph-name="Zdotaccent" unicode="&#x17b;" horiz-adv-x="581" 
d="M510 0h-530l15 105l406 497h-329l17 122h508l-16 -108l-399 -494h345zM443 880q0 -49 -28 -76.5t-77 -27.5q-38 0 -58.5 19.5t-20.5 55.5q0 49 27.5 76t76.5 27q80 0 80 -74z" />
    <glyph glyph-name="zdotaccent" unicode="&#x17c;" horiz-adv-x="464" 
d="M394 0h-414l14 100l277 314h-232l15 107h399l-15 -101l-270 -306h243zM176 666q0 48 28 75.5t76 27.5q81 0 81 -74q0 -49 -28 -76.5t-77 -27.5q-38 0 -59 20t-21 55z" />
    <glyph glyph-name="Zcaron" unicode="&#x17d;" horiz-adv-x="581" 
d="M510 0h-530l15 105l406 497h-329l17 122h508l-16 -108l-399 -494h345zM183 912l100 6l62 -73l85 74l101 -7l-126 -141h-140z" />
    <glyph glyph-name="zcaron" unicode="&#x17e;" horiz-adv-x="464" 
d="M394 0h-414l14 100l277 314h-232l15 107h399l-15 -101l-270 -306h243zM105 736l102 5l59 -95l85 96l107 -6l-131 -164h-144z" />
    <glyph glyph-name="longs" unicode="&#x17f;" horiz-adv-x="306" 
d="M427 744l-20 -100q-35 13 -72 13t-57.5 -17t-27.5 -67l-110 -785h-151l112 801q25 177 208 177q77 0 118 -22z" />
    <glyph glyph-name="florin" unicode="&#x192;" horiz-adv-x="578" 
d="M184 447l21 108q18 91 65.5 136.5t138.5 45.5q141 0 177 -134l-118 -33q-8 33 -19.5 49t-36.5 16q-27 0 -41.5 -15.5t-21.5 -50.5l-23 -122h131l-15 -94h-132l-69 -369q-18 -91 -64 -133t-135 -42q-78 0 -124 36t-58 91l120 40q6 -17 9 -24.5t10 -19t16.5 -16t23.5 -4.5
q25 0 38 16t19 53l72 372h-92l15 94h93z" />
    <glyph glyph-name="Aringacute" unicode="&#x1fa;" horiz-adv-x="693" 
d="M519 797q0 -48 -28 -83l150 -714h-165l-34 180h-237l-81 -180h-162l330 711q-14 20 -14 51q0 61 40 95t96 34q46 0 75.5 -25t29.5 -69zM426 299l-50 285h-2l-128 -285h180zM351 922l109 140h163l-167 -148zM391 734q25 0 39.5 14.5t14.5 40.5q0 18 -11 28t-29 10
q-24 0 -39.5 -14.5t-15.5 -40.5q0 -38 41 -38z" />
    <glyph glyph-name="aringacute" unicode="&#x1fb;" horiz-adv-x="614" 
d="M559 521l-56 -397q-3 -21 2 -30t23 -9q14 0 32 5l-9 -82q-38 -18 -93 -18q-88 0 -98 71q-63 -73 -163 -73q-82 0 -128.5 50t-46.5 153q0 158 73.5 249t179.5 91q81 0 135 -52l8 42h141zM356 146l33 237q-34 32 -82 32q-45 0 -75 -35.5t-40.5 -79.5t-10.5 -91
q0 -105 78 -105q50 0 97 42zM463 688q0 -56 -36 -88t-92 -32q-46 0 -73 23t-27 64q0 57 37.5 89.5t91.5 32.5q44 0 71.5 -23.5t27.5 -65.5zM342 628q23 0 37 13.5t14 38.5q0 36 -38 36q-22 0 -37 -14t-15 -38q0 -36 39 -36zM299 813l109 140h163l-167 -148z" />
    <glyph glyph-name="AEacute" unicode="&#x1fc;" horiz-adv-x="999" 
d="M927 0h-473l41 290h-180l-178 -290h-159l454 724h578l-17 -122h-301l-26 -190h283l-18 -120h-282l-24 -170h319zM511 407l27 195h-41l-121 -195h135zM617 776l109 140h163l-167 -148z" />
    <glyph glyph-name="aeacute" unicode="&#x1fd;" horiz-adv-x="859" 
d="M569 -12q-120 0 -175 73q-88 -73 -194 -73q-82 0 -130 50t-48 153q0 158 73.5 249t179.5 91q81 0 135 -52l8 42h108l-5 -32q51 42 140 42q82 0 124 -40t42 -103q0 -34 -13.5 -61.5t-31.5 -46t-50.5 -32.5t-56 -21.5t-63 -13.5t-56 -7.5l-50.5 -4.5q0 -56 23 -78t64 -22
q71 0 98 74l120 -29q-24 -75 -86.5 -116.5t-155.5 -41.5zM355 146q-6 31 -6 67q0 99 39 171q-34 31 -81 31q-45 0 -75 -35.5t-40.5 -79.5t-10.5 -91q0 -105 78 -105q50 0 96 42zM631 427q-48 0 -79.5 -34t-38.5 -95q36 2 63 6t53.5 13t40.5 24.5t14 38.5q0 47 -53 47z
M414 581l96 162h163l-160 -171z" />
    <glyph glyph-name="Oslashacute" unicode="&#x1fe;" horiz-adv-x="751" 
d="M330 776l109 140h163l-167 -148zM329 -12q-15 0 -41 2l-31 -69h-141l47 104q-130 71 -130 266q0 125 43.5 224t136 160.5t220.5 61.5q27 0 49 -3l25 55h141l-43 -95q119 -73 119 -260q0 -194 -103.5 -320t-291.5 -126zM192 294q0 -83 34 -129l202 449h-11
q-111 0 -168 -91t-57 -229zM345 111q73 0 124.5 47.5t73.5 118t22 155.5q0 67 -26 115l-197 -436h3z" />
    <glyph glyph-name="oslashacute" unicode="&#x1ff;" horiz-adv-x="587" 
d="M241 609l109 140h163l-167 -148zM248 -12q-22 0 -43 3l-30 -63h-107l45 94q-92 57 -92 191q0 138 78.5 228t223.5 90q14 0 36 -2l31 63h107l-44 -91q92 -53 92 -203q0 -126 -77 -218t-220 -92zM174 203q0 -30 4 -47l130 267h-3q-38 0 -65 -21t-40.5 -55.5t-19.5 -70
t-6 -73.5zM260 93q38 0 64.5 22t39.5 58t18.5 71t5.5 73q0 18 -4 42l-129 -266h5z" />
    <glyph glyph-name="Scommaaccent" unicode="&#x218;" horiz-adv-x="593" 
d="M580 527l-143 -16q2 54 -20.5 83.5t-81.5 29.5q-58 0 -88 -25t-30 -68q0 -25 16 -43t35 -27t55 -21q8 -3 32 -10.5l34.5 -11t32.5 -12.5t33 -16.5l28.5 -19t26.5 -25t19 -30.5t14 -38t4 -46q0 -119 -85.5 -181t-209.5 -62q-54 0 -97.5 10.5t-82 34t-60 69.5t-21.5 110
l143 20q3 -60 28.5 -95t96.5 -35q58 0 95.5 25t37.5 79q0 17 -7 31t-17 23t-28.5 18t-33 14t-39.5 12l-41.5 13t-39.5 14.5t-40 19t-32.5 24.5t-29 33t-16.5 42t-7 55q0 106 82.5 169t204.5 63q241 0 232 -210zM111 -257l73 189h140l-112 -203z" />
    <glyph glyph-name="scommaaccent" unicode="&#x219;" horiz-adv-x="501" 
d="M270 531q89 0 140 -39.5t61 -111.5l-125 -29q-11 78 -83 78q-73 0 -73 -48q0 -7 1.5 -12.5t6 -10.5t8 -8.5t11.5 -7t13 -6t16 -5.5t16 -4t18.5 -4.5t18.5 -4.5q33 -8 54.5 -16t46 -24t37 -43.5t12.5 -64.5q0 -88 -67 -135t-175 -47q-103 0 -155.5 40.5t-58.5 109.5
l128 34q12 -82 97 -82q83 0 83 53q0 9 -2.5 16.5t-10 13l-13 9.5t-19 8.5t-20 6.5t-24 6.5t-24.5 6.5q-31 8 -52.5 17t-44.5 25t-35 43t-12 64q0 85 65.5 128.5t160.5 43.5zM64 -257l73 189h140l-112 -203z" />
    <glyph glyph-name="uni021A" unicode="&#x21a;" horiz-adv-x="589" 
d="M325 0h-154l83 599h-210l17 125h574l-18 -125h-209zM92 -257l73 189h140l-112 -203z" />
    <glyph glyph-name="uni021B" unicode="&#x21b;" horiz-adv-x="412" 
d="M346 123l16 -99q-24 -14 -65.5 -25t-82.5 -11q-178 0 -153 175l36 251h-78l14 107h78l22 150l154 23l-25 -173h138l-14 -107h-138l-34 -237q-12 -76 50 -76q40 0 82 22zM46 -257l73 189h140l-112 -203z" />
    <glyph glyph-name="dotlessj" unicode="&#x237;" horiz-adv-x="266" 
d="M7 -33l78 554h151l-79 -565q-27 -179 -206 -179q-38 0 -74 8.5t-50 19.5l27 103q36 -17 75 -17q67 0 78 76z" />
    <glyph glyph-name="apostrophe" unicode="&#x2bc;" horiz-adv-x="500" 
d="M228 522l73 190h140l-112 -204z" />
    <glyph glyph-name="circumflex" unicode="&#x2c6;" horiz-adv-x="500" 
d="M543 581l-100 -5l-60 95l-85 -96l-109 6l132 164h144z" />
    <glyph glyph-name="caron" unicode="&#x2c7;" horiz-adv-x="499" 
d="M220 736l102 5l59 -95l85 96l107 -6l-131 -164h-144z" />
    <glyph glyph-name="uni02C9" unicode="&#x2c9;" horiz-adv-x="500" 
d="M219 600l15 100h311l-15 -100h-311z" />
    <glyph glyph-name="breve" unicode="&#x2d8;" horiz-adv-x="499" 
d="M379 659q36 0 56 17t32 60l96 -6q-10 -81 -60 -121t-131 -40q-158 0 -155 158l102 11q-1 -42 13 -60.5t47 -18.5z" />
    <glyph glyph-name="dotaccent" unicode="&#x2d9;" horiz-adv-x="500" 
d="M291 666q0 48 28 75.5t76 27.5q81 0 81 -74q0 -49 -28 -76.5t-77 -27.5q-38 0 -59 20t-21 55z" />
    <glyph glyph-name="ring" unicode="&#x2da;" horiz-adv-x="500" 
d="M497 690q0 -56 -36 -88t-92 -32q-46 0 -73 23t-27 64q0 57 37.5 89.5t91.5 32.5q44 0 71.5 -23.5t27.5 -65.5zM376 630q23 0 37 13.5t14 38.5q0 36 -38 36q-22 0 -37 -14t-15 -38q0 -36 39 -36z" />
    <glyph glyph-name="ogonek" unicode="&#x2db;" horiz-adv-x="499" 
d="M300 -110l62 -30q-22 -47 -63 -73t-89 -26q-51 0 -78 22t-27 62q0 54 40.5 96t108.5 82l69 -17q-39 -33 -56 -49t-31.5 -38.5t-14.5 -43.5q0 -27 26 -27q29 0 53 42z" />
    <glyph glyph-name="tilde" unicode="&#x2dc;" horiz-adv-x="499" 
d="M313 730q35 0 77 -21.5t62 -21.5q17 0 24.5 10t11.5 34l75 -4q-3 -64 -30.5 -101t-79.5 -37q-38 0 -81 22t-61 22t-26.5 -10.5t-9.5 -37.5l-81 3q3 66 35.5 104t83.5 38z" />
    <glyph glyph-name="hungarumlaut" unicode="&#x2dd;" horiz-adv-x="499" 
d="M235 584l67 159h154l-127 -171zM387 581l109 166h162l-171 -175z" />
    <glyph glyph-name="uni0394" unicode="&#x394;" horiz-adv-x="697" 
d="M300 724h191l145 -647v-77h-645v77zM465 119l-87 465h-2l-206 -465h295z" />
    <glyph glyph-name="uni03A9" unicode="&#x3a9;" horiz-adv-x="773" 
d="M423 614q-104 0 -160 -66.5t-56 -165.5q0 -64 34 -108.5t97 -60.5l-29 -213h-298l16 115h177l4 25q-160 58 -160 246q0 145 101 248t280 103q146 0 233 -73t87 -216q0 -103 -57.5 -190t-169.5 -118l-4 -25h183l-17 -115h-300l29 212q81 18 128.5 79t47.5 149
q0 78 -42 126t-124 48z" />
    <glyph glyph-name="uni03BC" unicode="&#x3bc;" horiz-adv-x="606" 
d="M353 69q-74 -74 -143 -74q-33 0 -53 6l-29 -213h-147l104 733h145l-46 -333q-2 -20 -2 -25q0 -55 55 -55q54 0 108 50l50 363h151l-55 -389q-3 -22 2 -31t25 -9q16 0 32 5l-9 -92q-30 -12 -75 -12q-48 0 -78 20t-35 56z" />
    <glyph glyph-name="pi" unicode="&#x3c0;" horiz-adv-x="668" 
d="M364 116l41 294h-130l-98 -410h-152l103 410h-95l16 111h606l-16 -111h-91l-38 -277q-6 -41 31 -41q17 0 35 5l-10 -92q-32 -15 -94 -15q-125 0 -108 126z" />
    <glyph glyph-name="Wgrave" unicode="&#x1e80;" horiz-adv-x="961" 
d="M748 0h-196l-45 506h-4l-182 -506h-204l-53 724h160l22 -563h4l205 563h164l54 -566h4l171 566h154zM390 916h161l71 -140l-107 -8z" />
    <glyph glyph-name="wgrave" unicode="&#x1e81;" horiz-adv-x="814" 
d="M280 0h-180l-77 521h150l43 -370l143 370h149l43 -368l139 368h149l-226 -521h-170l-38 345zM520 581l-101 -9l-111 171h161z" />
    <glyph glyph-name="Wacute" unicode="&#x1e82;" horiz-adv-x="961" 
d="M748 0h-196l-45 506h-4l-182 -506h-204l-53 724h160l22 -563h4l205 563h164l54 -566h4l171 566h154zM460 776l109 140h163l-167 -148z" />
    <glyph glyph-name="wacute" unicode="&#x1e83;" horiz-adv-x="814" 
d="M280 0h-180l-77 521h150l43 -370l143 370h149l43 -368l139 368h149l-226 -521h-170l-38 345zM358 581l96 162h163l-160 -171z" />
    <glyph glyph-name="Wdieresis" unicode="&#x1e84;" horiz-adv-x="961" 
d="M748 0h-196l-45 506h-4l-182 -506h-204l-53 724h160l22 -563h4l205 563h164l54 -566h4l171 566h154zM344 846q0 42 29 67.5t74 25.5q36 0 56.5 -19.5t20.5 -51.5q0 -42 -28 -67.5t-72 -25.5q-37 0 -58.5 19t-21.5 52zM580 846q0 42 28.5 67.5t73.5 25.5q36 0 57 -19.5
t21 -51.5q0 -41 -28.5 -67t-71.5 -26q-37 0 -58.5 19t-21.5 52z" />
    <glyph glyph-name="wdieresis" unicode="&#x1e85;" horiz-adv-x="814" 
d="M280 0h-180l-77 521h150l43 -370l143 370h149l43 -368l139 368h149l-226 -521h-170l-38 345zM244 670q0 42 28.5 67.5t73.5 25.5q36 0 57 -19.5t21 -51.5q0 -41 -28.5 -67t-71.5 -26q-37 0 -58.5 19t-21.5 52zM479 670q0 42 28.5 67.5t73.5 25.5q36 0 57 -19t21 -52
q0 -42 -28 -67.5t-72 -25.5q-37 0 -58.5 19t-21.5 52z" />
    <glyph glyph-name="Ygrave" unicode="&#x1ef2;" horiz-adv-x="597" 
d="M373 274l-38 -274h-154l39 274l-185 450h160l115 -314h4l193 314h162zM200 916h161l71 -140l-107 -8z" />
    <glyph glyph-name="ygrave" unicode="&#x1ef3;" horiz-adv-x="524" 
d="M142 -10l-119 531h157l58 -369h2l152 369h160l-273 -557q-52 -106 -98.5 -146.5t-128.5 -40.5q-66 0 -108 22l25 104q43 -15 73 -15q33 0 52 21.5t48 80.5zM365 581l-101 -9l-111 171h161z" />
    <glyph glyph-name="thinspace" unicode="&#x2009;" horiz-adv-x="125" 
 />
    <glyph glyph-name="endash" unicode="&#x2013;" horiz-adv-x="499" 
d="M481 227h-499l15 107h499z" />
    <glyph glyph-name="emdash" unicode="&#x2014;" horiz-adv-x="999" 
d="M984 227h-999l15 107h999z" />
    <glyph glyph-name="quoteleft" unicode="&#x2018;" horiz-adv-x="242" 
d="M288 778l-86 -232h-146l124 244z" />
    <glyph glyph-name="quoteright" unicode="&#x2019;" horiz-adv-x="242" 
d="M60 542l86 232h146l-124 -244z" />
    <glyph glyph-name="quotesinglbase" unicode="&#x201a;" horiz-adv-x="242" 
d="M-47 -137l86 232h146l-124 -244z" />
    <glyph glyph-name="quotedblleft" unicode="&#x201c;" horiz-adv-x="426" 
d="M472 778l-86 -232h-146l124 244zM288 778l-86 -232h-146l124 244z" />
    <glyph glyph-name="quotedblright" unicode="&#x201d;" horiz-adv-x="425" 
d="M243 542l86 232h146l-124 -244zM60 542l86 232h146l-124 -244z" />
    <glyph glyph-name="quotedblbase" unicode="&#x201e;" horiz-adv-x="426" 
d="M-47 -137l86 232h146l-124 -244zM137 -137l86 232h146l-124 -244z" />
    <glyph glyph-name="dagger" unicode="&#x2020;" horiz-adv-x="440" 
d="M436 447l-148 14l-58 -544h-138l95 545l-151 -15l17 119l146 -16l10 174h132l-40 -173l152 15z" />
    <glyph glyph-name="daggerdbl" unicode="&#x2021;" horiz-adv-x="445" 
d="M3 194l148 -14l39 282l-151 -15l17 119l146 -16l10 174h132l-41 -173l153 15l-17 -119l-148 14l-38 -282l150 15l-16 -119l-147 16l-10 -174h-132l41 173l-152 -15z" />
    <glyph glyph-name="bullet" unicode="&#x2022;" horiz-adv-x="459" 
d="M376 305q0 -84 -45 -128t-130 -44q-64 0 -98 30.5t-34 89.5q0 84 44.5 128t128.5 44q134 0 134 -120z" />
    <glyph glyph-name="ellipsis" unicode="&#x2026;" horiz-adv-x="801" 
d="M193 90q0 -102 -105 -102q-83 0 -83 71q0 102 107 102q81 0 81 -71zM460 90q0 -102 -105 -102q-83 0 -83 71q0 102 107 102q81 0 81 -71zM727 90q0 -102 -105 -102q-83 0 -83 71q0 102 107 102q81 0 81 -71z" />
    <glyph glyph-name="perthousand" unicode="&#x2030;" horiz-adv-x="1074" 
d="M859 -13q-71 0 -106.5 37.5t-35.5 101.5q0 85 47.5 135.5t131.5 50.5q70 0 103.5 -35.5t33.5 -98.5q0 -88 -45 -139.5t-129 -51.5zM864 63q64 0 64 117q0 56 -39 56q-65 0 -65 -114q0 -59 40 -59zM507 -13q-71 0 -106 37.5t-35 101.5q0 85 47 135.5t131 50.5
q70 0 104 -35.5t34 -98.5q0 -87 -45.5 -139t-129.5 -52zM512 63q64 0 64 117q0 56 -39 56q-65 0 -65 -114q0 -59 40 -59zM154 -14h-133l542 738h132zM190 412q-71 0 -106 37.5t-35 101.5q0 85 47 135.5t131 50.5q70 0 104 -35.5t34 -98.5q0 -87 -45.5 -139t-129.5 -52z
M195 487q64 0 64 117q0 56 -39 56q-65 0 -65 -113q0 -60 40 -60z" />
    <glyph glyph-name="guilsinglleft" unicode="&#x2039;" horiz-adv-x="279" 
d="M211 103h-121l-64 154l110 151h122l-108 -147z" />
    <glyph glyph-name="guilsinglright" unicode="&#x203a;" horiz-adv-x="278" 
d="M122 103h-121l108 154l-68 151h122l67 -153z" />
    <glyph glyph-name="fraction" unicode="&#x2044;" horiz-adv-x="184" 
d="M-68 -12h-139l458 736h138z" />
    <glyph glyph-name="zerosuperior" unicode="&#x2070;" horiz-adv-x="423" 
d="M212 342q-84 0 -121.5 43.5t-37.5 135.5q0 52 10 98.5t33.5 91.5t69.5 71.5t110 26.5q155 0 155 -173q0 -54 -10 -101.5t-33 -93t-68 -72.5t-108 -27zM221 434q33 0 47 45t25 156q6 83 -31 83q-33 0 -48.5 -46t-25.5 -161q-6 -77 33 -77z" />
    <glyph glyph-name="foursuperior" unicode="&#x2074;" horiz-adv-x="428" 
d="M358 349h-128l15 92h-208l12 88l214 272h162l-39 -260h51l-14 -100h-51zM158 541h100l26 159z" />
    <glyph glyph-name="fivesuperior" unicode="&#x2075;" horiz-adv-x="398" 
d="M382 695h-178l-23 -86q40 29 92 29q50 0 80 -29.5t30 -85.5q0 -86 -55 -133.5t-136 -47.5q-151 0 -163 126l115 19q0 -49 47 -49q28 0 44.5 17t16.5 48q0 47 -43 47q-31 0 -56 -25l-79 31l54 245h270z" />
    <glyph glyph-name="sixsuperior" unicode="&#x2076;" horiz-adv-x="404" 
d="M430 690l-118 -25q0 54 -37 54q-28 0 -50.5 -31.5t-31.5 -94.5q43 33 98 33q49 0 81 -27.5t32 -81.5q0 -89 -53.5 -132.5t-128.5 -43.5q-164 0 -164 182q0 48 10 92.5t33.5 90.5t72.5 74t117 28q57 0 95 -29t44 -89zM190 521q-2 -9 -2 -35q0 -53 37 -53q20 0 32 17.5
t12 49.5q0 42 -32 42q-26 0 -47 -21z" />
    <glyph glyph-name="sevensuperior" unicode="&#x2077;" horiz-adv-x="370" 
d="M166 349h-139l226 346h-188l16 106h324l-14 -94z" />
    <glyph glyph-name="eightsuperior" unicode="&#x2078;" horiz-adv-x="404" 
d="M335 600q73 -38 73 -101q0 -66 -56 -111.5t-156 -45.5q-82 0 -126 29.5t-44 81.5q0 87 107 122q-57 37 -57 94q0 67 55 103.5t139 36.5q71 0 112 -26.5t41 -70.5q0 -38 -22.5 -63t-65.5 -49zM197 535q-45 -25 -45 -60q0 -18 14 -29t40 -11q24 0 41 11.5t17 33.5
q0 14 -10 24.5t-21 15.5t-36 15zM267 634q40 30 40 60q0 17 -12 28t-34 11t-35 -12t-13 -29q0 -31 54 -58z" />
    <glyph glyph-name="ninesuperior" unicode="&#x2079;" horiz-adv-x="404" 
d="M27 459l120 28q2 -52 45 -52q62 0 81 124q-39 -33 -100 -33q-47 0 -79.5 28.5t-32.5 86.5q0 85 53.5 126.5t128.5 41.5q162 0 162 -175q0 -60 -11.5 -110.5t-35.5 -92t-68 -65.5t-103 -24q-67 0 -110.5 29t-49.5 88zM274 626q2 16 2 40q0 51 -34 51q-23 0 -35.5 -18
t-12.5 -47q0 -46 34 -46q26 0 46 20z" />
    <glyph glyph-name="plussuperior" unicode="&#x207a;" horiz-adv-x="434" 
d="M282 434h-99l12 85h-80l13 93h80l12 81h99l-13 -81h82l-14 -93h-80z" />
    <glyph glyph-name="minussuperior" unicode="&#x207b;" horiz-adv-x="434" 
d="M370 525h-259l13 94h260z" />
    <glyph glyph-name="equalsuperior" unicode="&#x207c;" horiz-adv-x="435" 
d="M354 436h-261l13 93h261zM372 566h-260l14 94h261z" />
    <glyph glyph-name="parenleftsuperior" unicode="&#x207d;" horiz-adv-x="282" 
d="M263 276h-139q-63 99 -63 224q0 93 35 166t106 158h148q-35 -40 -56 -67t-45 -68.5t-35.5 -87.5t-11.5 -99q0 -108 61 -226z" />
    <glyph glyph-name="parenrightsuperior" unicode="&#x207e;" horiz-adv-x="282" 
d="M74 824h138q63 -96 63 -224q0 -93 -35 -166.5t-106 -157.5h-147q35 41 55.5 67.5t44.5 68t35.5 87.5t11.5 99q0 110 -60 226z" />
    <glyph glyph-name="zeroinferior" unicode="&#x2080;" horiz-adv-x="423" 
d="M142 -154q-84 0 -121.5 43.5t-37.5 135.5q0 52 10 98.5t33.5 91.5t69.5 71.5t110 26.5q155 0 155 -173q0 -54 -10 -101.5t-33 -93t-68 -72.5t-108 -27zM151 -62q33 0 47 45t25 156q6 83 -31 83q-33 0 -48.5 -46t-25.5 -161q-6 -77 33 -77z" />
    <glyph glyph-name="oneinferior" unicode="&#x2081;" horiz-adv-x="340" 
d="M192 -147h-131l47 310q-16 -7 -50.5 -12.5t-53.5 -5.5v105q101 7 160 54h95z" />
    <glyph glyph-name="twoinferior" unicode="&#x2082;" horiz-adv-x="382" 
d="M281 -147h-326l16 107l115 103q67 61 85.5 84t18.5 44q0 28 -32 28q-20 0 -33 -14t-22 -44l-114 19q11 67 65 100t125 33q73 0 110 -30t37 -80t-28.5 -88t-115.5 -106l-53 -46l1 -2h167z" />
    <glyph glyph-name="threeinferior" unicode="&#x2083;" horiz-adv-x="393" 
d="M186 313q68 0 107 -26t39 -76q0 -40 -28 -69.5t-75 -45.5v-2q83 -21 83 -98q0 -70 -50 -110t-139 -40q-154 0 -164 123l117 21q0 -51 49 -51q24 0 39 14.5t15 41.5q0 44 -52 44h-51l13 86h31q39 0 60 18t21 47q0 14 -9 23t-26 9q-40 0 -55 -48l-113 19q34 120 188 120z
" />
    <glyph glyph-name="fourinferior" unicode="&#x2084;" horiz-adv-x="428" 
d="M288 -147h-128l15 92h-208l12 88l214 272h162l-39 -260h51l-14 -100h-51zM88 45h100l26 159z" />
    <glyph glyph-name="fiveinferior" unicode="&#x2085;" horiz-adv-x="398" 
d="M312 199h-178l-23 -86q40 29 92 29q50 0 80 -29.5t30 -85.5q0 -86 -55 -133.5t-136 -47.5q-151 0 -163 126l115 19q0 -49 47 -49q28 0 44.5 17t16.5 48q0 47 -43 47q-31 0 -56 -25l-79 31l54 245h270z" />
    <glyph glyph-name="sixinferior" unicode="&#x2086;" horiz-adv-x="404" 
d="M360 194l-118 -25q0 54 -37 54q-28 0 -50.5 -31.5t-31.5 -94.5q43 33 98 33q49 0 81 -27.5t32 -81.5q0 -89 -53.5 -132.5t-128.5 -43.5q-164 0 -164 182q0 48 10 92.5t33.5 90.5t72.5 74t117 28q57 0 95 -29t44 -89zM120 25q-2 -9 -2 -35q0 -53 37 -53q20 0 32 17.5
t12 49.5q0 42 -32 42q-26 0 -47 -21z" />
    <glyph glyph-name="seveninferior" unicode="&#x2087;" horiz-adv-x="370" 
d="M96 -147h-139l226 346h-188l16 106h324l-14 -94z" />
    <glyph glyph-name="eightinferior" unicode="&#x2088;" horiz-adv-x="404" 
d="M265 104q73 -38 73 -101q0 -66 -56 -111.5t-156 -45.5q-82 0 -126 29.5t-44 81.5q0 87 107 122q-57 37 -57 94q0 67 55 103.5t139 36.5q71 0 112 -26.5t41 -70.5q0 -38 -22.5 -63t-65.5 -49zM127 39q-45 -25 -45 -60q0 -18 14 -29t40 -11q24 0 41 11.5t17 33.5
q0 14 -10 24.5t-21 15.5t-36 15zM197 138q40 30 40 60q0 17 -12 28t-34 11t-35 -12t-13 -29q0 -31 54 -58z" />
    <glyph glyph-name="nineinferior" unicode="&#x2089;" horiz-adv-x="404" 
d="M-42 -37l120 28q2 -52 45 -52q62 0 81 124q-39 -33 -100 -33q-47 0 -79.5 28.5t-32.5 86.5q0 85 53.5 126.5t128.5 41.5q162 0 162 -175q0 -60 -11.5 -110.5t-35.5 -92t-68 -65.5t-103 -24q-67 0 -110.5 29t-49.5 88zM205 130q2 16 2 40q0 51 -34 51q-23 0 -35.5 -18
t-12.5 -47q0 -46 34 -46q26 0 46 20z" />
    <glyph glyph-name="parenleftinferior" unicode="&#x208d;" horiz-adv-x="282" 
d="M193 -220h-139q-63 99 -63 224q0 93 35 166t106 158h148q-35 -40 -56 -67t-45 -68.5t-35.5 -87.5t-11.5 -99q0 -108 61 -226z" />
    <glyph glyph-name="parenrightinferior" unicode="&#x208e;" horiz-adv-x="282" 
d="M6 328h138q63 -96 63 -224q0 -93 -35 -166.5t-106 -157.5h-148q35 40 56 67t45 68t35.5 87.5t11.5 99.5q0 110 -60 226z" />
    <glyph glyph-name="Euro" unicode="&#x20ac;" horiz-adv-x="663" 
d="M60 474h55q36 119 116.5 191.5t208.5 72.5q100 0 156 -55.5t46 -181.5l-132 -13q4 73 -15.5 101.5t-73.5 28.5q-97 0 -150 -144h182l-28 -89h-178q-4 -20 -8 -62h179l-27 -87h-154q4 -66 29.5 -97t77.5 -31q56 0 84.5 31t47.5 87l122 -22q-14 -60 -42 -103.5t-66 -67
t-78 -34.5t-85 -11q-224 0 -239 248h-90l27 87h63q4 43 7 62h-64z" />
    <glyph glyph-name="afii61352" unicode="&#x2116;" horiz-adv-x="1081" 
d="M858 372q-84 0 -126 40.5t-42 107.5q0 96 55 152.5t156 56.5q82 0 123.5 -41t41.5 -108q0 -96 -53.5 -152t-154.5 -56zM867 455q76 0 76 125q0 65 -51 65q-79 0 -79 -124q0 -66 54 -66zM672 244l13 91h330l-13 -91h-330zM559 -1h-178l-138 512l-72 -512h-141l102 724h185
l132 -512l72 512h140z" />
    <glyph glyph-name="trademark" unicode="&#x2122;" horiz-adv-x="856" 
d="M814 348h-73v241l-88 -241h-63l-87 242v-241h-73v375h92l102 -285l104 285h86v-376zM264 657v-309h-81v309h-118v67h317v-67h-118z" />
    <glyph glyph-name="Omega" unicode="&#x2126;" horiz-adv-x="773" 
d="M423 614q-104 0 -160 -66.5t-56 -165.5q0 -64 34 -108.5t97 -60.5l-29 -213h-298l16 115h177l4 25q-160 58 -160 246q0 145 101 248t280 103q146 0 233 -73t87 -216q0 -103 -57.5 -190t-169.5 -118l-4 -25h183l-17 -115h-300l29 212q81 18 128.5 79t47.5 149
q0 78 -42 126t-124 48z" />
    <glyph glyph-name="onethird" unicode="&#x2153;" horiz-adv-x="1012" 
d="M257 280h-131l47 310q-16 -7 -50.5 -12.5t-53.5 -5.5v105q101 7 160 54h95zM297 -12h-139l458 736h138zM792 460q68 0 107 -26t39 -76q0 -40 -28 -69.5t-75 -45.5v-2q83 -21 83 -98q0 -70 -50 -110t-139 -40q-154 0 -164 123l117 21q0 -51 49 -51q24 0 39 14.5t15 41.5
q0 44 -52 44h-51l13 86h31q39 0 60 18t21 47q0 14 -9 23t-26 9q-40 0 -55 -48l-113 19q34 120 188 120z" />
    <glyph glyph-name="twothirds" unicode="&#x2154;" horiz-adv-x="1012" 
d="M348 -12h-139l458 736h138zM829 460q68 0 107 -26t39 -76q0 -40 -28 -69.5t-75 -45.5v-2q83 -21 83 -98q0 -70 -50 -110t-139 -40q-154 0 -164 123l117 21q0 -51 49 -51q24 0 39 14.5t15 41.5q0 44 -52 44h-51l13 86h31q39 0 60 18t21 47q0 14 -9 23t-26 9q-40 0 -55 -48
l-113 19q34 120 188 120zM341 281h-326l16 107l115 103q67 61 85.5 84t18.5 44q0 28 -32 28q-20 0 -33 -14t-22 -44l-114 19q11 67 65 100t125 33q73 0 110 -30t37 -80t-28.5 -88t-115.5 -106l-53 -46l1 -2h167z" />
    <glyph glyph-name="arrow.left" unicode="&#x2190;" 
d="M528 333l-16 -118h-336l43 -122h-122l-75 180l125 181h125l-75 -121h331z" />
    <glyph glyph-name="arrow.up" unicode="&#x2191;" 
d="M290 24h-122l47 336l-128 -62l18 124l195 100l166 -100l-17 -119l-112 60z" />
    <glyph glyph-name="arrow.right" unicode="&#x2192;" 
d="M23 215l16 118h335l-44 121h124l75 -181l-125 -180h-130l77 122h-328z" />
    <glyph glyph-name="arrow.down" unicode="&#x2193;" 
d="M249 526h121l-47 -336l131 60l-18 -122l-194 -100l-167 100l17 120l109 -62z" />
    <glyph glyph-name="arrow.leftup" unicode="&#x2196;" 
d="M59 251l57 199l198 57l88 -89l-129 -42l238 -237l-84 -83l-238 238l-44 -130z" />
    <glyph glyph-name="arrow.rightup" unicode="&#x2197;" 
d="M484 450l30 -199l-98 -87l-27 132l-272 -238l-75 85l270 237l-118 38l101 89z" />
    <glyph glyph-name="arrowright.down" unicode="&#x2198;" 
d="M513 313l-58 -200l-197 -57l-88 89l129 41l-238 238l83 83l238 -238l45 130z" />
    <glyph glyph-name="arrowleft.down" unicode="&#x2199;" 
d="M105 113l-29 200l99 86l25 -130l272 238l72 -83l-271 -238l123 -41l-101 -89z" />
    <glyph glyph-name="arrowleft.alt" unicode="&#x21d0;" 
d="M270 372l240 25l-34 -247l-234 21l-17 -116l-187 218l248 214z" />
    <glyph glyph-name="arrowup.alt" unicode="&#x21d1;" 
d="M385 291l-8 -237h-247l54 237h-116l249 218l183 -218h-115z" />
    <glyph glyph-name="arrowright.alt" unicode="&#x21d2;" 
d="M100 397l234 -25l16 115l188 -214l-249 -218l17 116l-240 -21z" />
    <glyph glyph-name="arrowdown.alt" unicode="&#x21d3;" 
d="M437 496l-58 -237h115l-245 -218l-187 218h116l12 237h247z" />
    <glyph glyph-name="arrowleftup.alt" unicode="&#x21d6;" 
d="M314 357l185 -150l-175 -175l-152 183l-82 -83v309l305 -3z" />
    <glyph glyph-name="arrowrightup.alt" unicode="&#x21d7;" 
d="M385 217l-150 -185l-175 175l183 152l-83 82h309l-3 -305z" />
    <glyph glyph-name="arrowrightdown.alt" unicode="&#x21d8;" 
d="M255 215l-185 150l175 175l152 -183l82 83v-309l-305 3z" />
    <glyph glyph-name="arrowleftdown.alt" unicode="&#x21d9;" 
d="M184 355l150 185l175 -175l-183 -152l83 -82h-309l3 305z" />
    <glyph glyph-name="partialdiff" unicode="&#x2202;" horiz-adv-x="576" 
d="M263 308q-51 0 -77 -35.5t-26 -94.5q0 -80 70 -80q94 0 129 173q-52 37 -96 37zM296 565q-69 0 -151 -54l-46 91q107 73 236 73q106 0 152.5 -66t46.5 -170q0 -53 -6 -105t-27 -117.5t-54.5 -113.5t-94.5 -81.5t-142 -33.5q-94 0 -149.5 48.5t-55.5 132.5q0 112 67 178
t172 66q74 0 134 -42q7 39 7 80q0 52 -22 83t-67 31z" />
    <glyph glyph-name="Delta" unicode="&#x2206;" horiz-adv-x="663" 
d="M272 724h191l145 -647v-77h-645v77zM437 119l-87 465h-2l-206 -465h295z" />
    <glyph glyph-name="product" unicode="&#x220f;" horiz-adv-x="787" 
d="M736 724l-125 -886h-155l109 774h-274l-109 -774h-154l125 886h583z" />
    <glyph glyph-name="summation" unicode="&#x2211;" horiz-adv-x="627" 
d="M386 281l-256 -336h381l-17 -121h-558l13 99l275 360l-163 362l11 79h546l-16 -108h-359z" />
    <glyph glyph-name="minus" unicode="&#x2212;" 
d="M467 265h-387l16 116h387z" />
    <glyph glyph-name="uni2215" unicode="&#x2215;" horiz-adv-x="280" 
d="M-38 -14h-139l442 710h138z" />
    <glyph glyph-name="uni2219" unicode="&#x2219;" horiz-adv-x="271" 
d="M198 324q0 -93 -100 -93q-77 0 -77 66q0 93 100 93q77 0 77 -66z" />
    <glyph glyph-name="radical" unicode="&#x221a;" horiz-adv-x="592" 
d="M330 0h-139l-99 225l-72 -28l-31 89l183 80l88 -226l246 606l117 -30z" />
    <glyph glyph-name="infinity" unicode="&#x221e;" horiz-adv-x="671" 
d="M324 253q-73 -73 -153 -73q-59 0 -96 31.5t-37 93.5q0 73 48.5 115.5t118.5 42.5q75 0 138 -71q25 21 44 34.5t49 25t61 11.5q58 0 94 -31.5t36 -94.5q0 -72 -47.5 -115.5t-115.5 -43.5q-78 0 -140 75zM282 324q-16 19 -26 28.5t-25.5 17.5t-33.5 8q-27 0 -44.5 -17
t-17.5 -42q0 -22 13 -38t37 -16q36 0 97 59zM389 323q15 -19 24 -28t25 -18t34 -9q28 0 43.5 18t15.5 44q0 22 -12.5 35.5t-35.5 13.5q-16 0 -35 -10t-29 -18.5t-30 -27.5z" />
    <glyph glyph-name="integral" unicode="&#x222b;" horiz-adv-x="427" 
d="M48 -166l20 98q37 -17 69 -17q23 0 33 14.5t7 54.5l-53 599q-4 41 9 71t36 45t46.5 21.5t48.5 6.5q62 0 126 -23l-20 -99q-38 18 -70 18q-45 0 -39 -69l52 -599q4 -42 -9 -72t-36 -45t-46 -21t-48 -6q-62 0 -126 23z" />
    <glyph glyph-name="approxequal" unicode="&#x2248;" 
d="M159 548q36 0 130 -21.5t114 -21.5q17 0 23 9.5t6 34.5l83 -4q8 -64 -17 -104.5t-81 -40.5q-37 0 -132.5 22t-113.5 22t-25.5 -10.5t-3.5 -36.5l-89 3q-8 67 20 107.5t86 40.5zM131 345q36 0 130 -21.5t114 -21.5q17 0 23 9.5t6 34.5l83 -4q8 -64 -17 -104.5t-81 -40.5
q-37 0 -132.5 22t-113.5 22t-25.5 -10.5t-3.5 -36.5l-89 3q-8 67 20 107.5t86 40.5z" />
    <glyph glyph-name="notequal" unicode="&#x2260;" 
d="M444 130h-196l-45 -85h-110l46 85h-81l16 117h124l37 69h-151l17 117h194l46 88h110l-47 -88h83l-17 -117h-126l-36 -69h152z" />
    <glyph glyph-name="lessequal" unicode="&#x2264;" horiz-adv-x="569" 
d="M452 126l-367 137l19 139l407 141l-16 -120l-285 -90l259 -92zM435 0h-387l16 116h387z" />
    <glyph glyph-name="greaterequal" unicode="&#x2265;" 
d="M445 116l-16 -116h-387l16 116h387zM486 402l-19 -137l-407 -137l17 123l284 92l-259 85l17 115z" />
    <glyph glyph-name="triangle" unicode="&#x25b3;" horiz-adv-x="425" 
d="M335 320l-185 -117v231z" />
    <glyph glyph-name="lozenge" unicode="&#x25ca;" 
d="M287 -17h-111l-108 324l200 324h111l109 -324zM249 101l125 206l-68 199l-125 -199z" />
    <glyph glyph-name="circle" unicode="&#x25cb;" horiz-adv-x="610" 
d="M305 119q-85 0 -145 60t-60 145t60 145t145 60t145 -60t60 -145t-60 -145t-145 -60z" />
    <glyph glyph-name="a.sc" unicode="&#xf605;" horiz-adv-x="593" 
d="M229 560h183l126 -560h-160l-24 120h-181l-57 -120h-158zM339 233l-36 197h-4l-88 -197h128z" />
    <glyph glyph-name="b.sc" unicode="&#xf606;" horiz-adv-x="531" 
d="M235 0h-227l81 560h246q85 0 122.5 -33t37.5 -86q0 -114 -128 -147v-3q115 -12 115 -113q0 -93 -67 -135.5t-180 -42.5zM172 103h46q54 0 80 16t26 61q0 31 -20.5 41t-58.5 10h-54zM206 334h28q53 0 82.5 15t29.5 59q0 21 -12.5 31.5t-27.5 13t-41 2.5h-41z" />
    <glyph glyph-name="c.sc" unicode="&#xf607;" horiz-adv-x="582" 
d="M402 202l130 -21q-24 -98 -95.5 -144t-169.5 -46q-124 0 -186.5 63.5t-62.5 172.5q0 155 84.5 249t239.5 94q107 0 165 -55.5t52 -157.5l-137 -13q8 113 -91 113q-74 0 -115 -56t-41 -167q0 -127 107 -127q49 0 76.5 25t43.5 70z" />
    <glyph glyph-name="d.sc" unicode="&#xf608;" horiz-adv-x="599" 
d="M211 0h-203l81 560h212q260 0 260 -228q0 -148 -88.5 -240t-261.5 -92zM174 113h46q188 0 188 214q0 65 -32 93.5t-104 28.5h-49z" />
    <glyph glyph-name="e.sc" unicode="&#xf609;" horiz-adv-x="488" 
d="M409 0h-401l81 560h386l-17 -116h-235l-17 -110h222l-16 -113h-223l-16 -104h253z" />
    <glyph glyph-name="f.sc" unicode="&#xf60a;" horiz-adv-x="462" 
d="M188 211l-31 -211h-149l81 560h383l-17 -116h-232l-19 -119h213l-16 -114h-213z" />
    <glyph glyph-name="g.sc" unicode="&#xf60b;" horiz-adv-x="611" 
d="M561 293l-44 -293h-109l-3 67q-24 -36 -68.5 -56t-98.5 -20q-112 0 -166 64t-54 169q0 156 86 251t243 95q106 0 162.5 -48.5t54.5 -148.5l-141 -13q7 96 -86 96q-82 0 -121.5 -61.5t-39.5 -162.5q0 -131 110 -131q44 0 73 20.5t36 52.5l4 25h-97l13 94h246z" />
    <glyph glyph-name="h.sc" unicode="&#xf60c;" horiz-adv-x="607" 
d="M582 560l-82 -560h-150l31 216h-192l-32 -216h-150l82 560h150l-32 -219h193l32 219h150z" />
    <glyph glyph-name="i.sc" unicode="&#xf60d;" horiz-adv-x="264" 
d="M157 0h-149l81 560h150z" />
    <glyph glyph-name="j.sc" unicode="&#xf60e;" horiz-adv-x="467" 
d="M238 163l58 397h150l-59 -395q-25 -174 -205 -174q-187 0 -192 172l147 21q1 -26 4 -40.5t13.5 -27.5t30.5 -13q46 0 53 60z" />
    <glyph glyph-name="k.sc" unicode="&#xf60f;" horiz-adv-x="566" 
d="M238 560l-34 -233l232 233h167l-237 -234l144 -326h-166l-98 224l-65 -60l-25 -164h-148l81 560h149z" />
    <glyph glyph-name="l.sc" unicode="&#xf610;" horiz-adv-x="478" 
d="M401 0h-393l81 560h150l-64 -436h244z" />
    <glyph glyph-name="m.sc" unicode="&#xf611;" horiz-adv-x="760" 
d="M734 560l-82 -560h-139l63 416h-4l-179 -416h-133l-51 418h-4l-61 -418h-136l81 560h221l44 -375h3l156 375h221z" />
    <glyph glyph-name="n.sc" unicode="&#xf612;" horiz-adv-x="615" 
d="M507 0h-169l-141 359l-54 -359h-135l81 560h175l138 -361l54 361h134z" />
    <glyph glyph-name="o.sc" unicode="&#xf613;" horiz-adv-x="628" 
d="M263 -9q-127 0 -186 65.5t-59 175.5q0 144 86 241t244 97q127 0 185 -65t58 -173q0 -144 -85.5 -242.5t-242.5 -98.5zM280 107q43 0 75.5 21.5t49 56t24.5 70.5t8 73q0 126 -104 126q-44 0 -77 -20.5t-50.5 -54t-25.5 -70.5t-8 -77q0 -125 108 -125z" />
    <glyph glyph-name="p.sc" unicode="&#xf614;" horiz-adv-x="517" 
d="M181 173l-25 -173h-148l81 560h206q202 0 202 -160q0 -105 -66.5 -166t-198.5 -61h-51zM197 284h33q112 0 112 101q0 64 -80 64h-39z" />
    <glyph glyph-name="q.sc" unicode="&#xf615;" horiz-adv-x="628" 
d="M260 -9q-127 0 -186 65.5t-59 175.5q0 144 86 241t244 97q127 0 185 -65t58 -173q0 -99 -41.5 -179.5t-120.5 -123.5q51 -51 133 -44l-30 -115q-18 -2 -27 -2q-66 0 -120 35t-84 90q-24 -2 -38 -2zM277 107q43 0 75.5 21.5t49 56t24.5 70.5t8 73q0 126 -104 126
q-44 0 -77 -20.5t-50.5 -54t-25.5 -70.5t-8 -77q0 -125 108 -125z" />
    <glyph glyph-name="r.sc" unicode="&#xf616;" horiz-adv-x="542" 
d="M385 242l92 -242h-161l-75 206h-54l-31 -206h-148l81 560h242q90 0 132 -40t42 -102q0 -125 -120 -176zM201 314h42q105 0 105 83q0 52 -72 52h-53z" />
    <glyph glyph-name="s.sc" unicode="&#xf617;" horiz-adv-x="504" 
d="M478 405l-136 -14q-5 77 -77 77q-37 0 -56.5 -14.5t-19.5 -38.5t18 -37t54 -23q89 -22 120 -39q72 -40 72 -130q0 -96 -71 -145.5t-174 -49.5q-221 0 -225 181l138 19q4 -94 90 -94q92 0 92 61q0 27 -22 40t-75 26q-37 9 -61.5 18t-52 26.5t-41.5 47.5t-14 71
q0 83 68 133t170 50q202 0 203 -165z" />
    <glyph glyph-name="t.sc" unicode="&#xf618;" horiz-adv-x="511" 
d="M281 0h-150l65 438h-170l17 122h488l-17 -122h-169z" />
    <glyph glyph-name="u.sc" unicode="&#xf619;" horiz-adv-x="582" 
d="M564 560l-51 -351q-17 -116 -82.5 -167t-177.5 -51q-132 0 -185.5 59t-35.5 176l50 334h149l-48 -328q-9 -62 7 -93t71 -31q51 0 73.5 28t32.5 94l48 330h149z" />
    <glyph glyph-name="v.sc" unicode="&#xf61a;" horiz-adv-x="565" 
d="M336 0h-202l-102 560h159l63 -417h6l175 417h162z" />
    <glyph glyph-name="w.sc" unicode="&#xf61b;" horiz-adv-x="823" 
d="M636 0h-191l-28 347h-4l-128 -347h-200l-43 560h155l15 -408h3l153 408h158l36 -408h5l125 408h151z" />
    <glyph glyph-name="x.sc" unicode="&#xf61c;" horiz-adv-x="549" 
d="M499 0h-173l-85 171l-130 -171h-161l227 289l-136 271h166l81 -177l133 177h154l-222 -284z" />
    <glyph glyph-name="y.sc" unicode="&#xf61d;" horiz-adv-x="518" 
d="M321 208l-30 -208h-151l32 209l-152 351h156l84 -223h2l143 223h158z" />
    <glyph glyph-name="z.sc" unicode="&#xf61e;" horiz-adv-x="492" 
d="M417 0h-441l15 103l306 338h-250l18 119h424l-16 -106l-300 -335h261z" />
    <glyph glyph-name="ae.sc" unicode="&#xf61f;" horiz-adv-x="819" 
d="M743 0h-403l32 211h-134l-123 -211h-157l337 560h512l-17 -116h-234l-18 -117h221l-16 -114h-221l-15 -96h252zM387 322l19 122h-44l-71 -122h96z" />
    <glyph glyph-name="oe.sc" unicode="&#xf621;" horiz-adv-x="871" 
d="M794 0h-382l11 60q-28 -33 -76 -51t-101 -18q-113 0 -170.5 63.5t-57.5 169.5q0 155 82 250.5t229 95.5q104 0 152 -66l9 56h368l-16 -116h-236l-17 -110h223l-16 -113h-222l-17 -104h253zM279 107q68 0 113 53t45 171q0 59 -27.5 91t-77.5 32q-73 0 -117 -55t-44 -168
q0 -124 108 -124z" />
    <glyph glyph-name="dollar.sc" unicode="&#xf639;" horiz-adv-x="442" 
d="M232 453q-28 0 -45 -13t-17 -36q0 -19 13.5 -34t29.5 -22t46 -18l43 -15.5t38 -18.5t37.5 -27.5t22 -36.5t10.5 -52q0 -83 -52.5 -129t-135.5 -55l-8 -61h-124l10 66q-66 19 -93.5 56.5t-29.5 96.5l129 20q2 -37 19.5 -59t64.5 -22q78 0 78 57q0 19 -13.5 32t-30 20.5
t-45.5 16.5q-9 3 -13 4q-32 11 -51 20t-43 26t-35.5 44.5t-11.5 64.5q0 65 42 111t117 57l9 67h124l-9 -70q118 -29 118 -147l-130 -14q0 30 -15.5 50.5t-48.5 20.5z" />
    <glyph glyph-name="cent.sc" unicode="&#xf63a;" horiz-adv-x="443" 
d="M210 577h123l-11 -84q50 -12 77 -50t28 -92l-130 -13q0 33 -10.5 49.5t-38.5 16.5q-38 0 -60 -41t-22 -110q0 -71 54 -71q28 0 44.5 15.5t27.5 49.5l116 -20q-27 -119 -154 -142l-11 -85h-123l13 92q-56 16 -85.5 59t-29.5 103q0 106 49.5 168.5t131.5 74.5z" />
    <glyph glyph-name="sterling.sc" unicode="&#xf63b;" horiz-adv-x="508" 
d="M-8 100h54q59 47 59 103q0 19 -6 35h-74l14 100h47q-19 40 -19 75q0 69 58 113t159 44q182 0 192 -161l-132 -14q-4 78 -65 78q-67 0 -67 -61q0 -28 23 -74h146l-13 -100h-117q14 -67 -72 -138h69q51 0 74 17.5t32 59.5l120 -19q-11 -81 -64 -119.5t-153 -38.5h-278z" />
    <glyph glyph-name="yen.sc" unicode="&#xf63c;" horiz-adv-x="486" 
d="M157 232l-3 6h-98l12 85h52l-96 237h159l63 -208h4l105 208h155l-148 -237h63l-12 -85h-104l-3 -6l-7 -52h106l-12 -85h-106l-13 -95h-151l14 95h-101l12 85h101z" />
    <glyph glyph-name="florin.sc" unicode="&#xf63d;" horiz-adv-x="485" 
d="M147 348l15 70q16 76 56 114t121 38q125 0 154 -116l-107 -27q-11 50 -42 50q-20 0 -30 -12t-16 -42l-14 -75h104l-20 -102h-100l-48 -252q-14 -74 -53.5 -109.5t-119.5 -35.5q-70 0 -109 30.5t-50 79.5l110 35q7 -28 15.5 -39t27.5 -11q17 0 26.5 13t16.5 48l47 241h-79
l19 102h76z" />
    <glyph glyph-name="commaaccent" unicode="&#xf6c3;" horiz-adv-x="499" 
d="M117 -257l73 189h140l-112 -203z" />
    <glyph glyph-name="commainferior" unicode="&#xf6e1;" horiz-adv-x="229" 
d="M-60 -223l70 176h135l-101 -187z" />
    <glyph glyph-name="commasuperior" unicode="&#xf6e2;" horiz-adv-x="229" 
d="M10 273l70 176h135l-101 -187z" />
    <glyph glyph-name="hypheninferior" unicode="&#xf6e5;" horiz-adv-x="219" 
d="M149 -11h-179l15 102h178z" />
    <glyph glyph-name="hyphensuperior" unicode="&#xf6e6;" horiz-adv-x="219" 
d="M219 485h-179l15 102h178z" />
    <glyph glyph-name="periodinferior" unicode="&#xf6e7;" horiz-adv-x="229" 
d="M137 -80q0 -78 -84 -78q-68 0 -68 54q0 79 87 79q65 0 65 -55z" />
    <glyph glyph-name="periodsuperior" unicode="&#xf6e8;" horiz-adv-x="229" 
d="M207 416q0 -78 -84 -78q-68 0 -68 54q0 79 87 79q65 0 65 -55z" />
    <glyph glyph-name="three.tosf" unicode="&#xf81e;" 
d="M326 591q93 0 144 -38.5t51 -109.5t-45 -114t-107 -60l-1 -3q56 -9 89 -43.5t33 -91.5q0 -103 -77 -158.5t-192 -55.5q-100 0 -161.5 44.5t-62.5 137.5l133 25q7 -96 94 -96q51 0 83 25t32 79q0 73 -102 73h-74l14 106h50q67 0 104.5 28.5t37.5 77.5q0 64 -71 64
q-44 0 -68.5 -22.5t-41.5 -68.5l-129 24q50 177 267 177z" />
    <glyph glyph-name="four.tosf" unicode="&#xf81f;" horiz-adv-x="569" 
d="M414 -67h-145l19 133h-297l14 105l316 407h184l-55 -393h74l-16 -119h-75zM135 185h169l38 264z" />
    <glyph glyph-name="five.tosf" unicode="&#xf820;" 
d="M497 451h-270l-40 -150q63 49 146 49q75 0 120.5 -45t45.5 -130q0 -118 -78 -188t-200 -70q-98 0 -157.5 45.5t-66.5 135.5l134 25q8 -91 95 -91q52 0 87 32t35 95q0 80 -78 80q-55 0 -115 -55l-96 45l72 347h384z" />
    <glyph glyph-name="six.tosf" unicode="&#xf821;" 
d="M547 493l-134 -33q-3 45 -19.5 67t-55.5 22q-119 0 -150 -200q74 57 165 57q74 0 119 -42.5t45 -121.5q0 -125 -77.5 -189.5t-191.5 -64.5q-215 0 -215 246q0 57 9 111.5t32 112t58.5 100.5t93.5 70.5t131 27.5q175 0 190 -163zM184 252q-3 -21 -3 -47q0 -109 80 -109
q51 0 79 36.5t28 92.5q0 74 -67 74q-65 0 -117 -47z" />
    <glyph glyph-name="seven.tosf" unicode="&#xf822;" 
d="M178 -67h-159l344 519h-312l18 124h469l-16 -112z" />
    <glyph glyph-name="nine.tosf" unicode="&#xf824;" 
d="M-8 80l135 37q14 -90 87 -90q122 0 149 196q-75 -56 -162 -56q-74 0 -120.5 45.5t-46.5 130.5q0 120 75.5 185t189.5 65q115 0 166.5 -71t51.5 -187q0 -60 -7 -113.5t-28 -111t-54.5 -98.5t-91 -67.5t-133.5 -26.5q-93 0 -148 42t-63 120zM366 324q4 30 4 47
q0 114 -80 114q-51 0 -79 -36t-28 -94q0 -81 71 -81q60 0 112 50z" />
    <glyph glyph-name="dollar.tosf" unicode="&#xf825;" 
d="M306 537q-88 0 -88 -73q0 -11 3 -21t12 -18l15.5 -13.5t22 -12t23.5 -9.5l28 -10t27 -9q33 -12 54.5 -22.5t46 -29.5t37 -48t12.5 -67q0 -82 -56.5 -135.5t-154.5 -65.5l-10 -85h-128l14 90q-59 12 -100 57.5t-42 124.5l127 19q4 -51 25.5 -78.5t79.5 -27.5q98 0 98 75
q0 19 -8.5 33t-31 25.5t-38 17t-53.5 17.5q-68 21 -108.5 59.5t-40.5 111.5q0 79 51.5 129.5t134.5 60.5l12 82h127l-11 -84q60 -11 95 -55t31 -116l-128 -16q-3 46 -19 70t-59 24z" />
    <glyph glyph-name="Euro.tosf" unicode="&#xf826;" 
d="M327 201h-133q7 -52 30 -74t63 -22q44 0 70 27t43 80l129 -20q-22 -103 -90.5 -153.5t-165.5 -50.5q-102 0 -158 56t-67 157h-81l25 88h54q2 34 4 52h-45l26 88h39q34 106 111.5 167t194.5 61q96 0 146.5 -56t43.5 -167l-138 -13q6 65 -11.5 93.5t-64.5 28.5
q-96 0 -136 -114h175l-25 -88h-170q-2 -18 -4 -52h161z" />
    <glyph glyph-name="cent.tosf" unicode="&#xf827;" 
d="M273 632h127l-15 -104q64 -14 98 -65.5t32 -122.5l-134 -9q2 93 -71 93q-55 0 -87.5 -47.5t-32.5 -138.5q0 -96 81 -96q41 0 65 21t37 67l122 -22q-18 -74 -66.5 -119.5t-122.5 -57.5l-14 -109h-127l16 116q-144 34 -144 198q0 127 60 202t162 93z" />
    <glyph glyph-name="s_t" unicode="&#xfb06;" horiz-adv-x="872" 
d="M806 123l16 -99q-24 -14 -65.5 -25t-81.5 -11q-157 0 -157 135q0 21 6 63l69 485l154 23l-25 -173h138l-15 -107h-138l-33 -237q-12 -76 50 -76q40 0 82 22zM270 531q89 0 140 -39.5t61 -111.5l-125 -29q-11 78 -83 78q-73 0 -73 -48q0 -7 1.5 -12.5t6 -10.5t8 -8.5
t11.5 -7t13 -6t16 -5.5t16 -4t18.5 -4.5t18.5 -4.5q33 -8 54.5 -16t46 -24t37 -43.5t12.5 -64.5q0 -88 -67 -135t-175 -47q-103 0 -155.5 40.5t-58.5 109.5l128 34q12 -82 97 -82q83 0 83 53q0 9 -2.5 16.5t-10 13l-13 9.5t-19 8.5t-20 6.5t-24 6.5t-24.5 6.5
q-31 8 -52.5 17t-44.5 25t-35 43t-12 64q0 85 65.5 128.5t160.5 43.5z" />
    <glyph glyph-name="hyphen.case" horiz-adv-x="313" 
d="M284 290h-271l18 125h271z" />
    <glyph glyph-name="zero.osf" horiz-adv-x="616" 
d="M259 -12q-121 0 -179 63.5t-58 174.5q0 164 84 264.5t240 100.5q119 0 176.5 -60.5t57.5 -170.5q0 -167 -81 -269.5t-240 -102.5zM273 97q43 0 73.5 26.5t45.5 69t21.5 83t6.5 80.5q0 123 -88 123q-43 0 -75 -26t-47.5 -68.5t-22 -83.5t-6.5 -82q0 -122 92 -122z" />
    <glyph glyph-name="one.osf" horiz-adv-x="441" 
d="M298 0h-150l57 405q-24 -12 -76 -21t-82 -9v119q152 12 230 84h103z" />
    <glyph glyph-name="two.osf" horiz-adv-x="538" 
d="M315 195l-102 -67v-3h252l-18 -125h-445l17 118l151 111q107 78 141 113.5t34 79.5q0 62 -63 62q-45 0 -69 -25t-40 -78l-128 26q39 184 259 184q95 0 144.5 -41.5t49.5 -116.5q0 -71 -41.5 -121.5t-141.5 -116.5z" />
    <glyph glyph-name="three.osf" horiz-adv-x="542" 
d="M312 591q93 0 144 -38.5t51 -109.5t-45 -114t-107 -60l-1 -3q56 -9 89 -43.5t33 -91.5q0 -103 -77 -158.5t-192 -55.5q-100 0 -161.5 44.5t-62.5 137.5l133 25q7 -96 94 -96q51 0 83 25t32 79q0 73 -102 73h-74l14 106h50q67 0 104.5 28.5t37.5 77.5q0 64 -71 64
q-44 0 -68.5 -22.5t-41.5 -68.5l-129 24q50 177 267 177z" />
    <glyph glyph-name="four.osf" horiz-adv-x="580" 
d="M429 -67h-145l19 133h-312l15 105l327 407h187l-55 -393h81l-16 -119h-82zM145 185h174l38 264z" />
    <glyph glyph-name="five.osf" horiz-adv-x="551" 
d="M484 451h-270l-40 -150q63 49 146 49q75 0 120.5 -45t45.5 -130q0 -118 -78 -188t-200 -70q-98 0 -157.5 45.5t-66.5 135.5l134 25q8 -91 95 -91q52 0 87 32t35 95q0 80 -78 80q-55 0 -115 -55l-96 45l72 347h384z" />
    <glyph glyph-name="six.osf" horiz-adv-x="576" 
d="M556 493l-134 -33q-3 45 -19.5 67t-55.5 22q-119 0 -150 -200q74 57 165 57q74 0 119 -42.5t45 -121.5q0 -125 -77.5 -189.5t-191.5 -64.5q-215 0 -215 246q0 57 9 111.5t32 112t58.5 100.5t93.5 70.5t131 27.5q175 0 190 -163zM193 252q-3 -21 -3 -47q0 -109 80 -109
q51 0 79 36.5t28 92.5q0 74 -67 74q-65 0 -117 -47z" />
    <glyph glyph-name="seven.osf" horiz-adv-x="531" 
d="M169 -67h-159l344 519h-312l18 124h469l-16 -112z" />
    <glyph glyph-name="eight.osf" horiz-adv-x="563" 
d="M536 517q0 -53 -27.5 -91t-102.5 -77q56 -27 83.5 -59t27.5 -87q0 -92 -78 -153.5t-219 -61.5q-100 0 -158.5 41t-58.5 115q0 68 36.5 109.5t118.5 73.5q-86 42 -86 134t75 143.5t194 51.5q96 0 145.5 -38.5t49.5 -100.5zM242 93q54 0 83 23t29 64q0 32 -27.5 52
t-83.5 42q-94 -46 -94 -110q0 -29 21.5 -50t71.5 -21zM327 556q-43 0 -69 -19.5t-26 -55.5q0 -50 85 -85q84 52 84 102q0 28 -19.5 43t-54.5 15z" />
    <glyph glyph-name="nine.osf" horiz-adv-x="581" 
d="M2 80l135 37q14 -90 87 -90q122 0 149 196q-75 -56 -162 -56q-74 0 -120.5 45.5t-46.5 130.5q0 120 75.5 185t189.5 65q115 0 166.5 -71t51.5 -187q0 -60 -7 -113.5t-28 -111t-54.5 -98.5t-91 -67.5t-133.5 -26.5q-93 0 -148 42t-63 120zM376 324q4 30 4 47
q0 114 -80 114q-51 0 -79 -36t-28 -94q0 -81 71 -81q60 0 112 50z" />
    <glyph glyph-name="dollar.osf" horiz-adv-x="537" 
d="M280 537q-88 0 -88 -73q0 -11 3 -21t12 -18l15.5 -13.5t22 -12t23.5 -9.5l28 -10t27 -9q33 -12 54.5 -22.5t46 -29.5t37 -48t12.5 -67q0 -82 -56.5 -135.5t-154.5 -65.5l-10 -85h-128l14 90q-59 12 -100 57.5t-42 124.5l127 19q4 -51 25.5 -78.5t79.5 -27.5q98 0 98 75
q0 19 -8.5 33t-31 25.5t-38 17t-53.5 17.5q-68 21 -108.5 59.5t-40.5 111.5q0 79 51.5 129.5t134.5 60.5l12 82h127l-11 -84q60 -11 95 -55t31 -116l-128 -16q-3 46 -19 70t-59 24z" />
    <glyph glyph-name="Euro.osf" horiz-adv-x="649" 
d="M392 199h-151q8 -50 34 -72t73 -22q50 0 78 26.5t45 80.5l131 -20q-21 -106 -94 -155t-177 -49q-117 0 -175.5 53t-67.5 158h-85l23 88h63q1 18 5 54h-61l26 88h57q36 105 115.5 166.5t199.5 61.5q97 0 156 -56.5t51 -166.5l-138 -13q10 122 -90 122q-99 0 -144 -114h181
l-25 -88h-178q-4 -33 -5 -54h177z" />
    <glyph glyph-name="cent.osf" horiz-adv-x="530" 
d="M261 632h127l-15 -104q64 -14 98 -65.5t32 -122.5l-134 -9q2 93 -71 93q-55 0 -87.5 -47.5t-32.5 -138.5q0 -96 81 -96q41 0 65 21t37 67l122 -22q-18 -74 -66.5 -119.5t-122.5 -57.5l-14 -109h-127l16 116q-144 34 -144 198q0 127 60 202t162 93z" />
    <glyph glyph-name="sterling.osf" horiz-adv-x="600" 
d="M-1 114h60q62 57 62 121q0 21 -3 37h-97l15 100h64q-17 42 -17 82q0 88 71 144.5t191 56.5q108 0 162 -44.5t62 -138.5l-132 -27q-4 46 -23.5 72.5t-73.5 26.5q-114 0 -114 -93q0 -32 18 -79h202l-14 -100h-170q4 -19 4 -39q0 -33 -16 -59.5t-54 -59.5h108q63 0 92 21.5
t44 76.5l121 -21q-16 -98 -77.5 -144.5t-178.5 -46.5h-320z" />
    <glyph glyph-name="yen.osf" horiz-adv-x="567" 
d="M457 122h-127l-18 -122h-151l16 122h-127l12 89h127l9 67h-126l13 88h77l-116 266h160l85 -242h4l148 242h155l-185 -266h79l-13 -88h-126l-10 -67h126z" />
    <glyph glyph-name="florin.osf" horiz-adv-x="565" 
d="M178 382l19 92q18 91 65.5 136.5t138.5 45.5q142 0 177 -133l-118 -34q-8 33 -19.5 49.5t-36.5 16.5q-27 0 -41.5 -15.5t-21.5 -50.5l-21 -107h132l-15 -94h-132l-57 -293q-17 -91 -63 -133t-136 -42q-78 0 -124 36t-57 91l119 40q6 -17 9 -24.5t10 -19t16.5 -16
t23.5 -4.5q26 0 38.5 16t19.5 53l58 296h-92l16 94h92z" />
    <glyph glyph-name="afii61352.osf" horiz-adv-x="1036" 
d="M806 271q-86 0 -126 40.5t-40 109.5q0 95 54.5 151t156.5 56q85 0 125 -40t40 -107q0 -97 -53.5 -153.5t-156.5 -56.5zM817 354q37 0 56.5 27t19.5 97q0 68 -51 68q-37 0 -58 -26t-21 -95q0 -71 54 -71zM616 145l13 91h337l-12 -91h-338zM524 0h-171l-129 418l-59 -418
h-140l88 625h183l118 -423l59 423h139z" />
    <glyph glyph-name="percent.osf" horiz-adv-x="890" 
d="M642 -12q-153 0 -153 149q0 103 53.5 158.5t146.5 55.5q151 0 151 -153q0 -91 -51 -150.5t-147 -59.5zM653 70q73 0 73 125q0 73 -46 73q-75 0 -75 -130q0 -68 48 -68zM35 406q0 102 52.5 158t147.5 56q151 0 151 -153q0 -91 -51 -150.5t-146 -59.5q-154 0 -154 149z
M199 339q73 0 73 128q0 70 -46 70q-75 0 -75 -124q0 -40 11 -57t37 -17zM274 -14l464 634h-139l-464 -634h139z" />
    <glyph glyph-name="perthousand.osf" horiz-adv-x="1130" 
d="M903 -12q-70 0 -103.5 36.5t-33.5 99.5q0 87 47 138t132 51q69 0 103 -35.5t34 -98.5q0 -87 -47.5 -139t-131.5 -52zM912 63q64 0 64 117q0 56 -39 56q-65 0 -65 -113q0 -60 40 -60zM557 -12q-70 0 -103.5 36.5t-33.5 99.5q0 87 47.5 138t131.5 51q70 0 103.5 -35.5
t33.5 -98.5q0 -87 -47.5 -139t-131.5 -52zM566 63q64 0 64 117q0 56 -39 56q-65 0 -65 -113q0 -60 40 -60zM177 295q-70 0 -103.5 36.5t-33.5 99.5q0 87 47 138t132 51q69 0 103 -35.5t34 -98.5q0 -87 -47.5 -139t-131.5 -52zM225 -14h-140l464 634h139zM186 370
q64 0 64 117q0 56 -39 56q-65 0 -65 -113q0 -60 40 -60z" />
    <glyph glyph-name="zero.slash" 
d="M244 -12q-120 0 -171 62t-51 188q0 70 7 133t28 132.5t55 119t93 82t137 32.5q116 0 164.5 -65t48.5 -194q0 -52 -4.5 -101t-16 -107.5t-34.5 -106.5t-55.5 -88.5t-84 -63.5t-116.5 -23zM250 98q55 0 84 55q29 56 47 158.5t18 190.5v23l-173 -424q10 -3 24 -3zM178 212
v-10l171 421q-9 3 -21 3q-64 0 -97 -79q-25 -62 -39 -156.5t-14 -178.5z" />
    <glyph glyph-name="zero.tf" 
d="M244 -12q-120 0 -171 62t-51 188q0 69 7 131.5t28 132.5t55 119.5t93 82.5t137 33q120 0 166.5 -64t46.5 -195q0 -52 -4.5 -101t-16 -107.5t-34.5 -106.5t-55.5 -88.5t-84 -63.5t-116.5 -23zM250 98q55 0 84 55q29 56 47 158.5t18 190.5q0 26 -2 44t-8.5 38.5t-21.5 31
t-39 10.5q-64 0 -97 -79q-25 -62 -39 -156.5t-14 -178.5q0 -114 72 -114z" />
    <glyph glyph-name="one.tf" horiz-adv-x="569" 
d="M44 0l18 126h142l61 422q-25 -13 -77 -22t-82 -9v121q150 12 230 86h103l-84 -598h124l-18 -126h-417z" />
    <glyph glyph-name="two.tf" 
d="M465 0h-461l17 123l182 185q108 110 142 155.5t34 90.5q0 68 -71 68q-41 0 -66.5 -26t-42.5 -81l-136 23q21 102 92.5 150.5t174.5 48.5q99 0 151.5 -44.5t52.5 -124.5q0 -82 -43 -142.5t-179 -188.5l-117 -111h288z" />
    <glyph glyph-name="three.tf" 
d="M334 737q96 0 150 -41.5t54 -116.5q0 -72 -50.5 -124t-115.5 -72l-1 -4q64 -16 98.5 -51.5t34.5 -103.5q0 -108 -74.5 -172t-201.5 -64q-98 0 -158.5 43.5t-64.5 138.5l135 29q4 -99 90 -99q51 0 86 33t35 95q0 89 -115 89h-61l15 113h47q70 0 109.5 32.5t39.5 89.5
q0 32 -17.5 52t-55.5 20q-44 0 -68.5 -22.5t-40.5 -69.5l-133 27q46 178 263 178z" />
    <glyph glyph-name="four.tf" 
d="M426 0h-145l23 163h-303l14 104l330 457h184l-63 -443h74l-16 -118h-74zM143 281h177l44 311z" />
    <glyph glyph-name="five.tf" horiz-adv-x="571" 
d="M513 600h-270l-47 -188q63 49 148 49q74 0 119.5 -45t45.5 -137q0 -133 -81 -212t-205 -79q-98 0 -157.5 45t-64.5 140l133 24q2 -95 93 -95q55 0 93.5 38.5t38.5 110.5q0 94 -82 94q-56 0 -115 -51l-98 45l81 385h386z" />
    <glyph glyph-name="six.tf" 
d="M570 560l-136 -32q-3 52 -21 74.5t-54 22.5q-124 0 -163 -232q78 50 164 50q78 0 124 -44t46 -128q0 -135 -78.5 -209t-193.5 -74q-121 0 -171.5 70t-50.5 197q0 47 6 95.5t19.5 105t40 105t63 89t92 64t123.5 23.5q78 0 131 -44.5t59 -132.5zM190 291q-5 -40 -5 -74
q0 -119 83 -119q47 0 77 40.5t30 112.5q0 84 -72 84q-54 0 -113 -44z" />
    <glyph glyph-name="seven.tf" 
d="M193 -1h-163l362 599h-314l18 126h475l-15 -113z" />
    <glyph glyph-name="eight.tf" 
d="M408 389q57 -29 88.5 -66.5t31.5 -96.5q0 -102 -78 -170t-213 -68q-111 0 -171 46.5t-60 125.5q0 141 169 206q-94 60 -94 154q0 103 76 160t191 57q97 0 153 -41t56 -110q0 -65 -39.5 -112t-109.5 -85zM256 312q-105 -51 -105 -132q0 -36 26 -59t71 -23q55 0 86 30
t31 76q0 21 -8 38t-26.5 30t-33 20.5t-41.5 19.5zM323 437q40 21 66 57.5t26 72.5q0 68 -80 68q-46 0 -72 -26t-26 -65q0 -61 86 -107z" />
    <glyph glyph-name="nine.tf" 
d="M-4 159l136 34q11 -95 87 -95q67 0 107.5 62.5t54.5 170.5q-67 -52 -162 -52q-78 0 -126 48t-48 134q0 134 77.5 205t191.5 71q117 0 171 -73t54 -198q0 -102 -18 -186t-55.5 -151t-101.5 -104t-149 -37q-93 0 -151 41.5t-68 129.5zM386 433q5 40 5 72q0 122 -81 122
q-49 0 -80 -39t-31 -108q0 -91 77 -91q66 0 110 44z" />
    <glyph glyph-name="dollar.tf" 
d="M320 598q-45 0 -73 -21.5t-28 -59.5q0 -40 27 -61t88 -43q86 -32 114 -50q72 -48 72 -140q0 -96 -67 -156.5t-164 -68.5l-11 -80h-128l13 84q-157 37 -160 199l134 22q6 -117 118 -117q51 0 83 23.5t32 67.5q0 27 -17 46t-35.5 27t-57.5 21q-8 3 -12 4q-34 11 -52.5 18
t-47.5 24t-44.5 35t-27.5 48.5t-12 69.5q0 86 56.5 143.5t147.5 73.5l13 85h128l-12 -88q146 -33 146 -190l-136 -14q0 98 -87 98z" />
    <glyph glyph-name="Euro.tf" horiz-adv-x="569" 
d="M22 470h50q33 121 111.5 194t204.5 73q94 0 147.5 -55t42.5 -181l-131 -13q4 73 -13 101.5t-65 28.5q-87 0 -139 -148h169l-25 -88h-166q-6 -38 -8 -52h170l-24 -88h-149q6 -134 97 -134q50 0 74.5 30t43.5 88l123 -22q-26 -115 -95.5 -165.5t-158.5 -50.5
q-116 0 -172 65t-62 189h-77l23 88h56q2 34 5 52h-56z" />
    <glyph glyph-name="cent.tf" 
d="M296 710h127l-15 -104q64 -14 98 -65.5t32 -122.5l-134 -9q2 93 -71 93q-55 0 -87.5 -47.5t-32.5 -138.5q0 -96 81 -96q41 0 65 21t37 67l122 -22q-18 -74 -66.5 -119.5t-122.5 -57.5l-14 -109h-127l16 116q-144 34 -144 198q0 127 60 202t162 93z" />
    <glyph glyph-name="sterling.tf" 
d="M-17 117h63q83 70 83 142q0 29 -9 54h-95l15 107h64q-24 64 -24 108q0 92 70 150.5t186 58.5q111 0 163.5 -51t51.5 -155l-136 -10q-2 51 -18.5 78.5t-63.5 27.5t-73 -26t-26 -76q0 -40 25 -105h181l-15 -107h-152q4 -16 4 -40q0 -45 -19 -81.5t-64 -74.5h93q63 0 90 20
t41 75l125 -21q-17 -99 -78.5 -145t-173.5 -46h-325z" />
    <glyph glyph-name="yen.tf" 
d="M467 160h-132l-22 -160h-155l23 160h-121l15 95h119l10 68h-123l12 94h76l-124 307h165l87 -279h4l149 279h160l-192 -307h83l-14 -94h-128l-1 -2l-9 -66h131z" />
    <glyph glyph-name="florin.tf" 
d="M203 447l21 108q18 91 65.5 136.5t138.5 45.5q141 0 177 -134l-118 -33q-8 33 -19.5 49t-36.5 16q-27 0 -41.5 -15.5t-21.5 -50.5l-23 -122h131l-15 -94h-132l-69 -369q-18 -91 -64 -133t-135 -42q-78 0 -124 36t-58 91l120 40q6 -17 9 -24.5t10 -19t16.5 -16t23.5 -4.5
q25 0 38 16t19 53l72 372h-92l15 94h93z" />
    <glyph glyph-name="zeroslash.tosf" 
d="M234 -12q-116 0 -173.5 63.5t-57.5 174.5q0 163 83 264t234 101q114 0 171 -60.5t57 -170.5q0 -170 -76 -271t-238 -101zM248 97q40 0 69 25.5t43.5 67.5t21 85t6.5 88q0 39 -7 61l-145 -327h12zM162 212q0 -34 8 -60l145 326q-4 1 -10 1q-40 0 -70 -27t-45 -70.5
t-21.5 -85.5t-6.5 -84z" />
    <glyph glyph-name="zero.tosf" horiz-adv-x="569" 
d="M233 -12q-116 0 -173 63.5t-57 174.5q0 164 82.5 264.5t234.5 100.5q114 0 170.5 -60.5t56.5 -170.5q0 -170 -76 -271t-238 -101zM247 97q40 0 69 25.5t43.5 67.5t21 85t6.5 88q0 60 -19.5 88t-63.5 28q-40 0 -69.5 -27t-44.5 -70.5t-21.5 -85.5t-6.5 -84q0 -115 85 -115
z" />
    <glyph glyph-name="one.tosf" horiz-adv-x="569" 
d="M62 0l18 126h134l40 279q-25 -12 -77 -21t-81 -9v119q153 12 229 84h104l-64 -452h115l-18 -126h-400z" />
    <glyph glyph-name="two.tosf" 
d="M328 195l-102 -67v-3h252l-18 -125h-445l17 118l151 111q107 78 141 113.5t34 79.5q0 62 -63 62q-45 0 -69 -25t-40 -78l-128 26q39 184 259 184q95 0 144.5 -41.5t49.5 -116.5q0 -71 -41.5 -121.5t-141.5 -116.5z" />
    <glyph glyph-name="eight.tosf" 
d="M529 517q0 -52 -30 -91t-101 -76q56 -27 84.5 -59t28.5 -86q0 -94 -77 -155.5t-213 -61.5q-100 0 -158 41t-58 115q0 68 38 110t116 71q-86 43 -86 136q0 92 72.5 143.5t188.5 51.5q100 0 147.5 -38t47.5 -101zM241 93q52 0 79.5 24t27.5 63q0 32 -26.5 52.5t-81.5 41.5
q-51 -27 -71 -51.5t-20 -58.5q0 -29 21.5 -50t70.5 -21zM323 556q-42 0 -67 -19.5t-25 -55.5q0 -49 83 -87q81 50 81 104q0 58 -72 58z" />
    <glyph glyph-name="sterling.tosf" 
d="M-13 114h63q59 53 59 121q0 15 -4 37h-96l14 100h64q-17 42 -17 82q0 88 67.5 144.5t184.5 56.5q104 0 156 -45.5t60 -137.5l-132 -27q-2 48 -20.5 76.5t-68.5 28.5q-45 0 -74.5 -24t-29.5 -75q0 -32 18 -79h185l-15 -100h-151q3 -15 3 -28q0 -62 -73 -130h93
q63 0 92 21.5t44 76.5l121 -21q-16 -98 -77.5 -144.5t-178.5 -46.5h-302z" />
    <glyph glyph-name="yen.tosf" 
d="M457 122h-127l-18 -122h-151l16 122h-127l12 89h127l9 67h-126l13 88h77l-116 266h160l85 -242h4l148 242h155l-185 -266h79l-13 -88h-126l-10 -67h126z" />
    <glyph glyph-name="florin.tosf" 
d="M196 382l19 92q18 91 65.5 136.5t138.5 45.5q142 0 177 -133l-118 -34q-8 33 -19.5 49.5t-36.5 16.5q-27 0 -41.5 -15.5t-21.5 -50.5l-21 -107h132l-15 -94h-132l-57 -293q-17 -91 -63 -133t-136 -42q-78 0 -124 36t-57 91l119 40q6 -17 9 -24.5t10 -19t16.5 -16
t23.5 -4.5q26 0 38.5 16t19.5 53l58 296h-92l16 94h92z" />
    <glyph glyph-name="idotaccent" horiz-adv-x="268" 
d="M236 521l-73 -521h-151l73 521h151zM275 695q0 -49 -27.5 -76.5t-76.5 -27.5q-38 0 -59 20t-21 55q0 48 28 75.5t76 27.5q80 0 80 -74z" />
    <glyph glyph-name="s_p" horiz-adv-x="1077" 
d="M708 521l-9 -62l2 -1q71 73 173 73q74 0 118 -48.5t44 -151.5q0 -172 -72.5 -257.5t-182.5 -85.5q-83 0 -134 51l-35 -251h-147l104 733h139zM875 312q0 54 -16.5 77.5t-52.5 23.5q-25 0 -56.5 -14t-52.5 -31l-32 -227q12 -13 36 -24.5t49 -11.5q66 0 95.5 58.5
t29.5 148.5zM270 531q89 0 140 -39.5t61 -111.5l-125 -29q-11 78 -83 78q-73 0 -73 -48q0 -7 1.5 -12.5t6 -10.5t8 -8.5t11.5 -7t13 -6t16 -5.5t16 -4t18.5 -4.5t18.5 -4.5q33 -8 54.5 -16t46 -24t37 -43.5t12.5 -64.5q0 -88 -67 -135t-175 -47q-103 0 -155.5 40.5
t-58.5 109.5l128 34q12 -82 97 -82q83 0 83 53q0 9 -2.5 16.5t-10 13l-13 9.5t-19 8.5t-20 6.5t-24 6.5t-24.5 6.5q-31 8 -52.5 17t-44.5 25t-35 43t-12 64q0 85 65.5 128.5t160.5 43.5z" />
    <glyph glyph-name="c_t" horiz-adv-x="908" 
d="M842 123l16 -99q-24 -14 -65.5 -25t-81.5 -11q-157 0 -157 135q0 21 6 63l69 485l154 23l-25 -173h138l-14 -107h-138l-34 -237q-12 -76 50 -76q40 0 82 22zM249 -12q-112 0 -170 61t-58 162q0 150 79 235t214 85q101 0 153.5 -58t46.5 -154l-132 -9q5 109 -78 109
q-54 0 -89.5 -46.5t-35.5 -156.5q0 -113 86 -113q81 0 106 92l125 -20q-22 -95 -87.5 -141t-159.5 -46z" />
    <glyph glyph-name="c_h" horiz-adv-x="1114" 
d="M249 -12q-112 0 -170 61t-58 162q0 150 79 235t214 85q101 0 153.5 -58t46.5 -154l-132 -9q5 109 -78 109q-54 0 -89.5 -46.5t-35.5 -156.5q0 -113 86 -113q81 0 106 92l125 -20q-22 -95 -87.5 -141t-159.5 -46zM743 357l-51 -357h-151l106 755h150l-44 -297
q82 73 172 73q83 0 117 -43t22 -133l-50 -355h-151l47 331q6 43 -7 60.5t-46 17.5q-49 0 -114 -52z" />
    <glyph glyph-name="c_k" horiz-adv-x="1092" 
d="M249 -12q-112 0 -170 61t-58 162q0 150 79 235t214 85q101 0 153.5 -58t46.5 -154l-132 -9q5 109 -78 109q-54 0 -89.5 -46.5t-35.5 -156.5q0 -113 86 -113q81 0 106 92l125 -20q-22 -95 -87.5 -141t-159.5 -46zM1047 0h-167l-99 241l-60 -52l-27 -189h-151l106 755h151
l-59 -419l197 185h169l-200 -187z" />
    <glyph glyph-name="T_h" horiz-adv-x="1058" 
d="M687 357l-51 -357h-151l85 599h-162l-83 -599h-154l83 599h-210l17 125h525l5 31h150l-44 -297q82 73 172 73q83 0 117 -43t22 -133l-50 -355h-151l47 331q6 43 -7 61t-46 18q-48 0 -114 -53z" />
    <glyph glyph-name="revcommaaccent" horiz-adv-x="499" 
d="M504 769l-73 -190h-140l112 204z" />
    <glyph glyph-name="caron.alt" horiz-adv-x="500" 
d="M243 562l60 193h139l-94 -202z" />
    <glyph glyph-name="tilde.cap" horiz-adv-x="500" 
d="M348 927q35 0 77 -21.5t62 -21.5q16 0 24 10t12 34l75 -4q0 -63 -29.5 -100.5t-80.5 -37.5q-38 0 -81 22t-61 22t-26.5 -10.5t-9.5 -37.5l-81 3q1 64 34.5 103t84.5 39z" />
    <glyph glyph-name="ring.cap" horiz-adv-x="500" 
d="M522 850q0 -57 -37 -90t-95 -33q-47 0 -74.5 23.5t-27.5 66.5q0 58 39 91t93 33q45 0 73.5 -23.5t28.5 -67.5zM398 787q25 0 40 15.5t15 42.5q0 38 -41 38q-25 0 -41 -14.5t-16 -40.5q0 -41 43 -41z" />
    <glyph glyph-name="circumflex.cap" horiz-adv-x="500" 
d="M571 775l-101 -6l-61 73l-85 -74l-102 7l127 141h140z" />
    <glyph glyph-name="acute.cap" horiz-adv-x="500" 
d="M305 776l109 140h163l-167 -148z" />
    <glyph glyph-name="grave.cap" horiz-adv-x="499" 
d="M257 916h161l71 -140l-107 -8z" />
    <glyph glyph-name="dieresis.cap" horiz-adv-x="500" 
d="M202 846q0 42 29 67.5t74 25.5q36 0 56.5 -19.5t20.5 -51.5q0 -42 -28 -67.5t-72 -25.5q-37 0 -58.5 19t-21.5 52zM438 846q0 42 28.5 67.5t73.5 25.5q36 0 57 -19.5t21 -51.5q0 -41 -28.5 -67t-71.5 -26q-37 0 -58.5 19t-21.5 52z" />
    <glyph glyph-name="caron.cap" horiz-adv-x="500" 
d="M245 912l100 6l62 -73l85 74l101 -7l-126 -141h-140z" />
    <glyph glyph-name="macron.cap" horiz-adv-x="500" 
d="M559 785h-317l15 100h317z" />
    <glyph glyph-name="dotaccent.cap" horiz-adv-x="500" 
d="M505 880q0 -49 -28 -76.5t-77 -27.5q-38 0 -58.5 19.5t-20.5 55.5q0 49 27.5 76t76.5 27q80 0 80 -74z" />
    <glyph glyph-name="cedilla.cap" horiz-adv-x="500" 
d="M95 -230l18 69q26 -12 54 -12q24 0 38.5 11.5t14.5 31.5t-14.5 27.5t-44.5 8.5l33 124l71 -8l-19 -67q73 -13 73 -81q0 -58 -39.5 -89.5t-102.5 -31.5q-50 0 -82 17z" />
    <glyph glyph-name="hungarumlaut.cap" horiz-adv-x="500" 
d="M266 780l68 135h155l-128 -147zM416 776l114 143h162l-175 -151z" />
    <glyph glyph-name="commaaccent.cap" horiz-adv-x="499" 
d="M117 -257l73 189h140l-112 -203z" />
    <glyph glyph-name="breve.cap" horiz-adv-x="500" 
d="M410 860q33 0 52.5 14.5t31.5 52.5l96 -6q-31 -151 -189 -151q-74 0 -115 37t-40 111l102 11q0 -37 15 -53t47 -16z" />
    <glyph glyph-name="ogonek.cap" horiz-adv-x="500" 
d="M311 -110l64 -30q-17 -48 -55 -73.5t-86 -25.5q-55 0 -84.5 24.5t-29.5 69.5q0 86 132 168l71 -17q-35 -33 -49.5 -48t-28 -37t-13.5 -41q0 -32 30 -32q28 0 49 42z" />
    <glyph glyph-name="a.sup" horiz-adv-x="439" 
d="M429 692l-39 -254q-2 -14 1.5 -19.5t15.5 -5.5q10 0 23 4l-7 -62q-28 -13 -72 -13q-63 0 -72 45q-43 -45 -109 -45q-57 0 -90 33t-33 101q0 109 52.5 166t123.5 57q54 0 90 -34l5 27h111zM275 449l22 148q-19 16 -47 16t-46.5 -21t-25 -47.5t-6.5 -54.5q0 -62 49 -62
q29 0 54 21z" />
    <glyph glyph-name="b.sup" horiz-adv-x="420" 
d="M143 350h-106l72 483h116l-27 -175q51 41 110 41q51 0 81.5 -31.5t30.5 -99.5q0 -111 -47 -168.5t-121 -57.5q-62 0 -98 42h-1q-1 -1 -2 -1zM190 589l-21 -141q26 -19 55 -19q71 0 71 122q0 61 -45 61q-31 0 -60 -23z" />
    <glyph glyph-name="c.sup" horiz-adv-x="387" 
d="M209 342q-79 0 -121 40.5t-42 106.5q0 98 55 154t150 56q72 0 109.5 -38t33.5 -103l-102 -7q4 68 -48 68q-74 0 -74 -126q0 -68 51 -68q49 0 66 59l96 -15q-16 -64 -61.5 -95.5t-112.5 -31.5z" />
    <glyph glyph-name="d.sup" horiz-adv-x="419" 
d="M379 350h-100l1 35l-1 1q-44 -44 -109 -44q-122 0 -122 133q0 113 53.5 168.5t122.5 55.5q55 0 91 -33l24 167h112zM277 447l21 150q-16 16 -45 16q-42 0 -61 -38t-19 -87q0 -46 32 -57q32 -10 72 16z" />
    <glyph glyph-name="e.sup" horiz-adv-x="378" 
d="M202 342q-81 0 -118 41t-37 106q0 100 58.5 155t147.5 55q67 0 98.5 -26.5t31.5 -69.5q0 -64 -65 -91q-53 -22 -150 -28q0 -60 53 -60q44 0 60 45l92 -22q-16 -49 -60 -77t-111 -28zM241 626q-25 0 -45 -21.5t-24 -58.5q40 3 56 8q47 11 47 44q0 28 -34 28z" />
    <glyph glyph-name="f.sup" horiz-adv-x="269" 
d="M347 829l-16 -73q-29 9 -49 9q-51 0 -58 -51l-3 -22h94l-11 -76h-94l-60 -402h-117l60 402h-47l11 76h46l5 34q19 119 152 119q52 0 87 -16z" />
    <glyph glyph-name="g.sup" horiz-adv-x="419" 
d="M251 613q-39 0 -56.5 -32.5t-17.5 -75.5q0 -58 45 -58q33 0 58 22l19 126q-19 18 -48 18zM268 360l7 39q-43 -39 -103 -39q-55 0 -88.5 34.5t-33.5 98.5q0 81 44.5 143.5t131.5 62.5q60 0 92 -40l7 33h105l-48 -324q-14 -87 -63.5 -124.5t-132.5 -37.5q-153 0 -159 120
l104 15q0 -23 13.5 -38.5t43.5 -15.5q69 0 80 73z" />
    <glyph glyph-name="h.sup" horiz-adv-x="412" 
d="M190 581l-35 -231h-118l72 483h117l-29 -180q56 46 117 46q111 0 93 -120l-34 -229h-117l31 211q7 48 -29 48q-31 0 -68 -28z" />
    <glyph glyph-name="i.sup" horiz-adv-x="199" 
d="M208 692l-51 -342h-117l50 342h118zM233 806q0 -35 -20.5 -55t-57.5 -20q-60 0 -60 54q0 35 21 55t57 20q60 0 60 -54z" />
    <glyph glyph-name="j.sup" horiz-adv-x="197" 
d="M38 339l52 353h118l-54 -361q-18 -124 -151 -124q-63 0 -91 19l20 77q24 -11 53 -11q46 0 53 47zM233 806q0 -35 -20.5 -55t-57.5 -20q-60 0 -60 54q0 35 21 55t57 20q60 0 60 -54z" />
    <glyph glyph-name="k.sup" horiz-adv-x="404" 
d="M401 350h-129l-64 152l-35 -28l-18 -124h-118l73 483h117l-38 -252l124 111h130l-136 -122z" />
    <glyph glyph-name="l.sup" horiz-adv-x="199" 
d="M40 350l71 483h117l-71 -483h-117z" />
    <glyph glyph-name="m.sup" horiz-adv-x="595" 
d="M304 699q62 0 81 -46q48 46 114 46q51 0 76 -29t16 -84l-35 -236h-117l32 219q5 39 -24 39q-28 0 -56 -24l-35 -234h-117l32 217q5 41 -24 41q-27 0 -58 -26l-34 -232h-118l51 342h108l-6 -43h2q50 50 112 50z" />
    <glyph glyph-name="n.sup" horiz-adv-x="412" 
d="M189 580l-34 -230h-118l51 342h110l-7 -44h2q56 51 123 51q108 0 92 -115l-35 -234h-117l32 215q6 44 -30 44q-35 0 -69 -29z" />
    <glyph glyph-name="o.sup" horiz-adv-x="415" 
d="M207 342q-161 0 -161 148q0 92 57.5 150.5t155.5 58.5q157 0 157 -148q0 -89 -55 -149t-154 -60zM217 420q63 0 75 97q2 32 2 41q0 63 -49 63q-64 0 -77 -98q-2 -14 -2 -39q0 -64 51 -64z" />
    <glyph glyph-name="p.sup" horiz-adv-x="420" 
d="M197 692l-5 -38l1 -1q46 46 115 46q113 0 113 -136q0 -110 -49.5 -165.5t-122.5 -55.5q-56 0 -92 34l-25 -162h-113l71 478h107zM296 552q0 61 -43 61q-30 0 -63 -23l-21 -142q17 -19 50 -19q77 0 77 123z" />
    <glyph glyph-name="q.sup" horiz-adv-x="418" 
d="M226 699q62 0 91 -40l8 33h104l-72 -478h-111l26 166q-43 -38 -104 -38q-121 0 -121 136q0 112 53.5 166.5t125.5 54.5zM172 494q0 -65 48 -65q33 0 56 23l22 145q-20 16 -46 16q-40 0 -60 -34t-20 -85z" />
    <glyph glyph-name="r.sup" horiz-adv-x="291" 
d="M186 561l-31 -211h-118l51 342h107l-8 -56h2q54 64 119 64q5 0 19 -2l-15 -105q-71 5 -126 -32z" />
    <glyph glyph-name="s.sup" horiz-adv-x="358" 
d="M223 699q127 0 144 -98l-97 -19q-9 46 -53 46q-43 0 -43 -29q0 -14 18.5 -21.5t45 -12.5t52.5 -13t44.5 -29.5t18.5 -56.5q0 -60 -47.5 -92t-124.5 -32q-139 0 -155 97l99 23q9 -49 63 -49q50 0 50 33q0 18 -27.5 27.5t-61 14.5t-61 28.5t-27.5 66.5q0 58 47 87t115 29z
" />
    <glyph glyph-name="t.sup" horiz-adv-x="300" 
d="M280 443l13 -76q-45 -25 -107 -25q-63 0 -91.5 31.5t-18.5 91.5l22 151h-53l11 76h53l15 99l120 17l-18 -116h95l-11 -76h-94l-21 -139q-6 -47 32 -47q29 0 53 13z" />
    <glyph glyph-name="u.sup" horiz-adv-x="406" 
d="M265 458l35 234h116l-50 -342h-102l5 41h-2q-47 -49 -118 -49q-55 0 -80 33t-17 91l34 226h117l-31 -215q-7 -46 33 -46q29 0 60 27z" />
    <glyph glyph-name="v.sup" horiz-adv-x="388" 
d="M259 350h-137l-72 342h122l35 -237h3l99 237h125z" />
    <glyph glyph-name="w.sup" horiz-adv-x="583" 
d="M241 350h-139l-52 342h116l26 -235h2l91 235h114l27 -233h1l87 233h115l-155 -342h-132l-20 210h-3z" />
    <glyph glyph-name="x.sup" horiz-adv-x="382" 
d="M374 350h-122l-51 96l-77 -96h-115l142 173l-95 169h123l51 -98l75 98h117l-140 -173z" />
    <glyph glyph-name="y.sup" horiz-adv-x="381" 
d="M134 343l-85 349h125l33 -230h2l98 230h122l-188 -366q-34 -67 -68 -93.5t-93 -26.5q-49 0 -79 15l19 77q32 -10 51 -10q21 0 33 11.5t30 43.5z" />
    <glyph glyph-name="z.sup" horiz-adv-x="332" 
d="M310 350h-290l11 74l181 190h-152l11 78h279l-11 -74l-175 -184h158z" />
    <glyph glyph-name="minusinferior" horiz-adv-x="434" 
d="M300 29h-259l13 94h260z" />
    <glyph glyph-name="plusinferior" horiz-adv-x="434" 
d="M212 -62h-99l12 85h-80l13 93h80l12 81h99l-13 -81h82l-14 -93h-80z" />
    <glyph glyph-name="equalinferior" horiz-adv-x="435" 
d="M284 -60h-261l13 93h261zM302 70h-260l14 94h261z" />
    <glyph glyph-name="a.sinf" horiz-adv-x="439" 
d="M359 196l-39 -254q-2 -14 1.5 -19.5t15.5 -5.5q10 0 23 4l-7 -62q-28 -13 -72 -13q-63 0 -72 45q-43 -45 -109 -45q-57 0 -90 33t-33 101q0 109 52.5 166t123.5 57q54 0 90 -34l5 27h111zM205 -47l22 148q-19 16 -47 16t-46.5 -21t-25 -47.5t-6.5 -54.5q0 -62 49 -62
q29 0 54 21z" />
    <glyph glyph-name="b.sinf" horiz-adv-x="420" 
d="M73 -146h-106l72 483h116l-27 -175q51 41 110 41q51 0 81.5 -31.5t30.5 -99.5q0 -111 -47 -168.5t-121 -57.5q-62 0 -98 42h-1q-1 -1 -2 -1zM120 93l-21 -141q26 -19 55 -19q71 0 71 122q0 61 -45 61q-31 0 -60 -23z" />
    <glyph glyph-name="c.sinf" horiz-adv-x="387" 
d="M139 -154q-79 0 -121 40.5t-42 106.5q0 98 55 154t150 56q72 0 109.5 -38t33.5 -103l-102 -7q4 68 -48 68q-74 0 -74 -126q0 -68 51 -68q49 0 66 59l96 -15q-16 -64 -61.5 -95.5t-112.5 -31.5z" />
    <glyph glyph-name="d.sinf" horiz-adv-x="419" 
d="M309 -146h-100l1 35l-1 1q-44 -44 -109 -44q-122 0 -122 133q0 113 53.5 168.5t122.5 55.5q55 0 91 -33l24 167h112zM207 -49l21 150q-16 16 -45 16q-42 0 -61 -38t-19 -87q0 -46 32 -57q32 -10 72 16z" />
    <glyph glyph-name="e.sinf" horiz-adv-x="378" 
d="M132 -154q-81 0 -118 41t-37 106q0 100 58.5 155t147.5 55q67 0 98.5 -26.5t31.5 -69.5q0 -64 -65 -91q-53 -22 -150 -28q0 -60 53 -60q44 0 60 45l92 -22q-16 -49 -60 -77t-111 -28zM171 130q-25 0 -45 -21.5t-24 -58.5q40 3 56 8q47 11 47 44q0 28 -34 28z" />
    <glyph glyph-name="f.sinf" horiz-adv-x="269" 
d="M277 333l-16 -73q-29 9 -49 9q-51 0 -58 -51l-3 -22h94l-11 -76h-94l-60 -402h-117l60 402h-47l11 76h46l5 34q19 119 152 119q52 0 87 -16z" />
    <glyph glyph-name="g.sinf" horiz-adv-x="419" 
d="M181 117q-39 0 -56.5 -32.5t-17.5 -75.5q0 -58 45 -58q33 0 58 22l19 126q-19 18 -48 18zM198 -136l7 39q-43 -39 -103 -39q-55 0 -88.5 34.5t-33.5 98.5q0 81 44.5 143.5t131.5 62.5q60 0 92 -40l7 33h105l-48 -324q-14 -87 -63.5 -124.5t-132.5 -37.5q-153 0 -159 120
l104 15q0 -23 13.5 -38.5t43.5 -15.5q69 0 80 73z" />
    <glyph glyph-name="h.sinf" horiz-adv-x="412" 
d="M120 85l-35 -231h-118l72 483h117l-29 -180q56 46 117 46q111 0 93 -120l-34 -229h-117l31 211q7 48 -29 48q-31 0 -68 -28z" />
    <glyph glyph-name="i.sinf" horiz-adv-x="199" 
d="M138 196l-51 -342h-117l50 342h118zM163 310q0 -35 -20.5 -55t-57.5 -20q-60 0 -60 54q0 35 21 55t57 20q60 0 60 -54z" />
    <glyph glyph-name="j.sinf" horiz-adv-x="197" 
d="M-32 -157l52 353h118l-54 -361q-18 -124 -151 -124q-63 0 -91 19l20 77q24 -11 53 -11q46 0 53 47zM163 310q0 -35 -20.5 -55t-57.5 -20q-60 0 -60 54q0 35 21 55t57 20q60 0 60 -54z" />
    <glyph glyph-name="k.sinf" horiz-adv-x="404" 
d="M331 -146h-129l-64 152l-35 -28l-18 -124h-118l73 483h117l-38 -252l124 111h130l-136 -122z" />
    <glyph glyph-name="l.sinf" horiz-adv-x="199" 
d="M-30 -146l71 483h117l-71 -483h-117z" />
    <glyph glyph-name="m.sinf" horiz-adv-x="595" 
d="M234 203q62 0 81 -46q48 46 114 46q51 0 76 -29t16 -84l-35 -236h-117l32 219q5 39 -24 39q-28 0 -56 -24l-35 -234h-117l32 217q5 41 -24 41q-27 0 -58 -26l-34 -232h-118l51 342h108l-6 -43h2q50 50 112 50z" />
    <glyph glyph-name="n.sinf" horiz-adv-x="412" 
d="M119 84l-34 -230h-118l51 342h110l-7 -44h2q56 51 123 51q108 0 92 -115l-35 -234h-117l32 215q6 44 -30 44q-35 0 -69 -29z" />
    <glyph glyph-name="o.sinf" horiz-adv-x="415" 
d="M137 -154q-161 0 -161 148q0 92 57.5 150.5t155.5 58.5q157 0 157 -148q0 -89 -55 -149t-154 -60zM147 -76q63 0 75 97q2 32 2 41q0 63 -49 63q-64 0 -77 -98q-2 -14 -2 -39q0 -64 51 -64z" />
    <glyph glyph-name="p.sinf" horiz-adv-x="420" 
d="M127 196l-5 -38l1 -1q46 46 115 46q113 0 113 -136q0 -110 -49.5 -165.5t-122.5 -55.5q-56 0 -92 34l-25 -162h-113l71 478h107zM226 56q0 61 -43 61q-30 0 -63 -23l-21 -142q17 -19 50 -19q77 0 77 123z" />
    <glyph glyph-name="q.sinf" horiz-adv-x="418" 
d="M156 203q62 0 91 -40l8 33h104l-72 -478h-111l26 166q-43 -38 -104 -38q-121 0 -121 136q0 112 53.5 166.5t125.5 54.5zM102 -2q0 -65 48 -65q33 0 56 23l22 145q-20 16 -46 16q-40 0 -60 -34t-20 -85z" />
    <glyph glyph-name="r.sinf" horiz-adv-x="291" 
d="M116 65l-31 -211h-118l51 342h107l-8 -56h2q54 64 119 64q5 0 19 -2l-15 -105q-71 5 -126 -32z" />
    <glyph glyph-name="s.sinf" horiz-adv-x="358" 
d="M153 203q127 0 144 -98l-97 -19q-9 46 -53 46q-43 0 -43 -29q0 -14 18.5 -21.5t45 -12.5t52.5 -13t44.5 -29.5t18.5 -56.5q0 -60 -47.5 -92t-124.5 -32q-139 0 -155 97l99 23q9 -49 63 -49q50 0 50 33q0 18 -27.5 27.5t-61 14.5t-61 28.5t-27.5 66.5q0 58 47 87t115 29z
" />
    <glyph glyph-name="t.sinf" horiz-adv-x="300" 
d="M210 -53l13 -76q-45 -25 -107 -25q-63 0 -91.5 31.5t-18.5 91.5l22 151h-53l11 76h53l15 99l120 17l-18 -116h95l-11 -76h-94l-21 -139q-6 -47 32 -47q29 0 53 13z" />
    <glyph glyph-name="u.sinf" horiz-adv-x="406" 
d="M195 -38l35 234h116l-50 -342h-102l5 41h-2q-47 -49 -118 -49q-55 0 -80 33t-17 91l34 226h117l-31 -215q-7 -46 33 -46q29 0 60 27z" />
    <glyph glyph-name="v.sinf" horiz-adv-x="388" 
d="M189 -146h-137l-72 342h122l35 -237h3l99 237h125z" />
    <glyph glyph-name="w.sinf" horiz-adv-x="583" 
d="M171 -146h-139l-52 342h116l26 -235h2l91 235h114l27 -233h1l87 233h115l-155 -342h-132l-20 210h-3z" />
    <glyph glyph-name="x.sinf" horiz-adv-x="382" 
d="M304 -146h-122l-51 96l-77 -96h-115l142 173l-95 169h123l51 -98l75 98h117l-140 -173z" />
    <glyph glyph-name="y.sinf" horiz-adv-x="381" 
d="M64 -153l-85 349h125l33 -230h2l98 230h122l-188 -366q-34 -67 -68 -93.5t-93 -26.5q-49 0 -79 15l19 77q32 -10 51 -10q21 0 33 11.5t30 43.5z" />
    <glyph glyph-name="z.sinf" horiz-adv-x="332" 
d="M240 -146h-290l11 74l181 190h-152l11 78h279l-11 -74l-175 -184h158z" />
    <glyph glyph-name="zero.num" horiz-adv-x="423" 
d="M203 274q-84 0 -121.5 43.5t-37.5 135.5q0 52 10 98.5t33.5 91.5t69.5 71.5t110 26.5q155 0 155 -173q0 -54 -10 -101.5t-33 -93t-68 -72.5t-108 -27zM212 366q33 0 47 45t25 156q6 83 -31 83q-33 0 -48.5 -46t-25.5 -161q-6 -77 33 -77z" />
    <glyph glyph-name="one.num" horiz-adv-x="340" 
d="M253 281h-131l47 310q-16 -7 -50.5 -12.5t-53.5 -5.5v105q101 7 160 54h95z" />
    <glyph glyph-name="two.num" horiz-adv-x="382" 
d="M342 281h-326l16 107l115 103q67 61 85.5 84t18.5 44q0 28 -32 28q-20 0 -33 -14t-22 -44l-114 19q11 67 65 100t125 33q73 0 110 -30t37 -80t-28.5 -88t-115.5 -106l-53 -46l1 -2h167z" />
    <glyph glyph-name="three.num" horiz-adv-x="393" 
d="M247 741q68 0 107 -26t39 -76q0 -40 -28 -69.5t-75 -45.5v-2q83 -21 83 -98q0 -70 -50 -110t-139 -40q-154 0 -164 123l117 21q0 -51 49 -51q24 0 39 14.5t15 41.5q0 44 -52 44h-51l13 86h31q39 0 60 18t21 47q0 14 -9 23t-26 9q-40 0 -55 -48l-113 19q34 120 188 120z
" />
    <glyph glyph-name="four.num" horiz-adv-x="428" 
d="M349 281h-128l15 92h-208l12 88l214 272h162l-39 -260h51l-14 -100h-51zM149 473h100l26 159z" />
    <glyph glyph-name="five.num" horiz-adv-x="398" 
d="M373 627h-178l-23 -86q40 29 92 29q50 0 80 -29.5t30 -85.5q0 -86 -55 -133.5t-136 -47.5q-151 0 -163 126l115 19q0 -49 47 -49q28 0 44.5 17t16.5 48q0 47 -43 47q-31 0 -56 -25l-79 31l54 245h270z" />
    <glyph glyph-name="six.num" horiz-adv-x="404" 
d="M421 622l-118 -25q0 54 -37 54q-28 0 -50.5 -31.5t-31.5 -94.5q43 33 98 33q49 0 81 -27.5t32 -81.5q0 -89 -53.5 -132.5t-128.5 -43.5q-164 0 -164 182q0 48 10 92.5t33.5 90.5t72.5 74t117 28q57 0 95 -29t44 -89zM181 453q-2 -9 -2 -35q0 -53 37 -53q20 0 32 17.5
t12 49.5q0 42 -32 42q-26 0 -47 -21z" />
    <glyph glyph-name="seven.num" horiz-adv-x="370" 
d="M157 281h-139l226 346h-188l16 106h324l-14 -94z" />
    <glyph glyph-name="eight.num" horiz-adv-x="404" 
d="M326 532q73 -38 73 -101q0 -66 -56 -111.5t-156 -45.5q-82 0 -126 29.5t-44 81.5q0 87 107 122q-57 37 -57 94q0 67 55 103.5t139 36.5q71 0 112 -26.5t41 -70.5q0 -38 -22.5 -63t-65.5 -49zM188 467q-45 -25 -45 -60q0 -18 14 -29t40 -11q24 0 41 11.5t17 33.5
q0 14 -10 24.5t-21 15.5t-36 15zM258 566q40 30 40 60q0 17 -12 28t-34 11t-35 -12t-13 -29q0 -31 54 -58z" />
    <glyph glyph-name="nine.num" horiz-adv-x="404" 
d="M15 391l120 28q2 -52 45 -52q62 0 81 124q-39 -33 -100 -33q-47 0 -79.5 28.5t-32.5 86.5q0 85 53.5 126.5t128.5 41.5q162 0 162 -175q0 -60 -11.5 -110.5t-35.5 -92t-68 -65.5t-103 -24q-67 0 -110.5 29t-49.5 88zM262 558q2 16 2 40q0 51 -34 51q-23 0 -35.5 -18
t-12.5 -47q0 -46 34 -46q26 0 46 20z" />
    <glyph glyph-name="parenleft.ordn" horiz-adv-x="282" 
d="M254 208h-139q-63 99 -63 224q0 93 35 166t106 158h148q-35 -40 -56 -67t-45 -68.5t-35.5 -87.5t-11.5 -99q0 -108 61 -226z" />
    <glyph glyph-name="parenright.ordn" horiz-adv-x="282" 
d="M66 756h138q63 -96 63 -224q0 -93 -35 -166.5t-106 -157.5h-148q35 40 56 67t45 68t35.5 87.5t11.5 99.5q0 110 -60 226z" />
    <glyph glyph-name="hyphen.ordn" horiz-adv-x="219" 
d="M210 417h-179l15 102h178z" />
    <glyph glyph-name="comma.ordn" horiz-adv-x="229" 
d="M1 205l70 176h135l-101 -187z" />
    <glyph glyph-name="period.ordn" horiz-adv-x="229" 
d="M198 348q0 -78 -84 -78q-68 0 -68 54q0 79 87 79q65 0 65 -55z" />
    <glyph glyph-name="minus.ordn" horiz-adv-x="434" 
d="M361 457h-259l13 94h260z" />
    <glyph glyph-name="plus.ordn" horiz-adv-x="434" 
d="M273 366h-99l12 85h-80l13 93h80l12 81h99l-13 -81h82l-14 -93h-80z" />
    <glyph glyph-name="equal.ordn" horiz-adv-x="435" 
d="M345 368h-261l13 93h261zM363 498h-260l14 94h261z" />
    <glyph glyph-name="a.ordn" horiz-adv-x="439" 
d="M420 624l-39 -254q-2 -14 1.5 -19.5t15.5 -5.5q10 0 23 4l-7 -62q-28 -13 -72 -13q-63 0 -72 45q-43 -45 -109 -45q-57 0 -90 33t-33 101q0 109 52.5 166t123.5 57q54 0 90 -34l5 27h111zM266 381l22 148q-19 16 -47 16t-46.5 -21t-25 -47.5t-6.5 -54.5q0 -62 49 -62
q29 0 54 21z" />
    <glyph glyph-name="b.ordn" horiz-adv-x="420" 
d="M134 282h-106l72 483h116l-27 -175q51 41 110 41q51 0 81.5 -31.5t30.5 -99.5q0 -111 -47 -168.5t-121 -57.5q-62 0 -98 42h-1q-1 -1 -2 -1zM181 521l-21 -141q26 -19 55 -19q71 0 71 122q0 61 -45 61q-31 0 -60 -23z" />
    <glyph glyph-name="c.ordn" horiz-adv-x="387" 
d="M200 274q-79 0 -121 40.5t-42 106.5q0 98 55 154t150 56q72 0 109.5 -38t33.5 -103l-102 -7q4 68 -48 68q-74 0 -74 -126q0 -68 51 -68q49 0 66 59l96 -15q-16 -64 -61.5 -95.5t-112.5 -31.5z" />
    <glyph glyph-name="d.ordn" horiz-adv-x="419" 
d="M370 282h-100l1 35l-1 1q-44 -44 -109 -44q-122 0 -122 133q0 113 53.5 168.5t122.5 55.5q55 0 91 -33l24 167h112zM268 379l21 150q-16 16 -45 16q-42 0 -61 -38t-19 -87q0 -46 32 -57q32 -10 72 16z" />
    <glyph glyph-name="e.ordn" horiz-adv-x="378" 
d="M193 274q-81 0 -118 41t-37 106q0 100 58.5 155t147.5 55q67 0 98.5 -26.5t31.5 -69.5q0 -64 -65 -91q-53 -22 -150 -28q0 -60 53 -60q44 0 60 45l92 -22q-16 -49 -60 -77t-111 -28zM232 558q-25 0 -45 -21.5t-24 -58.5q40 3 56 8q47 11 47 44q0 28 -34 28z" />
    <glyph glyph-name="f.ordn" horiz-adv-x="269" 
d="M338 761l-16 -73q-29 9 -49 9q-51 0 -58 -51l-3 -22h94l-11 -76h-94l-60 -402h-117l60 402h-47l11 76h46l5 34q19 119 152 119q52 0 87 -16z" />
    <glyph glyph-name="g.ordn" horiz-adv-x="419" 
d="M242 545q-39 0 -56.5 -32.5t-17.5 -75.5q0 -58 45 -58q33 0 58 22l19 126q-20 18 -48 18zM259 292l7 39q-43 -39 -103 -39q-55 0 -88.5 34.5t-33.5 98.5q0 81 44.5 143.5t131.5 62.5q60 0 92 -40l7 33h105l-48 -324q-14 -87 -63.5 -124.5t-132.5 -37.5q-153 0 -159 120
l104 15q0 -23 13.5 -38.5t43.5 -15.5q69 0 80 73z" />
    <glyph glyph-name="h.ordn" horiz-adv-x="412" 
d="M181 513l-35 -231h-118l72 483h117l-29 -180q56 46 117 46q111 0 93 -120l-34 -229h-117l31 211q7 48 -29 48q-31 0 -68 -28z" />
    <glyph glyph-name="i.ordn" horiz-adv-x="199" 
d="M199 624l-51 -342h-117l50 342h118zM224 738q0 -35 -20.5 -55t-57.5 -20q-60 0 -60 54q0 35 21 55t57 20q60 0 60 -54z" />
    <glyph glyph-name="j.ordn" horiz-adv-x="197" 
d="M29 271l52 353h118l-54 -361q-18 -124 -151 -124q-63 0 -91 19l20 77q24 -11 53 -11q46 0 53 47zM224 738q0 -35 -20.5 -55t-57.5 -20q-60 0 -60 54q0 35 21 55t57 20q60 0 60 -54z" />
    <glyph glyph-name="k.ordn" horiz-adv-x="404" 
d="M392 282h-129l-64 152l-35 -28l-18 -124h-118l73 483h117l-38 -252l124 111h130l-136 -122z" />
    <glyph glyph-name="l.ordn" horiz-adv-x="199" 
d="M31 282l71 483h117l-71 -483h-117z" />
    <glyph glyph-name="m.ordn" horiz-adv-x="595" 
d="M295 631q62 0 81 -46q48 46 114 46q51 0 76 -29t16 -84l-35 -236h-117l32 219q5 39 -24 39q-28 0 -56 -24l-35 -234h-117l32 217q5 41 -24 41q-27 0 -58 -26l-34 -232h-118l51 342h108l-6 -43h2q50 50 112 50z" />
    <glyph glyph-name="n.ordn" horiz-adv-x="412" 
d="M180 512l-34 -230h-118l51 342h110l-7 -44h2q56 51 123 51q108 0 92 -115l-35 -234h-117l32 215q6 44 -30 44q-35 0 -69 -29z" />
    <glyph glyph-name="o.ordn" horiz-adv-x="415" 
d="M198 274q-161 0 -161 148q0 92 57.5 150.5t155.5 58.5q157 0 157 -148q0 -89 -55 -149t-154 -60zM208 352q63 0 75 97q2 32 2 41q0 63 -49 63q-64 0 -77 -98q-2 -14 -2 -39q0 -64 51 -64z" />
    <glyph glyph-name="p.ordn" horiz-adv-x="420" 
d="M188 624l-5 -38l1 -1q46 46 115 46q113 0 113 -136q0 -110 -49.5 -165.5t-122.5 -55.5q-56 0 -92 34l-25 -162h-113l71 478h107zM287 484q0 61 -43 61q-30 0 -63 -23l-21 -142q17 -19 50 -19q77 0 77 123z" />
    <glyph glyph-name="q.ordn" horiz-adv-x="418" 
d="M217 631q62 0 91 -40l8 33h104l-72 -478h-111l26 166q-43 -38 -104 -38q-121 0 -121 136q0 112 53.5 166.5t125.5 54.5zM163 426q0 -65 48 -65q33 0 56 23l22 145q-20 16 -46 16q-40 0 -60 -34t-20 -85z" />
    <glyph glyph-name="r.ordn" horiz-adv-x="291" 
d="M177 493l-31 -211h-118l51 342h107l-8 -56h2q54 64 119 64q5 0 19 -2l-15 -105q-71 5 -126 -32z" />
    <glyph glyph-name="s.ordn" horiz-adv-x="358" 
d="M214 631q127 0 144 -98l-97 -19q-9 46 -53 46q-43 0 -43 -29q0 -14 18.5 -21.5t44.5 -12.5t52.5 -13t45 -29.5t18.5 -56.5q0 -60 -47.5 -92t-124.5 -32q-139 0 -155 97l99 23q9 -49 63 -49q50 0 50 33q0 18 -27.5 27.5t-61 14.5t-61 28.5t-27.5 66.5q0 58 47 87t115 29z
" />
    <glyph glyph-name="t.ordn" horiz-adv-x="300" 
d="M271 375l13 -76q-45 -25 -107 -25q-63 0 -91.5 31.5t-18.5 91.5l22 151h-53l11 76h53l15 99l120 17l-18 -116h95l-11 -76h-94l-21 -139q-6 -47 32 -47q29 0 53 13z" />
    <glyph glyph-name="u.ordn" horiz-adv-x="406" 
d="M256 390l35 234h116l-50 -342h-102l5 41h-2q-47 -49 -118 -49q-55 0 -80 33t-17 91l34 226h117l-31 -215q-7 -46 33 -46q29 0 60 27z" />
    <glyph glyph-name="v.ordn" horiz-adv-x="388" 
d="M250 282h-137l-72 342h122l35 -237h3l99 237h125z" />
    <glyph glyph-name="w.ordn" horiz-adv-x="583" 
d="M232 282h-139l-52 342h116l26 -235h2l91 235h114l27 -233h1l87 233h115l-155 -342h-132l-20 210h-3z" />
    <glyph glyph-name="x.ordn" horiz-adv-x="382" 
d="M365 282h-122l-51 96l-77 -96h-115l142 173l-95 169h123l51 -98l75 98h117l-140 -173z" />
    <glyph glyph-name="y.ordn" horiz-adv-x="381" 
d="M125 275l-85 349h125l33 -230h2l98 230h122l-188 -366q-34 -67 -68 -93.5t-93 -26.5q-49 0 -79 15l19 77q32 -10 51 -10q21 0 33 11.5t30 43.5z" />
    <glyph glyph-name="z.ordn" horiz-adv-x="332" 
d="M301 282h-290l11 74l181 190h-152l11 78h279l-11 -74l-175 -184h158z" />
    <glyph glyph-name="zero.denom" horiz-adv-x="423" 
d="M164 -6q-84 0 -121.5 43.5t-37.5 135.5q0 52 10 98.5t33.5 91.5t69.5 71.5t110 26.5q155 0 155 -173q0 -54 -10 -101.5t-33 -93t-68 -72.5t-108 -27zM173 86q33 0 47 45t25 156q6 83 -31 83q-33 0 -48.5 -46t-25.5 -161q-6 -77 33 -77z" />
    <glyph glyph-name="one.denom" horiz-adv-x="340" 
d="M214 0h-131l47 310q-16 -7 -50.5 -12.5t-53.5 -5.5v105q101 7 160 54h95z" />
    <glyph glyph-name="two.denom" horiz-adv-x="382" 
d="M303 0h-326l16 107l115 103q67 61 85.5 84t18.5 44q0 28 -32 28q-20 0 -33 -14t-22 -44l-114 19q11 67 65 100t125 33q73 0 110 -30t37 -80t-28.5 -88t-115.5 -106l-53 -46l1 -2h167z" />
    <glyph glyph-name="three.denom" horiz-adv-x="393" 
d="M208 461q68 0 107 -26t39 -76q0 -40 -28 -69.5t-75 -45.5v-2q83 -21 83 -98q0 -70 -50 -110t-139 -40q-154 0 -164 123l117 21q0 -51 49 -51q24 0 39 14.5t15 41.5q0 44 -52 44h-51l13 86h31q39 0 60 18t21 47q0 14 -9 23t-26 9q-40 0 -55 -48l-113 19q34 120 188 120z
" />
    <glyph glyph-name="four.denom" horiz-adv-x="428" 
d="M310 0h-128l15 92h-208l12 88l214 272h162l-39 -260h51l-14 -100h-51zM110 192h100l26 159z" />
    <glyph glyph-name="five.denom" horiz-adv-x="398" 
d="M334 347h-178l-23 -86q40 29 92 29q50 0 80 -29.5t30 -85.5q0 -86 -55 -133.5t-136 -47.5q-151 0 -163 126l115 19q0 -49 47 -49q28 0 44.5 17t16.5 48q0 47 -43 47q-31 0 -56 -25l-79 31l54 245h270z" />
    <glyph glyph-name="six.denom" horiz-adv-x="404" 
d="M382 342l-118 -25q0 54 -37 54q-28 0 -50.5 -31.5t-31.5 -94.5q43 33 98 33q49 0 81 -27.5t32 -81.5q0 -89 -53.5 -132.5t-128.5 -43.5q-164 0 -164 182q0 48 10 92.5t33.5 90.5t72.5 74t117 28q57 0 95 -29t44 -89zM142 173q-2 -9 -2 -35q0 -53 37 -53q20 0 32 17.5
t12 49.5q0 42 -32 42q-26 0 -47 -21z" />
    <glyph glyph-name="seven.denom" horiz-adv-x="370" 
d="M118 0h-139l226 346h-188l16 106h324l-14 -94z" />
    <glyph glyph-name="eight.denom" horiz-adv-x="404" 
d="M287 252q73 -38 73 -101q0 -66 -56 -111.5t-156 -45.5q-82 0 -126 29.5t-44 81.5q0 87 107 122q-57 37 -57 94q0 67 55 103.5t139 36.5q71 0 112 -26.5t41 -70.5q0 -38 -22.5 -63t-65.5 -49zM149 187q-45 -25 -45 -60q0 -18 14 -29t40 -11q24 0 41 11.5t17 33.5
q0 14 -10 24.5t-21 15.5t-36 15zM219 286q40 30 40 60q0 17 -12 28t-34 11t-35 -12t-13 -29q0 -31 54 -58z" />
    <glyph glyph-name="nine.denom" horiz-adv-x="404" 
d="M-18 111l120 28q2 -52 45 -52q62 0 81 124q-39 -33 -100 -33q-47 0 -79.5 28.5t-32.5 86.5q0 85 53.5 126.5t128.5 41.5q162 0 162 -175q0 -60 -11.5 -110.5t-35.5 -92t-68 -65.5t-103 -24q-67 0 -110.5 29t-49.5 88zM229 278q2 16 2 40q0 51 -34 51q-23 0 -35.5 -18
t-12.5 -47q0 -46 34 -46q26 0 46 20z" />
    <glyph glyph-name="square" horiz-adv-x="610" 
d="M479 151h-349v349h349v-349z" />
    <glyph glyph-name="square.open" horiz-adv-x="610" 
d="M434 196v259h-259v-259h259zM479 151h-349v349h349v-349z" />
    <glyph glyph-name="circle.open" horiz-adv-x="610" 
d="M305 119q-85 0 -145 60t-60 145t60 145t145 60t145 -60t60 -145t-60 -145t-145 -60zM305 167q63 0 107 47.5t44 112.5q0 64 -43.5 108.5t-107.5 44.5t-107 -45.5t-43 -110.5t43 -111t107 -46z" />
    <glyph glyph-name="doublecircle" horiz-adv-x="610" 
d="M305 269q22 0 37.5 16.5t15.5 39.5t-15.5 38.5t-37.5 15.5t-37.5 -16.5t-15.5 -38.5q0 -23 15.5 -39t37.5 -16zM305 180q-59 0 -101.5 42.5t-42.5 101.5t42.5 101t101.5 42t101 -42t42 -101t-42 -101.5t-101 -42.5zM305 214q44 0 75 33.5t31 78.5t-31 76t-75 31
t-74.5 -32t-30.5 -77q0 -46 30 -78t75 -32z" />
    <glyph glyph-name="triangle.left" horiz-adv-x="425" 
d="M275 203l-185 117l185 114v-231z" />
    <glyph glyph-name="raute" horiz-adv-x="610" 
d="M514 325l-210 -209l-209 210l210 209z" />
    <glyph glyph-name="arrowlong.left" horiz-adv-x="700" 
d="M662 420l-17 -118h-438l57 -157h-125l-85 217l147 218h122l-100 -160h439z" />
    <glyph glyph-name="arrowlong.right" horiz-adv-x="700" 
d="M54 304l17 118h438l-57 158h125l84 -218l-146 -217h-123l99 159h-437z" />
    <glyph glyph-name="arrowlong.up" horiz-adv-x="700" 
d="M357 64h-122l62 438l-167 -80l17 125l235 115l201 -116l-17 -122l-147 78z" />
    <glyph glyph-name="arrowlong.down" horiz-adv-x="700" 
d="M350 663h122l-62 -438l169 78l-17 -123l-234 -115l-202 115l17 125l145 -80z" />
    <glyph glyph-name="arrowlong.leftup" horiz-adv-x="700" 
d="M400 647l87 -87l-169 -58l310 -310l-83 -83l-310 310l-55 -168l-88 88l72 235z" />
    <glyph glyph-name="arrowlong.leftdown" horiz-adv-x="700" 
d="M466 193l-97 -84l-226 72l-39 235l100 89l32 -169l353 311l75 -84l-357 -312z" />
    <glyph glyph-name="arrowlong.rightup" horiz-adv-x="700" 
d="M275 560l99 87l226 -73l39 -235l-100 -88l-32 168l-353 -310l-75 84l354 310z" />
    <glyph glyph-name="arrowlong.rightdown" horiz-adv-x="700" 
d="M350 109l-88 87l167 58l-309 309l85 84l310 -311l55 169l88 -89l-72 -235z" />
    <glyph glyph-name="ornm1" horiz-adv-x="600" 
d="M550 500v-500h-500v500h500z" />
    <glyph glyph-name="ornm2" horiz-adv-x="500" 
d="M211 351l44 143l43 -143l147 32l-102 -108l102 -111l-147 33l-43 -144l-44 144l-148 -33l102 111l-102 108z" />
    <glyph glyph-name="ornm3" horiz-adv-x="500" 
d="M203 352l49 137l48 -137l144 -4l-116 -87l43 -140l-119 83l-120 -83l43 140l-116 87z" />
    <glyph glyph-name="ornm4" horiz-adv-x="500" 
d="M59 348l144 4l48 134v-283l-119 -82l43 140z" />
    <glyph glyph-name="ornm5" horiz-adv-x="500" 
d="M252 489l48 -137l144 -4l-116 -87l43 -140l-119 83v285z" />
    <glyph glyph-name="ornm6" horiz-adv-x="752" 
d="M291 195l298 334l113 -105l-390 -425l-262 204l95 114z" />
    <glyph glyph-name="ornm7" horiz-adv-x="634" 
d="M205 260l-155 144l105 113l155 -143l145 157l113 -105l-144 -158l160 -147l-106 -115l-159 148l-141 -154l-115 106z" />
    <glyph glyph-name="ornm8" horiz-adv-x="844" 
d="M50 377q0 97 65 163t163 66q102 0 166.5 -63t64.5 -164q0 -54 -21 -102l306 -199l-58 -92l-301 219q-62 -54 -157 -54q-101 0 -164.5 62.5t-63.5 163.5zM132 377q0 -66 40.5 -108t105.5 -42t107 42.5t42 109.5t-42 109.5t-107 42.5q-64 0 -105 -43.5t-41 -110.5z" />
    <glyph glyph-name="ornm9" horiz-adv-x="818" 
d="M631 476h-127v115h-317v-285h-137v-243h102v-63h514v63h102v243h-137v170zM152 -111v65h514v-65h-514zM631 499h-102v92l7 5l100 -90z" />
    <glyph glyph-name="ornm10" horiz-adv-x="562" 
d="M148 489q0 60 37.5 97.5t95.5 37.5t96 -37.5t38 -97.5q0 -42 -19.5 -74t-52.5 -48v-4q90 -6 129.5 -47t39.5 -128v-188h-462v188q0 88 39.5 128.5t129.5 46.5v4q-71 35 -71 122z" />
    <glyph glyph-name="ornm11" horiz-adv-x="720" 
d="M122 210h-72v-210h620v210h-73v-142h-475v142zM261 382l-25 237h247l-21 -237h116l-218 -218l-214 218h115z" />
    <glyph glyph-name="ornm12" horiz-adv-x="571" 
d="M50 0v615h113v-299q0 -82 15 -117t57 -35t56 34.5t14 117.5v161h-45v-161q0 -68 -4 -90.5t-21 -22.5q-19 0 -23.5 23t-4.5 90v299h314v-615h-471z" />
    <glyph glyph-name="ornm13" horiz-adv-x="774" 
d="M468 -80h-157v8q0 46 -32.5 79t-79.5 33q-38 0 -66 -22l-82 143q39 18 53.5 60t-0.5 83.5t-54 59.5l83 141q29 -21 66 -21q47 0 79.5 32.5t32.5 78.5v11h158q0 -2 -0.5 -5.5t-0.5 -5.5q0 -47 32 -79t79 -32q36 0 65 21l80 -138q-32 -12 -51.5 -40.5t-19.5 -64.5t19.5 -64
t51.5 -40l-80 -138q-28 20 -65 20q-46 0 -78.5 -32.5t-32.5 -79.5v-8zM239 268q0 -66 41.5 -107.5t105.5 -41.5t106 41.5t42 107.5t-42 107.5t-106 41.5t-105.5 -41.5t-41.5 -107.5z" />
    <glyph glyph-name="ornm14" horiz-adv-x="541" 
d="M491 0h-441v406h54q0 140 34.5 199.5t132.5 59.5q100 0 133 -56.5t33 -202.5h54v-406zM271 598q-57 0 -75.5 -38.5t-18.5 -153.5h188q0 115 -18 153.5t-76 38.5zM246 205l-15 -96h80l-16 96q25 12 25 38q0 23 -13.5 35.5t-35.5 12.5t-35.5 -12.5t-13.5 -35.5
q0 -25 24 -38z" />
    <glyph glyph-name="ornm15" horiz-adv-x="729" 
d="M245 205l-14 -96h79l-15 96q25 12 25 38q0 23 -14 35.5t-36 12.5q-21 0 -34.5 -12.5t-13.5 -35.5q0 -25 23 -38zM679 424h-73q0 102 -18 138t-75 36q-58 0 -76 -38.5t-18 -153.5h72v-406h-441v406h296q0 140 34.5 199.5t132.5 59.5q100 0 133 -54t33 -187z" />
    <glyph glyph-name="ornm16" horiz-adv-x="846" 
d="M50 429l371 -320l375 318v-427h-746v429zM421 176l-350 302h704z" />
    <glyph glyph-name="ornm17" horiz-adv-x="846" 
d="M796 601v-89h-255l30 89h225zM50 478h746v-478h-746v478z" />
    <glyph glyph-name="ornm18" horiz-adv-x="785" 
d="M283 -50l-2 7q104 40 102 136q-56 1 -113 18t-107 49t-81.5 83.5t-31.5 113.5q0 63 32 115t83.5 84t111 49t119.5 17q133 1 236 -75.5t103 -190.5q0 -156 -193 -237q-56 -169 -259 -169z" />
    <glyph glyph-name="ornm19" horiz-adv-x="706" 
d="M50 68q0 37 22.5 58.5t57.5 21.5q36 0 58 -22t22 -58q0 -37 -22 -58.5t-58 -21.5q-35 0 -57.5 22t-22.5 58zM435 0h-107q0 113 -76 186.5t-186 73.5v104q156 0 262.5 -103t106.5 -261zM656 0h-110q0 136 -64 246t-173.5 171t-242.5 61v104q162 0 297 -74t214 -208
t79 -300z" />
    <glyph glyph-name="ornm20" horiz-adv-x="785" 
d="M376 0v183h-101v-183h-103v283h-122l345 355l123 -129v103h101v-208l116 -121h-114v-283h-245z" />
    <glyph glyph-name="eng.sc" horiz-adv-x="615" 
d="M507 0l-6 -44q-27 -179 -206 -179q-38 0 -73.5 8.5t-50.5 19.5l27 103q36 -17 76 -17q66 0 77 76l3 25l-157 367l-54 -359h-135l81 560h175l142 -335l50 335h134z" />
    <glyph glyph-name="eth.sc" horiz-adv-x="620" 
d="M232 0h-203l34 238h-58l13 92h59l33 230h212q260 0 260 -228q0 -148 -88.5 -240t-261.5 -92zM195 113h46q188 0 188 214q0 65 -32 93.5t-104 28.5h-49l-18 -119h118l-13 -92h-118z" />
    <glyph glyph-name="thorn.sc" horiz-adv-x="517" 
d="M172 111l-16 -111h-148l81 560h146l-11 -75h58q108 0 155.5 -43.5t47.5 -112.5q0 -99 -66 -158.5t-197 -59.5h-50zM187 223h34q109 0 109 90q0 60 -81 60h-40z" />
    <glyph glyph-name="germandbls.sc" horiz-adv-x="1007" 
d="M981 405l-136 -14q-5 77 -77 77q-37 0 -56.5 -14.5t-19.5 -38.5t18 -37t54 -23q89 -22 120 -39q72 -40 72 -130q0 -96 -71 -145.5t-174 -49.5q-221 0 -225 181l138 19q4 -94 90 -94q92 0 92 61q0 27 -22 40t-75 26q-37 9 -61.5 18t-52 26.5t-41.5 47.5t-14 71
q0 83 68 133t170 50q202 0 203 -165zM478 405l-136 -14q-5 77 -77 77q-37 0 -56.5 -14.5t-19.5 -38.5t18 -37t54 -23q89 -22 120 -39q72 -40 72 -130q0 -96 -71 -145.5t-174 -49.5q-221 0 -225 181l138 19q4 -94 90 -94q92 0 92 61q0 27 -22 40t-75 26q-37 9 -61.5 18
t-52 26.5t-41.5 47.5t-14 71q0 83 68 133t170 50q202 0 203 -165z" />
    <glyph glyph-name="kgreenlandic.sc" horiz-adv-x="566" 
d="M238 560l-34 -233l232 233h167l-237 -234l144 -326h-166l-98 224l-65 -60l-25 -164h-148l81 560h149z" />
    <glyph glyph-name="dotlessi.sc" horiz-adv-x="264" 
d="M157 0h-149l81 560h150z" />
    <glyph glyph-name="aacute.sc" horiz-adv-x="593" 
d="M229 560h183l126 -560h-160l-24 120h-181l-57 -120h-158zM339 233l-36 197h-4l-88 -197h128zM244 621l96 162h163l-160 -171z" />
    <glyph glyph-name="abreve.sc" horiz-adv-x="593" 
d="M229 560h183l126 -560h-160l-24 120h-181l-57 -120h-158zM339 233l-36 197h-4l-88 -197h128zM333 699q36 0 56 17t32 60l96 -6q-10 -81 -60 -121t-131 -40q-158 0 -155 158l102 11q-1 -42 13 -60.5t47 -18.5z" />
    <glyph glyph-name="acircumflex.sc" horiz-adv-x="593" 
d="M229 560h183l126 -560h-160l-24 120h-181l-57 -120h-158zM339 233l-36 197h-4l-88 -197h128zM497 621l-100 -5l-60 95l-85 -96l-109 6l132 164h144z" />
    <glyph glyph-name="adieresis.sc" horiz-adv-x="593" 
d="M229 560h183l126 -560h-160l-24 120h-181l-57 -120h-158zM339 233l-36 197h-4l-88 -197h128zM130 710q0 42 28.5 67.5t73.5 25.5q36 0 57 -19.5t21 -51.5q0 -41 -28.5 -67t-71.5 -26q-37 0 -58.5 19t-21.5 52zM365 710q0 42 28.5 67.5t73.5 25.5q36 0 57 -19t21 -52
q0 -42 -28 -67.5t-72 -25.5q-37 0 -58.5 19t-21.5 52z" />
    <glyph glyph-name="aeacute.sc" horiz-adv-x="823" 
d="M488 619l96 162h163l-160 -171zM747 0h-403l32 211h-134l-123 -211h-157l337 560h512l-17 -116h-234l-18 -117h221l-16 -114h-221l-15 -96h252zM391 322l19 122h-44l-71 -122h96z" />
    <glyph glyph-name="agrave.sc" horiz-adv-x="593" 
d="M229 560h183l126 -560h-160l-24 120h-181l-57 -120h-158zM339 233l-36 197h-4l-88 -197h128zM406 621l-101 -9l-111 171h161z" />
    <glyph glyph-name="amacron.sc" horiz-adv-x="593" 
d="M229 560h183l126 -560h-160l-24 120h-181l-57 -120h-158zM339 233l-36 197h-4l-88 -197h128zM175 643l14 100h311l-14 -100h-311z" />
    <glyph glyph-name="aogonek.sc" horiz-adv-x="593" 
d="M512 -110l62 -30q-22 -47 -63 -73t-89 -26q-51 0 -78 22t-27 62q0 83 111 155h-50l-24 120h-181l-57 -120h-158l271 560h183l126 -560q-56 -41 -80.5 -68t-24.5 -57q0 -27 26 -27q29 0 53 42zM339 233l-36 197h-4l-88 -197h128z" />
    <glyph glyph-name="aring.sc" horiz-adv-x="593" 
d="M445 638q0 -52 -31 -86l124 -552h-160l-24 120h-181l-57 -120h-158l265 547q-17 23 -17 56q0 60 39.5 94t95.5 34q46 0 75 -24.5t29 -68.5zM339 233l-36 197h-4l-88 -197h128zM318 575q24 0 39 14t15 40q0 18 -11 28t-29 10q-24 0 -39.5 -14.5t-15.5 -39.5q0 -38 41 -38z
" />
    <glyph glyph-name="aringacute.sc" horiz-adv-x="593" 
d="M445 638q0 -52 -31 -86l124 -552h-160l-24 120h-181l-57 -120h-158l265 547q-17 23 -17 56q0 60 39.5 94t95.5 34q46 0 75 -24.5t29 -68.5zM289 758l109 140h163l-167 -148zM339 233l-36 197h-4l-88 -197h128zM318 575q24 0 39 14t15 40q0 18 -11 28t-29 10
q-24 0 -39.5 -14.5t-15.5 -39.5q0 -38 41 -38z" />
    <glyph glyph-name="atilde.sc" horiz-adv-x="593" 
d="M229 560h183l126 -560h-160l-24 120h-181l-57 -120h-158zM339 233l-36 197h-4l-88 -197h128zM267 770q35 0 77 -21.5t62 -21.5q17 0 24.5 10t11.5 34l75 -4q-3 -64 -30.5 -101t-79.5 -37q-38 0 -81 22t-61 22t-26.5 -10.5t-9.5 -37.5l-81 3q3 66 35.5 104t83.5 38z" />
    <glyph glyph-name="cacute.sc" horiz-adv-x="582" 
d="M402 202l130 -21q-24 -98 -95.5 -144t-169.5 -46q-124 0 -186.5 63.5t-62.5 172.5q0 155 84.5 249t239.5 94q107 0 165 -55.5t52 -157.5l-137 -13q8 113 -91 113q-74 0 -115 -56t-41 -167q0 -127 107 -127q49 0 76.5 25t43.5 70zM263 621l96 162h163l-160 -171z" />
    <glyph glyph-name="ccaron.sc" horiz-adv-x="582" 
d="M402 202l130 -21q-24 -98 -95.5 -144t-169.5 -46q-124 0 -186.5 63.5t-62.5 172.5q0 155 84.5 249t239.5 94q107 0 165 -55.5t52 -157.5l-137 -13q8 113 -91 113q-74 0 -115 -56t-41 -167q0 -127 107 -127q49 0 76.5 25t43.5 70zM193 776l102 5l59 -95l85 96l107 -6
l-131 -164h-144z" />
    <glyph glyph-name="ccedilla.sc" horiz-adv-x="582" 
d="M125 -230l18 69q29 -12 54 -12t39.5 11t14.5 32q0 20 -15 27.5t-45 8.5l24 89q-98 12 -147.5 73.5t-49.5 158.5q0 155 84.5 249t239.5 94q107 0 165 -55.5t52 -157.5l-137 -13q8 113 -91 113q-74 0 -115 -56t-41 -167q0 -127 107 -127q49 0 76.5 25t43.5 70l130 -21
q-23 -94 -88.5 -139.5t-157.5 -49.5l-10 -37q74 -14 74 -81q0 -58 -40 -89.5t-103 -31.5q-48 0 -82 17z" />
    <glyph glyph-name="ccircumflex.sc" horiz-adv-x="582" 
d="M402 202l130 -21q-24 -98 -95.5 -144t-169.5 -46q-124 0 -186.5 63.5t-62.5 172.5q0 155 84.5 249t239.5 94q107 0 165 -55.5t52 -157.5l-137 -13q8 113 -91 113q-74 0 -115 -56t-41 -167q0 -127 107 -127q49 0 76.5 25t43.5 70zM516 621l-100 -5l-60 95l-85 -96l-109 6
l132 164h144z" />
    <glyph glyph-name="cdotaccent.sc" horiz-adv-x="582" 
d="M402 202l130 -21q-24 -98 -95.5 -144t-169.5 -46q-124 0 -186.5 63.5t-62.5 172.5q0 155 84.5 249t239.5 94q107 0 165 -55.5t52 -157.5l-137 -13q8 113 -91 113q-74 0 -115 -56t-41 -167q0 -127 107 -127q49 0 76.5 25t43.5 70zM264 706q0 48 28 75.5t76 27.5
q81 0 81 -74q0 -49 -28 -76.5t-77 -27.5q-38 0 -59 20t-21 55z" />
    <glyph glyph-name="dcaron.sc" horiz-adv-x="599" 
d="M211 0h-203l81 560h212q260 0 260 -228q0 -148 -88.5 -240t-261.5 -92zM174 113h46q188 0 188 214q0 65 -32 93.5t-104 28.5h-49zM154 776l102 5l59 -95l85 96l107 -6l-131 -164h-144z" />
    <glyph glyph-name="dcroat.sc" horiz-adv-x="620" 
d="M232 0h-203l34 238h-58l13 92h59l33 230h212q260 0 260 -228q0 -148 -88.5 -240t-261.5 -92zM195 113h46q188 0 188 214q0 65 -32 93.5t-104 28.5h-49l-18 -119h118l-13 -92h-118z" />
    <glyph glyph-name="eacute.sc" horiz-adv-x="488" 
d="M409 0h-401l81 560h386l-17 -116h-235l-17 -110h222l-16 -113h-223l-16 -104h253zM212 621l96 162h163l-160 -171z" />
    <glyph glyph-name="ebreve.sc" horiz-adv-x="488" 
d="M409 0h-401l81 560h386l-17 -116h-235l-17 -110h222l-16 -113h-223l-16 -104h253zM301 699q36 0 56 17t32 60l96 -6q-10 -81 -60 -121t-131 -40q-158 0 -155 158l102 11q-1 -42 13 -60.5t47 -18.5z" />
    <glyph glyph-name="ecaron.sc" horiz-adv-x="488" 
d="M409 0h-401l81 560h386l-17 -116h-235l-17 -110h222l-16 -113h-223l-16 -104h253zM142 776l102 5l59 -95l85 96l107 -6l-131 -164h-144z" />
    <glyph glyph-name="ecircumflex.sc" horiz-adv-x="488" 
d="M409 0h-401l81 560h386l-17 -116h-235l-17 -110h222l-16 -113h-223l-16 -104h253zM465 621l-100 -5l-60 95l-85 -96l-109 6l132 164h144z" />
    <glyph glyph-name="edieresis.sc" horiz-adv-x="488" 
d="M409 0h-401l81 560h386l-17 -116h-235l-17 -110h222l-16 -113h-223l-16 -104h253zM98 710q0 42 28.5 67.5t73.5 25.5q36 0 57 -19.5t21 -51.5q0 -41 -28.5 -67t-71.5 -26q-37 0 -58.5 19t-21.5 52zM333 710q0 42 28.5 67.5t73.5 25.5q36 0 57 -19t21 -52q0 -42 -28 -67.5
t-72 -25.5q-37 0 -58.5 19t-21.5 52z" />
    <glyph glyph-name="edotaccent.sc" horiz-adv-x="488" 
d="M409 0h-401l81 560h386l-17 -116h-235l-17 -110h222l-16 -113h-223l-16 -104h253zM213 706q0 48 28 75.5t76 27.5q81 0 81 -74q0 -49 -28 -76.5t-77 -27.5q-38 0 -59 20t-21 55z" />
    <glyph glyph-name="egrave.sc" horiz-adv-x="488" 
d="M409 0h-401l81 560h386l-17 -116h-235l-17 -110h222l-16 -113h-223l-16 -104h253zM374 621l-101 -9l-111 171h161z" />
    <glyph glyph-name="emacron.sc" horiz-adv-x="488" 
d="M409 0h-401l81 560h386l-17 -116h-235l-17 -110h222l-16 -113h-223l-16 -104h253zM143 643l14 100h311l-14 -100h-311z" />
    <glyph glyph-name="eogonek.sc" horiz-adv-x="488" 
d="M358 -110l62 -30q-22 -47 -63 -73t-89 -26q-51 0 -78 22t-27 62q0 83 111 155h-266l81 560h386l-17 -116h-235l-17 -110h222l-16 -113h-223l-16 -104h253l-17 -117h-35q-35 -29 -52 -45.5t-30 -37.5t-13 -42q0 -27 26 -27q29 0 53 42z" />
    <glyph glyph-name="gbreve.sc" horiz-adv-x="611" 
d="M561 293l-44 -293h-109l-3 67q-24 -36 -68.5 -56t-98.5 -20q-112 0 -166 64t-54 169q0 156 86 251t243 95q106 0 162.5 -48.5t54.5 -148.5l-141 -13q7 96 -86 96q-82 0 -121.5 -61.5t-39.5 -162.5q0 -131 110 -131q44 0 73 20.5t36 52.5l4 25h-97l13 94h246zM360 699
q36 0 56 17t32 60l96 -6q-10 -81 -60 -121t-131 -40q-158 0 -155 158l102 11q-1 -42 13 -60.5t47 -18.5z" />
    <glyph glyph-name="gcircumflex.sc" horiz-adv-x="611" 
d="M561 293l-44 -293h-109l-3 67q-24 -36 -68.5 -56t-98.5 -20q-112 0 -166 64t-54 169q0 156 86 251t243 95q106 0 162.5 -48.5t54.5 -148.5l-141 -13q7 96 -86 96q-82 0 -121.5 -61.5t-39.5 -162.5q0 -131 110 -131q44 0 73 20.5t36 52.5l4 25h-97l13 94h246zM524 621
l-100 -5l-60 95l-85 -96l-109 6l132 164h144z" />
    <glyph glyph-name="gdotaccent.sc" horiz-adv-x="611" 
d="M561 293l-44 -293h-109l-3 67q-24 -36 -68.5 -56t-98.5 -20q-112 0 -166 64t-54 169q0 156 86 251t243 95q106 0 162.5 -48.5t54.5 -148.5l-141 -13q7 96 -86 96q-82 0 -121.5 -61.5t-39.5 -162.5q0 -131 110 -131q44 0 73 20.5t36 52.5l4 25h-97l13 94h246zM272 706
q0 48 28 75.5t76 27.5q81 0 81 -74q0 -49 -28 -76.5t-77 -27.5q-38 0 -59 20t-21 55z" />
    <glyph glyph-name="gcommaaccent.sc" horiz-adv-x="611" 
d="M561 293l-44 -293h-109l-3 67q-24 -36 -68.5 -56t-98.5 -20q-112 0 -166 64t-54 169q0 156 86 251t243 95q106 0 162.5 -48.5t54.5 -148.5l-141 -13q7 96 -86 96q-82 0 -121.5 -61.5t-39.5 -162.5q0 -131 110 -131q44 0 73 20.5t36 52.5l4 25h-97l13 94h246zM132 -257
l73 189h140l-112 -203z" />
    <glyph glyph-name="hbar.sc" horiz-adv-x="607" 
d="M582 560l-10 -64h59l-13 -89h-59l-59 -407h-150l31 216h-192l-32 -216h-150l59 407h-52l13 89h52l10 64h150l-10 -64h193l10 64h150zM207 341h193l9 66h-193z" />
    <glyph glyph-name="hcircumflex.sc" horiz-adv-x="607" 
d="M582 560l-82 -560h-150l31 216h-192l-32 -216h-150l82 560h150l-32 -219h193l32 219h150zM519 621l-100 -5l-60 95l-85 -96l-109 6l132 164h144z" />
    <glyph glyph-name="iacute.sc" horiz-adv-x="264" 
d="M157 0h-149l81 560h150zM89 621l96 162h163l-160 -171z" />
    <glyph glyph-name="ibreve.sc" horiz-adv-x="264" 
d="M157 0h-149l81 560h150zM178 699q36 0 56 17t32 60l96 -6q-10 -81 -60 -121t-131 -40q-158 0 -155 158l102 11q-1 -42 13 -60.5t47 -18.5z" />
    <glyph glyph-name="icircumflex.sc" horiz-adv-x="264" 
d="M157 0h-149l81 560h150zM342 621l-100 -5l-60 95l-85 -96l-109 6l132 164h144z" />
    <glyph glyph-name="idieresis.sc" horiz-adv-x="264" 
d="M157 0h-149l81 560h150zM-25 710q0 42 28.5 67.5t73.5 25.5q36 0 57 -19.5t21 -51.5q0 -41 -28.5 -67t-71.5 -26q-37 0 -58.5 19t-21.5 52zM210 710q0 42 28.5 67.5t73.5 25.5q36 0 57 -19t21 -52q0 -42 -28 -67.5t-72 -25.5q-37 0 -58.5 19t-21.5 52z" />
    <glyph glyph-name="idotaccent.sc" horiz-adv-x="264" 
d="M157 0h-149l81 560h150zM90 706q0 48 28 75.5t76 27.5q81 0 81 -74q0 -49 -28 -76.5t-77 -27.5q-38 0 -59 20t-21 55z" />
    <glyph glyph-name="igrave.sc" horiz-adv-x="264" 
d="M157 0h-149l81 560h150zM251 621l-101 -9l-111 171h161z" />
    <glyph glyph-name="imacron.sc" horiz-adv-x="264" 
d="M157 0h-149l81 560h150zM20 643l14 100h311l-14 -100h-311z" />
    <glyph glyph-name="iogonek.sc" horiz-adv-x="264" 
d="M133 -110l62 -30q-22 -47 -63 -73t-89 -26q-51 0 -78 22t-27 62q0 82 111 155h-41l81 560h150l-82 -560q-55 -41 -79 -68t-24 -57q0 -27 26 -27q29 0 53 42z" />
    <glyph glyph-name="itilde.sc" horiz-adv-x="264" 
d="M157 0h-149l81 560h150zM112 770q35 0 77 -21.5t62 -21.5q17 0 24.5 10t11.5 34l75 -4q-3 -64 -30.5 -101t-79.5 -37q-38 0 -81 22t-61 22t-26.5 -10.5t-9.5 -37.5l-81 3q3 66 35.5 104t83.5 38z" />
    <glyph glyph-name="jcircumflex.sc" horiz-adv-x="467" 
d="M238 163l58 397h150l-59 -395q-25 -174 -205 -174q-187 0 -192 172l147 21q1 -26 4 -40.5t13.5 -27.5t30.5 -13q46 0 53 60zM548 621l-100 -5l-60 95l-85 -96l-109 6l132 164h144z" />
    <glyph glyph-name="kcommaaccent.sc" horiz-adv-x="566" 
d="M238 560l-34 -233l232 233h167l-237 -234l144 -326h-166l-98 224l-65 -60l-25 -164h-148l81 560h149zM100 -257l73 189h140l-112 -203z" />
    <glyph glyph-name="lacute.sc" horiz-adv-x="478" 
d="M401 0h-393l81 560h150l-64 -436h244zM95 621l96 162h163l-160 -171z" />
    <glyph glyph-name="lcaron.sc" horiz-adv-x="478" 
d="M401 0h-393l81 560h150l-64 -436h244zM260 367l60 193h139l-94 -202z" />
    <glyph glyph-name="lcommaaccent.sc" horiz-adv-x="478" 
d="M401 0h-393l81 560h150l-64 -436h244zM70 -257l73 189h140l-112 -203z" />
    <glyph glyph-name="ldot.sc" horiz-adv-x="478" 
d="M401 0h-393l81 560h150l-64 -436h244zM270 325q0 44 26 69t70 25q35 0 54.5 -17.5t19.5 -50.5q0 -44 -26 -69.5t-70 -25.5q-35 0 -54.5 18.5t-19.5 50.5z" />
    <glyph glyph-name="lslash.sc" horiz-adv-x="495" 
d="M-12 191l17 110l67 26l34 233h150l-27 -184l133 52l-17 -111l-132 -51l-21 -142h244l-18 -124h-393l31 217z" />
    <glyph glyph-name="nacute.sc" horiz-adv-x="615" 
d="M507 0h-169l-141 359l-54 -359h-135l81 560h175l138 -361l54 361h134zM278 621l96 162h163l-160 -171z" />
    <glyph glyph-name="napostrophe.sc" horiz-adv-x="732" 
d="M624 0h-169l-141 359l-54 -359h-135l81 560h175l138 -361l54 361h134zM-13 383l69 179h132l-106 -192z" />
    <glyph glyph-name="ncaron.sc" horiz-adv-x="615" 
d="M507 0h-169l-141 359l-54 -359h-135l81 560h175l138 -361l54 361h134zM196 776l102 5l59 -95l85 96l107 -6l-131 -164h-144z" />
    <glyph glyph-name="ncommaaccent.sc" horiz-adv-x="615" 
d="M507 0h-169l-141 359l-54 -359h-135l81 560h175l138 -361l54 361h134zM126 -257l73 189h140l-112 -203z" />
    <glyph glyph-name="ntilde.sc" horiz-adv-x="615" 
d="M507 0h-169l-141 359l-54 -359h-135l81 560h175l138 -361l54 361h134zM289 770q35 0 77 -21.5t62 -21.5q17 0 24.5 10t11.5 34l75 -4q-3 -64 -30.5 -101t-79.5 -37q-38 0 -81 22t-61 22t-26.5 -10.5t-9.5 -37.5l-81 3q3 66 35.5 104t83.5 38z" />
    <glyph glyph-name="oacute.sc" horiz-adv-x="628" 
d="M263 -9q-127 0 -186 65.5t-59 175.5q0 144 86 241t244 97q127 0 185 -65t58 -173q0 -144 -85.5 -242.5t-242.5 -98.5zM280 107q43 0 75.5 21.5t49 56t24.5 70.5t8 73q0 126 -104 126q-44 0 -77 -20.5t-50.5 -54t-25.5 -70.5t-8 -77q0 -125 108 -125zM272 621l96 162h163
l-160 -171z" />
    <glyph glyph-name="obreve.sc" horiz-adv-x="628" 
d="M263 -9q-127 0 -186 65.5t-59 175.5q0 144 86 241t244 97q127 0 185 -65t58 -173q0 -144 -85.5 -242.5t-242.5 -98.5zM280 107q43 0 75.5 21.5t49 56t24.5 70.5t8 73q0 126 -104 126q-44 0 -77 -20.5t-50.5 -54t-25.5 -70.5t-8 -77q0 -125 108 -125zM361 699q36 0 56 17
t32 60l96 -6q-10 -81 -60 -121t-131 -40q-158 0 -155 158l102 11q-1 -42 13 -60.5t47 -18.5z" />
    <glyph glyph-name="ocircumflex.sc" horiz-adv-x="628" 
d="M263 -9q-127 0 -186 65.5t-59 175.5q0 144 86 241t244 97q127 0 185 -65t58 -173q0 -144 -85.5 -242.5t-242.5 -98.5zM280 107q43 0 75.5 21.5t49 56t24.5 70.5t8 73q0 126 -104 126q-44 0 -77 -20.5t-50.5 -54t-25.5 -70.5t-8 -77q0 -125 108 -125zM525 621l-100 -5
l-60 95l-85 -96l-109 6l132 164h144z" />
    <glyph glyph-name="odieresis.sc" horiz-adv-x="628" 
d="M263 -9q-127 0 -186 65.5t-59 175.5q0 144 86 241t244 97q127 0 185 -65t58 -173q0 -144 -85.5 -242.5t-242.5 -98.5zM280 107q43 0 75.5 21.5t49 56t24.5 70.5t8 73q0 126 -104 126q-44 0 -77 -20.5t-50.5 -54t-25.5 -70.5t-8 -77q0 -125 108 -125zM158 710
q0 42 28.5 67.5t73.5 25.5q36 0 57 -19.5t21 -51.5q0 -41 -28.5 -67t-71.5 -26q-37 0 -58.5 19t-21.5 52zM393 710q0 42 28.5 67.5t73.5 25.5q36 0 57 -19t21 -52q0 -42 -28 -67.5t-72 -25.5q-37 0 -58.5 19t-21.5 52z" />
    <glyph glyph-name="ograve.sc" horiz-adv-x="628" 
d="M263 -9q-127 0 -186 65.5t-59 175.5q0 144 86 241t244 97q127 0 185 -65t58 -173q0 -144 -85.5 -242.5t-242.5 -98.5zM280 107q43 0 75.5 21.5t49 56t24.5 70.5t8 73q0 126 -104 126q-44 0 -77 -20.5t-50.5 -54t-25.5 -70.5t-8 -77q0 -125 108 -125zM434 621l-101 -9
l-111 171h161z" />
    <glyph glyph-name="ohungarumlaut.sc" horiz-adv-x="628" 
d="M263 -9q-127 0 -186 65.5t-59 175.5q0 144 86 241t244 97q127 0 185 -65t58 -173q0 -144 -85.5 -242.5t-242.5 -98.5zM280 107q43 0 75.5 21.5t49 56t24.5 70.5t8 73q0 126 -104 126q-44 0 -77 -20.5t-50.5 -54t-25.5 -70.5t-8 -77q0 -125 108 -125zM217 624l67 159h154
l-127 -171zM369 621l109 166h162l-171 -175z" />
    <glyph glyph-name="omacron.sc" horiz-adv-x="628" 
d="M263 -9q-127 0 -186 65.5t-59 175.5q0 144 86 241t244 97q127 0 185 -65t58 -173q0 -144 -85.5 -242.5t-242.5 -98.5zM280 107q43 0 75.5 21.5t49 56t24.5 70.5t8 73q0 126 -104 126q-44 0 -77 -20.5t-50.5 -54t-25.5 -70.5t-8 -77q0 -125 108 -125zM203 643l14 100h311
l-14 -100h-311z" />
    <glyph glyph-name="oslash.sc" horiz-adv-x="628" 
d="M263 -9q-13 0 -35 2l-29 -63h-121l44 92q-104 56 -104 210q0 144 86 241t244 97q12 0 34 -2l27 56h121l-41 -85q102 -57 102 -207q0 -144 -85.5 -242.5t-242.5 -98.5zM172 232q0 -44 15 -74l141 296q-43 -1 -74.5 -22t-48.5 -54.5t-25 -70t-8 -75.5zM437 328q0 42 -14 73
l-140 -294q42 1 73.5 22.5t48.5 56t24.5 70t7.5 72.5z" />
    <glyph glyph-name="oslashacute.sc" horiz-adv-x="628" 
d="M263 -9q-13 0 -35 2l-29 -63h-121l44 92q-104 56 -104 210q0 144 86 241t244 97q12 0 34 -2l27 56h121l-41 -85q102 -57 102 -207q0 -144 -85.5 -242.5t-242.5 -98.5zM172 232q0 -44 15 -74l141 296q-43 -1 -74.5 -22t-48.5 -54.5t-25 -70t-8 -75.5zM437 328q0 42 -14 73
l-140 -294q42 1 73.5 22.5t48.5 56t24.5 70t7.5 72.5zM272 656l109 140h163l-167 -148z" />
    <glyph glyph-name="otilde.sc" horiz-adv-x="628" 
d="M263 -9q-127 0 -186 65.5t-59 175.5q0 144 86 241t244 97q127 0 185 -65t58 -173q0 -144 -85.5 -242.5t-242.5 -98.5zM280 107q43 0 75.5 21.5t49 56t24.5 70.5t8 73q0 126 -104 126q-44 0 -77 -20.5t-50.5 -54t-25.5 -70.5t-8 -77q0 -125 108 -125zM295 770
q35 0 77 -21.5t62 -21.5q17 0 24.5 10t11.5 34l75 -4q-3 -64 -30.5 -101t-79.5 -37q-38 0 -81 22t-61 22t-26.5 -10.5t-9.5 -37.5l-81 3q3 66 35.5 104t83.5 38z" />
    <glyph glyph-name="racute.sc" horiz-adv-x="542" 
d="M385 242l92 -242h-161l-75 206h-54l-31 -206h-148l81 560h242q90 0 132 -40t42 -102q0 -125 -120 -176zM201 314h42q105 0 105 83q0 52 -72 52h-53zM208 621l96 162h163l-160 -171z" />
    <glyph glyph-name="rcaron.sc" horiz-adv-x="542" 
d="M385 242l92 -242h-161l-75 206h-54l-31 -206h-148l81 560h242q90 0 132 -40t42 -102q0 -125 -120 -176zM201 314h42q105 0 105 83q0 52 -72 52h-53zM138 776l102 5l59 -95l85 96l107 -6l-131 -164h-144z" />
    <glyph glyph-name="rcommaaccent.sc" horiz-adv-x="542" 
d="M385 242l92 -242h-161l-75 206h-54l-31 -206h-148l81 560h242q90 0 132 -40t42 -102q0 -125 -120 -176zM201 314h42q105 0 105 83q0 52 -72 52h-53zM87 -257l73 189h140l-112 -203z" />
    <glyph glyph-name="sacute.sc" horiz-adv-x="504" 
d="M478 405l-136 -14q-5 77 -77 77q-37 0 -56.5 -14.5t-19.5 -38.5t18 -37t54 -23q89 -22 120 -39q72 -40 72 -130q0 -96 -71 -145.5t-174 -49.5q-221 0 -225 181l138 19q4 -94 90 -94q92 0 92 61q0 27 -22 40t-75 26q-37 9 -61.5 18t-52 26.5t-41.5 47.5t-14 71
q0 83 68 133t170 50q202 0 203 -165zM200 621l96 162h163l-160 -171z" />
    </font>
</defs>
</svg>
