<?xml version="1.0" standalone="no"?>
<!DOCTYPE svg PUBLIC "-//W3C//DTD SVG 1.1//EN" "http://www.w3.org/Graphics/SVG/1.1/DTD/svg11.dtd" >
<svg>
<metadata>
Created by FontForge 20090622 at Thu Feb  9 20:25:10 2017
 By deploy user
Copyright (c) 2012 by TypeTogether. All rights reserved.
</metadata>
<defs>
<font id="AdelleSansEb" horiz-adv-x="570" >
  <font-face 
    font-family="Adelle Sans Eb"
    font-weight="800"
    font-stretch="normal"
    units-per-em="1000"
    panose-1="2 0 5 3 0 0 0 2 0 4"
    ascent="755"
    descent="-245"
    x-height="525"
    cap-height="724"
    bbox="-166 -294 1310 1096"
    underline-thickness="50"
    underline-position="-50"
    unicode-range="U+000D-U+FB06"
  />
<missing-glyph horiz-adv-x="500" 
 />
    <glyph glyph-name="ij" unicode="ij" horiz-adv-x="557" 
d="M234 525v-525h-187v525h187zM247 682q0 -50 -28 -78t-79 -28q-50 0 -78 28t-28 78t28 77t78 27q51 0 79 -27t28 -77zM303 -223q-92 0 -138 32l11 125q42 -21 86 -21q64 0 64 75v537h187v-552q0 -101 -57 -148.5t-153 -47.5zM526 682q0 -50 -28 -78t-79 -28q-50 0 -78 28
t-28 78t28 77t78 27q51 0 79 -27t28 -77z" />
    <glyph glyph-name="ff" unicode="ff" horiz-adv-x="736" 
d="M385 746l-7 -121q-36 11 -61 11q-32 0 -47.5 -17t-15.5 -59v-35h160v48q0 98 58 146t156 48q83 0 128 -21l-7 -121q-37 13 -68 13q-40 0 -60 -16.5t-20 -66.5v-30h135v-124h-135v-401h-187v401h-160v-401h-187v401h-67v124h67v48q0 99 53 146.5t146 47.5q74 0 119 -21z
" />
    <glyph glyph-name="fi" unicode="fi" horiz-adv-x="647" 
d="M601 525v-525h-187v401h-160v-401h-187v401h-67v124h67v48q0 99 51.5 146.5t143.5 47.5q68 0 106 -18l-7 -121q-32 8 -50 8q-31 0 -44 -16.5t-13 -59.5v-35h347zM614 682q0 -50 -28 -78t-79 -28q-50 0 -78 28t-28 78t28 77t78 27q51 0 79 -27t28 -77z" />
    <glyph glyph-name="fl" unicode="fl" horiz-adv-x="647" 
d="M375 748l-7 -121q-34 9 -53 9q-32 0 -46.5 -17t-14.5 -59v-35h115v-124h-115v-401h-187v401h-67v124h67v48q0 99 53 146.5t146 47.5q69 0 109 -19zM601 755v-755h-187v755h187z" />
    <glyph glyph-name="ffi" unicode="ffi" horiz-adv-x="995" 
d="M948 525v-525h-187v401h-160v-401h-187v401h-160v-401h-187v401h-67v124h67v48q0 99 53 146.5t146 47.5q74 0 119 -21l-7 -121q-36 11 -61 11q-32 0 -47.5 -17t-15.5 -59v-35h160v48q0 99 51.5 146.5t143.5 47.5q68 0 106 -18l-7 -121q-32 8 -50 8q-31 0 -44 -16.5
t-13 -59.5v-35h347zM961 682q0 -50 -28 -78t-79 -28q-50 0 -78 28t-28 78t28 77t78 27q51 0 79 -27t28 -77z" />
    <glyph glyph-name="ffl" unicode="ffl" horiz-adv-x="995" 
d="M722 748l-7 -121q-35 9 -53 9q-32 0 -46.5 -17t-14.5 -59v-35h115v-124h-115v-401h-187v401h-160v-401h-187v401h-67v124h67v48q0 99 53 146.5t146 47.5q74 0 119 -21l-7 -121q-36 11 -61 11q-32 0 -47.5 -17t-15.5 -59v-35h160v48q0 99 53 146.5t146 47.5q69 0 109 -19z
M948 755v-755h-187v755h187z" />
    <glyph glyph-name="f_k" unicode="fk" horiz-adv-x="954" 
d="M375 748l-7 -121q-34 9 -53 9q-32 0 -46.5 -17t-14.5 -59v-35h115v-124h-115v-401h-187v401h-67v124h67v48q0 99 53 146.5t146 47.5q69 0 109 -19zM601 755v-391l143 161h206l-170 -188l183 -337h-207l-121 224l-34 -34v-190h-187v755h187z" />
    <glyph glyph-name="f_b" unicode="fb" horiz-adv-x="969" 
d="M375 748l-7 -121q-34 9 -53 9q-32 0 -46.5 -17t-14.5 -59v-35h115v-124h-115v-401h-187v401h-67v124h67v48q0 99 53 146.5t146 47.5q69 0 109 -19zM571 0h-157v755h184v-279q56 60 146 60q86 0 140.5 -63t54.5 -199q0 -148 -57.5 -217t-159.5 -69q-84 0 -137 62
q-1 0 -2.5 -0.5t-2.5 -0.5zM600 364v-208q33 -25 67 -25q75 0 75 136q0 125 -75 125q-35 0 -67 -28z" />
    <glyph glyph-name="f_h" unicode="fh" horiz-adv-x="956" 
d="M914 360v-360h-187v327q0 65 -53 65q-43 0 -73 -30v-362h-187v755h185v-280q61 61 150 61q85 0 125 -43t40 -133zM375 748l-7 -121q-34 9 -53 9q-32 0 -46.5 -17t-14.5 -59v-35h115v-124h-115v-401h-187v401h-67v124h67v48q0 99 53 146.5t146 47.5q69 0 109 -19z" />
    <glyph glyph-name="f_t" unicode="ft" horiz-adv-x="769" 
d="M375 748l-7 -121q-34 9 -53 9q-32 0 -46.5 -17t-14.5 -59v-35h160v156l187 24v-180h136v-124h-136v-212q0 -32 12.5 -47t41.5 -15q42 0 84 23l24 -120q-25 -16 -71 -29t-98 -13q-90 0 -135 43.5t-45 136.5v233h-160v-401h-187v401h-67v124h67v48q0 99 53 146.5t146 47.5
q69 0 109 -19z" />
    <glyph glyph-name="f_j" unicode="fj" horiz-adv-x="646" 
d="M391 -223q-92 0 -138 32l11 125q42 -21 86 -21q64 0 64 75v413h-160v-401h-187v401h-67v124h67v48q0 99 51.5 146.5t143.5 47.5q68 0 106 -18l-7 -121q-32 8 -50 8q-31 0 -44 -16.5t-13 -59.5v-35h347v-552q0 -101 -57 -148.5t-153 -47.5zM614 682q0 -50 -28 -78t-79 -28
q-50 0 -78 28t-28 78t28 77t78 27q51 0 79 -27t28 -77z" />
    <glyph glyph-name="f_f_j" unicode="ffj" horiz-adv-x="994" 
d="M738 -223q-92 0 -138 32l11 125q42 -21 86 -21q64 0 64 75v413h-160v-401h-187v401h-160v-401h-187v401h-67v124h67v48q0 99 53 146.5t146 47.5q74 0 119 -21l-7 -121q-36 11 -61 11q-32 0 -47.5 -17t-15.5 -59v-35h160v48q0 99 51.5 146.5t143.5 47.5q68 0 106 -18
l-7 -121q-32 8 -50 8q-31 0 -44 -16.5t-13 -59.5v-35h347v-552q0 -101 -57 -148.5t-153 -47.5zM961 682q0 -50 -28 -78t-79 -28q-50 0 -78 28t-28 78t28 77t78 27q51 0 79 -27t28 -77z" />
    <glyph glyph-name="f_f_k" unicode="ffk" horiz-adv-x="1302" 
d="M722 748l-7 -121q-35 9 -53 9q-32 0 -46.5 -17t-14.5 -59v-35h115v-124h-115v-401h-187v401h-160v-401h-187v401h-67v124h67v48q0 99 53 146.5t146 47.5q74 0 119 -21l-7 -121q-36 11 -61 11q-32 0 -47.5 -17t-15.5 -59v-35h160v48q0 99 53 146.5t146 47.5q69 0 109 -19z
M948 755v-391l143 161h206l-170 -188l183 -337h-207l-121 224l-34 -34v-190h-187v755h187z" />
    <glyph glyph-name="f_f_b" unicode="ffb" horiz-adv-x="1318" 
d="M722 748l-7 -121q-35 9 -53 9q-32 0 -46.5 -17t-14.5 -59v-35h115v-124h-115v-401h-187v401h-160v-401h-187v401h-67v124h67v48q0 99 53 146.5t146 47.5q74 0 119 -21l-7 -121q-36 11 -61 11q-32 0 -47.5 -17t-15.5 -59v-35h160v48q0 99 53 146.5t146 47.5q69 0 109 -19z
M918 0h-157v755h184v-279q56 60 146 60q86 0 140.5 -63t54.5 -199q0 -148 -57.5 -217t-159.5 -69q-84 0 -137 62q-1 0 -2.5 -0.5t-2.5 -0.5zM947 364v-208q33 -25 67 -25q75 0 75 136q0 125 -75 125q-35 0 -67 -28z" />
    <glyph glyph-name="f_f_h" unicode="ffh" horiz-adv-x="1304" 
d="M722 748l-7 -121q-35 9 -53 9q-32 0 -46.5 -17t-14.5 -59v-35h115v-124h-115v-401h-187v401h-160v-401h-187v401h-67v124h67v48q0 99 53 146.5t146 47.5q74 0 119 -21l-7 -121q-36 11 -61 11q-32 0 -47.5 -17t-15.5 -59v-35h160v48q0 99 53 146.5t146 47.5q69 0 109 -19z
M1261 360v-360h-187v327q0 65 -53 65q-43 0 -73 -30v-362h-187v755h185v-280q61 61 150 61q85 0 125 -43t40 -133z" />
    <glyph glyph-name="f_f_t" unicode="fft" horiz-adv-x="1115" 
d="M722 748l-7 -121q-35 9 -53 9q-32 0 -46.5 -17t-14.5 -59v-35h160v156l187 24v-180h136v-124h-136v-212q0 -32 12.5 -47t41.5 -15q42 0 84 23l24 -120q-25 -16 -71 -29t-98 -13q-90 0 -135 43.5t-45 136.5v233h-160v-401h-187v401h-160v-401h-187v401h-67v124h67v48
q0 99 53 146.5t146 47.5q74 0 119 -21l-7 -121q-36 11 -61 11q-32 0 -47.5 -17t-15.5 -59v-35h160v48q0 99 53 146.5t146 47.5q69 0 109 -19z" />
    <glyph glyph-name="f_iacute" unicode="f&#xed;" horiz-adv-x="647" 
d="M601 525v-525h-187v401h-160v-401h-187v401h-67v124h67v48q0 99 53 146.5t146 47.5q54 0 100 -14l-6 -127q-32 8 -51 8q-27 0 -41 -16.5t-14 -57.5v-35h347zM692 741l-132 -169l-122 7l61 162h193z" />
    <glyph glyph-name="t_t" unicode="tt" horiz-adv-x="795" 
d="M766 150l24 -120q-25 -16 -71 -29t-98 -13q-90 0 -135 43.5t-45 136.5v233h-177v-212q0 -34 10 -48.5t38 -14.5q27 0 60 15l26 -122q-64 -31 -141 -31q-90 0 -135 43.5t-45 136.5v233h-77v124h77v156l187 24v-180h177v156l187 24v-180h136v-124h-136v-212q0 -32 12.5 -47
t41.5 -15q42 0 84 23z" />
    <glyph glyph-name=".notdef" horiz-adv-x="500" 
 />
    <glyph glyph-name=".null" horiz-adv-x="0" 
 />
    <glyph glyph-name=".null" horiz-adv-x="0" 
 />
    <glyph glyph-name="nonmarkingreturn" horiz-adv-x="333" 
 />
    <glyph glyph-name="CR" unicode="&#xd;" horiz-adv-x="500" 
 />
    <glyph glyph-name="space" unicode=" " horiz-adv-x="150" 
 />
    <glyph glyph-name="exclam" unicode="!" horiz-adv-x="335" 
d="M249 202h-161l-20 522h201zM270 76q0 -88 -102 -88q-103 0 -103 88q0 89 103 89q102 0 102 -89z" />
    <glyph glyph-name="quotedbl" unicode="&#x22;" horiz-adv-x="435" 
d="M405 465h-162v259h162v-259zM192 465h-162v259h162v-259z" />
    <glyph glyph-name="numbersign" unicode="#" horiz-adv-x="607" 
d="M408 0h-123l21 136h-66l-21 -136h-123l21 136h-90l25 123h84l14 92h-91l25 123h84l20 137h123l-20 -137h66l20 137h123l-20 -137h93l-24 -123h-87l-14 -92h93l-24 -123h-88zM325 259l14 92h-66l-14 -92h66z" />
    <glyph glyph-name="dollar" unicode="$" horiz-adv-x="577" 
d="M286 578q-34 0 -53.5 -15t-19.5 -41q0 -20 9 -35t31 -26.5t38.5 -17t50.5 -15.5q37 -11 58.5 -18t53.5 -24.5t49 -37.5t30.5 -53.5t13.5 -76.5q0 -95 -56 -151t-145 -72v-78h-158v78q-161 29 -178 204l160 24q7 -53 30 -78t79 -25q92 0 92 65q0 17 -8 31t-17.5 22t-32 17
t-34.5 13t-43 12q-37 10 -58.5 18t-52.5 25t-48 37t-30 54t-13 77q0 78 45.5 131t119.5 74v96h158v-88q167 -24 173 -192l-165 -18q-5 45 -22 64.5t-57 19.5z" />
    <glyph glyph-name="percent" unicode="%" horiz-adv-x="849" 
d="M203 374q-173 0 -173 176q0 187 181 187q172 0 172 -174q0 -89 -45.5 -139t-134.5 -50zM283 -12h-162l438 736h161zM208 469q21 0 31 20.5t10 69.5q0 45 -10 63.5t-31 18.5q-42 0 -42 -83q0 -89 42 -89zM639 -12q-173 0 -173 176q0 187 181 187q172 0 172 -174
q0 -89 -45.5 -139t-134.5 -50zM644 83q21 0 31 20.5t10 69.5q0 45 -10 63.5t-31 18.5q-42 0 -42 -83q0 -89 42 -89z" />
    <glyph glyph-name="ampersand" unicode="&#x26;" horiz-adv-x="790" 
d="M581 556q0 -119 -166 -187q48 -61 109 -131q18 46 16 128h165q5 -119 -61 -212q31 -14 62 -14q18 0 33 4l16 -138q-43 -13 -89 -13q-84 0 -159 45q-67 -50 -204 -50q-130 0 -199 59.5t-69 150.5q0 144 152 201q-32 53 -32 110q0 26 6 50q15 57 61 93t113 47q24 4 55 4
q83 0 137 -36t54 -111zM343 113q27 0 50 8q-69 58 -144 169q-22 -31 -22 -72q0 -16 2 -24q7 -37 36 -59t78 -22zM336 541q0 -31 25 -76l8 4q59 31 59 77q0 44 -44 44q-20 0 -34 -13t-14 -36z" />
    <glyph glyph-name="quotesingle" unicode="'" horiz-adv-x="222" 
d="M192 465h-162v259h162v-259z" />
    <glyph glyph-name="parenleft" unicode="(" horiz-adv-x="400" 
d="M391 -153h-197q-149 205 -149 433q0 126 42 232.5t120 211.5h193q-74 -105 -114.5 -206.5t-40.5 -233.5q0 -126 38.5 -226t107.5 -211z" />
    <glyph glyph-name="parenright" unicode=")" horiz-adv-x="400" 
d="M9 724h197q149 -205 149 -433q0 -126 -42 -232.5t-120 -211.5h-193q74 105 114.5 206.5t40.5 233.5q0 126 -38.5 226t-107.5 211z" />
    <glyph glyph-name="asterisk" unicode="*" horiz-adv-x="480" 
d="M279 755l15 -117l108 28l26 -87l-99 -51l67 -102l-71 -54l-92 87l-90 -90l-72 55l66 104l-101 50l27 87l111 -27l15 117h90z" />
    <glyph glyph-name="plus" unicode="+" 
d="M355 117h-142v138h-125v138h125v134h142v-134h126v-138h-126v-138z" />
    <glyph glyph-name="comma" unicode="," horiz-adv-x="279" 
d="M0 -128l67 274h192l-107 -287z" />
    <glyph glyph-name="hyphen" unicode="-" horiz-adv-x="311" 
d="M291 215h-271v150h271v-150z" />
    <glyph glyph-name="period" unicode="." horiz-adv-x="286" 
d="M251 87q0 -99 -107 -99q-109 0 -109 99q0 100 109 100q107 0 107 -100z" />
    <glyph glyph-name="slash" unicode="/" horiz-adv-x="481" 
d="M181 -92h-171l281 847h170z" />
    <glyph glyph-name="zero" unicode="0" horiz-adv-x="599" 
d="M296 -12q-147 0 -209 91t-62 287q0 192 66 281.5t215 89.5q148 0 208 -88t60 -278q0 -199 -64.5 -291t-213.5 -92zM300 119q42 0 58.5 53.5t16.5 193.5q0 136 -15 186.5t-57 50.5q-43 0 -60.5 -51.5t-17.5 -186.5q0 -139 16 -192.5t59 -53.5z" />
    <glyph glyph-name="one" unicode="1" horiz-adv-x="459" 
d="M374 0h-187v521q-23 -12 -74 -20.5t-80 -8.5l-7 149q146 12 214 83h134v-724z" />
    <glyph glyph-name="two" unicode="2" horiz-adv-x="554" 
d="M283 737q115 0 172.5 -50t57.5 -140q0 -73 -34 -126.5t-133 -160.5l-26 -28l-68 -71v-5h272v-156h-487v154l146 164q57 64 78.5 90t43 64.5t21.5 69.5q0 59 -61 59q-71 0 -83 -98l-154 27q11 105 81.5 156t173.5 51z" />
    <glyph glyph-name="three" unicode="3" horiz-adv-x="563" 
d="M12 180l162 30q10 -88 87 -88q36 0 58.5 24.5t22.5 69.5q0 48 -23 69.5t-73 21.5h-75v125h47q55 0 84.5 28t29.5 75q0 69 -63 69q-68 0 -83 -83l-157 30q35 186 256 186q110 0 170 -46t60 -133q0 -61 -38 -104.5t-94 -64.5v-4q149 -37 149 -179q0 -101 -75.5 -159.5
t-194.5 -58.5q-63 0 -113 16t-89 61t-48 115z" />
    <glyph glyph-name="four" unicode="4" horiz-adv-x="623" 
d="M529 0h-181v153h-318v128l273 443h226v-426h79v-145h-79v-153zM187 298h161v267z" />
    <glyph glyph-name="five" unicode="5" horiz-adv-x="571" 
d="M60 329l26 395h402v-153h-271l-16 -157q55 48 140 48q87 0 138 -55.5t51 -165.5q0 -118 -77.5 -185.5t-196.5 -67.5q-99 0 -165 45.5t-79 149.5l160 28q9 -86 87 -86q39 0 63.5 28t24.5 80q0 93 -75 93q-49 0 -92 -45z" />
    <glyph glyph-name="six" unicode="6" horiz-adv-x="585" 
d="M556 564l-163 -41q-5 45 -22.5 65t-49.5 20q-100 0 -103 -207q58 44 143 44q87 0 143 -51.5t56 -155.5q0 -126 -73 -188t-188 -62q-75 0 -127.5 26.5t-81 77t-40.5 112t-12 143.5q0 56 7.5 107t28.5 104t53 91.5t85.5 63t122.5 24.5q87 0 143.5 -38t77.5 -135zM227 286
q0 -78 16 -120.5t60 -42.5q67 0 67 102q0 47 -15 68.5t-52 21.5q-38 0 -76 -29z" />
    <glyph glyph-name="seven" unicode="7" horiz-adv-x="542" 
d="M250 -1h-197l268 572h-293v153h487v-137z" />
    <glyph glyph-name="eight" unicode="8" horiz-adv-x="586" 
d="M437 397q69 -34 102 -74.5t33 -113.5q0 -92 -79 -156.5t-212 -64.5q-130 0 -199 53t-69 139q0 130 139 182q-110 53 -110 172q0 96 74.5 149.5t188.5 53.5q118 0 181 -45t63 -125q0 -100 -112 -170zM251 301q-58 -43 -58 -101q0 -38 24 -59.5t68 -21.5q38 0 62.5 20.5
t24.5 55.5q0 38 -29.5 60.5t-91.5 45.5zM328 454q21 15 34 41t13 52q0 35 -19.5 51t-48.5 16q-33 0 -51.5 -17t-18.5 -41q0 -31 20.5 -54t70.5 -48z" />
    <glyph glyph-name="nine" unicode="9" horiz-adv-x="584" 
d="M22 167l164 47q14 -92 83 -92q46 0 73 52t28 152q-59 -45 -144 -45q-87 0 -143.5 52.5t-56.5 159.5q0 122 76 183t192 61q72 0 123 -26.5t79 -76.5t40.5 -112.5t12.5 -143.5q0 -56 -6.5 -106t-25.5 -104t-49.5 -92t-83 -63t-122.5 -25q-97 0 -159.5 40t-80.5 139z
M360 440q-2 43 -5 68.5t-11 48.5t-22.5 33t-37.5 10q-68 0 -68 -95t69 -95q36 0 75 30z" />
    <glyph glyph-name="colon" unicode=":" horiz-adv-x="306" 
d="M261 408q0 -99 -107 -99q-109 0 -109 99q0 100 109 100q107 0 107 -100zM261 87q0 -99 -107 -99q-109 0 -109 99q0 100 109 100q107 0 107 -100z" />
    <glyph glyph-name="semicolon" unicode=";" horiz-adv-x="304" 
d="M5 -128l67 274h192l-107 -287zM284 408q0 -99 -107 -99q-109 0 -109 99q0 100 109 100q107 0 107 -100z" />
    <glyph glyph-name="less" unicode="&#x3c;" 
d="M458 78l-397 133v164l397 134v-146l-239 -70l239 -73v-142z" />
    <glyph glyph-name="equal" unicode="=" 
d="M481 112h-393v138h393v-138zM481 313h-393v138h393v-138z" />
    <glyph glyph-name="greater" unicode="&#x3e;" 
d="M498 211l-397 -133v143l239 72l-239 71v145l397 -134v-164z" />
    <glyph glyph-name="question" unicode="?" 
d="M346 202h-187v185q192 15 192 135q0 73 -68 73q-39 0 -59 -25t-26 -74l-183 27q12 106 85.5 160t194.5 54q51 0 94.5 -11.5t80.5 -36t58.5 -69t21.5 -105.5q0 -183 -204 -236v-77zM353 76q0 -88 -102 -88q-103 0 -103 88q0 89 103 89q102 0 102 -89z" />
    <glyph glyph-name="at" unicode="@" horiz-adv-x="862" 
d="M611 -67l27 -100q-77 -35 -205 -35q-84 0 -155 23.5t-125.5 69.5t-85.5 120.5t-31 170.5q0 179 116.5 292.5t306.5 113.5q166 0 266.5 -92.5t100.5 -246.5q0 -130 -55 -195.5t-146 -65.5q-46 0 -80 15.5t-47 39.5q-40 -51 -105 -51q-66 0 -105.5 51t-39.5 136
q0 95 44.5 156.5t119.5 61.5q53 0 82 -34l10 28h93v-267q0 -41 38 -41q72 0 72 162q0 107 -61 172.5t-194 65.5q-81 0 -141 -27t-91.5 -72t-46.5 -94t-15 -102q0 -146 76.5 -216t211.5 -70q80 0 165 31zM486 111v181q-15 18 -46 18q-73 0 -73 -114q0 -113 61 -113
q27 0 58 28z" />
    <glyph glyph-name="A" unicode="A" horiz-adv-x="722" 
d="M234 724h235l258 -724h-209l-53 156h-219l-47 -156h-199zM427 302l-74 246h-5l-74 -246h153z" />
    <glyph glyph-name="B" unicode="B" horiz-adv-x="642" 
d="M346 0h-286v724h308q221 0 221 -177q0 -66 -37 -108t-95 -60v-3q165 -19 165 -175q0 -105 -74.5 -153t-201.5 -48zM252 133h53q58 0 85.5 17.5t27.5 66.5q0 50 -26 66t-75 16h-65v-166zM252 431h29q58 0 90 17t32 67q0 21 -6.5 35.5t-15 22t-24 11.5t-27 4.5t-30.5 0.5
h-48v-158z" />
    <glyph glyph-name="C" unicode="C" horiz-adv-x="697" 
d="M374 -12q-344 0 -344 368q0 173 91.5 277t265.5 104q133 0 211.5 -64.5t83.5 -200.5l-174 -17q-4 73 -34 104t-90 31q-155 0 -155 -226q0 -120 37.5 -174t115.5 -54q61 0 89 30.5t40 86.5l170 -27q-8 -64 -38 -112t-74.5 -74.5t-93 -39t-101.5 -12.5z" />
    <glyph glyph-name="D" unicode="D" horiz-adv-x="722" 
d="M316 0h-256v724h273q183 0 271 -91.5t88 -259.5q0 -173 -94 -273t-282 -100zM252 143h53q108 0 150 56.5t42 167.5q0 118 -41 165.5t-138 47.5h-66v-437z" />
    <glyph glyph-name="E" unicode="E" horiz-adv-x="588" 
d="M252 285v-134h311v-151h-503v724h481v-150h-289v-142h273v-147h-273z" />
    <glyph glyph-name="F" unicode="F" horiz-adv-x="557" 
d="M252 273v-273h-192v724h477v-150h-285v-154h261v-147h-261z" />
    <glyph glyph-name="G" unicode="G" horiz-adv-x="740" 
d="M556 0l-19 84q-24 -47 -79.5 -71.5t-121.5 -24.5q-156 0 -231 97.5t-75 263.5q0 178 91 283t268 105q278 0 296 -255l-178 -17q-2 25 -7.5 44t-17.5 39t-36.5 31t-59.5 11q-156 0 -156 -224q0 -118 33 -175t120 -57q58 0 89.5 26.5t31.5 73.5v18h-96v126h287v-378h-139z
" />
    <glyph glyph-name="H" unicode="H" horiz-adv-x="736" 
d="M676 724v-724h-192v281h-232v-281h-192v724h192v-284h232v284h192z" />
    <glyph glyph-name="I" unicode="I" horiz-adv-x="312" 
d="M252 724v-724h-192v724h192z" />
    <glyph glyph-name="J" unicode="J" horiz-adv-x="548" 
d="M301 204v520h192v-511q0 -107 -64.5 -166t-180.5 -59q-51 0 -91 10t-74 33.5t-53.5 67t-21.5 106.5l185 27q2 -35 5.5 -53t16 -32t35.5 -14q27 0 39 17t12 54z" />
    <glyph glyph-name="K" unicode="K" horiz-adv-x="690" 
d="M251 724v-294l254 294h200l-252 -296l237 -428h-223l-152 283l-64 -71v-212h-191v724h191z" />
    <glyph glyph-name="L" unicode="L" horiz-adv-x="578" 
d="M252 724v-568h301v-156h-493v724h192z" />
    <glyph glyph-name="M" unicode="M" horiz-adv-x="926" 
d="M866 724v-724h-178v538h-6l-142 -538h-165l-134 540h-6v-540h-175v724h284l117 -484h7l115 484h283z" />
    <glyph glyph-name="N" unicode="N" horiz-adv-x="745" 
d="M685 0h-217l-234 462v-462h-174v724h223l230 -467v467h172v-724z" />
    <glyph glyph-name="O" unicode="O" horiz-adv-x="761" 
d="M375 -12q-178 0 -261.5 99t-83.5 270q0 169 93 274.5t269 105.5q89 0 155.5 -28.5t106 -79.5t58.5 -115.5t19 -142.5q0 -181 -89 -282t-267 -101zM382 138q73 0 112.5 51.5t39.5 172.5q0 119 -36.5 172t-109.5 53q-160 0 -160 -226q0 -121 38 -172t116 -51z" />
    <glyph glyph-name="P" unicode="P" horiz-adv-x="624" 
d="M251 224v-224h-191v724h298q67 0 115.5 -19.5t75 -53t38.5 -72.5t12 -85q0 -270 -288 -270h-60zM251 366h37q54 0 84 25t30 88q0 59 -28.5 80t-74.5 21h-48v-214z" />
    <glyph glyph-name="Q" unicode="Q" horiz-adv-x="761" 
d="M375 -12q-173 0 -259 100t-86 269t93 274.5t269 105.5q89 0 155.5 -28.5t106 -79.5t58.5 -115.5t19 -142.5q0 -164 -76 -259l78 -83l-105 -93l-85 91q-61 -39 -168 -39zM382 129q37 0 61 8l-108 115l102 94l69 -79l23 -45q12 59 12 140q0 225 -153 225q-160 0 -160 -226
q0 -232 154 -232z" />
    <glyph glyph-name="R" unicode="R" horiz-adv-x="652" 
d="M490 313l157 -313h-207l-129 267h-60v-267h-191v724h303q126 0 185 -58t59 -149q0 -143 -117 -204zM251 405h46q112 0 112 94q0 81 -97 81h-61v-175z" />
    <glyph glyph-name="S" unicode="S" horiz-adv-x="609" 
d="M300 600q-86 0 -86 -62q0 -30 27.5 -50t68.5 -30t89 -26t89 -36.5t68.5 -64t27.5 -105.5q0 -61 -24 -108.5t-65 -75t-92 -41t-109 -13.5q-280 0 -290 234l171 24q9 -59 34 -89.5t90 -30.5q100 0 100 74q0 27 -20.5 44.5t-53 27.5t-72 19.5t-79 24t-72 36.5t-53 62
t-20.5 96q0 107 78.5 167t197.5 60q43 0 77.5 -4.5t70.5 -18.5t60.5 -37t41.5 -62t19 -91l-174 -19q-2 51 -25.5 73t-74.5 22z" />
    <glyph glyph-name="T" unicode="T" horiz-adv-x="620" 
d="M407 0h-192v569h-210v155h610v-155h-208v-569z" />
    <glyph glyph-name="U" unicode="U" horiz-adv-x="704" 
d="M354 136q67 0 87.5 34.5t20.5 122.5v431h191l1 -454q0 -144 -82 -213t-224 -69q-156 0 -227 68.5t-71 218.5v449h192v-427q0 -87 21 -124t91 -37z" />
    <glyph glyph-name="V" unicode="V" horiz-adv-x="687" 
d="M476 0h-258l-228 724h217l142 -540h8l145 540h195z" />
    <glyph glyph-name="W" unicode="W" horiz-adv-x="1010" 
d="M850 0h-245l-95 449h-5l-92 -449h-256l-154 724h200l89 -528h5l111 528h202l117 -528h7l79 528h193z" />
    <glyph glyph-name="X" unicode="X" horiz-adv-x="667" 
d="M669 724l-224 -361l232 -363h-222l-133 212l-126 -212h-206l231 364l-220 360h213l129 -223l129 223h197z" />
    <glyph glyph-name="Y" unicode="Y" horiz-adv-x="630" 
d="M419 268q0 -44 0.5 -134t0.5 -134h-193v267l-252 457h209l139 -288h6l133 288h193z" />
    <glyph glyph-name="Z" unicode="Z" horiz-adv-x="594" 
d="M559 590l-307 -440h320v-150h-549v130l316 444h-309v150h529v-134z" />
    <glyph glyph-name="bracketleft" unicode="[" horiz-adv-x="356" 
d="M321 -143h-261v867h261v-106h-79v-656h79v-105z" />
    <glyph glyph-name="backslash" unicode="\" horiz-adv-x="486" 
d="M476 -92h-171l-280 847h170z" />
    <glyph glyph-name="bracketright" unicode="]" horiz-adv-x="356" 
d="M296 -143h-261v105h79v656h-79v106h261v-867z" />
    <glyph glyph-name="asciicircum" unicode="^" horiz-adv-x="750" 
d="M670 299h-177l-118 213l-115 -213h-175l197 365h189z" />
    <glyph glyph-name="underscore" unicode="_" horiz-adv-x="500" 
d="M500 -181h-500v130h500v-130z" />
    <glyph glyph-name="grave" unicode="`" horiz-adv-x="500" 
d="M226 572l-132 169h193l61 -162z" />
    <glyph glyph-name="a" unicode="a" horiz-adv-x="566" 
d="M495 348v-205q0 -22 6 -31t25 -9q12 0 31 6l4 -99q-16 -8 -50.5 -15t-60.5 -7q-103 0 -125 74q-52 -74 -148 -74q-46 0 -79 14t-49 36.5t-22.5 44.5t-6.5 45q0 85 58.5 125.5t180.5 51.5l54 3v14q0 25 -1.5 38t-6.5 26.5t-17 19t-32 5.5q-29 0 -42.5 -15t-21.5 -51
l-154 27q13 79 67.5 121.5t165.5 42.5q112 0 168 -45.5t56 -142.5zM314 135v78h-7q-54 -2 -76.5 -15t-22.5 -41q0 -43 45 -43q35 0 61 21z" />
    <glyph glyph-name="b" unicode="b" horiz-adv-x="599" 
d="M202 0h-157v755h187v-276q56 57 143 57q86 0 140.5 -63t54.5 -199q0 -148 -57.5 -217t-159.5 -69q-84 0 -137 62l-5 -1zM232 364v-208q33 -25 66 -25q75 0 75 136q0 125 -75 125q-34 0 -66 -28z" />
    <glyph glyph-name="c" unicode="c" horiz-adv-x="548" 
d="M285 -12q-128 0 -194 72t-66 192q0 135 72 209.5t204 74.5q102 0 162 -51.5t69 -149.5l-164 -24q-5 49 -18.5 71.5t-49.5 22.5q-39 0 -59 -29t-20 -106q0 -78 18.5 -112t61.5 -34q37 0 56.5 22t25.5 69l150 -28q-14 -100 -79 -149.5t-169 -49.5z" />
    <glyph glyph-name="d" unicode="d" horiz-adv-x="599" 
d="M554 755v-755h-155l-11 50l-4 1q-49 -63 -144 -63q-99 0 -155 64t-56 199q0 76 19.5 133.5t52.5 89t70.5 47t79.5 15.5q74 0 116 -42v261h187zM367 153v220q-25 21 -55 21q-44 0 -65 -37.5t-21 -98.5q0 -128 82 -128q33 0 59 23z" />
    <glyph glyph-name="e" unicode="e" horiz-adv-x="548" 
d="M290 -12q-72 0 -125 22t-82.5 61.5t-43.5 86.5t-14 103q0 135 73.5 205t188.5 70q121 0 178.5 -65.5t57.5 -183.5q0 -40 -2 -57h-299q0 -58 18.5 -83t60.5 -25q61 0 73 64l148 -36q-14 -74 -73 -118t-159 -44zM224 327h106q1 49 -12.5 67.5t-38.5 18.5q-56 0 -55 -86z
" />
    <glyph glyph-name="f" unicode="f" horiz-adv-x="389" 
d="M409 746l-7 -121q-37 13 -68 13q-40 0 -60 -16.5t-20 -66.5v-30h135v-124h-135v-401h-187v401h-67v124h67v48q0 98 58 146t156 48q83 0 128 -21z" />
    <glyph glyph-name="g" unicode="g" horiz-adv-x="565" 
d="M277 536q83 0 131 -24q35 86 101 86q18 0 35 -6v-114q-37 1 -73 -8q47 -53 47 -122q0 -87 -64.5 -137.5t-173.5 -50.5q-50 0 -94 10q-10 -12 -10 -23q0 -23 35 -24l160 -8q89 -5 135 -41.5t46 -113.5q0 -94 -73.5 -139.5t-204.5 -45.5q-139 0 -201 29.5t-62 88.5
q0 34 25.5 58t73.5 28v2q-83 27 -83 96q0 38 22 66t62 58q-74 47 -74 140q0 85 63 140t177 55zM354 348q0 67 -69 67q-74 0 -74 -66q0 -67 71 -67q32 0 52 17.5t20 48.5zM375 -78q0 17 -11.5 25t-42.5 9l-129 6q-18 -15 -18 -34q0 -44 113 -44q88 0 88 38z" />
    <glyph glyph-name="h" unicode="h" horiz-adv-x="584" 
d="M543 360v-360h-187v327q0 65 -53 65q-43 0 -73 -30v-362h-187v755h185v-280q61 61 150 61q85 0 125 -43t40 -133z" />
    <glyph glyph-name="i" unicode="i" horiz-adv-x="279" 
d="M234 525v-525h-187v525h187zM247 682q0 -50 -28 -78t-79 -28q-50 0 -78 28t-28 78t28 77t78 27q51 0 79 -27t28 -77z" />
    <glyph glyph-name="j" unicode="j" horiz-adv-x="278" 
d="M24 -223q-92 0 -138 32l11 125q42 -21 86 -21q64 0 64 75v537h187v-552q0 -101 -57 -148.5t-153 -47.5zM247 682q0 -50 -28 -78t-79 -28q-50 0 -78 28t-28 78t28 77t78 27q51 0 79 -27t28 -77z" />
    <glyph glyph-name="k" unicode="k" horiz-adv-x="584" 
d="M232 755v-391l143 161h206l-170 -188l183 -337h-207l-121 224l-34 -34v-190h-187v755h187z" />
    <glyph glyph-name="l" unicode="l" horiz-adv-x="279" 
d="M234 755v-755h-187v755h187z" />
    <glyph glyph-name="m" unicode="m" horiz-adv-x="847" 
d="M230 368v-368h-187v525h158l8 -47q64 58 147 58q99 0 136 -65q51 65 152 65q78 0 120 -43t42 -129v-364h-187v334q0 58 -46 58q-36 0 -55 -25v-367h-187v334q0 58 -44 58q-35 0 -57 -24z" />
    <glyph glyph-name="n" unicode="n" horiz-adv-x="584" 
d="M543 360v-360h-187v327q0 65 -53 65q-43 0 -73 -30v-362h-187v525h166l9 -51q60 62 156 62q87 0 128 -43t41 -133z" />
    <glyph glyph-name="o" unicode="o" horiz-adv-x="593" 
d="M289 -12q-264 0 -264 272q0 130 69.5 203t208.5 73q138 0 201.5 -71t63.5 -195q0 -133 -68.5 -207.5t-210.5 -74.5zM297 114q40 0 58 33t18 118q0 82 -16 112t-57 30q-42 0 -60.5 -30.5t-18.5 -112.5q0 -86 16.5 -118t59.5 -32z" />
    <glyph glyph-name="p" unicode="p" horiz-adv-x="598" 
d="M45 -212v737h158l11 -54q58 65 155 65q91 0 145.5 -62.5t54.5 -199.5q0 -148 -58 -217t-152 -69q-81 0 -129 45v-245h-185zM230 365v-208q9 -9 29 -17.5t37 -8.5q76 0 76 136q0 67 -18 96.5t-55 29.5q-34 0 -69 -28z" />
    <glyph glyph-name="q" unicode="q" horiz-adv-x="599" 
d="M554 525v-737h-186v249q-51 -49 -132 -49q-98 0 -152.5 64.5t-54.5 200.5q0 75 19.5 132t53 88.5t71 47t79.5 15.5q90 0 133 -63l18 52h151zM368 153v220q-24 21 -59 21q-42 0 -62.5 -36t-20.5 -96q0 -131 82 -131q32 0 60 22z" />
    <glyph glyph-name="r" unicode="r" horiz-adv-x="411" 
d="M406 534v-173q-108 6 -176 -44v-317h-187v525h160l14 -87q58 98 160 98q9 0 29 -2z" />
    <glyph glyph-name="s" unicode="s" horiz-adv-x="510" 
d="M260 536q173 0 221 -133l-144 -49q-23 64 -78 64q-54 0 -54 -35q0 -12 6.5 -20t24.5 -13.5t28.5 -7.5t40.5 -7q40 -6 65 -13t56.5 -23.5t47.5 -47.5t16 -76q0 -93 -70.5 -140t-176.5 -47q-199 0 -232 130l148 56q23 -68 90 -68q62 0 62 36q0 12 -6.5 20t-22 13.5t-28 8.5
t-37.5 8q-34 6 -52.5 10.5t-48.5 16.5t-46 28t-29 44.5t-13 66.5q0 86 66 132t166 46z" />
    <glyph glyph-name="t" unicode="t" horiz-adv-x="431" 
d="M402 150l24 -120q-25 -16 -71 -29t-98 -13q-90 0 -135 43.5t-45 136.5v233h-77v124h77v156l187 24v-180h136v-124h-136v-212q0 -32 12.5 -47t41.5 -15q42 0 84 23z" />
    <glyph glyph-name="u" unicode="u" horiz-adv-x="576" 
d="M41 161v364h187v-327q0 -35 11.5 -50t37.5 -15q39 0 69 30v362h187v-525h-160l-14 60q-51 -72 -155 -72q-163 0 -163 173z" />
    <glyph glyph-name="v" unicode="v" horiz-adv-x="555" 
d="M386 0h-219l-177 525h202l87 -352h5l88 352h193z" />
    <glyph glyph-name="w" unicode="w" horiz-adv-x="846" 
d="M361 0h-222l-149 525h186l78 -339h3l79 339h180l81 -337h4l72 337h183l-153 -525h-208l-71 306h-3z" />
    <glyph glyph-name="x" unicode="x" horiz-adv-x="555" 
d="M552 525l-167 -261l170 -264h-199l-87 141l-87 -141h-176l168 259l-174 266h202l86 -149l86 149h178z" />
    <glyph glyph-name="y" unicode="y" horiz-adv-x="551" 
d="M191 -14l-202 539h201l89 -341h4l86 341h193l-199 -564q-36 -102 -80.5 -143t-131.5 -41q-77 0 -123 23l12 129q51 -16 77 -16q31 0 44 15.5t30 57.5z" />
    <glyph glyph-name="z" unicode="z" horiz-adv-x="470" 
d="M436 401l-203 -262h219v-139h-427v122l211 273h-210v130h410v-124z" />
    <glyph glyph-name="braceleft" unicode="{" horiz-adv-x="376" 
d="M341 -37v-108h-89q-166 0 -166 138q0 26 7.5 85.5t7.5 100.5q0 65 -57 65h-24v104h24q57 0 57 65q0 41 -7.5 100.5t-7.5 85.5q0 138 166 138h89v-107h-11q-25 0 -34.5 -11t-9.5 -33q0 -30 10 -93.5t10 -92.5q0 -44 -21 -66t-69 -39q48 -17 69 -38.5t21 -64.5
q0 -29 -9.5 -92t-9.5 -93q0 -22 9 -33t34 -11h11z" />
    <glyph glyph-name="bar" unicode="|" horiz-adv-x="280" 
d="M225 -143h-170v898h170v-898z" />
    <glyph glyph-name="braceright" unicode="}" horiz-adv-x="376" 
d="M35 629v108h89q166 0 166 -138q0 -26 -7.5 -85.5t-7.5 -100.5q0 -65 57 -65h24v-104h-24q-57 0 -57 -65q0 -41 7.5 -100.5t7.5 -85.5q0 -138 -166 -138h-89v107h11q25 0 34.5 11t9.5 33q0 30 -10 93.5t-10 92.5q0 44 21 66t69 39q-48 17 -69 38.5t-21 64.5q0 29 9.5 92
t9.5 93q0 22 -9 33t-34 11h-11z" />
    <glyph glyph-name="asciitilde" unicode="~" horiz-adv-x="650" 
d="M199 465q36 0 132 -21t116 -21q15 0 20 9t5 31l98 -5q8 -68 -17 -113.5t-88 -45.5q-40 0 -137 21.5t-114 21.5t-23 -9.5t-2 -34.5l-107 4q-9 72 20.5 117.5t96.5 45.5z" />
    <glyph glyph-name="uni00A0" unicode="&#xa0;" horiz-adv-x="150" 
 />
    <glyph glyph-name="exclamdown" unicode="&#xa1;" horiz-adv-x="335" 
d="M86 322h161l20 -522h-201zM65 448q0 88 102 88q103 0 103 -88q0 -89 -103 -89q-102 0 -102 89z" />
    <glyph glyph-name="cent" unicode="&#xa2;" horiz-adv-x="550" 
d="M217 717h158v-106q67 -15 107 -61t47 -119l-166 -22q-5 44 -18 63t-44 19q-38 0 -56.5 -25t-18.5 -96q0 -72 18.5 -102t59.5 -30q33 0 50 19t23 62l153 -26q-10 -73 -53.5 -118t-112.5 -60v-115h-158v115q-84 21 -127.5 84t-43.5 154q0 102 47.5 168t134.5 88v108z" />
    <glyph glyph-name="sterling" unicode="&#xa3;" horiz-adv-x="612" 
d="M12 124h55q66 58 66 124q0 29 -13 59h-91v129h57q-36 62 -36 110q0 86 69.5 138.5t191.5 52.5q108 0 169.5 -44t78.5 -146l-166 -29q-3 18 -5 27t-8 24t-14 22t-22 13t-33 6q-71 0 -71 -69q0 -35 38 -105h177v-129h-147q6 -23 6 -46q0 -76 -62 -137h77q61 0 85 25t33 80
l152 -25q-7 -106 -65.5 -155t-183.5 -49h-338v124z" />
    <glyph glyph-name="currency" unicode="&#xa4;" 
d="M556 87l-97 -96l-85 85q-47 -26 -111 -26q-62 0 -113 27l-85 -86l-94 95l89 89q-20 49 -20 104q0 53 21 98l-87 87l97 96l82 -82q50 29 116 29q69 0 115 -26l79 78l93 -94l-83 -83q19 -44 19 -99q0 -56 -24 -109zM267 178q40 0 61.5 28.5t21.5 72.5q0 98 -85 98
q-40 0 -61.5 -27t-21.5 -71q0 -45 21.5 -73t63.5 -28z" />
    <glyph glyph-name="yen" unicode="&#xa5;" horiz-adv-x="601" 
d="M596 724l-154 -337h81v-143h-126v-244h-187v244h-124v143h74l-155 337h200l101 -265h5l98 265h187z" />
    <glyph glyph-name="brokenbar" unicode="&#xa6;" horiz-adv-x="280" 
d="M225 -143h-170v388h170v-388zM225 420h-170v335h170v-335z" />
    <glyph glyph-name="section" unicode="&#xa7;" horiz-adv-x="581" 
d="M37 229q0 47 21 80.5t67 63.5q-50 50 -50 134q0 92 68.5 147t171.5 55q207 0 227 -186l-158 -17q-2 42 -19.5 62.5t-54.5 20.5q-29 0 -47 -14.5t-18 -41.5q0 -32 31 -53t75.5 -35.5t89 -33t75.5 -55t31 -90.5q0 -82 -88 -146q50 -48 50 -132q0 -92 -68.5 -147t-171.5 -55
q-207 0 -227 186l158 17q2 -42 19.5 -62.5t54.5 -20.5q29 0 47 14.5t18 41.5t-22.5 45.5t-56 28.5t-72.5 24.5t-72.5 32t-56 52.5t-22.5 84zM201 274q0 -16 7.5 -28t25.5 -21.5t31.5 -15t44.5 -15t44 -14.5q29 17 29 44q0 15 -8.5 26t-26 19.5t-35 14.5l-45.5 15t-46 16
q-21 -13 -21 -41z" />
    <glyph glyph-name="dieresis" unicode="&#xa8;" horiz-adv-x="500" 
d="M230 667q0 -39 -26.5 -62.5t-69.5 -23.5q-44 0 -70.5 23.5t-26.5 62.5t26.5 62.5t70.5 23.5q43 0 69.5 -23.5t26.5 -62.5zM462 667q0 -39 -26 -62.5t-70 -23.5q-43 0 -70 23.5t-27 62.5t27 62.5t70 23.5q44 0 70 -23.5t26 -62.5z" />
    <glyph glyph-name="copyright" unicode="&#xa9;" horiz-adv-x="821" 
d="M771 348q0 -162 -100 -261t-261 -99q-172 0 -266 96t-94 249q0 164 103.5 261.5t258.5 97.5q166 0 262.5 -93t96.5 -251zM412 79q122 0 191 70t69 193q0 124 -71.5 191.5t-188.5 67.5q-115 0 -188 -71.5t-73 -195.5q0 -120 69 -187.5t192 -67.5zM498 290l80 -14
q-5 -37 -22.5 -64t-42 -41t-48.5 -20t-49 -6q-92 0 -135 52.5t-43 142.5q0 87 48 140.5t134 53.5q62 0 106 -35t48 -101l-82 -8q-8 71 -76 71q-87 0 -87 -123q0 -120 87 -120q68 0 82 72z" />
    <glyph glyph-name="ordfeminine" unicode="&#xaa;" horiz-adv-x="408" 
d="M356 512v-129q0 -14 4 -20t18 -6q9 0 21 4l3 -72q-35 -15 -83 -15q-76 0 -93 49q-35 -49 -101 -49q-61 0 -86 28.5t-25 64.5q0 55 40 82t126 35l37 3v4q0 19 -1 27.5t-9 16.5t-24 8q-18 0 -26.5 -9t-13.5 -32l-117 20q19 115 168 115q162 0 162 -125zM218 374v45
q-61 -2 -61 -31q0 -23 27 -23q12 0 34 9z" />
    <glyph glyph-name="guillemotleft" unicode="&#xab;" horiz-adv-x="481" 
d="M455 103h-144l-85 153l89 152h146l-90 -148zM254 103h-144l-85 153l89 152h146l-90 -148z" />
    <glyph glyph-name="logicalnot" unicode="&#xac;" 
d="M473 160h-129v95h-264v138h393v-233z" />
    <glyph glyph-name="uni00AD" unicode="&#xad;" horiz-adv-x="311" 
d="M291 215h-271v150h271v-150z" />
    <glyph glyph-name="registered" unicode="&#xae;" horiz-adv-x="472" 
d="M432 472q0 -87 -54.5 -141.5t-142.5 -54.5q-92 0 -143.5 52.5t-51.5 135.5q0 89 56.5 143t140.5 54q90 0 142.5 -51.5t52.5 -137.5zM378 469q0 67 -39.5 104t-101.5 37q-61 0 -101.5 -39t-40.5 -105q0 -64 38 -101t104 -37q65 0 103 38t38 103zM283 465l51 -84h-59
l-41 70h-13v-70h-52v190h74q75 0 75 -56q0 -36 -35 -50zM221 487h14q30 0 30 23t-27 23h-17v-46z" />
    <glyph glyph-name="macron" unicode="&#xaf;" horiz-adv-x="500" 
d="M411 589h-323v118h323v-118z" />
    <glyph glyph-name="degree" unicode="&#xb0;" horiz-adv-x="334" 
d="M168 581q19 0 32 14t13 34q0 19 -13.5 33t-31.5 14t-32 -14.5t-14 -34.5q0 -19 13.5 -32.5t32.5 -13.5zM289 629q0 -53 -34 -87t-87 -34t-87.5 33t-34.5 85q0 55 35.5 89t86.5 34t86 -33t35 -87z" />
    <glyph glyph-name="plusminus" unicode="&#xb1;" 
d="M481 0h-393v138h393v-138zM355 149h-142v106h-125v138h125v134h142v-134h126v-138h-126v-106z" />
    <glyph glyph-name="twosuperior" unicode="&#xb2;" horiz-adv-x="416" 
d="M207 813q89 0 130.5 -33.5t41.5 -89.5q0 -52 -32 -92t-117 -106l-9 -7v-5h165v-131h-352v132l94 87q52 48 70.5 71t18.5 39q0 21 -20 21q-30 0 -37 -49l-139 17q6 72 58.5 109t127.5 37z" />
    <glyph glyph-name="threesuperior" unicode="&#xb3;" horiz-adv-x="420" 
d="M12 474l138 25q4 -43 41 -43q34 0 34 34q0 19 -8.5 28t-33.5 9h-55v102h32q59 0 59 48q0 26 -25 26q-29 0 -37 -41l-134 24q24 128 186 128q80 0 124 -28t44 -83q0 -72 -86 -109v-3q98 -22 98 -105q0 -69 -54 -106.5t-141 -37.5q-69 0 -120.5 30t-61.5 102z" />
    <glyph glyph-name="acute" unicode="&#xb4;" horiz-adv-x="500" 
d="M409 741l-132 -169l-122 7l61 162h193z" />
    <glyph glyph-name="mu" unicode="&#xb5;" horiz-adv-x="628" 
d="M45 -212v737h185v-329q0 -63 49 -63q21 0 40 9q17 7 31 21v362h187v-372q0 -22 6 -31t25 -9q12 0 31 6l4 -115q-32 -16 -104 -16q-110 0 -132 74h-2q-31 -43 -88 -63q-21 -7 -47 -10v-201h-185z" />
    <glyph glyph-name="paragraph" unicode="&#xb6;" horiz-adv-x="624" 
d="M564 724v-857h-121v750h-56v-750h-121v374q-221 11 -221 233q0 130 77.5 190t207.5 60h234z" />
    <glyph glyph-name="periodcentered" unicode="&#xb7;" horiz-adv-x="265" 
d="M230 312q0 -87 -97 -87q-98 0 -98 87t98 87q97 0 97 -87z" />
    <glyph glyph-name="cedilla" unicode="&#xb8;" horiz-adv-x="500" 
d="M136 -246l9 81q27 -6 50 -6q51 0 51 35q0 21 -15 28t-45 8l17 130l80 -8l-9 -68q89 -15 89 -93q0 -58 -40 -88.5t-104 -30.5q-39 0 -83 12z" />
    <glyph glyph-name="onesuperior" unicode="&#xb9;" horiz-adv-x="328" 
d="M293 347h-163v293q-14 -6 -48.5 -11t-53.5 -5l-5 127q100 7 149 52h121v-456z" />
    <glyph glyph-name="ordmasculine" unicode="&#xba;" horiz-adv-x="426" 
d="M207 274q-188 0 -188 180q0 86 49 134.5t149 48.5q190 0 190 -176q0 -89 -49 -138t-151 -49zM213 370q24 0 34.5 19t10.5 68q0 46 -9.5 65t-33.5 19q-25 0 -35.5 -19t-10.5 -65q0 -49 9 -68t35 -19z" />
    <glyph glyph-name="guillemotright" unicode="&#xbb;" horiz-adv-x="481" 
d="M221 408h146l89 -152l-85 -153h-144l85 155zM20 408h146l89 -152l-85 -153h-144l85 155z" />
    <glyph glyph-name="onequarter" unicode="&#xbc;" horiz-adv-x="1080" 
d="M293 279h-163v293q-14 -6 -48.5 -11t-53.5 -5l-5 127q100 7 149 52h121v-456zM402 -12h-171l354 736h170zM969 0h-157v85h-207v108l169 263h194v-250h51v-121h-50v-85zM737 206h75v118z" />
    <glyph glyph-name="onehalf" unicode="&#xbd;" horiz-adv-x="1080" 
d="M293 279h-163v293q-14 -6 -48.5 -11t-53.5 -5l-5 127q100 7 149 52h121v-456zM402 -12h-171l354 736h170zM823 464q89 0 130.5 -33.5t41.5 -89.5q0 -52 -32 -92t-117 -106l-9 -7v-5h165v-131h-352v132l94 87q52 48 70.5 71t18.5 39q0 21 -20 21q-30 0 -37 -49l-139 17
q6 72 58.5 109t127.5 37z" />
    <glyph glyph-name="threequarters" unicode="&#xbe;" horiz-adv-x="1080" 
d="M448 -12h-171l354 736h170zM992 0h-157v85h-207v108l169 263h194v-250h51v-121h-50v-85zM760 206h75v118zM33 406l138 25q4 -43 41 -43q34 0 34 34q0 19 -8.5 28t-33.5 9h-55v102h32q59 0 59 48q0 26 -25 26q-29 0 -37 -41l-134 24q24 128 186 128q80 0 124 -28t44 -83
q0 -72 -86 -109v-3q98 -22 98 -105q0 -69 -54 -106.5t-141 -37.5q-69 0 -120.5 30t-61.5 102z" />
    <glyph glyph-name="questiondown" unicode="&#xbf;" 
d="M226 322h187v-185q-192 -15 -192 -135q0 -73 68 -73q39 0 59 25t26 74l183 -27q-12 -106 -85.5 -160t-194.5 -54q-51 0 -94.5 11.5t-80.5 36t-58.5 69t-21.5 105.5q0 183 204 236v77zM219 448q0 88 102 88q103 0 103 -88q0 -89 -103 -89q-102 0 -102 89z" />
    <glyph glyph-name="Agrave" unicode="&#xc0;" horiz-adv-x="722" 
d="M234 724h235l258 -724h-209l-53 156h-219l-47 -156h-199zM427 302l-74 246h-5l-74 -246h153zM325 768l-150 150h193l86 -143z" />
    <glyph glyph-name="Aacute" unicode="&#xc1;" horiz-adv-x="722" 
d="M234 724h235l258 -724h-209l-53 156h-219l-47 -156h-199zM427 302l-74 246h-5l-74 -246h153zM531 918l-150 -150l-129 7l86 143h193z" />
    <glyph glyph-name="Acircumflex" unicode="&#xc2;" horiz-adv-x="722" 
d="M234 724h235l258 -724h-209l-53 156h-219l-47 -156h-199zM427 302l-74 246h-5l-74 -246h153zM416 769l-64 69l-69 -70l-121 6l101 149h177l94 -149z" />
    <glyph glyph-name="Atilde" unicode="&#xc3;" horiz-adv-x="722" 
d="M234 724h235l258 -724h-209l-53 156h-219l-47 -156h-199zM427 302l-74 246h-5l-74 -246h153zM274 944q36 0 81.5 -21t65.5 -21q15 0 20 9t5 31l88 -5q8 -67 -14.5 -109t-80.5 -42q-40 0 -86.5 21.5t-63.5 21.5t-23 -9.5t-2 -34.5l-97 4q-8 69 20.5 112t86.5 43z" />
    <glyph glyph-name="Adieresis" unicode="&#xc4;" horiz-adv-x="722" 
d="M234 724h235l258 -724h-209l-53 156h-219l-47 -156h-199zM427 302l-74 246h-5l-74 -246h153zM329 862q0 -39 -26.5 -62.5t-69.5 -23.5q-44 0 -70.5 23.5t-26.5 62.5t26.5 62.5t70.5 23.5q43 0 69.5 -23.5t26.5 -62.5zM567 862q0 -39 -26 -62.5t-70 -23.5q-43 0 -70 23.5
t-27 62.5t27 62.5t70 23.5q44 0 70 -23.5t26 -62.5z" />
    <glyph glyph-name="Aring" unicode="&#xc5;" horiz-adv-x="722" 
d="M487 793q0 -40 -18 -69l258 -724h-209l-53 156h-219l-47 -156h-199l234 723q-18 27 -18 67q0 61 39 94.5t97 33.5t96.5 -33t38.5 -92zM427 302l-74 246h-5l-74 -246h153zM351 743q24 0 38 13.5t14 40.5q0 50 -51 50q-24 0 -39 -12.5t-15 -37.5q0 -54 53 -54z" />
    <glyph glyph-name="AE" unicode="&#xc6;" horiz-adv-x="1004" 
d="M668 275v-124h311v-151h-503v273h-160l-117 -273h-197l329 724h626v-150h-289v-152h273v-147h-273zM476 416v158h-42l-67 -158h109z" />
    <glyph glyph-name="Ccedilla" unicode="&#xc7;" horiz-adv-x="697" 
d="M267 -246l9 81q27 -6 50 -6q51 0 51 35q0 21 -15 28t-45 8l11 90q-298 22 -298 366q0 173 91.5 277t265.5 104q133 0 211.5 -64.5t83.5 -200.5l-174 -17q-4 73 -34 104t-90 31q-155 0 -155 -226q0 -120 37.5 -174t115.5 -54q61 0 89 30.5t40 86.5l170 -27
q-9 -77 -52 -130.5t-98 -77t-122 -28.5l-4 -36q89 -15 89 -93q0 -58 -40 -88.5t-104 -30.5q-40 0 -83 12z" />
    <glyph glyph-name="Egrave" unicode="&#xc8;" horiz-adv-x="588" 
d="M252 285v-134h311v-151h-503v724h481v-150h-289v-142h273v-147h-273zM276 768l-150 150h193l86 -143z" />
    <glyph glyph-name="Eacute" unicode="&#xc9;" horiz-adv-x="588" 
d="M252 285v-134h311v-151h-503v724h481v-150h-289v-142h273v-147h-273zM482 918l-150 -150l-129 7l86 143h193z" />
    <glyph glyph-name="Ecircumflex" unicode="&#xca;" horiz-adv-x="588" 
d="M252 285v-134h311v-151h-503v724h481v-150h-289v-142h273v-147h-273zM367 769l-64 69l-69 -70l-121 6l101 149h177l94 -149z" />
    <glyph glyph-name="Edieresis" unicode="&#xcb;" horiz-adv-x="588" 
d="M252 285v-134h311v-151h-503v724h481v-150h-289v-142h273v-147h-273zM280 862q0 -39 -26.5 -62.5t-69.5 -23.5q-44 0 -70.5 23.5t-26.5 62.5t26.5 62.5t70.5 23.5q43 0 69.5 -23.5t26.5 -62.5zM518 862q0 -39 -26 -62.5t-70 -23.5q-43 0 -70 23.5t-27 62.5t27 62.5
t70 23.5q44 0 70 -23.5t26 -62.5z" />
    <glyph glyph-name="Igrave" unicode="&#xcc;" horiz-adv-x="312" 
d="M252 724v-724h-192v724h192zM117 768l-150 150h193l86 -143z" />
    <glyph glyph-name="Iacute" unicode="&#xcd;" horiz-adv-x="312" 
d="M252 724v-724h-192v724h192zM349 918l-150 -150l-129 7l86 143h193z" />
    <glyph glyph-name="Icircumflex" unicode="&#xce;" horiz-adv-x="312" 
d="M252 724v-724h-192v724h192zM221 769l-64 69l-69 -70l-121 6l101 149h177l94 -149z" />
    <glyph glyph-name="Idieresis" unicode="&#xcf;" horiz-adv-x="312" 
d="M252 724v-724h-192v724h192zM134 862q0 -39 -26.5 -62.5t-69.5 -23.5q-44 0 -70.5 23.5t-26.5 62.5t26.5 62.5t70.5 23.5q43 0 69.5 -23.5t26.5 -62.5zM372 862q0 -39 -26 -62.5t-70 -23.5q-43 0 -70 23.5t-27 62.5t27 62.5t70 23.5q44 0 70 -23.5t26 -62.5z" />
    <glyph glyph-name="Eth" unicode="&#xd0;" horiz-adv-x="722" 
d="M316 0h-256v291h-65v142h65v291h273q183 0 271 -91.5t88 -259.5q0 -173 -94 -273t-282 -100zM252 143h53q108 0 150 56.5t42 167.5q0 118 -41 165.5t-138 47.5h-66v-147h128v-142h-128v-148z" />
    <glyph glyph-name="Ntilde" unicode="&#xd1;" horiz-adv-x="745" 
d="M685 0h-217l-234 462v-462h-174v724h223l230 -467v467h172v-724zM295 944q36 0 81.5 -21t65.5 -21q15 0 20 9t5 31l88 -5q8 -67 -14.5 -109t-80.5 -42q-40 0 -86.5 21.5t-63.5 21.5t-23 -9.5t-2 -34.5l-97 4q-8 69 20.5 112t86.5 43z" />
    <glyph glyph-name="Ograve" unicode="&#xd2;" horiz-adv-x="761" 
d="M375 -12q-178 0 -261.5 99t-83.5 270q0 169 93 274.5t269 105.5q89 0 155.5 -28.5t106 -79.5t58.5 -115.5t19 -142.5q0 -181 -89 -282t-267 -101zM382 138q73 0 112.5 51.5t39.5 172.5q0 119 -36.5 172t-109.5 53q-160 0 -160 -226q0 -121 38 -172t116 -51zM361 768
l-150 150h193l86 -143z" />
    <glyph glyph-name="Oacute" unicode="&#xd3;" horiz-adv-x="761" 
d="M375 -12q-178 0 -261.5 99t-83.5 270q0 169 93 274.5t269 105.5q89 0 155.5 -28.5t106 -79.5t58.5 -115.5t19 -142.5q0 -181 -89 -282t-267 -101zM382 138q73 0 112.5 51.5t39.5 172.5q0 119 -36.5 172t-109.5 53q-160 0 -160 -226q0 -121 38 -172t116 -51zM567 918
l-150 -150l-129 7l86 143h193z" />
    <glyph glyph-name="Ocircumflex" unicode="&#xd4;" horiz-adv-x="761" 
d="M375 -12q-178 0 -261.5 99t-83.5 270q0 169 93 274.5t269 105.5q89 0 155.5 -28.5t106 -79.5t58.5 -115.5t19 -142.5q0 -181 -89 -282t-267 -101zM382 138q73 0 112.5 51.5t39.5 172.5q0 119 -36.5 172t-109.5 53q-160 0 -160 -226q0 -121 38 -172t116 -51zM452 769
l-64 69l-69 -70l-121 6l101 149h177l94 -149z" />
    <glyph glyph-name="Otilde" unicode="&#xd5;" horiz-adv-x="761" 
d="M375 -12q-178 0 -261.5 99t-83.5 270q0 169 93 274.5t269 105.5q89 0 155.5 -28.5t106 -79.5t58.5 -115.5t19 -142.5q0 -181 -89 -282t-267 -101zM382 138q73 0 112.5 51.5t39.5 172.5q0 119 -36.5 172t-109.5 53q-160 0 -160 -226q0 -121 38 -172t116 -51zM310 944
q36 0 81.5 -21t65.5 -21q15 0 20 9t5 31l88 -5q8 -67 -14.5 -109t-80.5 -42q-40 0 -86.5 21.5t-63.5 21.5t-23 -9.5t-2 -34.5l-97 4q-8 69 20.5 112t86.5 43z" />
    <glyph glyph-name="Odieresis" unicode="&#xd6;" horiz-adv-x="761" 
d="M375 -12q-178 0 -261.5 99t-83.5 270q0 169 93 274.5t269 105.5q89 0 155.5 -28.5t106 -79.5t58.5 -115.5t19 -142.5q0 -181 -89 -282t-267 -101zM382 138q73 0 112.5 51.5t39.5 172.5q0 119 -36.5 172t-109.5 53q-160 0 -160 -226q0 -121 38 -172t116 -51zM365 862
q0 -39 -26.5 -62.5t-69.5 -23.5q-44 0 -70.5 23.5t-26.5 62.5t26.5 62.5t70.5 23.5q43 0 69.5 -23.5t26.5 -62.5zM603 862q0 -39 -26 -62.5t-70 -23.5q-43 0 -70 23.5t-27 62.5t27 62.5t70 23.5q44 0 70 -23.5t26 -62.5z" />
    <glyph glyph-name="multiply" unicode="&#xd7;" 
d="M380 127l-95 95l-95 -95l-100 100l95 95l-95 95l100 100l95 -95l95 95l100 -100l-95 -95l95 -95z" />
    <glyph glyph-name="Oslash" unicode="&#xd8;" horiz-adv-x="761" 
d="M375 -12q-36 0 -63 4l-27 -71h-186l54 130q-123 92 -123 306q0 169 93 274.5t269 105.5q26 0 50 -3l26 61h186l-51 -119q128 -94 128 -305q0 -181 -89 -282t-267 -101zM382 138q73 0 112.5 51.5t39.5 172.5q0 119 -36.5 172t-109.5 53q-160 0 -160 -226q0 -121 38 -172
t116 -51z" />
    <glyph glyph-name="Ugrave" unicode="&#xd9;" horiz-adv-x="704" 
d="M354 136q67 0 87.5 34.5t20.5 122.5v431h191l1 -454q0 -144 -82 -213t-224 -69q-156 0 -227 68.5t-71 218.5v449h192v-427q0 -87 21 -124t91 -37zM326 768l-150 150h193l86 -143z" />
    <glyph glyph-name="Uacute" unicode="&#xda;" horiz-adv-x="704" 
d="M354 136q67 0 87.5 34.5t20.5 122.5v431h191l1 -454q0 -144 -82 -213t-224 -69q-156 0 -227 68.5t-71 218.5v449h192v-427q0 -87 21 -124t91 -37zM557 918l-150 -150l-129 7l86 143h193z" />
    <glyph glyph-name="Ucircumflex" unicode="&#xdb;" horiz-adv-x="704" 
d="M354 136q67 0 87.5 34.5t20.5 122.5v431h191l1 -454q0 -144 -82 -213t-224 -69q-156 0 -227 68.5t-71 218.5v449h192v-427q0 -87 21 -124t91 -37zM417 769l-64 69l-69 -70l-121 6l101 149h177l94 -149z" />
    <glyph glyph-name="Udieresis" unicode="&#xdc;" horiz-adv-x="704" 
d="M354 136q67 0 87.5 34.5t20.5 122.5v431h191l1 -454q0 -144 -82 -213t-224 -69q-156 0 -227 68.5t-71 218.5v449h192v-427q0 -87 21 -124t91 -37zM330 862q0 -39 -26.5 -62.5t-69.5 -23.5q-44 0 -70.5 23.5t-26.5 62.5t26.5 62.5t70.5 23.5q43 0 69.5 -23.5t26.5 -62.5z
M568 862q0 -39 -26 -62.5t-70 -23.5q-43 0 -70 23.5t-27 62.5t27 62.5t70 23.5q44 0 70 -23.5t26 -62.5z" />
    <glyph glyph-name="Yacute" unicode="&#xdd;" horiz-adv-x="630" 
d="M419 268q0 -44 0.5 -134t0.5 -134h-193v267l-252 457h209l139 -288h6l133 288h193zM506 918l-150 -150l-129 7l86 143h193z" />
    <glyph glyph-name="Thorn" unicode="&#xde;" horiz-adv-x="624" 
d="M251 119v-119h-191v724h196v-115h102q67 0 115.5 -19.5t75 -53t38.5 -72.5t12 -85q0 -124 -72 -192t-216 -68h-60zM251 261h37q114 0 114 103q0 59 -28.5 80t-74.5 21h-48v-204z" />
    <glyph glyph-name="germandbls" unicode="&#xdf;" horiz-adv-x="646" 
d="M230 0h-187v497q0 271 280 271q121 0 190.5 -52t69.5 -146q0 -70 -34.5 -112.5t-73.5 -55.5v-4q32 -7 55.5 -18t47 -32t36 -57.5t12.5 -86.5q0 -90 -52 -153t-156 -63q-84 0 -127 24v120q32 -10 59 -10q39 0 63.5 23t24.5 75q0 100 -106 100h-33v124h18q79 0 79 99
q0 96 -80 96q-41 0 -63.5 -26t-22.5 -96v-517z" />
    <glyph glyph-name="agrave" unicode="&#xe0;" horiz-adv-x="566" 
d="M495 348v-205q0 -22 6 -31t25 -9q12 0 31 6l4 -99q-16 -8 -50.5 -15t-60.5 -7q-103 0 -125 74q-52 -74 -148 -74q-46 0 -79 14t-49 36.5t-22.5 44.5t-6.5 45q0 85 58.5 125.5t180.5 51.5l54 3v14q0 25 -1.5 38t-6.5 26.5t-17 19t-32 5.5q-29 0 -42.5 -15t-21.5 -51
l-154 27q13 79 67.5 121.5t165.5 42.5q112 0 168 -45.5t56 -142.5zM314 135v78h-7q-54 -2 -76.5 -15t-22.5 -41q0 -43 45 -43q35 0 61 21zM243 572l-132 169h193l61 -162z" />
    <glyph glyph-name="aacute" unicode="&#xe1;" horiz-adv-x="566" 
d="M495 348v-205q0 -22 6 -31t25 -9q12 0 31 6l4 -99q-16 -8 -50.5 -15t-60.5 -7q-103 0 -125 74q-52 -74 -148 -74q-46 0 -79 14t-49 36.5t-22.5 44.5t-6.5 45q0 85 58.5 125.5t180.5 51.5l54 3v14q0 25 -1.5 38t-6.5 26.5t-17 19t-32 5.5q-29 0 -42.5 -15t-21.5 -51
l-154 27q13 79 67.5 121.5t165.5 42.5q112 0 168 -45.5t56 -142.5zM314 135v78h-7q-54 -2 -76.5 -15t-22.5 -41q0 -43 45 -43q35 0 61 21zM430 741l-132 -169l-122 7l61 162h193z" />
    <glyph glyph-name="acircumflex" unicode="&#xe2;" horiz-adv-x="566" 
d="M495 348v-205q0 -22 6 -31t25 -9q12 0 31 6l4 -99q-16 -8 -50.5 -15t-60.5 -7q-103 0 -125 74q-52 -74 -148 -74q-46 0 -79 14t-49 36.5t-22.5 44.5t-6.5 45q0 85 58.5 125.5t180.5 51.5l54 3v14q0 25 -1.5 38t-6.5 26.5t-17 19t-32 5.5q-29 0 -42.5 -15t-21.5 -51
l-154 27q13 79 67.5 121.5t165.5 42.5q112 0 168 -45.5t56 -142.5zM314 135v78h-7q-54 -2 -76.5 -15t-22.5 -41q0 -43 45 -43q35 0 61 21zM455 580l-118 -5l-64 84l-69 -85l-121 6l101 164h177z" />
    <glyph glyph-name="atilde" unicode="&#xe3;" horiz-adv-x="566" 
d="M495 348v-205q0 -22 6 -31t25 -9q12 0 31 6l4 -99q-16 -8 -50.5 -15t-60.5 -7q-103 0 -125 74q-52 -74 -148 -74q-46 0 -79 14t-49 36.5t-22.5 44.5t-6.5 45q0 85 58.5 125.5t180.5 51.5l54 3v14q0 25 -1.5 38t-6.5 26.5t-17 19t-32 5.5q-29 0 -42.5 -15t-21.5 -51
l-154 27q13 79 67.5 121.5t165.5 42.5q112 0 168 -45.5t56 -142.5zM314 135v78h-7q-54 -2 -76.5 -15t-22.5 -41q0 -43 45 -43q35 0 61 21zM196 740q36 0 81.5 -21t65.5 -21q15 0 20 9t5 31l88 -5q8 -67 -14.5 -109t-80.5 -42q-40 0 -86.5 21.5t-63.5 21.5t-23 -9.5t-2 -34.5
l-97 4q-8 69 20.5 112t86.5 43z" />
    <glyph glyph-name="adieresis" unicode="&#xe4;" horiz-adv-x="566" 
d="M495 348v-205q0 -22 6 -31t25 -9q12 0 31 6l4 -99q-16 -8 -50.5 -15t-60.5 -7q-103 0 -125 74q-52 -74 -148 -74q-46 0 -79 14t-49 36.5t-22.5 44.5t-6.5 45q0 85 58.5 125.5t180.5 51.5l54 3v14q0 25 -1.5 38t-6.5 26.5t-17 19t-32 5.5q-29 0 -42.5 -15t-21.5 -51
l-154 27q13 79 67.5 121.5t165.5 42.5q112 0 168 -45.5t56 -142.5zM314 135v78h-7q-54 -2 -76.5 -15t-22.5 -41q0 -43 45 -43q35 0 61 21zM251 667q0 -39 -26.5 -62.5t-69.5 -23.5q-44 0 -70.5 23.5t-26.5 62.5t26.5 62.5t70.5 23.5q43 0 69.5 -23.5t26.5 -62.5zM483 667
q0 -39 -26 -62.5t-70 -23.5q-43 0 -70 23.5t-27 62.5t27 62.5t70 23.5q44 0 70 -23.5t26 -62.5z" />
    <glyph glyph-name="aring" unicode="&#xe5;" horiz-adv-x="566" 
d="M495 348v-205q0 -22 6 -31t25 -9q12 0 31 6l4 -99q-16 -8 -50.5 -15t-60.5 -7q-103 0 -125 74q-52 -74 -148 -74q-46 0 -79 14t-49 36.5t-22.5 44.5t-6.5 45q0 85 58.5 125.5t180.5 51.5l54 3v14q0 25 -1.5 38t-6.5 26.5t-17 19t-32 5.5q-29 0 -42.5 -15t-21.5 -51
l-154 27q13 79 67.5 121.5t165.5 42.5q112 0 168 -45.5t56 -142.5zM314 135v78h-7q-54 -2 -76.5 -15t-22.5 -41q0 -43 45 -43q35 0 61 21zM387 675q0 -51 -32 -79t-84 -28t-84.5 27.5t-32.5 76.5q0 52 33.5 81.5t83.5 29.5t83 -28.5t33 -79.5zM270 634q41 0 41 41
q0 19 -11 29.5t-29 10.5q-19 0 -30.5 -10.5t-11.5 -29.5q0 -41 41 -41z" />
    <glyph glyph-name="ae" unicode="&#xe6;" horiz-adv-x="826" 
d="M568 -12q-134 0 -200 78q-66 -78 -186 -78q-87 0 -124.5 42.5t-37.5 94.5q0 95 70.5 136.5t222.5 46.5v11q0 23 -0.5 33t-3 24t-8.5 20t-17 10.5t-28 4.5q-29 0 -44 -15.5t-20 -51.5l-154 27q23 165 225 165q56 0 90.5 -14.5t64.5 -47.5q64 62 170 62q105 0 159 -66
t54 -183q0 -40 -2 -57h-299q0 -58 18.5 -83t60.5 -25q61 0 73 64l148 -36q-14 -74 -73 -118t-159 -44zM256 113q41 0 71 28q-11 29 -14 71q-57 -1 -81 -15t-24 -43q0 -41 48 -41zM502 327h106q1 49 -12.5 67.5t-38.5 18.5q-56 0 -55 -86z" />
    <glyph glyph-name="ccedilla" unicode="&#xe7;" horiz-adv-x="548" 
d="M178 -246l9 81q27 -6 50 -6q51 0 51 35q0 21 -15 28t-45 8l12 91q-106 12 -160.5 82t-54.5 179q0 135 72 209.5t204 74.5q102 0 162 -51.5t69 -149.5l-164 -24q-5 49 -18.5 71.5t-49.5 22.5q-39 0 -59 -29t-20 -106q0 -78 18.5 -112t61.5 -34q37 0 56.5 22t25.5 69
l150 -28q-13 -91 -68.5 -140t-144.5 -57l-4 -36q89 -15 89 -93q0 -58 -40 -88.5t-104 -30.5q-39 0 -83 12z" />
    <glyph glyph-name="egrave" unicode="&#xe8;" horiz-adv-x="548" 
d="M290 -12q-72 0 -125 22t-82.5 61.5t-43.5 86.5t-14 103q0 135 73.5 205t188.5 70q121 0 178.5 -65.5t57.5 -183.5q0 -40 -2 -57h-299q0 -58 18.5 -83t60.5 -25q61 0 73 64l148 -36q-14 -74 -73 -118t-159 -44zM224 327h106q1 49 -12.5 67.5t-38.5 18.5q-56 0 -55 -86z
M263 572l-132 169h193l61 -162z" />
    <glyph glyph-name="eacute" unicode="&#xe9;" horiz-adv-x="548" 
d="M290 -12q-72 0 -125 22t-82.5 61.5t-43.5 86.5t-14 103q0 135 73.5 205t188.5 70q121 0 178.5 -65.5t57.5 -183.5q0 -40 -2 -57h-299q0 -58 18.5 -83t60.5 -25q61 0 73 64l148 -36q-14 -74 -73 -118t-159 -44zM224 327h106q1 49 -12.5 67.5t-38.5 18.5q-56 0 -55 -86z
M446 741l-132 -169l-122 7l61 162h193z" />
    <glyph glyph-name="ecircumflex" unicode="&#xea;" horiz-adv-x="548" 
d="M290 -12q-72 0 -125 22t-82.5 61.5t-43.5 86.5t-14 103q0 135 73.5 205t188.5 70q121 0 178.5 -65.5t57.5 -183.5q0 -40 -2 -57h-299q0 -58 18.5 -83t60.5 -25q61 0 73 64l148 -36q-14 -74 -73 -118t-159 -44zM224 327h106q1 49 -12.5 67.5t-38.5 18.5q-56 0 -55 -86z
M471 580l-118 -5l-64 84l-69 -85l-121 6l101 164h177z" />
    <glyph glyph-name="edieresis" unicode="&#xeb;" horiz-adv-x="548" 
d="M290 -12q-72 0 -125 22t-82.5 61.5t-43.5 86.5t-14 103q0 135 73.5 205t188.5 70q121 0 178.5 -65.5t57.5 -183.5q0 -40 -2 -57h-299q0 -58 18.5 -83t60.5 -25q61 0 73 64l148 -36q-14 -74 -73 -118t-159 -44zM224 327h106q1 49 -12.5 67.5t-38.5 18.5q-56 0 -55 -86z
M267 667q0 -39 -26.5 -62.5t-69.5 -23.5q-44 0 -70.5 23.5t-26.5 62.5t26.5 62.5t70.5 23.5q43 0 69.5 -23.5t26.5 -62.5zM499 667q0 -39 -26 -62.5t-70 -23.5q-43 0 -70 23.5t-27 62.5t27 62.5t70 23.5q44 0 70 -23.5t26 -62.5z" />
    <glyph glyph-name="igrave" unicode="&#xec;" horiz-adv-x="279" 
d="M234 525v-525h-187v525h187zM116 572l-132 169h193l61 -162z" />
    <glyph glyph-name="iacute" unicode="&#xed;" horiz-adv-x="279" 
d="M234 525v-525h-187v525h187zM299 741l-132 -169l-122 7l61 162h193z" />
    <glyph glyph-name="icircumflex" unicode="&#xee;" horiz-adv-x="279" 
d="M234 525v-525h-187v525h187zM324 580l-118 -5l-64 84l-69 -85l-121 6l101 164h177z" />
    <glyph glyph-name="idieresis" unicode="&#xef;" horiz-adv-x="279" 
d="M234 525v-525h-187v525h187zM120 667q0 -39 -26.5 -62.5t-69.5 -23.5q-44 0 -70.5 23.5t-26.5 62.5t26.5 62.5t70.5 23.5q43 0 69.5 -23.5t26.5 -62.5zM352 667q0 -39 -26 -62.5t-70 -23.5q-43 0 -70 23.5t-27 62.5t27 62.5t70 23.5q44 0 70 -23.5t26 -62.5z" />
    <glyph glyph-name="eth" unicode="&#xf0;" horiz-adv-x="595" 
d="M22 253q0 110 57.5 182.5t168.5 72.5q49 0 107 -18l5 6q-56 93 -225 139l67 153q91 -21 158 -60l111 77l82 -115l-82 -55q99 -120 99 -312q0 -335 -285 -335q-132 0 -197.5 70.5t-65.5 194.5zM218 254q0 -79 20.5 -109.5t56.5 -30.5q85 0 85 163q0 49 -6 90
q-35 19 -76 19q-40 0 -60 -26.5t-20 -105.5z" />
    <glyph glyph-name="ntilde" unicode="&#xf1;" horiz-adv-x="584" 
d="M543 360v-360h-187v327q0 65 -53 65q-43 0 -73 -30v-362h-187v525h166l9 -51q60 62 156 62q87 0 128 -43t41 -133zM213 740q36 0 81.5 -21t65.5 -21q15 0 20 9t5 31l88 -5q8 -67 -14.5 -109t-80.5 -42q-40 0 -86.5 21.5t-63.5 21.5t-23 -9.5t-2 -34.5l-97 4
q-8 69 20.5 112t86.5 43z" />
    <glyph glyph-name="ograve" unicode="&#xf2;" horiz-adv-x="593" 
d="M289 -12q-264 0 -264 272q0 130 69.5 203t208.5 73q138 0 201.5 -71t63.5 -195q0 -133 -68.5 -207.5t-210.5 -74.5zM297 114q40 0 58 33t18 118q0 82 -16 112t-57 30q-42 0 -60.5 -30.5t-18.5 -112.5q0 -86 16.5 -118t59.5 -32zM276 572l-132 169h193l61 -162z" />
    <glyph glyph-name="oacute" unicode="&#xf3;" horiz-adv-x="593" 
d="M289 -12q-264 0 -264 272q0 130 69.5 203t208.5 73q138 0 201.5 -71t63.5 -195q0 -133 -68.5 -207.5t-210.5 -74.5zM297 114q40 0 58 33t18 118q0 82 -16 112t-57 30q-42 0 -60.5 -30.5t-18.5 -112.5q0 -86 16.5 -118t59.5 -32zM469 741l-132 -169l-122 7l61 162h193z
" />
    <glyph glyph-name="ocircumflex" unicode="&#xf4;" horiz-adv-x="593" 
d="M289 -12q-264 0 -264 272q0 130 69.5 203t208.5 73q138 0 201.5 -71t63.5 -195q0 -133 -68.5 -207.5t-210.5 -74.5zM297 114q40 0 58 33t18 118q0 82 -16 112t-57 30q-42 0 -60.5 -30.5t-18.5 -112.5q0 -86 16.5 -118t59.5 -32zM484 580l-118 -5l-64 84l-69 -85l-121 6
l101 164h177z" />
    <glyph glyph-name="otilde" unicode="&#xf5;" horiz-adv-x="593" 
d="M289 -12q-264 0 -264 272q0 130 69.5 203t208.5 73q138 0 201.5 -71t63.5 -195q0 -133 -68.5 -207.5t-210.5 -74.5zM297 114q40 0 58 33t18 118q0 82 -16 112t-57 30q-42 0 -60.5 -30.5t-18.5 -112.5q0 -86 16.5 -118t59.5 -32zM225 740q36 0 81.5 -21t65.5 -21
q15 0 20 9t5 31l88 -5q8 -67 -14.5 -109t-80.5 -42q-40 0 -86.5 21.5t-63.5 21.5t-23 -9.5t-2 -34.5l-97 4q-8 69 20.5 112t86.5 43z" />
    <glyph glyph-name="odieresis" unicode="&#xf6;" horiz-adv-x="593" 
d="M289 -12q-264 0 -264 272q0 130 69.5 203t208.5 73q138 0 201.5 -71t63.5 -195q0 -133 -68.5 -207.5t-210.5 -74.5zM297 114q40 0 58 33t18 118q0 82 -16 112t-57 30q-42 0 -60.5 -30.5t-18.5 -112.5q0 -86 16.5 -118t59.5 -32zM280 667q0 -39 -26.5 -62.5t-69.5 -23.5
q-44 0 -70.5 23.5t-26.5 62.5t26.5 62.5t70.5 23.5q43 0 69.5 -23.5t26.5 -62.5zM512 667q0 -39 -26 -62.5t-70 -23.5q-43 0 -70 23.5t-27 62.5t27 62.5t70 23.5q44 0 70 -23.5t26 -62.5z" />
    <glyph glyph-name="divide" unicode="&#xf7;" 
d="M371 149q0 -79 -87 -79q-88 0 -88 79q0 36 22.5 58t65.5 22q42 0 64.5 -22.5t22.5 -57.5zM481 252h-393v138h393v-138zM371 492q0 -79 -87 -79q-88 0 -88 79q0 36 22.5 58t65.5 22q42 0 64.5 -22t22.5 -58z" />
    <glyph glyph-name="oslash" unicode="&#xf8;" horiz-adv-x="593" 
d="M67 -87l53 119q-95 66 -95 228q0 130 69.5 203t208.5 73q6 0 16 -0.5t15 -0.5l27 59h164l-48 -106q91 -65 91 -218q0 -133 -68.5 -207.5t-210.5 -74.5q-5 0 -14 0.5t-13 0.5l-31 -76h-164zM297 114q40 0 58 33t18 118q0 82 -16 112t-57 30q-42 0 -60.5 -30.5
t-18.5 -112.5q0 -86 16.5 -118t59.5 -32z" />
    <glyph glyph-name="ugrave" unicode="&#xf9;" horiz-adv-x="576" 
d="M41 161v364h187v-327q0 -35 11.5 -50t37.5 -15q39 0 69 30v362h187v-525h-160l-14 60q-51 -72 -155 -72q-163 0 -163 173zM260 572l-132 169h193l61 -162z" />
    <glyph glyph-name="uacute" unicode="&#xfa;" horiz-adv-x="576" 
d="M41 161v364h187v-327q0 -35 11.5 -50t37.5 -15q39 0 69 30v362h187v-525h-160l-14 60q-51 -72 -155 -72q-163 0 -163 173zM448 741l-132 -169l-122 7l61 162h193z" />
    <glyph glyph-name="ucircumflex" unicode="&#xfb;" horiz-adv-x="576" 
d="M41 161v364h187v-327q0 -35 11.5 -50t37.5 -15q39 0 69 30v362h187v-525h-160l-14 60q-51 -72 -155 -72q-163 0 -163 173zM473 580l-118 -5l-64 84l-69 -85l-121 6l101 164h177z" />
    <glyph glyph-name="udieresis" unicode="&#xfc;" horiz-adv-x="576" 
d="M41 161v364h187v-327q0 -35 11.5 -50t37.5 -15q39 0 69 30v362h187v-525h-160l-14 60q-51 -72 -155 -72q-163 0 -163 173zM269 667q0 -39 -26.5 -62.5t-69.5 -23.5q-44 0 -70.5 23.5t-26.5 62.5t26.5 62.5t70.5 23.5q43 0 69.5 -23.5t26.5 -62.5zM501 667
q0 -39 -26 -62.5t-70 -23.5q-43 0 -70 23.5t-27 62.5t27 62.5t70 23.5q44 0 70 -23.5t26 -62.5z" />
    <glyph glyph-name="yacute" unicode="&#xfd;" horiz-adv-x="551" 
d="M191 -14l-202 539h201l89 -341h4l86 341h193l-199 -564q-36 -102 -80.5 -143t-131.5 -41q-77 0 -123 23l12 129q51 -16 77 -16q31 0 44 15.5t30 57.5zM440 741l-132 -169l-122 7l61 162h193z" />
    <glyph glyph-name="thorn" unicode="&#xfe;" horiz-adv-x="599" 
d="M231 364v-208q33 -25 67 -25q75 0 75 136q0 125 -75 125q-35 0 -67 -28zM45 -212v967h184v-279q56 60 146 60q86 0 140.5 -63t54.5 -199q0 -147 -58 -216.5t-153 -69.5q-81 0 -132 49v-249h-182z" />
    <glyph glyph-name="ydieresis" unicode="&#xff;" horiz-adv-x="551" 
d="M191 -14l-202 539h201l89 -341h4l86 341h193l-199 -564q-36 -102 -80.5 -143t-131.5 -41q-77 0 -123 23l12 129q51 -16 77 -16q31 0 44 15.5t30 57.5zM261 667q0 -39 -26.5 -62.5t-69.5 -23.5q-44 0 -70.5 23.5t-26.5 62.5t26.5 62.5t70.5 23.5q43 0 69.5 -23.5
t26.5 -62.5zM493 667q0 -39 -26 -62.5t-70 -23.5q-43 0 -70 23.5t-27 62.5t27 62.5t70 23.5q44 0 70 -23.5t26 -62.5z" />
    <glyph glyph-name="Amacron" unicode="&#x100;" horiz-adv-x="722" 
d="M234 724h235l258 -724h-209l-53 156h-219l-47 -156h-199zM427 302l-74 246h-5l-74 -246h153zM513 780h-323v118h323v-118z" />
    <glyph glyph-name="amacron" unicode="&#x101;" horiz-adv-x="566" 
d="M495 348v-205q0 -22 6 -31t25 -9q12 0 31 6l4 -99q-16 -8 -50.5 -15t-60.5 -7q-103 0 -125 74q-52 -74 -148 -74q-46 0 -79 14t-49 36.5t-22.5 44.5t-6.5 45q0 85 58.5 125.5t180.5 51.5l54 3v14q0 25 -1.5 38t-6.5 26.5t-17 19t-32 5.5q-29 0 -42.5 -15t-21.5 -51
l-154 27q13 79 67.5 121.5t165.5 42.5q112 0 168 -45.5t56 -142.5zM314 135v78h-7q-54 -2 -76.5 -15t-22.5 -41q0 -43 45 -43q35 0 61 21zM432 589h-323v118h323v-118z" />
    <glyph glyph-name="Abreve" unicode="&#x102;" horiz-adv-x="722" 
d="M234 724h235l258 -724h-209l-53 156h-219l-47 -156h-199zM427 302l-74 246h-5l-74 -246h153zM355 871q31 0 47 14t23 51l115 -7q-16 -164 -191 -164q-81 0 -128.5 39t-51.5 122l120 12q5 -36 20.5 -51.5t45.5 -15.5z" />
    <glyph glyph-name="abreve" unicode="&#x103;" horiz-adv-x="566" 
d="M495 348v-205q0 -22 6 -31t25 -9q12 0 31 6l4 -99q-16 -8 -50.5 -15t-60.5 -7q-103 0 -125 74q-52 -74 -148 -74q-46 0 -79 14t-49 36.5t-22.5 44.5t-6.5 45q0 85 58.5 125.5t180.5 51.5l54 3v14q0 25 -1.5 38t-6.5 26.5t-17 19t-32 5.5q-29 0 -42.5 -15t-21.5 -51
l-154 27q13 79 67.5 121.5t165.5 42.5q112 0 168 -45.5t56 -142.5zM314 135v78h-7q-54 -2 -76.5 -15t-22.5 -41q0 -43 45 -43q35 0 61 21zM343 739l115 -7q-16 -164 -191 -164q-80 0 -128 39t-52 122l120 12q5 -36 20.5 -51.5t45.5 -15.5q31 0 47 14t23 51z" />
    <glyph glyph-name="Aogonek" unicode="&#x104;" horiz-adv-x="722" 
d="M676 -102l75 -33q-16 -52 -56.5 -81.5t-95.5 -29.5q-126 0 -126 102q0 76 95 144h-50l-53 156h-219l-47 -156h-199l234 724h235l258 -724q-55 -16 -88.5 -50.5t-33.5 -63.5q0 -30 27 -30q28 0 44 42zM427 302l-74 246h-5l-74 -246h153z" />
    <glyph glyph-name="aogonek" unicode="&#x105;" horiz-adv-x="566" 
d="M507 -102l75 -33q-16 -52 -56.5 -81.5t-95.5 -29.5q-126 0 -126 102q0 74 89 139q-54 16 -68 67q-52 -74 -148 -74q-46 0 -79 14t-49 36.5t-22.5 44.5t-6.5 45q0 85 58.5 125.5t180.5 51.5l54 3v14q0 25 -1.5 38t-6.5 26.5t-17 19t-32 5.5q-29 0 -42.5 -15t-21.5 -51
l-154 27q13 79 67.5 121.5t165.5 42.5q112 0 168 -45.5t56 -142.5v-205q0 -22 6 -31t25 -9q12 0 31 6l4 -99q-46 -11 -85.5 -52.5t-39.5 -71.5t27 -30q28 0 44 42zM314 135v78h-7q-54 -2 -76.5 -15t-22.5 -41q0 -43 45 -43q35 0 61 21z" />
    <glyph glyph-name="Cacute" unicode="&#x106;" horiz-adv-x="697" 
d="M374 -12q-344 0 -344 368q0 173 91.5 277t265.5 104q133 0 211.5 -64.5t83.5 -200.5l-174 -17q-4 73 -34 104t-90 31q-155 0 -155 -226q0 -120 37.5 -174t115.5 -54q61 0 89 30.5t40 86.5l170 -27q-8 -64 -38 -112t-74.5 -74.5t-93 -39t-101.5 -12.5zM565 918l-150 -150
l-129 7l86 143h193z" />
    <glyph glyph-name="cacute" unicode="&#x107;" horiz-adv-x="548" 
d="M285 -12q-128 0 -194 72t-66 192q0 135 72 209.5t204 74.5q102 0 162 -51.5t69 -149.5l-164 -24q-5 49 -18.5 71.5t-49.5 22.5q-39 0 -59 -29t-20 -106q0 -78 18.5 -112t61.5 -34q37 0 56.5 22t25.5 69l150 -28q-14 -100 -79 -149.5t-169 -49.5zM457 741l-132 -169
l-122 7l61 162h193z" />
    <glyph glyph-name="Ccircumflex" unicode="&#x108;" horiz-adv-x="697" 
d="M374 -12q-344 0 -344 368q0 173 91.5 277t265.5 104q133 0 211.5 -64.5t83.5 -200.5l-174 -17q-4 73 -34 104t-90 31q-155 0 -155 -226q0 -120 37.5 -174t115.5 -54q61 0 89 30.5t40 86.5l170 -27q-8 -64 -38 -112t-74.5 -74.5t-93 -39t-101.5 -12.5zM450 769l-64 69
l-69 -70l-121 6l101 149h177l94 -149z" />
    <glyph glyph-name="ccircumflex" unicode="&#x109;" horiz-adv-x="548" 
d="M285 -12q-128 0 -194 72t-66 192q0 135 72 209.5t204 74.5q102 0 162 -51.5t69 -149.5l-164 -24q-5 49 -18.5 71.5t-49.5 22.5q-39 0 -59 -29t-20 -106q0 -78 18.5 -112t61.5 -34q37 0 56.5 22t25.5 69l150 -28q-14 -100 -79 -149.5t-169 -49.5zM482 580l-118 -5l-64 84
l-69 -85l-121 6l101 164h177z" />
    <glyph glyph-name="Cdotaccent" unicode="&#x10a;" horiz-adv-x="697" 
d="M374 -12q-344 0 -344 368q0 173 91.5 277t265.5 104q133 0 211.5 -64.5t83.5 -200.5l-174 -17q-4 73 -34 104t-90 31q-155 0 -155 -226q0 -120 37.5 -174t115.5 -54q61 0 89 30.5t40 86.5l170 -27q-8 -64 -38 -112t-74.5 -74.5t-93 -39t-101.5 -12.5zM486 879
q0 -50 -28 -78t-79 -28q-50 0 -78 28t-28 78t28 77t78 27q51 0 79 -27t28 -77z" />
    <glyph glyph-name="cdotaccent" unicode="&#x10b;" horiz-adv-x="548" 
d="M285 -12q-128 0 -194 72t-66 192q0 135 72 209.5t204 74.5q102 0 162 -51.5t69 -149.5l-164 -24q-5 49 -18.5 71.5t-49.5 22.5q-39 0 -59 -29t-20 -106q0 -78 18.5 -112t61.5 -34q37 0 56.5 22t25.5 69l150 -28q-14 -100 -79 -149.5t-169 -49.5zM399 682q0 -50 -28 -78
t-79 -28q-50 0 -78 28t-28 78t28 77t78 27q51 0 79 -27t28 -77z" />
    <glyph glyph-name="Ccaron" unicode="&#x10c;" horiz-adv-x="697" 
d="M374 -12q-344 0 -344 368q0 173 91.5 277t265.5 104q133 0 211.5 -64.5t83.5 -200.5l-174 -17q-4 73 -34 104t-90 31q-155 0 -155 -226q0 -120 37.5 -174t115.5 -54q61 0 89 30.5t40 86.5l170 -27q-8 -64 -38 -112t-74.5 -74.5t-93 -39t-101.5 -12.5zM320 925l64 -69
l69 70l121 -6l-101 -149h-177l-94 149z" />
    <glyph glyph-name="ccaron" unicode="&#x10d;" horiz-adv-x="548" 
d="M285 -12q-128 0 -194 72t-66 192q0 135 72 209.5t204 74.5q102 0 162 -51.5t69 -149.5l-164 -24q-5 49 -18.5 71.5t-49.5 22.5q-39 0 -59 -29t-20 -106q0 -78 18.5 -112t61.5 -34q37 0 56.5 22t25.5 69l150 -28q-14 -100 -79 -149.5t-169 -49.5zM109 735l121 5l64 -83
l69 84l118 -6l-101 -163h-177z" />
    <glyph glyph-name="Dcaron" unicode="&#x10e;" horiz-adv-x="722" 
d="M316 0h-256v724h273q183 0 271 -91.5t88 -259.5q0 -173 -94 -273t-282 -100zM252 143h53q108 0 150 56.5t42 167.5q0 118 -41 165.5t-138 47.5h-66v-437zM260 925l64 -69l69 70l121 -6l-101 -149h-177l-94 149z" />
    <glyph glyph-name="dcaron" unicode="&#x10f;" horiz-adv-x="712" 
d="M554 755v-755h-155l-11 50l-4 1q-49 -63 -144 -63q-99 0 -155 64t-56 199q0 76 19.5 133.5t52.5 89t70.5 47t79.5 15.5q74 0 116 -42v261h187zM367 153v220q-25 21 -55 21q-44 0 -65 -37.5t-21 -98.5q0 -128 82 -128q33 0 59 23zM588 561l33 194h165l-69 -204z" />
    <glyph glyph-name="Dcroat" unicode="&#x110;" horiz-adv-x="722" 
d="M316 0h-256v291h-65v142h65v291h273q183 0 271 -91.5t88 -259.5q0 -173 -94 -273t-282 -100zM252 143h53q108 0 150 56.5t42 167.5q0 118 -41 165.5t-138 47.5h-66v-147h128v-142h-128v-148z" />
    <glyph glyph-name="dcroat" unicode="&#x111;" horiz-adv-x="599" 
d="M554 755v-80h61v-99h-61v-576h-155l-11 50h-2l-2 1q-49 -63 -144 -63q-99 0 -155 64t-56 199q0 76 19.5 133.5t52.5 89t70.5 47t79.5 15.5q80 0 125 -48v88h-167v99h167v80h178zM368 153v220q-26 21 -56 21q-44 0 -65 -37.5t-21 -98.5q0 -128 82 -128q34 0 60 23z" />
    <glyph glyph-name="Emacron" unicode="&#x112;" horiz-adv-x="588" 
d="M252 285v-134h311v-151h-503v724h481v-150h-289v-142h273v-147h-273zM464 780h-323v118h323v-118z" />
    <glyph glyph-name="emacron" unicode="&#x113;" horiz-adv-x="548" 
d="M290 -12q-72 0 -125 22t-82.5 61.5t-43.5 86.5t-14 103q0 135 73.5 205t188.5 70q121 0 178.5 -65.5t57.5 -183.5q0 -40 -2 -57h-299q0 -58 18.5 -83t60.5 -25q61 0 73 64l148 -36q-14 -74 -73 -118t-159 -44zM224 327h106q1 49 -12.5 67.5t-38.5 18.5q-56 0 -55 -86z
M443 589h-323v118h323v-118z" />
    <glyph glyph-name="Ebreve" unicode="&#x114;" horiz-adv-x="588" 
d="M252 285v-134h311v-151h-503v724h481v-150h-289v-142h273v-147h-273zM306 871q31 0 47 14t23 51l115 -7q-16 -164 -191 -164q-80 0 -128 39t-52 122l120 12q5 -36 20.5 -51.5t45.5 -15.5z" />
    <glyph glyph-name="ebreve" unicode="&#x115;" horiz-adv-x="548" 
d="M290 -12q-72 0 -125 22t-82.5 61.5t-43.5 86.5t-14 103q0 135 73.5 205t188.5 70q121 0 178.5 -65.5t57.5 -183.5q0 -40 -2 -57h-299q0 -58 18.5 -83t60.5 -25q61 0 73 64l148 -36q-14 -74 -73 -118t-159 -44zM224 327h106q1 49 -12.5 67.5t-38.5 18.5q-56 0 -55 -86z
M353 739l115 -7q-16 -164 -191 -164q-81 0 -128.5 39t-51.5 122l120 12q5 -36 20.5 -51.5t45.5 -15.5q31 0 47 14t23 51z" />
    <glyph glyph-name="Edotaccent" unicode="&#x116;" horiz-adv-x="588" 
d="M252 285v-134h311v-151h-503v724h481v-150h-289v-142h273v-147h-273zM410 879q0 -50 -28 -78t-79 -28q-50 0 -78 28t-28 78t28 77t78 27q51 0 79 -27t28 -77z" />
    <glyph glyph-name="edotaccent" unicode="&#x117;" horiz-adv-x="548" 
d="M290 -12q-72 0 -125 22t-82.5 61.5t-43.5 86.5t-14 103q0 135 73.5 205t188.5 70q121 0 178.5 -65.5t57.5 -183.5q0 -40 -2 -57h-299q0 -58 18.5 -83t60.5 -25q61 0 73 64l148 -36q-14 -74 -73 -118t-159 -44zM224 327h106q1 49 -12.5 67.5t-38.5 18.5q-56 0 -55 -86z
M386 682q0 -50 -28 -78t-79 -28q-50 0 -78 28t-28 78t28 77t78 27q51 0 79 -27t28 -77z" />
    <glyph glyph-name="Eogonek" unicode="&#x118;" horiz-adv-x="588" 
d="M494 -102l75 -33q-16 -52 -56.5 -81.5t-95.5 -29.5q-126 0 -126 102q0 76 95 144h-326v724h481v-150h-289v-142h273v-147h-273v-134h311v-151h-65q-39 -38 -57 -63.5t-18 -50.5q0 -30 27 -30q28 0 44 42z" />
    <glyph glyph-name="eogonek" unicode="&#x119;" horiz-adv-x="548" 
d="M398 -102l75 -33q-16 -52 -56.5 -81.5t-95.5 -29.5q-126 0 -126 102q0 69 80 132q-68 3 -117.5 26t-78 61.5t-41.5 84.5t-13 101q0 135 73.5 205t188.5 70q121 0 178.5 -65.5t57.5 -183.5q0 -40 -2 -57h-299q0 -58 18.5 -83t60.5 -25q61 0 73 64l148 -36
q-16 -84 -102 -143q-93 -63 -93 -121q0 -30 27 -30q28 0 44 42zM224 327h106q1 49 -12.5 67.5t-38.5 18.5q-56 0 -55 -86z" />
    <glyph glyph-name="Ecaron" unicode="&#x11a;" horiz-adv-x="588" 
d="M252 285v-134h311v-151h-503v724h481v-150h-289v-142h273v-147h-273zM237 925l64 -69l69 70l121 -6l-101 -149h-177l-94 149z" />
    <glyph glyph-name="ecaron" unicode="&#x11b;" horiz-adv-x="548" 
d="M290 -12q-72 0 -125 22t-82.5 61.5t-43.5 86.5t-14 103q0 135 73.5 205t188.5 70q121 0 178.5 -65.5t57.5 -183.5q0 -40 -2 -57h-299q0 -58 18.5 -83t60.5 -25q61 0 73 64l148 -36q-14 -74 -73 -118t-159 -44zM224 327h106q1 49 -12.5 67.5t-38.5 18.5q-56 0 -55 -86z
M101 735l121 5l64 -83l69 84l118 -6l-101 -163h-177z" />
    <glyph glyph-name="Gcircumflex" unicode="&#x11c;" horiz-adv-x="740" 
d="M556 0l-19 84q-24 -47 -79.5 -71.5t-121.5 -24.5q-156 0 -231 97.5t-75 263.5q0 178 91 283t268 105q278 0 296 -255l-178 -17q-2 25 -7.5 44t-17.5 39t-36.5 31t-59.5 11q-156 0 -156 -224q0 -118 33 -175t120 -57q58 0 89.5 26.5t31.5 73.5v18h-96v126h287v-378h-139z
M451 769l-64 69l-69 -70l-121 6l101 149h177l94 -149z" />
    <glyph glyph-name="gcircumflex" unicode="&#x11d;" horiz-adv-x="565" 
d="M277 536q88 0 149 -31q38 65 95 65q23 0 49 -11v-113q-50 12 -82 7q30 -43 30 -105q0 -87 -64.5 -137.5t-173.5 -50.5q-50 0 -94 10q-10 -12 -10 -23q0 -23 35 -24l160 -8q89 -5 135 -41.5t46 -113.5q0 -94 -73.5 -139.5t-204.5 -45.5q-139 0 -201 29.5t-62 88.5
q0 34 25.5 58t73.5 28v2q-83 27 -83 96q0 38 22 66t62 58q-74 47 -74 140q0 20 5 45q15 68 76 109t159 41zM472 580l-118 -5l-64 84l-69 -85l-121 6l101 164h177zM354 348q0 67 -69 67q-74 0 -74 -66q0 -67 71 -67q32 0 52 17.5t20 48.5zM375 -78q0 17 -11.5 25t-42.5 9
l-129 6q-18 -15 -18 -34q0 -44 113 -44q88 0 88 38z" />
    <glyph glyph-name="Gbreve" unicode="&#x11e;" horiz-adv-x="740" 
d="M556 0l-19 84q-24 -47 -79.5 -71.5t-121.5 -24.5q-156 0 -231 97.5t-75 263.5q0 178 91 283t268 105q278 0 296 -255l-178 -17q-2 25 -7.5 44t-17.5 39t-36.5 31t-59.5 11q-156 0 -156 -224q0 -118 33 -175t120 -57q58 0 89.5 26.5t31.5 73.5v18h-96v126h287v-378h-139z
M390 871q31 0 47 14t23 51l115 -7q-16 -164 -191 -164q-80 0 -128 39t-52 122l120 12q5 -36 20.5 -51.5t45.5 -15.5z" />
    <glyph glyph-name="gbreve" unicode="&#x11f;" horiz-adv-x="565" 
d="M277 536q83 0 131 -24q35 86 101 86q18 0 35 -6v-114q-37 1 -73 -8q47 -53 47 -122q0 -87 -64.5 -137.5t-173.5 -50.5q-50 0 -94 10q-10 -12 -10 -23q0 -23 35 -24l160 -8q89 -5 135 -41.5t46 -113.5q0 -94 -73.5 -139.5t-204.5 -45.5q-139 0 -201 29.5t-62 88.5
q0 34 25.5 58t73.5 28v2q-83 27 -83 96q0 38 22 66t62 58q-74 47 -74 140q0 85 63 140t177 55zM354 348q0 67 -69 67q-74 0 -74 -66q0 -67 71 -67q32 0 52 17.5t20 48.5zM375 -78q0 17 -11.5 25t-42.5 9l-129 6q-18 -15 -18 -34q0 -44 113 -44q88 0 88 38zM357 739l115 -7
q-16 -164 -191 -164q-80 0 -128 39t-52 122l120 12q5 -36 20.5 -51.5t45.5 -15.5q31 0 47 14t23 51z" />
    <glyph glyph-name="Gdotaccent" unicode="&#x120;" horiz-adv-x="740" 
d="M556 0l-19 84q-24 -47 -79.5 -71.5t-121.5 -24.5q-156 0 -231 97.5t-75 263.5q0 178 91 283t268 105q278 0 296 -255l-178 -17q-2 25 -7.5 44t-17.5 39t-36.5 31t-59.5 11q-156 0 -156 -224q0 -118 33 -175t120 -57q58 0 89.5 26.5t31.5 73.5v18h-96v126h287v-378h-139z
M494 879q0 -50 -28 -78t-79 -28q-50 0 -78 28t-28 78t28 77t78 27q51 0 79 -27t28 -77z" />
    <glyph glyph-name="gdotaccent" unicode="&#x121;" horiz-adv-x="565" 
d="M277 536q83 0 131 -24q35 86 101 86q18 0 35 -6v-114q-37 1 -73 -8q47 -53 47 -122q0 -87 -64.5 -137.5t-173.5 -50.5q-50 0 -94 10q-10 -12 -10 -23q0 -23 35 -24l160 -8q89 -5 135 -41.5t46 -113.5q0 -94 -73.5 -139.5t-204.5 -45.5q-139 0 -201 29.5t-62 88.5
q0 34 25.5 58t73.5 28v2q-83 27 -83 96q0 38 22 66t62 58q-74 47 -74 140q0 85 63 140t177 55zM354 348q0 67 -69 67q-74 0 -74 -66q0 -67 71 -67q32 0 52 17.5t20 48.5zM375 -78q0 17 -11.5 25t-42.5 9l-129 6q-18 -15 -18 -34q0 -44 113 -44q88 0 88 38zM391 682
q0 -50 -28 -78t-79 -28q-50 0 -78 28t-28 78t28 77t78 27q51 0 79 -27t28 -77z" />
    <glyph glyph-name="Gcommaaccent" unicode="&#x122;" horiz-adv-x="740" 
d="M556 0l-19 84q-24 -47 -79.5 -71.5t-121.5 -24.5q-156 0 -231 97.5t-75 263.5q0 178 91 283t268 105q278 0 296 -255l-178 -17q-2 25 -7.5 44t-17.5 39t-36.5 31t-59.5 11q-156 0 -156 -224q0 -118 33 -175t120 -57q58 0 89.5 26.5t31.5 73.5v18h-96v126h287v-378h-139z
M246 -273l51 206h166l-92 -223z" />
    <glyph glyph-name="gcommaaccent" unicode="&#x123;" horiz-adv-x="565" 
d="M277 536q83 0 131 -24q35 86 101 86q18 0 35 -6v-114q-37 1 -73 -8q47 -53 47 -122q0 -87 -64.5 -137.5t-173.5 -50.5q-50 0 -94 10q-10 -12 -10 -23q0 -23 35 -24l160 -8q89 -5 135 -41.5t46 -113.5q0 -94 -73.5 -139.5t-204.5 -45.5q-139 0 -201 29.5t-62 88.5
q0 34 25.5 58t73.5 28v2q-83 27 -83 96q0 38 22 66t62 58q-74 47 -74 140q0 85 63 140t177 55zM354 348q0 67 -69 67q-74 0 -74 -66q0 -67 71 -67q32 0 52 17.5t20 48.5zM375 -78q0 17 -11.5 25t-42.5 9l-129 6q-18 -15 -18 -34q0 -44 113 -44q88 0 88 38zM408 775l-51 -206
h-166l92 223z" />
    <glyph glyph-name="Hcircumflex" unicode="&#x124;" horiz-adv-x="736" 
d="M676 724v-724h-192v281h-232v-281h-192v724h192v-284h232v284h192zM433 769l-64 69l-69 -70l-121 6l101 149h177l94 -149z" />
    <glyph glyph-name="hcircumflex" unicode="&#x125;" horiz-adv-x="584" 
d="M543 360v-360h-187v327q0 65 -53 65q-43 0 -73 -30v-362h-187v755h185v-280q61 61 150 61q85 0 125 -43t40 -133zM203 790l-64 69l-69 -70l-121 6l101 149h177l94 -149z" />
    <glyph glyph-name="Hbar" unicode="&#x126;" horiz-adv-x="736" 
d="M676 724v-90h61v-122h-61v-512h-192v281h-232v-281h-192v512h-59v122h59v90h192v-90h232v90h192zM252 440h232v72h-232v-72z" />
    <glyph glyph-name="hbar" unicode="&#x127;" horiz-adv-x="584" 
d="M-10 576v99h53v80h185v-80h168v-99h-168v-101q61 61 150 61q85 0 125 -43t40 -133v-360h-187v327q0 65 -53 65q-43 0 -73 -30v-362h-187v576h-53z" />
    <glyph glyph-name="Itilde" unicode="&#x128;" horiz-adv-x="312" 
d="M252 724v-724h-192v724h192zM79 944q36 0 81.5 -21t65.5 -21q15 0 20 9t5 31l88 -5q8 -67 -14.5 -109t-80.5 -42q-40 0 -86.5 21.5t-63.5 21.5t-23 -9.5t-2 -34.5l-97 4q-8 69 20.5 112t86.5 43z" />
    <glyph glyph-name="itilde" unicode="&#x129;" horiz-adv-x="279" 
d="M234 525v-525h-187v525h187zM65 740q36 0 81.5 -21t65.5 -21q15 0 20 9t5 31l88 -5q8 -67 -14.5 -109t-80.5 -42q-40 0 -86.5 21.5t-63.5 21.5t-23 -9.5t-2 -34.5l-97 4q-8 69 20.5 112t86.5 43z" />
    <glyph glyph-name="Imacron" unicode="&#x12a;" horiz-adv-x="312" 
d="M252 724v-724h-192v724h192zM318 780h-323v118h323v-118z" />
    <glyph glyph-name="imacron" unicode="&#x12b;" horiz-adv-x="279" 
d="M234 525v-525h-187v525h187zM301 589h-323v118h323v-118z" />
    <glyph glyph-name="Ibreve" unicode="&#x12c;" horiz-adv-x="312" 
d="M252 724v-724h-192v724h192zM160 871q31 0 47 14t23 51l115 -7q-16 -164 -191 -164q-80 0 -128 39t-52 122l120 12q5 -36 20.5 -51.5t45.5 -15.5z" />
    <glyph glyph-name="ibreve" unicode="&#x12d;" horiz-adv-x="279" 
d="M234 525v-525h-187v525h187zM212 739l115 -7q-16 -164 -191 -164q-80 0 -128 39t-52 122l120 12q5 -36 20.5 -51.5t45.5 -15.5q31 0 47 14t23 51z" />
    <glyph glyph-name="Iogonek" unicode="&#x12e;" horiz-adv-x="312" 
d="M215 -102l75 -33q-16 -52 -56.5 -81.5t-95.5 -29.5q-126 0 -126 102q0 76 95 144h-47v724h192v-724q-47 -21 -77.5 -54t-30.5 -60q0 -30 27 -30q28 0 44 42z" />
    <glyph glyph-name="iogonek" unicode="&#x12f;" horiz-adv-x="279" 
d="M197 -102l75 -33q-16 -52 -56.5 -81.5t-95.5 -29.5q-126 0 -126 102q0 76 95 144h-42v525h187v-525q-53 -25 -80.5 -55.5t-27.5 -58.5q0 -30 27 -30q28 0 44 42zM247 682q0 -50 -28 -78t-79 -28q-50 0 -78 28t-28 78t28 77t78 27q51 0 79 -27t28 -77z" />
    <glyph glyph-name="Idotaccent" unicode="&#x130;" horiz-adv-x="312" 
d="M252 724v-724h-192v724h192zM264 879q0 -50 -28 -78t-79 -28q-50 0 -78 28t-28 78t28 77t78 27q51 0 79 -27t28 -77z" />
    <glyph glyph-name="dotlessi" unicode="&#x131;" horiz-adv-x="279" 
d="M234 525v-525h-187v525h187z" />
    <glyph glyph-name="IJ" unicode="&#x132;" horiz-adv-x="860" 
d="M252 724v-724h-192v724h192zM613 204v520h192v-511q0 -107 -64.5 -166t-180.5 -59q-51 0 -91 10t-74 33.5t-53.5 67t-21.5 106.5l185 27q2 -35 5.5 -53t16 -32t35.5 -14q27 0 39 17t12 54z" />
    <glyph glyph-name="Jcircumflex" unicode="&#x134;" horiz-adv-x="548" 
d="M301 204v520h192v-511q0 -107 -64.5 -166t-180.5 -59q-51 0 -91 10t-74 33.5t-53.5 67t-21.5 106.5l185 27q2 -35 5.5 -53t16 -32t35.5 -14q27 0 39 17t12 54zM461 769l-64 69l-69 -70l-121 6l101 149h177l94 -149z" />
    <glyph glyph-name="jcircumflex" unicode="&#x135;" horiz-adv-x="278" 
d="M24 -223q-92 0 -138 32l11 125q42 -21 86 -21q64 0 64 75v537h187v-552q0 -101 -57 -148.5t-153 -47.5zM325 580l-118 -5l-64 84l-69 -85l-121 6l101 164h177z" />
    <glyph glyph-name="Kcommaaccent" unicode="&#x136;" horiz-adv-x="690" 
d="M251 724v-294l254 294h200l-252 -296l237 -428h-223l-152 283l-64 -71v-212h-191v724h191zM229 -273l51 206h166l-92 -223z" />
    <glyph glyph-name="kcommaaccent" unicode="&#x137;" horiz-adv-x="584" 
d="M232 755v-391l143 161h206l-170 -188l183 -337h-207l-121 224l-34 -34v-190h-187v755h187zM171 -272l51 206h166l-92 -223z" />
    <glyph glyph-name="kgreenlandic" unicode="&#x138;" horiz-adv-x="584" 
d="M232 525v-161l143 161h206l-170 -188l183 -337h-207l-121 224l-34 -34v-190h-187v525h187z" />
    <glyph glyph-name="Lacute" unicode="&#x139;" horiz-adv-x="578" 
d="M252 724v-568h301v-156h-493v724h192zM338 918l-150 -150l-129 7l86 143h193z" />
    <glyph glyph-name="lacute" unicode="&#x13a;" horiz-adv-x="279" 
d="M234 755v-755h-187v755h187zM321 938l-150 -150l-129 7l86 143h193z" />
    <glyph glyph-name="Lcommaaccent" unicode="&#x13b;" horiz-adv-x="578" 
d="M252 724v-568h301v-156h-493v724h192zM186 -273l51 206h166l-92 -223z" />
    <glyph glyph-name="lcommaaccent" unicode="&#x13c;" horiz-adv-x="279" 
d="M234 755v-755h-187v755h187zM17 -273l51 206h166l-92 -223z" />
    <glyph glyph-name="Lcaron" unicode="&#x13d;" horiz-adv-x="578" 
d="M252 724v-568h301v-156h-493v724h192zM328 530l33 194h165l-69 -204z" />
    <glyph glyph-name="lcaron" unicode="&#x13e;" horiz-adv-x="389" 
d="M234 755v-755h-187v755h187zM265 561l33 194h165l-69 -204z" />
    <glyph glyph-name="Ldot" unicode="&#x13f;" horiz-adv-x="578" 
d="M252 724v-568h301v-156h-493v724h192zM545 414q0 -50 -28 -78t-79 -28q-50 0 -78 28t-28 78t28 77t78 27q51 0 79 -27t28 -77z" />
    <glyph glyph-name="ldot" unicode="&#x140;" horiz-adv-x="456" 
d="M234 755v-755h-187v755h187zM473 403q0 -47 -26.5 -73.5t-75.5 -26.5q-47 0 -73.5 26.5t-26.5 73.5q0 48 26 73.5t74 25.5q49 0 75.5 -25.5t26.5 -73.5z" />
    <glyph glyph-name="Lslash" unicode="&#x141;" horiz-adv-x="578" 
d="M252 724v-266l171 69v-136l-171 -68v-167h301v-156h-493v256l-71 -28v135l71 28v333h192z" />
    <glyph glyph-name="lslash" unicode="&#x142;" horiz-adv-x="347" 
d="M267 755v-270l65 27v-134l-65 -27v-351h-187v291l-65 -26v134l65 26v330h187z" />
    <glyph glyph-name="Nacute" unicode="&#x143;" horiz-adv-x="745" 
d="M685 0h-217l-234 462v-462h-174v724h223l230 -467v467h172v-724zM594 918l-150 -150l-129 7l86 143h193z" />
    <glyph glyph-name="nacute" unicode="&#x144;" horiz-adv-x="584" 
d="M543 360v-360h-187v327q0 65 -53 65q-43 0 -73 -30v-362h-187v525h166l9 -51q60 62 156 62q87 0 128 -43t41 -133zM478 741l-132 -169l-122 7l61 162h193z" />
    <glyph glyph-name="Ncommaaccent" unicode="&#x145;" horiz-adv-x="745" 
d="M685 0h-217l-234 462v-462h-174v724h223l230 -467v467h172v-724zM256 -273l51 206h166l-92 -223z" />
    <glyph glyph-name="ncommaaccent" unicode="&#x146;" horiz-adv-x="584" 
d="M543 360v-360h-187v327q0 65 -53 65q-43 0 -73 -30v-362h-187v525h166l9 -51q60 62 156 62q87 0 128 -43t41 -133zM168 -273l51 206h166l-92 -223z" />
    <glyph glyph-name="Ncaron" unicode="&#x147;" horiz-adv-x="745" 
d="M685 0h-217l-234 462v-462h-174v724h223l230 -467v467h172v-724zM317 925l64 -69l69 70l121 -6l-101 -149h-177l-94 149z" />
    <glyph glyph-name="ncaron" unicode="&#x148;" horiz-adv-x="584" 
d="M543 360v-360h-187v327q0 65 -53 65q-43 0 -73 -30v-362h-187v525h166l9 -51q60 62 156 62q87 0 128 -43t41 -133zM116 735l121 5l64 -83l69 84l118 -6l-101 -163h-177z" />
    <glyph glyph-name="napostrophe" unicode="&#x149;" horiz-adv-x="650" 
d="M609 360v-360h-187v327q0 65 -53 65q-43 0 -73 -30v-362h-187v525h166l9 -51q60 62 156 62q87 0 128 -43t41 -133zM-45 513l46 186h150l-83 -201z" />
    <glyph glyph-name="Eng" unicode="&#x14a;" horiz-adv-x="745" 
d="M499 -12v12l-265 462v-462h-174v724h215l238 -433v433h172v-745q0 -107 -55.5 -154.5t-169.5 -47.5q-47 0 -90 10t-63 21l11 125q50 -20 101 -20q37 0 58.5 16t21.5 59z" />
    <glyph glyph-name="eng" unicode="&#x14b;" horiz-adv-x="584" 
d="M333 -223q-92 0 -138 32l11 125q42 -21 86 -21q64 0 64 75v339q0 65 -53 65q-43 0 -73 -30v-362h-187v525h166l9 -51q60 62 156 62q87 0 128 -43t41 -133v-387q0 -101 -57 -148.5t-153 -47.5z" />
    <glyph glyph-name="Omacron" unicode="&#x14c;" horiz-adv-x="761" 
d="M375 -12q-178 0 -261.5 99t-83.5 270q0 169 93 274.5t269 105.5q89 0 155.5 -28.5t106 -79.5t58.5 -115.5t19 -142.5q0 -181 -89 -282t-267 -101zM382 138q73 0 112.5 51.5t39.5 172.5q0 119 -36.5 172t-109.5 53q-160 0 -160 -226q0 -121 38 -172t116 -51zM549 780h-323
v118h323v-118z" />
    <glyph glyph-name="omacron" unicode="&#x14d;" horiz-adv-x="593" 
d="M289 -12q-264 0 -264 272q0 130 69.5 203t208.5 73q138 0 201.5 -71t63.5 -195q0 -133 -68.5 -207.5t-210.5 -74.5zM297 114q40 0 58 33t18 118q0 82 -16 112t-57 30q-42 0 -60.5 -30.5t-18.5 -112.5q0 -86 16.5 -118t59.5 -32zM461 589h-323v118h323v-118z" />
    <glyph glyph-name="Obreve" unicode="&#x14e;" horiz-adv-x="761" 
d="M375 -12q-178 0 -261.5 99t-83.5 270q0 169 93 274.5t269 105.5q89 0 155.5 -28.5t106 -79.5t58.5 -115.5t19 -142.5q0 -181 -89 -282t-267 -101zM382 138q73 0 112.5 51.5t39.5 172.5q0 119 -36.5 172t-109.5 53q-160 0 -160 -226q0 -121 38 -172t116 -51zM391 871
q31 0 47 14t23 51l115 -7q-16 -164 -191 -164q-81 0 -128.5 39t-51.5 122l120 12q5 -36 20.5 -51.5t45.5 -15.5z" />
    <glyph glyph-name="obreve" unicode="&#x14f;" horiz-adv-x="593" 
d="M289 -12q-264 0 -264 272q0 130 69.5 203t208.5 73q138 0 201.5 -71t63.5 -195q0 -133 -68.5 -207.5t-210.5 -74.5zM297 114q40 0 58 33t18 118q0 82 -16 112t-57 30q-42 0 -60.5 -30.5t-18.5 -112.5q0 -86 16.5 -118t59.5 -32zM372 739l115 -7q-16 -164 -191 -164
q-80 0 -128 39t-52 122l120 12q5 -36 20.5 -51.5t45.5 -15.5q31 0 47 14t23 51z" />
    <glyph glyph-name="Ohungarumlaut" unicode="&#x150;" horiz-adv-x="761" 
d="M375 -12q-178 0 -261.5 99t-83.5 270q0 169 93 274.5t269 105.5q89 0 155.5 -28.5t106 -79.5t58.5 -115.5t19 -142.5q0 -181 -89 -282t-267 -101zM382 138q73 0 112.5 51.5t39.5 172.5q0 119 -36.5 172t-109.5 53q-160 0 -160 -226q0 -121 38 -172t116 -51zM452 916
l-107 -148l-115 12l40 136h182zM678 921l-160 -153l-122 7l89 146h193z" />
    <glyph glyph-name="ohungarumlaut" unicode="&#x151;" horiz-adv-x="593" 
d="M289 -12q-264 0 -264 272q0 130 69.5 203t208.5 73q138 0 201.5 -71t63.5 -195q0 -133 -68.5 -207.5t-210.5 -74.5zM297 114q40 0 58 33t18 118q0 82 -16 112t-57 30q-42 0 -60.5 -30.5t-18.5 -112.5q0 -86 16.5 -118t59.5 -32zM363 741l-94 -169l-115 12l27 157h182z
M589 746l-147 -174l-122 7l76 167h193z" />
    <glyph glyph-name="OE" unicode="&#x152;" horiz-adv-x="1062" 
d="M1037 0h-483v41q-33 -24 -82.5 -38.5t-96.5 -14.5q-178 0 -261.5 99t-83.5 270q0 168 91.5 274t260.5 106q104 0 172 -55v42h461v-150h-289v-142h273v-147h-273v-134h311v-151zM382 138q71 0 110.5 48.5t41.5 162.5v25q-2 112 -38.5 162.5t-107.5 50.5q-160 0 -160 -226
q0 -121 38 -172t116 -51z" />
    <glyph glyph-name="oe" unicode="&#x153;" horiz-adv-x="884" 
d="M643 -12q-63 0 -109 24t-71 58q-68 -82 -185 -82q-132 0 -192.5 72.5t-60.5 199.5q0 129 67.5 202.5t197.5 73.5q63 0 104.5 -19t74.5 -58q64 77 173 77q108 0 162.5 -66t54.5 -183q0 -40 -2 -57h-299q0 -58 18.5 -83t60.5 -25q61 0 73 64l148 -36q-14 -73 -70.5 -117.5
t-144.5 -44.5zM297 114q40 0 58 33t18 118q0 82 -16 112t-57 30q-42 0 -60.5 -30.5t-18.5 -112.5q0 -86 16.5 -118t59.5 -32zM560 327h106q1 49 -12.5 67.5t-38.5 18.5q-56 0 -55 -86z" />
    <glyph glyph-name="Racute" unicode="&#x154;" horiz-adv-x="652" 
d="M490 313l157 -313h-207l-129 267h-60v-267h-191v724h303q126 0 185 -58t59 -149q0 -143 -117 -204zM251 405h46q112 0 112 94q0 81 -97 81h-61v-175zM486 918l-150 -150l-129 7l86 143h193z" />
    <glyph glyph-name="racute" unicode="&#x155;" horiz-adv-x="411" 
d="M406 534v-173q-108 6 -176 -44v-317h-187v525h160l14 -87q58 98 160 98q9 0 29 -2zM395 741l-132 -169l-122 7l61 162h193z" />
    <glyph glyph-name="Rcommaaccent" unicode="&#x156;" horiz-adv-x="652" 
d="M490 313l157 -313h-207l-129 267h-60v-267h-191v724h303q126 0 185 -58t59 -149q0 -143 -117 -204zM251 405h46q112 0 112 94q0 81 -97 81h-61v-175zM213 -273l51 206h166l-92 -223z" />
    <glyph glyph-name="rcommaaccent" unicode="&#x157;" horiz-adv-x="411" 
d="M406 534v-173q-108 6 -176 -44v-317h-187v525h160l14 -87q58 98 160 98q9 0 29 -2zM14 -273l51 206h166l-92 -223z" />
    <glyph glyph-name="Rcaron" unicode="&#x158;" horiz-adv-x="652" 
d="M490 313l157 -313h-207l-129 267h-60v-267h-191v724h303q126 0 185 -58t59 -149q0 -143 -117 -204zM251 405h46q112 0 112 94q0 81 -97 81h-61v-175zM233 925l64 -69l69 70l121 -6l-101 -149h-177l-94 149z" />
    <glyph glyph-name="rcaron" unicode="&#x159;" horiz-adv-x="411" 
d="M406 534v-173q-108 6 -176 -44v-317h-187v525h160l14 -87q58 98 160 98q9 0 29 -2zM42 735l121 5l64 -83l69 84l118 -6l-101 -163h-177z" />
    <glyph glyph-name="Sacute" unicode="&#x15a;" horiz-adv-x="609" 
d="M300 600q-86 0 -86 -62q0 -30 27.5 -50t68.5 -30t89 -26t89 -36.5t68.5 -64t27.5 -105.5q0 -61 -24 -108.5t-65 -75t-92 -41t-109 -13.5q-280 0 -290 234l171 24q9 -59 34 -89.5t90 -30.5q100 0 100 74q0 27 -20.5 44.5t-53 27.5t-72 19.5t-79 24t-72 36.5t-53 62
t-20.5 96q0 107 78.5 167t197.5 60q43 0 77.5 -4.5t70.5 -18.5t60.5 -37t41.5 -62t19 -91l-174 -19q-2 51 -25.5 73t-74.5 22zM489 918l-150 -150l-129 7l86 143h193z" />
    <glyph glyph-name="sacute" unicode="&#x15b;" horiz-adv-x="510" 
d="M260 536q173 0 221 -133l-144 -49q-23 64 -78 64q-54 0 -54 -35q0 -12 6.5 -20t24.5 -13.5t28.5 -7.5t40.5 -7q40 -6 65 -13t56.5 -23.5t47.5 -47.5t16 -76q0 -93 -70.5 -140t-176.5 -47q-199 0 -232 130l148 56q23 -68 90 -68q62 0 62 36q0 12 -6.5 20t-22 13.5t-28 8.5
t-37.5 8q-34 6 -52.5 10.5t-48.5 16.5t-46 28t-29 44.5t-13 66.5q0 86 66 132t166 46zM426 741l-132 -169l-122 7l61 162h193z" />
    <glyph glyph-name="Scircumflex" unicode="&#x15c;" horiz-adv-x="609" 
d="M300 600q-86 0 -86 -62q0 -30 27.5 -50t68.5 -30t89 -26t89 -36.5t68.5 -64t27.5 -105.5q0 -61 -24 -108.5t-65 -75t-92 -41t-109 -13.5q-280 0 -290 234l171 24q9 -59 34 -89.5t90 -30.5q100 0 100 74q0 27 -20.5 44.5t-53 27.5t-72 19.5t-79 24t-72 36.5t-53 62
t-20.5 96q0 107 78.5 167t197.5 60q43 0 77.5 -4.5t70.5 -18.5t60.5 -37t41.5 -62t19 -91l-174 -19q-2 51 -25.5 73t-74.5 22zM374 769l-64 69l-69 -70l-121 6l101 149h177l94 -149z" />
    <glyph glyph-name="scircumflex" unicode="&#x15d;" horiz-adv-x="510" 
d="M260 536q173 0 221 -133l-144 -49q-23 64 -78 64q-54 0 -54 -35q0 -12 6.5 -20t24.5 -13.5t28.5 -7.5t40.5 -7q40 -6 65 -13t56.5 -23.5t47.5 -47.5t16 -76q0 -93 -70.5 -140t-176.5 -47q-199 0 -232 130l148 56q23 -68 90 -68q62 0 62 36q0 12 -6.5 20t-22 13.5t-28 8.5
t-37.5 8q-34 6 -52.5 10.5t-48.5 16.5t-46 28t-29 44.5t-13 66.5q0 86 66 132t166 46zM444 580l-118 -5l-64 84l-69 -85l-121 6l101 164h177z" />
    <glyph glyph-name="Scedilla" unicode="&#x15e;" horiz-adv-x="609" 
d="M199 -246l9 81q27 -6 50 -6q51 0 51 35q0 21 -15 28t-45 8l11 89q-247 13 -256 233l171 24q9 -59 34 -89.5t90 -30.5q100 0 100 74q0 27 -20.5 44.5t-53 27.5t-72 19.5t-79 24t-72 36.5t-53 62t-20.5 96q0 107 78.5 167t197.5 60q43 0 77.5 -4.5t70.5 -18.5t60.5 -37
t41.5 -62t19 -91l-174 -19q-2 51 -25.5 73t-74.5 22q-86 0 -86 -62q0 -30 27.5 -50t68.5 -30t89 -26t89 -36.5t68.5 -64t27.5 -105.5q0 -107 -68 -165.5t-174 -69.5l-5 -37q89 -15 89 -93q0 -58 -40 -88.5t-104 -30.5q-40 0 -83 12z" />
    <glyph glyph-name="scedilla" unicode="&#x15f;" horiz-adv-x="510" 
d="M142 -246l9 81q27 -6 50 -6q51 0 51 35q0 21 -15 28t-45 8l11 90q-164 13 -192 128l148 56q23 -68 90 -68q62 0 62 36q0 12 -6.5 20t-22 13.5t-28 8.5t-37.5 8q-34 6 -52.5 10.5t-48.5 16.5t-46 28t-29 44.5t-13 66.5q0 86 66 132t166 46q173 0 221 -133l-144 -49
q-23 64 -78 64q-54 0 -54 -35q0 -12 6.5 -20t24.5 -13.5t28.5 -7.5t40.5 -7q40 -6 65 -13t56.5 -23.5t47.5 -47.5t16 -76q0 -83 -57.5 -129.5t-148.5 -55.5l-4 -36q89 -15 89 -93q0 -58 -40 -88.5t-104 -30.5q-39 0 -83 12z" />
    <glyph glyph-name="Scaron" unicode="&#x160;" horiz-adv-x="609" 
d="M300 600q-86 0 -86 -62q0 -30 27.5 -50t68.5 -30t89 -26t89 -36.5t68.5 -64t27.5 -105.5q0 -61 -24 -108.5t-65 -75t-92 -41t-109 -13.5q-280 0 -290 234l171 24q9 -59 34 -89.5t90 -30.5q100 0 100 74q0 27 -20.5 44.5t-53 27.5t-72 19.5t-79 24t-72 36.5t-53 62
t-20.5 96q0 107 78.5 167t197.5 60q43 0 77.5 -4.5t70.5 -18.5t60.5 -37t41.5 -62t19 -91l-174 -19q-2 51 -25.5 73t-74.5 22zM244 925l64 -69l69 70l121 -6l-101 -149h-177l-94 149z" />
    <glyph glyph-name="scaron" unicode="&#x161;" horiz-adv-x="510" 
d="M260 536q173 0 221 -133l-144 -49q-23 64 -78 64q-54 0 -54 -35q0 -12 6.5 -20t24.5 -13.5t28.5 -7.5t40.5 -7q40 -6 65 -13t56.5 -23.5t47.5 -47.5t16 -76q0 -93 -70.5 -140t-176.5 -47q-199 0 -232 130l148 56q23 -68 90 -68q62 0 62 36q0 12 -6.5 20t-22 13.5t-28 8.5
t-37.5 8q-34 6 -52.5 10.5t-48.5 16.5t-46 28t-29 44.5t-13 66.5q0 86 66 132t166 46zM74 735l121 5l64 -83l69 84l118 -6l-101 -163h-177z" />
    <glyph glyph-name="uni0162" unicode="&#x162;" horiz-adv-x="620" 
d="M206 -246l9 81q27 -6 50 -6q51 0 51 35q0 21 -15 28t-45 8l13 100h-54v569h-210v155h610v-155h-208v-569h-57l-6 -46q89 -15 89 -93q0 -58 -40 -88.5t-104 -30.5q-39 0 -83 12z" />
    <glyph glyph-name="uni0163" unicode="&#x163;" horiz-adv-x="431" 
d="M142 -246l9 81q27 -6 50 -6q51 0 51 35q0 21 -15 28t-45 8l12 93q-127 21 -127 175v233h-77v124h77v156l187 24v-180h136v-124h-136v-212q0 -32 12.5 -47t41.5 -15q42 0 84 23l24 -120q-55 -34 -142 -41l-4 -35q89 -15 89 -93q0 -58 -40 -88.5t-104 -30.5q-39 0 -83 12z
" />
    <glyph glyph-name="Tcaron" unicode="&#x164;" horiz-adv-x="620" 
d="M407 0h-192v569h-210v155h610v-155h-208v-569zM245 925l64 -69l69 70l121 -6l-101 -149h-177l-94 149z" />
    <glyph glyph-name="tcaron" unicode="&#x165;" horiz-adv-x="444" 
d="M402 150l24 -120q-25 -16 -71 -29t-98 -13q-90 0 -135 43.5t-45 136.5v233h-77v124h77v156l187 24v-180h136v-124h-136v-212q0 -32 12.5 -47t41.5 -15q42 0 84 23zM300 587l33 194h165l-69 -204z" />
    <glyph glyph-name="Tbar" unicode="&#x166;" horiz-adv-x="620" 
d="M407 0h-192v275h-128v139h128v155h-210v155h610v-155h-208v-155h133v-139h-133v-275z" />
    <glyph glyph-name="tbar" unicode="&#x167;" horiz-adv-x="431" 
d="M402 150l24 -120q-25 -16 -71 -29t-98 -13q-90 0 -135 43.5t-45 136.5v50h-77v118h77v65h-77v124h77v156l187 24v-180h136v-124h-136v-65h136v-118h-136v-29q0 -32 12.5 -47t41.5 -15q42 0 84 23z" />
    <glyph glyph-name="Utilde" unicode="&#x168;" horiz-adv-x="704" 
d="M354 136q67 0 87.5 34.5t20.5 122.5v431h191l1 -454q0 -144 -82 -213t-224 -69q-156 0 -227 68.5t-71 218.5v449h192v-427q0 -87 21 -124t91 -37zM275 944q36 0 81.5 -21t65.5 -21q15 0 20 9t5 31l88 -5q8 -67 -14.5 -109t-80.5 -42q-40 0 -86.5 21.5t-63.5 21.5
t-23 -9.5t-2 -34.5l-97 4q-8 69 20.5 112t86.5 43z" />
    <glyph glyph-name="utilde" unicode="&#x169;" horiz-adv-x="576" 
d="M41 161v364h187v-327q0 -35 11.5 -50t37.5 -15q39 0 69 30v362h187v-525h-160l-14 60q-51 -72 -155 -72q-163 0 -163 173zM214 740q36 0 81.5 -21t65.5 -21q15 0 20 9t5 31l88 -5q8 -67 -14.5 -109t-80.5 -42q-40 0 -86.5 21.5t-63.5 21.5t-23 -9.5t-2 -34.5l-97 4
q-8 69 20.5 112t86.5 43z" />
    <glyph glyph-name="Umacron" unicode="&#x16a;" horiz-adv-x="704" 
d="M354 136q67 0 87.5 34.5t20.5 122.5v431h191l1 -454q0 -144 -82 -213t-224 -69q-156 0 -227 68.5t-71 218.5v449h192v-427q0 -87 21 -124t91 -37zM514 780h-323v118h323v-118z" />
    <glyph glyph-name="umacron" unicode="&#x16b;" horiz-adv-x="576" 
d="M41 161v364h187v-327q0 -35 11.5 -50t37.5 -15q39 0 69 30v362h187v-525h-160l-14 60q-51 -72 -155 -72q-163 0 -163 173zM450 589h-323v118h323v-118z" />
    <glyph glyph-name="Ubreve" unicode="&#x16c;" horiz-adv-x="704" 
d="M354 136q67 0 87.5 34.5t20.5 122.5v431h191l1 -454q0 -144 -82 -213t-224 -69q-156 0 -227 68.5t-71 218.5v449h192v-427q0 -87 21 -124t91 -37zM356 871q31 0 47 14t23 51l115 -7q-16 -164 -191 -164q-80 0 -128 39t-52 122l120 12q5 -36 20.5 -51.5t45.5 -15.5z" />
    <glyph glyph-name="ubreve" unicode="&#x16d;" horiz-adv-x="576" 
d="M41 161v364h187v-327q0 -35 11.5 -50t37.5 -15q39 0 69 30v362h187v-525h-160l-14 60q-51 -72 -155 -72q-163 0 -163 173zM361 739l115 -7q-16 -164 -191 -164q-81 0 -128.5 39t-51.5 122l120 12q5 -36 20.5 -51.5t45.5 -15.5q31 0 47 14t23 51z" />
    <glyph glyph-name="Uring" unicode="&#x16e;" horiz-adv-x="704" 
d="M354 136q67 0 87.5 34.5t20.5 122.5v431h191l1 -454q0 -144 -82 -213t-224 -69q-156 0 -227 68.5t-71 218.5v449h192v-427q0 -87 21 -124t91 -37zM473 836q0 -53 -33 -82t-87 -29t-87.5 28.5t-33.5 79.5q0 54 35 84t86 30q52 0 86 -29.5t34 -81.5zM352 791q46 0 46 48
q0 45 -45 45q-22 0 -35 -11.5t-13 -33.5q0 -48 47 -48z" />
    <glyph glyph-name="uring" unicode="&#x16f;" horiz-adv-x="576" 
d="M41 161v364h187v-327q0 -35 11.5 -50t37.5 -15q39 0 69 30v362h187v-525h-160l-14 60q-51 -72 -155 -72q-163 0 -163 173zM405 675q0 -51 -32 -79t-84 -28t-84.5 27.5t-32.5 76.5q0 52 33.5 81.5t83.5 29.5t83 -28.5t33 -79.5zM288 634q41 0 41 41q0 19 -11 29.5
t-29 10.5q-19 0 -30.5 -10.5t-11.5 -29.5q0 -41 41 -41z" />
    <glyph glyph-name="Uhungarumlaut" unicode="&#x170;" horiz-adv-x="704" 
d="M354 136q67 0 87.5 34.5t20.5 122.5v431h191l1 -454q0 -144 -82 -213t-224 -69q-156 0 -227 68.5t-71 218.5v449h192v-427q0 -87 21 -124t91 -37zM417 916l-107 -148l-115 12l40 136h182zM643 921l-160 -153l-122 7l89 146h193z" />
    <glyph glyph-name="uhungarumlaut" unicode="&#x171;" horiz-adv-x="576" 
d="M41 161v364h187v-327q0 -35 11.5 -50t37.5 -15q39 0 69 30v362h187v-525h-160l-14 60q-51 -72 -155 -72q-163 0 -163 173zM352 741l-94 -169l-115 12l27 157h182zM578 746l-147 -174l-122 7l76 167h193z" />
    <glyph glyph-name="Uogonek" unicode="&#x172;" horiz-adv-x="704" 
d="M483 -102l75 -33q-16 -52 -56.5 -81.5t-95.5 -29.5q-126 0 -126 102q0 69 80 132h-12q-156 0 -227 68.5t-71 218.5v449h192v-427q0 -87 21 -124t91 -37q67 0 87.5 34.5t20.5 122.5v431h191l1 -454q0 -97 -36.5 -155t-106.5 -104q-44 -28 -71.5 -63t-27.5 -62
q0 -30 27 -30q28 0 44 42z" />
    <glyph glyph-name="uogonek" unicode="&#x173;" horiz-adv-x="576" 
d="M41 161v364h187v-327q0 -35 11.5 -50t37.5 -15q39 0 69 30v362h187v-525q-54 -26 -86.5 -57t-32.5 -57q0 -30 27 -30q28 0 44 42l75 -33q-16 -52 -56.5 -81.5t-95.5 -29.5q-126 0 -126 102q0 42 28 75.5t86 68.5h-23l-14 60q-51 -72 -155 -72q-163 0 -163 173z" />
    <glyph glyph-name="Wcircumflex" unicode="&#x174;" horiz-adv-x="1010" 
d="M850 0h-245l-95 449h-5l-92 -449h-256l-154 724h200l89 -528h5l111 528h202l117 -528h7l79 528h193zM574 769l-64 69l-69 -70l-121 6l101 149h177l94 -149z" />
    <glyph glyph-name="wcircumflex" unicode="&#x175;" horiz-adv-x="846" 
d="M361 0h-222l-149 525h186l78 -339h3l79 339h180l81 -337h4l72 337h183l-153 -525h-208l-71 306h-3zM610 580l-118 -5l-64 84l-69 -85l-121 6l101 164h177z" />
    <glyph glyph-name="Ycircumflex" unicode="&#x176;" horiz-adv-x="630" 
d="M419 268q0 -44 0.5 -134t0.5 -134h-193v267l-252 457h209l139 -288h6l133 288h193zM391 769l-64 69l-69 -70l-121 6l101 149h177l94 -149z" />
    <glyph glyph-name="ycircumflex" unicode="&#x177;" horiz-adv-x="551" 
d="M191 -14l-202 539h201l89 -341h4l86 341h193l-199 -564q-36 -102 -80.5 -143t-131.5 -41q-77 0 -123 23l12 129q51 -16 77 -16q31 0 44 15.5t30 57.5zM465 580l-118 -5l-64 84l-69 -85l-121 6l101 164h177z" />
    <glyph glyph-name="Ydieresis" unicode="&#x178;" horiz-adv-x="630" 
d="M419 268q0 -44 0.5 -134t0.5 -134h-193v267l-252 457h209l139 -288h6l133 288h193zM304 862q0 -39 -26.5 -62.5t-69.5 -23.5q-44 0 -70.5 23.5t-26.5 62.5t26.5 62.5t70.5 23.5q43 0 69.5 -23.5t26.5 -62.5zM542 862q0 -39 -26 -62.5t-70 -23.5q-43 0 -70 23.5t-27 62.5
t27 62.5t70 23.5q44 0 70 -23.5t26 -62.5z" />
    <glyph glyph-name="Zacute" unicode="&#x179;" horiz-adv-x="594" 
d="M559 590l-307 -440h320v-150h-549v130l316 444h-309v150h529v-134zM498 918l-150 -150l-129 7l86 143h193z" />
    <glyph glyph-name="zacute" unicode="&#x17a;" horiz-adv-x="470" 
d="M436 401l-203 -262h219v-139h-427v122l211 273h-210v130h410v-124zM394 741l-132 -169l-122 7l61 162h193z" />
    <glyph glyph-name="Zdotaccent" unicode="&#x17b;" horiz-adv-x="594" 
d="M559 590l-307 -440h320v-150h-549v130l316 444h-309v150h529v-134zM426 879q0 -50 -28 -78t-79 -28q-50 0 -78 28t-28 78t28 77t78 27q51 0 79 -27t28 -77z" />
    <glyph glyph-name="zdotaccent" unicode="&#x17c;" horiz-adv-x="470" 
d="M436 401l-203 -262h219v-139h-427v122l211 273h-210v130h410v-124zM342 682q0 -50 -28 -78t-79 -28q-50 0 -78 28t-28 78t28 77t78 27q51 0 79 -27t28 -77z" />
    <glyph glyph-name="Zcaron" unicode="&#x17d;" horiz-adv-x="594" 
d="M559 590l-307 -440h320v-150h-549v130l316 444h-309v150h529v-134zM253 925l64 -69l69 70l121 -6l-101 -149h-177l-94 149z" />
    <glyph glyph-name="zcaron" unicode="&#x17e;" horiz-adv-x="470" 
d="M436 401l-203 -262h219v-139h-427v122l211 273h-210v130h410v-124zM49 735l121 5l64 -83l69 84l118 -6l-101 -163h-177z" />
    <glyph glyph-name="longs" unicode="&#x17f;" horiz-adv-x="340" 
d="M385 746l-7 -121q-37 13 -68 13q-40 0 -60 -16.5t-20 -66.5v-555h-187v573q0 98 58 146t156 48q83 0 128 -21z" />
    <glyph glyph-name="florin" unicode="&#x192;" horiz-adv-x="604" 
d="M617 596l-144 -49l-6 26.5t-7 20.5t-13.5 17t-21.5 5q-23 0 -33 -12.5t-15 -41.5l-21 -113h126l-18 -111h-126l-63 -346q-17 -97 -67.5 -142t-157.5 -45q-150 0 -183 141l145 49q4 -23 8 -34.5t14.5 -22t26.5 -10.5q23 0 32 11.5t14 40.5l66 358h-98l18 111h99l19 100
q18 97 67.5 142.5t155.5 45.5q150 0 183 -141z" />
    <glyph glyph-name="Aringacute" unicode="&#x1fa;" horiz-adv-x="722" 
d="M487 793q0 -40 -18 -69l258 -724h-209l-53 156h-219l-47 -156h-199l234 723q-18 27 -18 67q0 61 39 94.5t97 33.5t96.5 -33t38.5 -92zM547 1096l-150 -150l-129 7l86 143h193zM427 302l-74 246h-5l-74 -246h153zM351 743q24 0 38 13.5t14 40.5q0 50 -51 50
q-24 0 -39 -12.5t-15 -37.5q0 -54 53 -54z" />
    <glyph glyph-name="aringacute" unicode="&#x1fb;" horiz-adv-x="566" 
d="M495 348v-205q0 -22 6 -31t25 -9q12 0 31 6l4 -99q-16 -8 -50.5 -15t-60.5 -7q-103 0 -125 74q-52 -74 -148 -74q-46 0 -79 14t-49 36.5t-22.5 44.5t-6.5 45q0 85 58.5 125.5t180.5 51.5l54 3v14q0 25 -1.5 38t-6.5 26.5t-17 19t-32 5.5q-29 0 -42.5 -15t-21.5 -51
l-154 27q13 79 67.5 121.5t165.5 42.5q112 0 168 -45.5t56 -142.5zM314 135v78h-7q-54 -2 -76.5 -15t-22.5 -41q0 -43 45 -43q35 0 61 21zM387 675q0 -51 -32 -79t-84 -28t-84.5 27.5t-32.5 76.5q0 52 33.5 81.5t83.5 29.5t83 -28.5t33 -79.5zM270 634q41 0 41 41
q0 19 -11 29.5t-29 10.5q-19 0 -30.5 -10.5t-11.5 -29.5q0 -41 41 -41zM449 958l-150 -150l-129 7l86 143h193z" />
    <glyph glyph-name="AEacute" unicode="&#x1fc;" horiz-adv-x="1004" 
d="M668 275v-124h311v-151h-503v273h-160l-117 -273h-197l329 724h626v-150h-289v-152h273v-147h-273zM476 416v158h-42l-67 -158h109zM808 918l-150 -150l-129 7l86 143h193z" />
    <glyph glyph-name="aeacute" unicode="&#x1fd;" horiz-adv-x="826" 
d="M568 -12q-134 0 -200 78q-66 -78 -186 -78q-87 0 -124.5 42.5t-37.5 94.5q0 95 70.5 136.5t222.5 46.5v11q0 23 -0.5 33t-3 24t-8.5 20t-17 10.5t-28 4.5q-29 0 -44 -15.5t-20 -51.5l-154 27q23 165 225 165q56 0 90.5 -14.5t64.5 -47.5q64 62 170 62q105 0 159 -66
t54 -183q0 -40 -2 -57h-299q0 -58 18.5 -83t60.5 -25q61 0 73 64l148 -36q-14 -74 -73 -118t-159 -44zM256 113q41 0 71 28q-11 29 -14 71q-57 -1 -81 -15t-24 -43q0 -41 48 -41zM502 327h106q1 49 -12.5 67.5t-38.5 18.5q-56 0 -55 -86zM590 741l-132 -169l-122 7l61 162
h193z" />
    <glyph glyph-name="Oslashacute" unicode="&#x1fe;" horiz-adv-x="750" 
d="M375 -12q-36 0 -63 4l-27 -71h-186l54 130q-123 92 -123 306q0 169 93 274.5t269 105.5q51 0 93 -9l25 59h186l-59 -140q94 -97 94 -276q0 -181 -89 -282t-267 -101zM382 138q73 0 112.5 51.5t39.5 172.5q0 119 -36.5 172t-109.5 53q-160 0 -160 -226q0 -121 38 -172
t116 -51zM583 918l-150 -150l-129 7l86 143h193z" />
    <glyph glyph-name="oslashacute" unicode="&#x1ff;" horiz-adv-x="593" 
d="M67 -87l53 119q-95 66 -95 228q0 130 69.5 203t208.5 73q39 0 72 -6l28 62h164l-62 -128q63 -67 63 -194q0 -133 -68.5 -207.5t-210.5 -74.5q-5 0 -14 0.5t-13 0.5l-31 -76h-164zM297 114q40 0 58 33t18 118q0 82 -16 112t-57 30q-42 0 -60.5 -30.5t-18.5 -112.5
q0 -86 16.5 -118t59.5 -32zM479 741l-132 -169l-122 7l61 162h193z" />
    <glyph glyph-name="Scommaaccent" unicode="&#x218;" horiz-adv-x="609" 
d="M300 600q-86 0 -86 -62q0 -30 27.5 -50t68.5 -30t89 -26t89 -36.5t68.5 -64t27.5 -105.5q0 -61 -24 -108.5t-65 -75t-92 -41t-109 -13.5q-280 0 -290 234l171 24q9 -59 34 -89.5t90 -30.5q100 0 100 74q0 27 -20.5 44.5t-53 27.5t-72 19.5t-79 24t-72 36.5t-53 62
t-20.5 96q0 107 78.5 167t197.5 60q43 0 77.5 -4.5t70.5 -18.5t60.5 -37t41.5 -62t19 -91l-174 -19q-2 51 -25.5 73t-74.5 22zM178 -273l51 206h166l-92 -223z" />
    <glyph glyph-name="scommaaccent" unicode="&#x219;" horiz-adv-x="510" 
d="M260 536q173 0 221 -133l-144 -49q-23 64 -78 64q-54 0 -54 -35q0 -12 6.5 -20t24.5 -13.5t28.5 -7.5t40.5 -7q40 -6 65 -13t56.5 -23.5t47.5 -47.5t16 -76q0 -93 -70.5 -140t-176.5 -47q-199 0 -232 130l148 56q23 -68 90 -68q62 0 62 36q0 12 -6.5 20t-22 13.5t-28 8.5
t-37.5 8q-34 6 -52.5 10.5t-48.5 16.5t-46 28t-29 44.5t-13 66.5q0 86 66 132t166 46zM131 -273l51 206h166l-92 -223z" />
    <glyph glyph-name="uni021A" unicode="&#x21a;" horiz-adv-x="620" 
d="M407 0h-192v569h-210v155h610v-155h-208v-569zM185 -273l51 206h166l-92 -223z" />
    <glyph glyph-name="uni021B" unicode="&#x21b;" horiz-adv-x="431" 
d="M402 150l24 -120q-25 -16 -71 -29t-98 -13q-90 0 -135 43.5t-45 136.5v233h-77v124h77v156l187 24v-180h136v-124h-136v-212q0 -32 12.5 -47t41.5 -15q42 0 84 23zM114 -273l51 206h166l-92 -223z" />
    <glyph glyph-name="dotlessj" unicode="&#x237;" horiz-adv-x="278" 
d="M24 -223q-92 0 -138 32l11 125q42 -21 86 -21q64 0 64 75v537h187v-552q0 -101 -57 -148.5t-153 -47.5z" />
    <glyph glyph-name="apostrophe" unicode="&#x2bc;" horiz-adv-x="500" 
d="M141 516l51 206h166l-92 -223z" />
    <glyph glyph-name="circumflex" unicode="&#x2c6;" horiz-adv-x="500" 
d="M434 580l-118 -5l-64 84l-69 -85l-121 6l101 164h177z" />
    <glyph glyph-name="caron" unicode="&#x2c7;" horiz-adv-x="500" 
d="M64 735l121 5l64 -83l69 84l118 -6l-101 -163h-177z" />
    <glyph glyph-name="uni02C9" unicode="&#x2c9;" horiz-adv-x="500" 
d="M411 589h-323v118h323v-118z" />
    <glyph glyph-name="breve" unicode="&#x2d8;" horiz-adv-x="500" 
d="M322 739l115 -7q-16 -164 -191 -164q-80 0 -128 39t-52 122l120 12q5 -36 20.5 -51.5t45.5 -15.5q31 0 47 14t23 51z" />
    <glyph glyph-name="dotaccent" unicode="&#x2d9;" horiz-adv-x="500" 
d="M357 682q0 -50 -28 -78t-79 -28q-50 0 -78 28t-28 78t28 77t78 27q51 0 79 -27t28 -77z" />
    <glyph glyph-name="ring" unicode="&#x2da;" horiz-adv-x="500" 
d="M366 675q0 -51 -32 -79t-84 -28t-84.5 27.5t-32.5 76.5q0 52 33.5 81.5t83.5 29.5t83 -28.5t33 -79.5zM249 634q41 0 41 41q0 19 -11 29.5t-29 10.5q-19 0 -30.5 -10.5t-11.5 -29.5q0 -41 41 -41z" />
    <glyph glyph-name="ogonek" unicode="&#x2db;" horiz-adv-x="500" 
d="M314 -102l75 -33q-16 -52 -56.5 -81.5t-95.5 -29.5q-126 0 -126 102q0 88 133 168l80 -19q-43 -42 -62 -68t-19 -51q0 -30 27 -30q28 0 44 42z" />
    <glyph glyph-name="tilde" unicode="&#x2dc;" horiz-adv-x="500" 
d="M175 740q36 0 81.5 -21t65.5 -21q15 0 20 9t5 31l88 -5q8 -67 -14.5 -109t-80.5 -42q-40 0 -86.5 21.5t-63.5 21.5t-23 -9.5t-2 -34.5l-97 4q-8 69 20.5 112t86.5 43z" />
    <glyph glyph-name="hungarumlaut" unicode="&#x2dd;" horiz-adv-x="500" 
d="M313 741l-94 -169l-115 12l27 157h182zM539 746l-147 -174l-122 7l76 167h193z" />
    <glyph glyph-name="uni0394" unicode="&#x394;" horiz-adv-x="724" 
d="M234 724h235l235 -634v-90h-684v90zM477 146l-124 402h-5l-114 -402h243z" />
    <glyph glyph-name="uni03A9" unicode="&#x3a9;" horiz-adv-x="801" 
d="M401 587q-74 0 -116 -45.5t-42 -128.5q0 -153 114 -177v-236h-304v130h162v20q-84 28 -127 100.5t-43 175.5q0 44 11 86.5t38 83.5t66.5 72t101.5 50t138 19q178 0 267 -88t89 -234q0 -57 -17.5 -109t-57 -95.5t-95.5 -60.5v-20h162v-130h-304v236q114 23 114 179
q0 78 -39 125t-118 47z" />
    <glyph glyph-name="uni03BC" unicode="&#x3bc;" horiz-adv-x="628" 
d="M45 -212v737h185v-329q0 -63 49 -63q21 0 40 9q17 7 31 21v362h187v-372q0 -22 6 -31t25 -9q12 0 31 6l4 -115q-32 -16 -104 -16q-110 0 -132 74h-2q-31 -43 -88 -63q-21 -7 -47 -10v-201h-185z" />
    <glyph glyph-name="pi" unicode="&#x3c0;" horiz-adv-x="689" 
d="M388 130v261h-99l-46 -391h-187l52 391h-93v134h647v-134h-97v-238q0 -40 36 -40q17 0 36 6l4 -115q-30 -16 -109 -16q-75 0 -109.5 34.5t-34.5 107.5z" />
    <glyph glyph-name="Wgrave" unicode="&#x1e80;" horiz-adv-x="1010" 
d="M850 0h-245l-95 449h-5l-92 -449h-256l-154 724h200l89 -528h5l111 528h202l117 -528h7l79 528h193zM483 768l-150 150h193l86 -143z" />
    <glyph glyph-name="wgrave" unicode="&#x1e81;" horiz-adv-x="846" 
d="M361 0h-222l-149 525h186l78 -339h3l79 339h180l81 -337h4l72 337h183l-153 -525h-208l-71 306h-3zM402 572l-132 169h193l61 -162z" />
    <glyph glyph-name="Wacute" unicode="&#x1e82;" horiz-adv-x="1010" 
d="M850 0h-245l-95 449h-5l-92 -449h-256l-154 724h200l89 -528h5l111 528h202l117 -528h7l79 528h193zM689 918l-150 -150l-129 7l86 143h193z" />
    <glyph glyph-name="wacute" unicode="&#x1e83;" horiz-adv-x="846" 
d="M361 0h-222l-149 525h186l78 -339h3l79 339h180l81 -337h4l72 337h183l-153 -525h-208l-71 306h-3zM585 741l-132 -169l-122 7l61 162h193z" />
    <glyph glyph-name="Wdieresis" unicode="&#x1e84;" horiz-adv-x="1010" 
d="M850 0h-245l-95 449h-5l-92 -449h-256l-154 724h200l89 -528h5l111 528h202l117 -528h7l79 528h193zM487 862q0 -39 -26.5 -62.5t-69.5 -23.5q-44 0 -70.5 23.5t-26.5 62.5t26.5 62.5t70.5 23.5q43 0 69.5 -23.5t26.5 -62.5zM725 862q0 -39 -26 -62.5t-70 -23.5
q-43 0 -70 23.5t-27 62.5t27 62.5t70 23.5q44 0 70 -23.5t26 -62.5z" />
    <glyph glyph-name="wdieresis" unicode="&#x1e85;" horiz-adv-x="846" 
d="M361 0h-222l-149 525h186l78 -339h3l79 339h180l81 -337h4l72 337h183l-153 -525h-208l-71 306h-3zM406 667q0 -39 -26.5 -62.5t-69.5 -23.5q-44 0 -70.5 23.5t-26.5 62.5t26.5 62.5t70.5 23.5q43 0 69.5 -23.5t26.5 -62.5zM638 667q0 -39 -26 -62.5t-70 -23.5
q-43 0 -70 23.5t-27 62.5t27 62.5t70 23.5q44 0 70 -23.5t26 -62.5z" />
    <glyph glyph-name="Ygrave" unicode="&#x1ef2;" horiz-adv-x="630" 
d="M419 268q0 -44 0.5 -134t0.5 -134h-193v267l-252 457h209l139 -288h6l133 288h193zM289 768l-150 150h193l86 -143z" />
    <glyph glyph-name="ygrave" unicode="&#x1ef3;" horiz-adv-x="551" 
d="M191 -14l-202 539h201l89 -341h4l86 341h193l-199 -564q-36 -102 -80.5 -143t-131.5 -41q-77 0 -123 23l12 129q51 -16 77 -16q31 0 44 15.5t30 57.5zM246 572l-132 169h193l61 -162z" />
    <glyph glyph-name="thinspace" unicode="&#x2009;" horiz-adv-x="125" 
 />
    <glyph glyph-name="endash" unicode="&#x2013;" horiz-adv-x="500" 
d="M500 215h-500v130h500v-130z" />
    <glyph glyph-name="emdash" unicode="&#x2014;" horiz-adv-x="1000" 
d="M1000 215h-1000v130h1000v-130z" />
    <glyph glyph-name="quoteleft" unicode="&#x2018;" horiz-adv-x="243" 
d="M236 783l-53 -241h-174l93 254z" />
    <glyph glyph-name="quoteright" unicode="&#x2019;" horiz-adv-x="243" 
d="M18 547l53 241h174l-93 -254z" />
    <glyph glyph-name="quotesinglbase" unicode="&#x201a;" horiz-adv-x="244" 
d="M5 -142l53 241h174l-93 -254z" />
    <glyph glyph-name="quotedblleft" unicode="&#x201c;" horiz-adv-x="444" 
d="M236 783l-53 -241h-174l93 254zM437 783l-53 -241h-174l93 254z" />
    <glyph glyph-name="quotedblright" unicode="&#x201d;" horiz-adv-x="443" 
d="M18 547l53 241h174l-93 -254zM218 547l53 241h174l-93 -254z" />
    <glyph glyph-name="quotedblbase" unicode="&#x201e;" horiz-adv-x="446" 
d="M207 -142l53 241h174l-93 -254zM5 -142l53 241h174l-93 -254z" />
    <glyph glyph-name="dagger" unicode="&#x2020;" horiz-adv-x="461" 
d="M441 426l-150 17l22 -526h-165l21 527l-149 -18v143l149 -19l-18 174h159l-19 -173l150 18v-143z" />
    <glyph glyph-name="daggerdbl" unicode="&#x2021;" horiz-adv-x="461" 
d="M441 426l-149 17v-246l149 18v-143l-149 19l18 -174h-159l19 173l-150 -18v143l149 -17v246l-149 -18v143l149 -19l-18 174h159l-19 -173l150 18v-143z" />
    <glyph glyph-name="bullet" unicode="&#x2022;" horiz-adv-x="500" 
d="M410 279q0 -153 -160 -153q-159 0 -159 153t159 153q160 0 160 -153z" />
    <glyph glyph-name="ellipsis" unicode="&#x2026;" horiz-adv-x="812" 
d="M514 87q0 -99 -107 -99q-109 0 -109 99q0 100 109 100q107 0 107 -100zM777 87q0 -99 -107 -99q-109 0 -109 99q0 100 109 100q107 0 107 -100zM251 87q0 -99 -107 -99q-109 0 -109 99q0 100 109 100q107 0 107 -100z" />
    <glyph glyph-name="perthousand" unicode="&#x2030;" horiz-adv-x="1097" 
d="M187 412q-157 0 -157 158q0 83 42 125t122 42q157 0 157 -158q0 -80 -42.5 -123.5t-121.5 -43.5zM191 498q36 0 36 80q0 40 -9 56t-27 16q-37 0 -37 -73q0 -79 37 -79zM560 -12q-157 0 -157 158q0 83 42 125t122 42q157 0 157 -158q0 -80 -42.5 -123.5t-121.5 -43.5z
M564 74q36 0 36 80q0 40 -9 56t-27 16q-37 0 -37 -73q0 -79 37 -79zM903 -12q-157 0 -157 158q0 83 42 125t122 42q157 0 157 -158q0 -80 -42.5 -123.5t-121.5 -43.5zM907 74q36 0 36 80q0 40 -9 56t-27 16q-37 0 -37 -73q0 -79 37 -79zM233 -12h-162l438 736h161z" />
    <glyph glyph-name="guilsinglleft" unicode="&#x2039;" horiz-adv-x="280" 
d="M254 103h-144l-85 153l89 152h146l-90 -148z" />
    <glyph glyph-name="guilsinglright" unicode="&#x203a;" horiz-adv-x="280" 
d="M20 408h146l89 -152l-85 -153h-144l85 155z" />
    <glyph glyph-name="fraction" unicode="&#x2044;" horiz-adv-x="206" 
d="M5 -12h-171l354 736h170z" />
    <glyph glyph-name="zerosuperior" unicode="&#x2070;" horiz-adv-x="444" 
d="M219 342q-95 0 -144.5 56.5t-49.5 184.5q0 231 201 231q100 0 146.5 -52.5t46.5 -178.5q0 -130 -49.5 -185.5t-150.5 -55.5zM222 460q10 0 15 7t9 34.5t4 79.5q0 51 -3.5 77.5t-8.5 33t-14 6.5q-10 0 -15.5 -5.5t-9.5 -32t-4 -77.5q0 -54 3.5 -81.5t8.5 -34.5t15 -7z" />
    <glyph glyph-name="foursuperior" unicode="&#x2074;" horiz-adv-x="459" 
d="M394 349h-157v85h-207v108l169 263h194v-250h51v-121h-50v-85zM162 555h75v118z" />
    <glyph glyph-name="fivesuperior" unicode="&#x2075;" horiz-adv-x="423" 
d="M47 546l16 260h291v-128h-183l-12 -74l3 -1q37 39 96 39t91.5 -36.5t32.5 -102.5q0 -78 -54.5 -119.5t-136.5 -41.5q-164 0 -179 135l136 22q2 -44 41 -44q18 0 27 11.5t9 28.5q0 22 -10 31t-21 9q-21 0 -43 -20z" />
    <glyph glyph-name="sixsuperior" unicode="&#x2076;" horiz-adv-x="438" 
d="M412 690l-141 -27q-3 42 -31 42q-50 0 -50 -109q33 35 96 35q50 0 87 -29.5t37 -99.5q0 -84 -52 -122t-134 -38q-186 0 -186 230q0 46 10 86t32 76.5t65.5 58t103.5 21.5q142 0 163 -124zM197 520q-1 -66 31 -66q23 0 23 36q0 43 -26 43q-15 0 -28 -13z" />
    <glyph glyph-name="sevensuperior" unicode="&#x2077;" horiz-adv-x="393" 
d="M200 349h-170l169 329h-171v128h338v-116z" />
    <glyph glyph-name="eightsuperior" unicode="&#x2078;" horiz-adv-x="436" 
d="M328 613q93 -36 93 -120q0 -62 -57.5 -106.5t-156.5 -44.5q-90 0 -141 34t-51 89q0 41 22.5 67.5t68.5 45.5q-72 26 -72 103q0 62 54 97.5t133 35.5q86 0 133 -29t47 -79q0 -66 -73 -93zM180 533q-24 -24 -24 -47q0 -19 14.5 -30.5t40.5 -11.5q36 0 36 34q0 18 -15 30
t-52 25zM249 650q18 21 18 41q0 27 -39 27q-14 0 -22.5 -8t-8.5 -20q0 -24 52 -40z" />
    <glyph glyph-name="ninesuperior" unicode="&#x2079;" horiz-adv-x="435" 
d="M22 465l141 36q2 -15 4.5 -23.5t11 -16.5t22.5 -8q20 0 34.5 25t14.5 80q-37 -29 -91 -29q-55 0 -93 29t-38 101q0 81 55 118t137 37q97 0 138.5 -60t41.5 -170q0 -32 -4.5 -62t-18 -64t-35 -58.5t-59.5 -41t-88 -16.5q-71 0 -116 27t-57 96zM237 628q-2 42 -7 58t-20 16
q-22 0 -22 -33q0 -49 28 -49q13 0 21 8z" />
    <glyph glyph-name="plussuperior" unicode="&#x207a;" horiz-adv-x="446" 
d="M281 428h-118v83h-81v112h81v80h118v-80h82v-112h-82v-83z" />
    <glyph glyph-name="minussuperior" unicode="&#x207b;" horiz-adv-x="446" 
d="M358 511h-269v112h269v-112z" />
    <glyph glyph-name="equalsuperior" unicode="&#x207c;" horiz-adv-x="448" 
d="M359 413h-271v110h271v-110zM359 561h-271v110h271v-110z" />
    <glyph glyph-name="parenleftsuperior" unicode="&#x207d;" horiz-adv-x="314" 
d="M298 277l-161 -1q-43 52 -72.5 123t-29.5 150q0 80 28 145t84 135h156q-49 -59 -77 -122t-28 -154q0 -57 17 -112.5t35.5 -88.5t47.5 -75z" />
    <glyph glyph-name="parenrightsuperior" unicode="&#x207e;" horiz-adv-x="314" 
d="M16 828l161 1q43 -52 72.5 -123.5t29.5 -149.5q0 -80 -28 -145t-84 -135h-156q49 59 77 122t28 154q0 57 -17 112.5t-35.5 88.5t-47.5 75z" />
    <glyph glyph-name="zeroinferior" unicode="&#x2080;" horiz-adv-x="444" 
d="M219 -154q-95 0 -144.5 56.5t-49.5 184.5q0 231 201 231q100 0 146.5 -52.5t46.5 -178.5q0 -130 -49.5 -185.5t-150.5 -55.5zM222 -36q10 0 15 7t9 34.5t4 79.5q0 51 -3.5 77.5t-8.5 33t-14 6.5q-10 0 -15.5 -5.5t-9.5 -32t-4 -77.5q0 -54 3.5 -81.5t8.5 -34.5t15 -7z
" />
    <glyph glyph-name="oneinferior" unicode="&#x2081;" horiz-adv-x="328" 
d="M293 -149h-163v293q-14 -6 -48.5 -11t-53.5 -5l-5 127q100 7 149 52h121v-456z" />
    <glyph glyph-name="twoinferior" unicode="&#x2082;" horiz-adv-x="416" 
d="M207 317q89 0 130.5 -33.5t41.5 -89.5q0 -52 -32 -92t-117 -106l-9 -7v-5h165v-131h-352v132l94 87q52 48 70.5 71t18.5 39q0 21 -20 21q-30 0 -37 -49l-139 17q6 72 58.5 109t127.5 37z" />
    <glyph glyph-name="threeinferior" unicode="&#x2083;" horiz-adv-x="420" 
d="M12 -22l138 25q4 -43 41 -43q34 0 34 34q0 19 -8.5 28t-33.5 9h-55v102h32q59 0 59 48q0 26 -25 26q-29 0 -37 -41l-134 24q24 128 186 128q80 0 124 -28t44 -83q0 -72 -86 -109v-3q98 -22 98 -105q0 -69 -54 -106.5t-141 -37.5q-69 0 -120.5 30t-61.5 102z" />
    <glyph glyph-name="fourinferior" unicode="&#x2084;" horiz-adv-x="459" 
d="M394 -147h-157v85h-207v108l169 263h194v-250h51v-121h-50v-85zM162 59h75v118z" />
    <glyph glyph-name="fiveinferior" unicode="&#x2085;" horiz-adv-x="423" 
d="M47 50l16 260h291v-128h-183l-12 -74l3 -1q37 39 96 39t91.5 -36.5t32.5 -102.5q0 -78 -54.5 -119.5t-136.5 -41.5q-164 0 -179 135l136 22q2 -44 41 -44q18 0 27 11.5t9 28.5q0 22 -10 31t-21 9q-21 0 -43 -20z" />
    <glyph glyph-name="sixinferior" unicode="&#x2086;" horiz-adv-x="438" 
d="M412 194l-141 -27q-3 42 -31 42q-50 0 -50 -109q33 35 96 35q50 0 87 -29.5t37 -99.5q0 -84 -52 -122t-134 -38q-186 0 -186 230q0 46 10 86t32 76.5t65.5 58t103.5 21.5q142 0 163 -124zM197 24q-1 -66 31 -66q23 0 23 36q0 43 -26 43q-15 0 -28 -13z" />
    <glyph glyph-name="seveninferior" unicode="&#x2087;" horiz-adv-x="393" 
d="M200 -147h-170l169 329h-171v128h338v-116z" />
    <glyph glyph-name="eightinferior" unicode="&#x2088;" horiz-adv-x="436" 
d="M328 117q93 -36 93 -120q0 -62 -57.5 -106.5t-156.5 -44.5q-90 0 -141 34t-51 89q0 41 22.5 67.5t68.5 45.5q-72 26 -72 103q0 62 54 97.5t133 35.5q86 0 133 -29t47 -79q0 -66 -73 -93zM180 37q-24 -24 -24 -47q0 -19 14.5 -30.5t40.5 -11.5q36 0 36 34q0 18 -15 30
t-52 25zM249 154q18 21 18 41q0 27 -39 27q-14 0 -22.5 -8t-8.5 -20q0 -24 52 -40z" />
    <glyph glyph-name="nineinferior" unicode="&#x2089;" horiz-adv-x="435" 
d="M22 -31l141 36q2 -15 4.5 -23.5t11 -16.5t22.5 -8q20 0 34.5 25t14.5 80q-37 -29 -91 -29q-55 0 -93 29t-38 101q0 81 55 118t137 37q97 0 138.5 -60t41.5 -170q0 -32 -4.5 -62t-18 -64t-35 -58.5t-59.5 -41t-88 -16.5q-71 0 -116 27t-57 96zM237 132q-2 42 -7 58t-20 16
q-22 0 -22 -33q0 -49 28 -49q13 0 21 8z" />
    <glyph glyph-name="parenleftinferior" unicode="&#x208d;" horiz-adv-x="314" 
d="M298 -219l-161 -1q-43 52 -72.5 123t-29.5 150q0 80 28 145t84 135h156q-49 -59 -77 -122t-28 -154q0 -57 17 -112.5t35.5 -88.5t47.5 -75z" />
    <glyph glyph-name="parenrightinferior" unicode="&#x208e;" horiz-adv-x="314" 
d="M16 332l161 1q43 -52 72.5 -123.5t29.5 -149.5q0 -80 -28 -145t-84 -135h-156q49 59 77 122t28 154q0 57 -17 112.5t-35.5 88.5t-47.5 75z" />
    <glyph glyph-name="Euro" unicode="&#x20ac;" horiz-adv-x="664" 
d="M46 431h57q15 143 88 225t205 82q240 0 248 -249l-160 -17q-4 66 -23.5 92.5t-64.5 26.5q-94 0 -107 -160h178l-24 -143h-154q7 -80 31.5 -116t70.5 -36q48 0 67 25.5t29 81.5l155 -25q-7 -65 -34 -112t-65.5 -71.5t-78 -35.5t-82.5 -11q-136 0 -202.5 76.5t-77.5 223.5
h-80z" />
    <glyph glyph-name="afii61352" unicode="&#x2116;" horiz-adv-x="1105" 
d="M630 0h-217l-174 452v-452h-174v724h223l170 -457v457h172v-724zM701 229v106h350v-106h-350zM872 366q-100 0 -147 48t-47 131q0 86 50.5 135t150.5 49q99 0 145 -47t46 -129q0 -88 -49 -137.5t-149 -49.5zM875 463q23 0 34.5 17.5t11.5 69.5q0 49 -11.5 66t-32.5 17
q-23 0 -36 -17t-13 -67q0 -51 12 -68.5t35 -17.5z" />
    <glyph glyph-name="trademark" unicode="&#x2122;" horiz-adv-x="870" 
d="M803 348h-83v224l-78 -224h-73l-76 225v-224h-83v375h105l94 -278l95 278h99v-376zM254 649v-301h-93v301h-111v75h316v-75h-112z" />
    <glyph glyph-name="Omega" unicode="&#x2126;" horiz-adv-x="801" 
d="M401 587q-74 0 -116 -45.5t-42 -128.5q0 -153 114 -177v-236h-304v130h162v20q-84 28 -127 100.5t-43 175.5q0 44 11 86.5t38 83.5t66.5 72t101.5 50t138 19q178 0 267 -88t89 -234q0 -57 -17.5 -109t-57 -95.5t-95.5 -60.5v-20h162v-130h-304v236q114 23 114 179
q0 78 -39 125t-118 47z" />
    <glyph glyph-name="onethird" unicode="&#x2153;" horiz-adv-x="1080" 
d="M293 279h-163v293q-14 -6 -48.5 -11t-53.5 -5l-5 127q100 7 149 52h121v-456zM402 -12h-171l354 736h170zM629 125l138 25q4 -43 41 -43q34 0 34 34q0 19 -8.5 28t-33.5 9h-55v102h32q59 0 59 48q0 26 -25 26q-29 0 -37 -41l-134 24q24 128 186 128q80 0 124 -28t44 -83
q0 -72 -86 -109v-3q98 -22 98 -105q0 -69 -54 -106.5t-141 -37.5q-69 0 -120.5 30t-61.5 102z" />
    <glyph glyph-name="twothirds" unicode="&#x2154;" horiz-adv-x="1080" 
d="M458 -12h-171l354 736h170zM674 125l138 25q4 -43 41 -43q34 0 34 34q0 19 -8.5 28t-33.5 9h-55v102h32q59 0 59 48q0 26 -25 26q-29 0 -37 -41l-134 24q24 128 186 128q80 0 124 -28t44 -83q0 -72 -86 -109v-3q98 -22 98 -105q0 -69 -54 -106.5t-141 -37.5
q-69 0 -120.5 30t-61.5 102zM207 745q89 0 130.5 -33.5t41.5 -89.5q0 -52 -32 -92t-117 -106l-9 -7v-5h165v-131h-352v132l94 87q52 48 70.5 71t18.5 39q0 21 -20 21q-30 0 -37 -49l-139 17q6 72 58.5 109t127.5 37z" />
    <glyph glyph-name="arrow.left" unicode="&#x2190;" horiz-adv-x="640" 
d="M578 345v-142h-324l59 -123h-145l-106 193l105 192h149l-61 -120h323z" />
    <glyph glyph-name="arrow.up" unicode="&#x2191;" horiz-adv-x="640" 
d="M390 14h-142v324l-121 -62v149l192 105l193 -106v-145l-122 59v-324z" />
    <glyph glyph-name="arrow.right" unicode="&#x2192;" horiz-adv-x="640" 
d="M62 203v142h323l-61 120h149l105 -192l-106 -193h-145l59 123h-324z" />
    <glyph glyph-name="arrow.down" unicode="&#x2193;" horiz-adv-x="640" 
d="M248 536h142v-324l122 59v-145l-193 -106l-192 105v149l121 -62v324z" />
    <glyph glyph-name="arrow.leftup" unicode="&#x2196;" horiz-adv-x="640" 
d="M184 141l-103 103l62 211l210 62l105 -106l-128 -42l229 -228l-101 -100l-229 229z" />
    <glyph glyph-name="arrow.rightup" unicode="&#x2197;" horiz-adv-x="640" 
d="M559 244l-103 -103l-45 129l-229 -229l-101 100l229 228l-128 42l105 106l210 -62z" />
    <glyph glyph-name="arrowright.down" unicode="&#x2198;" horiz-adv-x="640" 
d="M456 417l103 -103l-62 -211l-210 -62l-105 106l128 41l-229 229l101 100l229 -229z" />
    <glyph glyph-name="arrowleft.down" unicode="&#x2199;" horiz-adv-x="640" 
d="M81 314l103 103l45 -129l229 229l101 -100l-229 -229l128 -41l-105 -106l-210 62z" />
    <glyph glyph-name="arrowleft.alt" unicode="&#x21d0;" 
d="M268 372l237 25v-247l-237 21v-116l-218 218l218 214v-115z" />
    <glyph glyph-name="arrowup.alt" unicode="&#x21d1;" 
d="M385 291l25 -237h-247l21 237h-116l218 218l214 -218h-115z" />
    <glyph glyph-name="arrowright.alt" unicode="&#x21d2;" 
d="M65 397l237 -25v115l218 -214l-218 -218v116l-237 -21v247z" />
    <glyph glyph-name="arrowdown.alt" unicode="&#x21d3;" 
d="M410 496l-25 -237h115l-214 -218l-218 218h116l-21 237h247z" />
    <glyph glyph-name="arrowleftup.alt" unicode="&#x21d6;" 
d="M334 357l185 -150l-175 -175l-152 183l-82 -83v309l305 -3z" />
    <glyph glyph-name="arrowrightup.alt" unicode="&#x21d7;" 
d="M375 217l-150 -185l-175 175l183 152l-83 82h309l-3 -305z" />
    <glyph glyph-name="arrowrightdown.alt" unicode="&#x21d8;" 
d="M235 215l-185 150l175 175l152 -183l82 83v-309l-305 3z" />
    <glyph glyph-name="arrowleftdown.alt" unicode="&#x21d9;" 
d="M194 355l150 185l175 -175l-183 -152l83 -82h-309l3 305z" />
    <glyph glyph-name="partialdiff" unicode="&#x2202;" horiz-adv-x="590" 
d="M359 385l4 2q2 156 -97 156q-71 0 -137 -54l-72 109q45 35 109.5 56.5t133.5 21.5q250 0 250 -311q0 -377 -278 -377q-112 0 -177 54.5t-65 157.5q0 102 57 158t150 56q62 0 122 -29zM358 277q-43 18 -73 18q-36 0 -51 -21.5t-15 -67.5q0 -85 61 -85q40 0 57.5 41
t20.5 115z" />
    <glyph glyph-name="Delta" unicode="&#x2206;" horiz-adv-x="684" 
d="M214 724h235l235 -634v-90h-684v90zM457 146l-124 402h-5l-114 -402h243z" />
    <glyph glyph-name="product" unicode="&#x220f;" horiz-adv-x="798" 
d="M705 724v-886h-192v750h-232v-750h-192v886h616z" />
    <glyph glyph-name="summation" unicode="&#x2211;" horiz-adv-x="627" 
d="M408 289l-203 -316h363v-149h-566v99l222 342l-217 366v93h558v-130h-326z" />
    <glyph glyph-name="minus" unicode="&#x2212;" 
d="M482 255h-393v138h393v-138z" />
    <glyph glyph-name="uni2215" unicode="&#x2215;" horiz-adv-x="454" 
d="M153 -17h-159l313 648h158z" />
    <glyph glyph-name="uni2219" unicode="&#x2219;" horiz-adv-x="289" 
d="M248 309q0 -95 -105 -95q-106 0 -106 95t106 95q51 0 78 -25t27 -70z" />
    <glyph glyph-name="radical" unicode="&#x221a;" horiz-adv-x="626" 
d="M433 0h-168l-126 217l-66 -26l-47 104l184 89l113 -216l153 580l148 -37z" />
    <glyph glyph-name="infinity" unicode="&#x221e;" horiz-adv-x="673" 
d="M335 242q-59 -65 -143 -65q-67 0 -109.5 36.5t-42.5 109.5q0 68 45 106.5t112 38.5q77 0 140 -65q73 65 146 65q67 0 108.5 -36.5t41.5 -110.5q0 -68 -43.5 -107.5t-109.5 -39.5q-81 0 -145 68zM277 324q-24 25 -39.5 35t-37.5 10q-23 0 -37.5 -13t-14.5 -34
q0 -18 14 -32.5t36 -14.5q35 0 79 49zM400 324q42 -46 77 -46q23 0 35.5 13.5t12.5 33.5q0 45 -47 45q-32 0 -78 -46z" />
    <glyph glyph-name="integral" unicode="&#x222b;" horiz-adv-x="433" 
d="M44 -164l29 114q35 -16 62 -16q19 0 26 13.5t3 54.5l-51 577q-3 36 6 63.5t24.5 43t37 25.5t39.5 13t36 3q72 0 144 -25l-29 -114q-35 16 -62 16q-18 0 -25.5 -14.5t-3.5 -53.5l51 -577q3 -36 -6 -64t-24.5 -43.5t-37 -25t-39.5 -12.5t-36 -3q-72 0 -144 25z" />
    <glyph glyph-name="approxequal" unicode="&#x2248;" 
d="M163 272q36 0 132 -21t116 -21q15 0 20 9t5 31l98 -5q8 -68 -17 -113.5t-88 -45.5q-40 0 -137 21.5t-114 21.5t-23 -9.5t-2 -34.5l-107 4q-9 72 20.5 117.5t96.5 45.5zM163 475q36 0 132 -21t116 -21q15 0 20 9t5 31l98 -5q8 -68 -17 -113.5t-88 -45.5q-40 0 -137 21.5
t-114 21.5t-23 -9.5t-2 -34.5l-107 4q-9 72 20.5 117.5t96.5 45.5z" />
    <glyph glyph-name="notequal" unicode="&#x2260;" 
d="M88 250h122l21 63h-143v138h190l28 83h124l-28 -83h79v-138h-126l-21 -63h147v-138h-194l-27 -79h-124l27 79h-75v138z" />
    <glyph glyph-name="lessequal" unicode="&#x2264;" 
d="M482 138l-393 133v164l393 134v-139l-245 -73l245 -78v-141zM482 0h-393v138h393v-138z" />
    <glyph glyph-name="greaterequal" unicode="&#x2265;" 
d="M481 271l-393 -133v141l245 78l-245 68v144l393 -134v-164zM481 0h-393v138h393v-138z" />
    <glyph glyph-name="triangle" unicode="&#x25b3;" horiz-adv-x="425" 
d="M335 320l-185 -117v231z" />
    <glyph glyph-name="lozenge" unicode="&#x25ca;" 
d="M351 -17h-132l-154 324l154 324h132l154 -324zM285 121l86 186l-86 177l-86 -177z" />
    <glyph glyph-name="circle" unicode="&#x25cb;" horiz-adv-x="610" 
d="M305 119q-85 0 -145 60t-60 145t60 145t145 60t145 -60t60 -145t-60 -145t-145 -60z" />
    <glyph glyph-name="a.sc" unicode="&#xf605;" horiz-adv-x="618" 
d="M187 565h225l214 -565h-203l-37 100h-164l-31 -100h-193zM352 234l-51 168h-5l-49 -168h105z" />
    <glyph glyph-name="b.sc" unicode="&#xf606;" horiz-adv-x="547" 
d="M298 0h-251v565h269q182 0 182 -138q0 -50 -29.5 -83t-74.5 -48v-2q133 -14 133 -136q0 -82 -62.5 -120t-166.5 -38zM233 124h23q38 0 55.5 11t17.5 40q0 28 -14 37.5t-39 9.5h-43v-98zM233 345h11q37 0 56 10t19 40q0 43 -59 43h-27v-93z" />
    <glyph glyph-name="c.sc" unicode="&#xf607;" horiz-adv-x="589" 
d="M316 -9q-151 0 -220 73.5t-69 215.5q0 131 75 213t223 82q112 0 179 -55t71 -167l-168 -16q-1 53 -22 74t-63 21q-102 0 -102 -146q0 -81 23.5 -116.5t78.5 -35.5q23 0 39.5 7t26 20.5t14 25t8.5 28.5l165 -25q-9 -69 -52 -116t-95 -65t-112 -18z" />
    <glyph glyph-name="d.sc" unicode="&#xf608;" horiz-adv-x="607" 
d="M271 0h-224v565h238q150 0 222.5 -72t72.5 -202q0 -135 -77 -213t-232 -78zM233 135h26q78 0 105 38.5t27 115.5q0 78 -26 108.5t-94 30.5h-38v-293z" />
    <glyph glyph-name="e.sc" unicode="&#xf609;" horiz-adv-x="502" 
d="M233 208v-64h246v-144h-432v565h411v-143h-225v-75h213v-139h-213z" />
    <glyph glyph-name="f.sc" unicode="&#xf60a;" horiz-adv-x="476" 
d="M233 198v-198h-186v565h407v-143h-221v-84h201v-140h-201z" />
    <glyph glyph-name="g.sc" unicode="&#xf60b;" horiz-adv-x="624" 
d="M454 0l-17 61q-21 -35 -65 -52.5t-95 -17.5q-127 0 -188.5 76t-61.5 204q0 138 75 221t225 83q108 0 175.5 -50.5t73.5 -155.5l-170 -16q-1 13 -3.5 22.5t-9.5 24.5t-24.5 23.5t-43.5 8.5q-57 0 -80.5 -38t-23.5 -110q0 -36 3.5 -60t13 -48.5t31.5 -37t55 -12.5
q42 0 63.5 15t21.5 38v4h-58v113h238v-296h-135z" />
    <glyph glyph-name="h.sc" unicode="&#xf60c;" horiz-adv-x="622" 
d="M575 565v-565h-186v199h-156v-199h-186v565h186v-211h156v211h186z" />
    <glyph glyph-name="i.sc" unicode="&#xf60d;" horiz-adv-x="280" 
d="M233 565v-565h-186v565h186z" />
    <glyph glyph-name="j.sc" unicode="&#xf60e;" horiz-adv-x="480" 
d="M250 168v397h186v-388q0 -84 -56.5 -135t-157.5 -51q-44 0 -79 8t-67 27t-50.5 57.5t-20.5 93.5l179 26q2 -27 4 -40t10 -24t22 -11q30 0 30 40z" />
    <glyph glyph-name="k.sc" unicode="&#xf60f;" horiz-adv-x="595" 
d="M232 565v-218l188 218h192l-195 -225l174 -340h-216l-98 207l-45 -48v-159h-185v565h185z" />
    <glyph glyph-name="l.sc" unicode="&#xf610;" horiz-adv-x="498" 
d="M233 565v-411h240v-154h-426v565h186z" />
    <glyph glyph-name="m.sc" unicode="&#xf611;" horiz-adv-x="784" 
d="M737 565v-565h-172v388h-7l-94 -388h-155l-87 390h-6v-390h-169v565h274l69 -330h7l66 330h274z" />
    <glyph glyph-name="n.sc" unicode="&#xf612;" horiz-adv-x="627" 
d="M580 0h-208l-157 308v-308h-168v565h212l155 -316v316h166v-565z" />
    <glyph glyph-name="o.sc" unicode="&#xf613;" horiz-adv-x="641" 
d="M316 -9q-151 0 -220 76.5t-69 209.5q0 132 77.5 215t225.5 83q146 0 215 -80t69 -208q0 -141 -74 -218.5t-224 -77.5zM322 136q49 0 75 32t26 113q0 80 -23 114.5t-73 34.5q-55 0 -81.5 -35t-26.5 -114q0 -78 25 -111.5t78 -33.5z" />
    <glyph glyph-name="p.sc" unicode="&#xf614;" horiz-adv-x="530" 
d="M232 160v-160h-185v565h262q105 0 151.5 -53.5t46.5 -130.5q0 -221 -240 -221h-35zM232 294h12q72 0 72 71q0 37 -17.5 50t-36.5 13h-30v-134z" />
    <glyph glyph-name="q.sc" unicode="&#xf615;" horiz-adv-x="641" 
d="M316 -9q-146 0 -217.5 77t-71.5 209t77.5 215t225.5 83q146 0 215 -80t69 -208q0 -115 -58 -189l62 -61l-101 -88l-68 69q-49 -27 -133 -27zM323 124q21 0 29 2l-80 75l97 88l60 -76q7 26 7 71q0 146 -106 146q-57 0 -84 -36t-27 -113q0 -157 104 -157z" />
    <glyph glyph-name="r.sc" unicode="&#xf616;" horiz-adv-x="559" 
d="M425 240l123 -240h-201l-95 196h-20v-196h-185v565h264q104 0 153.5 -46t49.5 -119q0 -109 -89 -160zM232 326h13q77 0 77 55q0 47 -58 47h-32v-102z" />
    <glyph glyph-name="s.sc" unicode="&#xf617;" horiz-adv-x="531" 
d="M269 447q-56 0 -56 -33q0 -21 30.5 -33t74.5 -21.5t87.5 -25.5t74 -53.5t30.5 -95.5q0 -97 -71.5 -145.5t-176.5 -48.5q-239 0 -245 191l164 23q5 -42 22 -63t65 -21q64 0 64 39q0 22 -30.5 34t-74 20.5t-87 23.5t-74 52.5t-30.5 97.5q0 90 67 138.5t168 48.5
q36 0 65 -3.5t60.5 -14t52.5 -29t35.5 -50.5t15.5 -75l-167 -17q-1 34 -16.5 47.5t-47.5 13.5z" />
    <glyph glyph-name="t.sc" unicode="&#xf618;" horiz-adv-x="544" 
d="M366 0h-186v413h-170v152h524v-152h-168v-413z" />
    <glyph glyph-name="u.sc" unicode="&#xf619;" horiz-adv-x="592" 
d="M299 135q46 0 57.5 24.5t11.5 88.5v317h185v-345q0 -118 -70 -173.5t-189 -55.5q-134 0 -194.5 55t-60.5 179v340h186v-313q0 -23 0.5 -33.5t2.5 -27.5t6.5 -24.5t12.5 -16t21 -12t31 -3.5z" />
    <glyph glyph-name="v.sc" unicode="&#xf61a;" horiz-adv-x="598" 
d="M426 0h-250l-182 565h210l98 -387h8l104 387h190z" />
    <glyph glyph-name="w.sc" unicode="&#xf61b;" horiz-adv-x="879" 
d="M742 0h-237l-60 307h-5l-58 -307h-251l-124 565h193l63 -390h5l78 390h194l83 -387h8l53 387h187z" />
    <glyph glyph-name="x.sc" unicode="&#xf61c;" horiz-adv-x="575" 
d="M579 565l-183 -285l186 -280h-216l-89 134l-85 -134h-199l187 283l-178 282h206l91 -151l90 151h190z" />
    <glyph glyph-name="y.sc" unicode="&#xf61d;" horiz-adv-x="551" 
d="M377 204v-204h-187v204l-208 361h202l98 -201h7l93 201h187z" />
    <glyph glyph-name="z.sc" unicode="&#xf61e;" horiz-adv-x="505" 
d="M475 433l-230 -286h239v-147h-460v128l239 290h-234v147h446v-132z" />
    <glyph glyph-name="germandbls.sc" unicode="&#xf637;" horiz-adv-x="1054" 
d="M269 447q-56 0 -56 -33q0 -21 30.5 -33t74.5 -21.5t87.5 -25.5t74 -53.5t30.5 -95.5q0 -97 -71.5 -145.5t-176.5 -48.5q-239 0 -245 191l164 23q5 -42 22 -63t65 -21q64 0 64 39q0 22 -30.5 34t-74 20.5t-87 23.5t-74 52.5t-30.5 97.5q0 90 67 138.5t168 48.5
q36 0 65 -3.5t60.5 -14t52.5 -29t35.5 -50.5t15.5 -75l-167 -17q-1 34 -16.5 47.5t-47.5 13.5zM792 447q-56 0 -56 -33q0 -21 30.5 -33t74 -21.5t87.5 -25.5t74.5 -53.5t30.5 -95.5q0 -97 -71.5 -145.5t-176.5 -48.5q-239 0 -245 191l164 23q5 -42 22 -63t65 -21q64 0 64 39
q0 22 -30.5 34t-74 20.5t-87 23.5t-74 52.5t-30.5 97.5q0 90 67 138.5t168 48.5q36 0 65 -3.5t60.5 -14t52.5 -29t35.5 -50.5t15.5 -75l-167 -17q-1 34 -16.5 47.5t-47.5 13.5z" />
    <glyph glyph-name="percent.sc" unicode="&#xf69e;" horiz-adv-x="809" 
d="M182 211q-152 0 -152 144q0 153 158 153q151 0 151 -142q0 -73 -39.5 -114t-117.5 -41zM322 -10h-158l321 519h157zM186 290q16 0 23 14t7 58q0 40 -7 53.5t-23 13.5q-15 0 -22.5 -12.5t-7.5 -54.5q0 -43 7 -57.5t23 -14.5zM621 -10q-152 0 -152 144q0 154 159 154
q151 0 151 -143q0 -73 -40 -114t-118 -41zM626 69q15 0 22 15t7 58q0 40 -7 53t-23 13q-15 0 -22.5 -12.5t-7.5 -53.5q0 -44 7.5 -58.5t23.5 -14.5z" />
    <glyph glyph-name="perthousand.sc" unicode="&#xf69f;" horiz-adv-x="1135" 
d="M182 211q-152 0 -152 144q0 153 158 153q151 0 151 -142q0 -73 -39.5 -114t-117.5 -41zM322 -10h-158l321 519h157zM186 290q16 0 23 14t7 58q0 40 -7 53.5t-23 13.5q-15 0 -22.5 -12.5t-7.5 -54.5q0 -43 7 -57.5t23 -14.5zM621 -10q-152 0 -152 144q0 154 159 154
q151 0 151 -143q0 -73 -40 -114t-118 -41zM626 69q15 0 22 15t7 58q0 40 -7 53t-23 13q-15 0 -22.5 -12.5t-7.5 -53.5q0 -44 7.5 -58.5t23.5 -14.5zM947 -10q-152 0 -152 144q0 154 159 154q151 0 151 -143q0 -73 -40 -114t-118 -41zM952 69q15 0 22 15t7 58q0 40 -7 53
t-23 13q-15 0 -22.5 -12.5t-7.5 -53.5q0 -44 7.5 -58.5t23.5 -14.5z" />
    <glyph glyph-name="quotedblleft.sc" unicode="&#xf6ac;" horiz-adv-x="473" 
d="M246 633l-53 -241h-174l93 254zM465 633l-53 -241h-174l93 254z" />
    <glyph glyph-name="quotedblright.sc" unicode="&#xf6ad;" horiz-adv-x="454" 
d="M28 402l53 241h174l-93 -254zM228 402l53 241h174l-93 -254z" />
    <glyph glyph-name="commaaccent" unicode="&#xf6c3;" horiz-adv-x="500" 
d="M141 -273l51 206h166l-92 -223z" />
    <glyph glyph-name="commainferior" unicode="&#xf6e1;" horiz-adv-x="207" 
d="M-22 -218l49 194h153l-80 -204z" />
    <glyph glyph-name="commasuperior" unicode="&#xf6e2;" horiz-adv-x="207" 
d="M-22 278l49 194h153l-80 -204z" />
    <glyph glyph-name="hypheninferior" unicode="&#xf6e5;" horiz-adv-x="222" 
d="M202 -14h-182v122h182v-122z" />
    <glyph glyph-name="hyphensuperior" unicode="&#xf6e6;" horiz-adv-x="222" 
d="M202 482h-182v122h182v-122z" />
    <glyph glyph-name="periodinferior" unicode="&#xf6e7;" horiz-adv-x="225" 
d="M200 -77q0 -77 -86 -77q-89 0 -89 77q0 78 89 78q86 0 86 -78z" />
    <glyph glyph-name="periodsuperior" unicode="&#xf6e8;" horiz-adv-x="225" 
d="M200 419q0 -77 -86 -77q-89 0 -89 77q0 78 89 78q86 0 86 -78z" />
    <glyph glyph-name="zero.tosf" unicode="&#xf81e;" 
d="M278 -12q-144 0 -203.5 76t-59.5 230q0 149 65 225.5t211 76.5q145 0 204 -74.5t59 -222.5q0 -156 -64.5 -233.5t-211.5 -77.5zM285 116q39 0 54.5 37.5t15.5 140.5q0 100 -14.5 135.5t-52.5 35.5q-40 0 -56.5 -36.5t-16.5 -135.5q0 -103 14.5 -140t55.5 -37z" />
    <glyph glyph-name="one.tosf" unicode="&#xf81f;" 
d="M99 0v156h129v221q-23 -12 -74 -20.5t-80 -8.5l-7 149q146 12 214 83h134v-424h107v-156h-423z" />
    <glyph glyph-name="two.tosf" unicode="&#xf820;" 
d="M298 596q107 0 163 -48t56 -127q0 -77 -36 -120.5t-145 -116.5l-37 -25v-4h228v-155h-467v147l132 100q83 63 110.5 96.5t27.5 69.5q0 53 -54 53q-33 0 -49.5 -21.5t-24.5 -68.5l-158 31q19 106 86 147.5t168 41.5z" />
    <glyph glyph-name="three.tosf" unicode="&#xf821;" 
d="M14 109l160 30q10 -89 89 -89q82 0 82 74q0 39 -22.5 55t-74.5 16h-76v125h51q110 0 110 78q0 65 -63 65q-68 0 -83 -83l-157 30q35 186 256 186q112 0 171.5 -42.5t59.5 -128.5q0 -60 -37.5 -99t-87.5 -53v-4q64 -9 103 -49.5t39 -106.5q0 -98 -76.5 -147t-197.5 -49
q-45 0 -84 9.5t-74 30.5t-58.5 60t-29.5 92z" />
    <glyph glyph-name="four.tosf" unicode="&#xf822;" 
d="M484 -67h-181v126h-283v128l238 393h226v-376h69v-145h-69v-126zM171 204h132v222z" />
    <glyph glyph-name="five.tosf" unicode="&#xf823;" 
d="M64 225l23 355h402v-153h-271l-13 -113q57 44 140 44q86 0 137.5 -54.5t51.5 -155.5q0 -108 -76 -169.5t-190 -61.5q-227 0 -251 190l161 28q9 -80 86 -80q39 0 62 22.5t23 64.5q0 82 -74 82q-49 0 -91 -47z" />
    <glyph glyph-name="six.tosf" unicode="&#xf824;" 
d="M534 496l-161 -41q-6 37 -21 56.5t-49 19.5q-95 0 -97 -172q64 49 149 49q82 0 135.5 -47.5t53.5 -146.5q0 -61 -21.5 -106t-58.5 -70.5t-81 -37.5t-95 -12q-72 0 -123.5 23.5t-81 68.5t-42.5 103t-13 134q0 66 14.5 124t46 109t89 80.5t136.5 29.5q91 0 145 -39t75 -125
zM217 250q1 -28 4 -48t10.5 -40.5t23 -31t38.5 -10.5q36 0 52.5 24.5t16.5 60.5q0 40 -14.5 59t-47.5 19q-44 0 -83 -33z" />
    <glyph glyph-name="seven.tosf" unicode="&#xf825;" 
d="M276 -67h-197l260 494h-293v153h487v-137z" />
    <glyph glyph-name="eight.tosf" unicode="&#xf826;" 
d="M526 503q0 -52 -25.5 -84.5t-71.5 -60.5q68 -30 98 -68t30 -102q0 -90 -79.5 -145t-205.5 -55q-124 0 -192 47t-68 124q0 110 127 164q-99 46 -99 150q0 83 74 135.5t188 52.5q106 0 165 -44t59 -114zM358 175q0 30 -26.5 47t-89.5 40q-51 -34 -51 -86q0 -28 21.5 -45.5
t63.5 -17.5q82 0 82 62zM237 485q0 -24 20.5 -40.5t64.5 -34.5l7 8q7 7 8 8.5t6.5 8.5t7 9.5l5.5 9t5 11l2.5 11t1.5 12.5q0 25 -18 38t-47 13q-26 0 -44.5 -13.5t-18.5 -40.5z" />
    <glyph glyph-name="nine.tosf" unicode="&#xf827;" 
d="M24 87l163 38q6 -37 23.5 -58t56.5 -21q99 0 99 167q-62 -47 -151 -47q-81 0 -135 49t-54 148q0 118 74 175.5t182 57.5q258 0 258 -324q0 -354 -282 -354q-102 0 -162.5 43.5t-71.5 125.5zM353 323q-1 66 -16.5 103.5t-59.5 37.5q-36 0 -52.5 -24.5t-16.5 -60.5
q0 -87 64 -87q47 0 81 31z" />
    <glyph glyph-name="s_t" unicode="&#xfb06;" horiz-adv-x="895" 
d="M866 150l24 -120q-25 -16 -71 -29t-98 -13q-90 0 -135 43t-45 137v513l187 24v-180h136v-124h-136v-212q0 -32 12.5 -47t41.5 -15q42 0 84 23zM262 536q173 0 221 -133l-144 -49q-23 64 -78 64q-54 0 -54 -35q0 -19 21 -29.5t53 -14t68.5 -12.5t68.5 -22.5t53 -46.5
t21 -83q0 -93 -70.5 -140t-176.5 -47q-199 0 -232 130l148 56q23 -68 90 -68q62 0 62 36q0 19 -21 30.5t-52.5 15.5t-68 14t-68 24t-52.5 48t-21 84q0 86 66 132t166 46z" />
    <glyph glyph-name="hyphen.case" horiz-adv-x="311" 
d="M291 275h-271v150h271v-150z" />
    <glyph glyph-name="zero.osf" horiz-adv-x="619" 
d="M303 -12q-146 0 -212 77.5t-66 228.5q0 145 74.5 223.5t216.5 78.5q147 0 212.5 -76t65.5 -221q0 -311 -291 -311zM310 117q44 0 64.5 38t20.5 139q0 98 -19.5 134.5t-62.5 36.5q-45 0 -66.5 -37.5t-21.5 -134.5q0 -101 19 -138.5t66 -37.5z" />
    <glyph glyph-name="one.osf" horiz-adv-x="462" 
d="M383 0h-187v377q-23 -12 -74 -20.5t-80 -8.5l-7 149q146 12 214 83h134v-580z" />
    <glyph glyph-name="two.osf" horiz-adv-x="548" 
d="M287 596q107 0 163 -48t56 -127q0 -77 -36 -120.5t-145 -116.5l-37 -25v-4h228v-155h-467v147l132 100q83 63 110.5 96.5t27.5 69.5q0 53 -54 53q-33 0 -49.5 -21.5t-24.5 -68.5l-158 31q19 106 86 147.5t168 41.5z" />
    <glyph glyph-name="three.osf" horiz-adv-x="558" 
d="M14 109l160 30q10 -89 89 -89q82 0 82 74q0 39 -22.5 55t-74.5 16h-76v125h51q110 0 110 78q0 65 -63 65q-68 0 -83 -83l-157 30q35 186 256 186q112 0 171.5 -42.5t59.5 -128.5q0 -60 -37.5 -99t-87.5 -53v-4q64 -9 103 -49.5t39 -106.5q0 -98 -76.5 -147t-197.5 -49
q-45 0 -84 9.5t-74 30.5t-58.5 60t-29.5 92z" />
    <glyph glyph-name="four.osf" horiz-adv-x="605" 
d="M513 -67h-181v126h-303v128l258 393h226v-376h79v-145h-79v-126zM186 204h146v222z" />
    <glyph glyph-name="five.osf" horiz-adv-x="565" 
d="M57 225l23 355h402v-153h-271l-13 -113q57 44 140 44q86 0 137.5 -54.5t51.5 -155.5q0 -108 -76 -169.5t-190 -61.5q-227 0 -251 190l161 28q9 -80 86 -80q39 0 62 22.5t23 64.5q0 82 -74 82q-49 0 -91 -47z" />
    <glyph glyph-name="six.osf" horiz-adv-x="590" 
d="M551 496l-161 -41q-6 37 -21 56.5t-49 19.5q-95 0 -97 -172q64 49 149 49q82 0 135.5 -47.5t53.5 -146.5q0 -61 -21.5 -106t-58.5 -70.5t-81 -37.5t-95 -12q-72 0 -123.5 23.5t-81 68.5t-42.5 103t-13 134q0 66 14.5 124t46 109t89 80.5t136.5 29.5q91 0 145 -39t75 -125
zM234 250q1 -28 4 -48t10.5 -40.5t23 -31t38.5 -10.5q36 0 52.5 24.5t16.5 60.5q0 40 -14.5 59t-47.5 19q-44 0 -83 -33z" />
    <glyph glyph-name="seven.osf" horiz-adv-x="542" 
d="M257 -67h-197l260 494h-293v153h487v-137z" />
    <glyph glyph-name="eight.osf" horiz-adv-x="584" 
d="M531 503q0 -52 -25.5 -84.5t-71.5 -60.5q68 -30 98 -68t30 -102q0 -90 -79.5 -145t-205.5 -55q-124 0 -192 47t-68 124q0 110 127 164q-99 46 -99 150q0 83 74 135.5t188 52.5q106 0 165 -44t59 -114zM363 175q0 30 -26.5 47t-89.5 40q-51 -34 -51 -86q0 -28 21.5 -45.5
t63.5 -17.5q82 0 82 62zM242 485q0 -24 20.5 -40.5t64.5 -34.5l7 8q7 7 8 8.5t6.5 8.5t7 9.5l5.5 9t5 11l2.5 11t1.5 12.5q0 25 -18 38t-47 13q-26 0 -44.5 -13.5t-18.5 -40.5z" />
    <glyph glyph-name="nine.osf" horiz-adv-x="591" 
d="M38 87l163 38q6 -37 23.5 -58t56.5 -21q99 0 99 167q-62 -47 -151 -47q-81 0 -135 49t-54 148q0 118 74 175.5t182 57.5q258 0 258 -324q0 -354 -282 -354q-102 0 -162.5 43.5t-71.5 125.5zM367 323q-1 66 -16.5 103.5t-59.5 37.5q-36 0 -52.5 -24.5t-16.5 -60.5
q0 -87 64 -87q47 0 81 31z" />
    <glyph glyph-name="dollar.osf" horiz-adv-x="544" 
d="M265 528q-32 0 -48.5 -14.5t-16.5 -38.5q0 -41 58 -63q15 -6 69 -21q41 -11 66.5 -21.5t56.5 -31.5t46.5 -54.5t15.5 -79.5q0 -84 -48.5 -133.5t-129.5 -64.5v-89h-158v91q-147 31 -154 192l150 21q4 -27 7.5 -41.5t13.5 -32t28.5 -25t47.5 -7.5q77 0 77 63
q0 33 -28.5 48.5t-87.5 29.5q-9 2 -14 3q-40 10 -65.5 20.5t-55.5 30.5t-45 54.5t-15 82.5q0 72 41 118.5t111 65.5v91h158v-87q141 -27 145 -176l-152 -16q-2 45 -17.5 65t-55.5 20z" />
    <glyph glyph-name="Euro.osf" horiz-adv-x="675" 
d="M22 249l24 143h60q16 126 89 198t206 72q105 0 173.5 -55t72.5 -175l-167 -16q-3 58 -23 82.5t-63 24.5q-89 0 -104 -131h167l-24 -143h-142q16 -118 100 -118q43 0 62 22.5t28 70.5l165 -23q-9 -77 -52.5 -127t-94.5 -68t-110 -18q-137 0 -204 66.5t-80 194.5h-83z" />
    <glyph glyph-name="cent.osf" horiz-adv-x="547" 
d="M219 634h158v-106q67 -15 107 -61t47 -119l-166 -22q-5 44 -18 63t-44 19q-38 0 -56.5 -25t-18.5 -96q0 -72 18.5 -102t59.5 -30q33 0 50 19t23 62l153 -26q-10 -73 -53.5 -118t-112.5 -60v-115h-158v115q-84 21 -127.5 84t-43.5 154q0 102 47.5 168t134.5 88v108z" />
    <glyph glyph-name="sterling.osf" horiz-adv-x="623" 
d="M35 124h55q41 44 41 101q0 23 -7 44h-91v121h57q-17 46 -17 83q0 82 67.5 134.5t188.5 52.5q108 0 167 -41t79 -141l-162 -36q-4 23 -7.5 34t-12.5 27.5t-26 23.5t-43 7q-33 0 -54.5 -16.5t-21.5 -51.5q0 -36 21 -76h185v-121h-155q6 -19 6 -39q0 -61 -43 -106h74
q61 0 85 25t33 80l152 -25q-7 -106 -65.5 -155t-183.5 -49h-322v124z" />
    <glyph glyph-name="yen.osf" horiz-adv-x="591" 
d="M392 202v-202h-187v202h-124v143h79l-160 287h200l101 -215h5l98 215h187l-159 -287h86v-143h-126z" />
    <glyph glyph-name="florin.osf" horiz-adv-x="601" 
d="M639 519l-144 -49l-6 26.5t-7 20.5t-13.5 17t-21.5 5q-23 0 -33 -12.5t-15 -41.5l-17 -94h126l-18 -111h-126l-53 -288q-17 -97 -68 -142t-161 -45q-146 0 -179 141l145 49q4 -23 8 -34.5t14.5 -22t26.5 -10.5q23 0 32 11.5t14 40.5l56 300h-98l18 111h99l15 81
q18 97 67.5 142.5t155.5 45.5q150 0 183 -141z" />
    <glyph glyph-name="afii61352.osf" horiz-adv-x="1065" 
d="M600 0h-214l-147 363v-363h-174v625h223l140 -378v378h172v-625zM842 266q-100 0 -147 48t-47 131q0 86 50.5 135t150.5 49q99 0 145 -47t46 -129q0 -88 -49 -137.5t-149 -49.5zM845 363q23 0 34.5 17.5t11.5 69.5q0 49 -11.5 66t-32.5 17q-23 0 -36 -17t-13 -67
q0 -51 12 -68.5t35 -17.5zM671 129v106h350v-106h-350z" />
    <glyph glyph-name="percent.osf" horiz-adv-x="902" 
d="M198 257q-173 0 -173 176q0 187 181 187q172 0 172 -174q0 -89 -45.5 -139t-134.5 -50zM348 -12h-171l375 632h170zM203 352q21 0 31 20.5t10 69.5q0 45 -10 63.5t-31 18.5q-42 0 -42 -83q0 -89 42 -89zM697 -12q-173 0 -173 176q0 187 181 187q172 0 172 -174
q0 -89 -45.5 -139t-134.5 -50zM702 83q21 0 31 20.5t10 69.5q0 45 -10 63.5t-31 18.5q-42 0 -42 -83q0 -89 42 -89z" />
    <glyph glyph-name="perthousand.osf" horiz-adv-x="1156" 
d="M182 295q-157 0 -157 158q0 83 42 125t122 42q157 0 157 -158q0 -80 -42.5 -123.5t-121.5 -43.5zM304 -12h-171l375 632h170zM186 381q36 0 36 80q0 40 -9 56t-27 16q-37 0 -37 -73q0 -79 37 -79zM624 -12q-157 0 -157 158q0 83 42 125t122 42q157 0 157 -158
q0 -80 -42.5 -123.5t-121.5 -43.5zM628 74q36 0 36 80q0 40 -9 56t-27 16q-37 0 -37 -73q0 -79 37 -79zM967 -12q-157 0 -157 158q0 83 42 125t122 42q157 0 157 -158q0 -80 -42.5 -123.5t-121.5 -43.5zM971 74q36 0 36 80q0 40 -9 56t-27 16q-37 0 -37 -73q0 -79 37 -79z
" />
    <glyph glyph-name="zero.slash" 
d="M282 -12q-147 0 -206.5 90.5t-59.5 287.5q0 193 64 282t212 89q147 0 204.5 -87t57.5 -279q0 -200 -62 -291.5t-210 -91.5zM209 365q0 -62 6 -132l86 374q-2 0 -6 0.5t-6 0.5q-44 0 -62 -52.5t-18 -190.5zM286 114q43 0 59.5 54.5t16.5 197.5q0 56 -6 120l-87 -370
q5 -2 17 -2z" />
    <glyph glyph-name="zero.tf" 
d="M282 -12q-146 0 -204 90t-58 288q0 193 62 282t210 89q147 0 202.5 -86.5t55.5 -279.5q0 -201 -60 -292t-208 -91zM286 119q41 0 53 50.5t12 196.5q0 143 -11 190t-51 47q-41 0 -55 -49t-14 -189q0 -145 12 -195.5t54 -50.5z" />
    <glyph glyph-name="one.tf" 
d="M78 0v156h144v365q-23 -12 -74 -20.5t-80 -8.5l-7 149q146 12 214 83h134v-568h121v-156h-452z" />
    <glyph glyph-name="two.tf" 
d="M291 737q115 0 172.5 -50t57.5 -140q0 -73 -34 -126.5t-133 -160.5l-26 -28l-68 -71v-5h272v-156h-487v154l146 164q57 64 78.5 90t43 64.5t21.5 69.5q0 59 -61 59q-71 0 -83 -98l-154 27q11 105 81.5 156t173.5 51z" />
    <glyph glyph-name="three.tf" 
d="M16 180l162 30q10 -88 87 -88q36 0 58.5 24.5t22.5 69.5q0 48 -23 69.5t-73 21.5h-75v125h47q55 0 84.5 28t29.5 75q0 69 -63 69q-68 0 -83 -83l-157 30q35 186 256 186q110 0 170 -46t60 -133q0 -61 -38 -104.5t-94 -64.5v-4q149 -37 149 -179q0 -101 -75.5 -159.5
t-194.5 -58.5q-63 0 -113 16t-89 61t-48 115z" />
    <glyph glyph-name="four.tf" 
d="M486 0h-181v153h-288v128l243 443h226v-426h68v-145h-68v-153zM167 298h138v267z" />
    <glyph glyph-name="five.tf" 
d="M63 329l26 395h402v-153h-271l-16 -157q55 48 140 48q87 0 138 -55.5t51 -165.5q0 -118 -77.5 -185.5t-196.5 -67.5q-99 0 -165 45.5t-79 149.5l160 28q9 -86 87 -86q39 0 63.5 28t24.5 80q0 93 -75 93q-49 0 -92 -45z" />
    <glyph glyph-name="six.tf" 
d="M546 564l-163 -41q-5 45 -22.5 65t-49.5 20q-100 0 -103 -207q58 44 143 44q87 0 143 -51.5t56 -155.5q0 -126 -73 -188t-188 -62q-75 0 -127.5 26.5t-81 77t-40.5 112t-12 143.5q0 56 7.5 107t28.5 104t53 91.5t85.5 63t122.5 24.5q87 0 143.5 -38t77.5 -135zM217 286
q0 -78 16 -120.5t60 -42.5q67 0 67 102q0 47 -15 68.5t-52 21.5q-38 0 -76 -29z" />
    <glyph glyph-name="seven.tf" 
d="M272 -1h-197l268 572h-293v153h487v-137z" />
    <glyph glyph-name="eight.tf" 
d="M423 397q69 -34 102 -74.5t33 -113.5q0 -93 -76.5 -157t-209.5 -64q-130 0 -196.5 52.5t-66.5 139.5q0 130 139 182q-110 53 -110 172q0 96 72 149.5t186 53.5q117 0 178 -45t61 -125q0 -100 -112 -170zM242 301q-53 -39 -53 -101q0 -81 87 -81q38 0 60 20.5t22 55.5
q0 39 -28 61.5t-88 44.5zM319 454q42 29 42 93q0 67 -63 67q-33 0 -49 -16.5t-16 -41.5q0 -32 18.5 -55t67.5 -47z" />
    <glyph glyph-name="nine.tf" 
d="M15 167l164 47q14 -92 83 -92q46 0 73 52t28 152q-59 -45 -144 -45q-87 0 -143.5 52.5t-56.5 159.5q0 122 76 183t192 61q72 0 123 -26.5t79 -76.5t40.5 -112.5t12.5 -143.5q0 -56 -6.5 -106t-25.5 -104t-49.5 -92t-83 -63t-122.5 -25q-97 0 -159.5 40t-80.5 139z
M353 440q-2 43 -5 68.5t-11 48.5t-22.5 33t-37.5 10q-68 0 -68 -95t69 -95q36 0 75 30z" />
    <glyph glyph-name="dollar.tf" 
d="M285 578q-34 0 -53.5 -15t-19.5 -41q0 -20 9 -35t31 -26.5t38.5 -17t50.5 -15.5q37 -11 58.5 -18t53.5 -24.5t49 -37.5t30.5 -53.5t13.5 -76.5q0 -95 -56 -151t-145 -72v-78h-158v78q-161 29 -178 204l160 24q7 -53 30 -78t79 -25q92 0 92 65q0 17 -8 31t-17.5 22t-32 17
t-34.5 13t-43 12q-37 10 -58.5 18t-52.5 25t-48 37t-30 54t-13 77q0 78 45.5 131t119.5 74v96h158v-88q167 -24 173 -192l-165 -18q-5 45 -22 64.5t-57 19.5z" />
    <glyph glyph-name="Euro.tf" 
d="M362 288h-128q3 -84 20 -118t61 -34q47 0 63.5 24.5t27.5 82.5l155 -25q-7 -65 -33 -112t-63 -71.5t-74.5 -35.5t-78.5 -11q-135 0 -195 75t-69 225h-60l24 143h37q27 306 282 306q224 0 232 -248l-160 -17q-4 67 -21 93t-58 26q-44 0 -64.5 -37.5t-25.5 -122.5h152z" />
    <glyph glyph-name="cent.tf" 
d="M219 717h158v-106q67 -15 107 -61t47 -119l-166 -22q-5 44 -18 63t-44 19q-38 0 -56.5 -25t-18.5 -96q0 -72 18.5 -102t59.5 -30q33 0 50 19t23 62l153 -26q-10 -73 -53.5 -118t-112.5 -60v-115h-158v115q-84 21 -127.5 84t-43.5 154q0 102 47.5 168t134.5 88v108z" />
    <glyph glyph-name="sterling.tf" 
d="M-1 124h55q66 58 66 124q0 29 -13 59h-91v129h57q-36 62 -36 110q0 87 65 139t186 52q108 0 169.5 -44.5t78.5 -147.5l-166 -29q-5 28 -10.5 44t-22 30.5t-43.5 14.5q-67 0 -67 -64q0 -35 38 -105h167v-129h-137q6 -23 6 -46q0 -76 -62 -137h67q60 0 81 24t30 81l152 -25
q-7 -106 -65.5 -155t-183.5 -49h-321v124z" />
    <glyph glyph-name="yen.tf" 
d="M577 724l-154 -337h81v-143h-126v-244h-187v244h-124v143h74l-155 337h200l101 -265h5l98 265h187z" />
    <glyph glyph-name="florin.tf" 
d="M597 596l-144 -49l-6 26.5t-7 20.5t-13.5 17t-21.5 5q-23 0 -33 -12.5t-15 -41.5l-21 -113h126l-18 -111h-126l-63 -346q-17 -97 -67.5 -142t-157.5 -45q-150 0 -183 141l145 49q4 -23 8 -34.5t14.5 -22t26.5 -10.5q23 0 32 11.5t14 40.5l66 358h-98l18 111h99l19 100
q18 97 67.5 142.5t155.5 45.5q150 0 183 -141z" />
    <glyph glyph-name="zeroslash.tosf" 
d="M278 -12q-144 0 -203.5 76t-59.5 230q0 149 65 225.5t211 76.5q145 0 204 -74.5t59 -222.5q0 -156 -64.5 -233.5t-211.5 -77.5zM202 293q0 -81 12 -125l76 304q-15 0 -27 -3q-61 -19 -61 -176zM285 109q42 0 62.5 40t20.5 145q0 75 -11 117l-76 -302h4z" />
    <glyph glyph-name="dollar.tosf" 
d="M286 528q-32 0 -48.5 -14.5t-16.5 -38.5q0 -41 58 -63q15 -6 69 -21q41 -11 66.5 -21.5t56.5 -31.5t46.5 -54.5t15.5 -79.5q0 -84 -48.5 -133.5t-129.5 -64.5v-89h-158v91q-147 31 -154 192l150 21q4 -27 7.5 -41.5t13.5 -32t28.5 -25t47.5 -7.5q77 0 77 63
q0 33 -28.5 48.5t-87.5 29.5q-9 2 -14 3q-40 10 -65.5 20.5t-55.5 30.5t-45 54.5t-15 82.5q0 72 41 118.5t111 65.5v91h158v-87q141 -27 145 -176l-152 -16q-2 45 -17.5 65t-55.5 20z" />
    <glyph glyph-name="Euro.tosf" 
d="M-17 249l24 143h50q14 127 82 198.5t196 71.5q66 0 115 -21t82 -74t36 -135l-167 -16q-3 57 -18.5 82t-53.5 25q-39 0 -60.5 -31t-28.5 -100h158l-24 -143h-134q6 -65 25.5 -91.5t59.5 -26.5q38 0 53 21.5t24 71.5l165 -23q-7 -59 -31 -102t-59 -66t-73 -34t-80 -11
q-132 0 -194.5 66t-73.5 195h-73z" />
    <glyph glyph-name="cent.tosf" 
d="M223 634h158v-106q67 -15 107 -61t47 -119l-166 -22q-5 44 -18 63t-44 19q-38 0 -56.5 -25t-18.5 -96q0 -72 18.5 -102t59.5 -30q33 0 50 19t23 62l153 -26q-10 -73 -53.5 -118t-112.5 -60v-115h-158v115q-84 21 -127.5 84t-43.5 154q0 102 47.5 168t134.5 88v108z" />
    <glyph glyph-name="sterling.tosf" 
d="M5 124h55q41 44 41 101q0 23 -7 44h-91v121h57q-17 46 -17 83q0 83 64 135t184 52q102 0 159.5 -42t77.5 -142l-162 -36l-5.5 27t-7 23t-13 22.5t-21 12.5t-32.5 6q-32 0 -50.5 -16.5t-18.5 -48.5q0 -36 21 -76h168v-121h-138q6 -19 6 -39q0 -61 -43 -106h57q61 0 85 25
t33 80l152 -25q-7 -106 -65.5 -155t-183.5 -49h-305v124z" />
    <glyph glyph-name="yen.tosf" 
d="M378 202v-202h-187v202h-124v143h79l-160 287h200l101 -215h5l98 215h187l-159 -287h86v-143h-126z" />
    <glyph glyph-name="florin.tosf" 
d="M611 519l-144 -49l-6 26.5t-7 20.5t-13.5 17t-21.5 5q-23 0 -33 -12.5t-15 -41.5l-17 -94h126l-18 -111h-126l-53 -288q-17 -97 -68 -142t-161 -45q-146 0 -179 141l145 49q4 -23 8 -34.5t14.5 -22t26.5 -10.5q23 0 32 11.5t14 40.5l56 300h-98l18 111h99l15 81
q18 97 67.5 142.5t155.5 45.5q150 0 183 -141z" />
    <glyph glyph-name="idotaccent" horiz-adv-x="279" 
d="M234 525v-525h-187v525h187zM247 682q0 -50 -28 -78t-79 -28q-50 0 -78 28t-28 78t28 77t78 27q51 0 79 -27t28 -77z" />
    <glyph glyph-name="s_p" horiz-adv-x="1096" 
d="M543 -212v737h158l11 -54q58 65 155 65q91 0 145.5 -62.5t54.5 -199.5q0 -148 -58 -217t-152 -69q-81 0 -129 45v-245h-185zM728 365v-208q9 -9 29 -17.5t37 -8.5q76 0 76 136q0 67 -18 96.5t-55 29.5q-34 0 -69 -28zM260 536q173 0 221 -133l-144 -49q-23 64 -78 64
q-54 0 -54 -35q0 -12 6.5 -20t24.5 -13.5t28.5 -7.5t40.5 -7q40 -6 65 -13t56.5 -23.5t47.5 -47.5t16 -76q0 -93 -70.5 -140t-176.5 -47q-199 0 -232 130l148 56q23 -68 90 -68q62 0 62 36q0 12 -6.5 20t-22 13.5t-28 8.5t-37.5 8q-34 6 -52.5 10.5t-48.5 16.5t-46 28
t-29 44.5t-13 66.5q0 86 66 132t166 46z" />
    <glyph glyph-name="c_t" horiz-adv-x="939" 
d="M285 -12q-128 0 -194 72t-66 192q0 135 72 209.5t204 74.5q102 0 162 -51.5t69 -149.5l-164 -24q-5 49 -18.5 71.5t-49.5 22.5q-39 0 -59 -29t-20 -106q0 -78 18.5 -112t61.5 -34q37 0 56.5 22t25.5 69l150 -28q-14 -100 -79 -149.5t-169 -49.5zM910 150l24 -120
q-25 -16 -71 -29t-98 -13q-90 0 -135 43.5t-45 136.5v513l187 24v-180h136v-124h-136v-212q0 -32 12.5 -47t41.5 -15q42 0 84 23z" />
    <glyph glyph-name="c_h" horiz-adv-x="1132" 
d="M285 -12q-128 0 -194 72t-66 192q0 135 72 209.5t204 74.5q102 0 162 -51.5t69 -149.5l-164 -24q-5 49 -18.5 71.5t-49.5 22.5q-39 0 -59 -29t-20 -106q0 -78 18.5 -112t61.5 -34q37 0 56.5 22t25.5 69l150 -28q-14 -100 -79 -149.5t-169 -49.5zM1091 360v-360h-187v327
q0 65 -53 65q-43 0 -73 -30v-362h-187v755h185v-280q61 61 150 61q85 0 125 -43t40 -133z" />
    <glyph glyph-name="c_k" horiz-adv-x="1129" 
d="M285 -12q-128 0 -194 72t-66 192q0 135 72 209.5t204 74.5q102 0 162 -51.5t69 -149.5l-164 -24q-5 49 -18.5 71.5t-49.5 22.5q-39 0 -59 -29t-20 -106q0 -78 18.5 -112t61.5 -34q37 0 56.5 22t25.5 69l150 -28q-14 -100 -79 -149.5t-169 -49.5zM777 755v-391l143 161
h206l-170 -188l183 -337h-207l-121 224l-34 -34v-190h-187v755h187z" />
    <glyph glyph-name="T_h" horiz-adv-x="1127" 
d="M1086 360v-360h-187v327q0 65 -53 65q-43 0 -73 -30v-362h-187v569h-179v-569h-192v569h-210v155h581v31h185v-280q61 61 150 61q85 0 125 -43t40 -133z" />
    <glyph glyph-name="revcommaaccent" horiz-adv-x="500" 
d="M358 775l-51 -206h-166l92 223z" />
    <glyph glyph-name="caron.alt" horiz-adv-x="500" 
d="M151 561l33 194h165l-69 -204z" />
    <glyph glyph-name="tilde.cap" horiz-adv-x="500" 
d="M173 944q36 0 81.5 -21t65.5 -21q15 0 20 9t5 31l88 -5q8 -67 -14.5 -109t-80.5 -42q-40 0 -86.5 21.5t-63.5 21.5t-23 -9.5t-2 -34.5l-97 4q-8 69 20.5 112t86.5 43z" />
    <glyph glyph-name="ring.cap" horiz-adv-x="500" 
d="M370 836q0 -53 -33 -82t-87 -29t-87.5 28.5t-33.5 79.5q0 54 35 84t86 30q52 0 86 -29.5t34 -81.5zM249 791q46 0 46 48q0 45 -45 45q-22 0 -35 -11.5t-13 -33.5q0 -48 47 -48z" />
    <glyph glyph-name="circumflex.cap" horiz-adv-x="500" 
d="M315 769l-64 69l-69 -70l-121 6l101 149h177l94 -149z" />
    <glyph glyph-name="acute.cap" horiz-adv-x="500" 
d="M429 918l-150 -150l-129 7l86 143h193z" />
    <glyph glyph-name="grave.cap" horiz-adv-x="500" 
d="M223 768l-150 150h193l86 -143z" />
    <glyph glyph-name="dieresis.cap" horiz-adv-x="500" 
d="M227 862q0 -39 -26.5 -62.5t-69.5 -23.5q-44 0 -70.5 23.5t-26.5 62.5t26.5 62.5t70.5 23.5q43 0 69.5 -23.5t26.5 -62.5zM465 862q0 -39 -26 -62.5t-70 -23.5q-43 0 -70 23.5t-27 62.5t27 62.5t70 23.5q44 0 70 -23.5t26 -62.5z" />
    <glyph glyph-name="caron.cap" horiz-adv-x="500" 
d="M185 925l64 -69l69 70l121 -6l-101 -149h-177l-94 149z" />
    <glyph glyph-name="macron.cap" horiz-adv-x="500" 
d="M411 780h-323v118h323v-118z" />
    <glyph glyph-name="dotaccent.cap" horiz-adv-x="500" 
d="M357 879q0 -50 -28 -78t-79 -28q-50 0 -78 28t-28 78t28 77t78 27q51 0 79 -27t28 -77z" />
    <glyph glyph-name="cedilla.cap" horiz-adv-x="500" 
d="M136 -246l9 81q27 -6 50 -6q51 0 51 35q0 21 -15 28t-45 8l17 130l80 -8l-9 -68q89 -15 89 -93q0 -58 -40 -88.5t-104 -30.5q-39 0 -83 12z" />
    <glyph glyph-name="hungarumlaut.cap" horiz-adv-x="500" 
d="M315 916l-107 -148l-115 12l40 136h182zM541 921l-160 -153l-122 7l89 146h193z" />
    <glyph glyph-name="commaaccent.cap" horiz-adv-x="500" 
d="M141 -273l51 206h166l-92 -223z" />
    <glyph glyph-name="breve.cap" horiz-adv-x="500" 
d="M253 871q31 0 47 14t23 51l115 -7q-16 -164 -191 -164q-81 0 -128.5 39t-51.5 122l120 12q5 -36 20.5 -51.5t45.5 -15.5z" />
    <glyph glyph-name="ogonek.cap" horiz-adv-x="500" 
d="M314 -102l75 -33q-16 -52 -56.5 -81.5t-95.5 -29.5q-126 0 -126 102q0 88 133 168l80 -19q-43 -42 -62 -68t-19 -51q0 -30 27 -30q28 0 44 42z" />
    <glyph glyph-name="a.sup" horiz-adv-x="408" 
d="M356 580v-129q0 -14 4 -20t18 -6q9 0 21 4l3 -72q-35 -15 -83 -15q-76 0 -93 49q-35 -49 -101 -49q-61 0 -86 28.5t-25 64.5q0 55 40 82t126 35l37 3v4q0 19 -1 27.5t-9 16.5t-24 8q-18 0 -26.5 -9t-13.5 -32l-117 20q19 115 168 115q162 0 162 -125zM218 442v45
q-61 -2 -61 -31q0 -23 27 -23q12 0 34 9z" />
    <glyph glyph-name="b.sup" horiz-adv-x="432" 
d="M152 350h-120v498h141v-181q35 38 98 38q61 0 99.5 -41.5t38.5 -131.5q0 -190 -152 -190q-58 0 -95 42h-2q-1 -1 -2 -1zM174 587v-128q16 -13 39 -13q45 0 45 80q0 75 -47 75q-19 0 -37 -14z" />
    <glyph glyph-name="c.sup" horiz-adv-x="394" 
d="M204 342q-90 0 -137.5 47.5t-47.5 126.5q0 89 51.5 139t145.5 50q73 0 116 -36t50 -104l-125 -17q-2 20 -5 30.5t-12 19.5t-25 9q-46 0 -46 -78q0 -44 10.5 -64.5t38.5 -20.5q42 0 50 54l114 -20q-10 -68 -56 -102t-122 -34z" />
    <glyph glyph-name="d.sup" horiz-adv-x="432" 
d="M400 848v-498h-119l-8 32h-1l-2 1q-30 -41 -97 -41q-70 0 -110 42.5t-40 131.5q0 97 46.5 143t109.5 46q55 0 85 -31v174h136zM258 455v137q-12 10 -30 10q-54 0 -54 -80q0 -77 51 -77q20 0 33 10z" />
    <glyph glyph-name="e.sup" horiz-adv-x="393" 
d="M208 342q-99 0 -144 51t-45 130q0 89 52.5 135.5t133.5 46.5q169 0 169 -167q0 -27 -1 -38h-203q1 -32 10.5 -46.5t35.5 -14.5q39 0 46 38l112 -26q-10 -49 -51.5 -79t-114.5 -30zM171 569h56q1 48 -28 48t-28 -48z" />
    <glyph glyph-name="f.sup" horiz-adv-x="290" 
d="M300 842l-5 -91q-28 8 -47 8q-28 0 -42 -10.5t-14 -42.5v-8h93v-94h-93v-254h-143v254h-46v94h46v27q0 67 42.5 99.5t114.5 32.5q58 0 94 -15z" />
    <glyph glyph-name="g.sup" horiz-adv-x="407" 
d="M200 705q58 0 89 -12q28 59 77 59q21 0 41 -7v-81q-37 5 -68 -3q33 -36 33 -80q0 -58 -46 -91.5t-124 -33.5q-33 0 -66 6q-4 -5 -4 -11q0 -13 20 -14l114 -6q65 -4 97 -27t32 -77q0 -125 -197 -125q-99 0 -143.5 18t-44.5 58q0 22 18 37t53 16v1q-62 20 -62 67
q0 43 61 85q-64 38 -47 127q12 42 55 68t112 26zM247 581q0 39 -41 39q-45 0 -45 -39t43 -39q19 0 31 10.5t12 28.5zM260 298q0 9 -6.5 12t-27.5 4l-85 4q-7 -4 -7 -14q0 -25 73 -25q53 0 53 19z" />
    <glyph glyph-name="h.sup" horiz-adv-x="419" 
d="M389 589v-239h-143v215q0 36 -32 36q-24 0 -41 -15v-236h-143v498h141v-182q39 39 102 39q59 0 87.5 -28t28.5 -88z" />
    <glyph glyph-name="i.sup" horiz-adv-x="209" 
d="M176 698v-348h-143v348h143zM185 801q0 -36 -21.5 -56t-59.5 -20q-37 0 -58 20t-21 56q0 35 20.5 54.5t58.5 19.5t59.5 -19.5t21.5 -54.5z" />
    <glyph glyph-name="j.sup" horiz-adv-x="209" 
d="M22 203q-70 0 -102 23l8 99q30 -15 61 -15q45 0 45 49v339h143v-360q0 -70 -42.5 -102.5t-112.5 -32.5zM185 799q0 -35 -21.5 -55t-59.5 -20q-37 0 -58 20t-21 55q0 36 20.5 55.5t58.5 19.5t59.5 -19.5t21.5 -55.5z" />
    <glyph glyph-name="k.sup" horiz-adv-x="425" 
d="M175 848v-247l90 97h157l-118 -124l127 -224h-158l-80 142l-18 -16v-126h-143v498h143z" />
    <glyph glyph-name="l.sup" horiz-adv-x="209" 
d="M177 848v-498h-143v498h143z" />
    <glyph glyph-name="m.sup" horiz-adv-x="601" 
d="M173 591v-241h-143v348h121l6 -29q40 36 99 36q69 0 96 -41q31 41 103 41q55 0 85.5 -28.5t30.5 -84.5v-242h-143v220q0 31 -28 31q-20 0 -28 -12q-1 -14 -1 -41v-198h-143v220q0 31 -26 31q-19 0 -29 -10z" />
    <glyph glyph-name="n.sup" horiz-adv-x="419" 
d="M389 589v-239h-143v215q0 36 -32 36q-24 0 -41 -15v-236h-143v348h127l7 -32q37 39 105 39q62 0 91 -28t29 -88z" />
    <glyph glyph-name="o.sup" horiz-adv-x="426" 
d="M207 342q-188 0 -188 180q0 86 49 134.5t149 48.5q190 0 190 -176q0 -89 -49 -138t-151 -49zM213 438q24 0 34.5 19t10.5 68q0 46 -9.5 65t-33.5 19q-25 0 -35.5 -19t-10.5 -65q0 -49 9 -68t35 -19z" />
    <glyph glyph-name="p.sup" horiz-adv-x="431" 
d="M32 210v488h121l8 -35q37 42 106 42q64 0 102.5 -41.5t38.5 -131.5q0 -99 -40.5 -144.5t-105.5 -45.5q-58 0 -92 32v-164h-138zM173 588v-129q13 -13 38 -13q46 0 46 80q0 75 -45 75q-19 0 -39 -13z" />
    <glyph glyph-name="q.sup" horiz-adv-x="433" 
d="M400 698v-488h-136v168q-36 -36 -95 -36q-146 0 -146 175q0 96 47 142t110 46q64 0 91 -42l14 35h115zM258 455v138q-12 9 -33 9q-51 0 -51 -77q0 -79 51 -79q19 0 33 9z" />
    <glyph glyph-name="r.sup" horiz-adv-x="303" 
d="M295 704v-126q-76 3 -122 -27v-201h-143v348h123l10 -59q41 66 111 66q14 0 21 -1z" />
    <glyph glyph-name="s.sup" horiz-adv-x="371" 
d="M190 705q124 0 159 -85l-108 -37q-19 38 -53 38q-29 0 -29 -18q0 -17 44 -24q3 0 22 -3q27 -3 45.5 -7.5t40.5 -15.5t33.5 -31.5t11.5 -51.5q0 -64 -51.5 -96t-127.5 -32q-72 0 -112.5 23.5t-53.5 59.5l112 42q14 -39 59 -39q35 0 35 17q0 6 -3.5 10.5t-15 7.5t-17.5 4
l-25 4q-29 5 -46.5 10t-40.5 17t-34.5 33.5t-11.5 53.5q0 58 47.5 89t119.5 31z" />
    <glyph glyph-name="t.sup" horiz-adv-x="318" 
d="M293 465l17 -94q-50 -29 -123 -29q-131 0 -131 124v138h-53v94h53v94l143 17v-111h95v-94h-95v-116q0 -38 36 -38q28 0 58 15z" />
    <glyph glyph-name="u.sup" horiz-adv-x="413" 
d="M29 456v242h143v-215q0 -36 29 -36q21 0 38 15v236h143v-348h-122l-11 39q-32 -47 -105 -47q-115 0 -115 114z" />
    <glyph glyph-name="v.sup" horiz-adv-x="405" 
d="M285 350h-168l-121 348h154l53 -222h4l54 222h148z" />
    <glyph glyph-name="w.sup" horiz-adv-x="613" 
d="M268 350h-169l-103 348h142l50 -217h2l50 217h137l53 -218h3l44 218h140l-106 -348h-158l-46 188h-2z" />
    <glyph glyph-name="x.sup" horiz-adv-x="406" 
d="M402 698l-116 -174l117 -174h-151l-55 84l-56 -84h-133l117 170l-122 178h154l55 -93l54 93h136z" />
    <glyph glyph-name="y.sup" horiz-adv-x="404" 
d="M138 340l-143 358h154l56 -215h3l53 215h148l-139 -375q-24 -65 -56 -92.5t-95 -27.5q-58 0 -90 16l9 93q34 -10 53 -10t27.5 7t15.5 22z" />
    <glyph glyph-name="z.sup" horiz-adv-x="341" 
d="M312 605l-131 -151h143v-104h-302v92l138 159h-138v97h290v-93z" />
    <glyph glyph-name="minusinferior" horiz-adv-x="446" 
d="M358 15h-269v112h269v-112z" />
    <glyph glyph-name="plusinferior" horiz-adv-x="446" 
d="M281 -68h-118v83h-81v112h81v80h118v-80h82v-112h-82v-83z" />
    <glyph glyph-name="equalinferior" horiz-adv-x="448" 
d="M359 -83h-271v110h271v-110zM359 65h-271v110h271v-110z" />
    <glyph glyph-name="a.sinf" horiz-adv-x="408" 
d="M356 84v-129q0 -14 4 -20t18 -6q9 0 21 4l3 -72q-35 -15 -83 -15q-76 0 -93 49q-35 -49 -101 -49q-61 0 -86 28.5t-25 64.5q0 55 40 82t126 35l37 3v4q0 19 -1 27.5t-9 16.5t-24 8q-18 0 -26.5 -9t-13.5 -32l-117 20q19 115 168 115q162 0 162 -125zM218 -54v45
q-61 -2 -61 -31q0 -23 27 -23q12 0 34 9z" />
    <glyph glyph-name="b.sinf" horiz-adv-x="432" 
d="M152 -146h-120v498h141v-181q35 38 98 38q61 0 99.5 -41.5t38.5 -131.5q0 -190 -152 -190q-58 0 -95 42h-2q-1 -1 -2 -1zM174 91v-128q16 -13 39 -13q45 0 45 80q0 75 -47 75q-19 0 -37 -14z" />
    <glyph glyph-name="c.sinf" horiz-adv-x="394" 
d="M204 -154q-90 0 -137.5 47.5t-47.5 126.5q0 89 51.5 139t145.5 50q73 0 116 -36t50 -104l-125 -17q-2 20 -5 30.5t-12 19.5t-25 9q-46 0 -46 -78q0 -44 10.5 -64.5t38.5 -20.5q42 0 50 54l114 -20q-10 -68 -56 -102t-122 -34z" />
    <glyph glyph-name="d.sinf" horiz-adv-x="432" 
d="M400 352v-498h-119l-8 32h-1l-2 1q-30 -41 -97 -41q-70 0 -110 42.5t-40 131.5q0 97 46.5 143t109.5 46q55 0 85 -31v174h136zM258 -41v137q-12 10 -30 10q-54 0 -54 -80q0 -77 51 -77q20 0 33 10z" />
    <glyph glyph-name="e.sinf" horiz-adv-x="393" 
d="M208 -154q-99 0 -144 51t-45 130q0 89 52.5 135.5t133.5 46.5q169 0 169 -167q0 -27 -1 -38h-203q1 -32 10.5 -46.5t35.5 -14.5q39 0 46 38l112 -26q-10 -49 -51.5 -79t-114.5 -30zM171 73h56q1 48 -28 48t-28 -48z" />
    <glyph glyph-name="f.sinf" horiz-adv-x="290" 
d="M300 346l-5 -91q-28 8 -47 8q-28 0 -42 -10.5t-14 -42.5v-8h93v-94h-93v-254h-143v254h-46v94h46v27q0 67 42.5 99.5t114.5 32.5q58 0 94 -15z" />
    <glyph glyph-name="g.sinf" horiz-adv-x="407" 
d="M200 209q58 0 89 -12q28 59 77 59q21 0 41 -7v-81q-37 5 -68 -3q33 -36 33 -80q0 -58 -46 -91.5t-124 -33.5q-33 0 -66 6q-4 -5 -4 -11q0 -13 20 -14l114 -6q65 -4 97 -27t32 -77q0 -125 -197 -125q-99 0 -143.5 18t-44.5 58q0 22 18 37t53 16v1q-62 20 -62 67
q0 43 61 85q-64 38 -47 127q12 42 55 68t112 26zM247 85q0 39 -41 39q-45 0 -45 -39t43 -39q19 0 31 10.5t12 28.5zM260 -198q0 9 -6.5 12t-27.5 4l-85 4q-7 -4 -7 -14q0 -25 73 -25q53 0 53 19z" />
    <glyph glyph-name="h.sinf" horiz-adv-x="419" 
d="M389 93v-239h-143v215q0 36 -32 36q-24 0 -41 -15v-236h-143v498h141v-182q39 39 102 39q59 0 87.5 -28t28.5 -88z" />
    <glyph glyph-name="i.sinf" horiz-adv-x="209" 
d="M176 202v-348h-143v348h143zM185 305q0 -36 -21.5 -56t-59.5 -20q-37 0 -58 20t-21 56q0 35 20.5 54.5t58.5 19.5t59.5 -19.5t21.5 -54.5z" />
    <glyph glyph-name="j.sinf" horiz-adv-x="209" 
d="M22 -293q-70 0 -102 23l8 99q30 -15 61 -15q45 0 45 49v339h143v-360q0 -70 -42.5 -102.5t-112.5 -32.5zM185 303q0 -35 -21.5 -55t-59.5 -20q-37 0 -58 20t-21 55q0 36 20.5 55.5t58.5 19.5t59.5 -19.5t21.5 -55.5z" />
    <glyph glyph-name="k.sinf" horiz-adv-x="425" 
d="M175 352v-247l90 97h157l-118 -124l127 -224h-158l-80 142l-18 -16v-126h-143v498h143z" />
    <glyph glyph-name="l.sinf" horiz-adv-x="209" 
d="M177 352v-498h-143v498h143z" />
    <glyph glyph-name="m.sinf" horiz-adv-x="601" 
d="M173 95v-241h-143v348h121l6 -29q40 36 99 36q69 0 96 -41q31 41 103 41q55 0 85.5 -28.5t30.5 -84.5v-242h-143v220q0 31 -28 31q-20 0 -28 -12q-1 -14 -1 -41v-198h-143v220q0 31 -26 31q-19 0 -29 -10z" />
    <glyph glyph-name="n.sinf" horiz-adv-x="419" 
d="M389 93v-239h-143v215q0 36 -32 36q-24 0 -41 -15v-236h-143v348h127l7 -32q37 39 105 39q62 0 91 -28t29 -88z" />
    <glyph glyph-name="o.sinf" horiz-adv-x="426" 
d="M207 -154q-188 0 -188 180q0 86 49 134.5t149 48.5q190 0 190 -176q0 -89 -49 -138t-151 -49zM213 -58q24 0 34.5 19t10.5 68q0 46 -9.5 65t-33.5 19q-25 0 -35.5 -19t-10.5 -65q0 -49 9 -68t35 -19z" />
    <glyph glyph-name="p.sinf" horiz-adv-x="431" 
d="M32 -286v488h121l8 -35q37 42 106 42q64 0 102.5 -41.5t38.5 -131.5q0 -99 -40.5 -144.5t-105.5 -45.5q-58 0 -92 32v-164h-138zM173 92v-129q13 -13 38 -13q46 0 46 80q0 75 -45 75q-19 0 -39 -13z" />
    <glyph glyph-name="q.sinf" horiz-adv-x="433" 
d="M400 202v-488h-136v168q-36 -36 -95 -36q-146 0 -146 175q0 96 47 142t110 46q64 0 91 -42l14 35h115zM258 -41v138q-12 9 -33 9q-51 0 -51 -77q0 -79 51 -79q19 0 33 9z" />
    <glyph glyph-name="r.sinf" horiz-adv-x="303" 
d="M295 208v-126q-76 3 -122 -27v-201h-143v348h123l10 -59q41 66 111 66q14 0 21 -1z" />
    <glyph glyph-name="s.sinf" horiz-adv-x="371" 
d="M190 209q124 0 159 -85l-108 -37q-19 38 -53 38q-29 0 -29 -18q0 -17 44 -24q3 0 22 -3q27 -3 45.5 -7.5t40.5 -15.5t33.5 -31.5t11.5 -51.5q0 -64 -51.5 -96t-127.5 -32q-72 0 -112.5 23.5t-53.5 59.5l112 42q14 -39 59 -39q35 0 35 17q0 6 -3.5 10.5t-15 7.5t-17.5 4
l-25 4q-29 5 -46.5 10t-40.5 17t-34.5 33.5t-11.5 53.5q0 58 47.5 89t119.5 31z" />
    <glyph glyph-name="t.sinf" horiz-adv-x="318" 
d="M293 -31l17 -94q-50 -29 -123 -29q-131 0 -131 124v138h-53v94h53v94l143 17v-111h95v-94h-95v-116q0 -38 36 -38q28 0 58 15z" />
    <glyph glyph-name="u.sinf" horiz-adv-x="413" 
d="M29 -40v242h143v-215q0 -36 29 -36q21 0 38 15v236h143v-348h-122l-11 39q-32 -47 -105 -47q-115 0 -115 114z" />
    <glyph glyph-name="v.sinf" horiz-adv-x="405" 
d="M285 -146h-168l-121 348h154l53 -222h4l54 222h148z" />
    <glyph glyph-name="w.sinf" horiz-adv-x="613" 
d="M268 -146h-169l-103 348h142l50 -217h2l50 217h137l53 -218h3l44 218h140l-106 -348h-158l-46 188h-2z" />
    <glyph glyph-name="x.sinf" horiz-adv-x="406" 
d="M402 202l-116 -174l117 -174h-151l-55 84l-56 -84h-133l117 170l-122 178h154l55 -93l54 93h136z" />
    <glyph glyph-name="y.sinf" horiz-adv-x="404" 
d="M138 -156l-143 358h154l56 -215h3l53 215h148l-139 -375q-24 -65 -56 -92.5t-95 -27.5q-58 0 -90 16l9 93q34 -10 53 -10t27.5 7t15.5 22z" />
    <glyph glyph-name="z.sinf" horiz-adv-x="341" 
d="M312 109l-131 -151h143v-104h-302v92l138 159h-138v97h290v-93z" />
    <glyph glyph-name="zero.num" horiz-adv-x="444" 
d="M219 274q-95 0 -144.5 56.5t-49.5 184.5q0 231 201 231q100 0 146.5 -52.5t46.5 -178.5q0 -130 -49.5 -185.5t-150.5 -55.5zM222 392q10 0 15 7t9 34.5t4 79.5q0 51 -3.5 77.5t-8.5 33t-14 6.5q-10 0 -15.5 -5.5t-9.5 -32t-4 -77.5q0 -54 3.5 -81.5t8.5 -34.5t15 -7z" />
    <glyph glyph-name="one.num" horiz-adv-x="328" 
d="M293 279h-163v293q-14 -6 -48.5 -11t-53.5 -5l-5 127q100 7 149 52h121v-456z" />
    <glyph glyph-name="two.num" horiz-adv-x="416" 
d="M207 745q89 0 130.5 -33.5t41.5 -89.5q0 -52 -32 -92t-117 -106l-9 -7v-5h165v-131h-352v132l94 87q52 48 70.5 71t18.5 39q0 21 -20 21q-30 0 -37 -49l-139 17q6 72 58.5 109t127.5 37z" />
    <glyph glyph-name="three.num" horiz-adv-x="420" 
d="M12 406l138 25q4 -43 41 -43q34 0 34 34q0 19 -8.5 28t-33.5 9h-55v102h32q59 0 59 48q0 26 -25 26q-29 0 -37 -41l-134 24q24 128 186 128q80 0 124 -28t44 -83q0 -72 -86 -109v-3q98 -22 98 -105q0 -69 -54 -106.5t-141 -37.5q-69 0 -120.5 30t-61.5 102z" />
    <glyph glyph-name="four.num" horiz-adv-x="459" 
d="M394 281h-157v85h-207v108l169 263h194v-250h51v-121h-50v-85zM162 487h75v118z" />
    <glyph glyph-name="five.num" horiz-adv-x="423" 
d="M47 478l16 260h291v-128h-183l-12 -74l3 -1q37 39 96 39t91.5 -36.5t32.5 -102.5q0 -78 -54.5 -119.5t-136.5 -41.5q-164 0 -179 135l136 22q2 -44 41 -44q18 0 27 11.5t9 28.5q0 22 -10 31t-21 9q-21 0 -43 -20z" />
    <glyph glyph-name="six.num" horiz-adv-x="438" 
d="M412 622l-141 -27q-3 42 -31 42q-50 0 -50 -109q33 35 96 35q50 0 87 -29.5t37 -99.5q0 -84 -52 -122t-134 -38q-186 0 -186 230q0 46 10 86t32 76.5t65.5 58t103.5 21.5q142 0 163 -124zM197 452q-1 -66 31 -66q23 0 23 36q0 43 -26 43q-15 0 -28 -13z" />
    <glyph glyph-name="seven.num" horiz-adv-x="393" 
d="M200 281h-170l169 329h-171v128h338v-116z" />
    <glyph glyph-name="eight.num" horiz-adv-x="436" 
d="M328 545q93 -36 93 -120q0 -62 -57.5 -106.5t-156.5 -44.5q-90 0 -141 34t-51 89q0 41 22.5 67.5t68.5 45.5q-72 26 -72 103q0 62 54 97.5t133 35.5q86 0 133 -29t47 -79q0 -66 -73 -93zM180 465q-24 -24 -24 -47q0 -19 14.5 -30.5t40.5 -11.5q36 0 36 34q0 18 -15 30
t-52 25zM249 582q18 21 18 41q0 27 -39 27q-14 0 -22.5 -8t-8.5 -20q0 -24 52 -40z" />
    <glyph glyph-name="nine.num" horiz-adv-x="435" 
d="M22 397l141 36q2 -15 4.5 -23.5t11 -16.5t22.5 -8q20 0 34.5 25t14.5 80q-37 -29 -91 -29q-55 0 -93 29t-38 101q0 81 55 118t137 37q97 0 138.5 -60t41.5 -170q0 -32 -4.5 -62t-18 -64t-35 -58.5t-59.5 -41t-88 -16.5q-71 0 -116 27t-57 96zM237 560q-2 42 -7 58t-20 16
q-22 0 -22 -33q0 -49 28 -49q13 0 21 8z" />
    <glyph glyph-name="parenleft.ordn" horiz-adv-x="314" 
d="M298 209l-161 -1q-43 52 -72.5 123t-29.5 150q0 80 28 145t84 135h156q-49 -59 -77 -122t-28 -154q0 -57 17 -112.5t35.5 -88.5t47.5 -75z" />
    <glyph glyph-name="parenright.ordn" horiz-adv-x="314" 
d="M16 760l161 1q43 -52 72.5 -123.5t29.5 -149.5q0 -80 -28 -145t-84 -135h-156q49 59 77 122t28 154q0 57 -17 112.5t-35.5 88.5t-47.5 75z" />
    <glyph glyph-name="hyphen.ordn" horiz-adv-x="222" 
d="M202 414h-182v122h182v-122z" />
    <glyph glyph-name="comma.ordn" horiz-adv-x="207" 
d="M-22 210l49 194h153l-80 -204z" />
    <glyph glyph-name="period.ordn" horiz-adv-x="225" 
d="M200 351q0 -77 -86 -77q-89 0 -89 77q0 78 89 78q86 0 86 -78z" />
    <glyph glyph-name="minus.ordn" horiz-adv-x="446" 
d="M358 443h-269v112h269v-112z" />
    <glyph glyph-name="plus.ordn" horiz-adv-x="446" 
d="M281 360h-118v83h-81v112h81v80h118v-80h82v-112h-82v-83z" />
    <glyph glyph-name="equal.ordn" horiz-adv-x="448" 
d="M359 345h-271v110h271v-110zM359 493h-271v110h271v-110z" />
    <glyph glyph-name="a.ordn" horiz-adv-x="408" 
d="M356 512v-129q0 -14 4 -20t18 -6q9 0 21 4l3 -72q-35 -15 -83 -15q-76 0 -93 49q-35 -49 -101 -49q-61 0 -86 28.5t-25 64.5q0 55 40 82t126 35l37 3v4q0 19 -1 27.5t-9 16.5t-24 8q-18 0 -26.5 -9t-13.5 -32l-117 20q19 115 168 115q162 0 162 -125zM218 374v45
q-61 -2 -61 -31q0 -23 27 -23q12 0 34 9z" />
    <glyph glyph-name="b.ordn" horiz-adv-x="432" 
d="M152 282h-120v498h141v-181q35 38 98 38q61 0 99.5 -41.5t38.5 -131.5q0 -190 -152 -190q-58 0 -95 42h-2q-1 -1 -2 -1zM174 519v-128q16 -13 39 -13q45 0 45 80q0 75 -47 75q-19 0 -37 -14z" />
    <glyph glyph-name="c.ordn" horiz-adv-x="394" 
d="M204 274q-90 0 -137.5 47.5t-47.5 126.5q0 89 51.5 139t145.5 50q73 0 116 -36t50 -104l-125 -17q-2 20 -5 30.5t-12 19.5t-25 9q-46 0 -46 -78q0 -44 10.5 -64.5t38.5 -20.5q42 0 50 54l114 -20q-10 -68 -56 -102t-122 -34z" />
    <glyph glyph-name="d.ordn" horiz-adv-x="432" 
d="M400 780v-498h-119l-8 32h-1l-2 1q-30 -41 -97 -41q-70 0 -110 42.5t-40 131.5q0 97 46.5 143t109.5 46q55 0 85 -31v174h136zM258 387v137q-12 10 -30 10q-54 0 -54 -80q0 -77 51 -77q20 0 33 10z" />
    <glyph glyph-name="e.ordn" horiz-adv-x="393" 
d="M208 274q-99 0 -144 51t-45 130q0 89 52.5 135.5t133.5 46.5q169 0 169 -167q0 -27 -1 -38h-203q1 -32 10.5 -46.5t35.5 -14.5q39 0 46 38l112 -26q-10 -49 -51.5 -79t-114.5 -30zM171 501h56q1 48 -28 48t-28 -48z" />
    <glyph glyph-name="f.ordn" horiz-adv-x="290" 
d="M300 774l-5 -91q-28 8 -47 8q-28 0 -42 -10.5t-14 -42.5v-8h93v-94h-93v-254h-143v254h-46v94h46v27q0 67 42.5 99.5t114.5 32.5q58 0 94 -15z" />
    <glyph glyph-name="g.ordn" horiz-adv-x="407" 
d="M200 637q58 0 89 -12q28 59 77 59q21 0 41 -7v-81q-37 5 -68 -3q33 -36 33 -80q0 -58 -46 -91.5t-124 -33.5q-33 0 -66 6q-4 -5 -4 -11q0 -13 20 -14l114 -6q65 -4 97 -27t32 -77q0 -125 -197 -125q-99 0 -143.5 18t-44.5 58q0 22 18 37t53 16v1q-62 20 -62 67
q0 43 61 85q-64 38 -47 127q12 42 55 68t112 26zM247 513q0 39 -41 39q-45 0 -45 -39t43 -39q19 0 31 10.5t12 28.5zM260 230q0 9 -6.5 12t-27.5 4l-85 4q-7 -4 -7 -14q0 -25 73 -25q53 0 53 19z" />
    <glyph glyph-name="h.ordn" horiz-adv-x="419" 
d="M389 521v-239h-143v215q0 36 -32 36q-24 0 -41 -15v-236h-143v498h141v-182q39 39 102 39q59 0 87.5 -28t28.5 -88z" />
    <glyph glyph-name="i.ordn" horiz-adv-x="209" 
d="M176 630v-348h-143v348h143zM185 733q0 -36 -21.5 -56t-59.5 -20q-37 0 -58 20t-21 56q0 35 20.5 54.5t58.5 19.5t59.5 -19.5t21.5 -54.5z" />
    <glyph glyph-name="j.ordn" horiz-adv-x="209" 
d="M22 135q-70 0 -102 23l8 99q30 -15 61 -15q45 0 45 49v339h143v-360q0 -70 -42.5 -102.5t-112.5 -32.5zM185 731q0 -35 -21.5 -55t-59.5 -20q-37 0 -58 20t-21 55q0 36 20.5 55.5t58.5 19.5t59.5 -19.5t21.5 -55.5z" />
    <glyph glyph-name="k.ordn" horiz-adv-x="425" 
d="M175 780v-247l90 97h157l-118 -124l127 -224h-158l-80 142l-18 -16v-126h-143v498h143z" />
    <glyph glyph-name="l.ordn" horiz-adv-x="209" 
d="M177 780v-498h-143v498h143z" />
    <glyph glyph-name="m.ordn" horiz-adv-x="601" 
d="M173 523v-241h-143v348h121l6 -29q40 36 99 36q69 0 96 -41q31 41 103 41q55 0 85.5 -28.5t30.5 -84.5v-242h-143v220q0 31 -28 31q-20 0 -28 -12q-1 -14 -1 -41v-198h-143v220q0 31 -26 31q-19 0 -29 -10z" />
    <glyph glyph-name="n.ordn" horiz-adv-x="419" 
d="M389 521v-239h-143v215q0 36 -32 36q-24 0 -41 -15v-236h-143v348h127l7 -32q37 39 105 39q62 0 91 -28t29 -88z" />
    <glyph glyph-name="o.ordn" horiz-adv-x="426" 
d="M207 274q-188 0 -188 180q0 86 49 134.5t149 48.5q190 0 190 -176q0 -89 -49 -138t-151 -49zM213 370q24 0 34.5 19t10.5 68q0 46 -9.5 65t-33.5 19q-25 0 -35.5 -19t-10.5 -65q0 -49 9 -68t35 -19z" />
    <glyph glyph-name="p.ordn" horiz-adv-x="431" 
d="M32 142v488h121l8 -35q37 42 106 42q64 0 102.5 -41.5t38.5 -131.5q0 -99 -40.5 -144.5t-105.5 -45.5q-58 0 -92 32v-164h-138zM173 520v-129q13 -13 38 -13q46 0 46 80q0 75 -45 75q-19 0 -39 -13z" />
    <glyph glyph-name="q.ordn" horiz-adv-x="433" 
d="M400 630v-488h-136v168q-36 -36 -95 -36q-146 0 -146 175q0 96 47 142t110 46q64 0 91 -42l14 35h115zM258 387v138q-12 9 -33 9q-51 0 -51 -77q0 -79 51 -79q19 0 33 9z" />
    <glyph glyph-name="r.ordn" horiz-adv-x="303" 
d="M295 636v-126q-76 3 -122 -27v-201h-143v348h123l10 -59q41 66 111 66q14 0 21 -1z" />
    <glyph glyph-name="s.ordn" horiz-adv-x="371" 
d="M190 637q124 0 159 -85l-108 -37q-19 38 -53 38q-29 0 -29 -18q0 -17 44 -24q3 0 22 -3q27 -3 45.5 -7.5t40.5 -15.5t33.5 -31.5t11.5 -51.5q0 -64 -51.5 -96t-127.5 -32q-72 0 -112.5 23.5t-53.5 59.5l112 42q14 -39 59 -39q35 0 35 17q0 6 -3.5 10.5t-15 7.5t-17.5 4
l-25 4q-29 5 -46.5 10t-40.5 17t-34.5 33.5t-11.5 53.5q0 58 47.5 89t119.5 31z" />
    <glyph glyph-name="t.ordn" horiz-adv-x="318" 
d="M293 397l17 -94q-50 -29 -123 -29q-131 0 -131 124v138h-53v94h53v94l143 17v-111h95v-94h-95v-116q0 -38 36 -38q28 0 58 15z" />
    <glyph glyph-name="u.ordn" horiz-adv-x="413" 
d="M29 388v242h143v-215q0 -36 29 -36q21 0 38 15v236h143v-348h-122l-11 39q-32 -47 -105 -47q-115 0 -115 114z" />
    <glyph glyph-name="v.ordn" horiz-adv-x="405" 
d="M285 282h-168l-121 348h154l53 -222h4l54 222h148z" />
    <glyph glyph-name="w.ordn" horiz-adv-x="613" 
d="M268 282h-169l-103 348h142l50 -217h2l50 217h137l53 -218h3l44 218h140l-106 -348h-158l-46 188h-2z" />
    <glyph glyph-name="x.ordn" horiz-adv-x="406" 
d="M402 630l-116 -174l117 -174h-151l-55 84l-56 -84h-133l117 170l-122 178h154l55 -93l54 93h136z" />
    <glyph glyph-name="y.ordn" horiz-adv-x="404" 
d="M138 272l-143 358h154l56 -215h3l53 215h148l-139 -375q-24 -65 -56 -92.5t-95 -27.5q-58 0 -90 16l9 93q34 -10 53 -10t27.5 7t15.5 22z" />
    <glyph glyph-name="z.ordn" horiz-adv-x="341" 
d="M312 537l-131 -151h143v-104h-302v92l138 159h-138v97h290v-93z" />
    <glyph glyph-name="zero.denom" horiz-adv-x="444" 
d="M219 -7q-95 0 -144.5 56.5t-49.5 184.5q0 231 201 231q100 0 146.5 -52.5t46.5 -178.5q0 -130 -49.5 -185.5t-150.5 -55.5zM222 111q10 0 15 7t9 34.5t4 79.5q0 51 -3.5 77.5t-8.5 33t-14 6.5q-10 0 -15.5 -5.5t-9.5 -32t-4 -77.5q0 -54 3.5 -81.5t8.5 -34.5t15 -7z" />
    <glyph glyph-name="one.denom" horiz-adv-x="328" 
d="M293 -2h-163v293q-14 -6 -48.5 -11t-53.5 -5l-5 127q100 7 149 52h121v-456z" />
    <glyph glyph-name="two.denom" horiz-adv-x="416" 
d="M207 464q89 0 130.5 -33.5t41.5 -89.5q0 -52 -32 -92t-117 -106l-9 -7v-5h165v-131h-352v132l94 87q52 48 70.5 71t18.5 39q0 21 -20 21q-30 0 -37 -49l-139 17q6 72 58.5 109t127.5 37z" />
    <glyph glyph-name="three.denom" horiz-adv-x="420" 
d="M12 125l138 25q4 -43 41 -43q34 0 34 34q0 19 -8.5 28t-33.5 9h-55v102h32q59 0 59 48q0 26 -25 26q-29 0 -37 -41l-134 24q24 128 186 128q80 0 124 -28t44 -83q0 -72 -86 -109v-3q98 -22 98 -105q0 -69 -54 -106.5t-141 -37.5q-69 0 -120.5 30t-61.5 102z" />
    <glyph glyph-name="four.denom" horiz-adv-x="459" 
d="M394 0h-157v85h-207v108l169 263h194v-250h51v-121h-50v-85zM162 206h75v118z" />
    <glyph glyph-name="five.denom" horiz-adv-x="423" 
d="M47 197l16 260h291v-128h-183l-12 -74l3 -1q37 39 96 39t91.5 -36.5t32.5 -102.5q0 -78 -54.5 -119.5t-136.5 -41.5q-164 0 -179 135l136 22q2 -44 41 -44q18 0 27 11.5t9 28.5q0 22 -10 31t-21 9q-21 0 -43 -20z" />
    <glyph glyph-name="six.denom" horiz-adv-x="438" 
d="M412 341l-141 -27q-3 42 -31 42q-50 0 -50 -109q33 35 96 35q50 0 87 -29.5t37 -99.5q0 -84 -52 -122t-134 -38q-186 0 -186 230q0 46 10 86t32 76.5t65.5 58t103.5 21.5q142 0 163 -124zM197 171q-1 -66 31 -66q23 0 23 36q0 43 -26 43q-15 0 -28 -13z" />
    <glyph glyph-name="seven.denom" horiz-adv-x="393" 
d="M200 0h-170l169 329h-171v128h338v-116z" />
    <glyph glyph-name="eight.denom" horiz-adv-x="436" 
d="M328 264q93 -36 93 -120q0 -62 -57.5 -106.5t-156.5 -44.5q-90 0 -141 34t-51 89q0 41 22.5 67.5t68.5 45.5q-72 26 -72 103q0 62 54 97.5t133 35.5q86 0 133 -29t47 -79q0 -66 -73 -93zM180 184q-24 -24 -24 -47q0 -19 14.5 -30.5t40.5 -11.5q36 0 36 34q0 18 -15 30
t-52 25zM249 301q18 21 18 41q0 27 -39 27q-14 0 -22.5 -8t-8.5 -20q0 -24 52 -40z" />
    <glyph glyph-name="nine.denom" horiz-adv-x="435" 
d="M22 116l141 36q2 -15 4.5 -23.5t11 -16.5t22.5 -8q20 0 34.5 25t14.5 80q-37 -29 -91 -29q-55 0 -93 29t-38 101q0 81 55 118t137 37q97 0 138.5 -60t41.5 -170q0 -32 -4.5 -62t-18 -64t-35 -58.5t-59.5 -41t-88 -16.5q-71 0 -116 27t-57 96zM237 279q-2 42 -7 58t-20 16
q-22 0 -22 -33q0 -49 28 -49q13 0 21 8z" />
    <glyph glyph-name="square" horiz-adv-x="610" 
d="M479 151h-349v349h349v-349z" />
    <glyph glyph-name="square.open" horiz-adv-x="610" 
d="M434 196v259h-259v-259h259zM479 151h-349v349h349v-349z" />
    <glyph glyph-name="circle.open" horiz-adv-x="610" 
d="M305 119q-85 0 -145 60t-60 145t60 145t145 60t145 -60t60 -145t-60 -145t-145 -60zM305 167q63 0 107 47.5t44 112.5q0 64 -43.5 108.5t-107.5 44.5t-107 -45.5t-43 -110.5t43 -111t107 -46z" />
    <glyph glyph-name="doublecircle" horiz-adv-x="610" 
d="M305 269q22 0 37.5 16.5t15.5 39.5t-15.5 38.5t-37.5 15.5t-37.5 -16.5t-15.5 -38.5q0 -23 15.5 -39t37.5 -16zM305 180q-59 0 -101.5 42.5t-42.5 101.5t42.5 101t101.5 42t101 -42t42 -101t-42 -101.5t-101 -42.5zM305 214q44 0 75 33.5t31 78.5t-31 76t-75 31
t-74.5 -32t-30.5 -77q0 -46 30 -78t75 -32z" />
    <glyph glyph-name="triangle.left" horiz-adv-x="425" 
d="M275 203l-185 117l185 114v-231z" />
    <glyph glyph-name="raute" horiz-adv-x="610" 
d="M514 325l-210 -209l-209 210l210 209z" />
    <glyph glyph-name="arrowlong.left" horiz-adv-x="750" 
d="M328 130h-145l-116 233l115 232h149l-74 -160h426v-142h-427z" />
    <glyph glyph-name="arrowlong.right" horiz-adv-x="750" 
d="M67 293v142h426l-74 160h149l115 -232l-116 -233h-145l72 163h-427z" />
    <glyph glyph-name="arrowlong.up" horiz-adv-x="750" 
d="M444 54h-142v426l-160 -74v149l232 115l233 -116v-145l-163 72v-427z" />
    <glyph glyph-name="arrowlong.down" horiz-adv-x="750" 
d="M607 318v-145l-233 -116l-232 115v149l160 -74v426h142v-427z" />
    <glyph glyph-name="arrowlong.leftup" horiz-adv-x="750" 
d="M420 662l103 -102l-167 -65l302 -302l-100 -100l-302 301l-60 -165l-105 105l82 245z" />
    <glyph glyph-name="arrowlong.leftdown" horiz-adv-x="750" 
d="M523 195l-103 -102l-247 83l-82 245l105 105l60 -166l302 302l100 -100l-302 -303z" />
    <glyph glyph-name="arrowlong.rightup" horiz-adv-x="750" 
d="M191 93l-100 100l302 302l-167 65l103 102l247 -83l82 -245l-105 -105l-61 165z" />
    <glyph glyph-name="arrowlong.rightdown" horiz-adv-x="750" 
d="M91 562l100 100l301 -302l61 166l105 -105l-82 -245l-247 -83l-103 102l167 64z" />
    <glyph glyph-name="ornm1" horiz-adv-x="600" 
d="M550 500v-500h-500v500h500z" />
    <glyph glyph-name="ornm2" horiz-adv-x="500" 
d="M211 351l44 143l43 -143l147 32l-102 -108l102 -111l-147 33l-43 -144l-44 144l-148 -33l102 111l-102 108z" />
    <glyph glyph-name="ornm3" horiz-adv-x="500" 
d="M203 352l49 137l48 -137l144 -4l-116 -87l43 -140l-119 83l-120 -83l43 140l-116 87z" />
    <glyph glyph-name="ornm4" horiz-adv-x="500" 
d="M59 348l144 4l48 134v-283l-119 -82l43 140z" />
    <glyph glyph-name="ornm5" horiz-adv-x="500" 
d="M252 489l48 -137l144 -4l-116 -87l43 -140l-119 83v285z" />
    <glyph glyph-name="ornm6" horiz-adv-x="752" 
d="M291 195l298 334l113 -105l-390 -425l-262 204l95 114z" />
    <glyph glyph-name="ornm7" horiz-adv-x="634" 
d="M205 260l-155 144l105 113l155 -143l145 157l113 -105l-144 -158l160 -147l-106 -115l-159 148l-141 -154l-115 106z" />
    <glyph glyph-name="ornm8" horiz-adv-x="844" 
d="M50 377q0 97 65 163t163 66q102 0 166.5 -63t64.5 -164q0 -54 -21 -102l306 -199l-58 -92l-301 219q-62 -54 -157 -54q-101 0 -164.5 62.5t-63.5 163.5zM132 377q0 -66 40.5 -108t105.5 -42t107 42.5t42 109.5t-42 109.5t-107 42.5q-64 0 -105 -43.5t-41 -110.5z" />
    <glyph glyph-name="ornm9" horiz-adv-x="818" 
d="M631 476h-127v115h-317v-285h-137v-243h102v-63h514v63h102v243h-137v170zM152 -111v65h514v-65h-514zM631 499h-102v92l7 5l100 -90z" />
    <glyph glyph-name="ornm10" horiz-adv-x="562" 
d="M148 489q0 60 37.5 97.5t95.5 37.5t96 -37.5t38 -97.5q0 -42 -19.5 -74t-52.5 -48v-4q90 -6 129.5 -47t39.5 -128v-188h-462v188q0 88 39.5 128.5t129.5 46.5v4q-71 35 -71 122z" />
    <glyph glyph-name="ornm11" horiz-adv-x="720" 
d="M122 210h-72v-210h620v210h-73v-142h-475v142zM261 382l-25 237h247l-21 -237h116l-218 -218l-214 218h115z" />
    <glyph glyph-name="ornm12" horiz-adv-x="571" 
d="M50 0v615h113v-299q0 -82 15 -117t57 -35t56 34.5t14 117.5v161h-45v-161q0 -68 -4 -90.5t-21 -22.5q-19 0 -23.5 23t-4.5 90v299h314v-615h-471z" />
    <glyph glyph-name="ornm13" horiz-adv-x="774" 
d="M468 -80h-157v8q0 46 -32.5 79t-79.5 33q-38 0 -66 -22l-82 143q39 18 53.5 60t-0.5 83.5t-54 59.5l83 141q29 -21 66 -21q47 0 79.5 32.5t32.5 78.5v11h158q0 -2 -0.5 -5.5t-0.5 -5.5q0 -47 32 -79t79 -32q36 0 65 21l80 -138q-32 -12 -51.5 -40.5t-19.5 -64.5t19.5 -64
t51.5 -40l-80 -138q-28 20 -65 20q-46 0 -78.5 -32.5t-32.5 -79.5v-8zM239 268q0 -66 41.5 -107.5t105.5 -41.5t106 41.5t42 107.5t-42 107.5t-106 41.5t-105.5 -41.5t-41.5 -107.5z" />
    <glyph glyph-name="ornm14" horiz-adv-x="541" 
d="M491 0h-441v406h54q0 140 34.5 199.5t132.5 59.5q100 0 133 -56.5t33 -202.5h54v-406zM271 598q-57 0 -75.5 -38.5t-18.5 -153.5h188q0 115 -18 153.5t-76 38.5zM246 205l-15 -96h80l-16 96q25 12 25 38q0 23 -13.5 35.5t-35.5 12.5t-35.5 -12.5t-13.5 -35.5
q0 -25 24 -38z" />
    <glyph glyph-name="ornm15" horiz-adv-x="729" 
d="M245 205l-14 -96h79l-15 96q25 12 25 38q0 23 -14 35.5t-36 12.5q-21 0 -34.5 -12.5t-13.5 -35.5q0 -25 23 -38zM679 424h-73q0 102 -16.5 138t-70.5 36q-52 0 -75.5 -32.5t-23.5 -114.5v-45h71v-406h-441v406h296v43q0 213 172 213q98 0 129.5 -55t31.5 -183z" />
    <glyph glyph-name="ornm16" horiz-adv-x="846" 
d="M50 429l371 -320l375 318v-427h-746v429zM421 176l-350 302h704z" />
    <glyph glyph-name="ornm17" horiz-adv-x="846" 
d="M796 601v-89h-255l30 89h225zM50 478h746v-478h-746v478z" />
    <glyph glyph-name="ornm18" horiz-adv-x="785" 
d="M283 -50l-2 7q104 40 102 136q-56 1 -113 18t-107 49t-81.5 83.5t-31.5 113.5q0 63 32 115t83.5 84t111 49t119.5 17q133 1 236 -75.5t103 -190.5q0 -156 -193 -237q-56 -169 -259 -169z" />
    <glyph glyph-name="ornm19" horiz-adv-x="706" 
d="M50 68q0 37 22.5 58.5t57.5 21.5q36 0 58 -22t22 -58q0 -37 -22 -58.5t-58 -21.5q-35 0 -57.5 22t-22.5 58zM435 0h-107q0 113 -76 186.5t-186 73.5v104q156 0 262.5 -103t106.5 -261zM656 0h-110q0 136 -64 246t-173.5 171t-242.5 61v104q162 0 297 -74t214 -208
t79 -300z" />
    <glyph glyph-name="ornm20" horiz-adv-x="785" 
d="M376 0v183h-101v-183h-103v283h-122l345 355l123 -129v103h101v-208l116 -121h-114v-283h-245z" />
    <glyph glyph-name="ae.sc" horiz-adv-x="842" 
d="M574 205v-61h245v-144h-431v208h-115l-80 -208h-189l237 565h558v-143h-225v-78h213v-139h-213zM388 343v87h-35l-35 -87h70z" />
    <glyph glyph-name="eng.sc" horiz-adv-x="627" 
d="M355 -223q-103 0 -153 32l11 125q53 -21 101 -21q37 0 58 16t21 59v12l-178 308v-308h-168v565h212l155 -277v277h166v-592q0 -196 -225 -196z" />
    <glyph glyph-name="eth.sc" horiz-adv-x="638" 
d="M302 0h-224v225h-58v108h58v232h238q150 0 222.5 -72t72.5 -202q0 -135 -77 -213t-232 -78zM264 135h26q78 0 105 38.5t27 115.5q0 78 -26 108.5t-94 30.5h-38v-95h88v-108h-88v-90z" />
    <glyph glyph-name="oe.sc" horiz-adv-x="879" 
d="M856 0h-403v34q-48 -43 -156 -43q-136 0 -203 77t-67 209q0 131 75.5 214.5t214.5 83.5q84 0 136 -41v31h382v-143h-225v-74h213v-140h-213v-64h246v-144zM322 136q48 0 74.5 31.5t26.5 113.5q0 81 -23.5 115t-72.5 34q-55 0 -81.5 -35t-26.5 -114q0 -78 25 -111.5
t78 -33.5z" />
    <glyph glyph-name="thorn.sc" horiz-adv-x="519" 
d="M232 481h60q112 0 157 -44.5t45 -129.5q0 -190 -230 -190h-32v-117h-185v565h185v-84zM232 236h10q62 0 62 63q0 35 -14.5 47t-39.5 12h-18v-122z" />
    <glyph glyph-name="kgreenlandic.sc" horiz-adv-x="595" 
d="M232 565v-218l188 218h192l-195 -225l174 -340h-216l-98 207l-45 -48v-159h-185v565h185z" />
    <glyph glyph-name="dotlessi.sc" horiz-adv-x="280" 
d="M233 565v-565h-186v565h186z" />
    <glyph glyph-name="aacute.sc" horiz-adv-x="618" 
d="M187 565h225l214 -565h-203l-37 100h-164l-31 -100h-193zM352 234l-51 168h-5l-49 -168h105zM479 781l-132 -169l-122 7l61 162h193z" />
    <glyph glyph-name="abreve.sc" horiz-adv-x="618" 
d="M187 565h225l214 -565h-203l-37 100h-164l-31 -100h-193zM352 234l-51 168h-5l-49 -168h105zM375 779l115 -7q-16 -164 -191 -164q-81 0 -128.5 39t-51.5 122l120 12q5 -36 20.5 -51.5t45.5 -15.5q31 0 47 14t23 51z" />
    <glyph glyph-name="acircumflex.sc" horiz-adv-x="618" 
d="M187 565h225l214 -565h-203l-37 100h-164l-31 -100h-193zM352 234l-51 168h-5l-49 -168h105zM487 620l-118 -5l-64 84l-69 -85l-121 6l101 164h177z" />
    <glyph glyph-name="adieresis.sc" horiz-adv-x="618" 
d="M187 565h225l214 -565h-203l-37 100h-164l-31 -100h-193zM352 234l-51 168h-5l-49 -168h105zM282 707q0 -39 -26.5 -62.5t-69.5 -23.5q-44 0 -70.5 23.5t-26.5 62.5t26.5 62.5t70.5 23.5q43 0 69.5 -23.5t26.5 -62.5zM514 707q0 -39 -26 -62.5t-70 -23.5q-43 0 -70 23.5
t-27 62.5t27 62.5t70 23.5q44 0 70 -23.5t26 -62.5z" />
    <glyph glyph-name="aeacute.sc" horiz-adv-x="842" 
d="M574 205v-61h245v-144h-431v208h-115l-80 -208h-189l237 565h558v-143h-225v-78h213v-139h-213zM388 343v87h-35l-35 -87h70zM670 781l-132 -169l-122 7l61 162h193z" />
    <glyph glyph-name="agrave.sc" horiz-adv-x="618" 
d="M187 565h225l214 -565h-203l-37 100h-164l-31 -100h-193zM352 234l-51 168h-5l-49 -168h105zM257 612l-132 169h193l61 -162z" />
    <glyph glyph-name="amacron.sc" horiz-adv-x="618" 
d="M187 565h225l214 -565h-203l-37 100h-164l-31 -100h-193zM352 234l-51 168h-5l-49 -168h105zM463 629h-323v118h323v-118z" />
    <glyph glyph-name="aogonek.sc" horiz-adv-x="618" 
d="M570 -102l75 -33q-16 -52 -56.5 -81.5t-95.5 -29.5q-126 0 -126 102q0 74 115 144h-59l-37 100h-164l-31 -100h-193l189 565h225l214 -565q-55 -26 -91 -57t-36 -57q0 -30 27 -30q28 0 44 42zM352 234l-51 168h-5l-49 -168h105z" />
    <glyph glyph-name="aring.sc" horiz-adv-x="618" 
d="M425 639q0 -45 -24 -74h11l214 -565h-203l-37 100h-164l-31 -100h-193l189 565h11q-23 28 -23 71q0 56 36 87.5t89 31.5q54 0 89.5 -31t35.5 -85zM352 234l-51 168h-5l-49 -168h105zM299 595q44 0 44 44q0 20 -12 31.5t-31 11.5q-20 0 -32.5 -11.5t-12.5 -31.5
q0 -44 44 -44z" />
    <glyph glyph-name="aringacute.sc" horiz-adv-x="618" 
d="M417 622q0 -31 -13 -57h8l214 -565h-203l-37 100h-164l-31 -100h-193l186 556q-17 26 -17 63q0 56 36 87.5t89 31.5q54 0 89.5 -31t35.5 -85zM466 918l-150 -150l-129 7l86 143h193zM352 234l-51 168h-5l-49 -168h105zM291 578q44 0 44 44q0 20 -12 31.5t-31 11.5
q-20 0 -32.5 -11.5t-12.5 -31.5q0 -44 44 -44z" />
    <glyph glyph-name="atilde.sc" horiz-adv-x="618" 
d="M187 565h225l214 -565h-203l-37 100h-164l-31 -100h-193zM352 234l-51 168h-5l-49 -168h105zM216 780q36 0 81.5 -21t65.5 -21q15 0 20 9t5 31l88 -5q8 -67 -14.5 -109t-80.5 -42q-40 0 -86.5 21.5t-63.5 21.5t-23 -9.5t-2 -34.5l-97 4q-8 69 20.5 112t86.5 43z" />
    <glyph glyph-name="cacute.sc" horiz-adv-x="589" 
d="M316 -9q-151 0 -220 73.5t-69 215.5q0 131 75 213t223 82q112 0 179 -55t71 -167l-168 -16q-1 53 -22 74t-63 21q-102 0 -102 -146q0 -81 23.5 -116.5t78.5 -35.5q23 0 39.5 7t26 20.5t14 25t8.5 28.5l165 -25q-9 -69 -52 -116t-95 -65t-112 -18zM471 781l-132 -169
l-122 7l61 162h193z" />
    <glyph glyph-name="ccaron.sc" horiz-adv-x="589" 
d="M316 -9q-151 0 -220 73.5t-69 215.5q0 131 75 213t223 82q112 0 179 -55t71 -167l-168 -16q-1 53 -22 74t-63 21q-102 0 -102 -146q0 -81 23.5 -116.5t78.5 -35.5q23 0 39.5 7t26 20.5t14 25t8.5 28.5l165 -25q-9 -69 -52 -116t-95 -65t-112 -18zM126 775l121 5l64 -83
l69 84l118 -6l-101 -163h-177z" />
    <glyph glyph-name="ccedilla.sc" horiz-adv-x="589" 
d="M199 -246l9 81q27 -6 50 -6q51 0 51 35q0 21 -15 28t-45 8l12 94q-234 24 -234 286q0 131 75 213t223 82q112 0 179 -55t71 -167l-168 -16q-1 53 -22 74t-63 21q-102 0 -102 -146q0 -81 23.5 -116.5t78.5 -35.5q23 0 39.5 7t26 20.5t14 25t8.5 28.5l165 -25
q-13 -94 -79 -142.5t-154 -55.5l-5 -38q89 -15 89 -93q0 -58 -40 -88.5t-104 -30.5q-40 0 -83 12z" />
    <glyph glyph-name="ccircumflex.sc" horiz-adv-x="589" 
d="M316 -9q-151 0 -220 73.5t-69 215.5q0 131 75 213t223 82q112 0 179 -55t71 -167l-168 -16q-1 53 -22 74t-63 21q-102 0 -102 -146q0 -81 23.5 -116.5t78.5 -35.5q23 0 39.5 7t26 20.5t14 25t8.5 28.5l165 -25q-9 -69 -52 -116t-95 -65t-112 -18zM496 620l-118 -5l-64 84
l-69 -85l-121 6l101 164h177z" />
    <glyph glyph-name="cdotaccent.sc" horiz-adv-x="589" 
d="M316 -9q-151 0 -220 73.5t-69 215.5q0 131 75 213t223 82q112 0 179 -55t71 -167l-168 -16q-1 53 -22 74t-63 21q-102 0 -102 -146q0 -81 23.5 -116.5t78.5 -35.5q23 0 39.5 7t26 20.5t14 25t8.5 28.5l165 -25q-9 -69 -52 -116t-95 -65t-112 -18zM419 722q0 -50 -28 -78
t-79 -28q-50 0 -78 28t-28 78t28 77t78 27q51 0 79 -27t28 -77z" />
    <glyph glyph-name="dcaron.sc" horiz-adv-x="607" 
d="M271 0h-224v565h238q150 0 222.5 -72t72.5 -202q0 -135 -77 -213t-232 -78zM233 135h26q78 0 105 38.5t27 115.5q0 78 -26 108.5t-94 30.5h-38v-293zM75 775l121 5l64 -83l69 84l118 -6l-101 -163h-177z" />
    <glyph glyph-name="dcroat.sc" horiz-adv-x="638" 
d="M302 0h-224v225h-58v108h58v232h238q150 0 222.5 -72t72.5 -202q0 -135 -77 -213t-232 -78zM264 135h26q78 0 105 38.5t27 115.5q0 78 -26 108.5t-94 30.5h-38v-95h88v-108h-88v-90z" />
    <glyph glyph-name="eacute.sc" horiz-adv-x="502" 
d="M233 208v-64h246v-144h-432v565h411v-143h-225v-75h213v-139h-213zM428 781l-132 -169l-122 7l61 162h193z" />
    <glyph glyph-name="ebreve.sc" horiz-adv-x="502" 
d="M233 208v-64h246v-144h-432v565h411v-143h-225v-75h213v-139h-213zM322 779l115 -7q-16 -164 -191 -164q-80 0 -128 39t-52 122l120 12q5 -36 20.5 -51.5t45.5 -15.5q31 0 47 14t23 51z" />
    <glyph glyph-name="ecaron.sc" horiz-adv-x="502" 
d="M233 208v-64h246v-144h-432v565h411v-143h-225v-75h213v-139h-213zM70 775l121 5l64 -83l69 84l118 -6l-101 -163h-177z" />
    <glyph glyph-name="ecircumflex.sc" horiz-adv-x="502" 
d="M233 208v-64h246v-144h-432v565h411v-143h-225v-75h213v-139h-213zM434 620l-118 -5l-64 84l-69 -85l-121 6l101 164h177z" />
    <glyph glyph-name="edieresis.sc" horiz-adv-x="502" 
d="M233 208v-64h246v-144h-432v565h411v-143h-225v-75h213v-139h-213zM230 707q0 -39 -26.5 -62.5t-69.5 -23.5q-44 0 -70.5 23.5t-26.5 62.5t26.5 62.5t70.5 23.5q43 0 69.5 -23.5t26.5 -62.5zM462 707q0 -39 -26 -62.5t-70 -23.5q-43 0 -70 23.5t-27 62.5t27 62.5t70 23.5
q44 0 70 -23.5t26 -62.5z" />
    <glyph glyph-name="edotaccent.sc" horiz-adv-x="502" 
d="M233 208v-64h246v-144h-432v565h411v-143h-225v-75h213v-139h-213zM357 722q0 -50 -28 -78t-79 -28q-50 0 -78 28t-28 78t28 77t78 27q51 0 79 -27t28 -77z" />
    <glyph glyph-name="egrave.sc" horiz-adv-x="502" 
d="M233 208v-64h246v-144h-432v565h411v-143h-225v-75h213v-139h-213zM214 612l-132 169h193l61 -162z" />
    <glyph glyph-name="emacron.sc" horiz-adv-x="502" 
d="M233 208v-64h246v-144h-432v565h411v-143h-225v-75h213v-139h-213zM411 629h-323v118h323v-118z" />
    <glyph glyph-name="eogonek.sc" horiz-adv-x="502" 
d="M414 -102l75 -33q-16 -52 -56.5 -81.5t-95.5 -29.5q-126 0 -126 102q0 76 95 144h-259v565h411v-143h-225v-75h213v-139h-213v-64h246v-144h-61q-39 -38 -57 -63.5t-18 -50.5q0 -30 27 -30q28 0 44 42z" />
    <glyph glyph-name="gbreve.sc" horiz-adv-x="624" 
d="M454 0l-17 61q-21 -35 -65 -52.5t-95 -17.5q-127 0 -188.5 76t-61.5 204q0 138 75 221t225 83q108 0 175.5 -50.5t73.5 -155.5l-170 -16q-1 13 -3.5 22.5t-9.5 24.5t-24.5 23.5t-43.5 8.5q-57 0 -80.5 -38t-23.5 -110q0 -36 3.5 -60t13 -48.5t31.5 -37t55 -12.5
q42 0 63.5 15t21.5 38v4h-58v113h238v-296h-135zM388 779l115 -7q-16 -164 -191 -164q-80 0 -128 39t-52 122l120 12q5 -36 20.5 -51.5t45.5 -15.5q31 0 47 14t23 51z" />
    <glyph glyph-name="gcircumflex.sc" horiz-adv-x="624" 
d="M454 0l-17 61q-21 -35 -65 -52.5t-95 -17.5q-127 0 -188.5 76t-61.5 204q0 138 75 221t225 83q108 0 175.5 -50.5t73.5 -155.5l-170 -16q-1 13 -3.5 22.5t-9.5 24.5t-24.5 23.5t-43.5 8.5q-57 0 -80.5 -38t-23.5 -110q0 -36 3.5 -60t13 -48.5t31.5 -37t55 -12.5
q42 0 63.5 15t21.5 38v4h-58v113h238v-296h-135zM500 620l-118 -5l-64 84l-69 -85l-121 6l101 164h177z" />
    <glyph glyph-name="gdotaccent.sc" horiz-adv-x="624" 
d="M454 0l-17 61q-21 -35 -65 -52.5t-95 -17.5q-127 0 -188.5 76t-61.5 204q0 138 75 221t225 83q108 0 175.5 -50.5t73.5 -155.5l-170 -16q-1 13 -3.5 22.5t-9.5 24.5t-24.5 23.5t-43.5 8.5q-57 0 -80.5 -38t-23.5 -110q0 -36 3.5 -60t13 -48.5t31.5 -37t55 -12.5
q42 0 63.5 15t21.5 38v4h-58v113h238v-296h-135zM423 722q0 -50 -28 -78t-79 -28q-50 0 -78 28t-28 78t28 77t78 27q51 0 79 -27t28 -77z" />
    <glyph glyph-name="gcommaaccent.sc" horiz-adv-x="624" 
d="M454 0l-17 61q-21 -35 -65 -52.5t-95 -17.5q-127 0 -188.5 76t-61.5 204q0 138 75 221t225 83q108 0 175.5 -50.5t73.5 -155.5l-170 -16q-1 13 -3.5 22.5t-9.5 24.5t-24.5 23.5t-43.5 8.5q-57 0 -80.5 -38t-23.5 -110q0 -36 3.5 -60t13 -48.5t31.5 -37t55 -12.5
q42 0 63.5 15t21.5 38v4h-58v113h238v-296h-135zM182 -273l51 206h166l-92 -223z" />
    <glyph glyph-name="hbar.sc" horiz-adv-x="642" 
d="M593 565v-51h59v-105h-59v-409h-186v199h-156v-199h-186v409h-55v105h55v51h186v-51h156v51h186zM251 354h156v55h-156v-55z" />
    <glyph glyph-name="hcircumflex.sc" horiz-adv-x="622" 
d="M575 565v-565h-186v199h-156v-199h-186v565h186v-211h156v211h186zM497 620l-118 -5l-64 84l-69 -85l-121 6l101 164h177z" />
    <glyph glyph-name="iacute.sc" horiz-adv-x="280" 
d="M233 565v-565h-186v565h186zM321 781l-132 -169l-122 7l61 162h193z" />
    <glyph glyph-name="ibreve.sc" horiz-adv-x="280" 
d="M233 565v-565h-186v565h186zM204 779l115 -7q-16 -164 -191 -164q-81 0 -128.5 39t-51.5 122l120 12q5 -36 20.5 -51.5t45.5 -15.5q31 0 47 14t23 51z" />
    <glyph glyph-name="icircumflex.sc" horiz-adv-x="280" 
d="M233 565v-565h-186v565h186zM316 620l-118 -5l-64 84l-69 -85l-121 6l101 164h177z" />
    <glyph glyph-name="idieresis.sc" horiz-adv-x="280" 
d="M233 565v-565h-186v565h186zM112 707q0 -39 -26.5 -62.5t-69.5 -23.5q-44 0 -70.5 23.5t-26.5 62.5t26.5 62.5t70.5 23.5q43 0 69.5 -23.5t26.5 -62.5zM344 707q0 -39 -26 -62.5t-70 -23.5q-43 0 -70 23.5t-27 62.5t27 62.5t70 23.5q44 0 70 -23.5t26 -62.5z" />
    <glyph glyph-name="idotaccent.sc" horiz-adv-x="280" 
d="M233 565v-565h-186v565h186zM239 722q0 -50 -28 -78t-79 -28q-50 0 -78 28t-28 78t28 77t78 27q51 0 79 -27t28 -77z" />
    <glyph glyph-name="igrave.sc" horiz-adv-x="280" 
d="M233 565v-565h-186v565h186zM92 612l-132 169h193l61 -162z" />
    <glyph glyph-name="imacron.sc" horiz-adv-x="280" 
d="M233 565v-565h-186v565h186zM293 629h-323v118h323v-118z" />
    <glyph glyph-name="iogonek.sc" horiz-adv-x="280" 
d="M186 -102l75 -33q-16 -52 -56.5 -81.5t-95.5 -29.5q-126 0 -126 102q0 41 27 73t83 71h-46v565h186v-565q-118 -65 -118 -114q0 -30 27 -30q28 0 44 42z" />
    <glyph glyph-name="itilde.sc" horiz-adv-x="280" 
d="M233 565v-565h-186v565h186zM57 780q36 0 81.5 -21t65.5 -21q15 0 20 9t5 31l88 -5q8 -67 -14.5 -109t-80.5 -42q-40 0 -86.5 21.5t-63.5 21.5t-23 -9.5t-2 -34.5l-97 4q-8 69 20.5 112t86.5 43z" />
    <glyph glyph-name="jcircumflex.sc" horiz-adv-x="480" 
d="M250 168v397h186v-388q0 -84 -56.5 -135t-157.5 -51q-44 0 -79 8t-67 27t-50.5 57.5t-20.5 93.5l179 26q2 -27 4 -40t10 -24t22 -11q30 0 30 40zM525 620l-118 -5l-64 84l-69 -85l-121 6l101 164h177z" />
    <glyph glyph-name="kcommaaccent.sc" horiz-adv-x="595" 
d="M232 565v-218l188 218h192l-195 -225l174 -340h-216l-98 207l-45 -48v-159h-185v565h185zM166 -273l51 206h166l-92 -223z" />
    <glyph glyph-name="lacute.sc" horiz-adv-x="498" 
d="M233 565v-411h240v-154h-426v565h186zM312 781l-132 -169l-122 7l61 162h193z" />
    <glyph glyph-name="lcaron.sc" horiz-adv-x="498" 
d="M233 565v-411h240v-154h-426v565h186zM293 371l33 194h165l-69 -204z" />
    <glyph glyph-name="lcommaaccent.sc" horiz-adv-x="498" 
d="M233 565v-411h240v-154h-426v565h186zM130 -273l51 206h166l-92 -223z" />
    <glyph glyph-name="ldot.sc" horiz-adv-x="498" 
d="M233 565v-411h240v-154h-426v565h186zM492 354q0 -45 -25 -70t-71 -25q-45 0 -70 25t-25 70t25 69t70 24q46 0 71 -24t25 -69z" />
    <glyph glyph-name="lslash.sc" horiz-adv-x="498" 
d="M233 565v-179l130 43v-121l-130 -43v-111h240v-154h-426v214l-61 -20v121l61 20v230h186z" />
    <glyph glyph-name="nacute.sc" horiz-adv-x="627" 
d="M580 0h-208l-157 308v-308h-168v565h212l155 -316v316h166v-565zM486 781l-132 -169l-122 7l61 162h193z" />
    <glyph glyph-name="napostrophe.sc" horiz-adv-x="721" 
d="M674 0h-208l-157 308v-308h-168v565h212l155 -316v316h166v-565zM-23 535l46 187h152l-84 -203z" />
    <glyph glyph-name="ncaron.sc" horiz-adv-x="627" 
d="M580 0h-208l-157 308v-308h-168v565h212l155 -316v316h166v-565zM124 775l121 5l64 -83l69 84l118 -6l-101 -163h-177z" />
    <glyph glyph-name="ncommaaccent.sc" horiz-adv-x="627" 
d="M580 0h-208l-157 308v-308h-168v565h212l155 -316v316h166v-565zM193 -273l51 206h166l-92 -223z" />
    <glyph glyph-name="ntilde.sc" horiz-adv-x="627" 
d="M580 0h-208l-157 308v-308h-168v565h212l155 -316v316h166v-565zM232 780q36 0 81.5 -21t65.5 -21q15 0 20 9t5 31l88 -5q8 -67 -14.5 -109t-80.5 -42q-40 0 -86.5 21.5t-63.5 21.5t-23 -9.5t-2 -34.5l-97 4q-8 69 20.5 112t86.5 43z" />
    <glyph glyph-name="oacute.sc" horiz-adv-x="641" 
d="M316 -9q-151 0 -220 76.5t-69 209.5q0 132 77.5 215t225.5 83q146 0 215 -80t69 -208q0 -141 -74 -218.5t-224 -77.5zM322 136q49 0 75 32t26 113q0 80 -23 114.5t-73 34.5q-55 0 -81.5 -35t-26.5 -114q0 -78 25 -111.5t78 -33.5zM497 781l-132 -169l-122 7l61 162h193z
" />
    <glyph glyph-name="obreve.sc" horiz-adv-x="641" 
d="M316 -9q-151 0 -220 76.5t-69 209.5q0 132 77.5 215t225.5 83q146 0 215 -80t69 -208q0 -141 -74 -218.5t-224 -77.5zM322 136q49 0 75 32t26 113q0 80 -23 114.5t-73 34.5q-55 0 -81.5 -35t-26.5 -114q0 -78 25 -111.5t78 -33.5zM391 779l115 -7q-16 -164 -191 -164
q-81 0 -128.5 39t-51.5 122l120 12q5 -36 20.5 -51.5t45.5 -15.5q31 0 47 14t23 51z" />
    <glyph glyph-name="ocircumflex.sc" horiz-adv-x="641" 
d="M316 -9q-151 0 -220 76.5t-69 209.5q0 132 77.5 215t225.5 83q146 0 215 -80t69 -208q0 -141 -74 -218.5t-224 -77.5zM322 136q49 0 75 32t26 113q0 80 -23 114.5t-73 34.5q-55 0 -81.5 -35t-26.5 -114q0 -78 25 -111.5t78 -33.5zM503 620l-118 -5l-64 84l-69 -85l-121 6
l101 164h177z" />
    <glyph glyph-name="odieresis.sc" horiz-adv-x="641" 
d="M316 -9q-151 0 -220 76.5t-69 209.5q0 132 77.5 215t225.5 83q146 0 215 -80t69 -208q0 -141 -74 -218.5t-224 -77.5zM322 136q49 0 75 32t26 113q0 80 -23 114.5t-73 34.5q-55 0 -81.5 -35t-26.5 -114q0 -78 25 -111.5t78 -33.5zM299 707q0 -39 -26.5 -62.5t-69.5 -23.5
q-44 0 -70.5 23.5t-26.5 62.5t26.5 62.5t70.5 23.5q43 0 69.5 -23.5t26.5 -62.5zM531 707q0 -39 -26 -62.5t-70 -23.5q-43 0 -70 23.5t-27 62.5t27 62.5t70 23.5q44 0 70 -23.5t26 -62.5z" />
    <glyph glyph-name="ograve.sc" horiz-adv-x="641" 
d="M316 -9q-151 0 -220 76.5t-69 209.5q0 132 77.5 215t225.5 83q146 0 215 -80t69 -208q0 -141 -74 -218.5t-224 -77.5zM322 136q49 0 75 32t26 113q0 80 -23 114.5t-73 34.5q-55 0 -81.5 -35t-26.5 -114q0 -78 25 -111.5t78 -33.5zM295 612l-132 169h193l61 -162z" />
    <glyph glyph-name="ohungarumlaut.sc" horiz-adv-x="641" 
d="M316 -9q-151 0 -220 76.5t-69 209.5q0 132 77.5 215t225.5 83q146 0 215 -80t69 -208q0 -141 -74 -218.5t-224 -77.5zM322 136q49 0 75 32t26 113q0 80 -23 114.5t-73 34.5q-55 0 -81.5 -35t-26.5 -114q0 -78 25 -111.5t78 -33.5zM382 781l-94 -169l-115 12l27 157h182z
M608 786l-147 -174l-122 7l76 167h193z" />
    <glyph glyph-name="omacron.sc" horiz-adv-x="641" 
d="M316 -9q-151 0 -220 76.5t-69 209.5q0 132 77.5 215t225.5 83q146 0 215 -80t69 -208q0 -141 -74 -218.5t-224 -77.5zM322 136q49 0 75 32t26 113q0 80 -23 114.5t-73 34.5q-55 0 -81.5 -35t-26.5 -114q0 -78 25 -111.5t78 -33.5zM496 629h-323v118h323v-118z" />
    <glyph glyph-name="oslash.sc" horiz-adv-x="641" 
d="M63 -70l53 119q-89 72 -89 228q0 132 77.5 215t225.5 83q29 0 61 -5l27 59h164l-54 -118q86 -76 86 -224q0 -141 -74 -218.5t-224 -77.5q-24 0 -62 4l-27 -65h-164zM322 136q49 0 75 32t26 113q0 80 -23 114.5t-73 34.5q-55 0 -81.5 -35t-26.5 -114q0 -78 25 -111.5
t78 -33.5z" />
    <glyph glyph-name="oslashacute.sc" horiz-adv-x="641" 
d="M63 -70l53 119q-89 72 -89 228q0 132 77.5 215t225.5 83q43 0 83 -8l28 62h164l-61 -134q70 -76 70 -208q0 -141 -74 -218.5t-224 -77.5q-24 0 -62 4l-27 -65h-164zM322 136q49 0 75 32t26 113q0 80 -23 114.5t-73 34.5q-55 0 -81.5 -35t-26.5 -114q0 -78 25 -111.5
t78 -33.5zM508 781l-132 -169l-122 7l61 162h193z" />
    <glyph glyph-name="otilde.sc" horiz-adv-x="641" 
d="M316 -9q-151 0 -220 76.5t-69 209.5q0 132 77.5 215t225.5 83q146 0 215 -80t69 -208q0 -141 -74 -218.5t-224 -77.5zM322 136q49 0 75 32t26 113q0 80 -23 114.5t-73 34.5q-55 0 -81.5 -35t-26.5 -114q0 -78 25 -111.5t78 -33.5zM244 780q36 0 81.5 -21t65.5 -21
q15 0 20 9t5 31l88 -5q8 -67 -14.5 -109t-80.5 -42q-40 0 -86.5 21.5t-63.5 21.5t-23 -9.5t-2 -34.5l-97 4q-8 69 20.5 112t86.5 43z" />
    <glyph glyph-name="racute.sc" horiz-adv-x="559" 
d="M425 240l123 -240h-201l-95 196h-20v-196h-185v565h264q104 0 153.5 -46t49.5 -119q0 -109 -89 -160zM232 326h13q77 0 77 55q0 47 -58 47h-32v-102zM415 781l-132 -169l-122 7l61 162h193z" />
    <glyph glyph-name="rcaron.sc" horiz-adv-x="559" 
d="M425 240l123 -240h-201l-95 196h-20v-196h-185v565h264q104 0 153.5 -46t49.5 -119q0 -109 -89 -160zM232 326h13q77 0 77 55q0 47 -58 47h-32v-102zM70 775l121 5l64 -83l69 84l118 -6l-101 -163h-177z" />
    <glyph glyph-name="rcommaaccent.sc" horiz-adv-x="559" 
d="M425 240l123 -240h-201l-95 196h-20v-196h-185v565h264q104 0 153.5 -46t49.5 -119q0 -109 -89 -160zM232 326h13q77 0 77 55q0 47 -58 47h-32v-102zM152 -273l51 206h166l-92 -223z" />
    <glyph glyph-name="sacute.sc" horiz-adv-x="531" 
d="M269 447q-56 0 -56 -33q0 -21 30.5 -33t74.5 -21.5t87.5 -25.5t74 -53.5t30.5 -95.5q0 -97 -71.5 -145.5t-176.5 -48.5q-239 0 -245 191l164 23q5 -42 22 -63t65 -21q64 0 64 39q0 22 -30.5 34t-74 20.5t-87 23.5t-74 52.5t-30.5 97.5q0 90 67 138.5t168 48.5
q36 0 65 -3.5t60.5 -14t52.5 -29t35.5 -50.5t15.5 -75l-167 -17q-1 34 -16.5 47.5t-47.5 13.5zM440 781l-132 -169l-122 7l61 162h193z" />
    <glyph glyph-name="scaron.sc" horiz-adv-x="531" 
d="M269 447q-56 0 -56 -33q0 -21 30.5 -33t74.5 -21.5t87.5 -25.5t74 -53.5t30.5 -95.5q0 -97 -71.5 -145.5t-176.5 -48.5q-239 0 -245 191l164 23q5 -42 22 -63t65 -21q64 0 64 39q0 22 -30.5 34t-74 20.5t-87 23.5t-74 52.5t-30.5 97.5q0 90 67 138.5t168 48.5
q36 0 65 -3.5t60.5 -14t52.5 -29t35.5 -50.5t15.5 -75l-167 -17q-1 34 -16.5 47.5t-47.5 13.5zM92 775l121 5l64 -83l69 84l118 -6l-101 -163h-177z" />
    <glyph glyph-name="scedilla.sc" horiz-adv-x="531" 
d="M155 -246l9 81q27 -6 50 -6q51 0 51 35q0 21 -15 28t-45 8l12 93q-194 16 -200 189l164 23q5 -42 22 -63t65 -21q64 0 64 39q0 22 -30.5 34t-74 20.5t-87 23.5t-74 52.5t-30.5 97.5q0 90 67 138.5t168 48.5q36 0 65 -3.5t60.5 -14t52.5 -29t35.5 -50.5t15.5 -75l-167 -17
q-1 34 -16.5 47.5t-47.5 13.5q-56 0 -56 -33q0 -21 30.5 -33t74.5 -21.5t87.5 -25.5t74 -53.5t30.5 -95.5q0 -88 -60 -136.5t-152 -55.5l-5 -39q89 -15 89 -93q0 -58 -40 -88.5t-104 -30.5q-40 0 -83 12z" />
    <glyph glyph-name="scircumflex.sc" horiz-adv-x="531" 
d="M269 447q-56 0 -56 -33q0 -21 30.5 -33t74.5 -21.5t87.5 -25.5t74 -53.5t30.5 -95.5q0 -97 -71.5 -145.5t-176.5 -48.5q-239 0 -245 191l164 23q5 -42 22 -63t65 -21q64 0 64 39q0 22 -30.5 34t-74 20.5t-87 23.5t-74 52.5t-30.5 97.5q0 90 67 138.5t168 48.5
q36 0 65 -3.5t60.5 -14t52.5 -29t35.5 -50.5t15.5 -75l-167 -17q-1 34 -16.5 47.5t-47.5 13.5zM462 620l-118 -5l-64 84l-69 -85l-121 6l101 164h177z" />
    <glyph glyph-name="scommaaccent.sc" horiz-adv-x="531" 
d="M269 447q-56 0 -56 -33q0 -21 30.5 -33t74.5 -21.5t87.5 -25.5t74 -53.5t30.5 -95.5q0 -97 -71.5 -145.5t-176.5 -48.5q-239 0 -245 191l164 23q5 -42 22 -63t65 -21q64 0 64 39q0 22 -30.5 34t-74 20.5t-87 23.5t-74 52.5t-30.5 97.5q0 90 67 138.5t168 48.5
q36 0 65 -3.5t60.5 -14t52.5 -29t35.5 -50.5t15.5 -75l-167 -17q-1 34 -16.5 47.5t-47.5 13.5zM138 -273l51 206h166l-92 -223z" />
    <glyph glyph-name="tbar.sc" horiz-adv-x="544" 
d="M366 0h-186v200h-112v108h112v105h-170v152h524v-152h-168v-105h110v-108h-110v-200z" />
    <glyph glyph-name="tcaron.sc" horiz-adv-x="544" 
d="M366 0h-186v413h-170v152h524v-152h-168v-413zM87 775l121 5l64 -83l69 84l118 -6l-101 -163h-177z" />
    <glyph glyph-name="uni0163.sc" horiz-adv-x="544" 
d="M157 -246l9 81q27 -6 50 -6q51 0 51 35q0 21 -15 28t-45 8l13 100h-40v413h-170v152h524v-152h-168v-413h-65l-6 -46q89 -15 89 -93q0 -58 -40 -88.5t-104 -30.5q-40 0 -83 12z" />
    <glyph glyph-name="uni021B.sc" horiz-adv-x="544" 
d="M366 0h-186v413h-170v152h524v-152h-168v-413zM142 -273l51 206h166l-92 -223z" />
    <glyph glyph-name="uacute.sc" horiz-adv-x="592" 
d="M299 135q46 0 57.5 24.5t11.5 88.5v317h185v-345q0 -118 -70 -173.5t-189 -55.5q-134 0 -194.5 55t-60.5 179v340h186v-313q0 -23 0.5 -33.5t2.5 -27.5t6.5 -24.5t12.5 -16t21 -12t31 -3.5zM457 781l-132 -169l-122 7l61 162h193z" />
    <glyph glyph-name="ubreve.sc" horiz-adv-x="592" 
d="M299 135q46 0 57.5 24.5t11.5 88.5v317h185v-345q0 -118 -70 -173.5t-189 -55.5q-134 0 -194.5 55t-60.5 179v340h186v-313q0 -23 0.5 -33.5t2.5 -27.5t6.5 -24.5t12.5 -16t21 -12t31 -3.5zM375 779l115 -7q-16 -164 -191 -164q-81 0 -128.5 39t-51.5 122l120 12
q5 -36 20.5 -51.5t45.5 -15.5q31 0 47 14t23 51z" />
    <glyph glyph-name="ucircumflex.sc" horiz-adv-x="592" 
d="M299 135q46 0 57.5 24.5t11.5 88.5v317h185v-345q0 -118 -70 -173.5t-189 -55.5q-134 0 -194.5 55t-60.5 179v340h186v-313q0 -23 0.5 -33.5t2.5 -27.5t6.5 -24.5t12.5 -16t21 -12t31 -3.5zM492 620l-118 -5l-64 84l-69 -85l-121 6l101 164h177z" />
    </font>
</defs>
</svg>
