<?xml version="1.0" standalone="no"?>
<!DOCTYPE svg PUBLIC "-//W3C//DTD SVG 1.1//EN" "http://www.w3.org/Graphics/SVG/1.1/DTD/svg11.dtd" >
<svg>
<metadata>
Created by FontForge 20090622 at Thu Feb  9 20:21:52 2017
 By deploy user
Copyright (c) 2012 by TypeTogether. All rights reserved.
</metadata>
<defs>
<font id="AdelleSansTh" horiz-adv-x="570" >
  <font-face 
    font-family="Adelle Sans Th"
    font-weight="250"
    font-stretch="normal"
    units-per-em="1000"
    panose-1="2 0 5 3 0 0 0 2 0 4"
    ascent="755"
    descent="-245"
    x-height="508"
    cap-height="724"
    bbox="-144 -291 1116 1063"
    underline-thickness="50"
    underline-position="-50"
    unicode-range="U+000D-U+FB06"
  />
<missing-glyph horiz-adv-x="500" 
 />
    <glyph glyph-name="ij" unicode="ij" horiz-adv-x="469" 
d="M145 508v-508h-49v508h49zM169 677q0 -42 -46 -42t-46 42q0 43 46 43t46 -43zM262 -223q-50 0 -78 15l9 43q35 -12 71 -12q68 0 68 84v601h49v-597q0 -69 -29 -101.5t-90 -32.5zM406 689q0 -42 -46 -42t-46 42q0 43 46 43t46 -43z" />
    <glyph glyph-name="ff" unicode="ff" horiz-adv-x="596" 
d="M604 748l-3 -40q-37 13 -73 13q-80 0 -80 -95v-118h146v-43h-146v-465h-49v465h-247v-465h-49v465h-80v43h80v102q0 153 126 153q47 0 79 -15l-3 -40q-37 13 -73 13q-80 0 -80 -95v-118h247v102q0 153 126 153q47 0 79 -15z" />
    <glyph glyph-name="fi" unicode="fi" horiz-adv-x="539" 
d="M448 508v-508h-49v465h-247v-465h-49v465h-80v43h80v102q0 153 126 153q47 0 79 -15l-3 -40q-37 13 -73 13q-80 0 -80 -95v-118h296zM472 677q0 -42 -46 -42t-46 42q0 43 46 43t46 -43z" />
    <glyph glyph-name="fl" unicode="fl" horiz-adv-x="539" 
d="M448 755v-755h-49v755h49zM308 748l-3 -40q-37 13 -73 13q-80 0 -80 -95v-118h146v-43h-146v-465h-49v465h-80v43h80v102q0 153 126 153q47 0 79 -15z" />
    <glyph glyph-name="ffi" unicode="ffi" horiz-adv-x="836" 
d="M604 748l-3 -40q-37 13 -73 13q-80 0 -80 -95v-118h146v-43h-146v-465h-49v465h-247v-465h-49v465h-80v43h80v102q0 153 129 153q47 0 79 -15l-2 -40q-37 13 -75 13q-39 0 -60.5 -21.5t-21.5 -74.5v-117h247v102q0 153 126 153q47 0 79 -15zM745 508v-508h-49v508h49z
M769 677q0 -42 -46 -42t-46 42q0 43 46 43t46 -43z" />
    <glyph glyph-name="ffl" unicode="ffl" horiz-adv-x="835" 
d="M604 748l-3 -40q-37 13 -73 13q-80 0 -80 -95v-118h146v-43h-146v-465h-49v465h-247v-465h-49v465h-80v43h80v102q0 153 126 153q47 0 79 -15l-3 -40q-37 13 -73 13q-80 0 -80 -95v-118h247v102q0 153 126 153q47 0 79 -15zM744 755v-755h-49v755h49z" />
    <glyph glyph-name="f_k" unicode="fk" horiz-adv-x="810" 
d="M308 748l-3 -40q-37 13 -73 13q-80 0 -80 -95v-118h146v-43h-146v-465h-49v465h-80v43h80v102q0 153 126 153q47 0 79 -15zM448 755v-510l254 263h59l-180 -187l193 -321h-53l-175 286l-98 -99v-187h-49v755h49z" />
    <glyph glyph-name="f_b" unicode="fb" horiz-adv-x="884" 
d="M308 748l-3 -40q-37 13 -73 13q-80 0 -80 -95v-118h146v-43h-146v-465h-49v465h-80v43h80v102q0 153 126 153q47 0 79 -15zM443 0h-44v755h48v-311q89 74 186 74q186 0 186 -251q0 -141 -60.5 -210t-157.5 -69q-84 0 -154 55zM448 395v-302q78 -60 157 -60q163 0 163 239
q0 111 -36 157t-107 46q-49 0 -98.5 -25t-78.5 -55z" />
    <glyph glyph-name="f_h" unicode="fh" horiz-adv-x="884" 
d="M308 748l-3 -40q-37 13 -73 13q-80 0 -80 -95v-118h146v-43h-146v-465h-49v465h-80v43h80v102q0 153 126 153q47 0 79 -15zM796 342v-342h-49v340q0 66 -26 99t-88 33q-50 0 -102.5 -25t-82.5 -53v-394h-49v755h49v-312q103 75 194 75q154 0 154 -176z" />
    <glyph glyph-name="f_t" unicode="ft" horiz-adv-x="657" 
d="M623 56l14 -38q-18 -13 -50 -21.5t-59 -8.5q-70 0 -99.5 30t-29.5 98v349h-247v-465h-49v465h-80v43h80v102q0 153 126 153q47 0 79 -15l-3 -40q-37 13 -73 13q-80 0 -80 -95v-118h247v145l49 8v-153h144v-43h-144v-339q0 -50 17 -73.5t66 -23.5q48 0 92 27z" />
    <glyph glyph-name="f_j" unicode="fj" horiz-adv-x="535" 
d="M328 -223q-50 0 -78 15l9 43q35 -12 71 -12q68 0 68 84v558h-246v-465h-49v465h-80v43h80v102q0 153 126 153q47 0 79 -15l-3 -40q-37 13 -73 13q-80 0 -80 -95v-118h295v-597q0 -69 -29 -101.5t-90 -32.5zM472 689q0 -42 -46 -42t-46 42q0 43 46 43t46 -43z" />
    <glyph glyph-name="f_f_j" unicode="ffj" horiz-adv-x="834" 
d="M627 -223q-50 0 -78 15l9 43q34 -12 71 -12q68 0 68 84v558h-249v-465h-49v465h-247v-465h-49v465h-80v43h80v102q0 153 126 153q47 0 79 -15l-3 -40q-37 13 -73 13q-80 0 -80 -95v-118h247v102q0 153 126 153q47 0 79 -15l-3 -40q-37 13 -73 13q-80 0 -80 -95v-118h298
v-597q0 -69 -29 -101.5t-90 -32.5zM771 689q0 -42 -46 -42t-46 42q0 43 46 43t46 -43z" />
    <glyph glyph-name="f_f_k" unicode="ffk" horiz-adv-x="1107" 
d="M604 748l-3 -40q-37 13 -73 13q-80 0 -80 -95v-118h146v-43h-146v-465h-49v465h-247v-465h-49v465h-80v43h80v102q0 153 129 153q47 0 79 -15l-2 -40q-37 13 -75 13q-39 0 -60.5 -21.5t-21.5 -74.5v-117h247v102q0 153 126 153q47 0 79 -15zM745 755v-510l254 263h59
l-180 -187l193 -321h-53l-175 286l-98 -99v-187h-49v755h49z" />
    <glyph glyph-name="f_f_b" unicode="ffb" horiz-adv-x="1181" 
d="M740 0h-44v755h48v-311q89 74 186 74q186 0 186 -251q0 -141 -60.5 -210t-157.5 -69q-84 0 -154 55zM745 395v-302q78 -60 157 -60q163 0 163 239q0 111 -36 157t-107 46q-49 0 -98.5 -25t-78.5 -55zM604 748l-3 -40q-37 13 -73 13q-80 0 -80 -95v-118h146v-43h-146v-465
h-49v465h-247v-465h-49v465h-80v43h80v102q0 153 126 153q47 0 79 -15l-3 -40q-37 13 -73 13q-80 0 -80 -95v-118h247v102q0 153 126 153q47 0 79 -15z" />
    <glyph glyph-name="f_f_h" unicode="ffh" horiz-adv-x="1181" 
d="M604 748l-3 -40q-37 13 -73 13q-80 0 -80 -95v-118h146v-43h-146v-465h-49v465h-247v-465h-49v465h-80v43h80v102q0 153 126 153q47 0 79 -15l-3 -40q-37 13 -73 13q-80 0 -80 -95v-118h247v102q0 153 126 153q47 0 79 -15zM1093 342v-342h-49v340q0 66 -26 99t-88 33
q-50 0 -102.5 -25t-82.5 -53v-394h-49v755h49v-312q103 75 194 75q154 0 154 -176z" />
    <glyph glyph-name="f_f_t" unicode="fft" horiz-adv-x="953" 
d="M308 748l-3 -40q-37 13 -73 13q-80 0 -80 -95v-118h247v102q0 153 126 153q47 0 79 -15l-3 -40q-37 13 -73 13q-80 0 -80 -95v-118h247v145l49 8v-153h144v-43h-144v-339q0 -50 17 -73.5t66 -23.5q48 0 92 27l14 -38q-18 -13 -50 -21.5t-59 -8.5q-70 0 -99.5 30t-29.5 98
v349h-247v-465h-49v465h-247v-465h-49v465h-80v43h80v102q0 153 126 153q47 0 79 -15z" />
    <glyph glyph-name="f_iacute" unicode="f&#xed;" horiz-adv-x="539" 
d="M308 748l-3 -40q-37 13 -73 13q-80 0 -80 -95v-118h296v-508h-49v465h-247v-465h-49v465h-80v43h80v102q0 153 126 153q47 0 79 -15zM555 751l-144 -179l-41 14l113 165h72z" />
    <glyph glyph-name="t_t" unicode="tt" horiz-adv-x="688" 
d="M654 56l14 -38q-18 -13 -50 -21.5t-59 -8.5q-70 0 -99.5 30t-29.5 98v349h-275v-339q0 -50 17 -73.5t66 -23.5q48 0 92 27l14 -38q-18 -13 -50 -21.5t-59 -8.5q-70 0 -99.5 30t-29.5 98v349h-81v43h81v145l49 8v-153h275v145l49 8v-153h144v-43h-144v-339q0 -50 17 -73.5
t66 -23.5q48 0 92 27z" />
    <glyph glyph-name=".notdef" horiz-adv-x="500" 
 />
    <glyph glyph-name=".null" horiz-adv-x="0" 
 />
    <glyph glyph-name=".null" horiz-adv-x="0" 
 />
    <glyph glyph-name="nonmarkingreturn" horiz-adv-x="333" 
 />
    <glyph glyph-name="CR" unicode="&#xd;" horiz-adv-x="500" 
 />
    <glyph glyph-name="space" unicode=" " horiz-adv-x="242" 
 />
    <glyph glyph-name="exclam" unicode="!" horiz-adv-x="249" 
d="M141 179h-32l-15 545h59zM177 39q0 -51 -52 -51q-51 0 -51 51q0 50 51 50q52 0 52 -50z" />
    <glyph glyph-name="quotedbl" unicode="&#x22;" horiz-adv-x="371" 
d="M301 465h-59v259h59v-259zM129 465h-59v259h59v-259z" />
    <glyph glyph-name="numbersign" unicode="#" horiz-adv-x="607" 
d="M381 0h-44l22 148h-145l-23 -148h-44l21 148h-131l12 38h127l30 190h-130l10 39h127l21 128h43l-20 -128h143l19 128h44l-18 -128h130l-9 -39h-128l-28 -190h128l-9 -38h-126zM365 186l29 190h-143l-31 -190h145z" />
    <glyph glyph-name="dollar" unicode="$" horiz-adv-x="515" 
d="M407 530q-12 60 -38.5 94.5t-81.5 40.5v-293q33 -10 52 -17.5t45.5 -22.5t41 -32t25 -45t10.5 -63q0 -76 -45.5 -125t-127.5 -56v-90h-40v88q-88 3 -140.5 45.5t-65.5 138.5l48 12q14 -76 49 -112.5t106 -40.5v284q-34 10 -53 17t-46.5 22t-42 33.5t-25.5 49t-11 69.5
q0 83 51.5 129.5t127.5 53.5v82h41v-82q74 -8 115 -49t54 -121zM118 528q0 -61 33 -92t94 -51v280q-68 -5 -97.5 -43.5t-29.5 -93.5zM408 184q0 60 -31 89.5t-90 49.5v-270q55 7 88 40t33 91z" />
    <glyph glyph-name="percent" unicode="%" horiz-adv-x="780" 
d="M205 374q-80 0 -117 50t-37 126q0 83 43 135t119 52q77 0 114.5 -46.5t37.5 -127.5q0 -85 -42 -137t-118 -52zM207 417q103 0 103 142q0 134 -99 134q-39 0 -64 -23.5t-33.5 -52.5t-8.5 -63q0 -137 102 -137zM567 -12q-80 0 -117 50t-37 126q0 83 43 135t119 52
q77 0 114.5 -46.5t37.5 -127.5q0 -85 -42 -137t-118 -52zM569 31q103 0 103 142q0 134 -99 134q-39 0 -64 -23.5t-33.5 -52.5t-8.5 -63q0 -137 102 -137zM189 -18h-51l439 742h51z" />
    <glyph glyph-name="ampersand" unicode="&#x26;" horiz-adv-x="668" 
d="M449 564q0 -113 -143 -173l-53 -24q79 -139 196 -267q59 74 66 230h44q-5 -167 -78 -256q54 -51 101 -51q23 0 51 14l15 -31q-23 -19 -65 -19q-38 0 -67 14t-63 43q-72 -56 -176 -56q-90 0 -151.5 53t-61.5 138q0 71 33 119t98 85q-41 80 -41 145q0 69 44 118.5t117 49.5
q23 0 43.5 -5t42.5 -18t35 -41t13 -68zM280 28q85 0 144 43q-106 106 -209 277q-50 -28 -77.5 -66t-27.5 -95q0 -65 45 -112t125 -47zM311 656q-49 0 -79.5 -34.5t-30.5 -91.5q0 -53 34 -130l47 21q119 54 119 142q0 93 -90 93z" />
    <glyph glyph-name="quotesingle" unicode="'" horiz-adv-x="199" 
d="M129 465h-59v259h59v-259z" />
    <glyph glyph-name="parenleft" unicode="(" horiz-adv-x="285" 
d="M251 -153l-47 1q-141 224 -141 432q0 224 149 444h50q-151 -248 -151 -444q0 -121 35 -219.5t105 -213.5z" />
    <glyph glyph-name="parenright" unicode=")" horiz-adv-x="285" 
d="M105 -152l-47 -1q70 115 105 213.5t35 219.5q0 196 -151 444h50q149 -220 149 -444q0 -208 -141 -432z" />
    <glyph glyph-name="asterisk" unicode="*" horiz-adv-x="467" 
d="M247 755l17 -151l137 36l7 -19l-127 -64l84 -131l-18 -12l-113 107l-111 -109l-17 13l83 131l-130 64l9 19l138 -35l20 151h21z" />
    <glyph glyph-name="plus" unicode="+" 
d="M309 134h-48v165h-161v47h161v158h48v-158h161v-47h-161v-165z" />
    <glyph glyph-name="comma" unicode="," horiz-adv-x="200" 
d="M28 -115l51 197h62l-75 -204z" />
    <glyph glyph-name="hyphen" unicode="-" horiz-adv-x="318" 
d="M291 271h-271v51h271v-51z" />
    <glyph glyph-name="period" unicode="." horiz-adv-x="209" 
d="M155 37q0 -49 -51 -49q-50 0 -50 49q0 48 50 48q51 0 51 -48z" />
    <glyph glyph-name="slash" unicode="/" horiz-adv-x="334" 
d="M50 -92h-45l281 847h44z" />
    <glyph glyph-name="zero" unicode="0" horiz-adv-x="546" 
d="M271 -12q-57 0 -98.5 21t-65 53.5t-37.5 83t-18 99.5t-4 113q0 80 9.5 142t33 118.5t72 87.5t118.5 31q56 0 97 -21.5t63.5 -54.5t35.5 -84t17 -97t4 -107q0 -67 -5 -119t-19.5 -104t-39 -86t-66 -55t-97.5 -21zM274 32q55 0 91 25.5t53.5 75.5t24 103.5t6.5 129.5
q0 49 -2 86t-8 76.5t-18 67.5t-30 51t-46.5 34.5t-65.5 11.5q-56 0 -93 -25.5t-56 -75t-26 -105.5t-7 -133q0 -55 3.5 -97.5t14.5 -86.5t30 -72.5t51.5 -47t77.5 -18.5z" />
    <glyph glyph-name="one" unicode="1" horiz-adv-x="392" 
d="M256 0h-47v639q-24 -15 -75.5 -26t-80.5 -11l-7 38q72 6 116.5 25t77.5 59h16v-724z" />
    <glyph glyph-name="two" unicode="2" horiz-adv-x="509" 
d="M260 737q83 0 134 -42.5t51 -131.5q0 -80 -37 -148t-120 -169l-167 -205h333v-41h-391v35l180 224q90 113 120 169t30 131q0 135 -138 135q-41 0 -70 -11t-45 -32.5t-24 -42.5t-14 -52l-46 9q28 172 204 172z" />
    <glyph glyph-name="three" unicode="3" horiz-adv-x="531" 
d="M49 146l48 10q10 -55 42 -89t107 -34q68 0 115 41t47 126q0 165 -177 165h-60v42h46q83 0 132 44t49 113q0 130 -136 130q-70 0 -103 -31t-48 -90l-44 11q16 78 69 115.5t133 37.5q86 0 132.5 -46t46.5 -121q0 -82 -43 -124.5t-101 -53.5v-2q156 -22 156 -188
q0 -96 -57 -155t-159 -59q-85 0 -135 40.5t-60 117.5z" />
    <glyph glyph-name="four" unicode="4" horiz-adv-x="522" 
d="M407 0h-47v189h-341v37l324 498h65v-492h88v-43h-89v-189zM77 232h284v445z" />
    <glyph glyph-name="five" unicode="5" horiz-adv-x="528" 
d="M76 367l28 357h322v-43h-279l-25 -279q65 57 152 57q36 0 68 -10t62.5 -33.5t48 -69t17.5 -109.5q0 -110 -60 -179.5t-169 -69.5q-83 0 -137 40.5t-67 118.5l48 12q13 -56 47.5 -91t109.5 -35q71 0 123 50t52 155q0 90 -40.5 133.5t-107.5 43.5q-89 0 -157 -65z" />
    <glyph glyph-name="six" unicode="6" horiz-adv-x="556" 
d="M490 594l-44 -11q-16 64 -47.5 88t-80.5 24q-58 0 -99.5 -36.5t-61.5 -96t-28.5 -114.5t-9.5 -112q30 39 83.5 71t110.5 32q95 0 142 -58.5t47 -149.5q0 -111 -56.5 -177t-155.5 -66q-65 0 -110 28t-68 79t-32 108t-9 131q0 52 6 102t23 106.5t44 98t74 69t107 27.5
q138 0 165 -143zM122 286q3 -51 10.5 -89.5t24.5 -80t51.5 -64t83.5 -22.5q70 0 115.5 48t45.5 148q0 168 -141 168q-106 0 -190 -108z" />
    <glyph glyph-name="seven" unicode="7" horiz-adv-x="499" 
d="M173 0h-53l307 681h-389v43h443v-37z" />
    <glyph glyph-name="eight" unicode="8" horiz-adv-x="519" 
d="M310 372q38 -16 60.5 -28.5t51.5 -35.5t43 -56.5t14 -77.5q0 -84 -60.5 -135t-159.5 -51q-108 0 -161.5 50t-53.5 133q0 132 166 197q-61 24 -101.5 71.5t-40.5 114.5q0 88 58.5 135.5t148.5 47.5q89 0 141.5 -43t52.5 -121q0 -65 -43.5 -116t-115.5 -85zM255 348
q-79 -31 -119 -69.5t-40 -107.5q0 -64 41.5 -102.5t124.5 -38.5q85 0 126.5 44t41.5 103q0 23 -7 43.5t-14.5 34.5t-26 28l-28 21.5t-34.5 18t-32 13t-33 12.5zM264 388q156 73 156 186q0 58 -38.5 90t-112.5 32q-71 0 -111.5 -36t-40.5 -100q0 -68 37.5 -104.5t109.5 -67.5
z" />
    <glyph glyph-name="nine" unicode="9" horiz-adv-x="556" 
d="M58 135l46 11q25 -115 144 -115q55 0 93.5 26.5t59 76t30 108t10.5 134.5q-29 -39 -82.5 -70t-110.5 -31q-96 0 -143.5 61.5t-47.5 156.5q0 112 57 178t156 66q65 0 110.5 -28t68 -79t31.5 -108t9 -131q0 -85 -10 -151t-35 -126t-75.5 -93t-123.5 -33t-122.5 37
t-64.5 110zM438 429q-2 41 -6 72.5t-15 70t-28.5 64t-48.5 43t-72 17.5q-71 0 -116 -49t-45 -150q0 -87 37 -132t106 -45q54 0 103.5 31t84.5 78z" />
    <glyph glyph-name="colon" unicode=":" horiz-adv-x="209" 
d="M155 37q0 -49 -51 -49q-50 0 -50 49q0 48 50 48q51 0 51 -48zM155 442q0 -49 -51 -49q-50 0 -50 49q0 48 50 48q51 0 51 -48z" />
    <glyph glyph-name="semicolon" unicode=";" horiz-adv-x="200" 
d="M15 -115l51 197h62l-75 -204zM164 442q0 -49 -51 -49q-50 0 -50 49q0 48 50 48q51 0 51 -48z" />
    <glyph glyph-name="less" unicode="&#x3c;" 
d="M460 104l-371 151v57l371 164v-50l-320 -141l320 -132v-49z" />
    <glyph glyph-name="equal" unicode="=" 
d="M468 193h-365v45h365v-45zM468 335h-365v45h365v-45z" />
    <glyph glyph-name="greater" unicode="&#x3e;" 
d="M460 255l-371 -151v49l320 132l-320 141v50l371 -164v-57z" />
    <glyph glyph-name="question" unicode="?" horiz-adv-x="481" 
d="M187 178h-44v175q102 10 160.5 49t58.5 130q0 84 -39 116.5t-108 32.5q-61 0 -101 -26.5t-58 -97.5l-43 9q36 155 204 155q193 0 193 -181q0 -185 -223 -221v-141zM215 39q0 -51 -51 -51q-52 0 -52 51q0 50 52 50q51 0 51 -50z" />
    <glyph glyph-name="at" unicode="@" horiz-adv-x="833" 
d="M647 -46l28 -27q-84 -88 -251 -88q-164 0 -268 92t-104 262q0 169 105 270t276 101q155 0 251.5 -80.5t96.5 -238.5q0 -123 -43.5 -184t-119.5 -61q-69 0 -96 56q-19 -26 -56.5 -45t-79.5 -19t-72 15.5t-46 43t-23 58.5t-7 69q0 96 48 157.5t126 61.5q64 0 106 -36l3 30
h39v-257q0 -28 1 -41.5t6.5 -30.5t18 -24t34.5 -7q48 0 83.5 46.5t35.5 155.5q0 295 -312 295q-154 0 -243 -91.5t-89 -242.5q0 -83 27 -145.5t74 -99.5t106 -55t129 -18q69 0 126 21t90 57zM516 111v211q-43 38 -102 38q-58 0 -92.5 -47t-34.5 -136q0 -148 102 -148
q39 0 75 23t52 59z" />
    <glyph glyph-name="A" unicode="A" horiz-adv-x="637" 
d="M283 724h70l249 -724h-54l-84 248h-295l-84 -248h-50zM450 290l-134 403l-133 -403h267z" />
    <glyph glyph-name="B" unicode="B" horiz-adv-x="638" 
d="M314 0h-202v724h227q120 0 168.5 -47t48.5 -130q0 -75 -42.5 -116.5t-111.5 -53.5v-2q176 -25 176 -181q0 -105 -68.5 -149.5t-195.5 -44.5zM159 44h155q40 0 69 3t58 12t47 25t29 43.5t11 65.5q0 78 -52 117t-138 39h-179v-305zM159 393h138q36 0 68.5 7t65.5 23
t52.5 48.5t19.5 77.5q0 72 -40 102t-132 30h-172v-288z" />
    <glyph glyph-name="C" unicode="C" horiz-adv-x="716" 
d="M379 -12q-159 0 -234 96.5t-75 263.5q0 187 90 288t238 101q112 0 180 -58t78 -172l-46 -4q-14 96 -64 144.5t-149 48.5q-128 0 -202.5 -88.5t-74.5 -251.5q0 -327 262 -327q95 0 149 39.5t76 130.5l42 -10q-39 -201 -270 -201z" />
    <glyph glyph-name="D" unicode="D" horiz-adv-x="741" 
d="M295 0h-183v724h200q183 0 271 -91.5t88 -259.5q0 -173 -94 -273t-282 -100zM160 41h143q153 0 235 84t82 243q0 173 -79.5 244t-232.5 71h-148v-642z" />
    <glyph glyph-name="E" unicode="E" 
d="M160 347v-305h358v-42h-406v724h398v-42h-350v-292h327v-43h-327z" />
    <glyph glyph-name="F" unicode="F" horiz-adv-x="543" 
d="M160 333v-333h-48v724h399v-42h-351v-305h325v-44h-325z" />
    <glyph glyph-name="G" unicode="G" horiz-adv-x="756" 
d="M615 0l-8 115q-22 -54 -82 -90.5t-145 -36.5q-157 0 -233.5 98t-76.5 269q0 187 89 284.5t241 97.5q236 0 256 -232l-46 -5q-12 107 -64.5 151.5t-148.5 44.5q-130 0 -204 -88.5t-74 -248.5q0 -330 267 -330q104 0 164 66t60 147v87h-235v45h277v-374h-37z" />
    <glyph glyph-name="H" unicode="H" horiz-adv-x="725" 
d="M613 724v-724h-48v350h-405v-350h-48v724h48v-330h405v330h48z" />
    <glyph glyph-name="I" unicode="I" horiz-adv-x="272" 
d="M160 724v-724h-48v724h48z" />
    <glyph glyph-name="J" unicode="J" horiz-adv-x="487" 
d="M338 176v548h48v-551q0 -102 -46 -143.5t-131 -41.5q-84 0 -124.5 42.5t-44.5 113.5l47 8q8 -59 34 -90t93 -31q57 0 90.5 30.5t33.5 114.5z" />
    <glyph glyph-name="K" unicode="K" horiz-adv-x="623" 
d="M160 724v-382l357 382h60l-299 -319l326 -405h-58l-301 373l-85 -90v-283h-48v724h48z" />
    <glyph glyph-name="L" unicode="L" horiz-adv-x="552" 
d="M160 724v-683h337v-41h-385v724h48z" />
    <glyph glyph-name="M" unicode="M" horiz-adv-x="885" 
d="M773 724v-724h-47v675h-2l-250 -675h-66l-248 676h-2v-676h-46v724h81l249 -687h1l252 687h78z" />
    <glyph glyph-name="N" unicode="N" horiz-adv-x="745" 
d="M633 0h-65l-409 683v-683h-47v724h77l398 -671v671h46v-724z" />
    <glyph glyph-name="O" unicode="O" horiz-adv-x="781" 
d="M386 -12q-154 0 -235 103t-81 273q0 166 87.5 269.5t242.5 103.5q150 0 230.5 -100t80.5 -258q0 -180 -84.5 -285.5t-240.5 -105.5zM390 29q122 0 196.5 88.5t74.5 251.5q0 154 -72 240.5t-191 86.5q-121 0 -199 -88.5t-78 -244.5t74 -245t195 -89z" />
    <glyph glyph-name="P" unicode="P" horiz-adv-x="612" 
d="M159 286v-286h-47v724h209q241 0 241 -210q0 -122 -70.5 -175t-201.5 -53h-131zM159 329h132q51 0 87 7t68.5 25.5t48.5 57t16 96.5q0 86 -48 127t-156 41h-148v-354z" />
    <glyph glyph-name="Q" unicode="Q" horiz-adv-x="781" 
d="M386 -12q-156 0 -236 103t-80 273q0 166 87.5 269.5t242.5 103.5q150 0 230.5 -100t80.5 -258q0 -205 -104 -309l94 -103l-32 -27l-95 101q-81 -53 -188 -53zM390 31q86 0 149 45l-140 157l35 29l143 -158q83 88 83 265q0 154 -71.5 240.5t-190.5 86.5q-121 0 -199 -88.5
t-78 -244.5t73.5 -244t195.5 -88z" />
    <glyph glyph-name="R" unicode="R" horiz-adv-x="637" 
d="M415 332l187 -332h-53l-180 321h-210v-321h-47v724h223q231 0 231 -190q0 -80 -40 -131.5t-111 -70.5zM159 363h170q90 0 138 39t48 133q0 45 -14 75t-42.5 45.5t-62.5 21.5t-83 6h-154v-320z" />
    <glyph glyph-name="S" unicode="S" horiz-adv-x="578" 
d="M306 694q-96 0 -138 -39t-42 -104q0 -68 40 -99t125 -56q108 -31 144 -50q96 -52 96 -160q0 -101 -68 -149.5t-172 -48.5q-216 0 -251 196l49 10q32 -161 201 -161q36 0 66.5 6.5t59 22t45 46t16.5 73.5q0 34 -12.5 60.5t-27.5 42t-48 30t-51.5 20.5t-60.5 17
q-47 13 -77 25t-62 33.5t-48 56.5t-16 83q0 85 62.5 136.5t166.5 51.5q200 0 225 -199l-46 -5q-7 34 -15.5 56.5t-27 49.5t-52 41t-81.5 14z" />
    <glyph glyph-name="T" unicode="T" horiz-adv-x="532" 
d="M290 0h-48v682h-222v42h492v-42h-222v-682z" />
    <glyph glyph-name="U" unicode="U" horiz-adv-x="718" 
d="M360 32q100 0 151 45t51 153v494h48v-496q0 -119 -65 -179.5t-191 -60.5q-128 0 -187 61t-59 179v496h48v-492q0 -108 53 -154t151 -46z" />
    <glyph glyph-name="V" unicode="V" horiz-adv-x="614" 
d="M348 0h-69l-249 724h53l230 -683h1l220 683h50z" />
    <glyph glyph-name="W" unicode="W" horiz-adv-x="870" 
d="M680 0h-65l-174 673h-3l-184 -673h-57l-157 724h51l137 -661h2l178 661h63l175 -673h2l135 673h47z" />
    <glyph glyph-name="X" unicode="X" horiz-adv-x="607" 
d="M556 724l-228 -351l254 -373h-53l-231 338l-219 -338h-54l241 369l-229 355h54l205 -321l207 321h53z" />
    <glyph glyph-name="Y" unicode="Y" horiz-adv-x="538" 
d="M297 291v-291h-48v287l-245 437h54l216 -384h1l210 384h49z" />
    <glyph glyph-name="Z" unicode="Z" horiz-adv-x="585" 
d="M519 689l-419 -647h436v-42h-497v34l417 648h-404v42h467v-35z" />
    <glyph glyph-name="bracketleft" unicode="[" horiz-adv-x="239" 
d="M198 -143h-127v867h127v-38h-83v-791h83v-38z" />
    <glyph glyph-name="backslash" unicode="\" horiz-adv-x="333" 
d="M328 -92h-45l-280 847h44z" />
    <glyph glyph-name="bracketright" unicode="]" horiz-adv-x="239" 
d="M168 -143h-127v38h83v791h-83v38h127v-867z" />
    <glyph glyph-name="asciicircum" unicode="^" horiz-adv-x="492" 
d="M470 299h-52l-175 321l-173 -321h-48l197 365h51z" />
    <glyph glyph-name="underscore" unicode="_" horiz-adv-x="500" 
d="M500 -181h-500v36h500v-36z" />
    <glyph glyph-name="grave" unicode="`" horiz-adv-x="500" 
d="M288 572l-144 179h72l113 -165z" />
    <glyph glyph-name="a" unicode="a" horiz-adv-x="536" 
d="M440 348v-276q0 -23 6 -32.5t25 -9.5q11 0 31 6l4 -32q-24 -12 -54 -12q-31 0 -45.5 19t-12.5 45q-68 -68 -172 -68q-37 0 -65.5 10t-44 24.5t-25 34.5t-12.5 36t-3 33q0 170 249 170q25 0 69 -2v45q0 77 -25.5 107.5t-95.5 30.5q-62 0 -91 -23t-38 -72l-47 8
q12 68 56.5 98t123.5 30q90 0 128.5 -38t38.5 -132zM391 102v150q-35 3 -78 3q-88 0 -138.5 -26.5t-50.5 -97.5q0 -101 105 -101q47 0 91 20t71 52z" />
    <glyph glyph-name="b" unicode="b" horiz-adv-x="580" 
d="M139 0h-44v755h48v-311q89 74 186 74q186 0 186 -251q0 -141 -60.5 -210t-157.5 -69q-84 0 -154 55zM144 395v-302q78 -60 157 -60q163 0 163 239q0 111 -36 157t-107 46q-49 0 -98.5 -25t-78.5 -55z" />
    <glyph glyph-name="c" unicode="c" horiz-adv-x="530" 
d="M285 -12q-225 0 -225 264q0 132 61.5 199t174.5 67q76 0 126 -43t54 -122l-53 -6q-13 128 -133 128q-75 0 -127 -50.5t-52 -165.5q0 -124 49 -174.5t124 -50.5q126 0 146 116l50 -10q-13 -77 -67.5 -114.5t-127.5 -37.5z" />
    <glyph glyph-name="d" unicode="d" horiz-adv-x="581" 
d="M486 755v-755h-42l-5 58q-88 -70 -181 -70q-90 0 -141.5 63.5t-51.5 197.5q0 138 60.5 203.5t157.5 65.5q81 0 153 -50v287h50zM437 108v311q-72 55 -155 55q-165 0 -165 -226q0 -217 151 -217q49 0 93.5 22t75.5 55z" />
    <glyph glyph-name="e" unicode="e" horiz-adv-x="543" 
d="M284 -12q-224 0 -224 266q0 132 66.5 198t166.5 66q96 0 143 -57.5t47 -150.5q0 -37 -5 -66h-366q3 -117 49 -163t127 -46q113 0 140 105l47 -9q-18 -73 -69 -108t-122 -35zM112 287h320q5 186 -145 186q-70 0 -119.5 -45.5t-55.5 -140.5z" />
    <glyph glyph-name="f" unicode="f" horiz-adv-x="299" 
d="M308 748l-3 -40q-37 13 -73 13q-80 0 -80 -95v-118h146v-43h-146v-465h-49v465h-80v43h80v102q0 153 126 153q47 0 79 -15z" />
    <glyph glyph-name="g" unicode="g" horiz-adv-x="547" 
d="M266 518q110 0 159 -60q23 54 66 54q17 0 36 -6v-43q-55 0 -93 -19q32 -37 32 -107q0 -84 -56 -132t-140 -48q-65 0 -101 14q-42 -31 -42 -62q0 -20 17.5 -31t64.5 -14l145 -8q82 -5 121 -32t39 -91q0 -47 -23 -80t-62.5 -49.5t-79.5 -23t-86 -6.5q-222 0 -222 131
q0 31 14 57t28.5 39.5t42.5 33.5q-21 5 -34.5 22.5t-13.5 40.5q0 48 56 91q-35 17 -55.5 55t-20.5 85q0 87 57.5 138t150.5 51zM414 336q0 140 -146 140q-70 0 -114 -35t-44 -109q0 -62 37.5 -97.5t116.5 -35.5q68 0 109 37t41 100zM462 -65q0 71 -103 76l-191 10
q-76 -54 -76 -109q0 -93 176 -93q194 0 194 116z" />
    <glyph glyph-name="h" unicode="h" horiz-adv-x="578" 
d="M490 342v-342h-49v340q0 66 -26 99t-88 33q-50 0 -102.5 -25t-82.5 -53v-394h-49v755h49v-312q103 75 194 75q154 0 154 -176z" />
    <glyph glyph-name="i" unicode="i" horiz-adv-x="236" 
d="M145 508v-508h-49v508h49zM169 677q0 -42 -46 -42t-46 42q0 43 46 43t46 -43z" />
    <glyph glyph-name="j" unicode="j" horiz-adv-x="233" 
d="M26 -223q-50 0 -78 15l9 43q34 -12 71 -12q68 0 68 84v601h49v-597q0 -69 -29 -101.5t-90 -32.5zM170 689q0 -42 -46 -42t-46 42q0 43 46 43t46 -43z" />
    <glyph glyph-name="k" unicode="k" horiz-adv-x="504" 
d="M142 755v-510l254 263h59l-180 -187l193 -321h-53l-175 286l-98 -99v-187h-49v755h49z" />
    <glyph glyph-name="l" unicode="l" horiz-adv-x="236" 
d="M145 755v-755h-49v755h49z" />
    <glyph glyph-name="m" unicode="m" horiz-adv-x="870" 
d="M142 393v-393h-49v508h44l4 -67q104 77 187 77q99 0 126 -77q106 77 189 77q79 0 109 -42.5t30 -134.5v-341h-49v339q0 71 -18.5 103t-76.5 32q-43 0 -91.5 -23t-83.5 -52q4 -24 4 -58v-341h-49v339q0 71 -19 103t-77 32q-45 0 -97.5 -26.5t-82.5 -54.5z" />
    <glyph glyph-name="n" unicode="n" horiz-adv-x="578" 
d="M490 342v-342h-49v340q0 66 -25.5 99.5t-87.5 33.5q-50 0 -103 -25.5t-83 -53.5v-394h-49v508h43l3 -66q107 76 198 76q153 0 153 -176z" />
    <glyph glyph-name="o" unicode="o" horiz-adv-x="572" 
d="M284 -12q-224 0 -224 264q0 125 62 195.5t175 70.5q109 0 162 -67t53 -186q0 -277 -228 -277zM288 33q172 0 172 226q0 115 -42 164.5t-125 49.5q-85 0 -134.5 -54.5t-49.5 -162.5q0 -223 179 -223z" />
    <glyph glyph-name="p" unicode="p" horiz-adv-x="580" 
d="M95 -212v720h43l4 -65q88 75 188 75q185 0 185 -251q0 -140 -60 -209.5t-154 -69.5q-78 0 -159 56v-256h-47zM144 395v-302q78 -61 157 -61q163 0 163 240q0 110 -34 157.5t-109 47.5q-49 0 -98 -25t-79 -57z" />
    <glyph glyph-name="q" unicode="q" horiz-adv-x="580" 
d="M485 508v-720h-47v271q-82 -71 -180 -71q-90 0 -141.5 63t-51.5 197q0 139 60.5 204.5t156.5 65.5q70 0 151 -52l3 42h49zM436 108v303q-84 65 -158 65q-162 0 -162 -233q0 -110 38 -161.5t116 -51.5q92 0 166 78z" />
    <glyph glyph-name="r" unicode="r" horiz-adv-x="339" 
d="M327 518v-49q-47 6 -100.5 -12t-84.5 -50v-407h-49v508h39l5 -68q78 85 190 78z" />
    <glyph glyph-name="s" unicode="s" horiz-adv-x="477" 
d="M241 518q87 0 124 -39t44 -113l-47 -6q-7 59 -33.5 87.5t-90.5 28.5q-65 0 -92.5 -26.5t-27.5 -66.5q0 -26 9.5 -44t31 -29.5t41 -17.5t54.5 -13q41 -9 62.5 -15.5t50.5 -22t42.5 -42t13.5 -64.5q0 -67 -46 -107t-134 -40q-84 0 -131.5 36.5t-59.5 119.5l47 9
q12 -57 42.5 -89t103.5 -32q58 0 92.5 24.5t34.5 76.5q0 48 -31 68.5t-95 32.5q-34 6 -52 10.5t-46 15.5t-42.5 24.5t-26 38t-11.5 56.5q0 66 50 102.5t123 36.5z" />
    <glyph glyph-name="t" unicode="t" horiz-adv-x="364" 
d="M330 56l14 -38q-18 -13 -50 -21.5t-59 -8.5q-70 0 -99.5 30t-29.5 98v349h-81v43h81v145l49 8v-153h144v-43h-144v-339q0 -50 17 -73.5t66 -23.5q48 0 92 27z" />
    <glyph glyph-name="u" unicode="u" horiz-adv-x="581" 
d="M90 167v341h49v-340q0 -67 25 -100t86 -33q50 0 102.5 25.5t82.5 53.5v394h49v-508h-43l-3 65q-103 -75 -197 -75q-80 0 -115.5 44t-35.5 133z" />
    <glyph glyph-name="v" unicode="v" horiz-adv-x="483" 
d="M272 0h-57l-202 508h54l177 -452h2l175 452h49z" />
    <glyph glyph-name="w" unicode="w" horiz-adv-x="721" 
d="M238 0h-59l-166 508h51l144 -459h2l123 459h62l122 -457h2l143 457h46l-163 -508h-61l-119 458h-2z" />
    <glyph glyph-name="x" unicode="x" horiz-adv-x="464" 
d="M425 508l-170 -239l186 -269h-55l-158 229l-151 -229h-55l174 265l-171 243h55l145 -207l147 207h53z" />
    <glyph glyph-name="y" unicode="y" horiz-adv-x="457" 
d="M201 0l-184 508h52l159 -441h1l163 441h52l-232 -603q-28 -71 -64 -99.5t-87 -28.5q-41 0 -87 18l10 41q34 -16 80 -16q34 0 60 22t48 81z" />
    <glyph glyph-name="z" unicode="z" horiz-adv-x="454" 
d="M416 474l-324 -434h334v-40h-393v33l323 433h-317v42h377v-34z" />
    <glyph glyph-name="braceleft" unicode="{" horiz-adv-x="284" 
d="M254 -105v-40h-38q-130 0 -130 103q0 35 6.5 108.5t6.5 100.5q0 54 -21.5 75.5t-60.5 21.5h-16v46h13q85 0 85 97q0 29 -6.5 114.5t-6.5 112.5q0 50 33.5 76.5t95.5 26.5h39v-43h-50q-36 -1 -51.5 -15t-15.5 -45q0 -28 5.5 -109.5t5.5 -117.5q0 -57 -18.5 -82t-48.5 -37
q20 -8 32 -17t23.5 -34.5t11.5 -65.5q0 -37 -5 -107t-5 -94q0 -37 18 -56t63 -19h35z" />
    <glyph glyph-name="bar" unicode="|" horiz-adv-x="280" 
d="M162 -143h-44v898h44v-898z" />
    <glyph glyph-name="braceright" unicode="}" horiz-adv-x="284" 
d="M30 697v40h38q130 0 130 -103q0 -35 -6.5 -108.5t-6.5 -100.5q0 -54 21.5 -75.5t60.5 -21.5h16v-46h-13q-85 0 -85 -97q0 -29 6.5 -114.5t6.5 -112.5q0 -50 -33.5 -76.5t-95.5 -26.5h-39v43h50q36 1 51.5 15t15.5 45q0 28 -5.5 109.5t-5.5 117.5q0 57 18.5 82t48.5 37
q-20 8 -32 17t-23.5 34.5t-11.5 65.5q0 37 5 107t5 94q0 37 -18 56t-63 19h-35z" />
    <glyph glyph-name="asciitilde" unicode="~" horiz-adv-x="459" 
d="M110 394q33 0 121.5 -24t108.5 -24q23 0 33 11t10 47l40 -1q7 -56 -17.5 -79.5t-61.5 -23.5q-30 0 -119.5 24t-112.5 24q-41 0 -39 -60l-37 2q-7 54 17 79t57 25z" />
    <glyph glyph-name="uni00A0" unicode="&#xa0;" horiz-adv-x="242" 
 />
    <glyph glyph-name="exclamdown" unicode="&#xa1;" horiz-adv-x="249" 
d="M119 328h32l15 -545h-59zM83 468q0 51 52 51q51 0 51 -51q0 -50 -51 -50q-52 0 -52 50z" />
    <glyph glyph-name="cent" unicode="&#xa2;" horiz-adv-x="501" 
d="M257 691h40v-99q68 -4 110.5 -43t45.5 -110l-46 -6q-7 57 -32.5 83.5t-76.5 29.5v-402q50 4 77 31t39 80l44 -10q-22 -130 -160 -146v-99h-39v99q-95 7 -142 73t-47 174q0 110 50.5 173t136.5 72v100zM121 352q0 -194 138 -208v401q-138 -16 -138 -193z" />
    <glyph glyph-name="sterling" unicode="&#xa3;" horiz-adv-x="538" 
d="M27 42h53q91 87 91 183q0 52 -28 106h-109v41h85q-48 93 -48 161q0 89 60.5 146.5t151.5 57.5t139 -43t58 -137l-46 -5q-9 72 -42 106.5t-107 34.5q-73 0 -119.5 -39t-46.5 -113q0 -63 49 -169h247v-41h-224q24 -57 24 -110q0 -100 -79 -179h215q53 0 78 27.5t36 92.5
l49 -11q-12 -80 -53 -115.5t-114 -35.5h-320v42z" />
    <glyph glyph-name="currency" unicode="&#xa4;" 
d="M564 51l-43 -38l-94 92q-57 -44 -140 -44q-88 0 -144 46q2 3 -22 -21.5l-48 -49.5t-23 -23l-39 37l96 96q-35 55 -35 137q0 68 37 128l-95 94l43 39l91 -91q60 50 146 50q90 0 145 -47l87 87l39 -37l-90 -92q34 -53 34 -127q0 -81 -41 -141zM292 107q75 0 118.5 49
t43.5 127q0 82 -43 127.5t-122 45.5q-76 0 -119.5 -47.5t-43.5 -125.5q0 -79 43 -127.5t123 -48.5z" />
    <glyph glyph-name="yen" unicode="&#xa5;" horiz-adv-x="499" 
d="M416 248h-136v-248h-49v248h-137v42h137v99h-137v42h106l-170 293h57l169 -299h1l162 299h52l-164 -293h109v-42h-136v-99h136v-42z" />
    <glyph glyph-name="brokenbar" unicode="&#xa6;" horiz-adv-x="280" 
d="M162 -143h-44v388h44v-388zM162 408h-44v347h44v-347z" />
    <glyph glyph-name="section" unicode="&#xa7;" horiz-adv-x="534" 
d="M52 259q0 76 102 148q-67 48 -67 131q0 84 56 127.5t143 43.5q91 0 142 -48t54 -130l-50 -8q-16 140 -151 140q-69 0 -105 -33.5t-36 -84.5q0 -55 36.5 -86t88 -45l103.5 -28.5t88.5 -51t36.5 -98.5q0 -41 -27.5 -80t-72.5 -68q65 -44 65 -128t-56 -129t-143 -45
q-91 0 -142 48t-54 130l53 8q6 -69 40.5 -104t105.5 -35q70 0 106.5 34.5t36.5 92.5q0 39 -19.5 64.5t-50.5 39t-68.5 23t-75.5 20.5t-69 27t-50.5 47.5t-19.5 77.5zM104 256q0 -31 14.5 -52.5t42.5 -34.5t56 -21l67.5 -18.5t64.5 -20.5q92 60 92 129q0 39 -25.5 64.5
t-55.5 35.5t-82.5 24t-80.5 25q-93 -62 -93 -131z" />
    <glyph glyph-name="dieresis" unicode="&#xa8;" horiz-adv-x="500" 
d="M198 665q0 -20 -12 -31t-32 -11q-45 0 -45 42q0 20 12 31t33 11q20 0 32 -11.5t12 -30.5zM389 665q0 -20 -12 -31t-32 -11q-21 0 -33 11t-12 31q0 19 12.5 30.5t32.5 11.5t32 -11.5t12 -30.5z" />
    <glyph glyph-name="copyright" unicode="&#xa9;" horiz-adv-x="750" 
d="M701 313q0 -145 -90.5 -235t-236.5 -90q-156 0 -240.5 87t-84.5 224q0 149 93.5 237t233.5 88q151 0 238 -84t87 -227zM376 21q131 0 207 77t76 209q0 135 -78 209t-205 74q-125 0 -204.5 -77.5t-79.5 -212.5q0 -130 76 -204.5t208 -74.5zM484 248l41 -7
q-17 -126 -146 -126q-92 0 -136.5 53t-44.5 142q0 87 48 140.5t134 53.5q133 0 140 -126l-45 -6q-4 47 -26.5 70t-69.5 23q-58 0 -95 -38.5t-37 -118.5q0 -68 32.5 -110.5t96.5 -42.5q51 0 74 21.5t34 71.5z" />
    <glyph glyph-name="ordfeminine" unicode="&#xaa;" horiz-adv-x="364" 
d="M298 504v-168q0 -25 21 -25q8 0 20 3l3 -28q-16 -10 -40 -10q-23 0 -34.5 12t-11.5 30q-44 -44 -110 -44q-39 0 -62.5 16.5t-30 34.5t-6.5 37q0 110 163 110q10 0 23.5 -0.5t19.5 -0.5v38q0 34 -15.5 51.5t-57.5 17.5q-37 0 -54.5 -13.5t-22.5 -43.5l-41 7q12 86 122 86
q61 0 87.5 -25t26.5 -85zM254 354v81q-22 2 -41 2q-23 0 -39 -1.5t-36.5 -7.5t-31.5 -20.5t-11 -37.5q0 -59 63 -59q55 0 96 43z" />
    <glyph glyph-name="guillemotleft" unicode="&#xab;" horiz-adv-x="415" 
d="M214 103h-55l-88 158l89 147h54l-84 -146zM356 103h-55l-88 158l89 147h54l-84 -146z" />
    <glyph glyph-name="logicalnot" unicode="&#xac;" 
d="M471 207h-60v94h-310v51h370v-145z" />
    <glyph glyph-name="uni00AD" unicode="&#xad;" horiz-adv-x="311" 
d="M291 271h-271v51h271v-51z" />
    <glyph glyph-name="registered" unicode="&#xae;" horiz-adv-x="443" 
d="M403 482q0 -81 -50.5 -131t-131.5 -50q-87 0 -134 48.5t-47 125.5q0 82 52 131.5t130 49.5q84 0 132.5 -47.5t48.5 -126.5zM367 479q0 69 -40 106.5t-105 37.5q-63 0 -103.5 -39.5t-40.5 -107.5q0 -67 38.5 -104.5t105.5 -37.5q68 0 106.5 39t38.5 106zM257 472l51 -87
h-35l-46 77h-30v-77h-34v191h65q62 0 62 -54q0 -34 -33 -50zM197 488h13q46 0 46 34q0 16 -9.5 22t-29.5 6h-20v-62z" />
    <glyph glyph-name="macron" unicode="&#xaf;" horiz-adv-x="500" 
d="M388 645h-277v45h277v-45z" />
    <glyph glyph-name="degree" unicode="&#xb0;" horiz-adv-x="299" 
d="M152 576q58 0 58 66q0 64 -58 64q-60 0 -60 -68q0 -62 60 -62zM259 642q0 -51 -28.5 -79.5t-78.5 -28.5t-79.5 27.5t-29.5 76.5q0 53 30.5 81.5t78.5 28.5q49 0 78 -27t29 -79z" />
    <glyph glyph-name="plusminus" unicode="&#xb1;" 
d="M309 134h-48v165h-161v47h161v158h48v-158h161v-47h-161v-165zM470 0h-370v43h370v-43z" />
    <glyph glyph-name="twosuperior" unicode="&#xb2;" horiz-adv-x="372" 
d="M191 797q55 0 87 -27t32 -82q0 -33 -14.5 -66t-29.5 -53.5t-54 -69.5l-97 -106h202v-44h-257v40l107 126q38 46 53.5 66.5t28 48.5t12.5 57q0 68 -77 68q-43 0 -60 -19.5t-23 -57.5l-44 9q17 110 134 110z" />
    <glyph glyph-name="threesuperior" unicode="&#xb3;" horiz-adv-x="390" 
d="M49 447l46 9q8 -36 24.5 -54t58.5 -18q40 0 65.5 21.5t25.5 67.5q0 86 -100 86h-39v41h29q48 0 76 24.5t28 62.5q0 67 -75 67q-40 0 -57.5 -15.5t-26.5 -48.5l-44 9q19 98 133 98q57 0 87.5 -28.5t30.5 -75.5q0 -45 -26.5 -71.5t-61.5 -35.5v-1q96 -17 96 -114
q0 -58 -38.5 -93.5t-102.5 -35.5q-54 0 -88.5 27t-40.5 78z" />
    <glyph glyph-name="acute" unicode="&#xb4;" horiz-adv-x="500" 
d="M361 751l-143 -179l-42 14l113 165h72z" />
    <glyph glyph-name="mu" unicode="&#xb5;" horiz-adv-x="593" 
d="M505 -9q-29 0 -44 16.5t-16 55.5q-37 -25 -55.5 -36.5t-59.5 -25t-83 -13.5q-76 0 -103 40v-240h-47v720h49v-343q0 -74 28.5 -103t79.5 -29q97 0 188 79v396h49v-436q0 -23 6.5 -31.5t24.5 -8.5q15 0 31 5l4 -32q-24 -14 -52 -14z" />
    <glyph glyph-name="paragraph" unicode="&#xb6;" horiz-adv-x="535" 
d="M432 724v-857h-49v811h-104v-811h-49v386q-99 10 -156.5 70t-57.5 157q0 125 77 184.5t197 59.5h142z" />
    <glyph glyph-name="periodcentered" unicode="&#xb7;" horiz-adv-x="163" 
d="M133 300q0 -51 -52 -51t-52 51t52 51t52 -51z" />
    <glyph glyph-name="cedilla" unicode="&#xb8;" horiz-adv-x="500" 
d="M138 -193l15 34q24 -19 57 -19q25 0 38.5 14.5t13.5 35.5q0 54 -81 55l14 103l38 -7l-9 -66q84 -10 84 -83q0 -40 -27 -65.5t-68 -25.5q-49 0 -75 24z" />
    <glyph glyph-name="onesuperior" unicode="&#xb9;" horiz-adv-x="283" 
d="M193 347h-48v372q-14 -8 -46.5 -14t-51.5 -6l-3 37q83 6 123 51h26v-440z" />
    <glyph glyph-name="ordmasculine" unicode="&#xba;" horiz-adv-x="387" 
d="M192 274q-151 0 -151 170q0 80 41.5 125t118.5 45q74 0 109.5 -43.5t35.5 -118.5q0 -178 -154 -178zM196 314q102 0 102 134q0 69 -25 98t-75 29q-51 0 -80.5 -32t-29.5 -98q0 -131 108 -131z" />
    <glyph glyph-name="guillemotright" unicode="&#xbb;" horiz-adv-x="415" 
d="M61 408h54l88 -156l-89 -149h-55l88 148zM203 408h54l88 -156l-89 -149h-55l88 148z" />
    <glyph glyph-name="onequarter" unicode="&#xbc;" horiz-adv-x="829" 
d="M233 -12h-48l356 736h47zM211 279h-48v372q-14 -8 -46.5 -14t-51.5 -6l-3 37q83 6 123 51h26v-440zM696 0h-48v108h-210v38l197 294h61v-289h53v-43h-53v-108zM490 151h159v239z" />
    <glyph glyph-name="onehalf" unicode="&#xbd;" horiz-adv-x="829" 
d="M204 -12h-48l356 736h47zM213 279h-48v372q-14 -8 -46.5 -14t-51.5 -6l-3 37q83 6 123 51h26v-440zM622 448q55 0 87 -27t32 -82q0 -33 -14.5 -66t-29.5 -53.5t-54 -69.5l-97 -106h202v-44h-257v40l107 126q38 46 53.5 66.5t28 48.5t12.5 57q0 68 -77 68q-43 0 -60 -19.5
t-23 -57.5l-44 9q17 110 134 110z" />
    <glyph glyph-name="threequarters" unicode="&#xbe;" horiz-adv-x="829" 
d="M265 -12h-48l356 736h47zM718 0h-48v108h-210v38l197 294h61v-289h53v-43h-53v-108zM512 151h159v239zM44 379l46 9q8 -36 24.5 -54t58.5 -18q40 0 65.5 21.5t25.5 67.5q0 86 -100 86h-39v41h29q48 0 76 24.5t28 62.5q0 67 -75 67q-40 0 -57.5 -15.5t-26.5 -48.5l-44 9
q19 98 133 98q57 0 87.5 -28.5t30.5 -75.5q0 -45 -26.5 -71.5t-61.5 -35.5v-1q96 -17 96 -114q0 -58 -38.5 -93.5t-102.5 -35.5q-54 0 -88.5 27t-40.5 78z" />
    <glyph glyph-name="questiondown" unicode="&#xbf;" horiz-adv-x="440" 
d="M268 329h44v-175q-102 -10 -160.5 -49t-58.5 -130q0 -84 39 -116.5t108 -32.5q62 0 101.5 26.5t57.5 97.5l43 -9q-36 -155 -204 -155q-193 0 -193 181q0 185 223 221v141zM240 468q0 51 51 51q52 0 52 -51q0 -50 -52 -50q-51 0 -51 50z" />
    <glyph glyph-name="Agrave" unicode="&#xc0;" horiz-adv-x="637" 
d="M283 724h70l249 -724h-54l-84 248h-295l-84 -248h-50zM450 290l-134 403l-133 -403h267zM349 767l-135 144h73l105 -130z" />
    <glyph glyph-name="Aacute" unicode="&#xc1;" horiz-adv-x="637" 
d="M283 724h70l249 -724h-54l-84 248h-295l-84 -248h-50zM450 290l-134 403l-133 -403h267zM426 911l-135 -144l-42 14l104 130h73z" />
    <glyph glyph-name="Acircumflex" unicode="&#xc2;" horiz-adv-x="637" 
d="M283 724h70l249 -724h-54l-84 248h-295l-84 -248h-50zM450 290l-134 403l-133 -403h267zM411 769l-94 83l-90 -85l-48 11l123 116h36l123 -116z" />
    <glyph glyph-name="Atilde" unicode="&#xc3;" horiz-adv-x="637" 
d="M283 724h70l249 -724h-54l-84 248h-295l-84 -248h-50zM450 290l-134 403l-133 -403h267zM240 877q32 0 82 -22.5t71 -22.5q22 0 32.5 11t10.5 47l38 -2q7 -56 -16 -79t-61 -23q-30 0 -81.5 23t-74.5 23q-40 0 -39 -60l-36 2q-7 55 16 79t58 24z" />
    <glyph glyph-name="Adieresis" unicode="&#xc4;" horiz-adv-x="637" 
d="M283 724h70l249 -724h-54l-84 248h-295l-84 -248h-50zM450 290l-134 403l-133 -403h267zM267 826q0 -20 -12 -31t-32 -11q-45 0 -45 42q0 20 12 31t33 11q20 0 32 -11.5t12 -30.5zM458 826q0 -20 -12 -31t-32 -11q-21 0 -33 11t-12 31q0 19 12.5 30.5t32.5 11.5t32 -11.5
t12 -30.5z" />
    <glyph glyph-name="Aring" unicode="&#xc5;" horiz-adv-x="637" 
d="M420 810q0 -74 -65 -93l247 -717h-54l-84 248h-295l-84 -248h-50l245 717q-63 18 -63 87q0 48 29 73.5t72 25.5q45 0 73.5 -23t28.5 -70zM450 290l-134 403l-133 -403h267zM318 750q55 0 55 60q0 55 -55 55q-26 0 -41.5 -15.5t-15.5 -43.5q0 -56 57 -56z" />
    <glyph glyph-name="AE" unicode="&#xc6;" horiz-adv-x="998" 
d="M577 339v-297h358v-42h-407v339h-236l-197 -339h-53l422 724h463v-42h-350v-300h327v-43h-327zM528 381v301h-40l-170 -301h210z" />
    <glyph glyph-name="Ccedilla" unicode="&#xc7;" horiz-adv-x="716" 
d="M296 -199l15 34q24 -19 57 -19q25 0 38.5 14.5t13.5 35.5q0 54 -81 55l9 68q-142 9 -210 105t-68 254q0 187 90 288t238 101q112 0 180 -58t78 -172l-46 -4q-14 96 -64 144.5t-149 48.5q-128 0 -202.5 -88.5t-74.5 -251.5q0 -327 262 -327q95 0 149 39.5t76 130.5l42 -10
q-39 -197 -262 -201l-5 -37q84 -10 84 -83q0 -40 -27 -65.5t-68 -25.5q-49 0 -75 24z" />
    <glyph glyph-name="Egrave" unicode="&#xc8;" 
d="M160 347v-305h358v-42h-406v724h398v-42h-350v-292h327v-43h-327zM344 767l-135 144h73l105 -130z" />
    <glyph glyph-name="Eacute" unicode="&#xc9;" 
d="M160 347v-305h358v-42h-406v724h398v-42h-350v-292h327v-43h-327zM421 911l-135 -144l-42 14l104 130h73z" />
    <glyph glyph-name="Ecircumflex" unicode="&#xca;" 
d="M160 347v-305h358v-42h-406v724h398v-42h-350v-292h327v-43h-327zM406 769l-94 83l-90 -85l-48 11l123 116h36l123 -116z" />
    <glyph glyph-name="Edieresis" unicode="&#xcb;" 
d="M160 347v-305h358v-42h-406v724h398v-42h-350v-292h327v-43h-327zM262 826q0 -20 -12 -31t-32 -11q-45 0 -45 42q0 20 12 31t33 11q20 0 32 -11.5t12 -30.5zM453 826q0 -20 -12 -31t-32 -11q-21 0 -33 11t-12 31q0 19 12.5 30.5t32.5 11.5t32 -11.5t12 -30.5z" />
    <glyph glyph-name="Igrave" unicode="&#xcc;" horiz-adv-x="272" 
d="M160 724v-724h-48v724h48zM167 767l-135 144h73l105 -130z" />
    <glyph glyph-name="Iacute" unicode="&#xcd;" horiz-adv-x="272" 
d="M160 724v-724h-48v724h48zM244 911l-135 -144l-42 14l104 130h73z" />
    <glyph glyph-name="Icircumflex" unicode="&#xce;" horiz-adv-x="272" 
d="M160 724v-724h-48v724h48zM229 769l-94 83l-90 -85l-48 11l123 116h36l123 -116z" />
    <glyph glyph-name="Idieresis" unicode="&#xcf;" horiz-adv-x="272" 
d="M160 724v-724h-48v724h48zM85 826q0 -20 -12 -31t-32 -11q-45 0 -45 42q0 20 12 31t33 11q20 0 32 -11.5t12 -30.5zM276 826q0 -20 -12 -31t-32 -11q-21 0 -33 11t-12 31q0 19 12.5 30.5t32.5 11.5t32 -11.5t12 -30.5z" />
    <glyph glyph-name="Eth" unicode="&#xd0;" horiz-adv-x="741" 
d="M17 349v42h95v333h200q183 0 271 -91.5t88 -259.5q0 -173 -94 -273t-282 -100h-183v349h-95zM160 41h143q153 0 235 84t82 243q0 173 -79.5 244t-232.5 71h-148v-292h261v-42h-261v-308z" />
    <glyph glyph-name="Ntilde" unicode="&#xd1;" horiz-adv-x="745" 
d="M633 0h-65l-409 683v-683h-47v724h77l398 -671v671h46v-724zM301 877q33 0 83 -22.5t70 -22.5q22 0 32.5 11t10.5 47l38 -2q7 -56 -16 -79t-61 -23q-30 0 -81.5 23t-74.5 23q-40 0 -39 -60l-36 2q-7 55 16 79t58 24z" />
    <glyph glyph-name="Ograve" unicode="&#xd2;" horiz-adv-x="781" 
d="M386 -12q-154 0 -235 103t-81 273q0 166 87.5 269.5t242.5 103.5q150 0 230.5 -100t80.5 -258q0 -180 -84.5 -285.5t-240.5 -105.5zM390 29q122 0 196.5 88.5t74.5 251.5q0 154 -72 240.5t-191 86.5q-121 0 -199 -88.5t-78 -244.5t74 -245t195 -89zM427 767l-135 144h73
l105 -130z" />
    <glyph glyph-name="Oacute" unicode="&#xd3;" horiz-adv-x="781" 
d="M386 -12q-154 0 -235 103t-81 273q0 166 87.5 269.5t242.5 103.5q150 0 230.5 -100t80.5 -258q0 -180 -84.5 -285.5t-240.5 -105.5zM390 29q122 0 196.5 88.5t74.5 251.5q0 154 -72 240.5t-191 86.5q-121 0 -199 -88.5t-78 -244.5t74 -245t195 -89zM504 911l-135 -144
l-42 14l104 130h73z" />
    <glyph glyph-name="Ocircumflex" unicode="&#xd4;" horiz-adv-x="781" 
d="M386 -12q-154 0 -235 103t-81 273q0 166 87.5 269.5t242.5 103.5q150 0 230.5 -100t80.5 -258q0 -180 -84.5 -285.5t-240.5 -105.5zM390 29q122 0 196.5 88.5t74.5 251.5q0 154 -72 240.5t-191 86.5q-121 0 -199 -88.5t-78 -244.5t74 -245t195 -89zM489 769l-94 83
l-90 -85l-48 11l123 116h36l123 -116z" />
    <glyph glyph-name="Otilde" unicode="&#xd5;" horiz-adv-x="781" 
d="M386 -12q-154 0 -235 103t-81 273q0 166 87.5 269.5t242.5 103.5q150 0 230.5 -100t80.5 -258q0 -180 -84.5 -285.5t-240.5 -105.5zM390 29q122 0 196.5 88.5t74.5 251.5q0 154 -72 240.5t-191 86.5q-121 0 -199 -88.5t-78 -244.5t74 -245t195 -89zM318 877
q32 0 82 -22.5t71 -22.5q22 0 32.5 11t10.5 47l38 -2q7 -56 -16 -79t-61 -23q-30 0 -81.5 23t-74.5 23q-40 0 -39 -60l-36 2q-7 55 16 79t58 24z" />
    <glyph glyph-name="Odieresis" unicode="&#xd6;" horiz-adv-x="781" 
d="M386 -12q-154 0 -235 103t-81 273q0 166 87.5 269.5t242.5 103.5q150 0 230.5 -100t80.5 -258q0 -180 -84.5 -285.5t-240.5 -105.5zM390 29q122 0 196.5 88.5t74.5 251.5q0 154 -72 240.5t-191 86.5q-121 0 -199 -88.5t-78 -244.5t74 -245t195 -89zM345 826
q0 -20 -12 -31t-32 -11q-45 0 -45 42q0 20 12 31t33 11q20 0 32 -11.5t12 -30.5zM536 826q0 -20 -12 -31t-32 -11q-21 0 -33 11t-12 31q0 19 12.5 30.5t32.5 11.5t32 -11.5t12 -30.5z" />
    <glyph glyph-name="multiply" unicode="&#xd7;" 
d="M433 205l-34 -34l-117 117l-114 -114l-33 33l114 114l-112 112l34 34l112 -112l114 114l33 -33l-114 -114z" />
    <glyph glyph-name="Oslash" unicode="&#xd8;" horiz-adv-x="781" 
d="M386 -12q-63 0 -118 19l-32 -77h-53l41 98q-76 44 -115 131.5t-39 204.5q0 166 87.5 269.5t242.5 103.5q61 0 113 -19l32 76h51l-40 -95q76 -43 115.5 -127t39.5 -193q0 -180 -84.5 -285.5t-240.5 -105.5zM390 29q122 0 196.5 88.5t74.5 251.5q0 203 -123 286l-252 -606
q48 -20 104 -20zM121 363q0 -205 122 -290l253 605q-45 18 -98 18q-121 0 -199 -88.5t-78 -244.5z" />
    <glyph glyph-name="Ugrave" unicode="&#xd9;" horiz-adv-x="718" 
d="M360 32q100 0 151 45t51 153v494h48v-496q0 -119 -65 -179.5t-191 -60.5q-128 0 -187 61t-59 179v496h48v-492q0 -108 53 -154t151 -46zM390 767l-135 144h73l105 -130z" />
    <glyph glyph-name="Uacute" unicode="&#xda;" horiz-adv-x="718" 
d="M360 32q100 0 151 45t51 153v494h48v-496q0 -119 -65 -179.5t-191 -60.5q-128 0 -187 61t-59 179v496h48v-492q0 -108 53 -154t151 -46zM467 911l-135 -144l-42 14l104 130h73z" />
    <glyph glyph-name="Ucircumflex" unicode="&#xdb;" horiz-adv-x="718" 
d="M360 32q100 0 151 45t51 153v494h48v-496q0 -119 -65 -179.5t-191 -60.5q-128 0 -187 61t-59 179v496h48v-492q0 -108 53 -154t151 -46zM452 769l-94 83l-90 -85l-48 11l123 116h36l123 -116z" />
    <glyph glyph-name="Udieresis" unicode="&#xdc;" horiz-adv-x="718" 
d="M360 32q100 0 151 45t51 153v494h48v-496q0 -119 -65 -179.5t-191 -60.5q-128 0 -187 61t-59 179v496h48v-492q0 -108 53 -154t151 -46zM308 826q0 -20 -12 -31t-32 -11q-45 0 -45 42q0 20 12 31t33 11q20 0 32 -11.5t12 -30.5zM499 826q0 -20 -12 -31t-32 -11
q-21 0 -33 11t-12 31q0 19 12.5 30.5t32.5 11.5t32 -11.5t12 -30.5z" />
    <glyph glyph-name="Yacute" unicode="&#xdd;" horiz-adv-x="538" 
d="M297 291v-291h-48v287l-245 437h54l216 -384h1l210 384h49zM381 911l-135 -144l-42 14l104 130h73z" />
    <glyph glyph-name="Thorn" unicode="&#xde;" horiz-adv-x="612" 
d="M159 165v-165h-47v724h46v-131h163q129 0 185 -57.5t56 -147.5q0 -118 -70.5 -170.5t-201.5 -52.5h-131zM159 208h132q51 0 87 6.5t68.5 25t48.5 56t16 93.5q0 163 -204 163h-148v-344z" />
    <glyph glyph-name="germandbls" unicode="&#xdf;" horiz-adv-x="660" 
d="M142 0h-49v537q0 230 221 230q105 0 157 -45t52 -129q0 -64 -32.5 -107t-86.5 -62v-3q94 -15 145 -64.5t51 -146.5q0 -104 -51.5 -162.5t-141.5 -58.5q-83 0 -128.5 37t-58.5 118l49 10q21 -120 136 -120q68 0 105.5 43.5t37.5 121.5q0 190 -219 190h-43v46h14
q89 0 130.5 44t41.5 105q0 137 -158 137q-86 0 -129 -42.5t-43 -154.5v-524z" />
    <glyph glyph-name="agrave" unicode="&#xe0;" horiz-adv-x="536" 
d="M440 348v-276q0 -23 6 -32.5t25 -9.5q11 0 31 6l4 -32q-24 -12 -54 -12q-31 0 -45.5 19t-12.5 45q-68 -68 -172 -68q-37 0 -65.5 10t-44 24.5t-25 34.5t-12.5 36t-3 33q0 170 249 170q25 0 69 -2v45q0 77 -25.5 107.5t-95.5 30.5q-62 0 -91 -23t-38 -72l-47 8
q12 68 56.5 98t123.5 30q90 0 128.5 -38t38.5 -132zM391 102v150q-35 3 -78 3q-88 0 -138.5 -26.5t-50.5 -97.5q0 -101 105 -101q47 0 91 20t71 52zM310 572l-144 179h72l113 -165z" />
    <glyph glyph-name="aacute" unicode="&#xe1;" horiz-adv-x="536" 
d="M440 348v-276q0 -23 6 -32.5t25 -9.5q11 0 31 6l4 -32q-24 -12 -54 -12q-31 0 -45.5 19t-12.5 45q-68 -68 -172 -68q-37 0 -65.5 10t-44 24.5t-25 34.5t-12.5 36t-3 33q0 170 249 170q25 0 69 -2v45q0 77 -25.5 107.5t-95.5 30.5q-62 0 -91 -23t-38 -72l-47 8
q12 68 56.5 98t123.5 30q90 0 128.5 -38t38.5 -132zM391 102v150q-35 3 -78 3q-88 0 -138.5 -26.5t-50.5 -97.5q0 -101 105 -101q47 0 91 20t71 52zM383 751l-143 -179l-42 14l113 165h72z" />
    <glyph glyph-name="acircumflex" unicode="&#xe2;" horiz-adv-x="536" 
d="M440 348v-276q0 -23 6 -32.5t25 -9.5q11 0 31 6l4 -32q-24 -12 -54 -12q-31 0 -45.5 19t-12.5 45q-68 -68 -172 -68q-37 0 -65.5 10t-44 24.5t-25 34.5t-12.5 36t-3 33q0 170 249 170q25 0 69 -2v45q0 77 -25.5 107.5t-95.5 30.5q-62 0 -91 -23t-38 -72l-47 8
q12 68 56.5 98t123.5 30q90 0 128.5 -38t38.5 -132zM391 102v150q-35 3 -78 3q-88 0 -138.5 -26.5t-50.5 -97.5q0 -101 105 -101q47 0 91 20t71 52zM419 585l-47 -6l-101 129l-95 -132l-45 9l116 165h50z" />
    <glyph glyph-name="atilde" unicode="&#xe3;" horiz-adv-x="536" 
d="M440 348v-276q0 -23 6 -32.5t25 -9.5q11 0 31 6l4 -32q-24 -12 -54 -12q-31 0 -45.5 19t-12.5 45q-68 -68 -172 -68q-37 0 -65.5 10t-44 24.5t-25 34.5t-12.5 36t-3 33q0 170 249 170q25 0 69 -2v45q0 77 -25.5 107.5t-95.5 30.5q-62 0 -91 -23t-38 -72l-47 8
q12 68 56.5 98t123.5 30q90 0 128.5 -38t38.5 -132zM391 102v150q-35 3 -78 3q-88 0 -138.5 -26.5t-50.5 -97.5q0 -101 105 -101q47 0 91 20t71 52zM191 699q33 0 83 -22.5t70 -22.5q22 0 32.5 11t10.5 47l38 -2q7 -56 -16 -79t-61 -23q-30 0 -81.5 23t-74.5 23
q-40 0 -39 -60l-36 2q-7 55 16 79t58 24z" />
    <glyph glyph-name="adieresis" unicode="&#xe4;" horiz-adv-x="536" 
d="M440 348v-276q0 -23 6 -32.5t25 -9.5q11 0 31 6l4 -32q-24 -12 -54 -12q-31 0 -45.5 19t-12.5 45q-68 -68 -172 -68q-37 0 -65.5 10t-44 24.5t-25 34.5t-12.5 36t-3 33q0 170 249 170q25 0 69 -2v45q0 77 -25.5 107.5t-95.5 30.5q-62 0 -91 -23t-38 -72l-47 8
q12 68 56.5 98t123.5 30q90 0 128.5 -38t38.5 -132zM391 102v150q-35 3 -78 3q-88 0 -138.5 -26.5t-50.5 -97.5q0 -101 105 -101q47 0 91 20t71 52zM220 665q0 -20 -12 -31t-32 -11q-45 0 -45 42q0 20 12 31t33 11q20 0 32 -11.5t12 -30.5zM411 665q0 -20 -12 -31t-32 -11
q-21 0 -33 11t-12 31q0 19 12.5 30.5t32.5 11.5t32 -11.5t12 -30.5z" />
    <glyph glyph-name="aring" unicode="&#xe5;" horiz-adv-x="536" 
d="M440 348v-276q0 -23 6 -32.5t25 -9.5q11 0 31 6l4 -32q-24 -12 -54 -12q-31 0 -45.5 19t-12.5 45q-68 -68 -172 -68q-37 0 -65.5 10t-44 24.5t-25 34.5t-12.5 36t-3 33q0 170 249 170q25 0 69 -2v45q0 77 -25.5 107.5t-95.5 30.5q-62 0 -91 -23t-38 -72l-47 8
q12 68 56.5 98t123.5 30q90 0 128.5 -38t38.5 -132zM391 102v150q-35 3 -78 3q-88 0 -138.5 -26.5t-50.5 -97.5q0 -101 105 -101q47 0 91 20t71 52zM374 674q0 -46 -27.5 -72t-74.5 -26q-46 0 -73.5 25t-27.5 67q0 48 29 73.5t72 25.5q45 0 73.5 -23t28.5 -70zM272 614
q55 0 55 60q0 55 -55 55q-26 0 -41.5 -15.5t-15.5 -43.5q0 -56 57 -56z" />
    <glyph glyph-name="ae" unicode="&#xe6;" horiz-adv-x="873" 
d="M612 -12q-125 0 -178 82q-89 -82 -213 -82q-46 0 -77.5 14t-46 37.5t-20 44t-5.5 42.5q0 171 246 171q26 0 72 -2v71q0 54 -28 82.5t-94 28.5q-60 0 -89.5 -23.5t-38.5 -71.5l-47 9q12 68 56.5 97.5t125.5 29.5q127 0 155 -99q64 99 187 99q99 0 146.5 -57.5t47.5 -151.5
q0 -28 -5 -65h-367q3 -117 49.5 -163t127.5 -46q62 0 94.5 25.5t45.5 79.5l47 -10q-16 -73 -68 -107.5t-123 -34.5zM230 31q107 0 182 80q-20 58 -22 141q-42 2 -73 2t-55 -2t-51.5 -9.5t-45 -20t-29.5 -35.5t-12 -54q0 -47 23 -74.5t83 -27.5zM440 290h320v7
q0 176 -145 176q-71 0 -121 -46t-54 -137z" />
    <glyph glyph-name="ccedilla" unicode="&#xe7;" horiz-adv-x="530" 
d="M200 -193l15 34q24 -19 57 -19q25 0 38.5 14.5t13.5 35.5q0 54 -81 55l8 63q-191 19 -191 262q0 132 61.5 199t174.5 67q76 0 126 -43t54 -122l-53 -6q-13 128 -133 128q-75 0 -127 -50.5t-52 -165.5q0 -124 49 -174.5t124 -50.5q126 0 146 116l50 -10
q-13 -75 -66 -112.5t-124 -39.5l-4 -31q84 -10 84 -83q0 -40 -27 -65.5t-68 -25.5q-49 0 -75 24z" />
    <glyph glyph-name="egrave" unicode="&#xe8;" horiz-adv-x="543" 
d="M284 -12q-224 0 -224 266q0 132 66.5 198t166.5 66q96 0 143 -57.5t47 -150.5q0 -37 -5 -66h-366q3 -117 49 -163t127 -46q113 0 140 105l47 -9q-18 -73 -69 -108t-122 -35zM112 287h320q5 186 -145 186q-70 0 -119.5 -45.5t-55.5 -140.5zM324 572l-144 179h72l113 -165z
" />
    <glyph glyph-name="eacute" unicode="&#xe9;" horiz-adv-x="543" 
d="M284 -12q-224 0 -224 266q0 132 66.5 198t166.5 66q96 0 143 -57.5t47 -150.5q0 -37 -5 -66h-366q3 -117 49 -163t127 -46q113 0 140 105l47 -9q-18 -73 -69 -108t-122 -35zM112 287h320q5 186 -145 186q-70 0 -119.5 -45.5t-55.5 -140.5zM397 751l-143 -179l-42 14
l113 165h72z" />
    <glyph glyph-name="ecircumflex" unicode="&#xea;" horiz-adv-x="543" 
d="M284 -12q-224 0 -224 266q0 132 66.5 198t166.5 66q96 0 143 -57.5t47 -150.5q0 -37 -5 -66h-366q3 -117 49 -163t127 -46q113 0 140 105l47 -9q-18 -73 -69 -108t-122 -35zM112 287h320q5 186 -145 186q-70 0 -119.5 -45.5t-55.5 -140.5zM433 585l-47 -6l-101 129
l-95 -132l-45 9l116 165h50z" />
    <glyph glyph-name="edieresis" unicode="&#xeb;" horiz-adv-x="543" 
d="M284 -12q-224 0 -224 266q0 132 66.5 198t166.5 66q96 0 143 -57.5t47 -150.5q0 -37 -5 -66h-366q3 -117 49 -163t127 -46q113 0 140 105l47 -9q-18 -73 -69 -108t-122 -35zM112 287h320q5 186 -145 186q-70 0 -119.5 -45.5t-55.5 -140.5zM234 665q0 -20 -12 -31t-32 -11
q-45 0 -45 42q0 20 12 31t33 11q20 0 32 -11.5t12 -30.5zM425 665q0 -20 -12 -31t-32 -11q-21 0 -33 11t-12 31q0 19 12.5 30.5t32.5 11.5t32 -11.5t12 -30.5z" />
    <glyph glyph-name="igrave" unicode="&#xec;" horiz-adv-x="236" 
d="M145 508v-508h-49v508h49zM158 572l-144 179h72l113 -165z" />
    <glyph glyph-name="iacute" unicode="&#xed;" horiz-adv-x="236" 
d="M145 508v-508h-49v508h49zM231 751l-143 -179l-42 14l113 165h72z" />
    <glyph glyph-name="icircumflex" unicode="&#xee;" horiz-adv-x="236" 
d="M145 508v-508h-49v508h49zM267 585l-47 -6l-101 129l-95 -132l-45 9l116 165h50z" />
    <glyph glyph-name="idieresis" unicode="&#xef;" horiz-adv-x="236" 
d="M145 508v-508h-49v508h49zM68 665q0 -20 -12 -31t-32 -11q-45 0 -45 42q0 20 12 31t33 11q20 0 32 -11.5t12 -30.5zM259 665q0 -20 -12 -31t-32 -11q-21 0 -33 11t-12 31q0 19 12.5 30.5t32.5 11.5t32 -11.5t12 -30.5z" />
    <glyph glyph-name="eth" unicode="&#xf0;" horiz-adv-x="568" 
d="M227 586l-20 35l100 56q-64 43 -158 56q3 7 9 19t8 17q110 -13 186 -69l101 55l22 -35l-90 -49q123 -132 123 -355q0 -60 -9.5 -111.5t-32.5 -103.5t-71 -82.5t-117 -30.5q-228 0 -228 265q0 107 61 177.5t170 70.5q91 0 163 -56q-29 129 -104 203zM105 252
q0 -218 172 -218q178 0 178 277q0 35 -3 69q-22 30 -69.5 52t-96.5 22q-89 0 -135 -54t-46 -148z" />
    <glyph glyph-name="ntilde" unicode="&#xf1;" horiz-adv-x="578" 
d="M490 342v-342h-49v340q0 66 -25.5 99.5t-87.5 33.5q-50 0 -103 -25.5t-83 -53.5v-394h-49v508h43l3 -66q107 76 198 76q153 0 153 -176zM212 699q32 0 82 -22.5t71 -22.5q22 0 32.5 11t10.5 47l38 -2q7 -56 -16 -79t-61 -23q-30 0 -81.5 23t-74.5 23q-40 0 -39 -60l-36 2
q-7 55 16 79t58 24z" />
    <glyph glyph-name="ograve" unicode="&#xf2;" horiz-adv-x="572" 
d="M284 -12q-224 0 -224 264q0 125 62 195.5t175 70.5q109 0 162 -67t53 -186q0 -277 -228 -277zM288 33q172 0 172 226q0 115 -42 164.5t-125 49.5q-85 0 -134.5 -54.5t-49.5 -162.5q0 -223 179 -223zM332 572l-144 179h72l113 -165z" />
    <glyph glyph-name="oacute" unicode="&#xf3;" horiz-adv-x="572" 
d="M284 -12q-224 0 -224 264q0 125 62 195.5t175 70.5q109 0 162 -67t53 -186q0 -277 -228 -277zM288 33q172 0 172 226q0 115 -42 164.5t-125 49.5q-85 0 -134.5 -54.5t-49.5 -162.5q0 -223 179 -223zM405 751l-143 -179l-42 14l113 165h72z" />
    <glyph glyph-name="ocircumflex" unicode="&#xf4;" horiz-adv-x="572" 
d="M284 -12q-224 0 -224 264q0 125 62 195.5t175 70.5q109 0 162 -67t53 -186q0 -277 -228 -277zM288 33q172 0 172 226q0 115 -42 164.5t-125 49.5q-85 0 -134.5 -54.5t-49.5 -162.5q0 -223 179 -223zM441 585l-47 -6l-101 129l-95 -132l-45 9l116 165h50z" />
    <glyph glyph-name="otilde" unicode="&#xf5;" horiz-adv-x="572" 
d="M284 -12q-224 0 -224 264q0 125 62 195.5t175 70.5q109 0 162 -67t53 -186q0 -277 -228 -277zM288 33q172 0 172 226q0 115 -42 164.5t-125 49.5q-85 0 -134.5 -54.5t-49.5 -162.5q0 -223 179 -223zM213 699q32 0 82.5 -22.5t70.5 -22.5q22 0 32.5 11t10.5 47l38 -2
q7 -56 -16 -79t-61 -23q-30 0 -81.5 23t-74.5 23q-40 0 -39 -60l-36 2q-7 55 16 79t58 24z" />
    <glyph glyph-name="odieresis" unicode="&#xf6;" horiz-adv-x="572" 
d="M284 -12q-224 0 -224 264q0 125 62 195.5t175 70.5q109 0 162 -67t53 -186q0 -277 -228 -277zM288 33q172 0 172 226q0 115 -42 164.5t-125 49.5q-85 0 -134.5 -54.5t-49.5 -162.5q0 -223 179 -223zM242 665q0 -20 -12 -31t-32 -11q-45 0 -45 42q0 20 12 31t33 11
q20 0 32 -11.5t12 -30.5zM433 665q0 -20 -12 -31t-32 -11q-21 0 -33 11t-12 31q0 19 12.5 30.5t32.5 11.5t32 -11.5t12 -30.5z" />
    <glyph glyph-name="divide" unicode="&#xf7;" 
d="M331 175q0 -52 -54 -52q-53 0 -53 52q0 53 53 53q54 0 54 -53zM470 295h-370v52h370v-52zM331 469q0 -52 -54 -52q-53 0 -53 52q0 53 53 53q54 0 54 -53z" />
    <glyph glyph-name="oslash" unicode="&#xf8;" horiz-adv-x="572" 
d="M284 -12q-45 0 -86 12l-32 -72h-50l40 91q-96 60 -96 233q0 125 62 195.5t175 70.5q43 0 76 -10l34 77h50l-43 -96q98 -58 98 -224q0 -277 -228 -277zM288 33q172 0 172 226q0 140 -65 186l-178 -401q29 -11 71 -11zM109 256q0 -137 68 -190l177 399q-30 8 -61 8
q-85 0 -134.5 -54.5t-49.5 -162.5z" />
    <glyph glyph-name="ugrave" unicode="&#xf9;" horiz-adv-x="581" 
d="M90 167v341h49v-340q0 -67 25 -100t86 -33q50 0 102.5 25.5t82.5 53.5v394h49v-508h-43l-3 65q-103 -75 -197 -75q-80 0 -115.5 44t-35.5 133zM325 572l-144 179h72l113 -165z" />
    <glyph glyph-name="uacute" unicode="&#xfa;" horiz-adv-x="581" 
d="M90 167v341h49v-340q0 -67 25 -100t86 -33q50 0 102.5 25.5t82.5 53.5v394h49v-508h-43l-3 65q-103 -75 -197 -75q-80 0 -115.5 44t-35.5 133zM398 751l-143 -179l-42 14l113 165h72z" />
    <glyph glyph-name="ucircumflex" unicode="&#xfb;" horiz-adv-x="581" 
d="M90 167v341h49v-340q0 -67 25 -100t86 -33q50 0 102.5 25.5t82.5 53.5v394h49v-508h-43l-3 65q-103 -75 -197 -75q-80 0 -115.5 44t-35.5 133zM434 585l-47 -6l-101 129l-95 -132l-45 9l116 165h50z" />
    <glyph glyph-name="udieresis" unicode="&#xfc;" horiz-adv-x="581" 
d="M90 167v341h49v-340q0 -67 25 -100t86 -33q50 0 102.5 25.5t82.5 53.5v394h49v-508h-43l-3 65q-103 -75 -197 -75q-80 0 -115.5 44t-35.5 133zM235 665q0 -20 -12 -31t-32 -11q-45 0 -45 42q0 20 12 31t33 11q20 0 32 -11.5t12 -30.5zM426 665q0 -20 -12 -31t-32 -11
q-21 0 -33 11t-12 31q0 19 12.5 30.5t32.5 11.5t32 -11.5t12 -30.5z" />
    <glyph glyph-name="yacute" unicode="&#xfd;" horiz-adv-x="457" 
d="M201 0l-184 508h52l159 -441h1l163 441h52l-232 -603q-28 -71 -64 -99.5t-87 -28.5q-41 0 -87 18l10 41q34 -16 80 -16q34 0 60 22t48 81zM346 751l-143 -179l-42 14l113 165h72z" />
    <glyph glyph-name="thorn" unicode="&#xfe;" horiz-adv-x="580" 
d="M95 -212v967h48v-312q85 75 187 75q185 0 185 -251q0 -140 -60 -209.5t-154 -69.5q-78 0 -159 56v-256h-47zM144 395v-302q78 -61 157 -61q163 0 163 240q0 109 -34 156t-109 47q-49 0 -98 -24.5t-79 -55.5z" />
    <glyph glyph-name="ydieresis" unicode="&#xff;" horiz-adv-x="457" 
d="M201 0l-184 508h52l159 -441h1l163 441h52l-232 -603q-28 -71 -64 -99.5t-87 -28.5q-41 0 -87 18l10 41q34 -16 80 -16q34 0 60 22t48 81zM183 665q0 -20 -12 -31t-32 -11q-45 0 -45 42q0 20 12 31t33 11q20 0 32 -11.5t12 -30.5zM374 665q0 -20 -12 -31t-32 -11
q-21 0 -33 11t-12 31q0 19 12.5 30.5t32.5 11.5t32 -11.5t12 -30.5z" />
    <glyph glyph-name="Amacron" unicode="&#x100;" horiz-adv-x="637" 
d="M283 724h70l249 -724h-54l-84 248h-295l-84 -248h-50zM450 290l-134 403l-133 -403h267zM468 800h-300v45h300v-45z" />
    <glyph glyph-name="amacron" unicode="&#x101;" horiz-adv-x="536" 
d="M440 348v-276q0 -23 6 -32.5t25 -9.5q11 0 31 6l4 -32q-24 -12 -54 -12q-31 0 -45.5 19t-12.5 45q-68 -68 -172 -68q-37 0 -65.5 10t-44 24.5t-25 34.5t-12.5 36t-3 33q0 170 249 170q25 0 69 -2v45q0 77 -25.5 107.5t-95.5 30.5q-62 0 -91 -23t-38 -72l-47 8
q12 68 56.5 98t123.5 30q90 0 128.5 -38t38.5 -132zM391 102v150q-35 3 -78 3q-88 0 -138.5 -26.5t-50.5 -97.5q0 -101 105 -101q47 0 91 20t71 52zM410 645h-277v45h277v-45z" />
    <glyph glyph-name="Abreve" unicode="&#x102;" horiz-adv-x="637" 
d="M283 724h70l249 -724h-54l-84 248h-295l-84 -248h-50zM450 290l-134 403l-133 -403h267zM319 827q79 0 92 76l45 -4q-7 -52 -41.5 -83t-96.5 -31q-114 0 -127 113l44 5q7 -42 27 -59t57 -17z" />
    <glyph glyph-name="abreve" unicode="&#x103;" horiz-adv-x="536" 
d="M440 348v-276q0 -23 6 -32.5t25 -9.5q11 0 31 6l4 -32q-24 -12 -54 -12q-31 0 -45.5 19t-12.5 45q-68 -68 -172 -68q-37 0 -65.5 10t-44 24.5t-25 34.5t-12.5 36t-3 33q0 170 249 170q25 0 69 -2v45q0 77 -25.5 107.5t-95.5 30.5q-62 0 -91 -23t-38 -72l-47 8
q12 68 56.5 98t123.5 30q90 0 128.5 -38t38.5 -132zM391 102v150q-35 3 -78 3q-88 0 -138.5 -26.5t-50.5 -97.5q0 -101 105 -101q47 0 91 20t71 52zM367 728l43 -4q2 -69 -33.5 -109.5t-105.5 -40.5q-131 0 -133 148l44 6q4 -64 24.5 -88t65.5 -24q47 0 70.5 24.5t24.5 87.5
z" />
    <glyph glyph-name="Aogonek" unicode="&#x104;" horiz-adv-x="637" 
d="M605 -140l36 -20q-15 -31 -44 -47t-59 -16q-38 0 -63 21t-25 59q0 32 17.5 63t34.5 48t44 38l-82 242h-295l-84 -248h-50l248 724h70l249 -724q-51 -40 -74.5 -69t-23.5 -67q0 -19 11 -31t31 -12q36 0 59 39zM450 290l-134 403l-133 -403h267z" />
    <glyph glyph-name="aogonek" unicode="&#x105;" horiz-adv-x="536" 
d="M495 -140l36 -20q-15 -31 -44 -47t-59 -16q-38 0 -63 21t-25 59q0 69 86 140q-36 13 -32 59q-68 -68 -172 -68q-37 0 -65.5 10t-44 24.5t-25 34.5t-12.5 36t-3 33q0 170 249 170q25 0 69 -2v45q0 77 -25.5 107.5t-95.5 30.5q-62 0 -91 -23t-38 -72l-47 8q12 68 56.5 98
t123.5 30q90 0 128.5 -38t38.5 -132v-276q0 -23 6 -32.5t25 -9.5q11 0 31 6l4 -32q-44 -19 -78 -59t-34 -81q0 -20 11 -31.5t31 -11.5q36 0 59 39zM391 102v150q-35 3 -78 3q-88 0 -138.5 -26.5t-50.5 -97.5q0 -101 105 -101q47 0 91 20t71 52z" />
    <glyph glyph-name="Cacute" unicode="&#x106;" horiz-adv-x="716" 
d="M379 -12q-159 0 -234 96.5t-75 263.5q0 187 90 288t238 101q112 0 180 -58t78 -172l-46 -4q-14 96 -64 144.5t-149 48.5q-128 0 -202.5 -88.5t-74.5 -251.5q0 -327 262 -327q95 0 149 39.5t76 130.5l42 -10q-39 -201 -270 -201zM503 911l-135 -144l-42 14l104 130h73z
" />
    <glyph glyph-name="cacute" unicode="&#x107;" horiz-adv-x="530" 
d="M285 -12q-225 0 -225 264q0 132 61.5 199t174.5 67q76 0 126 -43t54 -122l-53 -6q-13 128 -133 128q-75 0 -127 -50.5t-52 -165.5q0 -124 49 -174.5t124 -50.5q126 0 146 116l50 -10q-13 -77 -67.5 -114.5t-127.5 -37.5zM395 751l-143 -179l-42 14l113 165h72z" />
    <glyph glyph-name="Ccircumflex" unicode="&#x108;" horiz-adv-x="716" 
d="M379 -12q-159 0 -234 96.5t-75 263.5q0 187 90 288t238 101q112 0 180 -58t78 -172l-46 -4q-14 96 -64 144.5t-149 48.5q-128 0 -202.5 -88.5t-74.5 -251.5q0 -327 262 -327q95 0 149 39.5t76 130.5l42 -10q-39 -201 -270 -201zM488 769l-94 83l-90 -85l-48 11l123 116
h36l123 -116z" />
    <glyph glyph-name="ccircumflex" unicode="&#x109;" horiz-adv-x="530" 
d="M285 -12q-225 0 -225 264q0 132 61.5 199t174.5 67q76 0 126 -43t54 -122l-53 -6q-13 128 -133 128q-75 0 -127 -50.5t-52 -165.5q0 -124 49 -174.5t124 -50.5q126 0 146 116l50 -10q-13 -77 -67.5 -114.5t-127.5 -37.5zM431 585l-47 -6l-101 129l-95 -132l-45 9l116 165
h50z" />
    <glyph glyph-name="Cdotaccent" unicode="&#x10a;" horiz-adv-x="716" 
d="M379 -12q-159 0 -234 96.5t-75 263.5q0 187 90 288t238 101q112 0 180 -58t78 -172l-46 -4q-14 96 -64 144.5t-149 48.5q-128 0 -202.5 -88.5t-74.5 -251.5q0 -327 262 -327q95 0 149 39.5t76 130.5l42 -10q-39 -201 -270 -201zM441 826q0 -42 -46 -42t-46 42q0 43 46 43
t46 -43z" />
    <glyph glyph-name="cdotaccent" unicode="&#x10b;" horiz-adv-x="530" 
d="M285 -12q-225 0 -225 264q0 132 61.5 199t174.5 67q76 0 126 -43t54 -122l-53 -6q-13 128 -133 128q-75 0 -127 -50.5t-52 -165.5q0 -124 49 -174.5t124 -50.5q126 0 146 116l50 -10q-13 -77 -67.5 -114.5t-127.5 -37.5zM330 677q0 -42 -46 -42t-46 42q0 43 46 43t46 -43
z" />
    <glyph glyph-name="Ccaron" unicode="&#x10c;" horiz-adv-x="716" 
d="M379 -12q-159 0 -234 96.5t-75 263.5q0 187 90 288t238 101q112 0 180 -58t78 -172l-46 -4q-14 96 -64 144.5t-149 48.5q-128 0 -202.5 -88.5t-74.5 -251.5q0 -327 262 -327q95 0 149 39.5t76 130.5l42 -10q-39 -201 -270 -201zM304 897l94 -83l90 85l48 -11l-123 -116
h-36l-123 116z" />
    <glyph glyph-name="ccaron" unicode="&#x10d;" horiz-adv-x="530" 
d="M285 -12q-225 0 -225 264q0 132 61.5 199t174.5 67q76 0 126 -43t54 -122l-53 -6q-13 128 -133 128q-75 0 -127 -50.5t-52 -165.5q0 -124 49 -174.5t124 -50.5q126 0 146 116l50 -10q-13 -77 -67.5 -114.5t-127.5 -37.5zM138 737l51 7l96 -130l98 132l43 -9l-116 -165
h-51z" />
    <glyph glyph-name="Dcaron" unicode="&#x10e;" horiz-adv-x="741" 
d="M295 0h-183v724h200q183 0 271 -91.5t88 -259.5q0 -173 -94 -273t-282 -100zM160 41h143q153 0 235 84t82 243q0 173 -79.5 244t-232.5 71h-148v-642zM238 897l94 -83l90 85l48 -11l-123 -116h-36l-123 116z" />
    <glyph glyph-name="dcaron" unicode="&#x10f;" horiz-adv-x="627" 
d="M486 755v-755h-42l-5 58q-88 -70 -181 -70q-90 0 -141.5 63.5t-51.5 197.5q0 138 60.5 203.5t157.5 65.5q81 0 153 -50v287h50zM437 108v311q-72 55 -155 55q-165 0 -165 -226q0 -217 151 -217q49 0 93.5 22t75.5 55zM558 566l33 189h64l-59 -197z" />
    <glyph glyph-name="Dcroat" unicode="&#x110;" horiz-adv-x="741" 
d="M17 349v42h95v333h200q183 0 271 -91.5t88 -259.5q0 -173 -94 -273t-282 -100h-183v349h-95zM160 41h143q153 0 235 84t82 243q0 173 -79.5 244t-232.5 71h-148v-292h261v-42h-261v-308z" />
    <glyph glyph-name="dcroat" unicode="&#x111;" horiz-adv-x="581" 
d="M486 755v-124h65v-47h-65v-584h-42l-5 58q-88 -70 -181 -70q-90 0 -141.5 61t-51.5 190q0 133 60.5 196t157.5 63q81 0 153 -50v136h-211v47h211v124h50zM437 108v291q-72 55 -155 55q-165 0 -165 -216q0 -207 151 -207q49 0 93.5 22t75.5 55z" />
    <glyph glyph-name="Emacron" unicode="&#x112;" 
d="M160 347v-305h358v-42h-406v724h398v-42h-350v-292h327v-43h-327zM463 800h-300v45h300v-45z" />
    <glyph glyph-name="emacron" unicode="&#x113;" horiz-adv-x="543" 
d="M284 -12q-224 0 -224 266q0 132 66.5 198t166.5 66q96 0 143 -57.5t47 -150.5q0 -37 -5 -66h-366q3 -117 49 -163t127 -46q113 0 140 105l47 -9q-18 -73 -69 -108t-122 -35zM112 287h320q5 186 -145 186q-70 0 -119.5 -45.5t-55.5 -140.5zM424 645h-277v45h277v-45z" />
    <glyph glyph-name="Ebreve" unicode="&#x114;" 
d="M160 347v-305h358v-42h-406v724h398v-42h-350v-292h327v-43h-327zM314 827q79 0 92 76l45 -4q-7 -52 -41.5 -83t-96.5 -31q-114 0 -127 113l44 5q7 -42 27 -59t57 -17z" />
    <glyph glyph-name="ebreve" unicode="&#x115;" horiz-adv-x="543" 
d="M284 -12q-224 0 -224 266q0 132 66.5 198t166.5 66q96 0 143 -57.5t47 -150.5q0 -37 -5 -66h-366q3 -117 49 -163t127 -46q113 0 140 105l47 -9q-18 -73 -69 -108t-122 -35zM112 287h320q5 186 -145 186q-70 0 -119.5 -45.5t-55.5 -140.5zM381 728l43 -4
q2 -69 -33.5 -109.5t-105.5 -40.5q-131 0 -133 148l44 6q4 -64 24.5 -88t65.5 -24q47 0 70.5 24.5t24.5 87.5z" />
    <glyph glyph-name="Edotaccent" unicode="&#x116;" 
d="M160 347v-305h358v-42h-406v724h398v-42h-350v-292h327v-43h-327zM359 826q0 -42 -46 -42t-46 42q0 43 46 43t46 -43z" />
    <glyph glyph-name="edotaccent" unicode="&#x117;" horiz-adv-x="543" 
d="M284 -12q-224 0 -224 266q0 132 66.5 198t166.5 66q96 0 143 -57.5t47 -150.5q0 -37 -5 -66h-366q3 -117 49 -163t127 -46q113 0 140 105l47 -9q-18 -73 -69 -108t-122 -35zM112 287h320q5 186 -145 186q-70 0 -119.5 -45.5t-55.5 -140.5zM332 677q0 -42 -46 -42t-46 42
q0 43 46 43t46 -43z" />
    <glyph glyph-name="Eogonek" unicode="&#x118;" 
d="M499 -140l36 -20q-15 -31 -44 -47t-59 -16q-38 0 -63 21t-25 59q0 72 80 143h-312v724h398v-42h-350v-292h327v-43h-327v-305h358v-42h-35q-43 -38 -64 -68.5t-21 -67.5q0 -19 11 -31t31 -12q36 0 59 39z" />
    <glyph glyph-name="eogonek" unicode="&#x119;" horiz-adv-x="543" 
d="M387 -140l36 -20q-15 -31 -44 -47t-59 -16q-38 0 -63 21t-25 59t18 66t57 66q-7 -1 -23 -1q-224 0 -224 266q0 132 66.5 198t166.5 66q96 0 143 -57.5t47 -150.5q0 -37 -5 -66h-366q3 -117 49 -163t127 -46q113 0 140 105l47 -9q-17 -72 -91 -124q-98 -69 -98 -143
q0 -19 11 -31t31 -12q36 0 59 39zM112 287h320q5 186 -145 186q-70 0 -119.5 -45.5t-55.5 -140.5z" />
    <glyph glyph-name="Ecaron" unicode="&#x11a;" 
d="M160 347v-305h358v-42h-406v724h398v-42h-350v-292h327v-43h-327zM222 897l94 -83l90 85l48 -11l-123 -116h-36l-123 116z" />
    <glyph glyph-name="ecaron" unicode="&#x11b;" horiz-adv-x="543" 
d="M284 -12q-224 0 -224 266q0 132 66.5 198t166.5 66q96 0 143 -57.5t47 -150.5q0 -37 -5 -66h-366q3 -117 49 -163t127 -46q113 0 140 105l47 -9q-18 -73 -69 -108t-122 -35zM112 287h320q5 186 -145 186q-70 0 -119.5 -45.5t-55.5 -140.5zM140 737l51 7l96 -130l98 132
l43 -9l-116 -165h-51z" />
    <glyph glyph-name="Gcircumflex" unicode="&#x11c;" horiz-adv-x="756" 
d="M615 0l-8 115q-22 -54 -82 -90.5t-145 -36.5q-157 0 -233.5 98t-76.5 269q0 187 89 284.5t241 97.5q236 0 256 -232l-46 -5q-12 107 -64.5 151.5t-148.5 44.5q-130 0 -204 -88.5t-74 -248.5q0 -330 267 -330q104 0 164 66t60 147v87h-235v45h277v-374h-37zM489 769
l-94 83l-90 -85l-48 11l123 116h36l123 -116z" />
    <glyph glyph-name="gcircumflex" unicode="&#x11d;" horiz-adv-x="547" 
d="M266 518q110 0 159 -60q23 54 66 54q17 0 36 -6v-43q-55 0 -93 -19q32 -37 32 -107q0 -84 -56 -132t-140 -48q-65 0 -101 14q-42 -31 -42 -62q0 -20 17.5 -31t64.5 -14l145 -8q82 -5 121 -32t39 -91q0 -47 -23 -80t-62.5 -49.5t-79.5 -23t-86 -6.5q-222 0 -222 131
q0 31 14 57t28.5 39.5t42.5 33.5q-21 5 -34.5 22.5t-13.5 40.5q0 48 56 91q-35 17 -55.5 55t-20.5 85q0 87 57.5 138t150.5 51zM414 336q0 140 -146 140q-70 0 -114 -35t-44 -109q0 -62 37.5 -97.5t116.5 -35.5q68 0 109 37t41 100zM462 -65q0 71 -103 76l-191 10
q-76 -54 -76 -109q0 -93 176 -93q194 0 194 116zM417 585l-47 -6l-101 129l-95 -132l-45 9l116 165h50z" />
    <glyph glyph-name="Gbreve" unicode="&#x11e;" horiz-adv-x="756" 
d="M615 0l-8 115q-22 -54 -82 -90.5t-145 -36.5q-157 0 -233.5 98t-76.5 269q0 187 89 284.5t241 97.5q236 0 256 -232l-46 -5q-12 107 -64.5 151.5t-148.5 44.5q-130 0 -204 -88.5t-74 -248.5q0 -330 267 -330q104 0 164 66t60 147v87h-235v45h277v-374h-37zM397 827
q79 0 92 76l45 -4q-7 -52 -41.5 -83t-96.5 -31q-114 0 -127 113l44 5q7 -42 27 -59t57 -17z" />
    <glyph glyph-name="gbreve" unicode="&#x11f;" horiz-adv-x="547" 
d="M266 518q110 0 159 -60q23 54 66 54q17 0 36 -6v-43q-55 0 -93 -19q32 -37 32 -107q0 -84 -56 -132t-140 -48q-65 0 -101 14q-42 -31 -42 -62q0 -20 17.5 -31t64.5 -14l145 -8q82 -5 121 -32t39 -91q0 -47 -23 -80t-62.5 -49.5t-79.5 -23t-86 -6.5q-222 0 -222 131
q0 31 14 57t28.5 39.5t42.5 33.5q-21 5 -34.5 22.5t-13.5 40.5q0 48 56 91q-35 17 -55.5 55t-20.5 85q0 87 57.5 138t150.5 51zM414 336q0 140 -146 140q-70 0 -114 -35t-44 -109q0 -62 37.5 -97.5t116.5 -35.5q68 0 109 37t41 100zM462 -65q0 71 -103 76l-191 10
q-76 -54 -76 -109q0 -93 176 -93q194 0 194 116zM365 728l43 -4q2 -69 -33.5 -109.5t-105.5 -40.5q-131 0 -133 148l44 6q4 -64 24.5 -88t65.5 -24q47 0 70.5 24.5t24.5 87.5z" />
    <glyph glyph-name="Gdotaccent" unicode="&#x120;" horiz-adv-x="756" 
d="M615 0l-8 115q-22 -54 -82 -90.5t-145 -36.5q-157 0 -233.5 98t-76.5 269q0 187 89 284.5t241 97.5q236 0 256 -232l-46 -5q-12 107 -64.5 151.5t-148.5 44.5q-130 0 -204 -88.5t-74 -248.5q0 -330 267 -330q104 0 164 66t60 147v87h-235v45h277v-374h-37zM442 826
q0 -42 -46 -42t-46 42q0 43 46 43t46 -43z" />
    <glyph glyph-name="gdotaccent" unicode="&#x121;" horiz-adv-x="547" 
d="M266 518q110 0 159 -60q23 54 66 54q17 0 36 -6v-43q-55 0 -93 -19q32 -37 32 -107q0 -84 -56 -132t-140 -48q-65 0 -101 14q-42 -31 -42 -62q0 -20 17.5 -31t64.5 -14l145 -8q82 -5 121 -32t39 -91q0 -47 -23 -80t-62.5 -49.5t-79.5 -23t-86 -6.5q-222 0 -222 131
q0 31 14 57t28.5 39.5t42.5 33.5q-21 5 -34.5 22.5t-13.5 40.5q0 48 56 91q-35 17 -55.5 55t-20.5 85q0 87 57.5 138t150.5 51zM414 336q0 140 -146 140q-70 0 -114 -35t-44 -109q0 -62 37.5 -97.5t116.5 -35.5q68 0 109 37t41 100zM462 -65q0 71 -103 76l-191 10
q-76 -54 -76 -109q0 -93 176 -93q194 0 194 116zM316 677q0 -42 -46 -42t-46 42q0 43 46 43t46 -43z" />
    <glyph glyph-name="Gcommaaccent" unicode="&#x122;" horiz-adv-x="756" 
d="M615 0l-8 115q-22 -54 -82 -90.5t-145 -36.5q-157 0 -233.5 98t-76.5 269q0 187 89 284.5t241 97.5q236 0 256 -232l-46 -5q-12 107 -64.5 151.5t-148.5 44.5q-130 0 -204 -88.5t-74 -248.5q0 -330 267 -330q104 0 164 66t60 147v87h-235v45h277v-374h-37zM319 -209
l34 140h66l-58 -147z" />
    <glyph glyph-name="gcommaaccent" unicode="&#x123;" horiz-adv-x="547" 
d="M266 518q110 0 159 -60q23 54 66 54q17 0 36 -6v-43q-55 0 -93 -19q32 -37 32 -107q0 -84 -56 -132t-140 -48q-65 0 -101 14q-42 -31 -42 -62q0 -20 17.5 -31t64.5 -14l145 -8q82 -5 121 -32t39 -91q0 -47 -23 -80t-62.5 -49.5t-79.5 -23t-86 -6.5q-222 0 -222 131
q0 31 14 57t28.5 39.5t42.5 33.5q-21 5 -34.5 22.5t-13.5 40.5q0 48 56 91q-35 17 -55.5 55t-20.5 85q0 87 57.5 138t150.5 51zM414 336q0 140 -146 140q-70 0 -114 -35t-44 -109q0 -62 37.5 -97.5t116.5 -35.5q68 0 109 37t41 100zM462 -65q0 71 -103 76l-191 10
q-76 -54 -76 -109q0 -93 176 -93q194 0 194 116zM326 710l-34 -140h-66l57 146z" />
    <glyph glyph-name="Hcircumflex" unicode="&#x124;" horiz-adv-x="725" 
d="M613 724v-724h-48v350h-405v-350h-48v724h48v-330h405v330h48zM455 769l-94 83l-90 -85l-48 11l123 116h36l123 -116z" />
    <glyph glyph-name="hcircumflex" unicode="&#x125;" horiz-adv-x="578" 
d="M490 342v-342h-49v340q0 66 -26 99t-88 33q-50 0 -102.5 -25t-82.5 -53v-394h-49v755h49v-312q103 75 194 75q154 0 154 -176zM218 792l-94 83l-90 -85l-48 11l123 116h36l123 -116z" />
    <glyph glyph-name="Hbar" unicode="&#x126;" horiz-adv-x="725" 
d="M613 724v-146h80v-45h-80v-533h-48v350h-405v-350h-48v533h-80v45h80v146h48v-146h405v146h48zM160 394h405v139h-405v-139z" />
    <glyph glyph-name="hbar" unicode="&#x127;" horiz-adv-x="578" 
d="M24 579v47h69v129h49v-129h202v-47h-202v-156q103 75 194 75q154 0 154 -176v-322h-49v320q0 66 -26 99t-88 33q-50 0 -102.5 -25t-82.5 -53v-374h-49v579h-69z" />
    <glyph glyph-name="Itilde" unicode="&#x128;" horiz-adv-x="272" 
d="M160 724v-724h-48v724h48zM58 877q32 0 82 -22.5t71 -22.5q22 0 32.5 11t10.5 47l38 -2q7 -56 -16 -79t-61 -23q-30 0 -81.5 23t-74.5 23q-40 0 -39 -60l-36 2q-7 55 16 79t58 24z" />
    <glyph glyph-name="itilde" unicode="&#x129;" horiz-adv-x="236" 
d="M145 508v-508h-49v508h49zM39 699q33 0 83 -22.5t70 -22.5q22 0 32.5 11t10.5 47l38 -2q7 -56 -16 -79t-61 -23q-30 0 -81.5 23t-74.5 23q-40 0 -39 -60l-36 2q-7 55 16 79t58 24z" />
    <glyph glyph-name="Imacron" unicode="&#x12a;" horiz-adv-x="272" 
d="M160 724v-724h-48v724h48zM286 800h-300v45h300v-45z" />
    <glyph glyph-name="imacron" unicode="&#x12b;" horiz-adv-x="236" 
d="M145 508v-508h-49v508h49zM258 645h-277v45h277v-45z" />
    <glyph glyph-name="Ibreve" unicode="&#x12c;" horiz-adv-x="272" 
d="M160 724v-724h-48v724h48zM137 827q79 0 92 76l45 -4q-7 -52 -41.5 -83t-96.5 -31q-114 0 -127 113l44 5q7 -42 27 -59t57 -17z" />
    <glyph glyph-name="ibreve" unicode="&#x12d;" horiz-adv-x="236" 
d="M145 508v-508h-49v508h49zM215 728l43 -4q2 -69 -33.5 -109.5t-105.5 -40.5q-131 0 -133 148l44 6q4 -64 24.5 -88t65.5 -24q47 0 70.5 24.5t24.5 87.5z" />
    <glyph glyph-name="Iogonek" unicode="&#x12e;" horiz-adv-x="272" 
d="M182 -140l36 -20q-15 -31 -44 -47t-59 -16q-38 0 -63 21t-25 59q0 78 85 150v717h48v-724q-41 -39 -60 -68t-19 -68q0 -19 11 -31t31 -12q36 0 59 39z" />
    <glyph glyph-name="iogonek" unicode="&#x12f;" horiz-adv-x="236" 
d="M169 -140l36 -20q-15 -31 -44 -47t-59 -16q-38 0 -63 21t-25 59q0 77 82 148v503h49v-508q-40 -39 -58.5 -68.5t-18.5 -67.5q0 -19 11 -31t31 -12q36 0 59 39zM169 677q0 -42 -46 -42t-46 42q0 43 46 43t46 -43z" />
    <glyph glyph-name="Idotaccent" unicode="&#x130;" horiz-adv-x="272" 
d="M160 724v-724h-48v724h48zM182 826q0 -42 -46 -42t-46 42q0 43 46 43t46 -43z" />
    <glyph glyph-name="dotlessi" unicode="&#x131;" horiz-adv-x="236" 
d="M145 508v-508h-49v508h49z" />
    <glyph glyph-name="IJ" unicode="&#x132;" horiz-adv-x="759" 
d="M160 724v-724h-48v724h48zM610 176v548h48v-551q0 -102 -46 -143.5t-131 -41.5q-84 0 -124.5 42.5t-44.5 113.5l47 8q8 -59 34 -90t93 -31q57 0 90.5 30.5t33.5 114.5z" />
    <glyph glyph-name="Jcircumflex" unicode="&#x134;" horiz-adv-x="487" 
d="M338 176v548h48v-551q0 -102 -46 -143.5t-131 -41.5q-84 0 -124.5 42.5t-44.5 113.5l47 8q8 -59 34 -90t93 -31q57 0 90.5 30.5t33.5 114.5zM454 769l-94 83l-90 -85l-48 11l123 116h36l123 -116z" />
    <glyph glyph-name="jcircumflex" unicode="&#x135;" horiz-adv-x="233" 
d="M26 -223q-50 0 -78 15l9 43q34 -12 71 -12q68 0 68 84v601h49v-597q0 -69 -29 -101.5t-90 -32.5zM267 585l-47 -6l-101 129l-95 -132l-45 9l116 165h50z" />
    <glyph glyph-name="Kcommaaccent" unicode="&#x136;" horiz-adv-x="623" 
d="M160 724v-382l357 382h60l-299 -319l326 -405h-58l-301 373l-85 -90v-283h-48v724h48zM261 -209l34 140h66l-58 -147z" />
    <glyph glyph-name="kcommaaccent" unicode="&#x137;" horiz-adv-x="504" 
d="M142 755v-510l254 263h59l-180 -187l193 -321h-53l-175 286l-98 -99v-187h-49v755h49zM202 -209l34 140h66l-58 -147z" />
    <glyph glyph-name="kgreenlandic" unicode="&#x138;" horiz-adv-x="504" 
d="M142 508v-263l254 263h59l-180 -187l193 -321h-53l-175 286l-98 -99v-187h-49v508h49z" />
    <glyph glyph-name="Lacute" unicode="&#x139;" horiz-adv-x="552" 
d="M160 724v-683h337v-41h-385v724h48zM255 911l-135 -144l-42 14l104 130h73z" />
    <glyph glyph-name="lacute" unicode="&#x13a;" horiz-adv-x="236" 
d="M145 755v-755h-49v755h49zM233 932l-135 -144l-42 14l104 130h73z" />
    <glyph glyph-name="Lcommaaccent" unicode="&#x13b;" horiz-adv-x="552" 
d="M160 724v-683h337v-41h-385v724h48zM247 -209l34 140h66l-58 -147z" />
    <glyph glyph-name="lcommaaccent" unicode="&#x13c;" horiz-adv-x="236" 
d="M145 755v-755h-49v755h49zM64 -209l34 140h66l-58 -147z" />
    <glyph glyph-name="Lcaron" unicode="&#x13d;" horiz-adv-x="552" 
d="M160 724v-683h337v-41h-385v724h48zM368 536l33 189h64l-59 -197z" />
    <glyph glyph-name="lcaron" unicode="&#x13e;" horiz-adv-x="282" 
d="M145 755v-755h-49v755h49zM215 566l33 189h64l-59 -197z" />
    <glyph glyph-name="Ldot" unicode="&#x13f;" horiz-adv-x="552" 
d="M160 724v-683h337v-41h-385v724h48zM465 399q0 -42 -46 -42t-46 42q0 43 46 43t46 -43z" />
    <glyph glyph-name="ldot" unicode="&#x140;" horiz-adv-x="293" 
d="M145 755v-755h-49v755h49zM316 398q0 -42 -46 -42t-46 42q0 43 46 43t46 -43z" />
    <glyph glyph-name="Lslash" unicode="&#x141;" horiz-adv-x="552" 
d="M160 724v-357l243 104v-49l-243 -103v-278h337v-41h-385v298l-93 -39v48l93 39v378h48z" />
    <glyph glyph-name="lslash" unicode="&#x142;" horiz-adv-x="261" 
d="M153 755v-326l93 44v-53l-93 -43v-377h-49v355l-89 -41v53l89 41v347h49z" />
    <glyph glyph-name="Nacute" unicode="&#x143;" horiz-adv-x="745" 
d="M633 0h-65l-409 683v-683h-47v724h77l398 -671v671h46v-724zM511 911l-135 -144l-42 14l104 130h73z" />
    <glyph glyph-name="nacute" unicode="&#x144;" horiz-adv-x="578" 
d="M490 342v-342h-49v340q0 66 -25.5 99.5t-87.5 33.5q-50 0 -103 -25.5t-83 -53.5v-394h-49v508h43l3 -66q107 76 198 76q153 0 153 -176zM430 751l-143 -179l-42 14l113 165h72z" />
    <glyph glyph-name="Ncommaaccent" unicode="&#x145;" horiz-adv-x="745" 
d="M633 0h-65l-409 683v-683h-47v724h77l398 -671v671h46v-724zM317 -209l34 140h66l-58 -147z" />
    <glyph glyph-name="ncommaaccent" unicode="&#x146;" horiz-adv-x="578" 
d="M490 342v-342h-49v340q0 66 -25.5 99.5t-87.5 33.5q-50 0 -103 -25.5t-83 -53.5v-394h-49v508h43l3 -66q107 76 198 76q153 0 153 -176zM227 -209l34 140h66l-58 -147z" />
    <glyph glyph-name="Ncaron" unicode="&#x147;" horiz-adv-x="745" 
d="M633 0h-65l-409 683v-683h-47v724h77l398 -671v671h46v-724zM297 897l94 -83l90 85l48 -11l-123 -116h-36l-123 116z" />
    <glyph glyph-name="ncaron" unicode="&#x148;" horiz-adv-x="578" 
d="M490 342v-342h-49v340q0 66 -25.5 99.5t-87.5 33.5q-50 0 -103 -25.5t-83 -53.5v-394h-49v508h43l3 -66q107 76 198 76q153 0 153 -176zM156 737l51 7l96 -130l98 132l43 -9l-116 -165h-51z" />
    <glyph glyph-name="napostrophe" unicode="&#x149;" horiz-adv-x="578" 
d="M490 342v-342h-49v340q0 66 -25.5 99.5t-87.5 33.5q-50 0 -103 -25.5t-83 -53.5v-394h-49v508h43l3 -66q107 76 198 76q153 0 153 -176zM-13 514l33 140h66l-57 -146z" />
    <glyph glyph-name="Eng" unicode="&#x14a;" horiz-adv-x="745" 
d="M494 -223q-16 0 -49.5 6.5t-48.5 13.5l9 43q62 -17 91 -17q89 0 89 94v76l-426 690v-683h-47v724h77l398 -651v651h46v-803q0 -74 -33.5 -109t-105.5 -35z" />
    <glyph glyph-name="eng" unicode="&#x14b;" horiz-adv-x="578" 
d="M490 342v-431q0 -69 -29 -101.5t-90 -32.5q-50 0 -78 15l9 43q34 -12 71 -12q68 0 68 84v433q0 66 -25.5 99.5t-87.5 33.5q-50 0 -103 -25.5t-83 -53.5v-394h-49v508h43l3 -66q107 76 198 76q153 0 153 -176z" />
    <glyph glyph-name="Omacron" unicode="&#x14c;" horiz-adv-x="781" 
d="M386 -12q-154 0 -235 103t-81 273q0 166 87.5 269.5t242.5 103.5q150 0 230.5 -100t80.5 -258q0 -180 -84.5 -285.5t-240.5 -105.5zM390 29q122 0 196.5 88.5t74.5 251.5q0 154 -72 240.5t-191 86.5q-121 0 -199 -88.5t-78 -244.5t74 -245t195 -89zM546 800h-300v45h300
v-45z" />
    <glyph glyph-name="omacron" unicode="&#x14d;" horiz-adv-x="572" 
d="M284 -12q-224 0 -224 264q0 125 62 195.5t175 70.5q109 0 162 -67t53 -186q0 -277 -228 -277zM288 33q172 0 172 226q0 115 -42 164.5t-125 49.5q-85 0 -134.5 -54.5t-49.5 -162.5q0 -223 179 -223zM432 645h-277v45h277v-45z" />
    <glyph glyph-name="Obreve" unicode="&#x14e;" horiz-adv-x="781" 
d="M386 -12q-154 0 -235 103t-81 273q0 166 87.5 269.5t242.5 103.5q150 0 230.5 -100t80.5 -258q0 -180 -84.5 -285.5t-240.5 -105.5zM390 29q122 0 196.5 88.5t74.5 251.5q0 154 -72 240.5t-191 86.5q-121 0 -199 -88.5t-78 -244.5t74 -245t195 -89zM397 827q79 0 92 76
l45 -4q-7 -52 -41.5 -83t-96.5 -31q-114 0 -127 113l44 5q7 -42 27 -59t57 -17z" />
    <glyph glyph-name="obreve" unicode="&#x14f;" horiz-adv-x="572" 
d="M284 -12q-224 0 -224 264q0 125 62 195.5t175 70.5q109 0 162 -67t53 -186q0 -277 -228 -277zM288 33q172 0 172 226q0 115 -42 164.5t-125 49.5q-85 0 -134.5 -54.5t-49.5 -162.5q0 -223 179 -223zM389 728l43 -4q2 -69 -33.5 -109.5t-105.5 -40.5q-131 0 -133 148l44 6
q4 -64 24.5 -88t65.5 -24q47 0 70.5 24.5t24.5 87.5z" />
    <glyph glyph-name="Ohungarumlaut" unicode="&#x150;" horiz-adv-x="781" 
d="M386 -12q-154 0 -235 103t-81 273q0 166 87.5 269.5t242.5 103.5q150 0 230.5 -100t80.5 -258q0 -180 -84.5 -285.5t-240.5 -105.5zM390 29q122 0 196.5 88.5t74.5 251.5q0 154 -72 240.5t-191 86.5q-121 0 -199 -88.5t-78 -244.5t74 -245t195 -89zM459 911l-107 -144
l-39 13l76 131h70zM595 915l-134 -148l-42 14l104 134h72z" />
    <glyph glyph-name="ohungarumlaut" unicode="&#x151;" horiz-adv-x="572" 
d="M284 -12q-224 0 -224 264q0 125 62 195.5t175 70.5q109 0 162 -67t53 -186q0 -277 -228 -277zM288 33q172 0 172 226q0 115 -42 164.5t-125 49.5q-85 0 -134.5 -54.5t-49.5 -162.5q0 -223 179 -223zM363 749l-125 -177l-38 13l94 164h69zM493 750l-141 -178l-38 14
l110 164h69z" />
    <glyph glyph-name="OE" unicode="&#x152;" horiz-adv-x="1114" 
d="M1062 0h-400v146q-86 -158 -276 -158q-155 0 -235.5 103t-80.5 273q0 166 88 269.5t243 103.5q178 0 261 -143v130h392v-42h-350v-292h327v-43h-327v-305h358v-42zM390 29q122 0 196.5 89t74.5 253q0 152 -72.5 238.5t-190.5 86.5q-121 0 -199 -89t-78 -244
q0 -156 74 -245t195 -89z" />
    <glyph glyph-name="oe" unicode="&#x153;" horiz-adv-x="941" 
d="M680 -12q-146 0 -196 116q-53 -116 -197 -116q-227 0 -227 264q0 124 63 195t177 71q141 0 188 -116q59 116 200 116q99 0 146 -58t47 -152q0 -38 -5 -64h-366q3 -117 49 -163t127 -46q62 0 94 25.5t46 79.5l47 -9q-16 -72 -68.5 -107.5t-124.5 -35.5zM290 33
q171 0 171 226q0 115 -42 164.5t-125 49.5q-84 0 -134 -54.5t-50 -162.5q0 -223 180 -223zM510 287h320q5 186 -145 186q-70 0 -120 -47t-55 -139z" />
    <glyph glyph-name="Racute" unicode="&#x154;" horiz-adv-x="637" 
d="M415 332l187 -332h-53l-180 321h-210v-321h-47v724h223q231 0 231 -190q0 -80 -40 -131.5t-111 -70.5zM159 363h170q90 0 138 39t48 133q0 45 -14 75t-42.5 45.5t-62.5 21.5t-83 6h-154v-320zM425 911l-135 -144l-42 14l104 130h73z" />
    <glyph glyph-name="racute" unicode="&#x155;" horiz-adv-x="339" 
d="M327 518v-49q-47 6 -100.5 -12t-84.5 -50v-407h-49v508h39l5 -68q78 85 190 78zM347 751l-143 -179l-42 14l113 165h72z" />
    <glyph glyph-name="Rcommaaccent" unicode="&#x156;" horiz-adv-x="637" 
d="M415 332l187 -332h-53l-180 321h-210v-321h-47v724h223q231 0 231 -190q0 -80 -40 -131.5t-111 -70.5zM159 363h170q90 0 138 39t48 133q0 45 -14 75t-42.5 45.5t-62.5 21.5t-83 6h-154v-320zM280 -209l34 140h66l-58 -147z" />
    <glyph glyph-name="rcommaaccent" unicode="&#x157;" horiz-adv-x="339" 
d="M327 518v-49q-47 6 -100.5 -12t-84.5 -50v-407h-49v508h39l5 -68q78 85 190 78zM63 -209l34 140h66l-58 -147z" />
    <glyph glyph-name="Rcaron" unicode="&#x158;" horiz-adv-x="637" 
d="M415 332l187 -332h-53l-180 321h-210v-321h-47v724h223q231 0 231 -190q0 -80 -40 -131.5t-111 -70.5zM159 363h170q90 0 138 39t48 133q0 45 -14 75t-42.5 45.5t-62.5 21.5t-83 6h-154v-320zM226 897l94 -83l90 85l48 -11l-123 -116h-36l-123 116z" />
    <glyph glyph-name="rcaron" unicode="&#x159;" horiz-adv-x="339" 
d="M327 518v-49q-47 6 -100.5 -12t-84.5 -50v-407h-49v508h39l5 -68q78 85 190 78zM61 737l51 7l96 -130l98 132l43 -9l-116 -165h-51z" />
    <glyph glyph-name="Sacute" unicode="&#x15a;" horiz-adv-x="578" 
d="M306 694q-96 0 -138 -39t-42 -104q0 -68 40 -99t125 -56q108 -31 144 -50q96 -52 96 -160q0 -101 -68 -149.5t-172 -48.5q-216 0 -251 196l49 10q32 -161 201 -161q36 0 66.5 6.5t59 22t45 46t16.5 73.5q0 34 -12.5 60.5t-27.5 42t-48 30t-51.5 20.5t-60.5 17
q-47 13 -77 25t-62 33.5t-48 56.5t-16 83q0 85 62.5 136.5t166.5 51.5q200 0 225 -199l-46 -5q-7 34 -15.5 56.5t-27 49.5t-52 41t-81.5 14zM411 911l-135 -144l-42 14l104 130h73z" />
    <glyph glyph-name="sacute" unicode="&#x15b;" horiz-adv-x="477" 
d="M241 518q87 0 124 -39t44 -113l-47 -6q-7 59 -33.5 87.5t-90.5 28.5q-65 0 -92.5 -26.5t-27.5 -66.5q0 -26 9.5 -44t31 -29.5t41 -17.5t54.5 -13q41 -9 62.5 -15.5t50.5 -22t42.5 -42t13.5 -64.5q0 -67 -46 -107t-134 -40q-84 0 -131.5 36.5t-59.5 119.5l47 9
q12 -57 42.5 -89t103.5 -32q58 0 92.5 24.5t34.5 76.5q0 48 -31 68.5t-95 32.5q-34 6 -52 10.5t-46 15.5t-42.5 24.5t-26 38t-11.5 56.5q0 66 50 102.5t123 36.5zM351 751l-143 -179l-42 14l113 165h72z" />
    <glyph glyph-name="Scircumflex" unicode="&#x15c;" horiz-adv-x="578" 
d="M306 694q-96 0 -138 -39t-42 -104q0 -68 40 -99t125 -56q108 -31 144 -50q96 -52 96 -160q0 -101 -68 -149.5t-172 -48.5q-216 0 -251 196l49 10q32 -161 201 -161q36 0 66.5 6.5t59 22t45 46t16.5 73.5q0 34 -12.5 60.5t-27.5 42t-48 30t-51.5 20.5t-60.5 17
q-47 13 -77 25t-62 33.5t-48 56.5t-16 83q0 85 62.5 136.5t166.5 51.5q200 0 225 -199l-46 -5q-7 34 -15.5 56.5t-27 49.5t-52 41t-81.5 14zM396 769l-94 83l-90 -85l-48 11l123 116h36l123 -116z" />
    <glyph glyph-name="scircumflex" unicode="&#x15d;" horiz-adv-x="477" 
d="M241 518q87 0 124 -39t44 -113l-47 -6q-7 59 -33.5 87.5t-90.5 28.5q-65 0 -92.5 -26.5t-27.5 -66.5q0 -26 9.5 -44t31 -29.5t41 -17.5t54.5 -13q41 -9 62.5 -15.5t50.5 -22t42.5 -42t13.5 -64.5q0 -67 -46 -107t-134 -40q-84 0 -131.5 36.5t-59.5 119.5l47 9
q12 -57 42.5 -89t103.5 -32q58 0 92.5 24.5t34.5 76.5q0 48 -31 68.5t-95 32.5q-34 6 -52 10.5t-46 15.5t-42.5 24.5t-26 38t-11.5 56.5q0 66 50 102.5t123 36.5zM387 585l-47 -6l-101 129l-95 -132l-45 9l116 165h50z" />
    <glyph glyph-name="Scedilla" unicode="&#x15e;" horiz-adv-x="578" 
d="M202 -193l15 34q24 -19 57 -19q25 0 38.5 14.5t13.5 35.5q0 54 -81 55l8 62q-188 13 -221 195l49 10q32 -161 201 -161q36 0 66.5 6.5t59 22t45 46t16.5 73.5q0 34 -12.5 60.5t-27.5 42t-48 30t-51.5 20.5t-60.5 17q-47 13 -77 25t-62 33.5t-48 56.5t-16 83
q0 85 62.5 136.5t166.5 51.5q200 0 225 -199l-46 -5q-7 34 -15.5 56.5t-27 49.5t-52 41t-81.5 14q-96 0 -138 -39t-42 -104q0 -68 40 -99t125 -56q108 -31 144 -50q96 -52 96 -160q0 -99 -65 -147.5t-166 -50.5l-4 -31q84 -10 84 -83q0 -40 -27 -65.5t-68 -25.5
q-49 0 -75 24z" />
    <glyph glyph-name="scedilla" unicode="&#x15f;" horiz-adv-x="477" 
d="M166 -193l15 34q24 -19 57 -19q25 0 38.5 14.5t13.5 35.5q0 54 -81 55l8 62q-72 5 -113.5 41.5t-51.5 113.5l47 9q12 -57 42.5 -89t103.5 -32q58 0 92.5 24.5t34.5 76.5q0 48 -31 68.5t-95 32.5q-34 6 -52 10.5t-46 15.5t-42.5 24.5t-26 38t-11.5 56.5q0 66 50 102.5
t123 36.5q87 0 124 -39t44 -113l-47 -6q-7 59 -33.5 87.5t-90.5 28.5q-65 0 -92.5 -26.5t-27.5 -66.5q0 -26 9.5 -44t31 -29.5t41 -17.5t54.5 -13q41 -9 62.5 -15.5t50.5 -22t42.5 -42t13.5 -64.5q0 -64 -42.5 -103.5t-124.5 -43.5l-4 -31q84 -10 84 -83q0 -40 -27 -65.5
t-68 -25.5q-49 0 -75 24z" />
    <glyph glyph-name="Scaron" unicode="&#x160;" horiz-adv-x="578" 
d="M306 694q-96 0 -138 -39t-42 -104q0 -68 40 -99t125 -56q108 -31 144 -50q96 -52 96 -160q0 -101 -68 -149.5t-172 -48.5q-216 0 -251 196l49 10q32 -161 201 -161q36 0 66.5 6.5t59 22t45 46t16.5 73.5q0 34 -12.5 60.5t-27.5 42t-48 30t-51.5 20.5t-60.5 17
q-47 13 -77 25t-62 33.5t-48 56.5t-16 83q0 85 62.5 136.5t166.5 51.5q200 0 225 -199l-46 -5q-7 34 -15.5 56.5t-27 49.5t-52 41t-81.5 14zM212 897l94 -83l90 85l48 -11l-123 -116h-36l-123 116z" />
    <glyph glyph-name="scaron" unicode="&#x161;" horiz-adv-x="477" 
d="M241 518q87 0 124 -39t44 -113l-47 -6q-7 59 -33.5 87.5t-90.5 28.5q-65 0 -92.5 -26.5t-27.5 -66.5q0 -26 9.5 -44t31 -29.5t41 -17.5t54.5 -13q41 -9 62.5 -15.5t50.5 -22t42.5 -42t13.5 -64.5q0 -67 -46 -107t-134 -40q-84 0 -131.5 36.5t-59.5 119.5l47 9
q12 -57 42.5 -89t103.5 -32q58 0 92.5 24.5t34.5 76.5q0 48 -31 68.5t-95 32.5q-34 6 -52 10.5t-46 15.5t-42.5 24.5t-26 38t-11.5 56.5q0 66 50 102.5t123 36.5zM94 737l51 7l96 -130l98 132l43 -9l-116 -165h-51z" />
    <glyph glyph-name="uni0162" unicode="&#x162;" horiz-adv-x="532" 
d="M193 -193l15 34q24 -19 57 -19q25 0 38.5 14.5t13.5 35.5q0 54 -81 55l10 73h-4v682h-222v42h492v-42h-222v-682h-5l-6 -43q84 -10 84 -83q0 -40 -27 -65.5t-68 -25.5q-49 0 -75 24z" />
    <glyph glyph-name="uni0163" unicode="&#x163;" horiz-adv-x="364" 
d="M133 -193l15 34q24 -19 57 -19q25 0 38.5 14.5t13.5 35.5q0 54 -81 55l9 66q-42 10 -60.5 39.5t-18.5 83.5v349h-81v43h81v145l49 8v-153h144v-43h-144v-339q0 -50 17 -73.5t66 -23.5q48 0 92 27l14 -38q-18 -13 -50 -21.5t-59 -8.5h-12l-4 -31q84 -10 84 -83
q0 -40 -27 -65.5t-68 -25.5q-49 0 -75 24z" />
    <glyph glyph-name="Tcaron" unicode="&#x164;" horiz-adv-x="532" 
d="M290 0h-48v682h-222v42h492v-42h-222v-682zM175 897l94 -83l90 85l48 -11l-123 -116h-36l-123 116z" />
    <glyph glyph-name="tcaron" unicode="&#x165;" horiz-adv-x="364" 
d="M330 56l14 -38q-18 -13 -50 -21.5t-59 -8.5q-70 0 -99.5 30t-29.5 98v349h-81v43h81v145l49 8v-153h144v-43h-144v-339q0 -50 17 -73.5t66 -23.5q48 0 92 27zM225 576l33 189h64l-59 -197z" />
    <glyph glyph-name="Tbar" unicode="&#x166;" horiz-adv-x="532" 
d="M290 0h-48v352h-146v44h146v286h-222v42h492v-42h-222v-286h146v-44h-146v-352z" />
    <glyph glyph-name="tbar" unicode="&#x167;" horiz-adv-x="364" 
d="M330 56l14 -38q-18 -13 -50 -21.5t-59 -8.5q-70 0 -99.5 30t-29.5 98v146h-81v43h81v160h-81v43h81v145l49 8v-153h144v-43h-144v-160h144v-43h-144v-136q0 -50 17 -73.5t66 -23.5q48 0 92 27z" />
    <glyph glyph-name="Utilde" unicode="&#x168;" horiz-adv-x="718" 
d="M360 32q100 0 151 45t51 153v494h48v-496q0 -119 -65 -179.5t-191 -60.5q-128 0 -187 61t-59 179v496h48v-492q0 -108 53 -154t151 -46zM281 877q33 0 83 -22.5t70 -22.5q22 0 32.5 11t10.5 47l38 -2q7 -56 -16 -79t-61 -23q-30 0 -81.5 23t-74.5 23q-40 0 -39 -60l-36 2
q-7 55 16 79t58 24z" />
    <glyph glyph-name="utilde" unicode="&#x169;" horiz-adv-x="581" 
d="M90 167v341h49v-340q0 -67 25 -100t86 -33q50 0 102.5 25.5t82.5 53.5v394h49v-508h-43l-3 65q-103 -75 -197 -75q-80 0 -115.5 44t-35.5 133zM206 699q32 0 82 -22.5t71 -22.5q22 0 32.5 11t10.5 47l38 -2q7 -56 -16 -79t-61 -23q-30 0 -81.5 23t-74.5 23q-40 0 -39 -60
l-36 2q-7 55 16 79t58 24z" />
    <glyph glyph-name="Umacron" unicode="&#x16a;" horiz-adv-x="718" 
d="M360 32q100 0 151 45t51 153v494h48v-496q0 -119 -65 -179.5t-191 -60.5q-128 0 -187 61t-59 179v496h48v-492q0 -108 53 -154t151 -46zM509 800h-300v45h300v-45z" />
    <glyph glyph-name="umacron" unicode="&#x16b;" horiz-adv-x="581" 
d="M90 167v341h49v-340q0 -67 25 -100t86 -33q50 0 102.5 25.5t82.5 53.5v394h49v-508h-43l-3 65q-103 -75 -197 -75q-80 0 -115.5 44t-35.5 133zM425 645h-277v45h277v-45z" />
    <glyph glyph-name="Ubreve" unicode="&#x16c;" horiz-adv-x="718" 
d="M360 32q100 0 151 45t51 153v494h48v-496q0 -119 -65 -179.5t-191 -60.5q-128 0 -187 61t-59 179v496h48v-492q0 -108 53 -154t151 -46zM360 827q79 0 92 76l45 -4q-7 -52 -41.5 -83t-96.5 -31q-114 0 -127 113l44 5q7 -42 27 -59t57 -17z" />
    <glyph glyph-name="ubreve" unicode="&#x16d;" horiz-adv-x="581" 
d="M90 167v341h49v-340q0 -67 25 -100t86 -33q50 0 102.5 25.5t82.5 53.5v394h49v-508h-43l-3 65q-103 -75 -197 -75q-80 0 -115.5 44t-35.5 133zM382 728l43 -4q2 -69 -33.5 -109.5t-105.5 -40.5q-131 0 -133 148l44 6q4 -64 24.5 -88t65.5 -24q47 0 70.5 24.5t24.5 87.5z
" />
    <glyph glyph-name="Uring" unicode="&#x16e;" horiz-adv-x="718" 
d="M360 32q100 0 151 45t51 153v494h48v-496q0 -119 -65 -179.5t-191 -60.5q-128 0 -187 61t-59 179v496h48v-492q0 -108 53 -154t151 -46zM461 833q0 -46 -27.5 -72t-74.5 -26q-46 0 -73.5 25t-27.5 67q0 48 29 73.5t72 25.5q45 0 73.5 -23t28.5 -70zM359 773q55 0 55 60
q0 55 -55 55q-26 0 -41.5 -15.5t-15.5 -43.5q0 -56 57 -56z" />
    <glyph glyph-name="uring" unicode="&#x16f;" horiz-adv-x="581" 
d="M90 167v341h49v-340q0 -67 25 -100t86 -33q50 0 102.5 25.5t82.5 53.5v394h49v-508h-43l-3 65q-103 -75 -197 -75q-80 0 -115.5 44t-35.5 133zM389 674q0 -46 -27.5 -72t-74.5 -26q-46 0 -73.5 25t-27.5 67q0 48 29 73.5t72 25.5q45 0 73.5 -23t28.5 -70zM287 614
q55 0 55 60q0 55 -55 55q-26 0 -41.5 -15.5t-15.5 -43.5q0 -56 57 -56z" />
    <glyph glyph-name="Uhungarumlaut" unicode="&#x170;" horiz-adv-x="718" 
d="M360 32q100 0 151 45t51 153v494h48v-496q0 -119 -65 -179.5t-191 -60.5q-128 0 -187 61t-59 179v496h48v-492q0 -108 53 -154t151 -46zM422 911l-107 -144l-39 13l76 131h70zM558 915l-134 -148l-42 14l104 134h72z" />
    <glyph glyph-name="uhungarumlaut" unicode="&#x171;" horiz-adv-x="581" 
d="M90 167v341h49v-340q0 -67 25 -100t86 -33q50 0 102.5 25.5t82.5 53.5v394h49v-508h-43l-3 65q-103 -75 -197 -75q-80 0 -115.5 44t-35.5 133zM356 749l-125 -177l-38 13l94 164h69zM486 750l-141 -178l-38 14l110 164h69z" />
    <glyph glyph-name="Uogonek" unicode="&#x172;" horiz-adv-x="718" 
d="M493 -140l36 -20q-15 -31 -44 -47t-59 -16q-38 0 -63 21t-25 59q0 68 71 135q-36 -4 -55 -4q-128 0 -187 61t-59 179v496h48v-492q0 -108 53 -154t151 -46q100 0 151 45t51 153v494h48v-496q0 -79 -27.5 -129.5t-84.5 -86.5q-48 -30 -77 -69t-29 -79q0 -19 11 -31t31 -12
q36 0 59 39z" />
    <glyph glyph-name="uogonek" unicode="&#x173;" horiz-adv-x="581" 
d="M507 -140l36 -20q-15 -31 -44 -47t-59 -16q-38 0 -63 21t-25 59q0 74 88 150l-2 58q-103 -75 -197 -75q-80 0 -115.5 44t-35.5 133v341h49v-340q0 -67 25 -100t86 -33q50 0 102.5 25.5t82.5 53.5v394h49v-508q-41 -37 -59.5 -67t-18.5 -69q0 -19 11 -31t31 -12
q36 0 59 39z" />
    <glyph glyph-name="Wcircumflex" unicode="&#x174;" horiz-adv-x="870" 
d="M680 0h-65l-174 673h-3l-184 -673h-57l-157 724h51l137 -661h2l178 661h63l175 -673h2l135 673h47zM533 769l-94 83l-90 -85l-48 11l123 116h36l123 -116z" />
    <glyph glyph-name="wcircumflex" unicode="&#x175;" horiz-adv-x="721" 
d="M238 0h-59l-166 508h51l144 -459h2l123 459h62l122 -457h2l143 457h46l-163 -508h-61l-119 458h-2zM511 585l-47 -6l-101 129l-95 -132l-45 9l116 165h50z" />
    <glyph glyph-name="Ycircumflex" unicode="&#x176;" horiz-adv-x="538" 
d="M297 291v-291h-48v287l-245 437h54l216 -384h1l210 384h49zM366 769l-94 83l-90 -85l-48 11l123 116h36l123 -116z" />
    <glyph glyph-name="ycircumflex" unicode="&#x177;" horiz-adv-x="457" 
d="M201 0l-184 508h52l159 -441h1l163 441h52l-232 -603q-28 -71 -64 -99.5t-87 -28.5q-41 0 -87 18l10 41q34 -16 80 -16q34 0 60 22t48 81zM382 585l-47 -6l-101 129l-95 -132l-45 9l116 165h50z" />
    <glyph glyph-name="Ydieresis" unicode="&#x178;" horiz-adv-x="538" 
d="M297 291v-291h-48v287l-245 437h54l216 -384h1l210 384h49zM222 826q0 -20 -12 -31t-32 -11q-45 0 -45 42q0 20 12 31t33 11q20 0 32 -11.5t12 -30.5zM413 826q0 -20 -12 -31t-32 -11q-21 0 -33 11t-12 31q0 19 12.5 30.5t32.5 11.5t32 -11.5t12 -30.5z" />
    <glyph glyph-name="Zacute" unicode="&#x179;" horiz-adv-x="585" 
d="M519 689l-419 -647h436v-42h-497v34l417 648h-404v42h467v-35zM389 911l-135 -144l-42 14l104 130h73z" />
    <glyph glyph-name="zacute" unicode="&#x17a;" horiz-adv-x="454" 
d="M416 474l-324 -434h334v-40h-393v33l323 433h-317v42h377v-34zM337 751l-143 -179l-42 14l113 165h72z" />
    <glyph glyph-name="Zdotaccent" unicode="&#x17b;" horiz-adv-x="585" 
d="M519 689l-419 -647h436v-42h-497v34l417 648h-404v42h467v-35zM327 826q0 -42 -46 -42t-46 42q0 43 46 43t46 -43z" />
    <glyph glyph-name="zdotaccent" unicode="&#x17c;" horiz-adv-x="454" 
d="M416 474l-324 -434h334v-40h-393v33l323 433h-317v42h377v-34zM272 677q0 -42 -46 -42t-46 42q0 43 46 43t46 -43z" />
    <glyph glyph-name="Zcaron" unicode="&#x17d;" horiz-adv-x="585" 
d="M519 689l-419 -647h436v-42h-497v34l417 648h-404v42h467v-35zM190 897l94 -83l90 85l48 -11l-123 -116h-36l-123 116z" />
    <glyph glyph-name="zcaron" unicode="&#x17e;" horiz-adv-x="454" 
d="M416 474l-324 -434h334v-40h-393v33l323 433h-317v42h377v-34zM80 737l51 7l96 -130l98 132l43 -9l-116 -165h-51z" />
    <glyph glyph-name="longs" unicode="&#x17f;" horiz-adv-x="269" 
d="M298 748l-3 -40q-37 13 -73 13q-80 0 -80 -95v-626h-49v610q0 153 126 153q47 0 79 -15z" />
    <glyph glyph-name="florin" unicode="&#x192;" horiz-adv-x="505" 
d="M528 650l-47 -19q-25 62 -81 62q-79 0 -98 -101l-28 -149h148l-10 -45h-148l-91 -439q-16 -75 -51 -107.5t-94 -32.5q-97 0 -127 91l47 19q14 -34 31 -49.5t49 -15.5q37 0 61 21.5t34 78.5l89 434h-75l10 45h75l30 154q27 140 149 140q94 0 127 -87z" />
    <glyph glyph-name="Aringacute" unicode="&#x1fa;" horiz-adv-x="637" 
d="M420 810q0 -74 -65 -93l247 -717h-54l-84 248h-295l-84 -248h-50l245 717q-63 18 -63 87q0 48 29 73.5t72 25.5q45 0 73.5 -23t28.5 -70zM450 290l-134 403l-133 -403h267zM318 750q55 0 55 60q0 55 -55 55q-26 0 -41.5 -15.5t-15.5 -43.5q0 -56 57 -56zM425 1063
l-135 -144l-42 14l104 130h73z" />
    <glyph glyph-name="aringacute" unicode="&#x1fb;" horiz-adv-x="536" 
d="M440 348v-276q0 -23 6 -32.5t25 -9.5q11 0 31 6l4 -32q-24 -12 -54 -12q-31 0 -45.5 19t-12.5 45q-68 -68 -172 -68q-37 0 -65.5 10t-44 24.5t-25 34.5t-12.5 36t-3 33q0 170 249 170q25 0 69 -2v45q0 77 -25.5 107.5t-95.5 30.5q-62 0 -91 -23t-38 -72l-47 8
q12 68 56.5 98t123.5 30q90 0 128.5 -38t38.5 -132zM391 102v150q-35 3 -78 3q-88 0 -138.5 -26.5t-50.5 -97.5q0 -101 105 -101q47 0 91 20t71 52zM374 655q0 -46 -27.5 -72t-74.5 -26q-46 0 -73.5 25t-27.5 67q0 48 29 73.5t72 25.5q45 0 73.5 -23t28.5 -70zM272 595
q55 0 55 60q0 55 -55 55q-26 0 -41.5 -15.5t-15.5 -43.5q0 -56 57 -56zM369 911l-135 -144l-42 14l104 130h73z" />
    <glyph glyph-name="AEacute" unicode="&#x1fc;" horiz-adv-x="998" 
d="M577 339v-297h358v-42h-407v339h-236l-197 -339h-53l422 724h463v-42h-350v-300h327v-43h-327zM528 381v301h-40l-170 -301h210zM806 911l-135 -144l-42 14l104 130h73z" />
    <glyph glyph-name="aeacute" unicode="&#x1fd;" horiz-adv-x="873" 
d="M612 -12q-125 0 -178 82q-89 -82 -213 -82q-46 0 -77.5 14t-46 37.5t-20 44t-5.5 42.5q0 171 246 171q26 0 72 -2v71q0 54 -28 82.5t-94 28.5q-60 0 -89.5 -23.5t-38.5 -71.5l-47 9q12 68 56.5 97.5t125.5 29.5q127 0 155 -99q64 99 187 99q99 0 146.5 -57.5t47.5 -151.5
q0 -28 -5 -65h-367q3 -117 49.5 -163t127.5 -46q62 0 94.5 25.5t45.5 79.5l47 -10q-16 -73 -68 -107.5t-123 -34.5zM230 31q107 0 182 80q-20 58 -22 141q-42 2 -73 2t-55 -2t-51.5 -9.5t-45 -20t-29.5 -35.5t-12 -54q0 -47 23 -74.5t83 -27.5zM440 290h320v7
q0 176 -145 176q-71 0 -121 -46t-54 -137zM574 751l-143 -179l-42 14l113 165h72z" />
    <glyph glyph-name="Oslashacute" unicode="&#x1fe;" horiz-adv-x="781" 
d="M386 -12q-63 0 -118 19l-32 -77h-53l41 98q-76 44 -115 131.5t-39 204.5q0 166 87.5 269.5t242.5 103.5q61 0 113 -19l32 76h51l-40 -95q76 -43 115.5 -127t39.5 -193q0 -180 -84.5 -285.5t-240.5 -105.5zM390 29q122 0 196.5 88.5t74.5 251.5q0 203 -123 286l-252 -606
q48 -20 104 -20zM121 363q0 -205 122 -290l253 605q-45 18 -98 18q-121 0 -199 -88.5t-78 -244.5zM504 911l-135 -144l-42 14l104 130h73z" />
    <glyph glyph-name="oslashacute" unicode="&#x1ff;" horiz-adv-x="572" 
d="M284 -12q-45 0 -86 12l-32 -72h-50l40 91q-96 60 -96 233q0 125 62 195.5t175 70.5q43 0 76 -10l34 77h50l-43 -96q98 -58 98 -224q0 -277 -228 -277zM288 33q172 0 172 226q0 140 -65 186l-178 -401q29 -11 71 -11zM109 256q0 -137 68 -190l177 399q-30 8 -61 8
q-85 0 -134.5 -54.5t-49.5 -162.5zM405 751l-143 -179l-42 14l113 165h72z" />
    <glyph glyph-name="Scommaaccent" unicode="&#x218;" horiz-adv-x="578" 
d="M306 694q-96 0 -138 -39t-42 -104q0 -68 40 -99t125 -56q108 -31 144 -50q96 -52 96 -160q0 -101 -68 -149.5t-172 -48.5q-216 0 -251 196l49 10q32 -161 201 -161q36 0 66.5 6.5t59 22t45 46t16.5 73.5q0 34 -12.5 60.5t-27.5 42t-48 30t-51.5 20.5t-60.5 17
q-47 13 -77 25t-62 33.5t-48 56.5t-16 83q0 85 62.5 136.5t166.5 51.5q200 0 225 -199l-46 -5q-7 34 -15.5 56.5t-27 49.5t-52 41t-81.5 14zM242 -209l34 140h66l-58 -147z" />
    <glyph glyph-name="scommaaccent" unicode="&#x219;" horiz-adv-x="477" 
d="M241 518q87 0 124 -39t44 -113l-47 -6q-7 59 -33.5 87.5t-90.5 28.5q-65 0 -92.5 -26.5t-27.5 -66.5q0 -26 9.5 -44t31 -29.5t41 -17.5t54.5 -13q41 -9 62.5 -15.5t50.5 -22t42.5 -42t13.5 -64.5q0 -67 -46 -107t-134 -40q-84 0 -131.5 36.5t-59.5 119.5l47 9
q12 -57 42.5 -89t103.5 -32q58 0 92.5 24.5t34.5 76.5q0 48 -31 68.5t-95 32.5q-34 6 -52 10.5t-46 15.5t-42.5 24.5t-26 38t-11.5 56.5q0 66 50 102.5t123 36.5zM186 -209l34 140h66l-58 -147z" />
    <glyph glyph-name="uni021A" unicode="&#x21a;" horiz-adv-x="532" 
d="M290 0h-48v682h-222v42h492v-42h-222v-682zM207 -209l34 140h66l-58 -147z" />
    <glyph glyph-name="uni021B" unicode="&#x21b;" horiz-adv-x="364" 
d="M330 56l14 -38q-18 -13 -50 -21.5t-59 -8.5q-70 0 -99.5 30t-29.5 98v349h-81v43h81v145l49 8v-153h144v-43h-144v-339q0 -50 17 -73.5t66 -23.5q48 0 92 27zM158 -209l34 140h66l-58 -147z" />
    <glyph glyph-name="dotlessj" unicode="&#x237;" horiz-adv-x="233" 
d="M26 -223q-50 0 -78 15l9 43q34 -12 71 -12q68 0 68 84v601h49v-597q0 -69 -29 -101.5t-90 -32.5z" />
    <glyph glyph-name="apostrophe" unicode="&#x2bc;" horiz-adv-x="500" 
d="M192 541l33 140h66l-57 -146z" />
    <glyph glyph-name="circumflex" unicode="&#x2c6;" horiz-adv-x="500" 
d="M397 585l-47 -6l-101 129l-95 -132l-45 9l116 165h50z" />
    <glyph glyph-name="caron" unicode="&#x2c7;" horiz-adv-x="500" 
d="M104 737l51 7l96 -130l98 132l43 -9l-116 -165h-51z" />
    <glyph glyph-name="uni02C9" unicode="&#x2c9;" horiz-adv-x="500" 
d="M388 633h-277v45h277v-45z" />
    <glyph glyph-name="breve" unicode="&#x2d8;" horiz-adv-x="500" 
d="M345 728l43 -4q2 -69 -33.5 -109.5t-105.5 -40.5q-131 0 -133 148l44 6q4 -64 24.5 -88t65.5 -24q47 0 70.5 24.5t24.5 87.5z" />
    <glyph glyph-name="dotaccent" unicode="&#x2d9;" horiz-adv-x="500" 
d="M296 677q0 -42 -46 -42t-46 42q0 43 46 43t46 -43z" />
    <glyph glyph-name="ring" unicode="&#x2da;" horiz-adv-x="500" 
d="M352 674q0 -46 -27.5 -72t-74.5 -26q-46 0 -73.5 25t-27.5 67q0 48 29 73.5t72 25.5q45 0 73.5 -23t28.5 -70zM250 614q55 0 55 60q0 55 -55 55q-26 0 -41.5 -15.5t-15.5 -43.5q0 -56 57 -56z" />
    <glyph glyph-name="ogonek" unicode="&#x2db;" horiz-adv-x="500" 
d="M324 -140l36 -20q-15 -31 -44 -47t-59 -16q-38 0 -63 21t-25 59q0 78 104 163l46 -11q-49 -42 -72.5 -74t-23.5 -71q0 -19 11 -31t31 -12q36 0 59 39z" />
    <glyph glyph-name="tilde" unicode="&#x2dc;" horiz-adv-x="500" 
d="M169 699q33 0 82.5 -22.5t70.5 -22.5q22 0 32.5 11t10.5 47l38 -2q7 -56 -16 -79t-61 -23q-30 0 -81.5 23t-74.5 23q-40 0 -39 -60l-36 2q-7 55 16 79t58 24z" />
    <glyph glyph-name="hungarumlaut" unicode="&#x2dd;" horiz-adv-x="500" 
d="M319 749l-125 -177l-38 13l94 164h69zM449 750l-141 -178l-38 14l110 164h69z" />
    <glyph glyph-name="uni0394" unicode="&#x394;" horiz-adv-x="677" 
d="M303 724h70l244 -680v-44h-557v43zM564 42l-228 651l-227 -651h455z" />
    <glyph glyph-name="uni03A9" unicode="&#x3a9;" horiz-adv-x="774" 
d="M397 696q-75 0 -132 -24.5t-89 -67t-48 -92t-16 -106.5q0 -64 19 -114t52.5 -81t71 -49.5t81.5 -26.5v-135h-238v41h190v58q-97 31 -161.5 109.5t-64.5 193.5q0 150 88.5 242.5t248.5 92.5q79 0 140 -27t98 -73t56 -103t19 -121q0 -235 -225 -314v-58h189v-41h-237v135
q108 20 166.5 92.5t58.5 185.5q0 128 -72 205.5t-195 77.5z" />
    <glyph glyph-name="uni03BC" unicode="&#x3bc;" horiz-adv-x="593" 
d="M505 -9q-29 0 -44 16.5t-16 55.5q-37 -25 -55.5 -36.5t-59.5 -25t-83 -13.5q-76 0 -103 40v-240h-47v720h49v-343q0 -74 28.5 -103t79.5 -29q97 0 188 79v396h49v-436q0 -23 6.5 -31.5t24.5 -8.5q15 0 31 5l4 -32q-24 -14 -52 -14z" />
    <glyph glyph-name="pi" unicode="&#x3c0;" horiz-adv-x="594" 
d="M411 75v385h-224l-60 -460h-48l61 460h-108v48h525v-48h-97v-390q0 -40 39 -40q17 0 37 6l4 -32q-23 -12 -52 -12q-77 0 -77 83z" />
    <glyph glyph-name="Wgrave" unicode="&#x1e80;" horiz-adv-x="870" 
d="M680 0h-65l-174 673h-3l-184 -673h-57l-157 724h51l137 -661h2l178 661h63l175 -673h2l135 673h47zM471 767l-135 144h73l105 -130z" />
    <glyph glyph-name="wgrave" unicode="&#x1e81;" horiz-adv-x="721" 
d="M238 0h-59l-166 508h51l144 -459h2l123 459h62l122 -457h2l143 457h46l-163 -508h-61l-119 458h-2zM402 572l-144 179h72l113 -165z" />
    <glyph glyph-name="Wacute" unicode="&#x1e82;" horiz-adv-x="870" 
d="M680 0h-65l-174 673h-3l-184 -673h-57l-157 724h51l137 -661h2l178 661h63l175 -673h2l135 673h47zM548 911l-135 -144l-42 14l104 130h73z" />
    <glyph glyph-name="wacute" unicode="&#x1e83;" horiz-adv-x="721" 
d="M238 0h-59l-166 508h51l144 -459h2l123 459h62l122 -457h2l143 457h46l-163 -508h-61l-119 458h-2zM475 751l-143 -179l-42 14l113 165h72z" />
    <glyph glyph-name="Wdieresis" unicode="&#x1e84;" horiz-adv-x="870" 
d="M680 0h-65l-174 673h-3l-184 -673h-57l-157 724h51l137 -661h2l178 661h63l175 -673h2l135 673h47zM389 826q0 -20 -12 -31t-32 -11q-45 0 -45 42q0 20 12 31t33 11q20 0 32 -11.5t12 -30.5zM580 826q0 -20 -12 -31t-32 -11q-21 0 -33 11t-12 31q0 19 12.5 30.5
t32.5 11.5t32 -11.5t12 -30.5z" />
    <glyph glyph-name="wdieresis" unicode="&#x1e85;" horiz-adv-x="721" 
d="M238 0h-59l-166 508h51l144 -459h2l123 459h62l122 -457h2l143 457h46l-163 -508h-61l-119 458h-2zM312 665q0 -20 -12 -31t-32 -11q-45 0 -45 42q0 20 12 31t33 11q20 0 32 -11.5t12 -30.5zM503 665q0 -20 -12 -31t-32 -11q-21 0 -33 11t-12 31q0 19 12.5 30.5
t32.5 11.5t32 -11.5t12 -30.5z" />
    <glyph glyph-name="Ygrave" unicode="&#x1ef2;" horiz-adv-x="538" 
d="M297 291v-291h-48v287l-245 437h54l216 -384h1l210 384h49zM299 767l-135 144h73l105 -130z" />
    <glyph glyph-name="ygrave" unicode="&#x1ef3;" horiz-adv-x="457" 
d="M201 0l-184 508h52l159 -441h1l163 441h52l-232 -603q-28 -71 -64 -99.5t-87 -28.5q-41 0 -87 18l10 41q34 -16 80 -16q34 0 60 22t48 81zM259 572l-144 179h72l113 -165z" />
    <glyph glyph-name="thinspace" unicode="&#x2009;" horiz-adv-x="125" 
 />
    <glyph glyph-name="endash" unicode="&#x2013;" horiz-adv-x="500" 
d="M499 263h-499v39h499v-39z" />
    <glyph glyph-name="emdash" unicode="&#x2014;" horiz-adv-x="1000" 
d="M999 263h-999v39h999v-39z" />
    <glyph glyph-name="quoteleft" unicode="&#x2018;" horiz-adv-x="168" 
d="M159 764l-53 -204h-65l77 211z" />
    <glyph glyph-name="quoteright" unicode="&#x2019;" horiz-adv-x="168" 
d="M29 556l53 204h65l-77 -211z" />
    <glyph glyph-name="quotesinglbase" unicode="&#x201a;" horiz-adv-x="156" 
d="M18 -123l53 204h65l-77 -211z" />
    <glyph glyph-name="quotedblleft" unicode="&#x201c;" horiz-adv-x="303" 
d="M293 764l-53 -204h-65l77 211zM159 764l-53 -204h-65l77 211z" />
    <glyph glyph-name="quotedblright" unicode="&#x201d;" horiz-adv-x="303" 
d="M163 556l53 204h65l-77 -211zM29 556l53 204h65l-77 -211z" />
    <glyph glyph-name="quotedblbase" unicode="&#x201e;" horiz-adv-x="290" 
d="M18 -123l53 204h65l-77 -211zM151 -123l53 204h65l-77 -211z" />
    <glyph glyph-name="dagger" unicode="&#x2020;" horiz-adv-x="381" 
d="M361 510l-150 5l10 -598h-61l9 599l-149 -6v47l149 -7l-6 174h55l-7 -173l150 6v-47z" />
    <glyph glyph-name="daggerdbl" unicode="&#x2021;" horiz-adv-x="404" 
d="M372 510l-150 5l1 -390l149 6v-47l-149 7l7 -174h-56l8 173l-150 -6v47l150 -5l-1 390l-149 -6v47l149 -7l-7 174h56l-8 -173l150 6v-47z" />
    <glyph glyph-name="bullet" unicode="&#x2022;" horiz-adv-x="345" 
d="M300 280q0 -61 -33 -92.5t-95 -31.5q-61 0 -94 31.5t-33 92.5t33 92.5t94 31.5q62 0 95 -31.5t33 -92.5z" />
    <glyph glyph-name="ellipsis" unicode="&#x2026;" horiz-adv-x="590" 
d="M351 37q0 -49 -51 -49q-50 0 -50 49q0 48 50 48q51 0 51 -48zM155 37q0 -49 -51 -49q-50 0 -50 49q0 48 50 48q51 0 51 -48zM536 37q0 -49 -51 -49q-50 0 -50 49q0 48 50 48q51 0 51 -48z" />
    <glyph glyph-name="perthousand" unicode="&#x2030;" horiz-adv-x="973" 
d="M187 412q-71 0 -102.5 44.5t-31.5 113.5q0 74 37 120.5t104 46.5q134 0 134 -158q0 -77 -36 -122t-105 -45zM128 -18h-51l439 742h51zM190 455q86 0 86 121q0 117 -83 117q-47 0 -67 -37t-20 -84q0 -117 84 -117zM459 -12q-71 0 -102.5 44.5t-31.5 113.5q0 74 36.5 120.5
t104.5 46.5q69 0 101.5 -42.5t32.5 -115.5q0 -76 -36.5 -121.5t-104.5 -45.5zM462 31q86 0 86 121q0 117 -83 117q-47 0 -67 -37t-20 -84q0 -117 84 -117zM779 -12q-71 0 -102.5 44.5t-31.5 113.5q0 74 36.5 120.5t104.5 46.5q69 0 101.5 -42.5t32.5 -115.5
q0 -76 -36.5 -121.5t-104.5 -45.5zM782 31q86 0 86 121q0 117 -83 117q-47 0 -67 -37t-20 -84q0 -117 84 -117z" />
    <glyph glyph-name="guilsinglleft" unicode="&#x2039;" horiz-adv-x="278" 
d="M214 103h-55l-88 158l89 147h54l-84 -146z" />
    <glyph glyph-name="guilsinglright" unicode="&#x203a;" horiz-adv-x="278" 
d="M61 408h54l88 -156l-89 -149h-55l88 148z" />
    <glyph glyph-name="fraction" unicode="&#x2044;" horiz-adv-x="123" 
d="M-96 -12h-48l356 736h47z" />
    <glyph glyph-name="zerosuperior" unicode="&#x2070;" horiz-adv-x="390" 
d="M194 342q-37 0 -63.5 12t-42.5 31t-25 49.5t-12 61t-3 71.5q0 52 6.5 90.5t22 71.5t46.5 50.5t77 17.5q44 0 73.5 -17t44 -50t19.5 -69t5 -86q0 -54 -6 -93t-21.5 -72.5t-45.5 -50.5t-75 -17zM196 386q30 0 49 12.5t29 38.5t13.5 57t3.5 77q0 93 -18 137t-75 44
q-58 0 -79 -46t-21 -140q0 -90 20 -135t78 -45z" />
    <glyph glyph-name="foursuperior" unicode="&#x2074;" horiz-adv-x="354" 
d="M276 349h-48v108h-210v38l197 294h61v-289h53v-43h-53v-108zM70 500h159v239z" />
    <glyph glyph-name="fivesuperior" unicode="&#x2075;" horiz-adv-x="377" 
d="M63 567l17 222h211v-42h-171l-14 -151q41 32 89 32q52 0 88 -31t36 -103q0 -68 -40 -110t-110 -42q-51 0 -87.5 26t-44.5 76l45 12q16 -71 89 -71q39 0 67 26.5t28 81.5q0 48 -23 71t-61 23q-42 0 -83 -36z" />
    <glyph glyph-name="sixsuperior" unicode="&#x2076;" horiz-adv-x="406" 
d="M345 704l-43 -13q-14 65 -72 65q-32 0 -54.5 -17.5t-34 -47.5t-17 -60.5t-5.5 -64.5q18 20 48.5 35.5t63.5 15.5q60 0 90 -35t30 -92q0 -70 -37.5 -109t-102.5 -39q-78 0 -109 56.5t-31 155.5q0 41 7 79.5t24 77.5t51.5 62.5t81.5 23.5q90 0 110 -93zM121 525
q2 -32 6 -52.5t13 -43.5t28 -34.5t47 -11.5q40 0 63.5 26t23.5 78q0 89 -76 89q-27 0 -57 -15.5t-48 -35.5z" />
    <glyph glyph-name="sevensuperior" unicode="&#x2077;" horiz-adv-x="339" 
d="M133 349h-51l186 397h-230v43h282v-38z" />
    <glyph glyph-name="eightsuperior" unicode="&#x2078;" horiz-adv-x="373" 
d="M233 577q24 -11 37 -18t29.5 -20.5t24 -33t7.5 -45.5q0 -51 -39.5 -84.5t-105.5 -33.5q-70 0 -105 30.5t-35 80.5q0 82 96 120q-37 15 -59.5 43.5t-22.5 65.5q0 55 38.5 85t98.5 30q59 0 93 -27t34 -74q0 -68 -91 -119zM182 554q-87 -31 -87 -99q0 -72 93 -72
q48 0 71.5 22.5t23.5 54.5q0 21 -8.5 36.5t-26.5 27t-30.5 17t-35.5 13.5zM192 593q85 42 85 102q0 62 -84 62q-39 0 -61.5 -18t-22.5 -49q0 -35 20 -57t63 -40z" />
    <glyph glyph-name="ninesuperior" unicode="&#x2079;" horiz-adv-x="406" 
d="M58 442l45 12q9 -38 29 -54.5t54 -16.5q102 0 107 182q-18 -20 -49 -34.5t-65 -14.5q-59 0 -89.5 36t-30.5 95q0 70 37.5 110t101.5 40q79 0 110 -57.5t31 -155.5q0 -242 -158 -242q-48 0 -81 25.5t-42 74.5zM290 607q-2 31 -5.5 53t-13 46.5t-29 37.5t-47.5 13
q-40 0 -63 -26.5t-23 -81.5q0 -91 77 -91q60 0 104 49z" />
    <glyph glyph-name="plussuperior" unicode="&#x207a;" horiz-adv-x="433" 
d="M239 449h-45v95h-94v42h94v93h45v-93h93v-42h-93v-95z" />
    <glyph glyph-name="minussuperior" unicode="&#x207b;" horiz-adv-x="433" 
d="M334 551h-234v42h234v-42z" />
    <glyph glyph-name="equalsuperior" unicode="&#x207c;" horiz-adv-x="436" 
d="M335 481h-232v43h232v-43zM335 575h-232v44h232v-44z" />
    <glyph glyph-name="parenleftsuperior" unicode="&#x207d;" horiz-adv-x="230" 
d="M200 276h-48q-89 133 -89 263q0 135 94 269h49q-94 -147 -94 -269q0 -75 22.5 -136t65.5 -127z" />
    <glyph glyph-name="parenrightsuperior" unicode="&#x207e;" horiz-adv-x="297" 
d="M24 808h51q96 -139 96 -270q0 -133 -88 -262h-51q87 137 87 263q0 125 -95 269z" />
    <glyph glyph-name="zeroinferior" unicode="&#x2080;" horiz-adv-x="390" 
d="M194 -154q-37 0 -63.5 12t-42.5 31t-25 49.5t-12 61t-3 71.5q0 52 6.5 90.5t22 71.5t46.5 50.5t77 17.5q44 0 73.5 -17t44 -50t19.5 -69t5 -86q0 -54 -6 -93t-21.5 -72.5t-45.5 -50.5t-75 -17zM196 -110q30 0 49 12.5t29 38.5t13.5 57t3.5 77q0 93 -18 137t-75 44
q-58 0 -79 -46t-21 -140q0 -90 20 -135t78 -45z" />
    <glyph glyph-name="oneinferior" unicode="&#x2081;" horiz-adv-x="283" 
d="M193 -149h-48v372q-14 -8 -46.5 -14t-51.5 -6l-3 37q83 6 123 51h26v-440z" />
    <glyph glyph-name="twoinferior" unicode="&#x2082;" horiz-adv-x="372" 
d="M191 301q55 0 87 -27t32 -82q0 -33 -14.5 -66t-29.5 -53.5t-54 -69.5l-97 -106h202v-44h-257v40l107 126q38 46 53.5 66.5t28 48.5t12.5 57q0 68 -77 68q-43 0 -60 -19.5t-23 -57.5l-44 9q17 110 134 110z" />
    <glyph glyph-name="threeinferior" unicode="&#x2083;" horiz-adv-x="390" 
d="M49 -49l46 9q8 -36 24.5 -54t58.5 -18q40 0 65.5 21.5t25.5 67.5q0 86 -100 86h-39v41h29q48 0 76 24.5t28 62.5q0 67 -75 67q-40 0 -57.5 -15.5t-26.5 -48.5l-44 9q19 98 133 98q57 0 87.5 -28.5t30.5 -75.5q0 -45 -26.5 -71.5t-61.5 -35.5v-1q96 -17 96 -114
q0 -58 -38.5 -93.5t-102.5 -35.5q-54 0 -88.5 27t-40.5 78z" />
    <glyph glyph-name="fourinferior" unicode="&#x2084;" horiz-adv-x="354" 
d="M276 -147h-48v108h-210v38l197 294h61v-289h53v-43h-53v-108zM70 4h159v239z" />
    <glyph glyph-name="fiveinferior" unicode="&#x2085;" horiz-adv-x="377" 
d="M63 71l17 222h211v-42h-171l-14 -151q41 32 89 32q52 0 88 -31t36 -103q0 -68 -40 -110t-110 -42q-51 0 -87.5 26t-44.5 76l45 12q16 -71 89 -71q39 0 67 26.5t28 81.5q0 48 -23 71t-61 23q-42 0 -83 -36z" />
    <glyph glyph-name="sixinferior" unicode="&#x2086;" horiz-adv-x="406" 
d="M345 208l-43 -13q-14 65 -72 65q-32 0 -54.5 -17.5t-34 -47.5t-17 -60.5t-5.5 -64.5q18 20 48.5 35.5t63.5 15.5q60 0 90 -35t30 -92q0 -70 -37.5 -109t-102.5 -39q-78 0 -109 56.5t-31 155.5q0 41 7 79.5t24 77.5t51.5 62.5t81.5 23.5q90 0 110 -93zM121 29
q2 -32 6 -52.5t13 -43.5t28 -34.5t47 -11.5q40 0 63.5 26t23.5 78q0 89 -76 89q-27 0 -57 -15.5t-48 -35.5z" />
    <glyph glyph-name="seveninferior" unicode="&#x2087;" horiz-adv-x="339" 
d="M133 -147h-51l186 397h-230v43h282v-38z" />
    <glyph glyph-name="eightinferior" unicode="&#x2088;" horiz-adv-x="373" 
d="M233 81q24 -11 37 -18t29.5 -20.5t24 -33t7.5 -45.5q0 -51 -39.5 -84.5t-105.5 -33.5q-70 0 -105 30.5t-35 80.5q0 82 96 120q-37 15 -59.5 43.5t-22.5 65.5q0 55 38.5 85t98.5 30q59 0 93 -27t34 -74q0 -68 -91 -119zM182 58q-87 -31 -87 -99q0 -72 93 -72
q48 0 71.5 22.5t23.5 54.5q0 21 -8.5 36.5t-26.5 27t-30.5 17t-35.5 13.5zM192 97q85 42 85 102q0 62 -84 62q-39 0 -61.5 -18t-22.5 -49q0 -35 20 -57t63 -40z" />
    <glyph glyph-name="nineinferior" unicode="&#x2089;" horiz-adv-x="406" 
d="M58 -54l45 12q9 -38 29 -54.5t54 -16.5q102 0 107 182q-18 -20 -49 -34.5t-65 -14.5q-59 0 -89.5 36t-30.5 95q0 70 37.5 110t101.5 40q79 0 110 -57.5t31 -155.5q0 -242 -158 -242q-48 0 -81 25.5t-42 74.5zM290 111q-2 31 -5.5 53t-13 46.5t-29 37.5t-47.5 13
q-40 0 -63 -26.5t-23 -81.5q0 -91 77 -91q60 0 104 49z" />
    <glyph glyph-name="parenleftinferior" unicode="&#x208d;" horiz-adv-x="230" 
d="M200 -220h-48q-89 133 -89 263q0 135 94 269h49q-94 -147 -94 -269q0 -75 22.5 -136t65.5 -127z" />
    <glyph glyph-name="parenrightinferior" unicode="&#x208e;" horiz-adv-x="297" 
d="M24 312h51q96 -139 96 -270q0 -133 -88 -262h-51q87 137 87 263q0 125 -95 269z" />
    <glyph glyph-name="Euro" unicode="&#x20ac;" horiz-adv-x="589" 
d="M342 -12q-47 0 -86 11t-76 39t-62 83t-34 135h-86l7 42h75q-1 16 -1 50q0 23 2 65h-66l7 42h63q37 282 275 282q92 0 147.5 -49.5t61.5 -149.5l-46 -6q-11 85 -48.5 123t-117.5 38q-104 0 -155 -63t-65 -175h258l-8 -42h-254q-2 -21 -2 -64q0 -35 1 -51h236l-8 -42h-224
q12 -111 62 -167t145 -56q150 0 177 140l44 -13q-15 -88 -77 -130t-145 -42z" />
    <glyph glyph-name="afii61352" unicode="&#x2116;" horiz-adv-x="1051" 
d="M704 289v47h273v-47h-273zM834 390q-78 0 -115.5 46t-37.5 126q0 77 40 122t119 45q77 0 114 -44t37 -119q0 -83 -39 -129.5t-118 -46.5zM836 429q107 0 107 132q0 126 -104 126q-54 0 -83 -32t-29 -94q0 -64 27.5 -98t81.5 -34zM593 0h-65l-369 679v-679h-47v724h77
l358 -664v664h46v-724z" />
    <glyph glyph-name="trademark" unicode="&#x2122;" horiz-adv-x="816" 
d="M751 348h-42v291l-120 -291h-35l-117 292v-292h-44v376h56l124 -307l128 307h50v-376zM198 683v-335h-46v335h-136v41h319v-41h-137z" />
    <glyph glyph-name="Omega" unicode="&#x2126;" horiz-adv-x="774" 
d="M397 696q-75 0 -132 -24.5t-89 -67t-48 -92t-16 -106.5q0 -64 19 -114t52.5 -81t71 -49.5t81.5 -26.5v-135h-238v41h190v58q-97 31 -161.5 109.5t-64.5 193.5q0 150 88.5 242.5t248.5 92.5q79 0 140 -27t98 -73t56 -103t19 -121q0 -235 -225 -314v-58h189v-41h-237v135
q108 20 166.5 92.5t58.5 185.5q0 128 -72 205.5t-195 77.5z" />
    <glyph glyph-name="onethird" unicode="&#x2153;" horiz-adv-x="829" 
d="M217 -12h-48l356 736h47zM203 279h-48v372q-14 -8 -46.5 -14t-51.5 -6l-3 37q83 6 123 51h26v-440zM498 98l46 9q8 -36 24.5 -54t58.5 -18q40 0 65.5 21.5t25.5 67.5q0 86 -100 86h-39v41h29q48 0 76 24.5t28 62.5q0 67 -75 67q-40 0 -57.5 -15.5t-26.5 -48.5l-44 9
q19 98 133 98q57 0 87.5 -28.5t30.5 -75.5q0 -45 -26.5 -71.5t-61.5 -35.5v-1q96 -17 96 -114q0 -58 -38.5 -93.5t-102.5 -35.5q-54 0 -88.5 27t-40.5 78z" />
    <glyph glyph-name="twothirds" unicode="&#x2154;" horiz-adv-x="829" 
d="M251 -12h-48l356 736h47zM169 729q55 0 87 -27t32 -82q0 -33 -14.5 -66t-29.5 -53.5t-54 -69.5l-97 -106h202v-44h-257v40l107 126q38 46 53.5 66.5t28 48.5t12.5 57q0 68 -77 68q-43 0 -60 -19.5t-23 -57.5l-44 9q17 110 134 110zM517 98l46 9q8 -36 24.5 -54t58.5 -18
q40 0 65.5 21.5t25.5 67.5q0 86 -100 86h-39v41h29q48 0 76 24.5t28 62.5q0 67 -75 67q-40 0 -57.5 -15.5t-26.5 -48.5l-44 9q19 98 133 98q57 0 87.5 -28.5t30.5 -75.5q0 -45 -26.5 -71.5t-61.5 -35.5v-1q96 -17 96 -114q0 -58 -38.5 -93.5t-102.5 -35.5q-54 0 -88.5 27
t-40.5 78z" />
    <glyph glyph-name="arrow.left" unicode="&#x2190;" 
d="M510 299v-46h-378l66 -124h-54l-84 145l85 149h52l-64 -124h377z" />
    <glyph glyph-name="arrow.up" unicode="&#x2191;" 
d="M310 51h-47v382l-125 -66v47l149 86l146 -84v-51l-123 69v-383z" />
    <glyph glyph-name="arrow.right" unicode="&#x2192;" 
d="M60 253v46h377l-64 124h52l85 -149l-84 -145h-54l66 124h-378z" />
    <glyph glyph-name="arrow.down" unicode="&#x2193;" 
d="M262 500h47v-383l123 69v-51l-146 -84l-149 86v47l125 -66v382z" />
    <glyph glyph-name="arrow.leftup" unicode="&#x2196;" 
d="M473 133l-32 -32l-267 269l-45 -134l-35 33l46 166l163 43l34 -36l-130 -38z" />
    <glyph glyph-name="arrow.rightup" unicode="&#x2197;" 
d="M126 101l-32 32l266 271l-130 38l34 36l163 -43l46 -166l-35 -33l-45 134z" />
    <glyph glyph-name="arrowleft.down" unicode="&#x2198;" 
d="M441 478l32 -32l-266 -271l130 -38l-34 -36l-163 43l-46 166l35 33l45 -134z" />
    <glyph glyph-name="arrowright.down" unicode="&#x2199;" 
d="M94 446l32 32l267 -269l45 134l35 -33l-46 -166l-163 -43l-34 36l130 38z" />
    <glyph glyph-name="arrowleft.alt" unicode="&#x21d0;" 
d="M268 372l237 25v-247l-237 21v-116l-218 218l218 214v-115z" />
    <glyph glyph-name="arrowup.alt" unicode="&#x21d1;" 
d="M385 291l25 -237h-247l21 237h-116l218 218l214 -218h-115z" />
    <glyph glyph-name="arrowright.alt" unicode="&#x21d2;" 
d="M65 397l237 -25v115l218 -214l-218 -218v116l-237 -21v247z" />
    <glyph glyph-name="arrowdown.alt" unicode="&#x21d3;" 
d="M410 496l-25 -237h115l-214 -218l-218 218h116l-21 237h247z" />
    <glyph glyph-name="arrowleftup.alt" unicode="&#x21d6;" 
d="M334 357l185 -150l-175 -175l-152 183l-82 -83v309l305 -3z" />
    <glyph glyph-name="arrowrightup.alt" unicode="&#x21d7;" 
d="M375 217l-150 -185l-175 175l183 152l-83 82h309l-3 -305z" />
    <glyph glyph-name="arrowleftdown.alt" unicode="&#x21d8;" 
d="M194 355l150 185l175 -175l-183 -152l83 -82h-309l3 305z" />
    <glyph glyph-name="arrowrightdown.alt" unicode="&#x21d9;" 
d="M235 215l-185 150l175 175l152 -183l82 83v-309l-305 3z" />
    <glyph glyph-name="partialdiff" unicode="&#x2202;" horiz-adv-x="539" 
d="M423 330q3 23 3 80q0 39 -6 73.5t-20.5 69t-44.5 55t-73 20.5q-77 0 -155 -49l-24 33q92 59 177 59q195 0 195 -274q0 -50 -4.5 -98t-20.5 -107t-41 -102t-71 -72.5t-106 -29.5q-90 0 -134.5 50.5t-44.5 135.5q0 102 53 169t145 67q100 0 172 -80zM420 276q-27 33 -72 61
t-99 28q-51 0 -85 -28.5t-47 -68t-13 -87.5q0 -68 33 -109t94 -41q41 0 74 18t51.5 42.5t33 62t20 63t10.5 59.5z" />
    <glyph glyph-name="Delta" unicode="&#x2206;" horiz-adv-x="677" 
d="M303 724h70l244 -680v-44h-557v43zM564 42l-228 651l-227 -651h455z" />
    <glyph glyph-name="product" unicode="&#x220f;" horiz-adv-x="761" 
d="M626 724v-885h-49v842h-393v-842h-48v885h490z" />
    <glyph glyph-name="summation" unicode="&#x2211;" horiz-adv-x="627" 
d="M326 278l-240 -410h482v-44h-536v42l240 414l-218 403v41h512v-44h-455z" />
    <glyph glyph-name="minus" unicode="&#x2212;" 
d="M471 295h-370v51h370v-51z" />
    <glyph glyph-name="uni2215" unicode="&#x2215;" horiz-adv-x="123" 
d="M-96 -12h-48l356 736h47z" />
    <glyph glyph-name="uni2219" unicode="&#x2219;" horiz-adv-x="289" 
d="M201 307q0 -56 -57 -56q-56 0 -56 56q0 55 56 55q57 0 57 -55z" />
    <glyph glyph-name="radical" unicode="&#x221a;" 
d="M329 0h-55l-145 261l-75 -32l-15 34l118 50l140 -255l182 684l45 -11z" />
    <glyph glyph-name="infinity" unicode="&#x221e;" horiz-adv-x="671" 
d="M336 285q-1 -1 -11 -12t-13.5 -14.5l-14 -13.5t-16.5 -14.5l-16.5 -12.5t-19.5 -11.5l-20.5 -8t-23.5 -6.5t-24 -2q-50 0 -87.5 33.5t-37.5 93.5q0 58 37.5 95.5t97.5 37.5q33 0 64.5 -16.5t47 -31t44.5 -45.5q49 54 77 70q36 23 76 23q53 0 88 -33.5t35 -99.5
q0 -53 -37 -89.5t-92 -36.5q-12 0 -23 2t-20 4t-19 7l-16.5 8.5t-15.5 11l-13.5 11t-13.5 13t-11.5 12.5t-11.5 13t-10 12zM308 323q-31 39 -59.5 60t-64.5 21q-32 0 -53 -24.5t-21 -56.5q0 -35 17.5 -61.5t53.5 -26.5q16 0 31.5 5.5t31.5 19l23.5 20t24.5 24.5zM372 319
q2 -3 16 -19t18.5 -20l17 -15.5t20.5 -15.5t20 -8t25 -4q32 0 52 25.5t20 58.5q0 34 -16.5 59t-52.5 25q-10 0 -19.5 -2t-19.5 -8l-16.5 -10t-17.5 -15l-15 -15t-16.5 -18.5t-15.5 -17.5z" />
    <glyph glyph-name="integral" unicode="&#x222b;" horiz-adv-x="411" 
d="M58 -172l-6 47q44 -22 90 -22q33 0 52.5 17.5t16.5 54.5l-54 670q-6 67 29 99.5t94 32.5q42 0 82 -18l5 -50q-43 24 -90 24q-33 0 -52.5 -18t-17.5 -54l55 -668q6 -68 -28 -100t-94 -32q-45 0 -82 17z" />
    <glyph glyph-name="approxequal" unicode="&#x2248;" 
d="M173 318q33 0 121.5 -24t108.5 -24q23 0 33 11t10 47l40 -1q7 -56 -17.5 -79.5t-61.5 -23.5q-30 0 -119.5 24t-112.5 24q-41 0 -39 -60l-37 2q-7 54 17 79t57 25zM174 496q33 0 121.5 -24t108.5 -24q23 0 33 11t10 47l40 -1q7 -56 -17.5 -79.5t-61.5 -23.5
q-30 0 -119.5 24t-112.5 24q-41 0 -39 -60l-37 2q-7 54 17 79t57 25z" />
    <glyph glyph-name="notequal" unicode="&#x2260;" 
d="M468 193h-204l-58 -113h-53l59 113h-109v45h131l51 97h-182v45h205l53 104h50l-53 -104h110v-45h-133l-50 -97h183v-45z" />
    <glyph glyph-name="lessequal" unicode="&#x2264;" 
d="M460 94l-371 151v57l371 164v-50l-320 -141l320 -132v-49zM460 0h-370v43h370v-43z" />
    <glyph glyph-name="greaterequal" unicode="&#x2265;" 
d="M460 245l-371 -151v49l322 133l-322 140v50l371 -164v-57zM459 0h-370v43h370v-43z" />
    <glyph glyph-name="triangle" unicode="&#x25b3;" horiz-adv-x="425" 
d="M335 320l-185 -117v231z" />
    <glyph glyph-name="lozenge" unicode="&#x25ca;" 
d="M310 -17h-50l-157 324l157 324h50l157 -324zM285 35l126 272l-126 273l-126 -273z" />
    <glyph glyph-name="circle" unicode="&#x25cb;" horiz-adv-x="610" 
d="M305 119q-85 0 -145 60t-60 145t60 145t145 60t145 -60t60 -145t-60 -145t-145 -60z" />
    <glyph glyph-name="germandbls.sc" unicode="&#xf637;" horiz-adv-x="928" 
d="M259 514q-131 0 -131 -99q0 -19 5 -34.5t17.5 -27t22 -18.5t32 -14.5t32.5 -10.5t38 -10q38 -10 60.5 -18t49.5 -24.5t39.5 -43.5t12.5 -65q0 -81 -53.5 -119.5t-136.5 -38.5q-172 0 -198 152l50 7q13 -54 44.5 -84t103.5 -30q26 0 49 4.5t44 16t33 33t12 52.5
q0 29 -10.5 49t-34 33t-42.5 19t-54 15q-32 8 -50 13t-44 17.5t-40 27t-24.5 39.5t-10.5 57q0 66 51 106t131 40q159 0 177 -152l-47 -7q-9 51 -36 83t-92 32zM709 514q-131 0 -131 -99q0 -19 5 -34.5t17.5 -27t22 -18.5t32 -14.5t32.5 -10.5t38 -10q38 -10 60.5 -18
t49.5 -24.5t39.5 -43.5t12.5 -65q0 -81 -53.5 -119.5t-136.5 -38.5q-172 0 -198 152l50 7q13 -54 44.5 -84t103.5 -30q26 0 49 4.5t44 16t33 33t12 52.5q0 29 -10.5 49t-34 33t-42.5 19t-54 15q-32 8 -50 13t-44 17.5t-40 27t-24.5 39.5t-10.5 57q0 66 51 106t131 40
q159 0 177 -152l-47 -7q-9 51 -36 83t-92 32z" />
    <glyph glyph-name="commaaccent" unicode="&#xf6c3;" horiz-adv-x="500" 
d="M186 -209l34 140h66l-58 -147z" />
    <glyph glyph-name="commainferior" unicode="&#xf6e1;" horiz-adv-x="177" 
d="M29 -220l34 130h56l-50 -136z" />
    <glyph glyph-name="commasuperior" unicode="&#xf6e2;" horiz-adv-x="177" 
d="M29 276l34 130h56l-50 -136z" />
    <glyph glyph-name="hypheninferior" unicode="&#xf6e5;" horiz-adv-x="216" 
d="M189 14h-169v46h169v-46z" />
    <glyph glyph-name="hyphensuperior" unicode="&#xf6e6;" horiz-adv-x="216" 
d="M189 510h-169v46h169v-46z" />
    <glyph glyph-name="periodinferior" unicode="&#xf6e7;" horiz-adv-x="185" 
d="M131 -117q0 -37 -39 -37q-38 0 -38 37t38 37q39 0 39 -37z" />
    <glyph glyph-name="periodsuperior" unicode="&#xf6e8;" horiz-adv-x="185" 
d="M131 379q0 -37 -39 -37q-38 0 -38 37t38 37q39 0 39 -37z" />
    <glyph glyph-name="s_t" unicode="&#xfb06;" horiz-adv-x="814" 
d="M242 518q87 0 124 -39t44 -113l-47 -6q-7 59 -33.5 87.5t-90.5 28.5q-65 0 -92.5 -26.5t-27.5 -66.5q0 -26 9.5 -44t31 -29.5t41 -17.5t54.5 -13q41 -9 62.5 -15.5t50.5 -22t42.5 -42t13.5 -64.5q0 -67 -46 -107t-134 -40q-84 0 -131.5 36.5t-59.5 119.5l47 9
q12 -57 42.5 -89t103.5 -32q58 0 92.5 24.5t34.5 76.5q0 48 -31 68.5t-95 32.5q-34 6 -52 10.5t-46 15.5t-42.5 24.5t-26 38t-11.5 56.5q0 66 50 102.5t123 36.5zM780 56l14 -38q-18 -13 -50 -21.5t-59 -8.5q-70 0 -99.5 30t-29.5 98v537l49 8v-153h144v-43h-144v-339
q0 -50 17 -73.5t66 -23.5q48 0 92 27z" />
    <glyph glyph-name="hyphen.case" horiz-adv-x="318" 
d="M291 334h-271v51h271v-51z" />
    <glyph glyph-name="zero.osf" horiz-adv-x="612" 
d="M304 -12q-56 0 -99.5 17.5t-69 45t-42 67t-22.5 78.5t-6 84q0 58 12.5 108.5t39.5 94.5t77.5 69.5t119.5 25.5q67 0 114 -23.5t72 -65.5t36 -89.5t11 -104.5q0 -59 -11 -110t-37 -97t-76 -73t-119 -27zM307 33q99 0 144.5 70t45.5 185q0 244 -185 244
q-102 0 -149.5 -69.5t-47.5 -189.5q0 -106 46 -173t146 -67z" />
    <glyph glyph-name="one.osf" horiz-adv-x="383" 
d="M254 0h-46v486q-21 -17 -71.5 -28t-82.5 -11l-7 40q69 5 113.5 24t78.5 59h15v-570z" />
    <glyph glyph-name="two.osf" horiz-adv-x="510" 
d="M262 578q81 0 129 -40.5t48 -123.5q0 -76 -39 -129t-132 -131l-134 -110h312v-44h-382v37l152 131q100 87 125 116q48 57 48 127q0 123 -130 123q-79 0 -111.5 -35.5t-44.5 -101.5l-46 8q27 173 205 173z" />
    <glyph glyph-name="three.osf" horiz-adv-x="498" 
d="M31 80l49 9q5 -25 12 -44t22 -39.5t43.5 -31.5t69.5 -11q148 0 148 136q0 68 -41.5 102t-111.5 34h-70v44h38q80 0 130 42.5t50 104.5q0 46 -28.5 76.5t-95.5 30.5q-69 0 -102.5 -28.5t-50.5 -87.5l-45 11q17 76 69.5 113t128.5 37q83 0 130 -40.5t47 -110.5
q0 -120 -139 -163v-2q143 -24 143 -165q0 -83 -52.5 -131.5t-148.5 -48.5q-176 0 -195 163z" />
    <glyph glyph-name="four.osf" horiz-adv-x="512" 
d="M397 -67h-48v152h-331v37l315 448h65v-442h88v-43h-89v-152zM76 128h274v394z" />
    <glyph glyph-name="five.osf" horiz-adv-x="517" 
d="M81 239l23 324h321v-43h-279l-22 -248q63 57 149 57q78 0 132 -48t54 -145q0 -94 -53.5 -156.5t-157.5 -62.5q-76 0 -132 41t-69 119l46 11q30 -126 157 -126q68 0 113 40.5t45 132.5q0 68 -35.5 109.5t-105.5 41.5q-80 0 -148 -63z" />
    <glyph glyph-name="six.osf" horiz-adv-x="539" 
d="M484 496l-45 -11q-16 67 -48.5 90.5t-86.5 23.5q-180 0 -187 -304q30 40 80.5 71.5t106.5 31.5q90 0 135 -57t45 -139q0 -96 -50 -155t-153 -59q-52 0 -91 19.5t-62 49.5t-36.5 74.5t-18 86.5t-4.5 93q0 44 5 84.5t21 87t42 81t71 57t105 22.5q144 0 171 -147zM120 245
q1 -24 4.5 -48t14 -55t27.5 -54.5t47.5 -39.5t70.5 -16q69 0 109.5 40t40.5 125q0 74 -33.5 115t-96.5 41q-50 0 -99.5 -30.5t-84.5 -77.5z" />
    <glyph glyph-name="seven.osf" horiz-adv-x="499" 
d="M165 -67h-53l306 586h-368v44h419v-41z" />
    <glyph glyph-name="eight.osf" horiz-adv-x="504" 
d="M303 332q38 -16 60 -28t49 -32.5t39.5 -49t12.5 -66.5q0 -81 -59 -124.5t-156 -43.5q-101 0 -154.5 41t-53.5 116q0 67 39.5 108t118.5 76q-71 30 -105.5 66.5t-34.5 94.5q0 72 57 112.5t148 40.5q90 0 139.5 -36.5t49.5 -102.5q0 -56 -36.5 -94.5t-113.5 -77.5zM252 310
q-87 -33 -123 -69.5t-36 -95.5q0 -56 41 -85t118 -29q82 0 122.5 34t40.5 90q0 27 -11 49.5t-25.5 37.5t-40 29.5t-42 21.5t-44.5 17zM256 351q76 36 111.5 69t35.5 82q0 100 -143 100q-152 0 -152 -115q0 -50 39.5 -80t108.5 -56z" />
    <glyph glyph-name="nine.osf" horiz-adv-x="555" 
d="M69 61l46 13q16 -65 52.5 -89t88.5 -24q47 0 81.5 20t53 49t30 73t14.5 80.5t4 84.5q-26 -40 -77 -68t-108 -28q-89 0 -134 59.5t-45 141.5q0 93 53.5 152.5t152.5 59.5q207 0 207 -324q0 -344 -237 -344q-69 0 -118 34t-64 110zM437 323q-1 33 -7 64t-21.5 69.5
t-50 62.5t-83.5 24q-66 0 -108.5 -41t-42.5 -125q0 -75 33.5 -118t96.5 -43q111 0 183 107z" />
    <glyph glyph-name="dollar.osf" horiz-adv-x="518" 
d="M403 461q-12 57 -41 83t-79 31v-244q79 -16 124 -52.5t45 -109.5q0 -68 -43 -111.5t-126 -55.5v-81h-39v79q-181 2 -204 163l49 10q11 -59 46 -91.5t108 -35.5v244q-90 18 -134 55t-44 110q0 76 50 117t127 48v72h41v-71q73 -9 114 -44.5t54 -106.5zM117 459
q0 -47 28.5 -75.5t97.5 -44.5v236q-60 -4 -93 -35t-33 -81zM399 168q0 47 -27.5 74t-88.5 40v-235q56 7 86 38.5t30 82.5z" />
    <glyph glyph-name="Euro.osf" horiz-adv-x="576" 
d="M329 -12q-112 0 -170.5 63.5t-74.5 170.5h-67l7 42h56q-1 14 -1 43q0 19 2 53h-48l7 42h47q21 113 89 176.5t169 63.5q92 0 148 -51t64 -152l-46 -4q-12 84 -49 123.5t-116 39.5q-75 0 -132 -46t-76 -150h245l-8 -42h-242q-2 -16 -2 -51q0 -31 1 -45h235l-8 -42h-222
q28 -191 196 -191q76 0 118 34t59 111l42 -12q-14 -91 -74.5 -133.5t-148.5 -42.5z" />
    <glyph glyph-name="cent.osf" horiz-adv-x="480" 
d="M251 626h40v-99q68 -4 110.5 -43t45.5 -110l-46 -6q-7 57 -32.5 83.5t-76.5 29.5v-402q50 4 77 31t39 80l44 -10q-22 -130 -160 -146v-99h-39v99q-95 7 -142 73t-47 174q0 110 50.5 173t136.5 72v100zM115 287q0 -194 138 -208v401q-138 -16 -138 -193z" />
    <glyph glyph-name="sterling.osf" horiz-adv-x="537" 
d="M24 44h52q73 75 73 155q0 37 -18 77h-109v42h87q-39 70 -39 132q0 87 59.5 139.5t151.5 52.5q90 0 138.5 -43.5t57.5 -138.5l-46 -5q-9 75 -42.5 109.5t-107.5 34.5t-117.5 -37.5t-43.5 -111.5q0 -52 42 -131h241v-43h-221q14 -38 14 -74q0 -84 -64 -158h218
q54 0 80.5 26.5t37.5 89.5l45 -9q-12 -80 -53 -115.5t-114 -35.5h-322v44z" />
    <glyph glyph-name="yen.osf" horiz-adv-x="500" 
d="M417 183h-137v-183h-49v183h-136v42h136v84h-136v42h105l-169 281h56l170 -289l163 289h51l-162 -281h108v-42h-137v-84h137v-42z" />
    <glyph glyph-name="florin.osf" horiz-adv-x="464" 
d="M500 558l-47 -19q-25 62 -81 62q-79 0 -98 -101l-25 -131h148l-10 -45h-148l-78 -367q-16 -75 -51 -107.5t-94 -32.5q-97 0 -127 91l47 19q14 -34 31 -49.5t49 -15.5q37 0 61 21.5t34 78.5l76 362h-75l10 45h75l27 136q27 140 149 140q94 0 127 -87z" />
    <glyph glyph-name="afii61352.osf" horiz-adv-x="931" 
d="M516 0h-64l-321 574v-574h-51v626h78l308 -554v554h50v-626zM734 286q-78 0 -116 46.5t-38 125.5q0 76 42.5 121.5t117.5 45.5q76 0 114 -44t38 -118q0 -83 -39.5 -130t-118.5 -47zM736 327q107 0 107 135q0 121 -104 121q-54 0 -83 -32t-29 -94q0 -130 109 -130z
M585 194v45h302v-45h-302z" />
    <glyph glyph-name="percent.osf" horiz-adv-x="849" 
d="M206 257q-80 0 -117 50t-37 126q0 83 43 135t119 52q78 0 115 -46.5t37 -127.5q0 -86 -41 -137.5t-119 -51.5zM209 303q103 0 103 139q0 132 -100 132q-56 0 -80.5 -41.5t-24.5 -95.5q0 -134 102 -134zM635 -12q-80 0 -117 50t-37 126q0 83 43 135t119 52q78 0 115 -46.5
t37 -127.5q0 -86 -41 -137.5t-119 -51.5zM638 34q103 0 103 139q0 132 -100 132q-56 0 -80.5 -41.5t-24.5 -95.5q0 -134 102 -134zM276 -12h-53l353 634h52z" />
    <glyph glyph-name="perthousand.osf" horiz-adv-x="1044" 
d="M189 296q-71 0 -102.5 44.5t-31.5 113.5q0 74 36.5 120.5t104.5 46.5q69 0 101.5 -42.5t32.5 -115.5q0 -76 -36.5 -121.5t-104.5 -45.5zM192 339q86 0 86 121q0 117 -83 117q-47 0 -67.5 -37t-20.5 -84q0 -117 85 -117zM530 -12q-71 0 -102.5 44.5t-31.5 113.5
q0 74 36.5 120.5t104.5 46.5q69 0 101.5 -42.5t32.5 -115.5q0 -76 -36.5 -121.5t-104.5 -45.5zM533 31q86 0 86 121q0 117 -83 117q-47 0 -67.5 -37t-20.5 -84q0 -117 85 -117zM850 -12q-71 0 -102.5 44.5t-31.5 113.5q0 74 36.5 120.5t104.5 46.5q69 0 101.5 -42.5
t32.5 -115.5q0 -76 -36.5 -121.5t-104.5 -45.5zM853 31q86 0 86 121q0 117 -83 117q-47 0 -67.5 -37t-20.5 -84q0 -117 85 -117zM206 -12h-53l373 634h52z" />
    <glyph glyph-name="zero.slash" 
d="M283 -12q-57 0 -98.5 21t-65 53.5t-37.5 83t-18 99.5t-4 113q0 80 9.5 142t33 118.5t72 87.5t118.5 31q56 0 97 -21.5t63.5 -54.5t35.5 -84t17 -97t4 -107q0 -67 -5 -119t-19.5 -104t-39 -86t-66 -55t-97.5 -21zM109 354q0 -219 72 -285l172 613q-28 11 -62 11
q-56 0 -93 -25.5t-56 -75t-26 -105.5t-7 -133zM286 32q55 0 91 25.5t53.5 75.5t24 103.5t6.5 129.5q0 110 -14 182.5t-56 109.5l-171 -614q27 -12 66 -12z" />
    <glyph glyph-name="zero.tf" 
d="M283 -12q-57 0 -98.5 21t-65 53.5t-37.5 83t-18 99.5t-4 113q0 80 9.5 142t33 118.5t72 87.5t118.5 31q56 0 97 -21.5t63.5 -54.5t35.5 -84t17 -97t4 -107q0 -67 -5 -119t-19.5 -104t-39 -86t-66 -55t-97.5 -21zM286 32q55 0 91 25.5t53.5 75.5t24 103.5t6.5 129.5
q0 49 -2 86t-8 76.5t-18 67.5t-30 51t-46.5 34.5t-65.5 11.5q-56 0 -93 -25.5t-56 -75t-26 -105.5t-7 -133q0 -55 3.5 -97.5t14.5 -86.5t30 -72.5t51.5 -47t77.5 -18.5z" />
    <glyph glyph-name="one.tf" 
d="M146 0v39h139v600q-24 -15 -75.5 -26t-80.5 -11l-7 38q72 6 116.5 25t77.5 59h16v-685h131v-39h-317z" />
    <glyph glyph-name="two.tf" 
d="M276 737q83 0 134 -42.5t51 -131.5q0 -80 -37 -148t-120 -169l-167 -205h333v-41h-391v35l180 224q90 113 120 169t30 131q0 135 -138 135q-41 0 -70 -11t-45 -32.5t-24 -42.5t-14 -52l-46 9q28 172 204 172z" />
    <glyph glyph-name="three.tf" 
d="M63 146l48 10q10 -55 42 -89t107 -34q68 0 115 41t47 126q0 165 -177 165h-60v42h46q83 0 132 44t49 113q0 130 -136 130q-70 0 -103 -31t-48 -90l-44 11q16 78 69 115.5t133 37.5q86 0 132.5 -46t46.5 -121q0 -82 -43 -124.5t-101 -53.5v-2q156 -22 156 -188
q0 -96 -57 -155t-159 -59q-85 0 -135 40.5t-60 117.5z" />
    <glyph glyph-name="four.tf" 
d="M438 0h-47v190h-346v36l329 498h65v-492h90v-42h-91v-190zM104 232h288v445z" />
    <glyph glyph-name="five.tf" 
d="M100 367l28 357h322v-43h-279l-25 -279q65 57 152 57q36 0 68 -10t62.5 -33.5t48 -69t17.5 -109.5q0 -110 -60 -179.5t-169 -69.5q-83 0 -137 40.5t-67 118.5l48 12q13 -56 47.5 -91t109.5 -35q71 0 123 50t52 155q0 90 -40.5 133.5t-107.5 43.5q-89 0 -157 -65z" />
    <glyph glyph-name="six.tf" 
d="M490 594l-44 -11q-16 64 -47.5 88t-80.5 24q-58 0 -99.5 -36.5t-61.5 -96t-28.5 -114.5t-9.5 -112q30 39 83.5 71t110.5 32q95 0 142 -58.5t47 -149.5q0 -111 -56.5 -177t-155.5 -66q-65 0 -110 28t-68 79t-32 108t-9 131q0 52 6 102t23 106.5t44 98t74 69t107 27.5
q138 0 165 -143zM122 286q3 -51 10.5 -89.5t24.5 -80t51.5 -64t83.5 -22.5q70 0 115.5 48t45.5 148q0 168 -141 168q-106 0 -190 -108z" />
    <glyph glyph-name="seven.tf" 
d="M192 0h-53l307 681h-389v43h443v-37z" />
    <glyph glyph-name="eight.tf" 
d="M329 372q38 -16 60.5 -28.5t51.5 -35.5t43 -56.5t14 -77.5q0 -84 -60.5 -135t-159.5 -51q-108 0 -161.5 50t-53.5 133q0 132 166 197q-61 24 -101.5 71.5t-40.5 114.5q0 88 58.5 135.5t148.5 47.5q89 0 141.5 -43t52.5 -121q0 -65 -43.5 -116t-115.5 -85zM274 348
q-79 -31 -119 -69.5t-40 -107.5q0 -64 41.5 -102.5t124.5 -38.5q85 0 126.5 44t41.5 103q0 23 -7 43.5t-14.5 34.5t-26 28l-28 21.5t-34.5 18t-32 13t-33 12.5zM283 388q156 73 156 186q0 58 -38.5 90t-112.5 32q-71 0 -111.5 -36t-40.5 -100q0 -68 37.5 -104.5t109.5 -67.5
z" />
    <glyph glyph-name="nine.tf" 
d="M63 135l46 11q25 -115 144 -115q55 0 93.5 26.5t59 76t30 108t10.5 134.5q-29 -39 -82.5 -70t-110.5 -31q-96 0 -143.5 61.5t-47.5 156.5q0 112 57 178t156 66q65 0 110.5 -28t68 -79t31.5 -108t9 -131q0 -85 -10 -151t-35 -126t-75.5 -93t-123.5 -33t-122.5 37
t-64.5 110zM443 429q-2 41 -6 72.5t-15 70t-28.5 64t-48.5 43t-72 17.5q-71 0 -116 -49t-45 -150q0 -87 37 -132t106 -45q54 0 103.5 31t84.5 78z" />
    <glyph glyph-name="dollar.tf" 
d="M433 530q-12 60 -38.5 94.5t-81.5 40.5v-293q33 -10 52 -17.5t45.5 -22.5t41 -32t25 -45t10.5 -63q0 -76 -45.5 -125t-127.5 -56v-90h-40v88q-88 3 -140.5 45.5t-65.5 138.5l48 12q14 -76 49 -112.5t106 -40.5v284q-34 10 -53 17t-46.5 22t-42 33.5t-25.5 49t-11 69.5
q0 83 51.5 129.5t127.5 53.5v82h41v-82q74 -8 115 -49t54 -121zM144 528q0 -61 33 -92t94 -51v280q-68 -5 -97.5 -43.5t-29.5 -93.5zM434 184q0 60 -31 89.5t-90 49.5v-270q55 7 88 40t33 91z" />
    <glyph glyph-name="Euro.tf" 
d="M321 -12q-47 0 -86 11t-76 39t-62 83t-34 135h-86l7 42h75q-1 16 -1 50q0 23 2 65h-66l7 42h63q37 282 275 282q92 0 147.5 -49.5t61.5 -149.5l-46 -6q-11 85 -48.5 123t-117.5 38q-104 0 -155 -63t-65 -175h258l-8 -42h-254q-2 -21 -2 -64q0 -35 1 -51h236l-8 -42h-224
q12 -111 62 -167t145 -56q150 0 177 140l44 -13q-15 -88 -77 -130t-145 -42z" />
    <glyph glyph-name="cent.tf" 
d="M277 691h40v-99q68 -4 110.5 -43t45.5 -110l-46 -6q-7 57 -32.5 83.5t-76.5 29.5v-402q50 4 77 31t39 80l44 -10q-22 -130 -160 -146v-99h-39v99q-95 7 -142 73t-47 174q0 110 50.5 173t136.5 72v100zM141 352q0 -194 138 -208v401q-138 -16 -138 -193z" />
    <glyph glyph-name="sterling.tf" 
d="M39 42h53q91 87 91 183q0 52 -28 106h-109v41h85q-48 93 -48 161q0 89 60.5 146.5t151.5 57.5t139 -43t58 -137l-46 -5q-9 72 -42 106.5t-107 34.5q-73 0 -119.5 -39t-46.5 -113q0 -63 49 -169h247v-41h-224q24 -57 24 -110q0 -100 -79 -179h215q53 0 78 27.5t36 92.5
l49 -11q-12 -80 -53 -115.5t-114 -35.5h-320v42z" />
    <glyph glyph-name="yen.tf" 
d="M444 248h-136v-248h-49v248h-137v42h137v99h-137v42h106l-170 293h57l169 -299h1l162 299h52l-164 -293h109v-42h-136v-99h136v-42z" />
    <glyph glyph-name="florin.tf" 
d="M570 650l-47 -19q-25 62 -81 62q-79 0 -98 -101l-28 -149h148l-10 -45h-148l-91 -439q-16 -75 -51 -107.5t-94 -32.5q-97 0 -127 91l47 19q14 -34 31 -49.5t49 -15.5q37 0 61 21.5t34 78.5l89 434h-75l10 45h75l30 154q27 140 149 140q94 0 127 -87z" />
    <glyph glyph-name="zeroslash.tosf" 
d="M283 -12q-57 0 -100.5 17.5t-69.5 45t-43 67t-23 78.5t-6 84q0 58 13 108.5t41 94.5t78.5 69.5t118.5 25.5q67 0 115 -23.5t73.5 -65.5t36.5 -89.5t11 -104.5q0 -59 -11.5 -110t-37.5 -97t-76.5 -73t-119.5 -27zM91 273q0 -164 97 -219l157 471q-30 7 -55 7
q-102 0 -150.5 -69.5t-48.5 -189.5zM285 32q100 0 146.5 70.5t46.5 185.5q0 170 -93 222l-155 -472q24 -6 55 -6z" />
    <glyph glyph-name="zero.tosf" 
d="M283 -12q-57 0 -100.5 17.5t-69.5 45t-43 67t-23 78.5t-6 84q0 58 13 108.5t41 94.5t78.5 69.5t118.5 25.5q67 0 115 -23.5t73.5 -65.5t36.5 -89.5t11 -104.5q0 -59 -11.5 -110t-37.5 -97t-76.5 -73t-119.5 -27zM285 32q100 0 146.5 70.5t46.5 185.5q0 244 -188 244
q-102 0 -150.5 -69.5t-48.5 -189.5q0 -106 47 -173.5t147 -67.5z" />
    <glyph glyph-name="one.tosf" 
d="M138 0v39h154v447q-21 -17 -71.5 -28t-82.5 -11l-7 40q69 5 113.5 24t78.5 59h15v-531h133v-39h-333z" />
    <glyph glyph-name="two.tosf" 
d="M296 578q81 0 129 -40.5t48 -123.5q0 -76 -39 -129t-132 -131l-134 -110h312v-44h-382v37l152 131q100 87 125 116q48 57 48 127q0 123 -130 123q-79 0 -111.5 -35.5t-44.5 -101.5l-46 8q27 173 205 173z" />
    <glyph glyph-name="three.tosf" 
d="M85 80l49 9q5 -25 12 -44t22 -39.5t43.5 -31.5t69.5 -11q148 0 148 136q0 68 -41.5 102t-111.5 34h-70v44h38q80 0 130 42.5t50 104.5q0 46 -28.5 76.5t-95.5 30.5q-69 0 -102.5 -28.5t-50.5 -87.5l-45 11q17 76 69.5 113t128.5 37q83 0 130 -40.5t47 -110.5
q0 -120 -139 -163v-2q143 -24 143 -165q0 -83 -52.5 -131.5t-148.5 -48.5q-176 0 -195 163z" />
    <glyph glyph-name="four.tosf" 
d="M439 -67h-47v153h-335v36l318 448h65v-442h90v-42h-91v-153zM116 128h277v394z" />
    <glyph glyph-name="five.tosf" 
d="M124 239l23 324h321v-43h-279l-22 -248q63 57 149 57q78 0 132 -48t54 -145q0 -94 -53.5 -156.5t-157.5 -62.5q-76 0 -132 41t-69 119l46 11q30 -126 157 -126q68 0 113 40.5t45 132.5q0 68 -35.5 109.5t-105.5 41.5q-80 0 -148 -63z" />
    <glyph glyph-name="six.tosf" 
d="M508 496l-45 -11q-16 67 -48.5 90.5t-86.5 23.5q-180 0 -187 -304q30 40 80.5 71.5t106.5 31.5q90 0 135 -57t45 -139q0 -96 -50 -155t-153 -59q-52 0 -91 19.5t-62 49.5t-36.5 74.5t-18 86.5t-4.5 93q0 44 5 84.5t21 87t42 81t71 57t105 22.5q144 0 171 -147zM144 245
q1 -24 4.5 -48t14 -55t27.5 -54.5t47.5 -39.5t70.5 -16q69 0 109.5 40t40.5 125q0 74 -33.5 115t-96.5 41q-50 0 -99.5 -30.5t-84.5 -77.5z" />
    <glyph glyph-name="seven.tosf" 
d="M201 -67h-53l306 586h-368v44h419v-41z" />
    <glyph glyph-name="eight.tosf" 
d="M339 332q38 -16 60 -28t49 -32.5t39.5 -49t12.5 -66.5q0 -81 -59 -124.5t-156 -43.5q-101 0 -154.5 41t-53.5 116q0 67 39.5 108t118.5 76q-71 30 -105.5 66.5t-34.5 94.5q0 72 57 112.5t148 40.5q90 0 139.5 -36.5t49.5 -102.5q0 -56 -36.5 -94.5t-113.5 -77.5zM288 310
q-87 -33 -123 -69.5t-36 -95.5q0 -56 41 -85t118 -29q82 0 122.5 34t40.5 90q0 27 -11 49.5t-25.5 37.5t-40 29.5t-42 21.5t-44.5 17zM292 351q76 36 111.5 69t35.5 82q0 100 -143 100q-152 0 -152 -115q0 -50 39.5 -80t108.5 -56z" />
    <glyph glyph-name="nine.tosf" 
d="M64 61l46 13q16 -65 52.5 -89t88.5 -24q47 0 81.5 20t53 49t30 73t14.5 80.5t4 84.5q-26 -40 -77 -68t-108 -28q-89 0 -134 59.5t-45 141.5q0 93 53.5 152.5t152.5 59.5q207 0 207 -324q0 -344 -237 -344q-69 0 -118 34t-64 110zM432 323q-1 33 -7 64t-21.5 69.5
t-50 62.5t-83.5 24q-66 0 -108.5 -41t-42.5 -125q0 -75 33.5 -118t96.5 -43q111 0 183 107z" />
    <glyph glyph-name="dollar.tosf" 
d="M422 461q-12 57 -41 83t-79 31v-244q79 -16 124 -52.5t45 -109.5q0 -68 -43 -111.5t-126 -55.5v-81h-39v79q-181 2 -204 163l49 10q11 -59 46 -91.5t108 -35.5v244q-90 18 -134 55t-44 110q0 76 50 117t127 48v72h41v-71q73 -9 114 -44.5t54 -106.5zM136 459
q0 -47 28.5 -75.5t97.5 -44.5v236q-60 -4 -93 -35t-33 -81zM418 168q0 47 -27.5 74t-88.5 40v-235q56 7 86 38.5t30 82.5z" />
    <glyph glyph-name="Euro.tosf" 
d="M305 -12q-112 0 -170.5 63.5t-74.5 170.5h-67l7 42h56q-1 14 -1 43q0 19 2 53h-48l7 42h47q21 113 89 176.5t169 63.5q92 0 148 -51t64 -152l-46 -4q-12 84 -49 123.5t-116 39.5q-75 0 -132 -46t-76 -150h245l-8 -42h-242q-2 -16 -2 -51q0 -31 1 -45h235l-8 -42h-222
q28 -191 196 -191q76 0 118 34t59 111l42 -12q-14 -91 -74.5 -133.5t-148.5 -42.5z" />
    <glyph glyph-name="cent.tosf" 
d="M289 626h40v-99q68 -4 110.5 -43t45.5 -110l-46 -6q-7 57 -32.5 83.5t-76.5 29.5v-402q50 4 77 31t39 80l44 -10q-22 -130 -160 -146v-99h-39v99q-95 7 -142 73t-47 174q0 110 50.5 173t136.5 72v100zM153 287q0 -194 138 -208v401q-138 -16 -138 -193z" />
    <glyph glyph-name="sterling.tosf" 
d="M54 44h52q73 75 73 155q0 37 -18 77h-109v42h87q-39 70 -39 132q0 87 59.5 139.5t151.5 52.5q90 0 138.5 -43.5t57.5 -138.5l-46 -5q-9 75 -42.5 109.5t-107.5 34.5t-117.5 -37.5t-43.5 -111.5q0 -52 42 -131h241v-43h-221q14 -38 14 -74q0 -84 -64 -158h218
q54 0 80.5 26.5t37.5 89.5l45 -9q-12 -80 -53 -115.5t-114 -35.5h-322v44z" />
    <glyph glyph-name="yen.tosf" 
d="M465 183h-137v-183h-49v183h-136v42h136v84h-136v42h105l-169 281h56l170 -289l163 289h51l-162 -281h108v-42h-137v-84h137v-42z" />
    <glyph glyph-name="florin.tosf" 
d="M596 558l-47 -19q-25 62 -81 62q-79 0 -98 -101l-25 -131h148l-10 -45h-148l-78 -367q-16 -75 -51 -107.5t-94 -32.5q-97 0 -127 91l47 19q14 -34 31 -49.5t49 -15.5q37 0 61 21.5t34 78.5l76 362h-75l10 45h75l27 136q27 140 149 140q94 0 127 -87z" />
    <glyph glyph-name="idotaccent" horiz-adv-x="236" 
d="M145 508v-508h-49v508h49zM169 677q0 -42 -46 -42t-46 42q0 43 46 43t46 -43z" />
    <glyph glyph-name="s_p" horiz-adv-x="1036" 
d="M551 -212v720h43l4 -65q88 75 188 75q185 0 185 -251q0 -140 -60 -209.5t-154 -69.5q-78 0 -159 56v-256h-47zM600 395v-302q78 -61 157 -61q163 0 163 240q0 110 -34 157.5t-109 47.5q-49 0 -98 -25t-79 -57zM241 518q87 0 124 -39t44 -113l-47 -6q-7 59 -33.5 87.5
t-90.5 28.5q-65 0 -92.5 -26.5t-27.5 -66.5q0 -26 9.5 -44t31 -29.5t41 -17.5t54.5 -13q41 -9 62.5 -15.5t50.5 -22t42.5 -42t13.5 -64.5q0 -67 -46 -107t-134 -40q-84 0 -131.5 36.5t-59.5 119.5l47 9q12 -57 42.5 -89t103.5 -32q58 0 92.5 24.5t34.5 76.5q0 48 -31 68.5
t-95 32.5q-34 6 -52 10.5t-46 15.5t-42.5 24.5t-26 38t-11.5 56.5q0 66 50 102.5t123 36.5z" />
    <glyph glyph-name="c_t" horiz-adv-x="858" 
d="M285 -12q-225 0 -225 264q0 132 61.5 199t174.5 67q76 0 126 -43t54 -122l-53 -6q-13 128 -133 128q-75 0 -127 -50.5t-52 -165.5q0 -124 49 -174.5t124 -50.5q126 0 146 116l50 -10q-13 -77 -67.5 -114.5t-127.5 -37.5zM824 56l14 -38q-18 -13 -50 -21.5t-59 -8.5
q-70 0 -99.5 30t-29.5 98v537l49 8v-153h144v-43h-144v-339q0 -50 17 -73.5t66 -23.5q48 0 92 27z" />
    <glyph glyph-name="c_h" horiz-adv-x="1093" 
d="M1005 342v-342h-49v340q0 66 -26 99t-88 33q-50 0 -102.5 -25t-82.5 -53v-394h-49v755h49v-312q103 75 194 75q154 0 154 -176zM285 -12q-225 0 -225 264q0 132 61.5 199t174.5 67q76 0 126 -43t54 -122l-53 -6q-13 128 -133 128q-75 0 -127 -50.5t-52 -165.5
q0 -124 49 -174.5t124 -50.5q126 0 146 116l50 -10q-13 -77 -67.5 -114.5t-127.5 -37.5z" />
    <glyph glyph-name="c_k" horiz-adv-x="1020" 
d="M285 -12q-225 0 -225 264q0 132 61.5 199t174.5 67q76 0 126 -43t54 -122l-53 -6q-13 128 -133 128q-75 0 -127 -50.5t-52 -165.5q0 -124 49 -174.5t124 -50.5q126 0 146 116l50 -10q-13 -77 -67.5 -114.5t-127.5 -37.5zM658 755v-510l254 263h59l-180 -187l193 -321h-53
l-175 286l-98 -99v-187h-49v755h49z" />
    <glyph glyph-name="T_h" horiz-adv-x="1016" 
d="M928 342v-342h-49v340q0 66 -26 99t-88 33q-50 0 -102.5 -25t-82.5 -53v-394h-49v682h-241v-682h-48v682h-222v42h511v31h49v-312q103 75 194 75q154 0 154 -176z" />
    <glyph glyph-name="revcommaaccent" horiz-adv-x="500" 
d="M309 710l-34 -140h-66l57 146z" />
    <glyph glyph-name="caron.alt" horiz-adv-x="500" 
d="M203 566l33 189h64l-59 -197z" />
    <glyph glyph-name="tilde.cap" horiz-adv-x="500" 
d="M172 877q32 0 82 -22.5t71 -22.5q22 0 32.5 11t10.5 47l38 -2q7 -56 -16 -79t-61 -23q-30 0 -81.5 23t-74.5 23q-40 0 -39 -60l-36 2q-7 55 16 79t58 24z" />
    <glyph glyph-name="ring.cap" horiz-adv-x="500" 
d="M352 833q0 -46 -27.5 -72t-74.5 -26q-46 0 -73.5 25t-27.5 67q0 48 29 73.5t72 25.5q45 0 73.5 -23t28.5 -70zM250 773q55 0 55 60q0 55 -55 55q-26 0 -41.5 -15.5t-15.5 -43.5q0 -56 57 -56z" />
    <glyph glyph-name="circumflex.cap" horiz-adv-x="500" 
d="M343 769l-94 83l-90 -85l-48 11l123 116h36l123 -116z" />
    <glyph glyph-name="acute.cap" horiz-adv-x="500" 
d="M358 911l-135 -144l-42 14l104 130h73z" />
    <glyph glyph-name="grave.cap" horiz-adv-x="500" 
d="M281 767l-135 144h73l105 -130z" />
    <glyph glyph-name="dieresis.cap" horiz-adv-x="500" 
d="M199 826q0 -20 -12 -31t-32 -11q-45 0 -45 42q0 20 12 31t33 11q20 0 32 -11.5t12 -30.5zM390 826q0 -20 -12 -31t-32 -11q-21 0 -33 11t-12 31q0 19 12.5 30.5t32.5 11.5t32 -11.5t12 -30.5z" />
    <glyph glyph-name="caron.cap" horiz-adv-x="500" 
d="M159 897l94 -83l90 85l48 -11l-123 -116h-36l-123 116z" />
    <glyph glyph-name="macron.cap" horiz-adv-x="500" 
d="M400 800h-300v45h300v-45z" />
    <glyph glyph-name="dotaccent.cap" horiz-adv-x="500" 
d="M296 826q0 -42 -46 -42t-46 42q0 43 46 43t46 -43z" />
    <glyph glyph-name="cedilla.cap" horiz-adv-x="500" 
d="M161 -193l15 34q24 -19 57 -19q25 0 38.5 14.5t13.5 35.5q0 54 -81 55l14 103l38 -7l-9 -66q84 -10 84 -83q0 -40 -27 -65.5t-68 -25.5q-49 0 -75 24z" />
    <glyph glyph-name="hungarumlaut.cap" horiz-adv-x="500" 
d="M313 911l-107 -144l-39 13l76 131h70zM449 915l-134 -148l-42 14l104 134h72z" />
    <glyph glyph-name="commaaccent.cap" horiz-adv-x="500" 
d="M186 -209l34 140h66l-58 -147z" />
    <glyph glyph-name="breve.cap" horiz-adv-x="500" 
d="M251 827q79 0 92 76l45 -4q-7 -52 -41.5 -83t-96.5 -31q-114 0 -127 113l44 5q7 -42 27 -59t57 -17z" />
    <glyph glyph-name="ogonek.cap" horiz-adv-x="500" 
d="M324 -140l36 -20q-15 -31 -44 -47t-59 -16q-38 0 -63 21t-25 59q0 78 104 163l46 -11q-49 -42 -72.5 -74t-23.5 -71q0 -19 11 -31t31 -12q36 0 59 39z" />
    <glyph glyph-name="a.sup" horiz-adv-x="364" 
d="M298 572v-168q0 -25 21 -25q8 0 20 3l3 -28q-16 -10 -40 -10q-23 0 -34.5 12t-11.5 30q-44 -44 -110 -44q-39 0 -62.5 16.5t-30 34.5t-6.5 37q0 110 163 110q10 0 23.5 -0.5t19.5 -0.5v38q0 34 -15.5 51.5t-57.5 17.5q-37 0 -54.5 -13.5t-22.5 -43.5l-41 7q12 86 122 86
q61 0 87.5 -25t26.5 -85zM254 422v81q-22 2 -41 2q-23 0 -39 -1.5t-36.5 -7.5t-31.5 -20.5t-11 -37.5q0 -59 63 -59q55 0 96 43z" />
    <glyph glyph-name="b.sup" horiz-adv-x="387" 
d="M103 350h-40v481h46v-195q55 46 117 46q122 0 122 -162q0 -89 -39.5 -133.5t-98.5 -44.5q-53 0 -104 36zM108 597v-178q52 -37 97 -37q96 0 96 141q0 64 -21 92.5t-66 28.5q-59 0 -106 -47z" />
    <glyph glyph-name="c.sup" horiz-adv-x="361" 
d="M189 342q-148 0 -148 168q0 85 41.5 128.5t117.5 43.5q52 0 85.5 -29.5t36.5 -82.5l-45 -6q-9 78 -83 78q-45 0 -75.5 -29t-30.5 -97q0 -72 29.5 -103t74.5 -31q36 0 59.5 20.5t30.5 57.5l42 -8q-7 -53 -45.5 -81.5t-89.5 -28.5z" />
    <glyph glyph-name="d.sup" horiz-adv-x="384" 
d="M324 831v-481h-38l-5 36q-55 -44 -114 -44q-128 0 -128 167q0 89 40 131t102 42q56 0 98 -30v179h45zM279 426v184q-43 33 -96 33q-96 0 -96 -136q0 -66 21.5 -96t69.5 -30q56 0 101 45z" />
    <glyph glyph-name="e.sup" horiz-adv-x="368" 
d="M192 342q-151 0 -151 171q0 85 43.5 127t111.5 42q66 0 98 -38.5t32 -100.5q0 -23 -4 -42h-233q3 -118 103 -118q71 0 87 67l43 -9q-10 -47 -46 -73t-84 -26zM90 539h188q3 104 -86 104q-42 0 -71 -25.5t-31 -78.5z" />
    <glyph glyph-name="f.sup" horiz-adv-x="215" 
d="M217 826l-3 -37q-20 10 -47 10q-52 0 -52 -59v-64h94v-38h-94v-288h-46v288h-51v38h51v58q0 102 91 102q37 0 57 -10z" />
    <glyph glyph-name="g.sup" horiz-adv-x="369" 
d="M179 682q69 0 101 -33q15 40 49 40q12 0 29 -5v-40q-34 2 -67 -8q23 -24 23 -70q0 -54 -37 -85.5t-95 -31.5q-39 0 -60 10q-26 -24 -26 -37q0 -23 49 -25l92 -5q55 -3 81 -21.5t26 -64.5q0 -54 -49.5 -77.5t-119.5 -23.5q-147 0 -147 83q0 48 57 78q-15 4 -25 16t-10 27
q0 28 41 61q-36 19 -47 64q-4 20 -4 30q1 54 39 86t100 32zM269 566q0 79 -87 79q-42 0 -68.5 -19.5t-26.5 -58.5q0 -36 23 -57.5t70 -21.5q41 0 65 21t24 57zM298 306q0 41 -63 45l-118 6q-42 -29 -42 -61q0 -52 107 -52q116 0 116 62z" />
    <glyph glyph-name="h.sup" horiz-adv-x="390" 
d="M333 571v-221h-46v215q0 39 -14.5 57.5t-51.5 18.5q-30 0 -62 -14t-49 -30v-247h-47v481h46v-195q61 46 123 46q101 0 101 -111z" />
    <glyph glyph-name="i.sup" horiz-adv-x="169" 
d="M108 676v-326h-45v326h45zM123 781q0 -16 -9.5 -25t-26.5 -9q-37 0 -37 34q0 36 37 36q36 0 36 -36z" />
    <glyph glyph-name="j.sup" horiz-adv-x="168" 
d="M22 208q-35 0 -57 11l6 39q21 -9 48 -9q44 0 44 52v375h46v-375q0 -93 -87 -93zM124 789q0 -36 -36 -36q-37 0 -37 36q0 34 37 34q17 0 26.5 -9t9.5 -25z" />
    <glyph glyph-name="k.sup" horiz-adv-x="350" 
d="M109 831v-309l155 154h53l-117 -118l126 -208h-51l-108 175l-58 -56v-119h-46v481h46z" />
    <glyph glyph-name="l.sup" horiz-adv-x="169" 
d="M109 831v-481h-46v481h46z" />
    <glyph glyph-name="m.sup" horiz-adv-x="579" 
d="M110 597v-247h-47v326h41l2 -40q64 46 119 46q65 0 83 -47q68 47 121 47q51 0 72 -27t21 -85v-220h-47v215q0 41 -11 59t-46 18q-48 0 -102 -42q2 -18 2 -31v-219h-46v215q0 41 -11.5 59t-45.5 18q-27 0 -57.5 -14.5t-47.5 -30.5z" />
    <glyph glyph-name="n.sup" horiz-adv-x="390" 
d="M333 571v-221h-46v215q0 39 -15.5 58t-52.5 19q-30 0 -61 -14.5t-48 -30.5v-247h-47v326h41l2 -41q64 47 125 47q102 0 102 -111z" />
    <glyph glyph-name="o.sup" horiz-adv-x="387" 
d="M192 342q-151 0 -151 170q0 80 41.5 125t118.5 45q74 0 109.5 -43.5t35.5 -118.5q0 -178 -154 -178zM196 382q102 0 102 134q0 69 -25 98t-75 29q-51 0 -80.5 -32t-29.5 -98q0 -131 108 -131z" />
    <glyph glyph-name="p.sup" horiz-adv-x="387" 
d="M63 215v461h41l2 -39q58 45 120 45q122 0 122 -162q0 -89 -39.5 -133.5t-97.5 -44.5q-54 0 -103 35v-162h-45zM109 597v-180q47 -35 96 -35q96 0 96 141q0 64 -21 92t-66 28q-29 0 -58 -14t-47 -32z" />
    <glyph glyph-name="q.sup" horiz-adv-x="382" 
d="M324 676v-461h-44v171q-53 -44 -113 -44q-127 0 -127 167q0 89 39.5 131t101.5 42q51 0 98 -34l4 28h41zM279 426v181q-50 35 -96 35q-96 0 -96 -135q0 -66 21 -95.5t68 -29.5q57 0 103 44z" />
    <glyph glyph-name="r.sup" horiz-adv-x="242" 
d="M229 682v-48q-30 5 -64 -5.5t-55 -31.5v-247h-47v326h38l4 -46q54 57 124 52z" />
    <glyph glyph-name="s.sup" horiz-adv-x="324" 
d="M165 682q58 0 84.5 -25t32.5 -73l-42 -6q-7 35 -22.5 50.5t-53.5 15.5q-72 0 -72 -51q0 -27 19 -39.5t61 -20.5q33 -7 48 -11.5t34 -14.5t26.5 -26.5t7.5 -42.5q0 -44 -32 -70t-92 -26q-112 0 -127 98l40 9q8 -33 27 -50.5t62 -17.5q76 0 76 54q0 27 -17.5 38.5
t-58.5 19.5q-24 5 -35 7.5t-30 9.5t-28.5 16t-17 25.5t-7.5 37.5q0 46 33 69.5t84 23.5z" />
    <glyph glyph-name="t.sup" horiz-adv-x="250" 
d="M227 400l11 -37q-31 -21 -77 -21q-90 0 -90 88v208h-52v38h52v94l46 6v-100h94v-38h-94v-197q0 -30 10.5 -43.5t40.5 -13.5q31 0 59 16z" />
    <glyph glyph-name="u.sup" horiz-adv-x="391" 
d="M62 456v220h47v-215q0 -39 14.5 -57.5t51.5 -18.5q29 0 60 14t49 30v247h46v-326h-40l-4 38q-54 -45 -119 -45q-105 0 -105 113z" />
    <glyph glyph-name="v.sup" horiz-adv-x="333" 
d="M193 350h-51l-131 326h50l107 -281h1l107 281h46z" />
    <glyph glyph-name="w.sup" horiz-adv-x="493" 
d="M173 350h-56l-106 326h48l87 -280l75 280h54l76 -277l88 277h43l-104 -326h-56l-75 274z" />
    <glyph glyph-name="x.sup" horiz-adv-x="323" 
d="M298 676l-113 -155l120 -171h-51l-95 138l-92 -138h-49l114 170l-113 156h51l89 -125l93 125h46z" />
    <glyph glyph-name="y.sup" horiz-adv-x="318" 
d="M135 348l-122 328h50l96 -272h1l100 272h47l-134 -345q-28 -72 -52 -97.5t-68 -25.5q-29 0 -56 11l7 37q33 -10 51 -10q43 0 66 63z" />
    <glyph glyph-name="z.sup" horiz-adv-x="309" 
d="M279 643l-200 -254h207v-39h-261v34l201 253h-197v39h250v-33z" />
    <glyph glyph-name="minusinferior" horiz-adv-x="433" 
d="M334 55h-234v42h234v-42z" />
    <glyph glyph-name="plusinferior" horiz-adv-x="433" 
d="M239 -47h-45v95h-94v42h94v93h45v-93h93v-42h-93v-95z" />
    <glyph glyph-name="equalinferior" horiz-adv-x="436" 
d="M335 -15h-232v43h232v-43zM335 79h-232v44h232v-44z" />
    <glyph glyph-name="a.sinf" horiz-adv-x="364" 
d="M298 76v-168q0 -25 21 -25q8 0 20 3l3 -28q-16 -10 -40 -10q-23 0 -34.5 12t-11.5 30q-44 -44 -110 -44q-39 0 -62.5 16.5t-30 34.5t-6.5 37q0 110 163 110q10 0 23.5 -0.5t19.5 -0.5v38q0 34 -15.5 51.5t-57.5 17.5q-37 0 -54.5 -13.5t-22.5 -43.5l-41 7q12 86 122 86
q61 0 87.5 -25t26.5 -85zM254 -74v81q-22 2 -41 2q-23 0 -39 -1.5t-36.5 -7.5t-31.5 -20.5t-11 -37.5q0 -59 63 -59q55 0 96 43z" />
    <glyph glyph-name="b.sinf" horiz-adv-x="387" 
d="M103 -146h-40v481h46v-195q55 46 117 46q122 0 122 -162q0 -89 -39.5 -133.5t-98.5 -44.5q-53 0 -104 36zM108 101v-178q52 -37 97 -37q96 0 96 141q0 64 -21 92.5t-66 28.5q-59 0 -106 -47z" />
    <glyph glyph-name="c.sinf" horiz-adv-x="361" 
d="M189 -154q-148 0 -148 168q0 85 41.5 128.5t117.5 43.5q52 0 85.5 -29.5t36.5 -82.5l-45 -6q-9 78 -83 78q-45 0 -75.5 -29t-30.5 -97q0 -72 29.5 -103t74.5 -31q36 0 59.5 20.5t30.5 57.5l42 -8q-7 -53 -45.5 -81.5t-89.5 -28.5z" />
    <glyph glyph-name="d.sinf" horiz-adv-x="384" 
d="M324 335v-481h-38l-5 36q-55 -44 -114 -44q-128 0 -128 167q0 89 40 131t102 42q56 0 98 -30v179h45zM279 -70v184q-43 33 -96 33q-96 0 -96 -136q0 -66 21.5 -96t69.5 -30q56 0 101 45z" />
    <glyph glyph-name="e.sinf" horiz-adv-x="368" 
d="M192 -154q-151 0 -151 171q0 85 43.5 127t111.5 42q66 0 98 -38.5t32 -100.5q0 -23 -4 -42h-233q3 -118 103 -118q71 0 87 67l43 -9q-10 -47 -46 -73t-84 -26zM90 43h188q3 104 -86 104q-42 0 -71 -25.5t-31 -78.5z" />
    <glyph glyph-name="f.sinf" horiz-adv-x="215" 
d="M217 330l-3 -37q-20 10 -47 10q-52 0 -52 -59v-64h94v-38h-94v-288h-46v288h-51v38h51v58q0 102 91 102q37 0 57 -10z" />
    <glyph glyph-name="g.sinf" horiz-adv-x="369" 
d="M179 186q69 0 101 -33q15 40 49 40q12 0 29 -5v-40q-34 2 -67 -8q23 -24 23 -70q0 -54 -37 -85.5t-95 -31.5q-39 0 -60 10q-26 -24 -26 -37q0 -23 49 -25l92 -5q55 -3 81 -21.5t26 -64.5q0 -54 -49.5 -77.5t-119.5 -23.5q-147 0 -147 83q0 48 57 78q-15 4 -25 16t-10 27
q0 28 41 61q-36 19 -47 64q-4 20 -4 30q1 54 39 86t100 32zM269 70q0 79 -87 79q-42 0 -68.5 -19.5t-26.5 -58.5q0 -36 23 -57.5t70 -21.5q41 0 65 21t24 57zM298 -190q0 41 -63 45l-118 6q-42 -29 -42 -61q0 -52 107 -52q116 0 116 62z" />
    <glyph glyph-name="h.sinf" horiz-adv-x="390" 
d="M333 75v-221h-46v215q0 39 -14.5 57.5t-51.5 18.5q-30 0 -62 -14t-49 -30v-247h-47v481h46v-195q61 46 123 46q101 0 101 -111z" />
    <glyph glyph-name="i.sinf" horiz-adv-x="169" 
d="M108 180v-326h-45v326h45zM123 285q0 -16 -9.5 -25t-26.5 -9q-37 0 -37 34q0 36 37 36q36 0 36 -36z" />
    <glyph glyph-name="j.sinf" horiz-adv-x="168" 
d="M22 -288q-35 0 -57 11l6 39q21 -9 48 -9q44 0 44 52v375h46v-375q0 -93 -87 -93zM124 293q0 -36 -36 -36q-37 0 -37 36q0 34 37 34q17 0 26.5 -9t9.5 -25z" />
    <glyph glyph-name="k.sinf" horiz-adv-x="350" 
d="M109 335v-309l155 154h53l-117 -118l126 -208h-51l-108 175l-58 -56v-119h-46v481h46z" />
    <glyph glyph-name="l.sinf" horiz-adv-x="169" 
d="M109 335v-481h-46v481h46z" />
    <glyph glyph-name="m.sinf" horiz-adv-x="579" 
d="M110 101v-247h-47v326h41l2 -40q64 46 119 46q65 0 83 -47q68 47 121 47q51 0 72 -27t21 -85v-220h-47v215q0 41 -11 59t-46 18q-48 0 -102 -42q2 -18 2 -31v-219h-46v215q0 41 -11.5 59t-45.5 18q-27 0 -57.5 -14.5t-47.5 -30.5z" />
    <glyph glyph-name="n.sinf" horiz-adv-x="390" 
d="M333 75v-221h-46v215q0 39 -15.5 58t-52.5 19q-30 0 -61 -14.5t-48 -30.5v-247h-47v326h41l2 -41q64 47 125 47q102 0 102 -111z" />
    <glyph glyph-name="o.sinf" horiz-adv-x="387" 
d="M192 -154q-151 0 -151 170q0 80 41.5 125t118.5 45q74 0 109.5 -43.5t35.5 -118.5q0 -178 -154 -178zM196 -114q102 0 102 134q0 69 -25 98t-75 29q-51 0 -80.5 -32t-29.5 -98q0 -131 108 -131z" />
    <glyph glyph-name="p.sinf" horiz-adv-x="387" 
d="M63 -281v461h41l2 -39q58 45 120 45q122 0 122 -162q0 -89 -39.5 -133.5t-97.5 -44.5q-54 0 -103 35v-162h-45zM109 101v-180q47 -35 96 -35q96 0 96 141q0 64 -21 92t-66 28q-29 0 -58 -14t-47 -32z" />
    <glyph glyph-name="q.sinf" horiz-adv-x="382" 
d="M324 180v-461h-44v171q-53 -44 -113 -44q-127 0 -127 167q0 89 39.5 131t101.5 42q51 0 98 -34l4 28h41zM279 -70v181q-50 35 -96 35q-96 0 -96 -135q0 -66 21 -95.5t68 -29.5q57 0 103 44z" />
    <glyph glyph-name="r.sinf" horiz-adv-x="242" 
d="M229 186v-48q-30 5 -64 -5.5t-55 -31.5v-247h-47v326h38l4 -46q54 57 124 52z" />
    <glyph glyph-name="s.sinf" horiz-adv-x="324" 
d="M165 186q58 0 84.5 -25t32.5 -73l-42 -6q-7 35 -22.5 50.5t-53.5 15.5q-72 0 -72 -51q0 -27 19 -39.5t61 -20.5q33 -7 48 -11.5t34 -14.5t26.5 -26.5t7.5 -42.5q0 -44 -32 -70t-92 -26q-112 0 -127 98l40 9q8 -33 27 -50.5t62 -17.5q76 0 76 54q0 27 -17.5 38.5
t-58.5 19.5q-24 5 -35 7.5t-30 9.5t-28.5 16t-17 25.5t-7.5 37.5q0 46 33 69.5t84 23.5z" />
    <glyph glyph-name="t.sinf" horiz-adv-x="250" 
d="M227 -96l11 -37q-31 -21 -77 -21q-90 0 -90 88v208h-52v38h52v94l46 6v-100h94v-38h-94v-197q0 -30 10.5 -43.5t40.5 -13.5q31 0 59 16z" />
    <glyph glyph-name="u.sinf" horiz-adv-x="391" 
d="M62 -40v220h47v-215q0 -39 14.5 -57.5t51.5 -18.5q29 0 60 14t49 30v247h46v-326h-40l-4 38q-54 -45 -119 -45q-105 0 -105 113z" />
    <glyph glyph-name="v.sinf" horiz-adv-x="333" 
d="M193 -146h-51l-131 326h50l107 -281h1l107 281h46z" />
    <glyph glyph-name="w.sinf" horiz-adv-x="493" 
d="M173 -146h-56l-106 326h48l87 -280l75 280h54l76 -277l88 277h43l-104 -326h-56l-75 274z" />
    <glyph glyph-name="x.sinf" horiz-adv-x="323" 
d="M298 180l-113 -155l120 -171h-51l-95 138l-92 -138h-49l114 170l-113 156h51l89 -125l93 125h46z" />
    <glyph glyph-name="y.sinf" horiz-adv-x="318" 
d="M135 -148l-122 328h50l96 -272h1l100 272h47l-134 -345q-28 -72 -52 -97.5t-68 -25.5q-29 0 -56 11l7 37q33 -10 51 -10q43 0 66 63z" />
    <glyph glyph-name="z.sinf" horiz-adv-x="309" 
d="M279 147l-200 -254h207v-39h-261v34l201 253h-197v39h250v-33z" />
    <glyph glyph-name="zero.num" horiz-adv-x="390" 
d="M194 274q-37 0 -63.5 12t-42.5 31t-25 49.5t-12 61t-3 71.5q0 52 6.5 90.5t22 71.5t46.5 50.5t77 17.5q44 0 73.5 -17t44 -50t19.5 -69t5 -86q0 -54 -6 -93t-21.5 -72.5t-45.5 -50.5t-75 -17zM196 318q30 0 49 12.5t29 38.5t13.5 57t3.5 77q0 93 -18 137t-75 44
q-58 0 -79 -46t-21 -140q0 -90 20 -135t78 -45z" />
    <glyph glyph-name="one.num" horiz-adv-x="283" 
d="M193 279h-48v372q-14 -8 -46.5 -14t-51.5 -6l-3 37q83 6 123 51h26v-440z" />
    <glyph glyph-name="two.num" horiz-adv-x="372" 
d="M191 729q55 0 87 -27t32 -82q0 -33 -14.5 -66t-29.5 -53.5t-54 -69.5l-97 -106h202v-44h-257v40l107 126q38 46 53.5 66.5t28 48.5t12.5 57q0 68 -77 68q-43 0 -60 -19.5t-23 -57.5l-44 9q17 110 134 110z" />
    <glyph glyph-name="three.num" horiz-adv-x="390" 
d="M49 379l46 9q8 -36 24.5 -54t58.5 -18q40 0 65.5 21.5t25.5 67.5q0 86 -100 86h-39v41h29q48 0 76 24.5t28 62.5q0 67 -75 67q-40 0 -57.5 -15.5t-26.5 -48.5l-44 9q19 98 133 98q57 0 87.5 -28.5t30.5 -75.5q0 -45 -26.5 -71.5t-61.5 -35.5v-1q96 -17 96 -114
q0 -58 -38.5 -93.5t-102.5 -35.5q-54 0 -88.5 27t-40.5 78z" />
    <glyph glyph-name="four.num" horiz-adv-x="354" 
d="M276 281h-48v108h-210v38l197 294h61v-289h53v-43h-53v-108zM70 432h159v239z" />
    <glyph glyph-name="five.num" horiz-adv-x="377" 
d="M63 499l17 222h211v-42h-171l-14 -151q41 32 89 32q52 0 88 -31t36 -103q0 -68 -40 -110t-110 -42q-51 0 -87.5 26t-44.5 76l45 12q16 -71 89 -71q39 0 67 26.5t28 81.5q0 48 -23 71t-61 23q-42 0 -83 -36z" />
    <glyph glyph-name="six.num" horiz-adv-x="406" 
d="M345 636l-43 -13q-14 65 -72 65q-32 0 -54.5 -17.5t-34 -47.5t-17 -60.5t-5.5 -64.5q18 20 48.5 35.5t63.5 15.5q60 0 90 -35t30 -92q0 -70 -37.5 -109t-102.5 -39q-78 0 -109 56.5t-31 155.5q0 41 7 79.5t24 77.5t51.5 62.5t81.5 23.5q90 0 110 -93zM121 457
q2 -32 6 -52.5t13 -43.5t28 -34.5t47 -11.5q40 0 63.5 26t23.5 78q0 89 -76 89q-27 0 -57 -15.5t-48 -35.5z" />
    <glyph glyph-name="seven.num" horiz-adv-x="339" 
d="M133 281h-51l186 397h-230v43h282v-38z" />
    <glyph glyph-name="eight.num" horiz-adv-x="373" 
d="M233 509q24 -11 37 -18t29.5 -20.5t24 -33t7.5 -45.5q0 -51 -39.5 -84.5t-105.5 -33.5q-70 0 -105 30.5t-35 80.5q0 82 96 120q-37 15 -59.5 43.5t-22.5 65.5q0 55 38.5 85t98.5 30q59 0 93 -27t34 -74q0 -68 -91 -119zM182 486q-87 -31 -87 -99q0 -72 93 -72
q48 0 71.5 22.5t23.5 54.5q0 21 -8.5 36.5t-26.5 27t-30.5 17t-35.5 13.5zM192 525q85 42 85 102q0 62 -84 62q-39 0 -61.5 -18t-22.5 -49q0 -35 20 -57t63 -40z" />
    <glyph glyph-name="nine.num" horiz-adv-x="406" 
d="M58 374l45 12q9 -38 29 -54.5t54 -16.5q102 0 107 182q-18 -20 -49 -34.5t-65 -14.5q-59 0 -89.5 36t-30.5 95q0 70 37.5 110t101.5 40q79 0 110 -57.5t31 -155.5q0 -242 -158 -242q-48 0 -81 25.5t-42 74.5zM290 539q-2 31 -5.5 53t-13 46.5t-29 37.5t-47.5 13
q-40 0 -63 -26.5t-23 -81.5q0 -91 77 -91q60 0 104 49z" />
    <glyph glyph-name="parenleft.ordn" horiz-adv-x="230" 
d="M200 208h-48q-89 133 -89 263q0 135 94 269h49q-94 -147 -94 -269q0 -75 22.5 -136t65.5 -127z" />
    <glyph glyph-name="parenright.ordn" horiz-adv-x="297" 
d="M24 740h51q96 -139 96 -270q0 -133 -88 -262h-51q87 137 87 263q0 125 -95 269z" />
    <glyph glyph-name="hyphen.ordn" horiz-adv-x="216" 
d="M189 442h-169v46h169v-46z" />
    <glyph glyph-name="comma.ordn" horiz-adv-x="177" 
d="M29 208l34 130h56l-50 -136z" />
    <glyph glyph-name="period.ordn" horiz-adv-x="185" 
d="M131 311q0 -37 -39 -37q-38 0 -38 37t38 37q39 0 39 -37z" />
    <glyph glyph-name="minus.ordn" horiz-adv-x="433" 
d="M334 483h-234v42h234v-42z" />
    <glyph glyph-name="plus.ordn" horiz-adv-x="433" 
d="M239 381h-45v95h-94v42h94v93h45v-93h93v-42h-93v-95z" />
    <glyph glyph-name="equal.ordn" horiz-adv-x="436" 
d="M335 413h-232v43h232v-43zM335 507h-232v44h232v-44z" />
    <glyph glyph-name="a.ordn" horiz-adv-x="364" 
d="M298 504v-168q0 -25 21 -25q8 0 20 3l3 -28q-16 -10 -40 -10q-23 0 -34.5 12t-11.5 30q-44 -44 -110 -44q-39 0 -62.5 16.5t-30 34.5t-6.5 37q0 110 163 110q10 0 23.5 -0.5t19.5 -0.5v38q0 34 -15.5 51.5t-57.5 17.5q-37 0 -54.5 -13.5t-22.5 -43.5l-41 7q12 86 122 86
q61 0 87.5 -25t26.5 -85zM254 354v81q-22 2 -41 2q-23 0 -39 -1.5t-36.5 -7.5t-31.5 -20.5t-11 -37.5q0 -59 63 -59q55 0 96 43z" />
    <glyph glyph-name="b.ordn" horiz-adv-x="387" 
d="M103 282h-40v481h46v-195q55 46 117 46q122 0 122 -162q0 -89 -39.5 -133.5t-98.5 -44.5q-53 0 -104 36zM108 529v-178q52 -37 97 -37q96 0 96 141q0 64 -21 92.5t-66 28.5q-59 0 -106 -47z" />
    <glyph glyph-name="c.ordn" horiz-adv-x="361" 
d="M189 274q-148 0 -148 168q0 85 41.5 128.5t117.5 43.5q52 0 85.5 -29.5t36.5 -82.5l-45 -6q-9 78 -83 78q-45 0 -75.5 -29t-30.5 -97q0 -72 29.5 -103t74.5 -31q36 0 59.5 20.5t30.5 57.5l42 -8q-7 -53 -45.5 -81.5t-89.5 -28.5z" />
    <glyph glyph-name="d.ordn" horiz-adv-x="384" 
d="M324 763v-481h-38l-5 36q-55 -44 -114 -44q-128 0 -128 167q0 89 40 131t102 42q56 0 98 -30v179h45zM279 358v184q-43 33 -96 33q-96 0 -96 -136q0 -66 21.5 -96t69.5 -30q56 0 101 45z" />
    <glyph glyph-name="e.ordn" horiz-adv-x="368" 
d="M192 274q-151 0 -151 171q0 85 43.5 127t111.5 42q66 0 98 -38.5t32 -100.5q0 -23 -4 -42h-233q3 -118 103 -118q71 0 87 67l43 -9q-10 -47 -46 -73t-84 -26zM90 471h188q3 104 -86 104q-42 0 -71 -25.5t-31 -78.5z" />
    <glyph glyph-name="f.ordn" horiz-adv-x="215" 
d="M217 758l-3 -37q-20 10 -47 10q-52 0 -52 -59v-64h94v-38h-94v-288h-46v288h-51v38h51v58q0 102 91 102q37 0 57 -10z" />
    <glyph glyph-name="g.ordn" horiz-adv-x="369" 
d="M179 614q69 0 101 -33q15 40 49 40q12 0 29 -5v-40q-34 2 -67 -8q23 -24 23 -70q0 -54 -37 -85.5t-95 -31.5q-39 0 -60 10q-26 -24 -26 -37q0 -23 49 -25l92 -5q55 -3 81 -21.5t26 -64.5q0 -54 -49.5 -77.5t-119.5 -23.5q-147 0 -147 83q0 48 57 78q-15 4 -25 16t-10 27
q0 28 41 61q-36 19 -47 64q-4 20 -4 30q1 54 39 86t100 32zM269 498q0 79 -87 79q-42 0 -68.5 -19.5t-26.5 -58.5q0 -36 23 -57.5t70 -21.5q41 0 65 21t24 57zM298 238q0 41 -63 45l-118 6q-42 -29 -42 -61q0 -52 107 -52q116 0 116 62z" />
    <glyph glyph-name="h.ordn" horiz-adv-x="390" 
d="M333 503v-221h-46v215q0 39 -14.5 57.5t-51.5 18.5q-30 0 -62 -14t-49 -30v-247h-47v481h46v-195q61 46 123 46q101 0 101 -111z" />
    <glyph glyph-name="i.ordn" horiz-adv-x="169" 
d="M108 608v-326h-45v326h45zM123 713q0 -16 -9.5 -25t-26.5 -9q-37 0 -37 34q0 36 37 36q36 0 36 -36z" />
    <glyph glyph-name="j.ordn" horiz-adv-x="168" 
d="M22 140q-35 0 -57 11l6 39q21 -9 48 -9q44 0 44 52v375h46v-375q0 -93 -87 -93zM124 721q0 -36 -36 -36q-37 0 -37 36q0 34 37 34q17 0 26.5 -9t9.5 -25z" />
    <glyph glyph-name="k.ordn" horiz-adv-x="350" 
d="M109 763v-309l155 154h53l-117 -118l126 -208h-51l-108 175l-58 -56v-119h-46v481h46z" />
    <glyph glyph-name="l.ordn" horiz-adv-x="169" 
d="M109 763v-481h-46v481h46z" />
    <glyph glyph-name="m.ordn" horiz-adv-x="579" 
d="M110 529v-247h-47v326h41l2 -40q64 46 119 46q65 0 83 -47q68 47 121 47q51 0 72 -27t21 -85v-220h-47v215q0 41 -11 59t-46 18q-48 0 -102 -42q2 -18 2 -31v-219h-46v215q0 41 -11.5 59t-45.5 18q-27 0 -57.5 -14.5t-47.5 -30.5z" />
    <glyph glyph-name="n.ordn" horiz-adv-x="390" 
d="M333 503v-221h-46v215q0 39 -15.5 58t-52.5 19q-30 0 -61 -14.5t-48 -30.5v-247h-47v326h41l2 -41q64 47 125 47q102 0 102 -111z" />
    <glyph glyph-name="o.ordn" horiz-adv-x="387" 
d="M192 274q-151 0 -151 170q0 80 41.5 125t118.5 45q74 0 109.5 -43.5t35.5 -118.5q0 -178 -154 -178zM196 314q102 0 102 134q0 69 -25 98t-75 29q-51 0 -80.5 -32t-29.5 -98q0 -131 108 -131z" />
    <glyph glyph-name="p.ordn" horiz-adv-x="387" 
d="M63 147v461h41l2 -39q58 45 120 45q122 0 122 -162q0 -89 -39.5 -133.5t-97.5 -44.5q-54 0 -103 35v-162h-45zM109 529v-180q47 -35 96 -35q96 0 96 141q0 64 -21 92t-66 28q-29 0 -58 -14t-47 -32z" />
    <glyph glyph-name="q.ordn" horiz-adv-x="382" 
d="M324 608v-461h-44v171q-53 -44 -113 -44q-127 0 -127 167q0 89 39.5 131t101.5 42q51 0 98 -34l4 28h41zM279 358v181q-50 35 -96 35q-96 0 -96 -135q0 -66 21 -95.5t68 -29.5q57 0 103 44z" />
    <glyph glyph-name="r.ordn" horiz-adv-x="242" 
d="M229 614v-48q-30 5 -64 -5.5t-55 -31.5v-247h-47v326h38l4 -46q54 57 124 52z" />
    <glyph glyph-name="s.ordn" horiz-adv-x="324" 
d="M165 614q58 0 84.5 -25t32.5 -73l-42 -6q-7 35 -22.5 50.5t-53.5 15.5q-72 0 -72 -51q0 -27 19 -39.5t61 -20.5q33 -7 48 -11.5t34 -14.5t26.5 -26.5t7.5 -42.5q0 -44 -32 -70t-92 -26q-112 0 -127 98l40 9q8 -33 27 -50.5t62 -17.5q76 0 76 54q0 27 -17.5 38.5
t-58.5 19.5q-24 5 -35 7.5t-30 9.5t-28.5 16t-17 25.5t-7.5 37.5q0 46 33 69.5t84 23.5z" />
    <glyph glyph-name="t.ordn" horiz-adv-x="250" 
d="M227 332l11 -37q-31 -21 -77 -21q-90 0 -90 88v208h-52v38h52v94l46 6v-100h94v-38h-94v-197q0 -30 10.5 -43.5t40.5 -13.5q31 0 59 16z" />
    <glyph glyph-name="u.ordn" horiz-adv-x="391" 
d="M62 388v220h47v-215q0 -39 14.5 -57.5t51.5 -18.5q29 0 60 14t49 30v247h46v-326h-40l-4 38q-54 -45 -119 -45q-105 0 -105 113z" />
    <glyph glyph-name="v.ordn" horiz-adv-x="333" 
d="M193 282h-51l-131 326h50l107 -281h1l107 281h46z" />
    <glyph glyph-name="w.ordn" horiz-adv-x="493" 
d="M173 282h-56l-106 326h48l87 -280l75 280h54l76 -277l88 277h43l-104 -326h-56l-75 274z" />
    <glyph glyph-name="x.ordn" horiz-adv-x="323" 
d="M298 608l-113 -155l120 -171h-51l-95 138l-92 -138h-49l114 170l-113 156h51l89 -125l93 125h46z" />
    <glyph glyph-name="y.ordn" horiz-adv-x="318" 
d="M135 280l-122 328h50l96 -272h1l100 272h47l-134 -345q-28 -72 -52 -97.5t-68 -25.5q-29 0 -56 11l7 37q33 -10 51 -10q43 0 66 63z" />
    <glyph glyph-name="z.ordn" horiz-adv-x="309" 
d="M279 575l-200 -254h207v-39h-261v34l201 253h-197v39h250v-33z" />
    <glyph glyph-name="zero.denom" horiz-adv-x="390" 
d="M194 -7q-37 0 -63.5 12t-42.5 31t-25 49.5t-12 61t-3 71.5q0 52 6.5 90.5t22 71.5t46.5 50.5t77 17.5q44 0 73.5 -17t44 -50t19.5 -69t5 -86q0 -54 -6 -93t-21.5 -72.5t-45.5 -50.5t-75 -17zM196 37q30 0 49 12.5t29 38.5t13.5 57t3.5 77q0 93 -18 137t-75 44
q-58 0 -79 -46t-21 -140q0 -90 20 -135t78 -45z" />
    <glyph glyph-name="one.denom" horiz-adv-x="283" 
d="M193 -2h-48v372q-14 -8 -46.5 -14t-51.5 -6l-3 37q83 6 123 51h26v-440z" />
    <glyph glyph-name="two.denom" horiz-adv-x="372" 
d="M191 448q55 0 87 -27t32 -82q0 -33 -14.5 -66t-29.5 -53.5t-54 -69.5l-97 -106h202v-44h-257v40l107 126q38 46 53.5 66.5t28 48.5t12.5 57q0 68 -77 68q-43 0 -60 -19.5t-23 -57.5l-44 9q17 110 134 110z" />
    <glyph glyph-name="three.denom" horiz-adv-x="390" 
d="M49 98l46 9q8 -36 24.5 -54t58.5 -18q40 0 65.5 21.5t25.5 67.5q0 86 -100 86h-39v41h29q48 0 76 24.5t28 62.5q0 67 -75 67q-40 0 -57.5 -15.5t-26.5 -48.5l-44 9q19 98 133 98q57 0 87.5 -28.5t30.5 -75.5q0 -45 -26.5 -71.5t-61.5 -35.5v-1q96 -17 96 -114
q0 -58 -38.5 -93.5t-102.5 -35.5q-54 0 -88.5 27t-40.5 78z" />
    <glyph glyph-name="four.denom" horiz-adv-x="354" 
d="M276 0h-48v108h-210v38l197 294h61v-289h53v-43h-53v-108zM70 151h159v239z" />
    <glyph glyph-name="five.denom" horiz-adv-x="377" 
d="M63 218l17 222h211v-42h-171l-14 -151q41 32 89 32q52 0 88 -31t36 -103q0 -68 -40 -110t-110 -42q-51 0 -87.5 26t-44.5 76l45 12q16 -71 89 -71q39 0 67 26.5t28 81.5q0 48 -23 71t-61 23q-42 0 -83 -36z" />
    <glyph glyph-name="six.denom" horiz-adv-x="406" 
d="M345 355l-43 -13q-14 65 -72 65q-32 0 -54.5 -17.5t-34 -47.5t-17 -60.5t-5.5 -64.5q18 20 48.5 35.5t63.5 15.5q60 0 90 -35t30 -92q0 -70 -37.5 -109t-102.5 -39q-78 0 -109 56.5t-31 155.5q0 41 7 79.5t24 77.5t51.5 62.5t81.5 23.5q90 0 110 -93zM121 176
q2 -32 6 -52.5t13 -43.5t28 -34.5t47 -11.5q40 0 63.5 26t23.5 78q0 89 -76 89q-27 0 -57 -15.5t-48 -35.5z" />
    <glyph glyph-name="seven.denom" horiz-adv-x="339" 
d="M133 0h-51l186 397h-230v43h282v-38z" />
    <glyph glyph-name="eight.denom" horiz-adv-x="373" 
d="M233 228q24 -11 37 -18t29.5 -20.5t24 -33t7.5 -45.5q0 -51 -39.5 -84.5t-105.5 -33.5q-70 0 -105 30.5t-35 80.5q0 82 96 120q-37 15 -59.5 43.5t-22.5 65.5q0 55 38.5 85t98.5 30q59 0 93 -27t34 -74q0 -68 -91 -119zM182 205q-87 -31 -87 -99q0 -72 93 -72
q48 0 71.5 22.5t23.5 54.5q0 21 -8.5 36.5t-26.5 27t-30.5 17t-35.5 13.5zM192 244q85 42 85 102q0 62 -84 62q-39 0 -61.5 -18t-22.5 -49q0 -35 20 -57t63 -40z" />
    <glyph glyph-name="nine.denom" horiz-adv-x="406" 
d="M58 93l45 12q9 -38 29 -54.5t54 -16.5q102 0 107 182q-18 -20 -49 -34.5t-65 -14.5q-59 0 -89.5 36t-30.5 95q0 70 37.5 110t101.5 40q79 0 110 -57.5t31 -155.5q0 -242 -158 -242q-48 0 -81 25.5t-42 74.5zM290 258q-2 31 -5.5 53t-13 46.5t-29 37.5t-47.5 13
q-40 0 -63 -26.5t-23 -81.5q0 -91 77 -91q60 0 104 49z" />
    <glyph glyph-name="square" horiz-adv-x="610" 
d="M479 151h-349v349h349v-349z" />
    <glyph glyph-name="square.open" horiz-adv-x="610" 
d="M434 196v259h-259v-259h259zM479 151h-349v349h349v-349z" />
    <glyph glyph-name="circle.open" horiz-adv-x="610" 
d="M305 119q-85 0 -145 60t-60 145t60 145t145 60t145 -60t60 -145t-60 -145t-145 -60zM305 167q63 0 107 47.5t44 112.5q0 64 -43.5 108.5t-107.5 44.5t-107 -45.5t-43 -110.5t43 -111t107 -46z" />
    <glyph glyph-name="doublecircle" horiz-adv-x="610" 
d="M305 269q22 0 37.5 16.5t15.5 39.5t-15.5 38.5t-37.5 15.5t-37.5 -16.5t-15.5 -38.5q0 -23 15.5 -39t37.5 -16zM305 180q-59 0 -101.5 42.5t-42.5 101.5t42.5 101t101.5 42t101 -42t42 -101t-42 -101.5t-101 -42.5zM305 214q44 0 75 33.5t31 78.5t-31 76t-75 31
t-74.5 -32t-30.5 -77q0 -46 30 -78t75 -32z" />
    <glyph glyph-name="triangle.left" horiz-adv-x="425" 
d="M275 203l-185 117l185 114v-231z" />
    <glyph glyph-name="raute" horiz-adv-x="610" 
d="M514 325l-210 -209l-209 210l210 209z" />
    <glyph glyph-name="arrowlong.left" horiz-adv-x="540" 
d="M546 388v-46h-474l99 -152h-59l-115 173l115 177h57l-97 -152h474z" />
    <glyph glyph-name="arrowlong.right" horiz-adv-x="540" 
d="M-12 342v46h474l-97 152h57l115 -177l-115 -173h-59l99 152h-474z" />
    <glyph glyph-name="arrowlong.up" horiz-adv-x="540" 
d="M294 91h-49v475l-151 -94v53l177 115l175 -115v-53l-152 93v-474z" />
    <glyph glyph-name="arrowlong.down" horiz-adv-x="540" 
d="M246 640h49v-475l151 94v-53l-177 -115l-175 115v53l152 -93v474z" />
    <glyph glyph-name="arrowlong.leftup" horiz-adv-x="540" 
d="M472 189l-36 -33l-335 335l-41 -175l-38 38l44 206l205 42l39 -37l-174 -38z" />
    <glyph glyph-name="arrowlong.leftdown" horiz-adv-x="540" 
d="M432 602l36 -33l-336 -338l174 -38l-39 -37l-205 42l-44 206l38 38l41 -175z" />
    <glyph glyph-name="arrowlong.rightup" horiz-adv-x="540" 
d="M74 156l-36 33l336 338l-174 38l39 37l205 -42l44 -206l-38 -38l-41 175z" />
    <glyph glyph-name="arrowlong.rightdown" horiz-adv-x="540" 
d="M52 569l36 33l335 -335l41 175l38 -38l-44 -206l-205 -42l-39 37l174 38z" />
    <glyph glyph-name="ornm1" horiz-adv-x="600" 
d="M550 500v-500h-500v500h500z" />
    <glyph glyph-name="ornm2" horiz-adv-x="500" 
d="M211 351l44 143l43 -143l147 32l-102 -108l102 -111l-147 33l-43 -144l-44 144l-148 -33l102 111l-102 108z" />
    <glyph glyph-name="ornm3" horiz-adv-x="500" 
d="M203 352l49 137l48 -137l144 -4l-116 -87l43 -140l-119 83l-120 -83l43 140l-116 87z" />
    <glyph glyph-name="ornm4" horiz-adv-x="500" 
d="M59 348l144 4l48 134v-283l-119 -82l43 140z" />
    <glyph glyph-name="ornm5" horiz-adv-x="500" 
d="M252 489l48 -137l144 -4l-116 -87l43 -140l-119 83v285z" />
    <glyph glyph-name="ornm6" horiz-adv-x="752" 
d="M291 195l298 334l113 -105l-390 -425l-262 204l95 114z" />
    <glyph glyph-name="ornm7" horiz-adv-x="634" 
d="M205 260l-155 144l105 113l155 -143l145 157l113 -105l-144 -158l160 -147l-106 -115l-159 148l-141 -154l-115 106z" />
    <glyph glyph-name="ornm8" horiz-adv-x="844" 
d="M50 377q0 97 65 163t163 66q102 0 166.5 -63t64.5 -164q0 -54 -21 -102l306 -199l-58 -92l-301 219q-62 -54 -157 -54q-101 0 -164.5 62.5t-63.5 163.5zM132 377q0 -66 40.5 -108t105.5 -42t107 42.5t42 109.5t-42 109.5t-107 42.5q-64 0 -105 -43.5t-41 -110.5z" />
    <glyph glyph-name="ornm9" horiz-adv-x="818" 
d="M631 476h-127v115h-317v-285h-137v-243h102v-63h514v63h102v243h-137v170zM152 -111v65h514v-65h-514zM631 499h-102v92l7 5l100 -90z" />
    <glyph glyph-name="ornm10" horiz-adv-x="562" 
d="M148 489q0 60 37.5 97.5t95.5 37.5t96 -37.5t38 -97.5q0 -42 -19.5 -74t-52.5 -48v-4q90 -6 129.5 -47t39.5 -128v-188h-462v188q0 88 39.5 128.5t129.5 46.5v4q-71 35 -71 122z" />
    <glyph glyph-name="ornm11" horiz-adv-x="720" 
d="M122 210h-72v-210h620v210h-73v-142h-475v142zM261 382l-25 237h247l-21 -237h116l-218 -218l-214 218h115z" />
    <glyph glyph-name="ornm12" horiz-adv-x="571" 
d="M50 0v615h113v-299q0 -82 15 -117t57 -35t56 34.5t14 117.5v161h-45v-161q0 -68 -4 -90.5t-21 -22.5q-19 0 -23.5 23t-4.5 90v299h314v-615h-471z" />
    <glyph glyph-name="ornm13" horiz-adv-x="774" 
d="M468 -80h-157v8q0 46 -32.5 79t-79.5 33q-38 0 -66 -22l-82 143q39 18 53.5 60t-0.5 83.5t-54 59.5l83 141q29 -21 66 -21q47 0 79.5 32.5t32.5 78.5v11h158q0 -2 -0.5 -5.5t-0.5 -5.5q0 -47 32 -79t79 -32q36 0 65 21l80 -138q-32 -12 -51.5 -40.5t-19.5 -64.5t19.5 -64
t51.5 -40l-80 -138q-28 20 -65 20q-46 0 -78.5 -32.5t-32.5 -79.5v-8zM239 268q0 -66 41.5 -107.5t105.5 -41.5t106 41.5t42 107.5t-42 107.5t-106 41.5t-105.5 -41.5t-41.5 -107.5z" />
    <glyph glyph-name="ornm14" horiz-adv-x="541" 
d="M491 0h-441v406h54q0 140 34.5 199.5t132.5 59.5q100 0 133 -56.5t33 -202.5h54v-406zM271 598q-57 0 -75.5 -38.5t-18.5 -153.5h188q0 115 -18 153.5t-76 38.5zM246 205l-15 -96h80l-16 96q25 12 25 38q0 23 -13.5 35.5t-35.5 12.5t-35.5 -12.5t-13.5 -35.5
q0 -25 24 -38z" />
    <glyph glyph-name="ornm15" horiz-adv-x="729" 
d="M245 205l-14 -96h79l-15 96q25 12 25 38q0 23 -14 35.5t-36 12.5q-21 0 -34.5 -12.5t-13.5 -35.5q0 -25 23 -38zM679 424h-73q0 102 -16.5 138t-70.5 36q-52 0 -75.5 -32.5t-23.5 -114.5v-45h71v-406h-441v406h296v43q0 213 172 213q98 0 129.5 -55t31.5 -183z" />
    <glyph glyph-name="ornm16" horiz-adv-x="846" 
d="M50 429l371 -320l375 318v-427h-746v429zM421 176l-350 302h704z" />
    <glyph glyph-name="ornm17" horiz-adv-x="846" 
d="M796 601v-89h-255l30 89h225zM50 478h746v-478h-746v478z" />
    <glyph glyph-name="ornm18" horiz-adv-x="785" 
d="M283 -50l-2 7q104 40 102 136q-56 1 -113 18t-107 49t-81.5 83.5t-31.5 113.5q0 63 32 115t83.5 84t111 49t119.5 17q133 1 236 -75.5t103 -190.5q0 -156 -193 -237q-56 -169 -259 -169z" />
    <glyph glyph-name="ornm19" horiz-adv-x="706" 
d="M50 68q0 37 22.5 58.5t57.5 21.5q36 0 58 -22t22 -58q0 -37 -22 -58.5t-58 -21.5q-35 0 -57.5 22t-22.5 58zM435 0h-107q0 113 -76 186.5t-186 73.5v104q156 0 262.5 -103t106.5 -261zM656 0h-110q0 136 -64 246t-173.5 171t-242.5 61v104q162 0 297 -74t214 -208
t79 -300z" />
    <glyph glyph-name="ornm20" horiz-adv-x="785" 
d="M376 0v183h-101v-183h-103v283h-122l345 355l123 -129v103h101v-208l116 -121h-114v-283h-245z" />
    <glyph glyph-name="a.sc" horiz-adv-x="522" 
d="M228 548h65l194 -548h-54l-61 176h-228l-61 -176h-48zM357 221l-98 289l-99 -289h197z" />
    <glyph glyph-name="b.sc" horiz-adv-x="503" 
d="M256 0h-163v548h182q169 0 169 -134q0 -56 -32.5 -87t-85.5 -41v-2q135 -19 135 -136q0 -80 -53.5 -114t-151.5 -34zM141 44h112q77 0 117 21t40 84q0 29 -10 49.5t-25.5 32t-41 18t-49.5 8.5t-58 2h-85v-215zM141 301h98q37 0 68.5 8t57.5 33.5t26 66.5q0 63 -36 79.5
t-132 16.5h-82v-204z" />
    <glyph glyph-name="c.sc" horiz-adv-x="559" 
d="M294 -9q-124 0 -182.5 72.5t-58.5 200.5q0 140 70 217t187 77q88 0 141.5 -44.5t61.5 -133.5l-47 -5q-10 69 -47 104t-110 35q-98 0 -152.5 -62.5t-54.5 -181.5q0 -236 194 -236q71 0 111.5 30t56.5 95l44 -10q-15 -81 -74.5 -119.5t-139.5 -38.5z" />
    <glyph glyph-name="d.sc" horiz-adv-x="585" 
d="M241 0h-148v548h161q141 0 209 -69.5t68 -196.5q0 -130 -72.5 -206t-217.5 -76zM142 43h103q114 0 174.5 59.5t60.5 168.5q0 130 -58 182t-173 52h-107v-462z" />
    <glyph glyph-name="e.sc" horiz-adv-x="463" 
d="M142 255v-211h273v-44h-322v548h315v-44h-266v-204h248v-45h-248z" />
    <glyph glyph-name="f.sc" horiz-adv-x="442" 
d="M142 245v-245h-49v548h315v-44h-266v-214h247v-45h-247z" />
    <glyph glyph-name="g.sc" horiz-adv-x="587" 
d="M474 0l-9 77q-14 -35 -63 -60.5t-109 -25.5q-123 0 -181.5 72.5t-58.5 204.5q0 140 69 215t189 75q187 0 201 -181l-47 -4q-7 75 -46.5 108t-109.5 33q-96 0 -151 -63.5t-55 -178.5q0 -132 52.5 -185.5t143.5 -53.5q79 0 123 45t44 110v52h-171v43h215v-283h-36z" />
    <glyph glyph-name="h.sc" horiz-adv-x="582" 
d="M490 548v-548h-50v258h-298v-258h-49v548h49v-245h298v245h50z" />
    <glyph glyph-name="i.sc" horiz-adv-x="235" 
d="M142 548v-548h-49v548h49z" />
    <glyph glyph-name="j.sc" horiz-adv-x="395" 
d="M262 137v411h49v-405q0 -84 -39 -118t-109 -34q-126 0 -133 130l47 7q4 -29 10 -47t26 -32.5t54 -14.5q44 0 69.5 22.5t25.5 80.5z" />
    <glyph glyph-name="k.sc" horiz-adv-x="508" 
d="M142 548v-281l267 281h59l-228 -239l245 -309h-59l-219 272l-65 -67v-205h-49v548h49z" />
    <glyph glyph-name="l.sc" horiz-adv-x="441" 
d="M142 548v-504h257v-44h-306v548h49z" />
    <glyph glyph-name="m.sc" horiz-adv-x="709" 
d="M616 548v-548h-47v492l-186 -492h-59l-185 493v-493h-46v548h76l186 -500l186 500h75z" />
    <glyph glyph-name="n.sc" horiz-adv-x="598" 
d="M505 0h-63l-302 495v-495h-47v548h71l295 -487v487h46v-548z" />
    <glyph glyph-name="o.sc" horiz-adv-x="607" 
d="M301 -9q-122 0 -185 77.5t-63 206.5q0 126 68.5 204.5t189.5 78.5q119 0 181 -76t62 -196q0 -137 -65.5 -216t-187.5 -79zM303 36q91 0 145.5 62t54.5 181q0 111 -52.5 172.5t-141.5 61.5q-90 0 -147 -63t-57 -175q0 -114 54 -176.5t144 -62.5z" />
    <glyph glyph-name="p.sc" horiz-adv-x="495" 
d="M141 209v-209h-48v548h169q186 0 186 -161q0 -178 -211 -178h-96zM141 254h95q78 0 119.5 26.5t41.5 105.5q0 72 -42 95.5t-144 23.5h-70v-251z" />
    <glyph glyph-name="q.sc" horiz-adv-x="607" 
d="M301 -9q-122 0 -185 77.5t-63 206.5q0 126 68.5 204.5t189.5 78.5q119 0 181 -76t62 -196q0 -150 -78 -228l72 -76l-31 -28l-73 75q-62 -38 -143 -38zM303 35q63 0 109 30l-106 113l33 30l106 -115q58 66 58 186q0 111 -52.5 172.5t-141.5 61.5q-90 0 -147 -63t-57 -175
q0 -114 54.5 -177t143.5 -63z" />
    <glyph glyph-name="r.sc" horiz-adv-x="515" 
d="M339 246l141 -246h-53l-136 236h-150v-236h-48v548h180q96 0 137.5 -42t41.5 -105q0 -60 -30 -99.5t-83 -55.5zM141 280h124q66 0 100.5 27.5t34.5 93.5q0 60 -37 82t-111 22h-111v-225z" />
    <glyph glyph-name="s.sc" horiz-adv-x="478" 
d="M259 514q-131 0 -131 -99q0 -19 5 -34.5t17.5 -27t22 -18.5t32 -14.5t32.5 -10.5t38 -10q38 -10 60.5 -18t49.5 -24.5t39.5 -43.5t12.5 -65q0 -81 -53.5 -119.5t-136.5 -38.5q-172 0 -198 152l50 7q13 -54 44.5 -84t103.5 -30q26 0 49 4.5t44 16t33 33t12 52.5
q0 29 -10.5 49t-34 33t-42.5 19t-54 15q-32 8 -50 13t-44 17.5t-40 27t-24.5 39.5t-10.5 57q0 66 51 106t131 40q159 0 177 -152l-47 -7q-9 51 -36 83t-92 32z" />
    <glyph glyph-name="t.sc" horiz-adv-x="435" 
d="M243 0h-50v504h-171v44h391v-44h-170v-504z" />
    <glyph glyph-name="u.sc" horiz-adv-x="574" 
d="M287 36q75 0 112.5 33.5t37.5 112.5v366h49v-371q0 -186 -203 -186q-102 0 -148.5 47t-46.5 140v370h49v-365q0 -147 150 -147z" />
    <glyph glyph-name="v.sc" horiz-adv-x="486" 
d="M282 0h-67l-193 548h55l172 -504h2l163 504h49z" />
    <glyph glyph-name="w.sc" horiz-adv-x="682" 
d="M538 0h-62l-131 490h-2l-135 -490h-58l-124 548h53l102 -485h2l133 485h59l132 -493h2l98 493h49z" />
    <glyph glyph-name="x.sc" horiz-adv-x="494" 
d="M450 548l-176 -266l194 -282h-55l-169 244l-163 -244h-55l186 278l-177 270h55l152 -233l155 233h53z" />
    <glyph glyph-name="y.sc" horiz-adv-x="443" 
d="M250 218v-218h-49v215l-191 333h55l161 -283h1l157 283h49z" />
    <glyph glyph-name="z.sc" horiz-adv-x="472" 
d="M415 509l-315 -464h327v-45h-388v37l315 466h-306v45h367v-39z" />
    <glyph glyph-name="ae.sc" horiz-adv-x="774" 
d="M452 248v-204h274v-44h-323v248h-178l-147 -248h-50l321 548h369v-44h-266v-213h248v-43h-248zM403 291v212l-31 1l-123 -213h154z" />
    <glyph glyph-name="eng.sc" horiz-adv-x="598" 
d="M382 -223q-28 0 -62.5 6.5t-46.5 14.5l13 43q52 -19 98 -19q72 0 72 84v87l-316 502v-495h-47v548h71l295 -472v472h46v-635q0 -68 -33 -102t-90 -34z" />
    <glyph glyph-name="eth.sc" horiz-adv-x="585" 
d="M241 0h-148v261h-60v43h60v244h161q141 0 209 -69.5t68 -196.5q0 -130 -72.5 -206t-217.5 -76zM142 43h103q114 0 174.5 59.5t60.5 168.5q0 130 -58 182t-173 52h-107v-201h184v-43h-184v-218z" />
    <glyph glyph-name="oe.sc" horiz-adv-x="870" 
d="M822 0h-318v95q-65 -104 -201 -104q-124 0 -187 77.5t-63 206.5q0 126 68.5 204.5t190.5 78.5q129 0 192 -96v86h311v-44h-266v-204h248v-45h-248v-211h273v-44zM303 36q91 0 145.5 61.5t54.5 178.5q0 114 -52 175.5t-142 61.5t-147 -62.5t-57 -175.5q0 -114 54 -176.5
t144 -62.5z" />
    <glyph glyph-name="thorn.sc" horiz-adv-x="491" 
d="M141 132v-132h-48v550h48v-87h116q186 0 186 -157q0 -174 -211 -174h-91zM141 177h90q79 0 120 25.5t41 102.5q0 70 -41.5 92.5t-144.5 22.5h-65v-243z" />
    <glyph glyph-name="kgreenlandic.sc" horiz-adv-x="508" 
d="M142 548v-281l267 281h59l-228 -239l245 -309h-59l-219 272l-65 -67v-205h-49v548h49z" />
    <glyph glyph-name="dotlessi.sc" horiz-adv-x="235" 
d="M142 548v-548h-49v548h49z" />
    <glyph glyph-name="aacute.sc" horiz-adv-x="522" 
d="M228 548h65l194 -548h-54l-61 176h-228l-61 -176h-48zM357 221l-98 289l-99 -289h197zM372 786l-143 -179l-42 14l113 165h72z" />
    <glyph glyph-name="abreve.sc" horiz-adv-x="522" 
d="M228 548h65l194 -548h-54l-61 176h-228l-61 -176h-48zM357 221l-98 289l-99 -289h197zM356 763l43 -4q2 -69 -33.5 -109.5t-105.5 -40.5q-131 0 -133 148l44 6q4 -64 24.5 -88t65.5 -24q47 0 70.5 24.5t24.5 87.5z" />
    <glyph glyph-name="acircumflex.sc" horiz-adv-x="522" 
d="M228 548h65l194 -548h-54l-61 176h-228l-61 -176h-48zM357 221l-98 289l-99 -289h197zM408 620l-47 -6l-101 129l-95 -132l-45 9l116 165h50z" />
    <glyph glyph-name="adieresis.sc" horiz-adv-x="522" 
d="M228 548h65l194 -548h-54l-61 176h-228l-61 -176h-48zM357 221l-98 289l-99 -289h197zM209 700q0 -20 -12 -31t-32 -11q-45 0 -45 42q0 20 12 31t33 11q20 0 32 -11.5t12 -30.5zM400 700q0 -20 -12 -31t-32 -11q-21 0 -33 11t-12 31q0 19 12.5 30.5t32.5 11.5t32 -11.5
t12 -30.5z" />
    <glyph glyph-name="aeacute.sc" horiz-adv-x="774" 
d="M452 248v-204h274v-44h-323v248h-178l-147 -248h-50l321 548h369v-44h-266v-213h248v-43h-248zM403 291v212l-31 1l-123 -213h154zM639 786l-143 -179l-42 14l113 165h72z" />
    <glyph glyph-name="agrave.sc" horiz-adv-x="522" 
d="M228 548h65l194 -548h-54l-61 176h-228l-61 -176h-48zM357 221l-98 289l-99 -289h197zM299 607l-144 179h72l113 -165z" />
    <glyph glyph-name="amacron.sc" horiz-adv-x="522" 
d="M228 548h65l194 -548h-54l-61 176h-228l-61 -176h-48zM357 221l-98 289l-99 -289h197zM399 680h-277v45h277v-45z" />
    <glyph glyph-name="aogonek.sc" horiz-adv-x="522" 
d="M499 -140l36 -20q-15 -31 -44 -47t-59 -16q-38 0 -63 21t-25 59q0 77 87 148l-59 171h-228l-61 -176h-48l193 548h65l194 -548q-47 -38 -68 -67.5t-21 -68.5q0 -19 11 -31t31 -12q36 0 59 39zM357 221l-98 289l-99 -289h197z" />
    <glyph glyph-name="aring.sc" horiz-adv-x="544" 
d="M372 619q0 -71 -61 -92l187 -527h-54l-61 176h-228l-61 -176h-48l185 526q-62 19 -62 87q0 48 29 73.5t72 25.5q45 0 73.5 -23t28.5 -70zM368 221l-98 289l-99 -289h197zM270 559q55 0 55 60q0 55 -55 55q-26 0 -41.5 -15.5t-15.5 -43.5q0 -56 57 -56z" />
    <glyph glyph-name="aringacute.sc" horiz-adv-x="544" 
d="M372 619q0 -71 -61 -92l187 -527h-54l-61 176h-228l-61 -176h-48l185 526q-62 19 -62 87q0 48 29 73.5t72 25.5q45 0 73.5 -23t28.5 -70zM368 221l-98 289l-99 -289h197zM270 559q55 0 55 60q0 55 -55 55q-26 0 -41.5 -15.5t-15.5 -43.5q0 -56 57 -56zM368 887l-135 -144
l-42 14l104 130h73z" />
    <glyph glyph-name="atilde.sc" horiz-adv-x="522" 
d="M228 548h65l194 -548h-54l-61 176h-228l-61 -176h-48zM357 221l-98 289l-99 -289h197zM180 734q32 0 82 -22.5t71 -22.5q22 0 32.5 11t10.5 47l38 -2q7 -56 -16 -79t-61 -23q-30 0 -81.5 23t-74.5 23q-40 0 -39 -60l-36 2q-7 55 16 79t58 24z" />
    <glyph glyph-name="cacute.sc" horiz-adv-x="559" 
d="M294 -9q-124 0 -182.5 72.5t-58.5 200.5q0 140 70 217t187 77q88 0 141.5 -44.5t61.5 -133.5l-47 -5q-10 69 -47 104t-110 35q-98 0 -152.5 -62.5t-54.5 -181.5q0 -236 194 -236q71 0 111.5 30t56.5 95l44 -10q-15 -81 -74.5 -119.5t-139.5 -38.5zM413 786l-143 -179
l-42 14l113 165h72z" />
    <glyph glyph-name="ccaron.sc" horiz-adv-x="559" 
d="M294 -9q-124 0 -182.5 72.5t-58.5 200.5q0 140 70 217t187 77q88 0 141.5 -44.5t61.5 -133.5l-47 -5q-10 69 -47 104t-110 35q-98 0 -152.5 -62.5t-54.5 -181.5q0 -236 194 -236q71 0 111.5 30t56.5 95l44 -10q-15 -81 -74.5 -119.5t-139.5 -38.5zM156 772l51 7l96 -130
l98 132l43 -9l-116 -165h-51z" />
    <glyph glyph-name="ccedilla.sc" horiz-adv-x="559" 
d="M207 -193l15 34q24 -19 57 -19q25 0 38.5 14.5t13.5 35.5q0 54 -81 55l9 66q-206 20 -206 271q0 140 70 217t187 77q88 0 141.5 -44.5t61.5 -133.5l-47 -5q-10 69 -47 104t-110 35q-98 0 -152.5 -62.5t-54.5 -181.5q0 -236 194 -236q71 0 111.5 30t56.5 95l44 -10
q-15 -81 -73.5 -119t-137.5 -39l-4 -34q84 -10 84 -83q0 -40 -27 -65.5t-68 -25.5q-49 0 -75 24z" />
    <glyph glyph-name="ccircumflex.sc" horiz-adv-x="559" 
d="M294 -9q-124 0 -182.5 72.5t-58.5 200.5q0 140 70 217t187 77q88 0 141.5 -44.5t61.5 -133.5l-47 -5q-10 69 -47 104t-110 35q-98 0 -152.5 -62.5t-54.5 -181.5q0 -236 194 -236q71 0 111.5 30t56.5 95l44 -10q-15 -81 -74.5 -119.5t-139.5 -38.5zM449 620l-47 -6
l-101 129l-95 -132l-45 9l116 165h50z" />
    <glyph glyph-name="cdotaccent.sc" horiz-adv-x="559" 
d="M294 -9q-124 0 -182.5 72.5t-58.5 200.5q0 140 70 217t187 77q88 0 141.5 -44.5t61.5 -133.5l-47 -5q-10 69 -47 104t-110 35q-98 0 -152.5 -62.5t-54.5 -181.5q0 -236 194 -236q71 0 111.5 30t56.5 95l44 -10q-15 -81 -74.5 -119.5t-139.5 -38.5zM348 712q0 -42 -46 -42
t-46 42q0 43 46 43t46 -43z" />
    <glyph glyph-name="dcaron.sc" horiz-adv-x="585" 
d="M241 0h-148v548h161q141 0 209 -69.5t68 -196.5q0 -130 -72.5 -206t-217.5 -76zM142 43h103q114 0 174.5 59.5t60.5 168.5q0 130 -58 182t-173 52h-107v-462zM130 772l51 7l96 -130l98 132l43 -9l-116 -165h-51z" />
    <glyph glyph-name="dcroat.sc" horiz-adv-x="585" 
d="M241 0h-148v261h-60v43h60v244h161q141 0 209 -69.5t68 -196.5q0 -130 -72.5 -206t-217.5 -76zM142 43h103q114 0 174.5 59.5t60.5 168.5q0 130 -58 182t-173 52h-107v-201h184v-43h-184v-218z" />
    <glyph glyph-name="eacute.sc" horiz-adv-x="463" 
d="M142 255v-211h273v-44h-322v548h315v-44h-266v-204h248v-45h-248zM361 786l-143 -179l-42 14l113 165h72z" />
    <glyph glyph-name="ebreve.sc" horiz-adv-x="463" 
d="M142 255v-211h273v-44h-322v548h315v-44h-266v-204h248v-45h-248zM345 763l43 -4q2 -69 -33.5 -109.5t-105.5 -40.5q-131 0 -133 148l44 6q4 -64 24.5 -88t65.5 -24q47 0 70.5 24.5t24.5 87.5z" />
    <glyph glyph-name="ecaron.sc" horiz-adv-x="463" 
d="M142 255v-211h273v-44h-322v548h315v-44h-266v-204h248v-45h-248zM104 772l51 7l96 -130l98 132l43 -9l-116 -165h-51z" />
    <glyph glyph-name="ecircumflex.sc" horiz-adv-x="463" 
d="M142 255v-211h273v-44h-322v548h315v-44h-266v-204h248v-45h-248zM397 620l-47 -6l-101 129l-95 -132l-45 9l116 165h50z" />
    <glyph glyph-name="edieresis.sc" horiz-adv-x="463" 
d="M142 255v-211h273v-44h-322v548h315v-44h-266v-204h248v-45h-248zM198 700q0 -20 -12 -31t-32 -11q-45 0 -45 42q0 20 12 31t33 11q20 0 32 -11.5t12 -30.5zM389 700q0 -20 -12 -31t-32 -11q-21 0 -33 11t-12 31q0 19 12.5 30.5t32.5 11.5t32 -11.5t12 -30.5z" />
    <glyph glyph-name="edotaccent.sc" horiz-adv-x="463" 
d="M142 255v-211h273v-44h-322v548h315v-44h-266v-204h248v-45h-248zM296 712q0 -42 -46 -42t-46 42q0 43 46 43t46 -43z" />
    <glyph glyph-name="egrave.sc" horiz-adv-x="463" 
d="M142 255v-211h273v-44h-322v548h315v-44h-266v-204h248v-45h-248zM288 607l-144 179h72l113 -165z" />
    <glyph glyph-name="emacron.sc" horiz-adv-x="463" 
d="M142 255v-211h273v-44h-322v548h315v-44h-266v-204h248v-45h-248zM388 680h-277v45h277v-45z" />
    <glyph glyph-name="eogonek.sc" horiz-adv-x="463" 
d="M390 -140l36 -20q-15 -31 -44 -47t-59 -16q-38 0 -63 21t-25 59q0 72 80 143h-222v548h315v-44h-266v-204h248v-45h-248v-211h273v-44h-41q-43 -38 -64 -68.5t-21 -67.5q0 -19 11 -31t31 -12q36 0 59 39z" />
    <glyph glyph-name="gbreve.sc" horiz-adv-x="587" 
d="M474 0l-9 77q-14 -35 -63 -60.5t-109 -25.5q-123 0 -181.5 72.5t-58.5 204.5q0 140 69 215t189 75q187 0 201 -181l-47 -4q-7 75 -46.5 108t-109.5 33q-96 0 -151 -63.5t-55 -178.5q0 -132 52.5 -185.5t143.5 -53.5q79 0 123 45t44 110v52h-171v43h215v-283h-36zM397 763
l43 -4q2 -69 -33.5 -109.5t-105.5 -40.5q-131 0 -133 148l44 6q4 -64 24.5 -88t65.5 -24q47 0 70.5 24.5t24.5 87.5z" />
    <glyph glyph-name="gcircumflex.sc" horiz-adv-x="587" 
d="M474 0l-9 77q-14 -35 -63 -60.5t-109 -25.5q-123 0 -181.5 72.5t-58.5 204.5q0 140 69 215t189 75q187 0 201 -181l-47 -4q-7 75 -46.5 108t-109.5 33q-96 0 -151 -63.5t-55 -178.5q0 -132 52.5 -185.5t143.5 -53.5q79 0 123 45t44 110v52h-171v43h215v-283h-36zM449 620
l-47 -6l-101 129l-95 -132l-45 9l116 165h50z" />
    <glyph glyph-name="gdotaccent.sc" horiz-adv-x="587" 
d="M474 0l-9 77q-14 -35 -63 -60.5t-109 -25.5q-123 0 -181.5 72.5t-58.5 204.5q0 140 69 215t189 75q187 0 201 -181l-47 -4q-7 75 -46.5 108t-109.5 33q-96 0 -151 -63.5t-55 -178.5q0 -132 52.5 -185.5t143.5 -53.5q79 0 123 45t44 110v52h-171v43h215v-283h-36zM348 712
q0 -42 -46 -42t-46 42q0 43 46 43t46 -43z" />
    <glyph glyph-name="gcommaaccent.sc" horiz-adv-x="587" 
d="M474 0l-9 77q-14 -35 -63 -60.5t-109 -25.5q-123 0 -181.5 72.5t-58.5 204.5q0 140 69 215t189 75q187 0 201 -181l-47 -4q-7 75 -46.5 108t-109.5 33q-96 0 -151 -63.5t-55 -178.5q0 -132 52.5 -185.5t143.5 -53.5q79 0 123 45t44 110v52h-171v43h215v-283h-36z
M233 -209l34 140h66l-58 -147z" />
    <glyph glyph-name="hbar.sc" horiz-adv-x="582" 
d="M490 548v-103h60v-42h-60v-403h-50v258h-298v-258h-49v403h-61v42h61v103h49v-103h298v103h50zM142 303h298v100h-298v-100z" />
    <glyph glyph-name="hcircumflex.sc" horiz-adv-x="582" 
d="M490 548v-548h-50v258h-298v-258h-49v548h49v-245h298v245h50zM438 620l-47 -6l-101 129l-95 -132l-45 9l116 165h50z" />
    <glyph glyph-name="iacute.sc" horiz-adv-x="235" 
d="M142 548v-548h-49v548h49zM228 786l-143 -179l-42 14l113 165h72z" />
    <glyph glyph-name="ibreve.sc" horiz-adv-x="235" 
d="M142 548v-548h-49v548h49zM212 763l43 -4q2 -69 -33.5 -109.5t-105.5 -40.5q-131 0 -133 148l44 6q4 -64 24.5 -88t65.5 -24q47 0 70.5 24.5t24.5 87.5z" />
    <glyph glyph-name="icircumflex.sc" horiz-adv-x="235" 
d="M142 548v-548h-49v548h49zM264 620l-47 -6l-101 129l-95 -132l-45 9l116 165h50z" />
    <glyph glyph-name="idieresis.sc" horiz-adv-x="235" 
d="M142 548v-548h-49v548h49zM65 700q0 -20 -12 -31t-32 -11q-45 0 -45 42q0 20 12 31t33 11q20 0 32 -11.5t12 -30.5zM256 700q0 -20 -12 -31t-32 -11q-21 0 -33 11t-12 31q0 19 12.5 30.5t32.5 11.5t32 -11.5t12 -30.5z" />
    <glyph glyph-name="idotaccent.sc" horiz-adv-x="235" 
d="M142 548v-548h-49v548h49zM163 712q0 -42 -46 -42t-46 42q0 43 46 43t46 -43z" />
    <glyph glyph-name="igrave.sc" horiz-adv-x="235" 
d="M142 548v-548h-49v548h49zM155 607l-144 179h72l113 -165z" />
    <glyph glyph-name="imacron.sc" horiz-adv-x="235" 
d="M142 548v-548h-49v548h49zM255 680h-277v45h277v-45z" />
    <glyph glyph-name="iogonek.sc" horiz-adv-x="235" 
d="M158 -140l36 -20q-15 -31 -44 -47t-59 -16q-38 0 -63 21t-25 59q0 77 90 151v540h49v-548q-46 -40 -65.5 -68.5t-19.5 -67.5q0 -19 11 -31t31 -12q36 0 59 39z" />
    <glyph glyph-name="itilde.sc" horiz-adv-x="235" 
d="M142 548v-548h-49v548h49zM36 734q32 0 82 -22.5t71 -22.5q22 0 32.5 11t10.5 47l38 -2q7 -56 -16 -79t-61 -23q-30 0 -81.5 23t-74.5 23q-40 0 -39 -60l-36 2q-7 55 16 79t58 24z" />
    <glyph glyph-name="jcircumflex.sc" horiz-adv-x="395" 
d="M262 137v411h49v-405q0 -84 -39 -118t-109 -34q-126 0 -133 130l47 7q4 -29 10 -47t26 -32.5t54 -14.5q44 0 69.5 22.5t25.5 80.5zM434 620l-47 -6l-101 129l-95 -132l-45 9l116 165h50z" />
    <glyph glyph-name="kcommaaccent.sc" horiz-adv-x="508" 
d="M142 548v-281l267 281h59l-228 -239l245 -309h-59l-219 272l-65 -67v-205h-49v548h49zM205 -209l34 140h66l-58 -147z" />
    <glyph glyph-name="lacute.sc" horiz-adv-x="441" 
d="M142 548v-504h257v-44h-306v548h49zM240 786l-143 -179l-42 14l113 165h72z" />
    <glyph glyph-name="lcaron.sc" horiz-adv-x="441" 
d="M142 548v-504h257v-44h-306v548h49zM288 359l33 189h64l-59 -197z" />
    <glyph glyph-name="lcommaaccent.sc" horiz-adv-x="441" 
d="M142 548v-504h257v-44h-306v548h49zM185 -209l34 140h66l-58 -147z" />
    <glyph glyph-name="ldot.sc" horiz-adv-x="441" 
d="M142 548v-504h257v-44h-306v548h49zM378 314q0 -42 -46 -42t-46 42q0 43 46 43t46 -43z" />
    <glyph glyph-name="lslash.sc" horiz-adv-x="441" 
d="M142 548v-256l176 73v-47l-176 -73v-201h257v-44h-306v225l-72 -30v47l72 30v276h49z" />
    <glyph glyph-name="nacute.sc" horiz-adv-x="598" 
d="M505 0h-63l-302 495v-495h-47v548h71l295 -487v487h46v-548zM415 786l-143 -179l-42 14l113 165h72z" />
    <glyph glyph-name="napostrophe.sc" horiz-adv-x="598" 
d="M505 0h-63l-302 495v-495h-47v548h71l295 -487v487h46v-548zM-14 541l33 140h66l-57 -146z" />
    <glyph glyph-name="ncaron.sc" horiz-adv-x="598" 
d="M505 0h-63l-302 495v-495h-47v548h71l295 -487v487h46v-548zM153 772l51 7l96 -130l98 132l43 -9l-116 -165h-51z" />
    <glyph glyph-name="ncommaaccent.sc" horiz-adv-x="598" 
d="M505 0h-63l-302 495v-495h-47v548h71l295 -487v487h46v-548zM232 -209l34 140h66l-58 -147z" />
    <glyph glyph-name="ntilde.sc" horiz-adv-x="598" 
d="M505 0h-63l-302 495v-495h-47v548h71l295 -487v487h46v-548zM218 734q32 0 82 -22.5t71 -22.5q22 0 32.5 11t10.5 47l38 -2q7 -56 -16 -79t-61 -23q-30 0 -81.5 23t-74.5 23q-40 0 -39 -60l-36 2q-7 55 16 79t58 24z" />
    <glyph glyph-name="oacute.sc" horiz-adv-x="607" 
d="M301 -9q-122 0 -185 77.5t-63 206.5q0 126 68.5 204.5t189.5 78.5q119 0 181 -76t62 -196q0 -137 -65.5 -216t-187.5 -79zM303 36q91 0 145.5 62t54.5 181q0 111 -52.5 172.5t-141.5 61.5q-90 0 -147 -63t-57 -175q0 -114 54 -176.5t144 -62.5zM420 786l-143 -179l-42 14
l113 165h72z" />
    <glyph glyph-name="obreve.sc" horiz-adv-x="607" 
d="M301 -9q-122 0 -185 77.5t-63 206.5q0 126 68.5 204.5t189.5 78.5q119 0 181 -76t62 -196q0 -137 -65.5 -216t-187.5 -79zM303 36q91 0 145.5 62t54.5 181q0 111 -52.5 172.5t-141.5 61.5q-90 0 -147 -63t-57 -175q0 -114 54 -176.5t144 -62.5zM404 763l43 -4
q2 -69 -33.5 -109.5t-105.5 -40.5q-131 0 -133 148l44 6q4 -64 24.5 -88t65.5 -24q47 0 70.5 24.5t24.5 87.5z" />
    <glyph glyph-name="ocircumflex.sc" horiz-adv-x="607" 
d="M301 -9q-122 0 -185 77.5t-63 206.5q0 126 68.5 204.5t189.5 78.5q119 0 181 -76t62 -196q0 -137 -65.5 -216t-187.5 -79zM303 36q91 0 145.5 62t54.5 181q0 111 -52.5 172.5t-141.5 61.5q-90 0 -147 -63t-57 -175q0 -114 54 -176.5t144 -62.5zM456 620l-47 -6l-101 129
l-95 -132l-45 9l116 165h50z" />
    <glyph glyph-name="odieresis.sc" horiz-adv-x="607" 
d="M301 -9q-122 0 -185 77.5t-63 206.5q0 126 68.5 204.5t189.5 78.5q119 0 181 -76t62 -196q0 -137 -65.5 -216t-187.5 -79zM303 36q91 0 145.5 62t54.5 181q0 111 -52.5 172.5t-141.5 61.5q-90 0 -147 -63t-57 -175q0 -114 54 -176.5t144 -62.5zM257 700q0 -20 -12 -31
t-32 -11q-45 0 -45 42q0 20 12 31t33 11q20 0 32 -11.5t12 -30.5zM448 700q0 -20 -12 -31t-32 -11q-21 0 -33 11t-12 31q0 19 12.5 30.5t32.5 11.5t32 -11.5t12 -30.5z" />
    <glyph glyph-name="ograve.sc" horiz-adv-x="607" 
d="M301 -9q-122 0 -185 77.5t-63 206.5q0 126 68.5 204.5t189.5 78.5q119 0 181 -76t62 -196q0 -137 -65.5 -216t-187.5 -79zM303 36q91 0 145.5 62t54.5 181q0 111 -52.5 172.5t-141.5 61.5q-90 0 -147 -63t-57 -175q0 -114 54 -176.5t144 -62.5zM347 607l-144 179h72
l113 -165z" />
    <glyph glyph-name="ohungarumlaut.sc" horiz-adv-x="607" 
d="M301 -9q-122 0 -185 77.5t-63 206.5q0 126 68.5 204.5t189.5 78.5q119 0 181 -76t62 -196q0 -137 -65.5 -216t-187.5 -79zM303 36q91 0 145.5 62t54.5 181q0 111 -52.5 172.5t-141.5 61.5q-90 0 -147 -63t-57 -175q0 -114 54 -176.5t144 -62.5zM378 784l-125 -177l-38 13
l94 164h69zM508 785l-141 -178l-38 14l110 164h69z" />
    <glyph glyph-name="omacron.sc" horiz-adv-x="607" 
d="M301 -9q-122 0 -185 77.5t-63 206.5q0 126 68.5 204.5t189.5 78.5q119 0 181 -76t62 -196q0 -137 -65.5 -216t-187.5 -79zM303 36q91 0 145.5 62t54.5 181q0 111 -52.5 172.5t-141.5 61.5q-90 0 -147 -63t-57 -175q0 -114 54 -176.5t144 -62.5zM447 680h-277v45h277v-45z
" />
    <glyph glyph-name="oslash.sc" horiz-adv-x="607" 
d="M301 -9q-58 0 -107 19l-39 -77h-57l52 103q-97 72 -97 239q0 126 68.5 204.5t189.5 78.5q54 0 97 -17l38 75h56l-50 -98q102 -71 102 -232q0 -137 -65.5 -216t-187.5 -79zM303 36q91 0 145.5 62t54.5 181q0 132 -74 193l-212 -418q38 -18 86 -18zM105 275q0 -128 69 -192
l212 415q-35 15 -77 15q-90 0 -147 -63t-57 -175z" />
    <glyph glyph-name="oslashacute.sc" horiz-adv-x="607" 
d="M301 -9q-58 0 -107 19l-39 -77h-57l52 103q-97 72 -97 239q0 126 68.5 204.5t189.5 78.5q54 0 97 -17l38 75h56l-50 -98q102 -71 102 -232q0 -137 -65.5 -216t-187.5 -79zM303 36q91 0 145.5 62t54.5 181q0 132 -74 193l-212 -418q38 -18 86 -18zM105 275q0 -128 69 -192
l212 415q-35 15 -77 15q-90 0 -147 -63t-57 -175zM420 786l-143 -179l-42 14l113 165h72z" />
    <glyph glyph-name="otilde.sc" horiz-adv-x="607" 
d="M301 -9q-122 0 -185 77.5t-63 206.5q0 126 68.5 204.5t189.5 78.5q119 0 181 -76t62 -196q0 -137 -65.5 -216t-187.5 -79zM303 36q91 0 145.5 62t54.5 181q0 111 -52.5 172.5t-141.5 61.5q-90 0 -147 -63t-57 -175q0 -114 54 -176.5t144 -62.5zM228 734q32 0 82 -22.5
t71 -22.5q22 0 32.5 11t10.5 47l38 -2q7 -56 -16 -79t-61 -23q-30 0 -81.5 23t-74.5 23q-40 0 -39 -60l-36 2q-7 55 16 79t58 24z" />
    <glyph glyph-name="racute.sc" horiz-adv-x="515" 
d="M339 246l141 -246h-53l-136 236h-150v-236h-48v548h180q96 0 137.5 -42t41.5 -105q0 -60 -30 -99.5t-83 -55.5zM141 280h124q66 0 100.5 27.5t34.5 93.5q0 60 -37 82t-111 22h-111v-225zM368 786l-143 -179l-42 14l113 165h72z" />
    <glyph glyph-name="rcaron.sc" horiz-adv-x="515" 
d="M339 246l141 -246h-53l-136 236h-150v-236h-48v548h180q96 0 137.5 -42t41.5 -105q0 -60 -30 -99.5t-83 -55.5zM141 280h124q66 0 100.5 27.5t34.5 93.5q0 60 -37 82t-111 22h-111v-225zM111 772l51 7l96 -130l98 132l43 -9l-116 -165h-51z" />
    <glyph glyph-name="rcommaaccent.sc" horiz-adv-x="515" 
d="M339 246l141 -246h-53l-136 236h-150v-236h-48v548h180q96 0 137.5 -42t41.5 -105q0 -60 -30 -99.5t-83 -55.5zM141 280h124q66 0 100.5 27.5t34.5 93.5q0 60 -37 82t-111 22h-111v-225zM209 -209l34 140h66l-58 -147z" />
    <glyph glyph-name="sacute.sc" horiz-adv-x="478" 
d="M259 514q-131 0 -131 -99q0 -19 5 -34.5t17.5 -27t22 -18.5t32 -14.5t32.5 -10.5t38 -10q38 -10 60.5 -18t49.5 -24.5t39.5 -43.5t12.5 -65q0 -81 -53.5 -119.5t-136.5 -38.5q-172 0 -198 152l50 7q13 -54 44.5 -84t103.5 -30q26 0 49 4.5t44 16t33 33t12 52.5
q0 29 -10.5 49t-34 33t-42.5 19t-54 15q-32 8 -50 13t-44 17.5t-40 27t-24.5 39.5t-10.5 57q0 66 51 106t131 40q159 0 177 -152l-47 -7q-9 51 -36 83t-92 32zM367 786l-143 -179l-42 14l113 165h72z" />
    <glyph glyph-name="scaron.sc" horiz-adv-x="478" 
d="M259 514q-131 0 -131 -99q0 -19 5 -34.5t17.5 -27t22 -18.5t32 -14.5t32.5 -10.5t38 -10q38 -10 60.5 -18t49.5 -24.5t39.5 -43.5t12.5 -65q0 -81 -53.5 -119.5t-136.5 -38.5q-172 0 -198 152l50 7q13 -54 44.5 -84t103.5 -30q26 0 49 4.5t44 16t33 33t12 52.5
q0 29 -10.5 49t-34 33t-42.5 19t-54 15q-32 8 -50 13t-44 17.5t-40 27t-24.5 39.5t-10.5 57q0 66 51 106t131 40q159 0 177 -152l-47 -7q-9 51 -36 83t-92 32zM110 772l51 7l96 -130l98 132l43 -9l-116 -165h-51z" />
    <glyph glyph-name="scedilla.sc" horiz-adv-x="478" 
d="M174 -193l15 34q24 -19 57 -19q25 0 38.5 14.5t13.5 35.5q0 54 -81 55l9 65q-153 8 -177 151l50 7q13 -54 44.5 -84t103.5 -30q26 0 49 4.5t44 16t33 33t12 52.5q0 29 -10.5 49t-34 33t-42.5 19t-54 15q-32 8 -50 13t-44 17.5t-40 27t-24.5 39.5t-10.5 57q0 66 51 106
t131 40q159 0 177 -152l-47 -7q-9 51 -36 83t-92 32q-131 0 -131 -99q0 -19 5 -34.5t17.5 -27t22 -18.5t32 -14.5t32.5 -10.5t38 -10q38 -10 60.5 -18t49.5 -24.5t39.5 -43.5t12.5 -65q0 -77 -48 -115t-125 -42l-4 -35q84 -10 84 -83q0 -40 -27 -65.5t-68 -25.5
q-49 0 -75 24z" />
    <glyph glyph-name="scircumflex.sc" horiz-adv-x="478" 
d="M259 514q-131 0 -131 -99q0 -19 5 -34.5t17.5 -27t22 -18.5t32 -14.5t32.5 -10.5t38 -10q38 -10 60.5 -18t49.5 -24.5t39.5 -43.5t12.5 -65q0 -81 -53.5 -119.5t-136.5 -38.5q-172 0 -198 152l50 7q13 -54 44.5 -84t103.5 -30q26 0 49 4.5t44 16t33 33t12 52.5
q0 29 -10.5 49t-34 33t-42.5 19t-54 15q-32 8 -50 13t-44 17.5t-40 27t-24.5 39.5t-10.5 57q0 66 51 106t131 40q159 0 177 -152l-47 -7q-9 51 -36 83t-92 32zM403 620l-47 -6l-101 129l-95 -132l-45 9l116 165h50z" />
    <glyph glyph-name="scommaaccent.sc" horiz-adv-x="478" 
d="M259 514q-131 0 -131 -99q0 -19 5 -34.5t17.5 -27t22 -18.5t32 -14.5t32.5 -10.5t38 -10q38 -10 60.5 -18t49.5 -24.5t39.5 -43.5t12.5 -65q0 -81 -53.5 -119.5t-136.5 -38.5q-172 0 -198 152l50 7q13 -54 44.5 -84t103.5 -30q26 0 49 4.5t44 16t33 33t12 52.5
q0 29 -10.5 49t-34 33t-42.5 19t-54 15q-32 8 -50 13t-44 17.5t-40 27t-24.5 39.5t-10.5 57q0 66 51 106t131 40q159 0 177 -152l-47 -7q-9 51 -36 83t-92 32zM191 -209l34 140h66l-58 -147z" />
    <glyph glyph-name="tbar.sc" horiz-adv-x="435" 
d="M243 0h-50v246h-122v42h122v216h-171v44h391v-44h-170v-216h121v-42h-121v-246z" />
    <glyph glyph-name="tcaron.sc" horiz-adv-x="435" 
d="M243 0h-50v504h-171v44h391v-44h-170v-504zM71 772l51 7l96 -130l98 132l43 -9l-116 -165h-51z" />
    <glyph glyph-name="uni0163.sc" horiz-adv-x="435" 
d="M145 -193l15 34q24 -19 57 -19q25 0 38.5 14.5t13.5 35.5q0 54 -81 55l10 73h-5v504h-171v44h391v-44h-170v-504h-6l-6 -43q84 -10 84 -83q0 -40 -27 -65.5t-68 -25.5q-49 0 -75 24z" />
    <glyph glyph-name="uni021B.sc" horiz-adv-x="435" 
d="M243 0h-50v504h-171v44h391v-44h-170v-504zM160 -209l34 140h66l-58 -147z" />
    <glyph glyph-name="uacute.sc" horiz-adv-x="574" 
d="M287 36q75 0 112.5 33.5t37.5 112.5v366h49v-371q0 -186 -203 -186q-102 0 -148.5 47t-46.5 140v370h49v-365q0 -147 150 -147zM398 786l-143 -179l-42 14l113 165h72z" />
    <glyph glyph-name="ubreve.sc" horiz-adv-x="574" 
d="M287 36q75 0 112.5 33.5t37.5 112.5v366h49v-371q0 -186 -203 -186q-102 0 -148.5 47t-46.5 140v370h49v-365q0 -147 150 -147zM382 763l43 -4q2 -69 -33.5 -109.5t-105.5 -40.5q-131 0 -133 148l44 6q4 -64 24.5 -88t65.5 -24q47 0 70.5 24.5t24.5 87.5z" />
    <glyph glyph-name="ucircumflex.sc" horiz-adv-x="574" 
d="M287 36q75 0 112.5 33.5t37.5 112.5v366h49v-371q0 -186 -203 -186q-102 0 -148.5 47t-46.5 140v370h49v-365q0 -147 150 -147zM434 620l-47 -6l-101 129l-95 -132l-45 9l116 165h50z" />
    <glyph glyph-name="udieresis.sc" horiz-adv-x="574" 
d="M287 36q75 0 112.5 33.5t37.5 112.5v366h49v-371q0 -186 -203 -186q-102 0 -148.5 47t-46.5 140v370h49v-365q0 -147 150 -147zM235 700q0 -20 -12 -31t-32 -11q-45 0 -45 42q0 20 12 31t33 11q20 0 32 -11.5t12 -30.5zM426 700q0 -20 -12 -31t-32 -11q-21 0 -33 11
t-12 31q0 19 12.5 30.5t32.5 11.5t32 -11.5t12 -30.5z" />
    <glyph glyph-name="ugrave.sc" horiz-adv-x="574" 
d="M287 36q75 0 112.5 33.5t37.5 112.5v366h49v-371q0 -186 -203 -186q-102 0 -148.5 47t-46.5 140v370h49v-365q0 -147 150 -147zM325 607l-144 179h72l113 -165z" />
    </font>
</defs>
</svg>
