<?xml version="1.0" standalone="no"?>
<!DOCTYPE svg PUBLIC "-//W3C//DTD SVG 1.1//EN" "http://www.w3.org/Graphics/SVG/1.1/DTD/svg11.dtd" >
<svg>
<metadata>
Created by FontForge 20090622 at Thu Feb  9 20:37:07 2017
 By deploy user
Copyright (c) 2012 by TypeTogether. All rights reserved.
</metadata>
<defs>
<font id="AdelleSansTh-Italic" horiz-adv-x="570" >
  <font-face 
    font-family="Adelle Sans Th"
    font-weight="250"
    font-style="italic"
    font-stretch="normal"
    units-per-em="1000"
    panose-1="2 0 5 3 0 0 0 2 0 4"
    ascent="755"
    descent="-245"
    x-height="508"
    cap-height="724"
    bbox="-199 -289 1155 1079"
    underline-thickness="50"
    underline-position="-50"
    slope="-8"
    unicode-range="U+000D-U+FB06"
  />
<missing-glyph horiz-adv-x="500" 
 />
    <glyph glyph-name="ij" unicode="ij" horiz-adv-x="466" 
d="M175 508l-72 -508h-49l72 508h49zM217 685q0 -23 -13.5 -36.5t-36.5 -13.5q-38 0 -38 36q0 23 13 36.5t37 13.5q38 0 38 -36zM274 -94l85 602h49l-85 -598q-10 -71 -40 -102t-91 -31q-15 0 -42.5 5t-38.5 11l14 42q34 -13 70 -13q34 0 53 19.5t26 64.5zM448 685
q0 -23 -13.5 -36.5t-36.5 -13.5q-38 0 -38 36q0 23 13 36.5t37 13.5q38 0 38 -36z" />
    <glyph glyph-name="ff" unicode="ff" horiz-adv-x="603" 
d="M694 747l-8 -41q-35 13 -72 13q-82 0 -95 -97l-15 -114h147l-7 -42h-147l-95 -678h-49l95 678h-262l-95 -678h-49l95 678h-79l6 42h80l14 107q19 148 149 148q44 0 76 -16l-8 -41q-35 13 -72 13q-82 0 -95 -97l-15 -114h262l14 107q19 148 149 148q44 0 76 -16z" />
    <glyph glyph-name="fi" unicode="fi" horiz-adv-x="560" 
d="M502 508l-72 -508h-49l66 466h-261l-95 -678h-49l95 678h-79l6 42h80l14 107q19 148 149 148q44 0 76 -16l-8 -41q-35 13 -72 13q-82 0 -95 -97l-15 -114h309zM544 685q0 -23 -13.5 -36.5t-36.5 -13.5q-38 0 -38 36q0 23 13 36.5t37 13.5q38 0 38 -36z" />
    <glyph glyph-name="fl" unicode="fl" horiz-adv-x="563" 
d="M383 747l-8 -41q-35 13 -72 13q-82 0 -95 -97l-15 -114h147l-7 -42h-147l-95 -678h-49l95 678h-79l6 42h80l14 107q19 148 149 148q44 0 76 -16zM383 0l106 755h49l-106 -755h-49z" />
    <glyph glyph-name="ffi" unicode="ffi" horiz-adv-x="878" 
d="M817 508l-72 -508h-49l66 466h-261l-95 -678h-49l95 678h-266l-95 -678h-49l95 678h-79l6 42h80l14 107q19 148 149 148q44 0 76 -16l-8 -41q-35 13 -72 13q-82 0 -95 -97l-15 -114h266l14 107q19 148 149 148q44 0 76 -16l-8 -41q-35 13 -72 13q-82 0 -95 -97l-15 -114
h309zM859 685q0 -23 -13.5 -36.5t-36.5 -13.5q-38 0 -38 36q0 23 13 36.5t37 13.5q38 0 38 -36z" />
    <glyph glyph-name="ffl" unicode="ffl" horiz-adv-x="875" 
d="M696 747l-8 -41q-35 13 -72 13q-82 0 -95 -97l-15 -114h147l-7 -42h-147l-95 -678h-49l95 678h-264l-95 -678h-49l95 678h-79l6 42h80l14 107q19 148 149 148q44 0 76 -16l-8 -41q-35 13 -72 13q-82 0 -95 -97l-15 -114h264l14 107q19 148 149 148q44 0 76 -16zM696 0
l106 755h49l-106 -755h-49z" />
    <glyph glyph-name="f_k" unicode="fk" horiz-adv-x="820" 
d="M383 747l-8 -41q-35 13 -72 13q-82 0 -95 -97l-15 -114h147l-7 -42h-147l-95 -678h-49l95 678h-79l6 42h80l14 107q19 148 149 148q44 0 76 -16zM758 0h-53l-135 288l-111 -95l-27 -193h-49l106 755h49l-70 -499l283 252h66l-209 -186z" />
    <glyph glyph-name="f_b" unicode="fb" horiz-adv-x="904" 
d="M383 747l-8 -41q-35 13 -72 13q-82 0 -95 -97l-15 -114h147l-7 -42h-147l-95 -678h-49l95 678h-79l6 42h80l14 107q19 148 149 148q44 0 76 -16zM428 0h-45l106 755h48l-46 -320q40 28 59.5 40.5t60.5 28t79 15.5q153 0 153 -192q0 -167 -70 -253t-170 -86q-86 0 -165 58
h-1zM485 382l-39 -284q74 -64 154 -64q53 0 92.5 26t61 70t31.5 93.5t10 105.5q0 146 -110 146q-50 0 -105.5 -29t-94.5 -64z" />
    <glyph glyph-name="f_h" unicode="fh" horiz-adv-x="907" 
d="M383 747l-8 -41q-35 13 -72 13q-82 0 -95 -97l-15 -114h147l-7 -42h-147l-95 -678h-49l95 678h-79l6 42h80l14 107q19 148 149 148q44 0 76 -16zM487 384l-54 -384h-49l106 755h49l-48 -323q107 87 202 87q77 0 112 -44.5t23 -131.5l-48 -343h-49l48 343q19 132 -89 132
q-50 0 -97 -23.5t-106 -67.5z" />
    <glyph glyph-name="f_t" unicode="ft" horiz-adv-x="671" 
d="M613 56l9 -39q-48 -29 -109 -29q-69 0 -96.5 30.5t-17.5 98.5l49 349h-262l-95 -678h-49l95 678h-79l6 42h80l14 107q19 148 149 148q44 0 76 -16l-8 -41q-35 13 -72 13q-82 0 -95 -97l-15 -114h261l20 147l50 7l-21 -154h144l-6 -42h-144l-49 -341q-7 -51 5 -73.5
t61 -22.5t99 27z" />
    <glyph glyph-name="f_j" unicode="fj" horiz-adv-x="563" 
d="M370 -94l79 560h-263l-95 -678h-49l95 678h-79l6 42h80l14 107q19 148 149 148q44 0 76 -16l-8 -41q-35 13 -72 13q-82 0 -95 -97l-15 -114h311l-85 -598q-10 -71 -40 -102t-91 -31q-15 0 -42.5 5t-38.5 11l14 42q34 -13 70 -13q34 0 53 19.5t26 64.5zM544 685
q0 -23 -13.5 -36.5t-36.5 -13.5q-38 0 -38 36q0 23 13 36.5t37 13.5q38 0 38 -36z" />
    <glyph glyph-name="f_f_j" unicode="ffj" horiz-adv-x="873" 
d="M681 -94l79 560h-263l-95 -678h-49l95 678h-262l-95 -678h-49l95 678h-79l6 42h80l14 107q19 148 149 148q44 0 76 -16l-8 -41q-35 13 -72 13q-82 0 -95 -97l-15 -114h262l14 107q19 148 149 148q44 0 76 -16l-8 -41q-35 13 -72 13q-82 0 -95 -97l-15 -114h311l-85 -598
q-10 -71 -40 -102t-91 -31q-15 0 -42.5 5t-38.5 11l14 42q34 -13 70 -13q34 0 53 19.5t26 64.5zM855 685q0 -23 -13.5 -36.5t-36.5 -13.5q-38 0 -38 36q0 23 13 36.5t37 13.5q38 0 38 -36z" />
    <glyph glyph-name="f_f_k" unicode="ffk" horiz-adv-x="1132" 
d="M695 747l-8 -41q-35 13 -72 13q-82 0 -95 -97l-15 -114h147l-7 -42h-147l-95 -678h-49l95 678h-263l-95 -678h-49l95 678h-79l6 42h80l14 107q19 148 149 148q44 0 76 -16l-8 -41q-35 13 -72 13q-82 0 -95 -97l-15 -114h263l14 107q19 148 149 148q44 0 76 -16zM1070 0
h-53l-135 288l-111 -95l-27 -193h-49l106 755h49l-70 -499l283 252h66l-209 -186z" />
    <glyph glyph-name="f_f_b" unicode="ffb" horiz-adv-x="1216" 
d="M740 0h-45l106 755h48l-46 -320q40 28 59.5 40.5t60.5 28t79 15.5q153 0 153 -192q0 -167 -70 -253t-170 -86q-86 0 -165 58h-1zM695 747l-8 -41q-35 13 -72 13q-82 0 -95 -97l-15 -114h147l-7 -42h-147l-95 -678h-49l95 678h-263l-95 -678h-49l95 678h-79l6 42h80
l14 107q19 148 149 148q44 0 76 -16l-8 -41q-35 13 -72 13q-82 0 -95 -97l-15 -114h263l14 107q19 148 149 148q44 0 76 -16zM797 382l-39 -284q74 -64 154 -64q53 0 92.5 26t61 70t31.5 93.5t10 105.5q0 146 -110 146q-50 0 -105.5 -29t-94.5 -64z" />
    <glyph glyph-name="f_f_h" unicode="ffh" horiz-adv-x="1219" 
d="M695 747l-8 -41q-35 13 -72 13q-82 0 -95 -97l-15 -114h147l-7 -42h-147l-95 -678h-49l95 678h-263l-95 -678h-49l95 678h-79l6 42h80l14 107q19 148 149 148q44 0 76 -16l-8 -41q-35 13 -72 13q-82 0 -95 -97l-15 -114h263l14 107q19 148 149 148q44 0 76 -16zM799 384
l-54 -384h-49l106 755h49l-48 -323q107 87 202 87q77 0 112 -44.5t23 -131.5l-48 -343h-49l48 343q19 132 -89 132q-50 0 -97 -23.5t-106 -67.5z" />
    <glyph glyph-name="f_f_t" unicode="fft" horiz-adv-x="983" 
d="M925 56l9 -39q-48 -29 -109 -29q-69 0 -96.5 30.5t-17.5 98.5l49 349h-262l-95 -678h-49l95 678h-263l-95 -678h-49l95 678h-79l6 42h80l14 107q19 148 149 148q44 0 76 -16l-8 -41q-35 13 -72 13q-82 0 -95 -97l-15 -114h263l14 107q19 148 149 148q44 0 76 -16l-8 -41
q-35 13 -72 13q-82 0 -95 -97l-15 -114h261l20 147l50 7l-21 -154h144l-6 -42h-144l-49 -341q-7 -51 5 -73.5t61 -22.5t99 27z" />
    <glyph glyph-name="f_iacute" unicode="f&#xed;" horiz-adv-x="573" 
d="M383 747l-8 -41q-35 13 -72 13q-82 0 -95 -97l-15 -114h323l-72 -508h-49l66 466h-275l-95 -678h-49l95 678h-79l6 42h80l14 107q19 148 149 148q44 0 76 -16zM449 586l130 164h78l-169 -178z" />
    <glyph glyph-name="t_t" unicode="tt" horiz-adv-x="677" 
d="M619 56l9 -39q-48 -29 -109 -29q-69 0 -96.5 30.5t-17.5 98.5l49 349h-268l-49 -341q-7 -51 5 -73.5t61 -22.5t99 27l9 -39q-48 -29 -109 -29q-69 0 -96.5 30.5t-17.5 98.5l49 349h-80l5 42h81l20 147l50 7l-21 -154h268l20 147l50 7l-21 -154h144l-6 -42h-144l-49 -341
q-7 -51 5 -73.5t61 -22.5t99 27z" />
    <glyph glyph-name=".notdef" horiz-adv-x="500" 
 />
    <glyph glyph-name=".null" horiz-adv-x="0" 
 />
    <glyph glyph-name=".null" horiz-adv-x="0" 
 />
    <glyph glyph-name="nonmarkingreturn" horiz-adv-x="333" 
 />
    <glyph glyph-name="CR" unicode="&#xd;" horiz-adv-x="500" 
 />
    <glyph glyph-name="space" unicode=" " horiz-adv-x="242" 
 />
    <glyph glyph-name="exclam" unicode="!" horiz-adv-x="248" 
d="M119 180h-36l63 544h59zM131 48q0 -60 -58 -60q-44 0 -44 42q0 60 58 60q44 0 44 -42z" />
    <glyph glyph-name="quotedbl" unicode="&#x22;" horiz-adv-x="344" 
d="M286 465h-48l36 259h48zM136 465h-48l36 259h48z" />
    <glyph glyph-name="numbersign" unicode="#" horiz-adv-x="607" 
d="M314 0h-44l46 148h-145l-47 -148h-44l45 148h-131l18 38h127l60 190h-130l16 39h127l42 128h43l-41 -128h143l40 128h44l-39 -128h130l-15 -39h-128l-58 -190h128l-15 -38h-126zM328 186l59 190h-143l-61 -190h145z" />
    <glyph glyph-name="dollar" unicode="$" horiz-adv-x="521" 
d="M435 514q-1 144 -106 155l-39 -290q30 -12 47.5 -20t41.5 -23.5t37 -31t22.5 -40t9.5 -53.5q0 -95 -60 -146.5t-150 -58.5l-13 -86h-40l12 86q-173 7 -179 186l46 8q8 -75 37 -113t102 -40l41 301q-36 14 -59 26t-48 32.5t-37.5 49.5t-12.5 67q0 81 58.5 132t148.5 56
l12 81h41l-12 -83q145 -18 142 -188zM402 205q0 49 -30.5 76.5t-87.5 51.5l-39 -285q71 8 114 48t43 109zM134 523q0 -49 30 -77t86 -51l37 275q-68 -5 -110.5 -41.5t-42.5 -105.5z" />
    <glyph glyph-name="percent" unicode="%" horiz-adv-x="776" 
d="M537 -12q-69 0 -103 42.5t-34 110.5q0 89 50 149.5t135 60.5q137 0 137 -152q0 -91 -46.5 -151t-138.5 -60zM540 31q36 0 62.5 14.5t39.5 33t20 45.5t8 41.5t1 30.5q0 112 -88 112q-70 0 -102 -52t-32 -119q0 -46 22 -76t69 -30zM200 374q-69 0 -103 42.5t-34 110.5
q0 89 50 149.5t135 60.5q137 0 137 -152q0 -91 -46.5 -151t-138.5 -60zM203 417q36 0 62.5 14.5t39.5 33t20 45.5t8 41.5t1 30.5q0 112 -88 112q-70 0 -102 -52t-32 -119q0 -46 22 -76t69 -30zM139 -18h-54l543 742h53z" />
    <glyph glyph-name="ampersand" unicode="&#x26;" horiz-adv-x="666" 
d="M492 583q0 -37 -13.5 -67.5t-31.5 -50.5t-52 -39.5t-60.5 -31t-70.5 -27.5q22 -58 70 -134.5t90 -127.5q71 75 99 226h44q-29 -171 -116 -261q47 -45 94 -45q27 0 54 13l8 -32q-26 -19 -66 -19q-38 0 -64.5 14t-55.5 43q-80 -56 -185 -56q-81 0 -132 46t-51 121
q0 79 39 134.5t118 98.5q-20 58 -20 116q0 86 50.5 139t130.5 53q51 0 86 -29t35 -84zM223 351q-123 -65 -123 -186q0 -59 34.5 -97.5t109.5 -38.5q80 0 150 47q-95 108 -171 275zM238 507q0 -58 14 -104q106 42 149.5 78.5t43.5 94.5q0 38 -21 59t-61 21q-56 0 -90.5 -37.5
t-34.5 -111.5z" />
    <glyph glyph-name="quotesingle" unicode="'" horiz-adv-x="194" 
d="M136 465h-48l36 259h48z" />
    <glyph glyph-name="parenleft" unicode="(" horiz-adv-x="285" 
d="M192 -153l-48 1q-87 182 -87 355q0 251 221 521h48q-114 -150 -167.5 -271t-53.5 -255q0 -167 87 -351z" />
    <glyph glyph-name="parenright" unicode=")" horiz-adv-x="285" 
d="M75 724l48 -1q87 -182 87 -355q0 -251 -221 -521h-48q114 150 167.5 271t53.5 255q0 167 -87 351z" />
    <glyph glyph-name="asterisk" unicode="*" horiz-adv-x="466" 
d="M309 755l-2 -146l139 32l5 -22l-137 -63l67 -130l-21 -14l-94 102l-128 -104l-17 15l102 132l-122 61l12 22l132 -31l43 146h21z" />
    <glyph glyph-name="plus" unicode="+" horiz-adv-x="569" 
d="M279 134h-48l26 165h-161l8 47h161l25 158h48l-25 -158h161l-8 -47h-161z" />
    <glyph glyph-name="comma" unicode="," horiz-adv-x="205" 
d="M-18 -111l76 193h62l-101 -200z" />
    <glyph glyph-name="hyphen" unicode="-" horiz-adv-x="318" 
d="M285 276h-271l6 46h271z" />
    <glyph glyph-name="period" unicode="." horiz-adv-x="204" 
d="M116 45q0 -57 -57 -57q-42 0 -42 40q0 57 57 57q42 0 42 -40z" />
    <glyph glyph-name="slash" unicode="/" horiz-adv-x="334" 
d="M-2 -92h-49l400 847h48z" />
    <glyph glyph-name="zero" unicode="0" horiz-adv-x="564" 
d="M237 -12q-54 0 -91 18t-57 53.5t-28 79t-8 103.5q0 38 2.5 77.5t11 90t21.5 94.5t35.5 88t52 75t73 50.5t95.5 19.5q95 0 136.5 -60.5t41.5 -158.5q0 -44 -2 -86t-9.5 -96.5t-19.5 -101t-34 -93.5t-51 -79.5t-72.5 -53t-96.5 -20.5zM238 28q52 0 92.5 24.5t65.5 67.5
t42 91.5t24.5 108t10.5 104.5t3 93q0 80 -32 129.5t-103 49.5q-50 0 -90 -22.5t-65 -62t-43 -85.5t-27 -101.5t-12.5 -101.5t-3.5 -93q0 -43 5 -74.5t18.5 -63t42.5 -48t72 -16.5z" />
    <glyph glyph-name="one" unicode="1" horiz-adv-x="391" 
d="M202 0h-47l91 640q-29 -17 -79 -26.5t-83 -9.5v36q72 7 116.5 25.5t83.5 58.5h20z" />
    <glyph glyph-name="two" unicode="2" horiz-adv-x="509" 
d="M400 0h-390l5 37l211 225q125 132 161.5 188.5t36.5 127.5q0 117 -126 117q-130 0 -170 -141l-46 9q24 89 83.5 131.5t142.5 42.5q73 0 119.5 -37t46.5 -114q0 -36 -10.5 -71t-22.5 -60.5t-43.5 -65t-52 -62l-68.5 -74.5l-203 -211h332z" />
    <glyph glyph-name="three" unicode="3" horiz-adv-x="530" 
d="M323 737q79 0 121.5 -40t42.5 -106q0 -47 -17 -85.5t-44 -61.5t-55.5 -37t-57.5 -19l-1 -2q135 -21 135 -162q0 -107 -66.5 -171.5t-175.5 -64.5q-169 0 -178 155l44 9q2 -24 7.5 -41t18.5 -38t40.5 -32t67.5 -11q80 0 136 48.5t56 145.5q0 140 -161 140h-57l6 43h46
q94 0 149.5 50t55.5 128q0 110 -118 110q-70 0 -105.5 -29.5t-62.5 -90.5l-42 12q23 75 80 112.5t135 37.5z" />
    <glyph glyph-name="four" unicode="4" horiz-adv-x="532" 
d="M375 0h-47l27 191h-340l5 34l395 499h63l-69 -492h88l-6 -41h-90zM78 232h284l61 435z" />
    <glyph glyph-name="five" unicode="5" horiz-adv-x="540" 
d="M492 682h-289l-67 -279q66 56 158 56q72 0 122.5 -45t50.5 -147q0 -120 -70 -199.5t-193 -79.5q-79 0 -128.5 41.5t-55.5 115.5l45 14q18 -129 142 -129q87 0 149 57.5t62 182.5q0 72 -34 109.5t-98 37.5q-84 0 -165 -67l-33 18l78 356h332z" />
    <glyph glyph-name="six" unicode="6" horiz-adv-x="565" 
d="M529 585l-42 -9q-13 119 -115 119q-47 0 -87 -23t-67.5 -59.5t-48.5 -85t-32.5 -94t-18.5 -93.5q34 38 92 68.5t114 30.5q84 0 126.5 -48.5t42.5 -126.5q0 -121 -67.5 -198.5t-174.5 -77.5q-53 0 -90.5 18.5t-57.5 53.5t-29 78.5t-9 101.5q0 52 7.5 110.5t29.5 129.5
t56 126.5t92.5 93t132.5 37.5q63 0 103 -40t43 -112zM114 290q-2 -36 -2 -57q0 -204 140 -204q82 0 137.5 60.5t55.5 171.5q0 65 -31.5 99.5t-89.5 34.5q-55 0 -111 -30t-99 -75z" />
    <glyph glyph-name="seven" unicode="7" horiz-adv-x="499" 
d="M103 0h-53l403 682h-388l6 42h442l-5 -38z" />
    <glyph glyph-name="eight" unicode="8" horiz-adv-x="525" 
d="M318 374q33 -15 54 -27t46 -32.5t37.5 -49.5t12.5 -65q0 -94 -69 -153t-177 -59q-95 0 -143.5 46t-48.5 116q0 86 52 136.5t143 88.5q-122 61 -122 163q0 91 67.5 145t167.5 54q81 0 128 -37.5t47 -103.5q0 -134 -195 -222zM270 352q-99 -36 -144.5 -80.5t-45.5 -121.5
q0 -54 36 -88t111 -34q96 0 145 52t49 115q0 34 -13.5 61t-40 45.5t-46.5 28.5t-51 22zM275 394q190 87 190 197q0 49 -34.5 77t-101.5 28q-79 0 -129.5 -42.5t-50.5 -110.5q0 -55 29.5 -86t96.5 -63z" />
    <glyph glyph-name="nine" unicode="9" horiz-adv-x="565" 
d="M33 136l42 11q17 -120 128 -120q60 0 108 30t78 81t48 111t23 128q-34 -37 -99 -69.5t-122 -32.5q-82 0 -121 52t-39 133q0 123 67.5 200t181.5 77q180 0 180 -255q0 -227 -79 -360.5t-228 -133.5q-71 0 -114.5 37t-53.5 111zM461 424q1 21 1 70q0 202 -140 202
q-82 0 -140.5 -60.5t-58.5 -171.5q0 -148 118 -148q54 0 115.5 32t104.5 76z" />
    <glyph glyph-name="colon" unicode=":" horiz-adv-x="215" 
d="M116 45q0 -57 -57 -57q-42 0 -42 40q0 57 57 57q42 0 42 -40zM180 450q0 -57 -57 -57q-42 0 -42 40q0 57 57 57q42 0 42 -40z" />
    <glyph glyph-name="semicolon" unicode=";" horiz-adv-x="228" 
d="M-18 -111l76 193h62l-101 -200zM203 450q0 -57 -57 -57q-42 0 -42 40q0 57 57 57q42 0 42 -40z" />
    <glyph glyph-name="less" unicode="&#x3c;" 
d="M430 110l-347 151l9 51l397 164l-8 -50l-342 -141l299 -132z" />
    <glyph glyph-name="equal" unicode="=" 
d="M453 193h-365l7 45h365zM475 335h-365l7 45h365z" />
    <glyph glyph-name="greater" unicode="&#x3e;" horiz-adv-x="569" 
d="M454 255l-395 -151l8 49l341 132l-298 141l8 44l345 -164z" />
    <glyph glyph-name="question" unicode="?" horiz-adv-x="480" 
d="M289 721q76 0 126.5 -41.5t50.5 -124.5q0 -209 -258 -239l-19 -138h-44l25 177q51 3 90.5 12t77.5 29t58.5 58.5t20.5 93.5q0 67 -37.5 99.5t-98.5 32.5q-59 0 -101.5 -27t-63.5 -100l-44 10q42 158 217 158zM201 48q0 -60 -58 -60q-44 0 -44 42q0 60 58 60q44 0 44 -42z
" />
    <glyph glyph-name="at" unicode="@" horiz-adv-x="833" 
d="M603 -46l23 -27q-98 -88 -266 -88q-145 0 -229.5 77t-84.5 220q0 201 121.5 314.5t318.5 113.5q139 0 222.5 -66t83.5 -200q0 -47 -10.5 -95.5t-33.5 -95.5t-66 -77t-100 -30q-37 0 -59 17t-27 39q-24 -27 -63.5 -45.5t-80.5 -18.5q-65 0 -93.5 38t-28.5 98
q0 113 61.5 191t145.5 78q68 0 109 -41l8 35h39l-45 -257q-7 -37 -7 -57q0 -23 10.5 -34.5t37.5 -11.5q23 0 48 12t51.5 39t43.5 80.5t17 125.5q0 129 -72 184.5t-203 55.5q-173 0 -279 -104.5t-106 -285.5q0 -132 77.5 -197t206.5 -65q144 0 230 78zM500 111l38 211
q-38 38 -97 38q-64 0 -114 -63t-50 -173q0 -95 82 -95q39 0 79 23t62 59z" />
    <glyph glyph-name="A" unicode="A" horiz-adv-x="610" 
d="M328 724h72l140 -724h-51l-46 248h-286l-113 -248h-49zM434 290l-74 397h-1l-181 -397h256z" />
    <glyph glyph-name="B" unicode="B" horiz-adv-x="598" 
d="M260 0h-191l97 724h201q111 0 155.5 -39t44.5 -111q0 -86 -48 -134.5t-123 -62.5v-2q145 -22 145 -154q0 -119 -73.5 -170t-207.5 -51zM123 43h130q57 0 96.5 6.5t74 24.5t51.5 53.5t17 90.5q0 42 -17 69.5t-51 40t-69 17t-87 4.5h-105zM169 393h127q36 0 70.5 8t70 26
t57 55.5t21.5 89.5q0 69 -45.5 89.5t-158.5 20.5h-104z" />
    <glyph glyph-name="C" unicode="C" horiz-adv-x="655" 
d="M552 201l42 -11q-65 -202 -286 -202q-129 0 -190.5 77t-61.5 215q0 212 104 334.5t264 122.5q108 0 168 -63.5t53 -178.5l-44 -4q0 205 -179 205q-141 0 -229 -110t-88 -302q0 -254 215 -254q90 0 144.5 40.5t87.5 130.5z" />
    <glyph glyph-name="D" unicode="D" horiz-adv-x="700" 
d="M243 0h-174l97 724h190q153 0 227 -76.5t74 -214.5q0 -95 -25 -173t-74 -136.5t-129.5 -91t-185.5 -32.5zM121 41h130q169 0 263.5 104.5t94.5 292.5q0 130 -67 187.5t-194 57.5h-140z" />
    <glyph glyph-name="E" unicode="E" horiz-adv-x="543" 
d="M455 0h-386l97 724h379l-5 -41h-332l-39 -294h309l-5 -42h-309l-42 -305h340z" />
    <glyph glyph-name="F" unicode="F" horiz-adv-x="518" 
d="M162 335l-46 -335h-47l97 724h379l-3 -41h-333l-42 -304h308l-4 -44h-309z" />
    <glyph glyph-name="G" unicode="G" horiz-adv-x="690" 
d="M625 374l-51 -374h-36l7 111q-76 -123 -232 -123q-130 0 -193.5 78.5t-63.5 218.5q0 213 103.5 332.5t267.5 119.5q108 0 166 -58t50 -175l-43 -6q4 107 -41.5 152.5t-136.5 45.5q-142 0 -229 -109.5t-87 -300.5q0 -141 56.5 -199t155.5 -58q102 0 167.5 62t75.5 141
l14 99h-223l7 43h266z" />
    <glyph glyph-name="H" unicode="H" horiz-adv-x="690" 
d="M642 724l-98 -724h-47l47 352h-382l-47 -352h-48l98 724h48l-45 -330h381l45 330h48z" />
    <glyph glyph-name="I" unicode="I" horiz-adv-x="258" 
d="M116 0h-47l97 724h48z" />
    <glyph glyph-name="J" unicode="J" horiz-adv-x="467" 
d="M308 166l76 558h47l-75 -564q-23 -172 -189 -172q-142 0 -153 144l42 11q7 -52 31 -82.5t84 -30.5q57 0 92 28.5t45 107.5z" />
    <glyph glyph-name="K" unicode="K" horiz-adv-x="595" 
d="M211 724l-52 -382l390 382h60l-329 -320l256 -404h-56l-235 373l-93 -91l-38 -282h-47l97 724h47z" />
    <glyph glyph-name="L" unicode="L" horiz-adv-x="515" 
d="M435 0h-366l97 724h47l-92 -682h320z" />
    <glyph glyph-name="M" unicode="M" horiz-adv-x="842" 
d="M796 724l-97 -724h-45l91 669h-2l-329 -669h-63l-149 669h-1l-90 -669h-42l97 724h72l150 -682h1l331 682h76z" />
    <glyph glyph-name="N" unicode="N" horiz-adv-x="709" 
d="M567 0h-63l-299 680l-92 -680h-46l97 724h74l290 -669l91 669h45z" />
    <glyph glyph-name="O" unicode="O" horiz-adv-x="724" 
d="M323 -12q-134 0 -201.5 83t-67.5 228q0 195 97.5 316.5t272.5 121.5q129 0 194.5 -80.5t65.5 -209.5q0 -217 -97 -338t-264 -121zM327 31q133 0 220 103t87 299q0 117 -53 189t-165 72q-135 0 -224 -100.5t-89 -294.5q0 -57 12.5 -103.5t38 -84.5t69.5 -59t104 -21z" />
    <glyph glyph-name="P" unicode="P" horiz-adv-x="584" 
d="M155 286l-40 -286h-46l97 724h178q113 0 169 -48.5t56 -127.5q0 -262 -291 -262h-123zM161 329h121q112 0 174.5 48t62.5 169q0 76 -49 106.5t-154 30.5h-108z" />
    <glyph glyph-name="Q" unicode="Q" horiz-adv-x="724" 
d="M323 -12q-134 0 -201.5 83t-67.5 228q0 195 97.5 316.5t272.5 121.5q129 0 194.5 -80.5t65.5 -209.5q0 -175 -64 -288.5t-179 -152.5q78 -98 203 -125l-11 -40q-63 10 -136 58.5t-102 95.5q-32 -7 -72 -7zM327 31q133 0 220 103t87 299q0 117 -53 189t-165 72
q-135 0 -224 -100.5t-89 -294.5q0 -57 12.5 -103.5t38 -84.5t69.5 -59t104 -21z" />
    <glyph glyph-name="R" unicode="R" horiz-adv-x="599" 
d="M401 331l135 -331h-49l-131 321h-198l-43 -321h-46l97 724h196q212 0 212 -169q0 -88 -41.5 -142t-131.5 -82zM164 363h154q93 0 150.5 46t57.5 142q0 76 -43.5 104t-129.5 28h-145z" />
    <glyph glyph-name="S" unicode="S" horiz-adv-x="547" 
d="M530 534l-47 -6q0 165 -147 165q-97 0 -144 -43t-47 -114q0 -35 13.5 -60.5t38.5 -41.5t52 -26.5t63 -22.5q11 -3 17 -5q75 -24 117.5 -62t42.5 -110q0 -110 -72.5 -165t-181.5 -55q-112 0 -162 52t-57 144l45 8q8 -74 45.5 -116.5t128.5 -42.5q38 0 71.5 8t64.5 26.5
t49 53t18 81.5q0 33 -11 57t-34 40t-44 25t-55 20q-95 30 -127 51q-71 46 -71 137q0 94 66 149.5t173 55.5q91 0 143.5 -50.5t51.5 -152.5z" />
    <glyph glyph-name="T" unicode="T" horiz-adv-x="500" 
d="M234 0h-45l92 683h-213l5 41h470l-6 -41h-212z" />
    <glyph glyph-name="U" unicode="U" horiz-adv-x="688" 
d="M642 724l-67 -494q-32 -242 -269 -242q-243 0 -210 241l67 495h47l-66 -493q-14 -107 28 -153t134 -46q96 0 152.5 46.5t70.5 153.5l66 492h47z" />
    <glyph glyph-name="V" unicode="V" horiz-adv-x="564" 
d="M278 0h-67l-142 724h49l130 -684h1l302 684h49z" />
    <glyph glyph-name="W" unicode="W" horiz-adv-x="824" 
d="M601 0h-61l-78 669h-1l-263 -669h-52l-57 724h48l44 -661h1l256 661h62l77 -673h1l218 673h46z" />
    <glyph glyph-name="X" unicode="X" horiz-adv-x="577" 
d="M515 0h-50l-175 336l-250 -336h-55l278 375l-169 349h51l151 -316l241 316h52l-267 -353z" />
    <glyph glyph-name="Y" unicode="Y" horiz-adv-x="503" 
d="M278 290l-40 -290h-45l39 286l-175 438h50l152 -387h1l251 387h51z" />
    <glyph glyph-name="Z" unicode="Z" horiz-adv-x="545" 
d="M475 0h-473l4 33l484 650h-385l6 41h445l-5 -34l-484 -648h414z" />
    <glyph glyph-name="bracketleft" unicode="[" horiz-adv-x="239" 
d="M140 -143h-128l121 867h128l-5 -38h-84l-111 -791h84z" />
    <glyph glyph-name="backslash" unicode="\" horiz-adv-x="332" 
d="M276 -92h-44l-161 847h43z" />
    <glyph glyph-name="bracketright" unicode="]" horiz-adv-x="239" 
d="M84 724h128l-121 -867h-128l5 38h84l111 791h-84z" />
    <glyph glyph-name="asciicircum" unicode="^" horiz-adv-x="492" 
d="M470 299h-51l-176 316l-172 -316h-49l197 365h51z" />
    <glyph glyph-name="underscore" unicode="_" horiz-adv-x="500" 
d="M507 -181h-500v36h500v-36z" />
    <glyph glyph-name="grave" unicode="`" horiz-adv-x="499" 
d="M383 586l-39 -14l-119 178h68z" />
    <glyph glyph-name="a" unicode="a" horiz-adv-x="568" 
d="M507 508l-61 -430q-3 -23 1.5 -34t22.5 -11q16 0 33 5l-5 -37q-15 -5 -35 -5q-69 0 -60 76q-89 -84 -188 -84q-74 0 -117 48.5t-43 152.5q0 42 6.5 84t24 87.5t44 80t70.5 56.5t99 22q87 0 156 -57l10 46h42zM407 123l40 293q-25 24 -68 41.5t-88 17.5q-51 0 -90 -28
t-59.5 -72.5t-30.5 -92t-10 -94.5q0 -158 122 -158q46 0 86.5 19.5t97.5 73.5z" />
    <glyph glyph-name="b" unicode="b" horiz-adv-x="580" 
d="M104 0h-45l106 755h48l-46 -320q40 28 59.5 40.5t60.5 28t79 15.5q153 0 153 -192q0 -167 -70 -253t-170 -86q-86 0 -165 58h-1zM161 382l-39 -284q74 -64 154 -64q53 0 92.5 26t61 70t31.5 93.5t10 105.5q0 146 -110 146q-50 0 -105.5 -29t-94.5 -64z" />
    <glyph glyph-name="c" unicode="c" horiz-adv-x="528" 
d="M245 -12q-97 0 -144 57.5t-47 161.5q0 146 74.5 229t189.5 83q88 0 129.5 -53t31.5 -140l-44 -5q3 76 -24.5 116t-97.5 40q-38 0 -73 -14t-67.5 -43.5t-52 -85t-19.5 -130.5q0 -91 40.5 -132.5t105.5 -41.5q125 0 163 121l42 -10q-20 -75 -76 -114t-131 -39z" />
    <glyph glyph-name="d" unicode="d" horiz-adv-x="567" 
d="M438 0h-41l5 62h-2q-87 -74 -179 -74q-77 0 -121.5 47.5t-44.5 143.5q0 172 71.5 256t173.5 84q85 0 153 -56l41 292h50zM407 118l40 301q-67 58 -148 58q-67 0 -113 -42.5t-65.5 -107t-19.5 -145.5q0 -152 123 -152q37 0 73 14.5t57 30t53 43.5z" />
    <glyph glyph-name="e" unicode="e" horiz-adv-x="508" 
d="M242 -12q-99 0 -143.5 61.5t-44.5 163.5q0 78 27 145.5t88 114t147 46.5q71 0 112 -36t41 -90q0 -118 -148 -160q-84 -24 -221 -27q1 -29 4.5 -51t13 -47t25 -41t43 -27t64.5 -11q61 0 100.5 32.5t53.5 80.5l42 -8q-21 -74 -76.5 -110t-127.5 -36zM310 477
q-92 0 -145 -64t-63 -166q150 6 227 31q91 30 91 114q0 41 -28.5 63t-81.5 22z" />
    <glyph glyph-name="f" unicode="f" horiz-adv-x="290" 
d="M383 747l-8 -41q-35 13 -72 13q-82 0 -95 -97l-15 -114h147l-7 -42h-147l-95 -678h-49l95 678h-79l6 42h80l14 107q19 148 149 148q44 0 76 -16z" />
    <glyph glyph-name="g" unicode="g" horiz-adv-x="559" 
d="M293 476q-42 0 -75.5 -18.5t-54.5 -47.5t-35.5 -67t-20 -75.5t-5.5 -74.5q0 -152 116 -152q51 0 95 20t97 74l38 281q-24 24 -67 42t-88 18zM388 -35l17 116q-79 -82 -188 -82q-74 0 -117.5 47.5t-43.5 148.5q0 45 7.5 88.5t26 86.5t46 76t70 53t95.5 20q77 0 155 -57
l10 46h42l-77 -554q-25 -177 -215 -177q-177 0 -190 151l45 10q13 -118 140 -118q72 0 118.5 31.5t58.5 113.5z" />
    <glyph glyph-name="h" unicode="h" horiz-adv-x="581" 
d="M162 384l-54 -384h-49l106 755h49l-48 -323q107 87 202 87q77 0 112 -44.5t23 -131.5l-48 -343h-49l48 343q19 132 -89 132q-50 0 -97 -23.5t-106 -67.5z" />
    <glyph glyph-name="i" unicode="i" horiz-adv-x="233" 
d="M175 508l-72 -508h-49l72 508h49zM217 685q0 -23 -13.5 -36.5t-36.5 -13.5q-38 0 -38 36q0 23 13 36.5t37 13.5q38 0 38 -36z" />
    <glyph glyph-name="j" unicode="j" horiz-adv-x="233" 
d="M41 -94l85 602h49l-85 -598q-10 -71 -40 -102t-91 -31q-15 0 -42.5 5t-38.5 11l14 42q34 -13 70 -13q34 0 53 19.5t26 64.5zM215 685q0 -23 -13.5 -36.5t-36.5 -13.5q-38 0 -38 36q0 23 13 36.5t37 13.5q38 0 38 -36z" />
    <glyph glyph-name="k" unicode="k" horiz-adv-x="496" 
d="M434 0h-53l-135 288l-111 -95l-27 -193h-49l106 755h49l-70 -499l283 252h66l-209 -186z" />
    <glyph glyph-name="l" unicode="l" horiz-adv-x="233" 
d="M54 0l106 755h49l-106 -755h-49z" />
    <glyph glyph-name="m" unicode="m" horiz-adv-x="873" 
d="M362 519q59 0 86 -22t33 -64q114 86 202 86q78 0 100.5 -46t10.5 -131l-47 -342h-49l48 339q4 38 5 68t-17 49t-59 19q-80 0 -190 -86l-53 -389h-49l48 339q4 38 6 68t-16.5 49t-60.5 19q-86 0 -199 -89l-53 -386h-49l71 508h45l-10 -72q106 83 197 83z" />
    <glyph glyph-name="n" unicode="n" horiz-adv-x="581" 
d="M161 386l-53 -386h-49l71 508h47l-11 -72q106 83 203 83q157 0 134 -176l-48 -343h-49l48 343q20 133 -91 133q-87 0 -202 -90z" />
    <glyph glyph-name="o" unicode="o" 
d="M246 -12q-97 0 -144.5 58t-47.5 158q0 60 15 114t46 100t84.5 73.5t123.5 27.5q187 0 187 -217q0 -58 -14.5 -111.5t-44.5 -100t-83 -74.5t-122 -28zM251 30q55 0 96.5 23t65.5 62.5t36 87t12 100.5q0 173 -144 173q-106 0 -160.5 -77.5t-54.5 -193.5q0 -175 149 -175z
" />
    <glyph glyph-name="p" unicode="p" horiz-adv-x="580" 
d="M176 508l-11 -74h2q117 85 199 85q153 0 153 -192q0 -168 -71 -253.5t-175 -85.5q-86 0 -161 60l-36 -260h-48l102 720h46zM470 329q0 77 -25.5 112t-78.5 35q-50 0 -109 -31t-96 -63l-40 -285q77 -64 150 -64q44 0 79 17.5t57 45.5t36.5 67.5t20.5 80t6 85.5z" />
    <glyph glyph-name="q" unicode="q" horiz-adv-x="563" 
d="M302 519q82 0 152 -56l6 45h49l-101 -720h-45l39 274q-94 -74 -183 -74q-76 0 -120 47.5t-44 141.5q0 174 71 258t176 84zM102 185q0 -155 116 -155q97 0 189 88l40 300q-68 59 -143 59q-102 0 -152 -83.5t-50 -208.5z" />
    <glyph glyph-name="r" unicode="r" horiz-adv-x="342" 
d="M161 376l-53 -376h-49l71 508h47l-12 -86q50 53 85 75t81 22q14 0 21 -1l-8 -55q-47 5 -89 -16.5t-94 -70.5z" />
    <glyph glyph-name="s" unicode="s" horiz-adv-x="475" 
d="M264 519q86 0 126 -45.5t39 -114.5l-43 -4q-1 56 -30 91t-91 35q-69 0 -99 -30.5t-30 -74.5q0 -19 7.5 -34.5t15.5 -24t29.5 -18t32.5 -12.5t41 -12q33 -9 51.5 -16.5t42.5 -22.5t35.5 -39t11.5 -57q0 -70 -48 -111t-132 -41q-171 0 -184 158l43 7q14 -126 138 -126
q57 0 96.5 26t39.5 85q0 44 -29 64t-91 37q-29 8 -42.5 12.5t-37.5 15.5t-35.5 23t-21 33t-9.5 48q0 72 51 110t123 38z" />
    <glyph glyph-name="t" unicode="t" horiz-adv-x="360" 
d="M302 56l9 -39q-48 -29 -109 -29q-69 0 -96.5 30.5t-17.5 98.5l49 349h-80l5 42h81l20 147l50 7l-21 -154h144l-6 -42h-144l-49 -341q-7 -51 5 -73.5t61 -22.5t99 27z" />
    <glyph glyph-name="u" unicode="u" horiz-adv-x="582" 
d="M418 123l53 385h49l-72 -508h-45l9 70h-1q-37 -32 -92 -57t-110 -25q-155 0 -131 175l48 345h49l-47 -339q-4 -36 -2.5 -66.5t23.5 -51t64 -20.5q95 0 205 92z" />
    <glyph glyph-name="v" unicode="v" horiz-adv-x="474" 
d="M224 0h-53l-121 508h51l102 -458l230 458h50z" />
    <glyph glyph-name="w" unicode="w" horiz-adv-x="712" 
d="M191 0h-58l-83 508h48l68 -458l189 458h62l59 -456l196 456h49l-222 -508h-62l-58 455z" />
    <glyph glyph-name="x" unicode="x" horiz-adv-x="440" 
d="M380 0h-53l-119 229l-169 -229h-55l200 270l-129 238h50l112 -209l163 209h57l-196 -244z" />
    <glyph glyph-name="y" unicode="y" horiz-adv-x="447" 
d="M152 0l-100 508h51l83 -445l218 445h52l-269 -537q-59 -119 -93 -156.5t-92 -37.5q-39 0 -75 17l10 40q33 -15 69 -15q34 0 60 29.5t66 110.5z" />
    <glyph glyph-name="z" unicode="z" horiz-adv-x="448" 
d="M381 0h-378l5 34l363 432h-302l7 42h365l-5 -33l-366 -433h317z" />
    <glyph glyph-name="braceleft" unicode="{" horiz-adv-x="284" 
d="M12 312h13q68 0 89 55q7 13 10.5 49.5t6 94t4.5 78.5q6 86 32.5 117t107.5 31h44l-7 -43h-50q-65 0 -75 -59q-4 -26 -15 -202q-3 -53 -16 -83t-27.5 -40t-45.5 -22q16 -7 26.5 -14.5t20 -28t9.5 -49.5q0 -40 -23 -129t-23 -113q0 -56 73 -56h35l-5 -43h-38
q-113 0 -113 94q0 36 23.5 115.5t23.5 124.5q0 76 -71 76h-16z" />
    <glyph glyph-name="bar" unicode="|" horiz-adv-x="280" 
d="M103 -143h-43l126 898h43z" />
    <glyph glyph-name="braceright" unicode="}" horiz-adv-x="284" 
d="M266 280h-13q-68 0 -89 -55q-7 -13 -10.5 -49.5t-6 -94t-4.5 -78.5q-6 -86 -32.5 -117t-107.5 -31h-44l7 43h50q65 0 75 59q4 26 15 202q3 53 16 83t27.5 40t45.5 22q-16 7 -26.5 14.5t-20 28t-9.5 49.5q0 40 23 129t23 113q0 56 -73 56h-35l5 43h38q113 0 113 -94
q0 -36 -23.5 -115.5t-23.5 -124.5q0 -76 71 -76h16z" />
    <glyph glyph-name="asciitilde" unicode="~" horiz-adv-x="459" 
d="M120 393q32 0 120 -24t109 -24q23 0 33.5 11.5t10.5 46.5l39 -2q7 -56 -17 -78.5t-62 -22.5q-30 0 -119.5 24.5t-112.5 24.5q-40 0 -39 -60l-37 1q-7 55 17 79t58 24z" />
    <glyph glyph-name="uni00A0" unicode="&#xa0;" horiz-adv-x="242" 
 />
    <glyph glyph-name="exclamdown" unicode="&#xa1;" horiz-adv-x="249" 
d="M113 327h36l-63 -544h-59zM101 459q0 60 58 60q44 0 44 -42q0 -60 -58 -60q-44 0 -44 42z" />
    <glyph glyph-name="cent" unicode="&#xa2;" horiz-adv-x="501" 
d="M298 692h40l-14 -96q70 -7 105 -55.5t26 -122.5l-43 -3q5 128 -93 140l-59 -405q100 9 130 108l38 -10q-18 -65 -63.5 -100t-107.5 -40l-15 -108h-40l15 106q-158 24 -158 204q0 130 62 203.5t163 82.5zM107 309q0 -75 30.5 -114.5t82.5 -44.5l59 406q-33 -3 -61.5 -16.5
t-54.5 -40.5t-41 -76t-15 -114z" />
    <glyph glyph-name="sterling" unicode="&#xa3;" horiz-adv-x="550" 
d="M-6 42h55q117 95 117 205q0 43 -15 84h-109l7 41h86q-30 70 -30 144q0 99 68.5 160t168.5 61q91 0 136 -43.5t41 -138.5l-46 -5q1 75 -28 110.5t-103 35.5q-82 0 -135.5 -45.5t-53.5 -136.5q0 -55 30 -142h247l-7 -41h-225q12 -38 12 -82q0 -119 -105 -207h202
q60 0 91 28.5t52 94.5l41 -11q-23 -83 -67.5 -118.5t-116.5 -35.5h-319z" />
    <glyph glyph-name="currency" unicode="&#xa4;" 
d="M509 287q0 -81 -41 -141l96 -95l-43 -38l-94 92q-57 -44 -140 -44q-88 0 -144 46q2 3 -22 -21.5l-48 -49.5t-23 -23l-39 37l96 96q-35 55 -35 137q0 68 37 128l-95 94l43 39l91 -91q60 50 146 50q90 0 145 -47l87 87l39 -37l-90 -92q34 -53 34 -127zM292 107
q75 0 118.5 49t43.5 127q0 82 -43 127.5t-122 45.5q-76 0 -119.5 -47.5t-43.5 -125.5q0 -79 43 -127.5t123 -48.5z" />
    <glyph glyph-name="yen" unicode="&#xa5;" horiz-adv-x="499" 
d="M402 249h-137l-34 -249h-48l34 249h-137l7 41h135l12 89h-135l7 41h112l-131 304h51l126 -304l206 304h54l-212 -304h116l-7 -41h-137l-13 -89h137z" />
    <glyph glyph-name="brokenbar" unicode="&#xa6;" horiz-adv-x="280" 
d="M103 -143h-43l55 388h43zM181 408h-43l48 347h43z" />
    <glyph glyph-name="section" unicode="&#xa7;" horiz-adv-x="545" 
d="M338 664q-79 0 -120.5 -40t-41.5 -100q0 -46 32.5 -73.5t78.5 -40l92 -25.5t78.5 -44t32.5 -82q0 -53 -31 -94t-94 -85q52 -41 52 -108q0 -89 -57.5 -137.5t-149.5 -48.5q-99 0 -145.5 49t-41.5 130l51 7q0 -141 135 -141q73 0 115 38t42 102q0 46 -33 73t-79.5 40
l-93 27t-79.5 48t-33 89q0 46 29 83.5t96 84.5q-52 38 -52 109q0 87 64.5 135.5t151.5 48.5q96 0 138.5 -48t36.5 -131l-48 -7q2 71 -27.5 106t-98.5 35zM100 251q0 -29 13.5 -49.5t39.5 -33.5t51.5 -21.5t62.5 -19.5t59 -20q110 63 110 151q0 25 -14 43t-40 29.5t-52 19.5
t-62 18t-58 20q-52 -32 -81 -64t-29 -73z" />
    <glyph glyph-name="dieresis" unicode="&#xa8;" horiz-adv-x="499" 
d="M189 660q0 23 14.5 37t38.5 14q37 0 37 -38q0 -23 -14 -36.5t-36 -13.5q-40 0 -40 37zM381 660q0 23 14.5 37t37.5 14q17 0 27.5 -10t10.5 -28q0 -23 -14 -36.5t-36 -13.5q-40 0 -40 37z" />
    <glyph glyph-name="copyright" unicode="&#xa9;" horiz-adv-x="750" 
d="M701 313q0 -145 -90.5 -235t-236.5 -90q-156 0 -240.5 87t-84.5 224q0 149 93.5 237t233.5 88q151 0 238 -84t87 -227zM376 21q131 0 207 77t76 209q0 135 -78 209t-205 74q-125 0 -204.5 -77.5t-79.5 -212.5q0 -130 76 -204.5t208 -74.5zM484 248l41 -7
q-17 -126 -146 -126q-92 0 -136.5 53t-44.5 142q0 87 48 140.5t134 53.5q133 0 140 -126l-45 -6q-4 47 -26.5 70t-69.5 23q-58 0 -95 -38.5t-37 -118.5q0 -68 32.5 -110.5t96.5 -42.5q51 0 74 21.5t34 71.5z" />
    <glyph glyph-name="ordfeminine" unicode="&#xaa;" horiz-adv-x="387" 
d="M365 608l-39 -270q-3 -28 16 -28q10 0 22 4l-5 -31q-11 -4 -29 -4q-48 0 -44 45q-48 -50 -120 -50q-49 0 -77.5 30.5t-28.5 94.5q0 86 40 150.5t124 64.5q47 0 96 -36l5 30h40zM287 369l25 171q-38 36 -92 36q-60 0 -88.5 -54t-28.5 -118q0 -93 71 -93q58 0 113 58z" />
    <glyph glyph-name="guillemotleft" unicode="&#xab;" horiz-adv-x="420" 
d="M190 103h-54l-66 158l110 147h54l-103 -146zM332 103h-54l-66 158l110 147h54l-103 -146z" />
    <glyph glyph-name="logicalnot" unicode="&#xac;" 
d="M459 207h-50l15 94h-320l8 45h370z" />
    <glyph glyph-name="uni00AD" unicode="&#xad;" horiz-adv-x="311" 
d="M327 276h-271l6 46h271z" />
    <glyph glyph-name="registered" unicode="&#xae;" horiz-adv-x="442" 
d="M425 482q0 -81 -50.5 -131t-131.5 -50q-87 0 -134 48.5t-47 125.5q0 82 52 131.5t130 49.5q84 0 132.5 -47.5t48.5 -126.5zM389 479q0 69 -40 106.5t-105 37.5q-63 0 -103.5 -39.5t-40.5 -107.5q0 -67 38.5 -104.5t105.5 -37.5q68 0 106.5 39t38.5 106zM279 472l51 -87
h-35l-46 77h-30v-77h-34v191h65q62 0 62 -54q0 -34 -33 -50zM219 488h13q46 0 46 34q0 16 -9.5 22t-29.5 6h-20v-62z" />
    <glyph glyph-name="macron" unicode="&#xaf;" horiz-adv-x="500" 
d="M189 648l7 42h277l-7 -42h-277z" />
    <glyph glyph-name="degree" unicode="&#xb0;" horiz-adv-x="290" 
d="M172 570q63 0 63 72q0 70 -63 70q-65 0 -65 -74q0 -68 65 -68zM279 642q0 -51 -28.5 -79.5t-78.5 -28.5t-79.5 27.5t-29.5 76.5q0 53 30.5 81.5t78.5 28.5q49 0 78 -27t29 -79z" />
    <glyph glyph-name="plusminus" unicode="&#xb1;" horiz-adv-x="569" 
d="M290 134h-48l26 165h-161l7 47h161l25 158h48l-25 -158h161l-7 -47h-161zM430 0h-370l6 43h370z" />
    <glyph glyph-name="twosuperior" unicode="&#xb2;" horiz-adv-x="344" 
d="M296 349h-255l5 38l126 126q76 78 100 111.5t24 71.5q0 62 -69 62q-74 0 -100 -79l-39 8q27 110 144 110q50 0 79 -24.5t29 -74.5q0 -47 -25.5 -85.5t-86.5 -97.5l-130 -126h205z" />
    <glyph glyph-name="threesuperior" unicode="&#xb3;" horiz-adv-x="369" 
d="M244 797q52 0 80.5 -25t28.5 -69q0 -86 -107 -120v-2q84 -17 84 -97q0 -63 -42.5 -102.5t-109.5 -39.5q-56 0 -88.5 26.5t-35.5 76.5l42 7q10 -72 83 -72q41 0 73.5 27t32.5 79q0 76 -95 76h-38l6 38h28q54 0 88 27t34 69q0 62 -68 62q-39 0 -60.5 -16.5t-36.5 -50.5
l-41 9q15 48 53 72.5t89 24.5z" />
    <glyph glyph-name="acute" unicode="&#xb4;" horiz-adv-x="500" 
d="M255 586l130 164h78l-169 -178z" />
    <glyph glyph-name="mu" unicode="&#xb5;" horiz-adv-x="579" 
d="M418 71h-2q-107 -82 -208 -82q-35 0 -62 13.5t-35 33.5l-35 -248h-48l102 720h50l-42 -296q-9 -64 -9 -90q0 -90 86 -90q100 0 208 92l53 384h49l-61 -432q-2 -16 -2 -18q0 -25 26 -25q16 0 33 5l-5 -37q-13 -5 -45 -5q-64 0 -53 75z" />
    <glyph glyph-name="paragraph" unicode="&#xb6;" horiz-adv-x="550" 
d="M510 724l-119 -857h-46l115 817h-107l-115 -817h-46l54 385q-80 9 -127 61t-47 134q0 72 25.5 127t69.5 87t98 47.5t117 15.5h128z" />
    <glyph glyph-name="periodcentered" unicode="&#xb7;" horiz-adv-x="163" 
d="M139 310q0 -30 -16.5 -46t-44.5 -16q-45 0 -45 43q0 62 60 62q46 0 46 -43z" />
    <glyph glyph-name="cedilla" unicode="&#xb8;" horiz-adv-x="499" 
d="M112 -190l15 33q27 -22 61 -22q28 0 45 14t17 42q0 45 -74 47l27 96l40 -3l-19 -66q26 -4 48 -21t22 -50q0 -46 -29.5 -70.5t-70.5 -24.5q-51 0 -82 25z" />
    <glyph glyph-name="onesuperior" unicode="&#xb9;" horiz-adv-x="279" 
d="M187 347h-46l54 372q-16 -8 -49 -14t-51 -6v37q87 7 132 51h23z" />
    <glyph glyph-name="ordmasculine" unicode="&#xba;" horiz-adv-x="385" 
d="M188 274q-129 0 -129 141q0 81 46.5 140t133.5 59q64 0 95.5 -37t31.5 -102q0 -83 -45 -142t-133 -59zM193 314q64 0 96 46.5t32 116.5q0 98 -87 98q-64 0 -97 -46.5t-33 -118.5q0 -96 89 -96z" />
    <glyph glyph-name="guillemotright" unicode="&#xbb;" horiz-adv-x="419" 
d="M89 103h-56l110 153l-61 152h52l66 -155zM231 103h-56l110 153l-61 152h52l66 -155z" />
    <glyph glyph-name="onequarter" unicode="&#xbc;" horiz-adv-x="821" 
d="M166 279h-46l54 372q-16 -8 -49 -14t-51 -6v37q87 7 132 51h23zM178 -12h-49l461 736h48zM677 0h-46l16 111h-210l5 34l239 295h60l-43 -289h55l-5 -40h-55zM492 151h162l36 241z" />
    <glyph glyph-name="onehalf" unicode="&#xbd;" horiz-adv-x="821" 
d="M176 279h-46l54 372q-16 -8 -49 -14t-51 -6v37q87 7 132 51h23zM152 -12h-49l461 736h48zM706 0h-255l5 38l126 126q76 78 100 111.5t24 71.5q0 62 -69 62q-74 0 -100 -79l-39 8q27 110 144 110q50 0 79 -24.5t29 -74.5q0 -47 -25.5 -85.5t-86.5 -97.5l-130 -126h205z
" />
    <glyph glyph-name="threequarters" unicode="&#xbe;" horiz-adv-x="821" 
d="M220 -12h-49l461 736h48zM696 0h-46l16 111h-210l5 34l239 295h60l-43 -289h55l-5 -40h-55zM511 151h162l36 241zM198 729q52 0 80.5 -25t28.5 -69q0 -86 -107 -120v-2q84 -17 84 -97q0 -63 -42.5 -102.5t-109.5 -39.5q-56 0 -88.5 26.5t-35.5 76.5l42 7q10 -72 83 -72
q41 0 73.5 27t32.5 79q0 76 -95 76h-38l6 38h28q54 0 88 27t34 69q0 62 -68 62q-39 0 -60.5 -16.5t-36.5 -50.5l-41 9q15 48 53 72.5t89 24.5z" />
    <glyph glyph-name="questiondown" unicode="&#xbf;" horiz-adv-x="438" 
d="M160 -214q-76 0 -126.5 41.5t-50.5 124.5q0 209 258 239l19 138h44l-25 -177q-51 -3 -90.5 -12t-77.5 -29t-58.5 -58.5t-20.5 -93.5q0 -67 37.5 -99.5t98.5 -32.5q59 0 101.5 27t63.5 100l44 -10q-42 -158 -217 -158zM248 459q0 60 58 60q44 0 44 -42q0 -60 -58 -60
q-44 0 -44 42z" />
    <glyph glyph-name="Agrave" unicode="&#xc0;" horiz-adv-x="610" 
d="M328 724h72l140 -724h-51l-46 248h-286l-113 -248h-49zM434 290l-74 397h-1l-181 -397h256zM244 911h68l84 -130l-37 -14z" />
    <glyph glyph-name="Aacute" unicode="&#xc1;" horiz-adv-x="610" 
d="M328 724h72l140 -724h-51l-46 248h-286l-113 -248h-49zM434 290l-74 397h-1l-181 -397h256zM350 781l114 130h81l-156 -144z" />
    <glyph glyph-name="Acircumflex" unicode="&#xc2;" horiz-adv-x="610" 
d="M328 724h72l140 -724h-51l-46 248h-286l-113 -248h-49zM434 290l-74 397h-1l-181 -397h256zM511 777l-46 -8l-83 83l-102 -85l-48 10l139 118h33z" />
    <glyph glyph-name="Atilde" unicode="&#xc3;" horiz-adv-x="610" 
d="M328 724h72l140 -724h-51l-46 248h-286l-113 -248h-49zM434 290l-74 397h-1l-181 -397h256zM303 872q33 0 73.5 -24t60.5 -24q42 0 52 59l37 -2q-8 -56 -30.5 -76t-59.5 -20q-30 0 -72 23t-65 23q-38 0 -48 -60l-37 2q12 99 89 99z" />
    <glyph glyph-name="Adieresis" unicode="&#xc4;" horiz-adv-x="610" 
d="M328 724h72l140 -724h-51l-46 248h-286l-113 -248h-49zM434 290l-74 397h-1l-181 -397h256zM234 820q0 24 14.5 38t37.5 14q17 0 27.5 -10t10.5 -28q0 -23 -14 -37t-36 -14q-40 0 -40 37zM425 820q0 24 14.5 38t37.5 14q38 0 38 -38q0 -24 -14 -37.5t-36 -13.5
q-40 0 -40 37z" />
    <glyph glyph-name="Aring" unicode="&#xc5;" horiz-adv-x="610" 
d="M483 831q0 -42 -22.5 -70.5t-60.5 -36.5l140 -724h-51l-46 248h-286l-113 -248h-49l333 724q-45 18 -45 75q0 52 33 81t79 29q40 0 64 -19.5t24 -58.5zM434 290l-74 397h-1l-181 -397h256zM374 755q32 0 49.5 20.5t17.5 51.5q0 48 -50 48q-30 0 -49 -19t-19 -53
q0 -22 13 -35t38 -13z" />
    <glyph glyph-name="AE" unicode="&#xc6;" horiz-adv-x="961" 
d="M868 0h-386l47 340h-235l-245 -340h-53l524 724h442l-6 -40h-332l-42 -300h310l-6 -42h-310l-42 -301h341zM535 383l43 301h-40l-213 -301h210z" />
    <glyph glyph-name="Ccedilla" unicode="&#xc7;" horiz-adv-x="655" 
d="M203 -190l15 33q28 -22 61 -22q28 0 45 14t17 42q0 45 -74 47l18 65q-117 7 -173 83.5t-56 207.5q0 212 104 334.5t264 122.5q108 0 168 -63.5t53 -178.5l-44 -4q0 205 -179 205q-141 0 -229 -110t-88 -302q0 -254 215 -254q90 0 144.5 40.5t87.5 130.5l42 -11
q-62 -192 -268 -201l-11 -38q26 -4 48 -21t22 -50q0 -46 -29.5 -70.5t-70.5 -24.5q-51 0 -82 25z" />
    <glyph glyph-name="Egrave" unicode="&#xc8;" horiz-adv-x="543" 
d="M455 0h-386l97 724h379l-5 -41h-332l-39 -294h309l-5 -42h-309l-42 -305h340zM272 911h68l84 -130l-37 -14z" />
    <glyph glyph-name="Eacute" unicode="&#xc9;" horiz-adv-x="543" 
d="M455 0h-386l97 724h379l-5 -41h-332l-39 -294h309l-5 -42h-309l-42 -305h340zM299 781l114 130h81l-156 -144z" />
    <glyph glyph-name="Ecircumflex" unicode="&#xca;" horiz-adv-x="543" 
d="M455 0h-386l97 724h379l-5 -41h-332l-39 -294h309l-5 -42h-309l-42 -305h340zM504 777l-46 -8l-83 83l-102 -85l-48 10l139 118h33z" />
    <glyph glyph-name="Edieresis" unicode="&#xcb;" horiz-adv-x="543" 
d="M455 0h-386l97 724h379l-5 -41h-332l-39 -294h309l-5 -42h-309l-42 -305h340zM227 820q0 24 14.5 38t37.5 14q17 0 27.5 -10t10.5 -28q0 -23 -14 -37t-36 -14q-40 0 -40 37zM418 820q0 24 14.5 38t37.5 14q38 0 38 -38q0 -24 -14 -37.5t-36 -13.5q-40 0 -40 37z" />
    <glyph glyph-name="Igrave" unicode="&#xcc;" horiz-adv-x="258" 
d="M116 0h-47l97 724h48zM79 911h68l84 -130l-37 -14z" />
    <glyph glyph-name="Iacute" unicode="&#xcd;" horiz-adv-x="258" 
d="M116 0h-47l97 724h48zM169 781l114 130h81l-156 -144z" />
    <glyph glyph-name="Icircumflex" unicode="&#xce;" horiz-adv-x="258" 
d="M116 0h-47l97 724h48zM335 777l-46 -8l-83 83l-102 -85l-48 10l139 118h33z" />
    <glyph glyph-name="Idieresis" unicode="&#xcf;" horiz-adv-x="258" 
d="M116 0h-47l97 724h48zM58 820q0 24 14.5 38t37.5 14q17 0 27.5 -10t10.5 -28q0 -23 -14 -37t-36 -14q-40 0 -40 37zM249 820q0 24 14.5 38t37.5 14q38 0 38 -38q0 -24 -14 -37.5t-36 -13.5q-40 0 -40 37z" />
    <glyph glyph-name="Eth" unicode="&#xd0;" horiz-adv-x="710" 
d="M253 0h-174l46 348h-74l6 41h74l45 335h190q153 0 227 -76.5t74 -214.5q0 -95 -25 -173t-74 -136.5t-129.5 -91t-185.5 -32.5zM129 41h132q169 0 263.5 104.5t94.5 292.5q0 130 -67.5 188t-193.5 58h-142l-40 -295h238l-6 -41h-238z" />
    <glyph glyph-name="Ntilde" unicode="&#xd1;" horiz-adv-x="709" 
d="M567 0h-63l-299 680l-92 -680h-46l97 724h74l290 -669l91 669h45zM362 872q33 0 73.5 -24t60.5 -24q42 0 52 59l37 -2q-8 -56 -30.5 -76t-59.5 -20q-30 0 -72 23t-65 23q-38 0 -48 -60l-37 2q12 99 89 99z" />
    <glyph glyph-name="Ograve" unicode="&#xd2;" horiz-adv-x="724" 
d="M323 -12q-134 0 -201.5 83t-67.5 228q0 195 97.5 316.5t272.5 121.5q129 0 194.5 -80.5t65.5 -209.5q0 -217 -97 -338t-264 -121zM327 31q133 0 220 103t87 299q0 117 -53 189t-165 72q-135 0 -224 -100.5t-89 -294.5q0 -57 12.5 -103.5t38 -84.5t69.5 -59t104 -21z
M336 911h68l84 -130l-37 -14z" />
    <glyph glyph-name="Oacute" unicode="&#xd3;" horiz-adv-x="724" 
d="M323 -12q-134 0 -201.5 83t-67.5 228q0 195 97.5 316.5t272.5 121.5q129 0 194.5 -80.5t65.5 -209.5q0 -217 -97 -338t-264 -121zM327 31q133 0 220 103t87 299q0 117 -53 189t-165 72q-135 0 -224 -100.5t-89 -294.5q0 -57 12.5 -103.5t38 -84.5t69.5 -59t104 -21z
M363 781l114 130h81l-156 -144z" />
    <glyph glyph-name="Ocircumflex" unicode="&#xd4;" horiz-adv-x="724" 
d="M323 -12q-134 0 -201.5 83t-67.5 228q0 195 97.5 316.5t272.5 121.5q129 0 194.5 -80.5t65.5 -209.5q0 -217 -97 -338t-264 -121zM327 31q133 0 220 103t87 299q0 117 -53 189t-165 72q-135 0 -224 -100.5t-89 -294.5q0 -57 12.5 -103.5t38 -84.5t69.5 -59t104 -21z
M568 777l-46 -8l-83 83l-102 -85l-48 10l139 118h33z" />
    <glyph glyph-name="Otilde" unicode="&#xd5;" horiz-adv-x="724" 
d="M323 -12q-134 0 -201.5 83t-67.5 228q0 195 97.5 316.5t272.5 121.5q129 0 194.5 -80.5t65.5 -209.5q0 -217 -97 -338t-264 -121zM327 31q133 0 220 103t87 299q0 117 -53 189t-165 72q-135 0 -224 -100.5t-89 -294.5q0 -57 12.5 -103.5t38 -84.5t69.5 -59t104 -21z
M371 872q33 0 73.5 -24t60.5 -24q42 0 52 59l37 -2q-8 -56 -30.5 -76t-59.5 -20q-30 0 -72 23t-65 23q-38 0 -48 -60l-37 2q12 99 89 99z" />
    <glyph glyph-name="Odieresis" unicode="&#xd6;" horiz-adv-x="724" 
d="M323 -12q-134 0 -201.5 83t-67.5 228q0 195 97.5 316.5t272.5 121.5q129 0 194.5 -80.5t65.5 -209.5q0 -217 -97 -338t-264 -121zM327 31q133 0 220 103t87 299q0 117 -53 189t-165 72q-135 0 -224 -100.5t-89 -294.5q0 -57 12.5 -103.5t38 -84.5t69.5 -59t104 -21z
M291 820q0 24 14.5 38t37.5 14q17 0 27.5 -10t10.5 -28q0 -23 -14 -37t-36 -14q-40 0 -40 37zM482 820q0 24 14.5 38t37.5 14q38 0 38 -38q0 -24 -14 -37.5t-36 -13.5q-40 0 -40 37z" />
    <glyph glyph-name="multiply" unicode="&#xd7;" 
d="M414 205l-35 -30l-99 117l-136 -118l-27 33l136 118l-95 112l36 30l94 -112l132 114l28 -33l-132 -114z" />
    <glyph glyph-name="Oslash" unicode="&#xd8;" horiz-adv-x="724" 
d="M323 -12q-46 0 -87 11l-32 -75h-45l38 89q-143 68 -143 286q0 195 97.5 316.5t272.5 121.5q39 0 79 -10l27 64h45l-33 -78q71 -32 106.5 -102t35.5 -164q0 -217 -97 -338t-264 -121zM102 299q0 -183 113 -244l270 631q-31 9 -69 9q-135 0 -224.5 -101t-89.5 -295zM327 30
q133 0 220.5 103.5t87.5 299.5q0 178 -112 238l-270 -631q31 -10 74 -10z" />
    <glyph glyph-name="Ugrave" unicode="&#xd9;" horiz-adv-x="688" 
d="M642 724l-67 -494q-32 -242 -269 -242q-243 0 -210 241l67 495h47l-66 -493q-14 -107 28 -153t134 -46q96 0 152.5 46.5t70.5 153.5l66 492h47zM320 911h68l84 -130l-37 -14z" />
    <glyph glyph-name="Uacute" unicode="&#xda;" horiz-adv-x="688" 
d="M642 724l-67 -494q-32 -242 -269 -242q-243 0 -210 241l67 495h47l-66 -493q-14 -107 28 -153t134 -46q96 0 152.5 46.5t70.5 153.5l66 492h47zM367 781l114 130h81l-156 -144z" />
    <glyph glyph-name="Ucircumflex" unicode="&#xdb;" horiz-adv-x="688" 
d="M642 724l-67 -494q-32 -242 -269 -242q-243 0 -210 241l67 495h47l-66 -493q-14 -107 28 -153t134 -46q96 0 152.5 46.5t70.5 153.5l66 492h47zM552 777l-46 -8l-83 83l-102 -85l-48 10l139 118h33z" />
    <glyph glyph-name="Udieresis" unicode="&#xdc;" horiz-adv-x="688" 
d="M642 724l-67 -494q-32 -242 -269 -242q-243 0 -210 241l67 495h47l-66 -493q-14 -107 28 -153t134 -46q96 0 152.5 46.5t70.5 153.5l66 492h47zM275 820q0 24 14.5 38t37.5 14q17 0 27.5 -10t10.5 -28q0 -23 -14 -37t-36 -14q-40 0 -40 37zM466 820q0 24 14.5 38t37.5 14
q38 0 38 -38q0 -24 -14 -37.5t-36 -13.5q-40 0 -40 37z" />
    <glyph glyph-name="Yacute" unicode="&#xdd;" horiz-adv-x="503" 
d="M278 290l-40 -290h-45l39 286l-175 438h50l152 -387h1l251 387h51zM282 781l114 130h81l-156 -144z" />
    <glyph glyph-name="Thorn" unicode="&#xde;" horiz-adv-x="668" 
d="M141 172l-24 -172h-47l102 724h48l-18 -122h140q121 0 177 -48t56 -129q0 -253 -300 -253h-134zM147 218h129q57 0 97.5 7.5t76.5 28t54.5 61.5t18.5 103q0 139 -194 139h-133z" />
    <glyph glyph-name="germandbls" unicode="&#xdf;" horiz-adv-x="664" 
d="M79 -212h-46l107 769q15 107 80.5 158.5t166.5 51.5q92 0 139.5 -41.5t47.5 -112.5q0 -75 -37 -120t-107 -74v-3q76 -10 122.5 -52.5t46.5 -123.5q0 -120 -60 -186t-157 -66q-169 0 -179 157l42 8q11 -124 137 -124q74 0 120 55t46 147q0 158 -199 158h-43l7 46h14
q99 0 147.5 51.5t48.5 117.5q0 120 -137 120q-88 0 -137.5 -41t-63.5 -142z" />
    <glyph glyph-name="agrave" unicode="&#xe0;" horiz-adv-x="568" 
d="M507 508l-61 -430q-3 -23 1.5 -34t22.5 -11q16 0 33 5l-5 -37q-15 -5 -35 -5q-69 0 -60 76q-89 -84 -188 -84q-74 0 -117 48.5t-43 152.5q0 42 6.5 84t24 87.5t44 80t70.5 56.5t99 22q87 0 156 -57l10 46h42zM407 123l40 293q-25 24 -68 41.5t-88 17.5q-51 0 -90 -28
t-59.5 -72.5t-30.5 -92t-10 -94.5q0 -158 122 -158q46 0 86.5 19.5t97.5 73.5zM388 586l-39 -14l-119 178h68z" />
    <glyph glyph-name="aacute" unicode="&#xe1;" horiz-adv-x="568" 
d="M507 508l-61 -430q-3 -23 1.5 -34t22.5 -11q16 0 33 5l-5 -37q-15 -5 -35 -5q-69 0 -60 76q-89 -84 -188 -84q-74 0 -117 48.5t-43 152.5q0 42 6.5 84t24 87.5t44 80t70.5 56.5t99 22q87 0 156 -57l10 46h42zM407 123l40 293q-25 24 -68 41.5t-88 17.5q-51 0 -90 -28
t-59.5 -72.5t-30.5 -92t-10 -94.5q0 -158 122 -158q46 0 86.5 19.5t97.5 73.5zM279 586l130 164h78l-169 -178z" />
    <glyph glyph-name="acircumflex" unicode="&#xe2;" horiz-adv-x="568" 
d="M507 508l-61 -430q-3 -23 1.5 -34t22.5 -11q16 0 33 5l-5 -37q-15 -5 -35 -5q-69 0 -60 76q-89 -84 -188 -84q-74 0 -117 48.5t-43 152.5q0 42 6.5 84t24 87.5t44 80t70.5 56.5t99 22q87 0 156 -57l10 46h42zM407 123l40 293q-25 24 -68 41.5t-88 17.5q-51 0 -90 -28
t-59.5 -72.5t-30.5 -92t-10 -94.5q0 -158 122 -158q46 0 86.5 19.5t97.5 73.5zM470 585l-44 -7l-82 130l-115 -132l-44 9l138 165h49z" />
    <glyph glyph-name="atilde" unicode="&#xe3;" horiz-adv-x="568" 
d="M507 508l-61 -430q-3 -23 1.5 -34t22.5 -11q16 0 33 5l-5 -37q-15 -5 -35 -5q-69 0 -60 76q-89 -84 -188 -84q-74 0 -117 48.5t-43 152.5q0 42 6.5 84t24 87.5t44 80t70.5 56.5t99 22q87 0 156 -57l10 46h42zM407 123l40 293q-25 24 -68 41.5t-88 17.5q-51 0 -90 -28
t-59.5 -72.5t-30.5 -92t-10 -94.5q0 -158 122 -158q46 0 86.5 19.5t97.5 73.5zM270 697q33 0 73.5 -24t60.5 -24q42 0 52 59l37 -2q-8 -56 -30.5 -76t-59.5 -20q-30 0 -72 23t-65 23q-38 0 -48 -60l-37 2q12 99 89 99z" />
    <glyph glyph-name="adieresis" unicode="&#xe4;" horiz-adv-x="568" 
d="M507 508l-61 -430q-3 -23 1.5 -34t22.5 -11q16 0 33 5l-5 -37q-15 -5 -35 -5q-69 0 -60 76q-89 -84 -188 -84q-74 0 -117 48.5t-43 152.5q0 42 6.5 84t24 87.5t44 80t70.5 56.5t99 22q87 0 156 -57l10 46h42zM407 123l40 293q-25 24 -68 41.5t-88 17.5q-51 0 -90 -28
t-59.5 -72.5t-30.5 -92t-10 -94.5q0 -158 122 -158q46 0 86.5 19.5t97.5 73.5zM205 660q0 23 14.5 37t38.5 14q37 0 37 -38q0 -23 -14 -36.5t-36 -13.5q-40 0 -40 37zM397 660q0 23 14.5 37t37.5 14q17 0 27.5 -10t10.5 -28q0 -23 -14 -36.5t-36 -13.5q-40 0 -40 37z" />
    <glyph glyph-name="aring" unicode="&#xe5;" horiz-adv-x="568" 
d="M507 508l-61 -430q-3 -23 1.5 -34t22.5 -11q16 0 33 5l-5 -37q-15 -5 -35 -5q-69 0 -60 76q-89 -84 -188 -84q-74 0 -117 48.5t-43 152.5q0 42 6.5 84t24 87.5t44 80t70.5 56.5t99 22q87 0 156 -57l10 46h42zM407 123l40 293q-25 24 -68 41.5t-88 17.5q-51 0 -90 -28
t-59.5 -72.5t-30.5 -92t-10 -94.5q0 -158 122 -158q46 0 86.5 19.5t97.5 73.5zM448 689q0 -52 -31.5 -82.5t-84.5 -30.5q-41 0 -64.5 21t-23.5 59q0 53 33.5 82.5t80.5 29.5q40 0 65 -20t25 -59zM337 611q32 0 50 20.5t18 52.5q0 49 -51 49q-30 0 -49.5 -19t-19.5 -54
q0 -49 52 -49z" />
    <glyph glyph-name="ae" unicode="&#xe6;" horiz-adv-x="848" 
d="M582 -12q-121 0 -165 95q-99 -95 -202 -95q-73 0 -116.5 48t-43.5 148q0 44 6.5 86.5t24 89t44.5 80.5t71.5 56.5t101.5 22.5q40 0 82 -17t70 -40l8 47h48l-7 -41q62 51 151 51q71 0 112.5 -36t41.5 -90q0 -29 -10 -53.5t-24 -42t-40 -32t-45.5 -23.5t-55 -15.5t-53 -10
t-55 -5.5l-46.5 -2.5t-40 -1.5q2 -178 148 -178q62 0 101.5 32t54.5 81l42 -8q-21 -74 -76.5 -110t-127.5 -36zM405 122q-10 39 -10 90q0 116 57 200q-67 64 -160 64q-51 0 -90 -28.5t-60 -73.5t-31 -93t-10 -95q0 -156 118 -156q48 0 88.5 19.5t97.5 72.5zM652 476
q-94 0 -146.5 -64t-63.5 -165q53 1 91.5 4t84.5 12.5t74.5 24t48 41.5t19.5 63q0 40 -29 62t-79 22z" />
    <glyph glyph-name="ccedilla" unicode="&#xe7;" horiz-adv-x="528" 
d="M134 -190l15 33q28 -22 61 -22q28 0 45 14t17 42q0 45 -74 47l18 66q-162 16 -162 217q0 146 74.5 229t189.5 83q88 0 129.5 -53t31.5 -140l-44 -5q3 76 -24.5 116t-97.5 40q-38 0 -73 -14t-67.5 -43.5t-52 -85t-19.5 -130.5q0 -91 40.5 -132.5t105.5 -41.5
q125 0 163 121l42 -10q-19 -72 -72 -110.5t-124 -41.5l-10 -38q26 -4 48 -21t22 -50q0 -46 -29.5 -70.5t-70.5 -24.5q-51 0 -82 25z" />
    <glyph glyph-name="egrave" unicode="&#xe8;" horiz-adv-x="508" 
d="M242 -12q-99 0 -143.5 61.5t-44.5 163.5q0 78 27 145.5t88 114t147 46.5q71 0 112 -36t41 -90q0 -118 -148 -160q-84 -24 -221 -27q1 -29 4.5 -51t13 -47t25 -41t43 -27t64.5 -11q61 0 100.5 32.5t53.5 80.5l42 -8q-21 -74 -76.5 -110t-127.5 -36zM310 477
q-92 0 -145 -64t-63 -166q150 6 227 31q91 30 91 114q0 41 -28.5 63t-81.5 22zM374 586l-39 -14l-119 178h68z" />
    <glyph glyph-name="eacute" unicode="&#xe9;" horiz-adv-x="508" 
d="M242 -12q-99 0 -143.5 61.5t-44.5 163.5q0 78 27 145.5t88 114t147 46.5q71 0 112 -36t41 -90q0 -118 -148 -160q-84 -24 -221 -27q1 -29 4.5 -51t13 -47t25 -41t43 -27t64.5 -11q61 0 100.5 32.5t53.5 80.5l42 -8q-21 -74 -76.5 -110t-127.5 -36zM310 477
q-92 0 -145 -64t-63 -166q150 6 227 31q91 30 91 114q0 41 -28.5 63t-81.5 22zM268 586l130 164h78l-169 -178z" />
    <glyph glyph-name="ecircumflex" unicode="&#xea;" horiz-adv-x="508" 
d="M242 -12q-99 0 -143.5 61.5t-44.5 163.5q0 78 27 145.5t88 114t147 46.5q71 0 112 -36t41 -90q0 -118 -148 -160q-84 -24 -221 -27q1 -29 4.5 -51t13 -47t25 -41t43 -27t64.5 -11q61 0 100.5 32.5t53.5 80.5l42 -8q-21 -74 -76.5 -110t-127.5 -36zM310 477
q-92 0 -145 -64t-63 -166q150 6 227 31q91 30 91 114q0 41 -28.5 63t-81.5 22zM467 585l-44 -7l-82 130l-115 -132l-44 9l138 165h49z" />
    <glyph glyph-name="edieresis" unicode="&#xeb;" horiz-adv-x="508" 
d="M242 -12q-99 0 -143.5 61.5t-44.5 163.5q0 78 27 145.5t88 114t147 46.5q71 0 112 -36t41 -90q0 -118 -148 -160q-84 -24 -221 -27q1 -29 4.5 -51t13 -47t25 -41t43 -27t64.5 -11q61 0 100.5 32.5t53.5 80.5l42 -8q-21 -74 -76.5 -110t-127.5 -36zM310 477
q-92 0 -145 -64t-63 -166q150 6 227 31q91 30 91 114q0 41 -28.5 63t-81.5 22zM202 660q0 23 14.5 37t38.5 14q37 0 37 -38q0 -23 -14 -36.5t-36 -13.5q-40 0 -40 37zM394 660q0 23 14.5 37t37.5 14q17 0 27.5 -10t10.5 -28q0 -23 -14 -36.5t-36 -13.5q-40 0 -40 37z" />
    <glyph glyph-name="igrave" unicode="&#xec;" horiz-adv-x="233" 
d="M175 509l-72 -509h-49l72 509h49zM202 586l-39 -14l-119 178h68z" />
    <glyph glyph-name="iacute" unicode="&#xed;" horiz-adv-x="233" 
d="M175 509l-72 -509h-49l72 509h49zM120 586l130 164h78l-169 -178z" />
    <glyph glyph-name="icircumflex" unicode="&#xee;" horiz-adv-x="233" 
d="M175 509l-72 -509h-49l72 509h49zM303 585l-44 -7l-82 130l-115 -132l-44 9l138 165h49z" />
    <glyph glyph-name="idieresis" unicode="&#xef;" horiz-adv-x="233" 
d="M175 509l-72 -509h-49l72 509h49zM27 660q0 23 14.5 37t38.5 14q37 0 37 -38q0 -23 -14 -36.5t-36 -13.5q-40 0 -40 37zM219 660q0 23 14.5 37t37.5 14q17 0 27.5 -10t10.5 -28q0 -23 -14 -36.5t-36 -13.5q-40 0 -40 37z" />
    <glyph glyph-name="eth" unicode="&#xf0;" horiz-adv-x="566" 
d="M204 609l125 61q-60 40 -138 57l28 31q90 -23 152 -68l120 59l11 -38l-99 -48q105 -100 105 -293q0 -52 -6 -100.5t-23 -101.5t-45 -91.5t-75.5 -63.5t-110.5 -25q-101 0 -149.5 57.5t-48.5 157.5q0 124 69 210.5t187 86.5q42 0 83 -16t69 -40h2q-16 125 -98 199
l-146 -70zM300 457q-92 0 -147 -71t-55 -183q0 -45 11.5 -81t45.5 -64t88 -28q63 0 107 26.5t68 77.5t34.5 112t10.5 141q-21 27 -65.5 48.5t-97.5 21.5z" />
    <glyph glyph-name="ntilde" unicode="&#xf1;" horiz-adv-x="581" 
d="M161 386l-53 -386h-49l71 508h47l-11 -72q106 83 203 83q157 0 134 -176l-48 -343h-49l48 343q20 133 -91 133q-87 0 -202 -90zM280 697q33 0 73.5 -24t60.5 -24q42 0 52 59l37 -2q-8 -56 -30.5 -76t-59.5 -20q-30 0 -72 23t-65 23q-38 0 -48 -60l-37 2q12 99 89 99z" />
    <glyph glyph-name="ograve" unicode="&#xf2;" 
d="M246 -12q-97 0 -144.5 58t-47.5 158q0 60 15 114t46 100t84.5 73.5t123.5 27.5q187 0 187 -217q0 -58 -14.5 -111.5t-44.5 -100t-83 -74.5t-122 -28zM251 30q55 0 96.5 23t65.5 62.5t36 87t12 100.5q0 173 -144 173q-106 0 -160.5 -77.5t-54.5 -193.5q0 -175 149 -175z
M391 586l-39 -14l-119 178h68z" />
    <glyph glyph-name="oacute" unicode="&#xf3;" 
d="M246 -12q-97 0 -144.5 58t-47.5 158q0 60 15 114t46 100t84.5 73.5t123.5 27.5q187 0 187 -217q0 -58 -14.5 -111.5t-44.5 -100t-83 -74.5t-122 -28zM251 30q55 0 96.5 23t65.5 62.5t36 87t12 100.5q0 173 -144 173q-106 0 -160.5 -77.5t-54.5 -193.5q0 -175 149 -175z
M275 586l130 164h78l-169 -178z" />
    <glyph glyph-name="ocircumflex" unicode="&#xf4;" 
d="M246 -12q-97 0 -144.5 58t-47.5 158q0 60 15 114t46 100t84.5 73.5t123.5 27.5q187 0 187 -217q0 -58 -14.5 -111.5t-44.5 -100t-83 -74.5t-122 -28zM251 30q55 0 96.5 23t65.5 62.5t36 87t12 100.5q0 173 -144 173q-106 0 -160.5 -77.5t-54.5 -193.5q0 -175 149 -175z
M473 585l-44 -7l-82 130l-115 -132l-44 9l138 165h49z" />
    <glyph glyph-name="otilde" unicode="&#xf5;" 
d="M246 -12q-97 0 -144.5 58t-47.5 158q0 60 15 114t46 100t84.5 73.5t123.5 27.5q187 0 187 -217q0 -58 -14.5 -111.5t-44.5 -100t-83 -74.5t-122 -28zM251 30q55 0 96.5 23t65.5 62.5t36 87t12 100.5q0 173 -144 173q-106 0 -160.5 -77.5t-54.5 -193.5q0 -175 149 -175z
M266 697q33 0 73.5 -24t60.5 -24q42 0 52 59l37 -2q-8 -56 -30.5 -76t-59.5 -20q-30 0 -72 23t-65 23q-38 0 -48 -60l-37 2q12 99 89 99z" />
    <glyph glyph-name="odieresis" unicode="&#xf6;" 
d="M246 -12q-97 0 -144.5 58t-47.5 158q0 60 15 114t46 100t84.5 73.5t123.5 27.5q187 0 187 -217q0 -58 -14.5 -111.5t-44.5 -100t-83 -74.5t-122 -28zM251 30q55 0 96.5 23t65.5 62.5t36 87t12 100.5q0 173 -144 173q-106 0 -160.5 -77.5t-54.5 -193.5q0 -175 149 -175z
M197 660q0 23 14.5 37t38.5 14q37 0 37 -38q0 -23 -14 -36.5t-36 -13.5q-40 0 -40 37zM389 660q0 23 14.5 37t37.5 14q17 0 27.5 -10t10.5 -28q0 -23 -14 -36.5t-36 -13.5q-40 0 -40 37z" />
    <glyph glyph-name="divide" unicode="&#xf7;" horiz-adv-x="569" 
d="M310 184q0 -63 -61 -63q-47 0 -47 44q0 63 62 63q46 0 46 -44zM352 480q0 -64 -62 -64q-47 0 -47 45q0 63 62 63q47 0 47 -44zM466 295h-370l7 45h370z" />
    <glyph glyph-name="oslash" unicode="&#xf8;" 
d="M246 -12q-18 0 -48 4l-28 -70h-43l33 81q-106 44 -106 201q0 60 15 114t46 100t84.5 73.5t123.5 27.5q25 0 44 -4l27 67h43l-32 -78q105 -42 105 -202q0 -58 -14.5 -111.5t-44.5 -100t-83 -74.5t-122 -28zM102 205q0 -123 75 -160l173 428q-30 3 -33 3
q-106 0 -160.5 -77.5t-54.5 -193.5zM251 30q55 0 96.5 23t65.5 62.5t36 87t12 100.5q0 121 -73 158l-173 -428q17 -3 36 -3z" />
    <glyph glyph-name="ugrave" unicode="&#xf9;" horiz-adv-x="582" 
d="M418 123l53 385h49l-72 -508h-45l9 70h-1q-37 -32 -92 -57t-110 -25q-155 0 -131 175l48 345h49l-47 -339q-4 -36 -2.5 -66.5t23.5 -51t64 -20.5q95 0 205 92zM393 586l-39 -14l-119 178h68z" />
    <glyph glyph-name="uacute" unicode="&#xfa;" horiz-adv-x="582" 
d="M418 123l53 385h49l-72 -508h-45l9 70h-1q-37 -32 -92 -57t-110 -25q-155 0 -131 175l48 345h49l-47 -339q-4 -36 -2.5 -66.5t23.5 -51t64 -20.5q95 0 205 92zM285 586l130 164h78l-169 -178z" />
    <glyph glyph-name="ucircumflex" unicode="&#xfb;" horiz-adv-x="582" 
d="M418 123l53 385h49l-72 -508h-45l9 70h-1q-37 -32 -92 -57t-110 -25q-155 0 -131 175l48 345h49l-47 -339q-4 -36 -2.5 -66.5t23.5 -51t64 -20.5q95 0 205 92zM475 585l-44 -7l-82 130l-115 -132l-44 9l138 165h49z" />
    <glyph glyph-name="udieresis" unicode="&#xfc;" horiz-adv-x="582" 
d="M418 123l53 385h49l-72 -508h-45l9 70h-1q-37 -32 -92 -57t-110 -25q-155 0 -131 175l48 345h49l-47 -339q-4 -36 -2.5 -66.5t23.5 -51t64 -20.5q95 0 205 92zM199 660q0 23 14.5 37t38.5 14q37 0 37 -38q0 -23 -14 -36.5t-36 -13.5q-40 0 -40 37zM391 660q0 23 14.5 37
t37.5 14q17 0 27.5 -10t10.5 -28q0 -23 -14 -36.5t-36 -13.5q-40 0 -40 37z" />
    <glyph glyph-name="yacute" unicode="&#xfd;" horiz-adv-x="447" 
d="M152 0l-100 508h51l83 -445l218 445h52l-269 -537q-59 -119 -93 -156.5t-92 -37.5q-39 0 -75 17l10 40q33 -15 69 -15q34 0 60 29.5t66 110.5zM228 586l130 164h78l-169 -178z" />
    <glyph glyph-name="thorn" unicode="&#xfe;" horiz-adv-x="580" 
d="M206 724l-41 -290h2q117 85 199 85q153 0 153 -192q0 -168 -71 -253.5t-175 -85.5q-86 0 -161 60l-36 -260h-48l132 936h46zM470 329q0 77 -25.5 112t-78.5 35q-50 0 -109 -31t-96 -63l-40 -285q77 -64 150 -64q44 0 79 17.5t57 45.5t36.5 67.5t20.5 80t6 85.5z" />
    <glyph glyph-name="ydieresis" unicode="&#xff;" horiz-adv-x="447" 
d="M152 0l-100 508h51l83 -445l218 445h52l-269 -537q-59 -119 -93 -156.5t-92 -37.5q-39 0 -75 17l10 40q33 -15 69 -15q34 0 60 29.5t66 110.5zM131 660q0 23 14.5 37t38.5 14q37 0 37 -38q0 -23 -14 -36.5t-36 -13.5q-40 0 -40 37zM323 660q0 23 14.5 37t37.5 14
q17 0 27.5 -10t10.5 -28q0 -23 -14 -36.5t-36 -13.5q-40 0 -40 37z" />
    <glyph glyph-name="Amacron" unicode="&#x100;" horiz-adv-x="610" 
d="M328 724h72l140 -724h-51l-46 248h-286l-113 -248h-49zM434 290l-74 397h-1l-181 -397h256zM518 800h-290l6 40h290z" />
    <glyph glyph-name="amacron" unicode="&#x101;" horiz-adv-x="568" 
d="M507 508l-61 -430q-3 -23 1.5 -34t22.5 -11q16 0 33 5l-5 -37q-15 -5 -35 -5q-69 0 -60 76q-89 -84 -188 -84q-74 0 -117 48.5t-43 152.5q0 42 6.5 84t24 87.5t44 80t70.5 56.5t99 22q87 0 156 -57l10 46h42zM407 123l40 293q-25 24 -68 41.5t-88 17.5q-51 0 -90 -28
t-59.5 -72.5t-30.5 -92t-10 -94.5q0 -158 122 -158q46 0 86.5 19.5t97.5 73.5zM200 648l7 42h277l-7 -42h-277z" />
    <glyph glyph-name="Abreve" unicode="&#x102;" horiz-adv-x="610" 
d="M328 724h72l140 -724h-51l-46 248h-286l-113 -248h-49zM434 290l-74 397h-1l-181 -397h256zM377 824q41 0 65 18.5t38 60.5l41 -5q-28 -113 -148 -113q-58 0 -84 28t-29 84l43 5q2 -42 19.5 -60t54.5 -18z" />
    <glyph glyph-name="abreve" unicode="&#x103;" horiz-adv-x="568" 
d="M507 508l-61 -430q-3 -23 1.5 -34t22.5 -11q16 0 33 5l-5 -37q-15 -5 -35 -5q-69 0 -60 76q-89 -84 -188 -84q-74 0 -117 48.5t-43 152.5q0 42 6.5 84t24 87.5t44 80t70.5 56.5t99 22q87 0 156 -57l10 46h42zM407 123l40 293q-25 24 -68 41.5t-88 17.5q-51 0 -90 -28
t-59.5 -72.5t-30.5 -92t-10 -94.5q0 -158 122 -158q46 0 86.5 19.5t97.5 73.5zM329 613q49 0 74 26t35 90l41 -5q-14 -150 -152 -150q-133 0 -113 148l41 6q-5 -59 11.5 -87t62.5 -28z" />
    <glyph glyph-name="Aogonek" unicode="&#x104;" horiz-adv-x="610" 
d="M536 -132l33 -19q-37 -67 -105 -67q-37 0 -61.5 20.5t-24.5 56.5q0 46 29 79.5t80 68.5l-44 241h-286l-113 -248h-49l333 724h72l141 -724q-66 -44 -90.5 -70t-24.5 -64q0 -18 11 -30.5t33 -12.5q34 0 66 45zM434 290l-74 397h-1l-181 -397h256z" />
    <glyph glyph-name="aogonek" unicode="&#x105;" horiz-adv-x="568" 
d="M470 -132l33 -19q-37 -67 -105 -67q-37 0 -61.5 20.5t-24.5 56.5q0 46 29 79.5t80 68.5q-24 19 -18 65q-89 -84 -188 -84q-74 0 -117 48.5t-43 152.5q0 42 6.5 84t24 87.5t44 80t70.5 56.5t99 22q87 0 156 -57l10 46h42l-61 -430q-3 -23 1.5 -34t22.5 -11q16 0 33 5
l-5 -37q-58 -13 -98 -53t-40 -82q0 -18 11 -30.5t33 -12.5q34 0 66 45zM407 123l40 293q-25 24 -68 41.5t-88 17.5q-51 0 -90 -28t-59.5 -72.5t-30.5 -92t-10 -94.5q0 -158 122 -158q46 0 86.5 19.5t97.5 73.5z" />
    <glyph glyph-name="Cacute" unicode="&#x106;" horiz-adv-x="655" 
d="M552 201l42 -11q-65 -202 -286 -202q-129 0 -190.5 77t-61.5 215q0 212 104 334.5t264 122.5q108 0 168 -63.5t53 -178.5l-44 -4q0 205 -179 205q-141 0 -229 -110t-88 -302q0 -254 215 -254q90 0 144.5 40.5t87.5 130.5zM363 781l114 130h81l-156 -144z" />
    <glyph glyph-name="cacute" unicode="&#x107;" horiz-adv-x="528" 
d="M245 -12q-97 0 -144 57.5t-47 161.5q0 146 74.5 229t189.5 83q88 0 129.5 -53t31.5 -140l-44 -5q3 76 -24.5 116t-97.5 40q-38 0 -73 -14t-67.5 -43.5t-52 -85t-19.5 -130.5q0 -91 40.5 -132.5t105.5 -41.5q125 0 163 121l42 -10q-20 -75 -76 -114t-131 -39zM260 586
l130 164h78l-169 -178z" />
    <glyph glyph-name="Ccircumflex" unicode="&#x108;" horiz-adv-x="655" 
d="M552 201l42 -11q-65 -202 -286 -202q-129 0 -190.5 77t-61.5 215q0 212 104 334.5t264 122.5q108 0 168 -63.5t53 -178.5l-44 -4q0 205 -179 205q-141 0 -229 -110t-88 -302q0 -254 215 -254q90 0 144.5 40.5t87.5 130.5zM568 777l-46 -8l-83 83l-102 -85l-48 10l139 118
h33z" />
    <glyph glyph-name="ccircumflex" unicode="&#x109;" horiz-adv-x="528" 
d="M245 -12q-97 0 -144 57.5t-47 161.5q0 146 74.5 229t189.5 83q88 0 129.5 -53t31.5 -140l-44 -5q3 76 -24.5 116t-97.5 40q-38 0 -73 -14t-67.5 -43.5t-52 -85t-19.5 -130.5q0 -91 40.5 -132.5t105.5 -41.5q125 0 163 121l42 -10q-20 -75 -76 -114t-131 -39zM470 585
l-44 -7l-82 130l-115 -132l-44 9l138 165h49z" />
    <glyph glyph-name="Cdotaccent" unicode="&#x10a;" horiz-adv-x="655" 
d="M552 201l42 -11q-65 -202 -286 -202q-129 0 -190.5 77t-61.5 215q0 212 104 334.5t264 122.5q108 0 168 -63.5t53 -178.5l-44 -4q0 205 -179 205q-141 0 -229 -110t-88 -302q0 -254 215 -254q90 0 144.5 40.5t87.5 130.5zM479 833q0 -23 -13.5 -36.5t-36.5 -13.5
q-38 0 -38 36q0 23 13 36.5t37 13.5q38 0 38 -36z" />
    <glyph glyph-name="cdotaccent" unicode="&#x10b;" horiz-adv-x="528" 
d="M245 -12q-97 0 -144 57.5t-47 161.5q0 146 74.5 229t189.5 83q88 0 129.5 -53t31.5 -140l-44 -5q3 76 -24.5 116t-97.5 40q-38 0 -73 -14t-67.5 -43.5t-52 -85t-19.5 -130.5q0 -91 40.5 -132.5t105.5 -41.5q125 0 163 121l42 -10q-20 -75 -76 -114t-131 -39zM383 685
q0 -23 -13.5 -36.5t-36.5 -13.5q-38 0 -38 36q0 23 13 36.5t37 13.5q38 0 38 -36z" />
    <glyph glyph-name="Ccaron" unicode="&#x10c;" horiz-adv-x="655" 
d="M552 201l42 -11q-65 -202 -286 -202q-129 0 -190.5 77t-61.5 215q0 212 104 334.5t264 122.5q108 0 168 -63.5t53 -178.5l-44 -4q0 205 -179 205q-141 0 -229 -110t-88 -302q0 -254 215 -254q90 0 144.5 40.5t87.5 130.5zM302 889l47 8l82 -82l105 85l46 -11l-139 -118
h-34z" />
    <glyph glyph-name="ccaron" unicode="&#x10d;" horiz-adv-x="528" 
d="M245 -12q-97 0 -144 57.5t-47 161.5q0 146 74.5 229t189.5 83q88 0 129.5 -53t31.5 -140l-44 -5q3 76 -24.5 116t-97.5 40q-38 0 -73 -14t-67.5 -43.5t-52 -85t-19.5 -130.5q0 -91 40.5 -132.5t105.5 -41.5q125 0 163 121l42 -10q-20 -75 -76 -114t-131 -39zM202 737
l46 6l80 -131l115 134l44 -9l-138 -165h-49z" />
    <glyph glyph-name="Dcaron" unicode="&#x10e;" horiz-adv-x="700" 
d="M243 0h-174l97 724h190q153 0 227 -76.5t74 -214.5q0 -95 -25 -173t-74 -136.5t-129.5 -91t-185.5 -32.5zM121 41h130q169 0 263.5 104.5t94.5 292.5q0 130 -67 187.5t-194 57.5h-140zM256 889l47 8l82 -82l105 85l46 -11l-139 -118h-34z" />
    <glyph glyph-name="dcaron" unicode="&#x10f;" horiz-adv-x="602" 
d="M438 0h-41l5 62h-2q-87 -74 -179 -74q-77 0 -121.5 47.5t-44.5 143.5q0 172 71.5 256t173.5 84q85 0 153 -56l41 292h50zM407 118l40 301q-67 58 -148 58q-67 0 -113 -42.5t-65.5 -107t-19.5 -145.5q0 -152 123 -152q37 0 73 14.5t57 30t53 43.5zM558 566l60 189h64
l-87 -197z" />
    <glyph glyph-name="Dcroat" unicode="&#x110;" horiz-adv-x="710" 
d="M253 0h-174l46 348h-74l6 41h74l45 335h190q153 0 227 -76.5t74 -214.5q0 -95 -25 -173t-74 -136.5t-129.5 -91t-185.5 -32.5zM129 41h132q169 0 263.5 104.5t94.5 292.5q0 130 -67.5 188t-193.5 58h-142l-40 -295h238l-6 -41h-238z" />
    <glyph glyph-name="dcroat" unicode="&#x111;" horiz-adv-x="567" 
d="M438 0h-41l5 62h-2q-87 -74 -179 -74q-77 0 -121.5 47.5t-44.5 143.5q0 172 71.5 256t173.5 84q85 0 153 -56l17 126h-198l8 42h196l18 124h50l-18 -124h73l-8 -42h-71zM407 118l40 301q-67 58 -148 58q-67 0 -113 -42.5t-65.5 -107t-19.5 -145.5q0 -152 123 -152
q37 0 73 14.5t57 30t53 43.5z" />
    <glyph glyph-name="Emacron" unicode="&#x112;" horiz-adv-x="543" 
d="M455 0h-386l97 724h379l-5 -41h-332l-39 -294h309l-5 -42h-309l-42 -305h340zM511 800h-290l6 40h290z" />
    <glyph glyph-name="emacron" unicode="&#x113;" horiz-adv-x="508" 
d="M242 -12q-99 0 -143.5 61.5t-44.5 163.5q0 78 27 145.5t88 114t147 46.5q71 0 112 -36t41 -90q0 -118 -148 -160q-84 -24 -221 -27q1 -29 4.5 -51t13 -47t25 -41t43 -27t64.5 -11q61 0 100.5 32.5t53.5 80.5l42 -8q-21 -74 -76.5 -110t-127.5 -36zM310 477
q-92 0 -145 -64t-63 -166q150 6 227 31q91 30 91 114q0 41 -28.5 63t-81.5 22zM202 648l7 42h277l-7 -42h-277z" />
    <glyph glyph-name="Ebreve" unicode="&#x114;" horiz-adv-x="543" 
d="M455 0h-386l97 724h379l-5 -41h-332l-39 -294h309l-5 -42h-309l-42 -305h340zM370 824q41 0 65 18.5t38 60.5l41 -5q-28 -113 -148 -113q-58 0 -84 28t-29 84l43 5q2 -42 19.5 -60t54.5 -18z" />
    <glyph glyph-name="ebreve" unicode="&#x115;" horiz-adv-x="508" 
d="M242 -12q-99 0 -143.5 61.5t-44.5 163.5q0 78 27 145.5t88 114t147 46.5q71 0 112 -36t41 -90q0 -118 -148 -160q-84 -24 -221 -27q1 -29 4.5 -51t13 -47t25 -41t43 -27t64.5 -11q61 0 100.5 32.5t53.5 80.5l42 -8q-21 -74 -76.5 -110t-127.5 -36zM310 477
q-92 0 -145 -64t-63 -166q150 6 227 31q91 30 91 114q0 41 -28.5 63t-81.5 22zM330 613q49 0 74 26t35 90l41 -5q-14 -150 -152 -150q-133 0 -113 148l41 6q-5 -59 11.5 -87t62.5 -28z" />
    <glyph glyph-name="Edotaccent" unicode="&#x116;" horiz-adv-x="543" 
d="M455 0h-386l97 724h379l-5 -41h-332l-39 -294h309l-5 -42h-309l-42 -305h340zM415 833q0 -23 -13.5 -36.5t-36.5 -13.5q-38 0 -38 36q0 23 13 36.5t37 13.5q38 0 38 -36z" />
    <glyph glyph-name="edotaccent" unicode="&#x117;" horiz-adv-x="508" 
d="M242 -12q-99 0 -143.5 61.5t-44.5 163.5q0 78 27 145.5t88 114t147 46.5q71 0 112 -36t41 -90q0 -118 -148 -160q-84 -24 -221 -27q1 -29 4.5 -51t13 -47t25 -41t43 -27t64.5 -11q61 0 100.5 32.5t53.5 80.5l42 -8q-21 -74 -76.5 -110t-127.5 -36zM310 477
q-92 0 -145 -64t-63 -166q150 6 227 31q91 30 91 114q0 41 -28.5 63t-81.5 22zM391 685q0 -23 -13.5 -36.5t-36.5 -13.5q-38 0 -38 36q0 23 13 36.5t37 13.5q38 0 38 -36z" />
    <glyph glyph-name="Eogonek" unicode="&#x118;" horiz-adv-x="543" 
d="M413 -132l33 -19q-37 -67 -105 -67q-37 0 -61.5 20.5t-24.5 56.5q0 43 26 76t72 65h-284l97 724h379l-5 -41h-332l-39 -294h309l-5 -42h-309l-42 -305h340l-7 -42h-43q-63 -46 -86 -72t-23 -62q0 -18 11 -30.5t33 -12.5q34 0 66 45z" />
    <glyph glyph-name="eogonek" unicode="&#x119;" horiz-adv-x="508" 
d="M332 -132l33 -19q-37 -67 -105 -67q-37 0 -61.5 20.5t-24.5 56.5q0 68 82 130q-5 -1 -14 -1q-99 0 -143.5 61.5t-44.5 163.5q0 78 27 145.5t88 114t147 46.5q71 0 112 -36t41 -90q0 -118 -148 -160q-84 -24 -221 -27q1 -29 4.5 -51t13 -47t25 -41t43 -27t64.5 -11
q61 0 100.5 32.5t53.5 80.5l42 -8q-23 -78 -101 -124q-68 -41 -95.5 -72.5t-27.5 -71.5q0 -18 11 -30.5t33 -12.5q34 0 66 45zM310 477q-92 0 -145 -64t-63 -166q150 6 227 31q91 30 91 114q0 41 -28.5 63t-81.5 22z" />
    <glyph glyph-name="Ecaron" unicode="&#x11a;" horiz-adv-x="543" 
d="M455 0h-386l97 724h379l-5 -41h-332l-39 -294h309l-5 -42h-309l-42 -305h340zM238 889l47 8l82 -82l105 85l46 -11l-139 -118h-34z" />
    <glyph glyph-name="ecaron" unicode="&#x11b;" horiz-adv-x="508" 
d="M242 -12q-99 0 -143.5 61.5t-44.5 163.5q0 78 27 145.5t88 114t147 46.5q71 0 112 -36t41 -90q0 -118 -148 -160q-84 -24 -221 -27q1 -29 4.5 -51t13 -47t25 -41t43 -27t64.5 -11q61 0 100.5 32.5t53.5 80.5l42 -8q-21 -74 -76.5 -110t-127.5 -36zM310 477
q-92 0 -145 -64t-63 -166q150 6 227 31q91 30 91 114q0 41 -28.5 63t-81.5 22zM210 737l46 6l80 -131l115 134l44 -9l-138 -165h-49z" />
    <glyph glyph-name="Gcircumflex" unicode="&#x11c;" horiz-adv-x="690" 
d="M625 374l-51 -374h-36l7 111q-76 -123 -232 -123q-130 0 -193.5 78.5t-63.5 218.5q0 213 103.5 332.5t267.5 119.5q108 0 166 -58t50 -175l-43 -6q4 107 -41.5 152.5t-136.5 45.5q-142 0 -229 -109.5t-87 -300.5q0 -141 56.5 -199t155.5 -58q102 0 167.5 62t75.5 141
l14 99h-223l7 43h266zM564 777l-46 -8l-83 83l-102 -85l-48 10l139 118h33z" />
    <glyph glyph-name="gcircumflex" unicode="&#x11d;" horiz-adv-x="559" 
d="M293 476q-42 0 -75.5 -18.5t-54.5 -47.5t-35.5 -67t-20 -75.5t-5.5 -74.5q0 -152 116 -152q51 0 95 20t97 74l38 281q-24 24 -67 42t-88 18zM388 -35l17 116q-79 -82 -188 -82q-74 0 -117.5 47.5t-43.5 148.5q0 45 7.5 88.5t26 86.5t46 76t70 53t95.5 20q77 0 155 -57
l10 46h42l-77 -554q-25 -177 -215 -177q-177 0 -190 151l45 10q13 -118 140 -118q72 0 118.5 31.5t58.5 113.5zM469 585l-44 -7l-82 130l-115 -132l-44 9l138 165h49z" />
    <glyph glyph-name="Gbreve" unicode="&#x11e;" horiz-adv-x="690" 
d="M625 374l-51 -374h-36l7 111q-76 -123 -232 -123q-130 0 -193.5 78.5t-63.5 218.5q0 213 103.5 332.5t267.5 119.5q108 0 166 -58t50 -175l-43 -6q4 107 -41.5 152.5t-136.5 45.5q-142 0 -229 -109.5t-87 -300.5q0 -141 56.5 -199t155.5 -58q102 0 167.5 62t75.5 141
l14 99h-223l7 43h266zM430 824q41 0 65 18.5t38 60.5l41 -5q-28 -113 -148 -113q-58 0 -84 28t-29 84l43 5q2 -42 19.5 -60t54.5 -18z" />
    <glyph glyph-name="gbreve" unicode="&#x11f;" horiz-adv-x="559" 
d="M293 476q-42 0 -75.5 -18.5t-54.5 -47.5t-35.5 -67t-20 -75.5t-5.5 -74.5q0 -152 116 -152q51 0 95 20t97 74l38 281q-24 24 -67 42t-88 18zM388 -35l17 116q-79 -82 -188 -82q-74 0 -117.5 47.5t-43.5 148.5q0 45 7.5 88.5t26 86.5t46 76t70 53t95.5 20q77 0 155 -57
l10 46h42l-77 -554q-25 -177 -215 -177q-177 0 -190 151l45 10q13 -118 140 -118q72 0 118.5 31.5t58.5 113.5zM331 613q49 0 74 26t35 90l41 -5q-14 -150 -152 -150q-133 0 -113 148l41 6q-5 -59 11.5 -87t62.5 -28z" />
    <glyph glyph-name="Gdotaccent" unicode="&#x120;" horiz-adv-x="690" 
d="M625 374l-51 -374h-36l7 111q-76 -123 -232 -123q-130 0 -193.5 78.5t-63.5 218.5q0 213 103.5 332.5t267.5 119.5q108 0 166 -58t50 -175l-43 -6q4 107 -41.5 152.5t-136.5 45.5q-142 0 -229 -109.5t-87 -300.5q0 -141 56.5 -199t155.5 -58q102 0 167.5 62t75.5 141
l14 99h-223l7 43h266zM475 833q0 -23 -13.5 -36.5t-36.5 -13.5q-38 0 -38 36q0 23 13 36.5t37 13.5q38 0 38 -36z" />
    <glyph glyph-name="gdotaccent" unicode="&#x121;" horiz-adv-x="559" 
d="M293 476q-42 0 -75.5 -18.5t-54.5 -47.5t-35.5 -67t-20 -75.5t-5.5 -74.5q0 -152 116 -152q51 0 95 20t97 74l38 281q-24 24 -67 42t-88 18zM388 -35l17 116q-79 -82 -188 -82q-74 0 -117.5 47.5t-43.5 148.5q0 45 7.5 88.5t26 86.5t46 76t70 53t95.5 20q77 0 155 -57
l10 46h42l-77 -554q-25 -177 -215 -177q-177 0 -190 151l45 10q13 -118 140 -118q72 0 118.5 31.5t58.5 113.5zM373 685q0 -23 -13.5 -36.5t-36.5 -13.5q-38 0 -38 36q0 23 13 36.5t37 13.5q38 0 38 -36z" />
    <glyph glyph-name="Gcommaaccent" unicode="&#x122;" horiz-adv-x="690" 
d="M625 374l-51 -374h-36l7 111q-76 -123 -232 -123q-130 0 -193.5 78.5t-63.5 218.5q0 213 103.5 332.5t267.5 119.5q108 0 166 -58t50 -175l-43 -6q4 107 -41.5 152.5t-136.5 45.5q-142 0 -229 -109.5t-87 -300.5q0 -141 56.5 -199t155.5 -58q102 0 167.5 62t75.5 141
l14 99h-223l7 43h266zM241 -212l53 143h62l-78 -150z" />
    <glyph glyph-name="gcommaaccent" unicode="&#x123;" horiz-adv-x="559" 
d="M293 476q-42 0 -75.5 -18.5t-54.5 -47.5t-35.5 -67t-20 -75.5t-5.5 -74.5q0 -152 116 -152q51 0 95 20t97 74l38 281q-24 24 -67 42t-88 18zM388 -35l17 116q-79 -82 -188 -82q-74 0 -117.5 47.5t-43.5 148.5q0 45 7.5 88.5t26 86.5t46 76t70 53t95.5 20q77 0 155 -57
l10 46h42l-77 -554q-25 -177 -215 -177q-177 0 -190 151l45 10q13 -118 140 -118q72 0 118.5 31.5t58.5 113.5zM389 723l-53 -143h-62l78 150z" />
    <glyph glyph-name="Hcircumflex" unicode="&#x124;" horiz-adv-x="690" 
d="M642 724l-98 -724h-47l47 352h-382l-47 -352h-48l98 724h48l-45 -330h381l45 330h48zM551 777l-46 -8l-83 83l-102 -85l-48 10l139 118h33z" />
    <glyph glyph-name="hcircumflex" unicode="&#x125;" horiz-adv-x="581" 
d="M162 384l-54 -384h-49l106 755h49l-48 -323q107 87 202 87q77 0 112 -44.5t23 -131.5l-48 -343h-49l48 343q19 132 -89 132q-50 0 -97 -23.5t-106 -67.5zM335 804l-46 -8l-83 83l-102 -85l-48 10l139 118h33z" />
    <glyph glyph-name="Hbar" unicode="&#x126;" horiz-adv-x="690" 
d="M642 724l-20 -146h88l-6 -42h-88l-72 -536h-47l47 352h-382l-47 -352h-48l72 536h-87l8 42h85l20 146h48l-20 -146h381l20 146h48zM168 394h381l19 142h-381z" />
    <glyph glyph-name="hbar" unicode="&#x127;" horiz-adv-x="581" 
d="M162 384l-54 -384h-49l82 589h-67l8 42h65l18 124h49l-19 -124h206l-8 -42h-204l-23 -157q107 87 202 87q77 0 112 -44.5t23 -131.5l-48 -343h-49l48 343q19 132 -89 132q-50 0 -97 -23.5t-106 -67.5z" />
    <glyph glyph-name="Itilde" unicode="&#x128;" horiz-adv-x="258" 
d="M116 0h-47l97 724h48zM138 872q33 0 73.5 -24t60.5 -24q42 0 52 59l37 -2q-8 -56 -30.5 -76t-59.5 -20q-30 0 -72 23t-65 23q-38 0 -48 -60l-37 2q12 99 89 99z" />
    <glyph glyph-name="itilde" unicode="&#x129;" horiz-adv-x="233" 
d="M175 509l-72 -509h-49l72 509h49zM96 697q33 0 73.5 -24t60.5 -24q42 0 52 59l37 -2q-8 -56 -30.5 -76t-59.5 -20q-30 0 -72 23t-65 23q-38 0 -48 -60l-37 2q12 99 89 99z" />
    <glyph glyph-name="Imacron" unicode="&#x12a;" horiz-adv-x="258" 
d="M116 0h-47l97 724h48zM342 800h-290l6 40h290z" />
    <glyph glyph-name="imacron" unicode="&#x12b;" horiz-adv-x="233" 
d="M175 509l-72 -509h-49l72 509h49zM27 648l7 42h277l-7 -42h-277z" />
    <glyph glyph-name="Ibreve" unicode="&#x12c;" horiz-adv-x="258" 
d="M116 0h-47l97 724h48zM201 824q41 0 65 18.5t38 60.5l41 -5q-28 -113 -148 -113q-58 0 -84 28t-29 84l43 5q2 -42 19.5 -60t54.5 -18z" />
    <glyph glyph-name="ibreve" unicode="&#x12d;" horiz-adv-x="233" 
d="M175 509l-72 -509h-49l72 509h49zM162 613q49 0 74 26t35 90l41 -5q-14 -150 -152 -150q-133 0 -113 148l41 6q-5 -59 11.5 -87t62.5 -28z" />
    <glyph glyph-name="Iogonek" unicode="&#x12e;" horiz-adv-x="258" 
d="M110 -132l33 -19q-37 -67 -105 -67q-37 0 -61.5 20.5t-24.5 56.5q0 49 31.5 85t87.5 70l95 710h48l-97 -724q-67 -44 -92 -70t-25 -64q0 -18 11 -30.5t33 -12.5q34 0 66 45z" />
    <glyph glyph-name="iogonek" unicode="&#x12f;" horiz-adv-x="233" 
d="M101 -132l33 -19q-37 -67 -105 -67q-37 0 -61.5 20.5t-24.5 56.5q0 47 30 81t82 69l71 499h49l-72 -508q-43 -30 -62 -45.5t-34.5 -39t-15.5 -49.5q0 -18 11 -30.5t33 -12.5q34 0 66 45zM217 685q0 -23 -13.5 -36.5t-36.5 -13.5q-38 0 -38 36q0 23 13 36.5t37 13.5
q38 0 38 -36z" />
    <glyph glyph-name="Idotaccent" unicode="&#x130;" horiz-adv-x="258" 
d="M116 0h-47l97 724h48zM246 833q0 -23 -13.5 -36.5t-36.5 -13.5q-38 0 -38 36q0 23 13 36.5t37 13.5q38 0 38 -36z" />
    <glyph glyph-name="dotlessi" unicode="&#x131;" horiz-adv-x="233" 
d="M175 509l-72 -509h-49l72 509h49z" />
    <glyph glyph-name="IJ" unicode="&#x132;" horiz-adv-x="725" 
d="M116 0h-47l97 724h48zM566 166l76 558h47l-75 -564q-23 -172 -189 -172q-142 0 -153 144l42 11q7 -52 31 -82.5t84 -30.5q57 0 92 28.5t45 107.5z" />
    <glyph glyph-name="Jcircumflex" unicode="&#x134;" horiz-adv-x="467" 
d="M308 166l76 558h47l-75 -564q-23 -172 -189 -172q-142 0 -153 144l42 11q7 -52 31 -82.5t84 -30.5q57 0 92 28.5t45 107.5zM552 777l-46 -8l-83 83l-102 -85l-48 10l139 118h33z" />
    <glyph glyph-name="jcircumflex" unicode="&#x135;" horiz-adv-x="233" 
d="M41 -94l85 602h49l-85 -598q-10 -71 -40 -102t-91 -31q-15 0 -42.5 5t-38.5 11l14 42q34 -13 70 -13q34 0 53 19.5t26 64.5zM300 585l-44 -7l-82 130l-115 -132l-44 9l138 165h49z" />
    <glyph glyph-name="Kcommaaccent" unicode="&#x136;" horiz-adv-x="595" 
d="M211 724l-52 -382l390 382h60l-329 -320l256 -404h-56l-235 373l-93 -91l-38 -282h-47l97 724h47zM195 -212l53 143h62l-78 -150z" />
    <glyph glyph-name="kcommaaccent" unicode="&#x137;" horiz-adv-x="496" 
d="M434 0h-53l-135 288l-111 -95l-27 -193h-49l106 755h49l-70 -499l283 252h66l-209 -186zM145 -212l53 143h62l-78 -150z" />
    <glyph glyph-name="kgreenlandic" unicode="&#x138;" horiz-adv-x="496" 
d="M434 0h-53l-135 286l-113 -101l-25 -185h-49l71 509h49l-35 -253l283 253h66l-208 -185z" />
    <glyph glyph-name="Lacute" unicode="&#x139;" horiz-adv-x="515" 
d="M435 0h-366l97 724h47l-92 -682h320zM168 781l114 130h81l-156 -144z" />
    <glyph glyph-name="lacute" unicode="&#x13a;" horiz-adv-x="233" 
d="M54 0l106 755h49l-106 -755h-49zM159 803l114 130h81l-156 -144z" />
    <glyph glyph-name="Lcommaaccent" unicode="&#x13b;" horiz-adv-x="515" 
d="M435 0h-366l97 724h47l-92 -682h320zM172 -212l53 143h62l-78 -150z" />
    <glyph glyph-name="lcommaaccent" unicode="&#x13c;" horiz-adv-x="233" 
d="M54 0l106 755h49l-106 -755h-49zM-5 -212l53 143h62l-78 -150z" />
    <glyph glyph-name="Lcaron" unicode="&#x13d;" horiz-adv-x="515" 
d="M435 0h-366l97 724h47l-92 -682h320zM279 535l60 189h64l-87 -197z" />
    <glyph glyph-name="lcaron" unicode="&#x13e;" horiz-adv-x="266" 
d="M54 0l106 755h49l-106 -755h-49zM222 566l60 189h64l-87 -197z" />
    <glyph glyph-name="Ldot" unicode="&#x13f;" horiz-adv-x="515" 
d="M435 0h-366l97 724h47l-92 -682h320zM434 393q0 -24 -13.5 -37.5t-36.5 -13.5q-39 0 -39 36q0 24 13.5 37.5t37.5 13.5q38 0 38 -36z" />
    <glyph glyph-name="ldot" unicode="&#x140;" horiz-adv-x="266" 
d="M54 0l106 755h49l-106 -755h-49zM310 403q0 -23 -14 -37t-37 -14q-38 0 -38 37q0 23 13 36.5t37 13.5q39 0 39 -36z" />
    <glyph glyph-name="Lslash" unicode="&#x141;" horiz-adv-x="515" 
d="M5 262l6 46l105 49l50 367h47l-47 -347l213 98l-6 -48l-213 -96l-39 -289h320l-6 -42h-366l41 311z" />
    <glyph glyph-name="lslash" unicode="&#x142;" horiz-adv-x="263" 
d="M20 326l5 46l102 47l47 336h49l-45 -318l105 48l-5 -47l-106 -49l-55 -389h-49l52 371z" />
    <glyph glyph-name="Nacute" unicode="&#x143;" horiz-adv-x="709" 
d="M567 0h-63l-299 680l-92 -680h-46l97 724h74l290 -669l91 669h45zM398 781l114 130h81l-156 -144z" />
    <glyph glyph-name="nacute" unicode="&#x144;" horiz-adv-x="581" 
d="M161 386l-53 -386h-49l71 508h47l-11 -72q106 83 203 83q157 0 134 -176l-48 -343h-49l48 343q20 133 -91 133q-87 0 -202 -90zM295 586l130 164h78l-169 -178z" />
    <glyph glyph-name="Ncommaaccent" unicode="&#x145;" horiz-adv-x="709" 
d="M567 0h-63l-299 680l-92 -680h-46l97 724h74l290 -669l91 669h45zM234 -212l53 143h62l-78 -150z" />
    <glyph glyph-name="ncommaaccent" unicode="&#x146;" horiz-adv-x="581" 
d="M161 386l-53 -386h-49l71 508h47l-11 -72q106 83 203 83q157 0 134 -176l-48 -343h-49l48 343q20 133 -91 133q-87 0 -202 -90zM170 -212l53 143h62l-78 -150z" />
    <glyph glyph-name="Ncaron" unicode="&#x147;" horiz-adv-x="709" 
d="M567 0h-63l-299 680l-92 -680h-46l97 724h74l290 -669l91 669h45zM296 889l47 8l82 -82l105 85l46 -11l-139 -118h-34z" />
    <glyph glyph-name="ncaron" unicode="&#x148;" horiz-adv-x="581" 
d="M161 386l-53 -386h-49l71 508h47l-11 -72q106 83 203 83q157 0 134 -176l-48 -343h-49l48 343q20 133 -91 133q-87 0 -202 -90zM220 737l46 6l80 -131l115 134l44 -9l-138 -165h-49z" />
    <glyph glyph-name="napostrophe" unicode="&#x149;" horiz-adv-x="566" 
d="M146 386l-53 -386h-49l71 508h47l-11 -72q106 83 203 83q157 0 134 -176l-48 -343h-49l48 343q20 133 -91 133q-87 0 -202 -90zM20 515l54 146h64l-80 -153z" />
    <glyph glyph-name="Eng" unicode="&#x14a;" horiz-adv-x="709" 
d="M565 0l-13 -87q-12 -70 -42 -101.5t-90 -31.5q-15 0 -43 5t-38 11l13 43q38 -14 70 -14q35 0 54 20t26 65l13 90l-310 680l-92 -680h-44l97 724h72l292 -649l89 649h43z" />
    <glyph glyph-name="eng" unicode="&#x14b;" horiz-adv-x="581" 
d="M161 386l-53 -386h-49l71 508h47l-11 -72q106 83 203 83q157 0 134 -176l-48 -343l-13 -90q-10 -71 -40 -102t-91 -31q-16 0 -43.5 5t-37.5 11l13 42q36 -13 70 -13q35 0 54 19.5t26 64.5l13 94l48 343q20 133 -91 133q-87 0 -202 -90z" />
    <glyph glyph-name="Omacron" unicode="&#x14c;" horiz-adv-x="724" 
d="M323 -12q-134 0 -201.5 83t-67.5 228q0 195 97.5 316.5t272.5 121.5q129 0 194.5 -80.5t65.5 -209.5q0 -217 -97 -338t-264 -121zM327 31q133 0 220 103t87 299q0 117 -53 189t-165 72q-135 0 -224 -100.5t-89 -294.5q0 -57 12.5 -103.5t38 -84.5t69.5 -59t104 -21z
M575 800h-290l6 40h290z" />
    <glyph glyph-name="omacron" unicode="&#x14d;" 
d="M246 -12q-97 0 -144.5 58t-47.5 158q0 60 15 114t46 100t84.5 73.5t123.5 27.5q187 0 187 -217q0 -58 -14.5 -111.5t-44.5 -100t-83 -74.5t-122 -28zM251 30q55 0 96.5 23t65.5 62.5t36 87t12 100.5q0 173 -144 173q-106 0 -160.5 -77.5t-54.5 -193.5q0 -175 149 -175z
M197 648l7 42h277l-7 -42h-277z" />
    <glyph glyph-name="Obreve" unicode="&#x14e;" horiz-adv-x="724" 
d="M323 -12q-134 0 -201.5 83t-67.5 228q0 195 97.5 316.5t272.5 121.5q129 0 194.5 -80.5t65.5 -209.5q0 -217 -97 -338t-264 -121zM327 31q133 0 220 103t87 299q0 117 -53 189t-165 72q-135 0 -224 -100.5t-89 -294.5q0 -57 12.5 -103.5t38 -84.5t69.5 -59t104 -21z
M434 824q41 0 65 18.5t38 60.5l41 -5q-28 -113 -148 -113q-58 0 -84 28t-29 84l43 5q2 -42 19.5 -60t54.5 -18z" />
    <glyph glyph-name="obreve" unicode="&#x14f;" 
d="M246 -12q-97 0 -144.5 58t-47.5 158q0 60 15 114t46 100t84.5 73.5t123.5 27.5q187 0 187 -217q0 -58 -14.5 -111.5t-44.5 -100t-83 -74.5t-122 -28zM251 30q55 0 96.5 23t65.5 62.5t36 87t12 100.5q0 173 -144 173q-106 0 -160.5 -77.5t-54.5 -193.5q0 -175 149 -175z
M332 613q49 0 74 26t35 90l41 -5q-14 -150 -152 -150q-133 0 -113 148l41 6q-5 -59 11.5 -87t62.5 -28z" />
    <glyph glyph-name="Ohungarumlaut" unicode="&#x150;" horiz-adv-x="724" 
d="M323 -12q-134 0 -201.5 83t-67.5 228q0 195 97.5 316.5t272.5 121.5q129 0 194.5 -80.5t65.5 -209.5q0 -217 -97 -338t-264 -121zM327 31q133 0 220 103t87 299q0 117 -53 189t-165 72q-135 0 -224 -100.5t-89 -294.5q0 -57 12.5 -103.5t38 -84.5t69.5 -59t104 -21z
M329 780l96 131h75l-128 -144zM449 781l122 134h74l-155 -148z" />
    <glyph glyph-name="ohungarumlaut" unicode="&#x151;" 
d="M246 -12q-97 0 -144.5 58t-47.5 158q0 60 15 114t46 100t84.5 73.5t123.5 27.5q187 0 187 -217q0 -58 -14.5 -111.5t-44.5 -100t-83 -74.5t-122 -28zM251 30q55 0 96.5 23t65.5 62.5t36 87t12 100.5q0 173 -144 173q-106 0 -160.5 -77.5t-54.5 -193.5q0 -175 149 -175z
M233 585l117 164h74l-150 -177zM349 586l133 163h72l-166 -177z" />
    <glyph glyph-name="OE" unicode="&#x152;" horiz-adv-x="1078" 
d="M986 0h-389l20 145q-105 -157 -293 -157q-135 0 -202.5 85t-67.5 229q0 194 98.5 314.5t275.5 120.5q93 0 155.5 -47.5t90.5 -126.5l23 161h383l-6 -40h-339l-41 -296h316l-5 -40h-316l-44 -307h347zM326 30q142 0 235 106.5t93 288.5q0 126 -62.5 198t-166.5 72
q-149 0 -236 -104.5t-87 -285.5q0 -133 59 -204t165 -71z" />
    <glyph glyph-name="oe" unicode="&#x153;" horiz-adv-x="905" 
d="M639 -12q-145 0 -172 145q-62 -145 -221 -145q-97 0 -144.5 58t-47.5 158q0 60 15 114t46 100t84.5 73.5t123.5 27.5q145 0 170 -144q65 144 220 144q71 0 112 -36t41 -90q0 -118 -148 -160q-84 -24 -221 -27q1 -29 4.5 -51t13 -47t25 -41t43 -27t64.5 -11
q61 0 100.5 32.5t53.5 80.5l42 -8q-21 -74 -76.5 -110t-127.5 -36zM251 30q55 0 96.5 23t65.5 62.5t36 87t12 100.5q0 173 -144 173q-106 0 -160.5 -77.5t-54.5 -193.5q0 -175 149 -175zM707 477q-92 0 -145 -64t-63 -166q150 6 227 31q91 30 91 114q0 41 -28.5 63t-81.5 22
z" />
    <glyph glyph-name="Racute" unicode="&#x154;" horiz-adv-x="599" 
d="M401 331l135 -331h-49l-131 321h-198l-43 -321h-46l97 724h196q212 0 212 -169q0 -88 -41.5 -142t-131.5 -82zM164 363h154q93 0 150.5 46t57.5 142q0 76 -43.5 104t-129.5 28h-145zM303 781l114 130h81l-156 -144z" />
    <glyph glyph-name="racute" unicode="&#x155;" horiz-adv-x="342" 
d="M161 376l-53 -376h-49l71 508h47l-12 -86q50 53 85 75t81 22q14 0 21 -1l-8 -55q-47 5 -89 -16.5t-94 -70.5zM199 586l130 164h78l-169 -178z" />
    <glyph glyph-name="Rcommaaccent" unicode="&#x156;" horiz-adv-x="599" 
d="M401 331l135 -331h-49l-131 321h-198l-43 -321h-46l97 724h196q212 0 212 -169q0 -88 -41.5 -142t-131.5 -82zM164 363h154q93 0 150.5 46t57.5 142q0 76 -43.5 104t-129.5 28h-145zM200 -212l53 143h62l-78 -150z" />
    <glyph glyph-name="rcommaaccent" unicode="&#x157;" horiz-adv-x="342" 
d="M161 376l-53 -376h-49l71 508h47l-12 -86q50 53 85 75t81 22q14 0 21 -1l-8 -55q-47 5 -89 -16.5t-94 -70.5zM-6 -212l53 143h62l-78 -150z" />
    <glyph glyph-name="Rcaron" unicode="&#x158;" horiz-adv-x="599" 
d="M401 331l135 -331h-49l-131 321h-198l-43 -321h-46l97 724h196q212 0 212 -169q0 -88 -41.5 -142t-131.5 -82zM164 363h154q93 0 150.5 46t57.5 142q0 76 -43.5 104t-129.5 28h-145zM223 889l47 8l82 -82l105 85l46 -11l-139 -118h-34z" />
    <glyph glyph-name="rcaron" unicode="&#x159;" horiz-adv-x="342" 
d="M161 376l-53 -376h-49l71 508h47l-12 -86q50 53 85 75t81 22q14 0 21 -1l-8 -55q-47 5 -89 -16.5t-94 -70.5zM124 737l46 6l80 -131l115 134l44 -9l-138 -165h-49z" />
    <glyph glyph-name="Sacute" unicode="&#x15a;" horiz-adv-x="547" 
d="M530 534l-47 -6q0 165 -147 165q-97 0 -144 -43t-47 -114q0 -35 13.5 -60.5t38.5 -41.5t52 -26.5t63 -22.5q11 -3 17 -5q75 -24 117.5 -62t42.5 -110q0 -110 -72.5 -165t-181.5 -55q-112 0 -162 52t-57 144l45 8q8 -74 45.5 -116.5t128.5 -42.5q38 0 71.5 8t64.5 26.5
t49 53t18 81.5q0 33 -11 57t-34 40t-44 25t-55 20q-95 30 -127 51q-71 46 -71 137q0 94 66 149.5t173 55.5q91 0 143.5 -50.5t51.5 -152.5zM272 781l114 130h81l-156 -144z" />
    <glyph glyph-name="sacute" unicode="&#x15b;" horiz-adv-x="475" 
d="M264 519q86 0 126 -45.5t39 -114.5l-43 -4q-1 56 -30 91t-91 35q-69 0 -99 -30.5t-30 -74.5q0 -19 7.5 -34.5t15.5 -24t29.5 -18t32.5 -12.5t41 -12q33 -9 51.5 -16.5t42.5 -22.5t35.5 -39t11.5 -57q0 -70 -48 -111t-132 -41q-171 0 -184 158l43 7q14 -126 138 -126
q57 0 96.5 26t39.5 85q0 44 -29 64t-91 37q-29 8 -42.5 12.5t-37.5 15.5t-35.5 23t-21 33t-9.5 48q0 72 51 110t123 38zM218 586l130 164h78l-169 -178z" />
    <glyph glyph-name="Scircumflex" unicode="&#x15c;" horiz-adv-x="547" 
d="M530 534l-47 -6q0 165 -147 165q-97 0 -144 -43t-47 -114q0 -35 13.5 -60.5t38.5 -41.5t52 -26.5t63 -22.5q11 -3 17 -5q75 -24 117.5 -62t42.5 -110q0 -110 -72.5 -165t-181.5 -55q-112 0 -162 52t-57 144l45 8q8 -74 45.5 -116.5t128.5 -42.5q38 0 71.5 8t64.5 26.5
t49 53t18 81.5q0 33 -11 57t-34 40t-44 25t-55 20q-95 30 -127 51q-71 46 -71 137q0 94 66 149.5t173 55.5q91 0 143.5 -50.5t51.5 -152.5zM477 777l-46 -8l-83 83l-102 -85l-48 10l139 118h33z" />
    <glyph glyph-name="scircumflex" unicode="&#x15d;" horiz-adv-x="475" 
d="M264 519q86 0 126 -45.5t39 -114.5l-43 -4q-1 56 -30 91t-91 35q-69 0 -99 -30.5t-30 -74.5q0 -19 7.5 -34.5t15.5 -24t29.5 -18t32.5 -12.5t41 -12q33 -9 51.5 -16.5t42.5 -22.5t35.5 -39t11.5 -57q0 -70 -48 -111t-132 -41q-171 0 -184 158l43 7q14 -126 138 -126
q57 0 96.5 26t39.5 85q0 44 -29 64t-91 37q-29 8 -42.5 12.5t-37.5 15.5t-35.5 23t-21 33t-9.5 48q0 72 51 110t123 38zM428 585l-44 -7l-82 130l-115 -132l-44 9l138 165h49z" />
    <glyph glyph-name="Scedilla" unicode="&#x15e;" horiz-adv-x="547" 
d="M122 -190l15 33q27 -22 61 -22q28 0 45 14t17 42q0 45 -74 47l18 65q-95 8 -138 59t-50 136l45 8q8 -74 45.5 -116.5t128.5 -42.5q38 0 71.5 8t64.5 26.5t49 53t18 81.5q0 33 -11 57t-34 40t-44 25t-55 20q-95 30 -127 51q-71 46 -71 137q0 94 66 149.5t173 55.5
q91 0 143.5 -50.5t51.5 -152.5l-47 -6q0 165 -147 165q-97 0 -144 -43t-47 -114q0 -35 13.5 -60.5t38.5 -41.5t52 -26.5t63 -22.5q11 -3 17 -5q75 -24 117.5 -62t42.5 -110q0 -107 -69.5 -162.5t-174.5 -57.5l-11 -37q26 -4 48 -21t22 -50q0 -46 -29.5 -70.5t-70.5 -24.5
q-51 0 -82 25z" />
    <glyph glyph-name="scedilla" unicode="&#x15f;" horiz-adv-x="475" 
d="M111 -190l15 33q28 -22 61 -22q28 0 45 14t17 42q0 45 -74 47l18 65q-143 11 -154 157l43 7q14 -126 136 -126q53 0 94 25.5t41 81.5q0 25 -8.5 42.5t-28.5 29t-35.5 17.5t-44.5 14t-42.5 12.5t-36.5 16t-34 24.5t-20 35t-9 50q0 70 50.5 107t121.5 37q85 0 124 -45
t38 -115l-42 -4q-2 126 -119 126q-69 0 -98.5 -29.5t-29.5 -71.5q0 -20 8 -36t16.5 -25t30.5 -18.5t31.5 -12.5l38.5 -12q31 -9 50.5 -17.5t41.5 -23.5t32.5 -39.5t10.5 -57.5q0 -67 -43.5 -106t-121.5 -43l-11 -38q26 -4 48 -21t22 -50q0 -46 -29.5 -70.5t-70.5 -24.5
q-51 0 -82 25z" />
    <glyph glyph-name="Scaron" unicode="&#x160;" horiz-adv-x="547" 
d="M530 534l-47 -6q0 165 -147 165q-97 0 -144 -43t-47 -114q0 -35 13.5 -60.5t38.5 -41.5t52 -26.5t63 -22.5q11 -3 17 -5q75 -24 117.5 -62t42.5 -110q0 -110 -72.5 -165t-181.5 -55q-112 0 -162 52t-57 144l45 8q8 -74 45.5 -116.5t128.5 -42.5q38 0 71.5 8t64.5 26.5
t49 53t18 81.5q0 33 -11 57t-34 40t-44 25t-55 20q-95 30 -127 51q-71 46 -71 137q0 94 66 149.5t173 55.5q91 0 143.5 -50.5t51.5 -152.5zM211 889l47 8l82 -82l105 85l46 -11l-139 -118h-34z" />
    <glyph glyph-name="scaron" unicode="&#x161;" horiz-adv-x="475" 
d="M264 519q86 0 126 -45.5t39 -114.5l-43 -4q-1 56 -30 91t-91 35q-69 0 -99 -30.5t-30 -74.5q0 -19 7.5 -34.5t15.5 -24t29.5 -18t32.5 -12.5t41 -12q33 -9 51.5 -16.5t42.5 -22.5t35.5 -39t11.5 -57q0 -70 -48 -111t-132 -41q-171 0 -184 158l43 7q14 -126 138 -126
q57 0 96.5 26t39.5 85q0 44 -29 64t-91 37q-29 8 -42.5 12.5t-37.5 15.5t-35.5 23t-21 33t-9.5 48q0 72 51 110t123 38zM160 737l46 6l80 -131l115 134l44 -9l-138 -165h-49z" />
    <glyph glyph-name="uni0162" unicode="&#x162;" horiz-adv-x="500" 
d="M102 -190l15 33q27 -22 61 -22q28 0 45 13.5t17 40.5q0 55 -94 49v4l45 86l90 669h-213l5 41h470l-6 -41h-212l-90 -679l-28 -52q29 -2 53 -20.5t24 -51.5q0 -46 -29.5 -70.5t-70.5 -24.5q-51 0 -82 25z" />
    <glyph glyph-name="uni0163" unicode="&#x163;" horiz-adv-x="360" 
d="M81 -190l15 33q28 -22 61 -22q28 0 45 14t17 42q0 45 -74 47l18 67q-91 13 -75 126l49 349h-80l5 42h81l20 147l50 7l-21 -154h144l-6 -42h-144l-49 -341q-7 -51 5 -73.5t61 -22.5t99 27l9 -39q-45 -27 -108 -29l-10 -37q26 -4 48 -21t22 -50q0 -46 -29.5 -70.5
t-70.5 -24.5q-51 0 -82 25z" />
    <glyph glyph-name="Tcaron" unicode="&#x164;" horiz-adv-x="500" 
d="M234 0h-45l92 683h-213l5 41h470l-6 -41h-212zM190 889l47 8l82 -82l105 85l46 -11l-139 -118h-34z" />
    <glyph glyph-name="tcaron" unicode="&#x165;" horiz-adv-x="360" 
d="M302 56l9 -39q-48 -29 -109 -29q-69 0 -96.5 30.5t-17.5 98.5l49 349h-80l5 42h81l20 147l50 7l-21 -154h144l-6 -42h-144l-49 -341q-7 -51 5 -73.5t61 -22.5t99 27zM256 571l60 189h64l-87 -197z" />
    <glyph glyph-name="Tbar" unicode="&#x166;" horiz-adv-x="500" 
d="M91 356l6 40h145l39 287h-213l5 41h470l-6 -41h-212l-38 -287h149l-6 -40h-149l-47 -356h-45l48 356h-146z" />
    <glyph glyph-name="tbar" unicode="&#x167;" horiz-adv-x="360" 
d="M302 56l9 -39q-48 -29 -109 -29q-69 0 -96.5 30.5t-17.5 98.5l20 147h-83l7 41h82l23 161h-80l5 42h81l20 147l50 7l-21 -154h144l-6 -42h-144l-23 -161h143l-7 -41h-142l-20 -139q-7 -51 5 -73.5t61 -22.5t99 27z" />
    <glyph glyph-name="Utilde" unicode="&#x168;" horiz-adv-x="688" 
d="M642 724l-67 -494q-32 -242 -269 -242q-243 0 -210 241l67 495h47l-66 -493q-14 -107 28 -153t134 -46q96 0 152.5 46.5t70.5 153.5l66 492h47zM355 872q33 0 73.5 -24t60.5 -24q42 0 52 59l37 -2q-8 -56 -30.5 -76t-59.5 -20q-30 0 -72 23t-65 23q-38 0 -48 -60l-37 2
q12 99 89 99z" />
    <glyph glyph-name="utilde" unicode="&#x169;" horiz-adv-x="582" 
d="M418 123l53 385h49l-72 -508h-45l9 70h-1q-37 -32 -92 -57t-110 -25q-155 0 -131 175l48 345h49l-47 -339q-4 -36 -2.5 -66.5t23.5 -51t64 -20.5q95 0 205 92zM268 697q33 0 73.5 -24t60.5 -24q42 0 52 59l37 -2q-8 -56 -30.5 -76t-59.5 -20q-30 0 -72 23t-65 23
q-38 0 -48 -60l-37 2q12 99 89 99z" />
    <glyph glyph-name="Umacron" unicode="&#x16a;" horiz-adv-x="688" 
d="M642 724l-67 -494q-32 -242 -269 -242q-243 0 -210 241l67 495h47l-66 -493q-14 -107 28 -153t134 -46q96 0 152.5 46.5t70.5 153.5l66 492h47zM559 800h-290l6 40h290z" />
    <glyph glyph-name="umacron" unicode="&#x16b;" horiz-adv-x="582" 
d="M418 123l53 385h49l-72 -508h-45l9 70h-1q-37 -32 -92 -57t-110 -25q-155 0 -131 175l48 345h49l-47 -339q-4 -36 -2.5 -66.5t23.5 -51t64 -20.5q95 0 205 92zM199 648l7 42h277l-7 -42h-277z" />
    <glyph glyph-name="Ubreve" unicode="&#x16c;" horiz-adv-x="688" 
d="M642 724l-67 -494q-32 -242 -269 -242q-243 0 -210 241l67 495h47l-66 -493q-14 -107 28 -153t134 -46q96 0 152.5 46.5t70.5 153.5l66 492h47zM418 824q41 0 65 18.5t38 60.5l41 -5q-28 -113 -148 -113q-58 0 -84 28t-29 84l43 5q2 -42 19.5 -60t54.5 -18z" />
    <glyph glyph-name="ubreve" unicode="&#x16d;" horiz-adv-x="582" 
d="M418 123l53 385h49l-72 -508h-45l9 70h-1q-37 -32 -92 -57t-110 -25q-155 0 -131 175l48 345h49l-47 -339q-4 -36 -2.5 -66.5t23.5 -51t64 -20.5q95 0 205 92zM334 613q49 0 74 26t35 90l41 -5q-14 -150 -152 -150q-133 0 -113 148l41 6q-5 -59 11.5 -87t62.5 -28z" />
    <glyph glyph-name="Uring" unicode="&#x16e;" horiz-adv-x="688" 
d="M642 724l-67 -494q-32 -242 -269 -242q-243 0 -210 241l67 495h47l-66 -493q-14 -107 28 -153t134 -46q96 0 152.5 46.5t70.5 153.5l66 492h47zM519 847q0 -52 -31.5 -82.5t-84.5 -30.5q-41 0 -64.5 21t-23.5 59q0 53 33.5 82.5t80.5 29.5q40 0 65 -20t25 -59zM408 769
q32 0 50 20.5t18 52.5q0 49 -51 49q-30 0 -49.5 -19t-19.5 -54q0 -49 52 -49z" />
    <glyph glyph-name="uring" unicode="&#x16f;" horiz-adv-x="582" 
d="M418 123l53 385h49l-72 -508h-45l9 70h-1q-37 -32 -92 -57t-110 -25q-155 0 -131 175l48 345h49l-47 -339q-4 -36 -2.5 -66.5t23.5 -51t64 -20.5q95 0 205 92zM446 689q0 -52 -31.5 -82.5t-84.5 -30.5q-41 0 -64.5 21t-23.5 59q0 53 33.5 82.5t80.5 29.5q40 0 65 -20
t25 -59zM335 611q32 0 50 20.5t18 52.5q0 49 -51 49q-30 0 -49.5 -19t-19.5 -54q0 -49 52 -49z" />
    <glyph glyph-name="Uhungarumlaut" unicode="&#x170;" horiz-adv-x="688" 
d="M642 724l-67 -494q-32 -242 -269 -242q-243 0 -210 241l67 495h47l-66 -493q-14 -107 28 -153t134 -46q96 0 152.5 46.5t70.5 153.5l66 492h47zM313 780l96 131h75l-128 -144zM433 781l122 134h74l-155 -148z" />
    <glyph glyph-name="uhungarumlaut" unicode="&#x171;" horiz-adv-x="582" 
d="M418 123l53 385h49l-72 -508h-45l9 70h-1q-37 -32 -92 -57t-110 -25q-155 0 -131 175l48 345h49l-47 -339q-4 -36 -2.5 -66.5t23.5 -51t64 -20.5q95 0 205 92zM235 585l117 164h74l-150 -177zM351 586l133 163h72l-166 -177z" />
    <glyph glyph-name="Uogonek" unicode="&#x172;" horiz-adv-x="688" 
d="M418 -132l33 -19q-37 -67 -105 -67q-37 0 -61.5 20.5t-24.5 56.5q0 69 84 131q-24 -2 -38 -2q-243 0 -210 241l67 495h47l-66 -493q-14 -107 28 -153t134 -46q95 0 152 46t71 154l66 492h47l-67 -494q-11 -85 -45 -135.5t-94 -84.5q-69 -39 -98.5 -71.5t-29.5 -72.5
q0 -18 11 -30.5t33 -12.5q34 0 66 45z" />
    <glyph glyph-name="uogonek" unicode="&#x173;" horiz-adv-x="582" 
d="M443 -132l33 -19q-37 -67 -105 -67q-37 0 -61.5 20.5t-24.5 56.5q0 48 31.5 82.5t88.5 72.5l7 56h-1q-37 -32 -92 -57t-110 -25q-155 0 -131 175l48 345h49l-47 -339q-4 -36 -2.5 -66.5t23.5 -51t64 -20.5q95 0 205 92l53 385h49l-71 -507q-66 -44 -91 -70.5t-25 -64.5
q0 -18 11 -30.5t33 -12.5q34 0 66 45z" />
    <glyph glyph-name="Wcircumflex" unicode="&#x174;" horiz-adv-x="824" 
d="M601 0h-61l-78 669h-1l-263 -669h-52l-57 724h48l44 -661h1l256 661h62l77 -673h1l218 673h46zM615 777l-46 -8l-83 83l-102 -85l-48 10l139 118h33z" />
    <glyph glyph-name="wcircumflex" unicode="&#x175;" horiz-adv-x="712" 
d="M191 0h-58l-83 508h48l68 -458l189 458h62l59 -456l196 456h49l-222 -508h-62l-58 455zM538 585l-44 -7l-82 130l-115 -132l-44 9l138 165h49z" />
    <glyph glyph-name="Ycircumflex" unicode="&#x176;" horiz-adv-x="503" 
d="M278 290l-40 -290h-45l39 286l-175 438h50l152 -387h1l251 387h51zM459 777l-46 -8l-83 83l-102 -85l-48 10l139 118h33z" />
    <glyph glyph-name="ycircumflex" unicode="&#x177;" horiz-adv-x="447" 
d="M152 0l-100 508h51l83 -445l218 445h52l-269 -537q-59 -119 -93 -156.5t-92 -37.5q-39 0 -75 17l10 40q33 -15 69 -15q34 0 60 29.5t66 110.5zM407 585l-44 -7l-82 130l-115 -132l-44 9l138 165h49z" />
    <glyph glyph-name="Ydieresis" unicode="&#x178;" horiz-adv-x="503" 
d="M278 290l-40 -290h-45l39 286l-175 438h50l152 -387h1l251 387h51zM182 820q0 24 14.5 38t37.5 14q17 0 27.5 -10t10.5 -28q0 -23 -14 -37t-36 -14q-40 0 -40 37zM373 820q0 24 14.5 38t37.5 14q38 0 38 -38q0 -24 -14 -37.5t-36 -13.5q-40 0 -40 37z" />
    <glyph glyph-name="Zacute" unicode="&#x179;" horiz-adv-x="545" 
d="M475 0h-473l4 33l484 650h-385l6 41h445l-5 -34l-484 -648h414zM283 781l114 130h81l-156 -144z" />
    <glyph glyph-name="zacute" unicode="&#x17a;" horiz-adv-x="448" 
d="M381 0h-378l5 34l363 432h-302l7 42h365l-5 -33l-366 -433h317zM219 586l130 164h78l-169 -178z" />
    <glyph glyph-name="Zdotaccent" unicode="&#x17b;" horiz-adv-x="545" 
d="M475 0h-473l4 33l484 650h-385l6 41h445l-5 -34l-484 -648h414zM387 833q0 -23 -13.5 -36.5t-36.5 -13.5q-38 0 -38 36q0 23 13 36.5t37 13.5q38 0 38 -36z" />
    <glyph glyph-name="zdotaccent" unicode="&#x17c;" horiz-adv-x="448" 
d="M381 0h-378l5 34l363 432h-302l7 42h365l-5 -33l-366 -433h317zM329 685q0 -23 -13.5 -36.5t-36.5 -13.5q-38 0 -38 36q0 23 13 36.5t37 13.5q38 0 38 -36z" />
    <glyph glyph-name="Zcaron" unicode="&#x17d;" horiz-adv-x="545" 
d="M475 0h-473l4 33l484 650h-385l6 41h445l-5 -34l-484 -648h414zM210 889l47 8l82 -82l105 85l46 -11l-139 -118h-34z" />
    <glyph glyph-name="zcaron" unicode="&#x17e;" horiz-adv-x="448" 
d="M381 0h-378l5 34l363 432h-302l7 42h365l-5 -33l-366 -433h317zM148 737l46 6l80 -131l115 134l44 -9l-138 -165h-49z" />
    <glyph glyph-name="longs" unicode="&#x17f;" horiz-adv-x="290" 
d="M383 747l-8 -41q-35 13 -72 13q-82 0 -95 -97l-117 -834h-49l116 827q20 148 149 148q44 0 76 -16z" />
    <glyph glyph-name="florin" unicode="&#x192;" horiz-adv-x="505" 
d="M528 650l-47 -19q-25 62 -81 62q-79 0 -98 -101l-28 -149h148l-10 -45h-148l-88 -440q-15 -75 -50.5 -107.5t-94.5 -32.5q-97 0 -127 91l47 19q14 -34 31 -49.5t49 -15.5q37 0 60.5 21.5t34.5 78.5l86 435h-75l10 45h75l30 154q27 140 149 140q94 0 127 -87z" />
    <glyph glyph-name="Aringacute" unicode="&#x1fa;" horiz-adv-x="610" 
d="M480 834q0 -88 -80 -110l140 -724h-51l-46 248h-286l-113 -248h-49l333 724q-50 17 -50 77q0 52 33.5 81.5t79.5 29.5q40 0 64.5 -19.5t24.5 -58.5zM434 290l-74 397h-1l-181 -397h256zM370 757q32 0 50 20.5t18 51.5q0 48 -51 48q-30 0 -49 -18.5t-19 -53.5
q0 -22 13 -35t38 -13zM352 949l114 130h81l-156 -144z" />
    <glyph glyph-name="aringacute" unicode="&#x1fb;" horiz-adv-x="568" 
d="M507 508l-61 -430q-3 -23 1.5 -34t22.5 -11q16 0 33 5l-5 -37q-15 -5 -35 -5q-69 0 -60 76q-89 -84 -188 -84q-74 0 -117 48.5t-43 152.5q0 42 6.5 84t24 87.5t44 80t70.5 56.5t99 22q87 0 156 -57l10 46h42zM407 123l40 293q-25 24 -68 41.5t-88 17.5q-51 0 -90 -28
t-59.5 -72.5t-30.5 -92t-10 -94.5q0 -158 122 -158q46 0 86.5 19.5t97.5 73.5zM439 681q0 -52 -31.5 -82.5t-84.5 -30.5q-41 0 -64.5 21t-23.5 59q0 53 33.5 82.5t80.5 29.5q40 0 65 -20t25 -59zM328 603q32 0 50 20.5t18 52.5q0 49 -51 49q-30 0 -49.5 -19t-19.5 -54
q0 -49 52 -49zM291 811l114 130h81l-156 -144z" />
    <glyph glyph-name="AEacute" unicode="&#x1fc;" horiz-adv-x="999" 
d="M922 0h-386l47 340h-235l-245 -340h-53l524 724h442l-6 -40h-332l-42 -300h310l-6 -42h-310l-42 -301h341zM589 383l43 301h-40l-213 -301h210zM717 781l114 130h81l-156 -144z" />
    <glyph glyph-name="aeacute" unicode="&#x1fd;" horiz-adv-x="848" 
d="M582 -12q-121 0 -165 95q-99 -95 -202 -95q-73 0 -116.5 48t-43.5 148q0 44 6.5 86.5t24 89t44.5 80.5t71.5 56.5t101.5 22.5q40 0 82 -17t70 -40l8 47h48l-7 -41q62 51 151 51q71 0 112.5 -36t41.5 -90q0 -29 -10 -53.5t-24 -42t-40 -32t-45.5 -23.5t-55 -15.5t-53 -10
t-55 -5.5l-46.5 -2.5t-40 -1.5q2 -178 148 -178q62 0 101.5 32t54.5 81l42 -8q-21 -74 -76.5 -110t-127.5 -36zM405 122q-10 39 -10 90q0 116 57 200q-67 64 -160 64q-51 0 -90 -28.5t-60 -73.5t-31 -93t-10 -95q0 -156 118 -156q48 0 88.5 19.5t97.5 72.5zM652 476
q-94 0 -146.5 -64t-63.5 -165q53 1 91.5 4t84.5 12.5t74.5 24t48 41.5t19.5 63q0 40 -29 62t-79 22zM447 586l130 164h78l-169 -178z" />
    <glyph glyph-name="Oslashacute" unicode="&#x1fe;" horiz-adv-x="724" 
d="M363 781l114 130h81l-156 -144zM323 -12q-46 0 -87 11l-32 -75h-45l38 89q-143 68 -143 286q0 195 97.5 316.5t272.5 121.5q39 0 79 -10l27 64h45l-33 -78q71 -32 106.5 -102t35.5 -164q0 -217 -97 -338t-264 -121zM102 299q0 -183 113 -244l270 631q-31 9 -69 9
q-135 0 -224.5 -101t-89.5 -295zM327 30q133 0 220.5 103.5t87.5 299.5q0 178 -112 238l-270 -631q31 -10 74 -10z" />
    <glyph glyph-name="oslashacute" unicode="&#x1ff;" 
d="M246 -12q-26 0 -45 4l-28 -70h-45l33 81q-107 44 -107 201q0 60 15 114t46 100t84.5 73.5t123.5 27.5q26 0 45 -4l27 67h45l-32 -79q102 -42 102 -201q0 -58 -14.5 -111.5t-44.5 -100t-83 -74.5t-122 -28zM102 205q0 -123 75 -160l174 428q-17 3 -34 3
q-106 0 -160.5 -77.5t-54.5 -193.5zM251 30q55 0 96.5 23t65.5 62.5t36 87t12 100.5q0 119 -71 157l-173 -428q22 -2 34 -2zM263 586l130 164h78l-169 -178z" />
    <glyph glyph-name="Scommaaccent" unicode="&#x218;" horiz-adv-x="547" 
d="M530 534l-47 -6q0 165 -147 165q-97 0 -144 -43t-47 -114q0 -35 13.5 -60.5t38.5 -41.5t52 -26.5t63 -22.5q11 -3 17 -5q75 -24 117.5 -62t42.5 -110q0 -110 -72.5 -165t-181.5 -55q-112 0 -162 52t-57 144l45 8q8 -74 45.5 -116.5t128.5 -42.5q38 0 71.5 8t64.5 26.5
t49 53t18 81.5q0 33 -11 57t-34 40t-44 25t-55 20q-95 30 -127 51q-71 46 -71 137q0 94 66 149.5t173 55.5q91 0 143.5 -50.5t51.5 -152.5zM154 -212l53 143h62l-78 -150z" />
    <glyph glyph-name="scommaaccent" unicode="&#x219;" horiz-adv-x="475" 
d="M264 519q86 0 126 -45.5t39 -114.5l-43 -4q-1 56 -30 91t-91 35q-69 0 -99 -30.5t-30 -74.5q0 -19 7.5 -34.5t15.5 -24t29.5 -18t32.5 -12.5t41 -12q33 -9 51.5 -16.5t42.5 -22.5t35.5 -39t11.5 -57q0 -70 -48 -111t-132 -41q-171 0 -184 158l43 7q14 -126 138 -126
q57 0 96.5 26t39.5 85q0 44 -29 64t-91 37q-29 8 -42.5 12.5t-37.5 15.5t-35.5 23t-21 33t-9.5 48q0 72 51 110t123 38zM122 -212l53 143h62l-78 -150z" />
    <glyph glyph-name="uni021A" unicode="&#x21a;" horiz-adv-x="500" 
d="M234 0h-45l92 683h-213l5 41h470l-6 -41h-212zM122 -212l53 143h62l-78 -150z" />
    <glyph glyph-name="uni021B" unicode="&#x21b;" horiz-adv-x="360" 
d="M302 56l9 -39q-48 -29 -109 -29q-69 0 -96.5 30.5t-17.5 98.5l49 349h-80l5 42h81l20 147l50 7l-21 -154h144l-6 -42h-144l-49 -341q-7 -51 5 -73.5t61 -22.5t99 27zM104 -212l53 143h62l-78 -150z" />
    <glyph glyph-name="dotlessj" unicode="&#x237;" horiz-adv-x="233" 
d="M41 -94l85 602h49l-85 -598q-10 -71 -40 -102t-91 -31q-15 0 -42.5 5t-38.5 11l14 42q34 -13 70 -13q34 0 53 19.5t26 64.5z" />
    <glyph glyph-name="apostrophe" unicode="&#x2bc;" horiz-adv-x="499" 
d="M267 540l53 143h62l-78 -150z" />
    <glyph glyph-name="circumflex" unicode="&#x2c6;" horiz-adv-x="500" 
d="M465 585l-44 -7l-82 130l-115 -132l-44 9l138 165h49z" />
    <glyph glyph-name="caron" unicode="&#x2c7;" horiz-adv-x="500" 
d="M197 737l46 6l80 -131l115 134l44 -9l-138 -165h-49z" />
    <glyph glyph-name="uni02C9" unicode="&#x2c9;" horiz-adv-x="500" 
d="M186 635l7 43h277l-7 -43h-277z" />
    <glyph glyph-name="breve" unicode="&#x2d8;" horiz-adv-x="499" 
d="M324 613q49 0 74 26t35 90l41 -5q-14 -150 -152 -150q-133 0 -113 148l41 6q-5 -59 11.5 -87t62.5 -28z" />
    <glyph glyph-name="dotaccent" unicode="&#x2d9;" horiz-adv-x="500" 
d="M378 685q0 -23 -13.5 -36.5t-36.5 -13.5q-38 0 -38 36q0 23 13 36.5t37 13.5q38 0 38 -36z" />
    <glyph glyph-name="ring" unicode="&#x2da;" horiz-adv-x="500" 
d="M433 689q0 -52 -31.5 -82.5t-84.5 -30.5q-41 0 -64.5 21t-23.5 59q0 53 33.5 82.5t80.5 29.5q40 0 65 -20t25 -59zM322 611q32 0 50 20.5t18 52.5q0 49 -51 49q-30 0 -49.5 -19t-19.5 -54q0 -49 52 -49z" />
    <glyph glyph-name="ogonek" unicode="&#x2db;" horiz-adv-x="500" 
d="M304 -132l33 -19q-37 -67 -105 -67q-37 0 -61.5 20.5t-24.5 56.5q0 27 10 50.5t33 45t39.5 33.5l47.5 33l41 -11q-52 -38 -71.5 -54t-35.5 -40t-16 -50q0 -18 11 -30.5t33 -12.5q34 0 66 45z" />
    <glyph glyph-name="tilde" unicode="&#x2dc;" horiz-adv-x="499" 
d="M258 697q33 0 73.5 -24t60.5 -24q42 0 52 59l37 -2q-8 -56 -30.5 -76t-59.5 -20q-30 0 -72 23t-65 23q-38 0 -48 -60l-37 2q12 99 89 99z" />
    <glyph glyph-name="hungarumlaut" unicode="&#x2dd;" horiz-adv-x="499" 
d="M225 585l117 164h74l-150 -177zM341 586l133 163h72l-166 -177z" />
    <glyph glyph-name="uni0394" unicode="&#x394;" horiz-adv-x="633" 
d="M339 724h72l142 -680v-44h-538v43zM503 42l-132 645h-2l-307 -645h441z" />
    <glyph glyph-name="uni03A9" unicode="&#x3a9;" horiz-adv-x="744" 
d="M438 694q-80 0 -143 -30.5t-99 -80t-54.5 -105.5t-18.5 -113q0 -93 46.5 -154t122.5 -82l-18 -129h-234l6 42h188l7 58q-82 35 -124 100.5t-42 152.5q0 162 98 273t273 111q121 0 197 -71.5t76 -213.5q0 -46 -15 -97t-45 -101t-81 -91.5t-115 -61.5l-7 -59h197l-5 -42
h-244l17 129q103 18 176.5 111.5t73.5 210.5q0 113 -58.5 178t-174.5 65z" />
    <glyph glyph-name="uni03BC" unicode="&#x3bc;" horiz-adv-x="579" 
d="M418 71h-2q-107 -82 -208 -82q-35 0 -62 13.5t-35 33.5l-35 -248h-48l102 720h50l-42 -296q-9 -64 -9 -90q0 -90 86 -90q100 0 208 92l53 384h49l-61 -432q-2 -16 -2 -18q0 -25 26 -25q16 0 33 5l-5 -37q-13 -5 -45 -5q-64 0 -53 75z" />
    <glyph glyph-name="pi" unicode="&#x3c0;" horiz-adv-x="624" 
d="M398 76l54 386h-221l-112 -462h-52l117 462h-116l6 46h541l-6 -46h-108l-52 -366q-4 -32 -4 -35q0 -28 33 -28q18 0 35 5l-5 -37q-19 -5 -47 -5q-65 0 -65 58q0 5 0.5 10t1 8t0.5 4z" />
    <glyph glyph-name="Wgrave" unicode="&#x1e80;" horiz-adv-x="824" 
d="M601 0h-61l-78 669h-1l-263 -669h-52l-57 724h48l44 -661h1l256 661h62l77 -673h1l218 673h46zM383 911h68l84 -130l-37 -14z" />
    <glyph glyph-name="wgrave" unicode="&#x1e81;" horiz-adv-x="712" 
d="M191 0h-58l-83 508h48l68 -458l189 458h62l59 -456l196 456h49l-222 -508h-62l-58 455zM456 586l-39 -14l-119 178h68z" />
    <glyph glyph-name="Wacute" unicode="&#x1e82;" horiz-adv-x="824" 
d="M601 0h-61l-78 669h-1l-263 -669h-52l-57 724h48l44 -661h1l256 661h62l77 -673h1l218 673h46zM429 781l114 130h81l-156 -144z" />
    <glyph glyph-name="wacute" unicode="&#x1e83;" horiz-adv-x="712" 
d="M191 0h-58l-83 508h48l68 -458l189 458h62l59 -456l196 456h49l-222 -508h-62l-58 455zM345 586l130 164h78l-169 -178z" />
    <glyph glyph-name="Wdieresis" unicode="&#x1e84;" horiz-adv-x="824" 
d="M601 0h-61l-78 669h-1l-263 -669h-52l-57 724h48l44 -661h1l256 661h62l77 -673h1l218 673h46zM338 820q0 24 14.5 38t37.5 14q17 0 27.5 -10t10.5 -28q0 -23 -14 -37t-36 -14q-40 0 -40 37zM529 820q0 24 14.5 38t37.5 14q38 0 38 -38q0 -24 -14 -37.5t-36 -13.5
q-40 0 -40 37z" />
    <glyph glyph-name="wdieresis" unicode="&#x1e85;" horiz-adv-x="712" 
d="M191 0h-58l-83 508h48l68 -458l189 458h62l59 -456l196 456h49l-222 -508h-62l-58 455zM262 660q0 23 14.5 37t38.5 14q37 0 37 -38q0 -23 -14 -36.5t-36 -13.5q-40 0 -40 37zM454 660q0 23 14.5 37t37.5 14q17 0 27.5 -10t10.5 -28q0 -23 -14 -36.5t-36 -13.5
q-40 0 -40 37z" />
    <glyph glyph-name="Ygrave" unicode="&#x1ef2;" horiz-adv-x="503" 
d="M278 290l-40 -290h-45l39 286l-175 438h50l152 -387h1l251 387h51zM201 911h68l84 -130l-37 -14z" />
    <glyph glyph-name="ygrave" unicode="&#x1ef3;" horiz-adv-x="447" 
d="M152 0l-100 508h51l83 -445l218 445h52l-269 -537q-59 -119 -93 -156.5t-92 -37.5q-39 0 -75 17l10 40q33 -15 69 -15q34 0 60 29.5t66 110.5zM317 586l-39 -14l-119 178h68z" />
    <glyph glyph-name="thinspace" unicode="&#x2009;" horiz-adv-x="125" 
 />
    <glyph glyph-name="endash" unicode="&#x2013;" horiz-adv-x="500" 
d="M497 263h-499l7 39h499z" />
    <glyph glyph-name="emdash" unicode="&#x2014;" horiz-adv-x="1000" 
d="M997 263h-999l6 39h999z" />
    <glyph glyph-name="quoteleft" unicode="&#x2018;" horiz-adv-x="175" 
d="M220 761l-81 -201h-65l106 208z" />
    <glyph glyph-name="quoteright" unicode="&#x2019;" horiz-adv-x="175" 
d="M76 559l81 201h65l-106 -208z" />
    <glyph glyph-name="quotesinglbase" unicode="&#x201a;" horiz-adv-x="175" 
d="M-25 -120l81 201h65l-106 -208z" />
    <glyph glyph-name="quotedblleft" unicode="&#x201c;" horiz-adv-x="309" 
d="M354 761l-81 -201h-65l106 208zM220 761l-81 -201h-65l106 208z" />
    <glyph glyph-name="quotedblright" unicode="&#x201d;" horiz-adv-x="310" 
d="M210 559l81 201h65l-106 -208zM76 559l81 201h65l-106 -208z" />
    <glyph glyph-name="quotedblbase" unicode="&#x201e;" horiz-adv-x="308" 
d="M-25 -120l81 201h65l-106 -208zM108 -120l81 201h65l-106 -208z" />
    <glyph glyph-name="dagger" unicode="&#x2020;" horiz-adv-x="380" 
d="M393 506l-149 6l-72 -595h-62l93 596l-150 -7l7 51l149 -7l17 174h55l-31 -173l151 6z" />
    <glyph glyph-name="daggerdbl" unicode="&#x2021;" horiz-adv-x="404" 
d="M13 134l149 -5l52 384l-150 -7l8 51l148 -7l17 174h56l-31 -173l150 6l-7 -51l-149 6l-53 -384l150 6l-7 -51l-149 8l-17 -174h-55l31 173l-151 -7z" />
    <glyph glyph-name="bullet" unicode="&#x2022;" horiz-adv-x="359" 
d="M309 303q0 -72 -38.5 -110t-108.5 -38q-112 0 -112 103q0 71 38.5 109.5t108.5 38.5q112 0 112 -103z" />
    <glyph glyph-name="ellipsis" unicode="&#x2026;" horiz-adv-x="584" 
d="M496 45q0 -57 -57 -57q-42 0 -42 40q0 57 57 57q42 0 42 -40zM312 45q0 -57 -57 -57q-42 0 -42 40q0 57 57 57q42 0 42 -40zM116 45q0 -57 -57 -57q-42 0 -42 40q0 57 57 57q42 0 42 -40z" />
    <glyph glyph-name="perthousand" unicode="&#x2030;" horiz-adv-x="971" 
d="M760 -12q-61 0 -90.5 36t-29.5 92q0 85 43 141t121 56q59 0 88 -34t29 -95q0 -87 -42 -141.5t-119 -54.5zM762 27q113 0 113 155q0 39 -18 65t-57 26q-60 0 -87 -47.5t-27 -106.5q0 -92 76 -92zM425 -12q-61 0 -90.5 36t-29.5 92q0 85 43 141t121 56q59 0 88 -34t29 -95
q0 -87 -42 -141.5t-119 -54.5zM427 27q113 0 113 155q0 39 -18 65t-57 26q-60 0 -87 -47.5t-27 -106.5q0 -92 76 -92zM68 -18h-52l543 742h51zM185 412q-61 0 -90.5 36t-29.5 92q0 85 43 141t121 56q59 0 88 -34t29 -95q0 -87 -42 -141.5t-119 -54.5zM187 451q113 0 113 155
q0 39 -18 65t-57 26q-60 0 -87 -47.5t-27 -106.5q0 -92 76 -92z" />
    <glyph glyph-name="guilsinglleft" unicode="&#x2039;" horiz-adv-x="278" 
d="M190 103h-54l-66 158l110 147h54l-103 -146z" />
    <glyph glyph-name="guilsinglright" unicode="&#x203a;" horiz-adv-x="277" 
d="M89 103h-56l110 153l-61 152h52l66 -155z" />
    <glyph glyph-name="fraction" unicode="&#x2044;" horiz-adv-x="123" 
d="M-148 -12h-49l461 736h48z" />
    <glyph glyph-name="zerosuperior" unicode="&#x2070;" horiz-adv-x="382" 
d="M193 342q-121 0 -121 158q0 48 7.5 93.5t26 94.5t58 79t95.5 30q63 0 90 -40.5t27 -116.5q0 -36 -3 -70t-15 -77.5t-30.5 -75t-53.5 -53.5t-81 -22zM195 385q134 0 134 268q0 103 -74 103q-43 0 -72.5 -28t-42 -75t-16.5 -84t-4 -77q0 -22 2 -37.5t9 -33t23 -27t41 -9.5z
" />
    <glyph glyph-name="foursuperior" unicode="&#x2074;" horiz-adv-x="353" 
d="M288 349h-46l16 111h-210l5 34l239 295h60l-43 -289h55l-5 -40h-55zM103 500h162l36 241z" />
    <glyph glyph-name="fivesuperior" unicode="&#x2075;" horiz-adv-x="363" 
d="M346 747h-174l-38 -153q45 34 96 34q46 0 77.5 -29t31.5 -88q0 -76 -44 -122.5t-122 -46.5q-51 0 -85.5 27t-37.5 76l42 12q2 -29 22.5 -52t63.5 -23q48 0 81.5 31t33.5 98q0 39 -19.5 58.5t-52.5 19.5q-50 0 -98 -37l-31 14l49 223h211z" />
    <glyph glyph-name="sixsuperior" unicode="&#x2076;" horiz-adv-x="371" 
d="M376 699l-39 -10q-8 69 -66 69q-62 0 -97 -54.5t-45 -138.5q17 18 52 34t69 16q51 0 78 -28.5t27 -76.5q0 -77 -43 -123t-114 -46q-65 0 -92 42t-27 124q0 29 4.5 62.5t18.5 75t35 74t57.5 55t82.5 22.5q44 0 70.5 -24.5t28.5 -72.5zM126 525q-2 -13 -2 -41
q0 -107 78 -107q45 0 76.5 34t31.5 94q0 35 -18 53.5t-51 18.5q-61 0 -115 -52z" />
    <glyph glyph-name="sevensuperior" unicode="&#x2077;" horiz-adv-x="324" 
d="M102 349h-51l243 398h-230l7 42h282l-7 -38z" />
    <glyph glyph-name="eightsuperior" unicode="&#x2078;" horiz-adv-x="336" 
d="M244 576q28 -13 43 -22.5t29 -30t14 -48.5q0 -58 -44 -95.5t-117 -37.5q-62 0 -94.5 28t-32.5 72q0 90 118 134q-69 34 -69 94q0 59 42.5 93t107.5 34q54 0 83 -23.5t29 -65.5q0 -83 -109 -132zM197 556q-58 -20 -83.5 -44.5t-25.5 -63.5q0 -32 22 -50t64 -18
q54 0 83.5 27t29.5 62q0 55 -90 87zM206 593q44 19 73 48.5t29 62.5q0 55 -74 55q-44 0 -72.5 -22.5t-28.5 -57.5q0 -56 73 -86z" />
    <glyph glyph-name="ninesuperior" unicode="&#x2079;" horiz-adv-x="377" 
d="M52 442l41 11q9 -71 78 -71q62 0 98 53t43 133q-19 -20 -55.5 -36t-70.5 -16q-52 0 -78 31t-26 81q0 77 44 123t115 46q120 0 120 -158q0 -136 -49.5 -216.5t-145.5 -80.5q-47 0 -77.5 26t-36.5 74zM312 610q3 21 3 41q0 108 -77 108q-46 0 -78 -32.5t-32 -92.5
q0 -78 66 -78q29 0 62.5 16t55.5 38z" />
    <glyph glyph-name="plussuperior" unicode="&#x207a;" horiz-adv-x="366" 
d="M221 449h-47l13 95h-93l5 43h95l13 93h47l-14 -93h94l-7 -43h-93z" />
    <glyph glyph-name="minussuperior" unicode="&#x207b;" horiz-adv-x="366" 
d="M320 548h-233l6 44h234z" />
    <glyph glyph-name="equalsuperior" unicode="&#x207c;" horiz-adv-x="366" 
d="M319 478h-230l7 46h230zM334 573h-232l6 46h232z" />
    <glyph glyph-name="parenleftsuperior" unicode="&#x207d;" horiz-adv-x="216" 
d="M180 276h-46q-56 101 -56 215q0 153 137 317h50q-71 -89 -104.5 -161.5t-33.5 -156.5q0 -103 53 -214z" />
    <glyph glyph-name="parenrightsuperior" unicode="&#x207e;" horiz-adv-x="216" 
d="M101 808h47q55 -102 55 -215q0 -155 -137 -317h-50q71 89 105 162t34 156q0 101 -54 214z" />
    <glyph glyph-name="zeroinferior" unicode="&#x2080;" horiz-adv-x="382" 
d="M124 -154q-121 0 -121 158q0 48 7.5 93.5t26 94.5t58 79t95.5 30q63 0 90 -40.5t27 -116.5q0 -36 -3 -70t-15 -77.5t-30.5 -75t-53.5 -53.5t-81 -22zM126 -111q134 0 134 268q0 103 -74 103q-43 0 -72.5 -28t-42 -75t-16.5 -84t-4 -77q0 -22 2 -37.5t9 -33t23 -27
t41 -9.5z" />
    <glyph glyph-name="oneinferior" unicode="&#x2081;" horiz-adv-x="279" 
d="M118 -147h-46l54 372q-16 -8 -49 -14t-51 -6v37q87 7 132 51h23z" />
    <glyph glyph-name="twoinferior" unicode="&#x2082;" horiz-adv-x="344" 
d="M227 -147h-255l5 38l126 126q76 78 100 111.5t24 71.5q0 62 -69 62q-74 0 -100 -79l-39 8q27 110 144 110q50 0 79 -24.5t29 -74.5q0 -47 -25.5 -85.5t-86.5 -97.5l-130 -126h205z" />
    <glyph glyph-name="threeinferior" unicode="&#x2083;" horiz-adv-x="369" 
d="M175 301q52 0 80.5 -25t28.5 -69q0 -86 -107 -120v-2q84 -17 84 -97q0 -63 -42.5 -102.5t-109.5 -39.5q-56 0 -88.5 26.5t-35.5 76.5l42 7q10 -72 83 -72q41 0 73.5 27t32.5 79q0 76 -95 76h-38l6 38h28q54 0 88 27t34 69q0 62 -68 62q-39 0 -60.5 -16.5t-36.5 -50.5
l-41 9q15 48 53 72.5t89 24.5z" />
    <glyph glyph-name="fourinferior" unicode="&#x2084;" horiz-adv-x="353" 
d="M219 -147h-46l16 111h-210l5 34l239 295h60l-43 -289h55l-5 -40h-55zM34 4h162l36 241z" />
    <glyph glyph-name="fiveinferior" unicode="&#x2085;" horiz-adv-x="363" 
d="M277 251h-174l-38 -153q45 34 96 34q46 0 77.5 -29t31.5 -88q0 -76 -44 -122.5t-122 -46.5q-51 0 -85.5 27t-37.5 76l42 12q2 -29 22.5 -52t63.5 -23q48 0 81.5 31t33.5 98q0 39 -19.5 58.5t-52.5 19.5q-50 0 -98 -37l-31 14l49 223h211z" />
    <glyph glyph-name="sixinferior" unicode="&#x2086;" horiz-adv-x="371" 
d="M307 203l-39 -10q-8 69 -66 69q-62 0 -97 -54.5t-45 -138.5q17 18 52 34t69 16q51 0 78 -28.5t27 -76.5q0 -77 -43 -123t-114 -46q-65 0 -92 42t-27 124q0 29 4.5 62.5t18.5 75t35 74t57.5 55t82.5 22.5q44 0 70.5 -24.5t28.5 -72.5zM57 29q-2 -13 -2 -41q0 -107 78 -107
q45 0 76.5 34t31.5 94q0 35 -18 53.5t-51 18.5q-61 0 -115 -52z" />
    <glyph glyph-name="seveninferior" unicode="&#x2087;" horiz-adv-x="324" 
d="M33 -147h-51l243 398h-230l7 42h282l-7 -38z" />
    <glyph glyph-name="eightinferior" unicode="&#x2088;" horiz-adv-x="336" 
d="M175 80q28 -13 43 -22.5t29 -30t14 -48.5q0 -58 -44 -95.5t-117 -37.5q-62 0 -94.5 28t-32.5 72q0 90 118 134q-69 34 -69 94q0 59 42.5 93t107.5 34q54 0 83 -23.5t29 -65.5q0 -83 -109 -132zM128 60q-58 -20 -83.5 -44.5t-25.5 -63.5q0 -32 22 -50t64 -18q54 0 83.5 27
t29.5 62q0 55 -90 87zM137 97q44 19 73 48.5t29 62.5q0 55 -74 55q-44 0 -72.5 -22.5t-28.5 -57.5q0 -56 73 -86z" />
    <glyph glyph-name="nineinferior" unicode="&#x2089;" horiz-adv-x="377" 
d="M-17 -54l41 11q9 -71 78 -71q62 0 98 53t43 133q-19 -20 -55.5 -36t-70.5 -16q-52 0 -78 31t-26 81q0 77 44 123t115 46q120 0 120 -158q0 -136 -49.5 -216.5t-145.5 -80.5q-47 0 -77.5 26t-36.5 74zM243 114q3 21 3 41q0 108 -77 108q-46 0 -78 -32.5t-32 -92.5
q0 -78 66 -78q29 0 62.5 16t55.5 38z" />
    <glyph glyph-name="parenleftinferior" unicode="&#x208d;" horiz-adv-x="216" 
d="M111 -220h-46q-56 101 -56 215q0 153 137 317h50q-71 -89 -104.5 -161.5t-33.5 -156.5q0 -103 53 -214z" />
    <glyph glyph-name="parenrightinferior" unicode="&#x208e;" horiz-adv-x="216" 
d="M33 312h47q55 -102 55 -215q0 -155 -137 -317h-50q71 89 105 162t34 156q0 101 -54 214z" />
    <glyph glyph-name="Euro" unicode="&#x20ac;" horiz-adv-x="645" 
d="M67 455h61q35 126 116 204.5t204 78.5q188 0 175 -203l-44 -4q2 87 -28.5 127t-109.5 40q-82 0 -156.5 -62t-109.5 -181h237l-12 -40h-234q-11 -52 -13 -117h217l-12 -40h-205q3 -114 47.5 -171.5t137.5 -57.5q80 0 125 43.5t65 103.5l39 -12q-26 -87 -88 -131.5
t-147 -44.5q-216 0 -226 270h-81l11 40h70q2 61 13 117h-62z" />
    <glyph glyph-name="afii61352" unicode="&#x2116;" horiz-adv-x="1013" 
d="M789 389q-68 0 -101 35.5t-33 97.5q0 92 49 149.5t129 57.5q137 0 137 -137q0 -92 -50.5 -147.5t-130.5 -55.5zM792 430q57 0 93.5 42.5t36.5 123.5q0 91 -90 91q-57 0 -93.5 -41t-36.5 -120q0 -96 90 -96zM642 289l8 47h273l-8 -47h-273zM496 -2h-63l-218 684l-96 -684
h-43l102 726h72l209 -673l95 673h44z" />
    <glyph glyph-name="trademark" unicode="&#x2122;" horiz-adv-x="815" 
d="M785 348h-42v291l-120 -291h-35l-117 292v-292h-44v376h56l124 -307l128 307h50v-376zM232 683v-335h-46v335h-136v41h319v-41h-137z" />
    <glyph glyph-name="Omega" unicode="&#x2126;" horiz-adv-x="744" 
d="M438 694q-80 0 -143 -30.5t-99 -80t-54.5 -105.5t-18.5 -113q0 -93 46.5 -154t122.5 -82l-18 -129h-234l6 42h188l7 58q-82 35 -124 100.5t-42 152.5q0 162 98 273t273 111q121 0 197 -71.5t76 -213.5q0 -46 -15 -97t-45 -101t-81 -91.5t-115 -61.5l-7 -59h197l-5 -42
h-244l17 129q103 18 176.5 111.5t73.5 210.5q0 113 -58.5 178t-174.5 65z" />
    <glyph glyph-name="onethird" unicode="&#x2153;" horiz-adv-x="821" 
d="M138 279h-46l54 372q-16 -8 -49 -14t-51 -6v37q87 7 132 51h23zM141 -12h-49l461 736h48zM642 448q52 0 80.5 -25t28.5 -69q0 -86 -107 -120v-2q84 -17 84 -97q0 -63 -42.5 -102.5t-109.5 -39.5q-56 0 -88.5 26.5t-35.5 76.5l42 7q10 -72 83 -72q41 0 73.5 27t32.5 79
q0 76 -95 76h-38l6 38h28q54 0 88 27t34 69q0 62 -68 62q-39 0 -60.5 -16.5t-36.5 -50.5l-41 9q15 48 53 72.5t89 24.5z" />
    <glyph glyph-name="twothirds" unicode="&#x2154;" horiz-adv-x="821" 
d="M224 -12h-49l461 736h48zM703 448q52 0 80.5 -25t28.5 -69q0 -86 -107 -120v-2q84 -17 84 -97q0 -63 -42.5 -102.5t-109.5 -39.5q-56 0 -88.5 26.5t-35.5 76.5l42 7q10 -72 83 -72q41 0 73.5 27t32.5 79q0 76 -95 76h-38l6 38h28q54 0 88 27t34 69q0 62 -68 62
q-39 0 -60.5 -16.5t-36.5 -50.5l-41 9q15 48 53 72.5t89 24.5zM257 281h-255l5 38l126 126q76 78 100 111.5t24 71.5q0 62 -69 62q-74 0 -100 -79l-39 8q27 110 144 110q50 0 79 -24.5t29 -74.5q0 -47 -25.5 -85.5t-86.5 -97.5l-130 -126h205z" />
    <glyph glyph-name="arrow.left" unicode="&#x2190;" 
d="M521 298l-7 -42h-386l48 -127h-42l-64 149l104 145h49l-84 -125h382z" />
    <glyph glyph-name="arrow.up" unicode="&#x2191;" 
d="M273 51h-46l54 387l-136 -61l6 43l160 80l135 -84l-7 -37l-113 60z" />
    <glyph glyph-name="arrow.right" unicode="&#x2192;" 
d="M47 254l7 42h386l-48 127h42l64 -149l-104 -145h-49l84 125h-382z" />
    <glyph glyph-name="arrow.down" unicode="&#x2193;" 
d="M296 500h46l-54 -387l134 61l-6 -43l-160 -80l-135 84l7 37l115 -60z" />
    <glyph glyph-name="arrow.leftup" unicode="&#x2196;" 
d="M475 133l-33 -28l-270 275l-49 -130l-31 23l51 163l160 42l30 -28l-130 -41z" />
    <glyph glyph-name="arrow.rightup" unicode="&#x2197;" 
d="M124 105l-33 28l272 276l-130 41l30 28l160 -42l52 -162l-32 -24l-49 130z" />
    <glyph glyph-name="arrowleft.down" unicode="&#x2198;" 
d="M452 478l33 -28l-272 -276l130 -41l-30 -28l-160 42l-51 163l31 23l49 -130z" />
    <glyph glyph-name="arrowright.down" unicode="&#x2199;" 
d="M108 450l33 28l270 -275l49 130l31 -23l-51 -163l-160 -42l-30 28l130 41z" />
    <glyph glyph-name="arrowleft.alt" unicode="&#x21d0;" 
d="M270 372l240 25l-34 -247l-234 21l-17 -116l-187 218l248 214z" />
    <glyph glyph-name="arrowup.alt" unicode="&#x21d1;" 
d="M395 291l-8 -237h-247l54 237h-116l249 218l183 -218h-115z" />
    <glyph glyph-name="arrowright.alt" unicode="&#x21d2;" 
d="M100 397l234 -25l16 115l188 -214l-249 -218l17 116l-240 -21z" />
    <glyph glyph-name="arrowdown.alt" unicode="&#x21d3;" 
d="M449 496l-58 -237h115l-245 -218l-187 218h116l12 237h247z" />
    <glyph glyph-name="arrowleftup.alt" unicode="&#x21d6;" 
d="M324 357l185 -150l-175 -175l-152 183l-82 -83v309l305 -3z" />
    <glyph glyph-name="arrowrightup.alt" unicode="&#x21d7;" 
d="M385 217l-150 -185l-175 175l183 152l-83 82h309l-3 -305z" />
    <glyph glyph-name="arrowleftdown.alt" unicode="&#x21d8;" 
d="M184 355l150 185l175 -175l-183 -152l83 -82h-309l3 305z" />
    <glyph glyph-name="arrowrightdown.alt" unicode="&#x21d9;" 
d="M255 215l-185 150l175 175l152 -183l82 83v-309l-305 3z" />
    <glyph glyph-name="partialdiff" unicode="&#x2202;" horiz-adv-x="546" 
d="M255 369q-87 0 -131 -64t-44 -141q0 -132 109 -132q52 0 94 24t68.5 63.5t42.5 77.5t26 78q-24 34 -67.5 64t-97.5 30zM330 629q-75 0 -168 -54l-18 37q100 59 190 59q45 0 76.5 -18.5t48.5 -50.5t24.5 -68.5t7.5 -79.5q0 -26 -4 -63t-14.5 -93t-32.5 -108t-53.5 -98.5
t-83.5 -75t-117 -28.5q-78 0 -117.5 48.5t-39.5 121.5q0 108 64 180.5t170 72.5q97 0 169 -89q14 74 14 134q0 173 -116 173z" />
    <glyph glyph-name="Delta" unicode="&#x2206;" horiz-adv-x="606" 
d="M323 724h72l142 -680v-44h-538v43zM487 42l-132 645h-2l-307 -645h441z" />
    <glyph glyph-name="product" unicode="&#x220f;" horiz-adv-x="760" 
d="M675 724l-124 -885h-48l119 845h-393l-119 -845h-48l124 885h489z" />
    <glyph glyph-name="summation" unicode="&#x2211;" horiz-adv-x="626" 
d="M317 278l-295 -411h480l-6 -43h-536l5 36l301 425l-163 404l5 35h512l-5 -40h-459z" />
    <glyph glyph-name="minus" unicode="&#x2212;" horiz-adv-x="569" 
d="M466 295h-370l7 45h370z" />
    <glyph glyph-name="uni2215" unicode="&#x2215;" horiz-adv-x="123" 
d="M-150 -12h-49l461 736h48z" />
    <glyph glyph-name="uni2219" unicode="&#x2219;" horiz-adv-x="292" 
d="M262 317q0 -33 -17.5 -51t-49.5 -18q-50 0 -50 48q0 33 18 50.5t49 17.5q50 0 50 -47z" />
    <glyph glyph-name="radical" unicode="&#x221a;" horiz-adv-x="565" 
d="M284 0h-46l-108 260l-83 -33l-14 37l123 52l105 -254l278 680l43 -11z" />
    <glyph glyph-name="infinity" unicode="&#x221e;" horiz-adv-x="670" 
d="M339 283q-25 -27 -41 -41.5t-51 -33t-70 -18.5q-50 0 -87 34t-37 97q0 57 36.5 93.5t94.5 36.5q20 0 41 -7t32.5 -12.5t33 -25l25.5 -23t27 -27.5q3 3 11 12l11.5 13t11.5 12.5t13 13t14 11.5t15.5 11t16 9t18 7t18.5 4t21 2q55 0 91 -33.5t36 -100.5q0 -53 -36.5 -90
t-89.5 -37q-16 0 -31 2.5t-29 10t-22.5 11.5t-22.5 17t-17.5 16t-17.5 19zM309 323q-71 82 -125 82q-36 0 -58 -20.5t-22 -60.5q0 -88 79 -88q13 0 27 5t24.5 11t23.5 17.5t19.5 18.5l18 20t13.5 15zM371 321q2 -2 16.5 -18t19 -20.5t17.5 -16.5t21.5 -16t21 -8.5t24.5 -4.5
q33 0 55.5 23.5t22.5 59.5q0 37 -18.5 61t-55.5 24q-22 0 -46.5 -14t-38.5 -28.5z" />
    <glyph glyph-name="integral" unicode="&#x222b;" horiz-adv-x="411" 
d="M58 -172l-6 47q44 -22 90 -22q33 0 52.5 17.5t16.5 54.5l-54 670q-6 67 29 99.5t94 32.5q42 0 82 -18l5 -50q-43 24 -90 24q-33 0 -52.5 -18t-17.5 -54l55 -668q6 -68 -28 -100t-94 -32q-45 0 -82 17z" />
    <glyph glyph-name="approxequal" unicode="&#x2248;" 
d="M157 314q33 0 121 -24t108 -24q23 0 33.5 11.5t10.5 46.5l39 -2q7 -56 -17 -78.5t-62 -22.5q-30 0 -119.5 24.5t-112.5 24.5q-40 0 -39 -60l-37 1q-7 55 17 79t58 24zM175 495q33 0 121 -24t108 -24q23 0 33.5 11.5t10.5 46.5l39 -2q7 -56 -17 -78.5t-62 -22.5
q-30 0 -119.5 24.5t-112.5 24.5q-40 0 -39 -60l-37 1q-7 55 17 79t58 24z" />
    <glyph glyph-name="notequal" unicode="&#x2260;" 
d="M453 193h-204l-75 -113h-53l76 113h-109l8 45h131l66 97h-182l7 45h205l69 104h50l-69 -104h110l-7 -45h-133l-65 -97h183z" />
    <glyph glyph-name="lessequal" unicode="&#x2264;" horiz-adv-x="569" 
d="M437 99l-347 151l9 52l397 164l-8 -50l-342 -141l299 -132zM423 0h-370l6 43h370z" />
    <glyph glyph-name="greaterequal" unicode="&#x2265;" horiz-adv-x="569" 
d="M461 245l-395 -151l8 49l343 133l-300 140l8 43l345 -164zM422 0h-370l6 43h370z" />
    <glyph glyph-name="triangle" unicode="&#x25b3;" horiz-adv-x="425" 
d="M335 320l-185 -117v231z" />
    <glyph glyph-name="lozenge" unicode="&#x25ca;" 
d="M310 -17h-50l-157 324l157 324h50l157 -324zM285 35l126 272l-126 273l-126 -273z" />
    <glyph glyph-name="circle" unicode="&#x25cb;" horiz-adv-x="610" 
d="M305 119q-85 0 -145 60t-60 145t60 145t145 60t145 -60t60 -145t-60 -145t-145 -60z" />
    <glyph glyph-name="a.sc" unicode="&#xf605;" horiz-adv-x="495" 
d="M252 548h65l109 -548h-49l-35 178h-216l-84 -178h-49zM335 221l-55 289l-135 -289h190z" />
    <glyph glyph-name="b.sc" unicode="&#xf606;" horiz-adv-x="481" 
d="M201 0h-155l76 548h174q144 0 144 -114q0 -64 -36.5 -100.5t-94.5 -48.5v-1q111 -16 111 -116q0 -168 -219 -168zM97 41h108q39 0 67 4.5t52 17.5t36.5 39t12.5 65q0 30 -12.5 49t-37 28.5t-51 12.5t-63.5 3h-82zM133 301h94q28 0 54 5.5t52 18.5t41.5 40t15.5 65
q0 49 -33.5 63t-117.5 14h-78z" />
    <glyph glyph-name="c.sc" unicode="&#xf607;" horiz-adv-x="525" 
d="M421 153l42 -10q-48 -155 -223 -155q-102 0 -151.5 59.5t-49.5 161.5q0 162 81 255.5t207 93.5q85 0 131 -48t42 -137l-44 -5q2 148 -134 148q-106 0 -170 -79.5t-64 -220.5q0 -187 159 -187q68 0 109 29.5t65 94.5z" />
    <glyph glyph-name="d.sc" unicode="&#xf608;" horiz-adv-x="558" 
d="M187 0h-141l76 548h155q118 0 175 -58t57 -162q0 -149 -80.5 -238.5t-241.5 -89.5zM97 41h96q127 0 197 75t70 215q0 95 -49 135.5t-143 40.5h-106z" />
    <glyph glyph-name="e.sc" unicode="&#xf609;" horiz-adv-x="438" 
d="M354 0h-308l76 548h301l-5 -41h-256l-29 -209h239l-6 -42h-238l-30 -216h262z" />
    <glyph glyph-name="f.sc" unicode="&#xf60a;" horiz-adv-x="418" 
d="M127 250l-36 -250h-45l76 548h300l-3 -41h-257l-30 -217h236l-3 -40h-238z" />
    <glyph glyph-name="g.sc" unicode="&#xf60b;" horiz-adv-x="553" 
d="M486 283l-39 -283h-35l3 74q-19 -35 -70.5 -60.5t-110.5 -25.5q-98 0 -146.5 60.5t-48.5 165.5q0 161 80.5 252.5t209.5 91.5q85 0 130.5 -44.5t40.5 -134.5l-44 -4q3 76 -30 109t-101 33q-108 0 -173 -80.5t-65 -220.5q0 -188 159 -188q76 0 126 46.5t58 109.5l8 60
h-162l6 39h204z" />
    <glyph glyph-name="h.sc" unicode="&#xf60c;" horiz-adv-x="552" 
d="M501 548l-76 -548h-47l36 263h-288l-36 -263h-45l76 548h45l-34 -245h287l35 245h47z" />
    <glyph glyph-name="i.sc" unicode="&#xf60d;" horiz-adv-x="218" 
d="M91 0h-45l76 548h45z" />
    <glyph glyph-name="j.sc" unicode="&#xf60e;" horiz-adv-x="383" 
d="M234 125l58 423h47l-58 -425q-18 -135 -149 -135q-117 0 -127 122l42 8q6 -43 24 -66.5t64 -23.5q42 0 66.5 21t32.5 76z" />
    <glyph glyph-name="k.sc" unicode="&#xf60f;" horiz-adv-x="476" 
d="M168 548l-39 -278l292 278h59l-252 -239l192 -309h-55l-172 274l-72 -65l-29 -209h-46l76 548h46z" />
    <glyph glyph-name="l.sc" unicode="&#xf610;" horiz-adv-x="417" 
d="M339 0h-293l76 548h45l-70 -508h248z" />
    <glyph glyph-name="m.sc" unicode="&#xf611;" horiz-adv-x="674" 
d="M622 548l-74 -548h-46l70 498h-2l-246 -498h-57l-105 496h-3l-70 -496h-43l76 548h72l107 -508h1l247 508h73z" />
    <glyph glyph-name="n.sc" unicode="&#xf612;" horiz-adv-x="566" 
d="M440 0h-60l-219 502l-71 -502h-44l76 548h67l215 -492l68 492h44z" />
    <glyph glyph-name="o.sc" unicode="&#xf613;" horiz-adv-x="583" 
d="M250 -12q-106 0 -158.5 63.5t-52.5 173.5q0 147 76 240t212 93q102 0 154 -61t52 -160q0 -162 -76 -255.5t-207 -93.5zM254 31q100 0 164 78t64 220q0 87 -39.5 137t-121.5 50q-101 0 -167 -76.5t-66 -214.5q0 -90 40 -142t126 -52z" />
    <glyph glyph-name="p.sc" unicode="&#xf614;" horiz-adv-x="470" 
d="M120 209l-28 -209h-46l76 548h149q84 0 127.5 -38.5t43.5 -101.5q0 -99 -60.5 -149t-168.5 -50h-93zM127 254h91q84 0 132 33t48 116q0 58 -38 81t-110 23h-89z" />
    <glyph glyph-name="q.sc" unicode="&#xf615;" horiz-adv-x="577" 
d="M247 -12q-106 0 -158.5 63.5t-52.5 173.5q0 147 76 240t212 93q102 0 154 -61t52 -160q0 -125 -46.5 -210.5t-129.5 -119.5q59 -73 153 -89l-11 -39q-51 6 -106.5 41.5t-80.5 73.5q-30 -6 -62 -6zM251 31q100 0 164 78t64 220q0 87 -39.5 137t-121.5 50
q-101 0 -167 -76.5t-66 -214.5q0 -90 40 -142t126 -52z" />
    <glyph glyph-name="r.sc" unicode="&#xf616;" horiz-adv-x="493" 
d="M315 249l101 -249h-50l-97 239h-145l-32 -239h-46l76 548h159q166 0 166 -129q0 -123 -132 -170zM129 279h102q169 0 169 142q0 49 -33.5 67.5t-97.5 18.5h-108z" />
    <glyph glyph-name="s.sc" unicode="&#xf617;" horiz-adv-x="442" 
d="M412 404l-46 -6q2 117 -107 117q-71 0 -106.5 -31.5t-35.5 -78.5q0 -25 9.5 -43t33 -31.5t39 -19t52.5 -17.5q61 -20 95.5 -49t34.5 -86q0 -83 -58 -125.5t-143 -42.5q-166 0 -173 153l45 7q6 -55 33.5 -86t96.5 -31q62 0 105.5 27.5t43.5 92.5q0 31 -17 52t-37 30.5
t-55 20.5q-32 9 -45 13.5t-39.5 16.5t-38 25t-22 35.5t-10.5 51.5q0 72 54.5 115.5t137.5 43.5q73 0 114.5 -37.5t38.5 -116.5z" />
    <glyph glyph-name="t.sc" unicode="&#xf618;" horiz-adv-x="411" 
d="M187 0h-45l70 508h-164l5 40h375l-6 -40h-164z" />
    <glyph glyph-name="u.sc" unicode="&#xf619;" horiz-adv-x="548" 
d="M498 548l-51 -374q-25 -186 -212 -186q-194 0 -168 185l51 375h46l-50 -371q-11 -79 19.5 -113t100.5 -34q73 0 115 33.5t53 112.5l51 372h45z" />
    <glyph glyph-name="v.sc" unicode="&#xf61a;" horiz-adv-x="459" 
d="M222 0h-64l-109 548h50l95 -508h1l228 508h48z" />
    <glyph glyph-name="w.sc" unicode="&#xf61b;" horiz-adv-x="666" 
d="M478 0h-60l-59 488h-1l-196 -488h-55l-43 548h48l31 -490l197 490h55l60 -497l165 497h46z" />
    <glyph glyph-name="x.sc" unicode="&#xf61c;" horiz-adv-x="468" 
d="M404 0h-51l-130 250l-187 -250h-54l214 287l-130 261h51l113 -233l181 233h52l-207 -270z" />
    <glyph glyph-name="y.sc" unicode="&#xf61d;" horiz-adv-x="414" 
d="M221 218l-31 -218h-45l29 215l-136 333h49l115 -288h1l191 288h49z" />
    <glyph glyph-name="z.sc" unicode="&#xf61e;" horiz-adv-x="440" 
d="M368 0h-371l4 33l366 475h-292l6 40h351l-5 -35l-368 -473h315z" />
    <glyph glyph-name="ae.sc" unicode="&#xf61f;" horiz-adv-x="764" 
d="M677 0h-308l36 251h-176l-182 -251h-53l399 548h356l-5 -41h-255l-31 -213h238l-6 -42h-237l-31 -212h262zM411 293l31 214h-31l-155 -214h155z" />
    <glyph glyph-name="oe.sc" unicode="&#xf621;" horiz-adv-x="852" 
d="M765 0h-308l12 94q-82 -106 -216 -106q-106 0 -160 65.5t-54 171.5q0 147 80.5 240t219.5 93q66 0 113 -32t68 -83l14 105h302l-6 -41h-258l-29 -209h240l-5 -42h-242l-31 -216h266zM256 30q105 0 174 79t69 216q0 90 -45.5 140.5t-122.5 50.5q-105 0 -173 -77.5
t-68 -211.5q0 -92 44.5 -144.5t121.5 -52.5z" />
    <glyph glyph-name="germandbls.sc" unicode="&#xf637;" horiz-adv-x="892" 
d="M412 404l-46 -6q2 117 -107 117q-71 0 -106.5 -31.5t-35.5 -78.5q0 -25 9.5 -43t33 -31.5t39 -19t52.5 -17.5q61 -20 95.5 -49t34.5 -86q0 -83 -58 -125.5t-143 -42.5q-166 0 -173 153l45 7q6 -55 33.5 -86t96.5 -31q62 0 105.5 27.5t43.5 92.5q0 31 -17 52t-37 30.5
t-55 20.5q-32 9 -45 13.5t-39.5 16.5t-38 25t-22 35.5t-10.5 51.5q0 72 54.5 115.5t137.5 43.5q73 0 114.5 -37.5t38.5 -116.5zM862 404l-46 -6q2 117 -107 117q-71 0 -106.5 -31.5t-35.5 -78.5q0 -25 9.5 -43t33 -31.5t39 -19t52.5 -17.5q61 -20 95.5 -49t34.5 -86
q0 -83 -58 -125.5t-143 -42.5q-166 0 -173 153l45 7q6 -55 33.5 -86t96.5 -31q62 0 105.5 27.5t43.5 92.5q0 31 -17 52t-37 30.5t-55 20.5q-32 9 -45 13.5t-39.5 16.5t-38 25t-22 35.5t-10.5 51.5q0 72 54.5 115.5t137.5 43.5q73 0 114.5 -37.5t38.5 -116.5z" />
    <glyph glyph-name="dollar.sc" unicode="&#xf639;" horiz-adv-x="465" 
d="M377 394q-9 101 -94 112l-31 -220q32 -10 50.5 -18.5t41 -23t33 -36.5t10.5 -52q0 -66 -45 -108t-131 -48l-9 -73h-35l9 73q-153 12 -162 146l41 9q7 -54 34 -84t91 -33l30 219q-32 10 -51.5 19t-41.5 24.5t-33 39.5t-11 56q0 70 48.5 109t130.5 41l9 66h36l-9 -68
q126 -20 130 -141zM117 399q0 -40 25.5 -62t73.5 -39l29 210q-128 -6 -128 -109zM344 153q0 37 -25 57t-73 36l-29 -208q127 10 127 115z" />
    <glyph glyph-name="cent.sc" unicode="&#xf63a;" horiz-adv-x="435" 
d="M249 568h37l-12 -84q60 -5 91.5 -48t23.5 -106l-39 -3q5 109 -81 120l-51 -349q84 7 109 92l37 -8q-32 -113 -149 -122l-9 -60h-37l9 58q-135 23 -135 178q0 113 53 177t141 71zM87 235q0 -126 94 -138l51 350q-62 -6 -103.5 -55.5t-41.5 -156.5z" />
    <glyph glyph-name="sterling.sc" unicode="&#xf63b;" horiz-adv-x="476" 
d="M-6 40h44q45 39 68 73t23 72q0 29 -11 60h-98l6 38h78q-23 53 -23 98q0 80 55 129t148 49q76 0 116.5 -43.5t37.5 -122.5l-41 -4q0 62 -26 96.5t-93 34.5q-69 0 -111 -35.5t-42 -99.5q0 -21 3 -37t11.5 -39t9.5 -26h210l-7 -38h-191q12 -30 12 -61q0 -65 -80 -144h160
q63 0 93.5 22.5t41.5 78.5l41 -8q-6 -42 -25 -70t-48 -41t-57 -17.5t-64 -4.5h-248z" />
    <glyph glyph-name="yen.sc" unicode="&#xf63c;" horiz-adv-x="420" 
d="M334 151h-122l-23 -151h-46l23 151h-126l7 40h126l10 66h-126l7 40h101l-110 251h51l106 -254h1l172 254h53l-176 -251h96l-7 -40h-122l-10 -66h122z" />
    <glyph glyph-name="florin.sc" unicode="&#xf63d;" horiz-adv-x="413" 
d="M398 484l-39 -17q-11 27 -24.5 41t-36.5 14q-57 0 -70 -77l-18 -107h113l-8 -39h-112l-51 -263q-11 -57 -39 -83t-77 -26q-76 0 -102 73l39 17q22 -52 65 -52q27 0 45 16.5t26 58.5l48 259h-59l8 39h59l19 108q21 112 116 112q70 0 98 -74z" />
    <glyph glyph-name="ordfeminine.sc" unicode="&#xf640;" horiz-adv-x="364" 
d="M349 579l-39 -270q-3 -28 16 -28q10 0 22 4l-5 -31q-11 -4 -29 -4q-48 0 -44 45q-48 -50 -120 -50q-49 0 -77.5 30.5t-28.5 94.5q0 86 40 150.5t124 64.5q47 0 96 -36l5 30h40zM271 340l25 171q-38 36 -92 36q-60 0 -88.5 -54t-28.5 -118q0 -93 71 -93q58 0 113 58z" />
    <glyph glyph-name="ordmasculine.sc" unicode="&#xf641;" horiz-adv-x="387" 
d="M175 245q-129 0 -129 141q0 81 46.5 140t133.5 59q64 0 95.5 -37t31.5 -102q0 -83 -45 -142t-133 -59zM180 285q64 0 96 46.5t32 116.5q0 98 -87 98q-64 0 -97 -46.5t-33 -118.5q0 -96 89 -96z" />
    <glyph glyph-name="questiondown.sc" unicode="&#xf642;" horiz-adv-x="385" 
d="M162 -12q-64 0 -104.5 35t-40.5 100q0 167 204 185l14 100h39l-19 -134q-42 -3 -72 -10t-59 -21.5t-44 -43t-15 -69.5q0 -53 27.5 -77.5t72.5 -24.5q98 0 126 93l41 -8q-33 -125 -170 -125zM222 504q0 50 51 50q39 0 39 -35q0 -50 -50 -50q-40 0 -40 35z" />
    <glyph glyph-name="exclamdown.sc" unicode="&#xf643;" horiz-adv-x="209" 
d="M109 412h32l-46 -412h-57zM95 509q0 50 51 50q38 0 38 -35q0 -50 -51 -50q-38 0 -38 35z" />
    <glyph glyph-name="percent.sc" unicode="&#xf69e;" horiz-adv-x="708" 
d="M504 -12q-54 0 -81 32t-27 81q0 76 39 126.5t108 50.5q105 0 105 -115q0 -78 -37 -126.5t-107 -48.5zM507 27q95 0 95 133q0 33 -15 55t-48 22q-51 0 -74 -39t-23 -93q0 -78 65 -78zM153 204q-54 0 -81 32t-27 81q0 76 39 126.5t108 50.5q105 0 105 -115
q0 -78 -37 -126.5t-107 -48.5zM191 -14h-53l371 513h52zM156 243q95 0 95 133q0 33 -15 55t-48 22q-51 0 -74 -39t-23 -93q0 -78 65 -78z" />
    <glyph glyph-name="perthousand.sc" unicode="&#xf69f;" horiz-adv-x="1002" 
d="M803 -12q-54 0 -81 32t-27 81q0 76 39 126.5t108 50.5q105 0 105 -115q0 -78 -37 -126.5t-107 -48.5zM806 27q95 0 95 133q0 33 -15 55t-48 22q-51 0 -74 -39t-23 -93q0 -78 65 -78zM512 -12q-54 0 -81 32t-27 81q0 76 39 126.5t108 50.5q105 0 105 -115
q0 -78 -37 -126.5t-107 -48.5zM515 27q95 0 95 133q0 33 -15 55t-48 22q-51 0 -74 -39t-23 -93q0 -78 65 -78zM161 204q-54 0 -81 32t-27 81q0 76 39 126.5t108 50.5q105 0 105 -115q0 -78 -37 -126.5t-107 -48.5zM199 -14h-53l371 513h52zM164 243q95 0 95 133q0 33 -15 55
t-48 22q-51 0 -74 -39t-23 -93q0 -78 65 -78z" />
    <glyph glyph-name="asterisk.sc" unicode="&#xf6a9;" horiz-adv-x="396" 
d="M249 631l-2 -146l139 32l5 -22l-137 -63l67 -130l-21 -14l-94 102l-128 -104l-17 15l102 132l-122 61l12 22l132 -31l43 146h21z" />
    <glyph glyph-name="quoteleft.sc" unicode="&#xf6aa;" horiz-adv-x="176" 
d="M185 593l-81 -201h-65l106 208z" />
    <glyph glyph-name="quoteright.sc" unicode="&#xf6ab;" horiz-adv-x="176" 
d="M45 389l81 201h65l-106 -208z" />
    <glyph glyph-name="quotedblleft.sc" unicode="&#xf6ac;" horiz-adv-x="310" 
d="M319 593l-81 -201h-65l106 208zM185 593l-81 -201h-65l106 208z" />
    <glyph glyph-name="quotedblright.sc" unicode="&#xf6ad;" horiz-adv-x="310" 
d="M179 389l81 201h65l-106 -208zM45 389l81 201h65l-106 -208z" />
    <glyph glyph-name="commaaccent" unicode="&#xf6c3;" horiz-adv-x="500" 
d="M160 -212l53 143h62l-78 -150z" />
    <glyph glyph-name="commainferior" unicode="&#xf6e1;" horiz-adv-x="174" 
d="M-21 -219l53 131h54l-70 -136z" />
    <glyph glyph-name="commasuperior" unicode="&#xf6e2;" horiz-adv-x="174" 
d="M48 277l53 131h54l-70 -136z" />
    <glyph glyph-name="hypheninferior" unicode="&#xf6e5;" horiz-adv-x="225" 
d="M151 14h-168l5 45h170z" />
    <glyph glyph-name="hyphensuperior" unicode="&#xf6e6;" horiz-adv-x="225" 
d="M220 510h-168l5 45h170z" />
    <glyph glyph-name="periodinferior" unicode="&#xf6e7;" horiz-adv-x="179" 
d="M80 -110q0 -43 -44 -43q-34 0 -34 30q0 43 44 43q34 0 34 -30z" />
    <glyph glyph-name="periodsuperior" unicode="&#xf6e8;" horiz-adv-x="179" 
d="M149 386q0 -43 -44 -43q-34 0 -34 30q0 43 44 43q34 0 34 -30z" />
    <glyph glyph-name="three.tosf" unicode="&#xf81e;" 
d="M325 579q74 0 115.5 -38t41.5 -99q0 -133 -164 -181v-2q56 -10 89.5 -45t33.5 -96q0 -91 -60 -146t-161 -55q-172 0 -181 155l46 9q2 -25 7 -42.5t18 -38t40.5 -31t67.5 -10.5q72 0 123 37t51 116q0 125 -154 125h-54l6 45h45q82 0 139.5 45.5t57.5 107.5q0 101 -116 101
q-69 0 -105.5 -30.5t-60.5 -86.5l-41 12q22 70 80.5 109t135.5 39z" />
    <glyph glyph-name="four.tosf" unicode="&#xf81f;" 
d="M387 -67h-45l21 154h-334l6 36l379 448h64l-63 -443h88l-5 -41h-89zM92 128h278l55 391z" />
    <glyph glyph-name="five.tosf" unicode="&#xf820;" 
d="M486 520h-275l-55 -240q76 49 151 49q69 0 115 -42t46 -128q0 -99 -60.5 -170.5t-179.5 -71.5q-75 0 -126.5 40t-57.5 117l47 14q15 -128 140 -128q76 0 132 49t56 149q0 60 -31.5 94t-88.5 34q-88 0 -165 -64l-32 17l69 324h322z" />
    <glyph glyph-name="six.tosf" unicode="&#xf821;" 
d="M522 486l-42 -10q-7 67 -35.5 96t-79.5 29q-191 0 -235 -299q97 97 194 97q79 0 118.5 -49.5t39.5 -120.5q0 -103 -59 -172t-162 -69q-54 0 -91.5 20.5t-56.5 56.5t-27 74t-8 83t6.5 94t26 109.5t49.5 107.5t84 79t123 32t111.5 -42.5t43.5 -115.5zM129 252
q-2 -20 -2 -45q0 -30 5.5 -57.5t18.5 -56.5t41 -46t68 -17q77 0 125.5 50t48.5 146q0 60 -28.5 95t-82.5 35q-92 0 -194 -104z" />
    <glyph glyph-name="seven.tosf" unicode="&#xf822;" 
d="M125 -67h-56l389 587h-366l6 43h419l-6 -39z" />
    <glyph glyph-name="nine.tosf" unicode="&#xf824;" 
d="M31 62l41 12q17 -117 131 -117q196 0 233 306q-30 -39 -85 -65t-113 -26q-78 0 -118 51t-40 122q0 105 58.5 173t163.5 68q181 0 181 -244q0 -122 -28 -215t-92.5 -151.5t-159.5 -58.5q-70 0 -118 37t-54 108zM436 315q1 10 1 38q0 33 -5.5 63.5t-19.5 61.5t-42 49.5
t-68 18.5q-80 0 -128.5 -49t-48.5 -147q0 -63 30 -100t84 -37q111 0 197 102z" />
    <glyph glyph-name="dollar.tosf" unicode="&#xf825;" 
d="M435 451q-6 57 -30 87t-75 36l-35 -248q28 -9 45 -16t39.5 -19.5t35 -26t21.5 -34.5t9 -47q0 -75 -51 -125t-145 -57l-10 -81h-39l10 81q-169 14 -180 163l46 10q8 -60 38 -93.5t101 -36.5l34 251q-35 11 -57 20.5t-47 27t-37 44t-12 62.5q0 78 53.5 122t146.5 49l10 73
h40l-10 -76q64 -10 103 -48t41 -109zM144 453q0 -44 28.5 -69t82.5 -45l33 236q-62 -3 -103 -31t-41 -91zM397 179q0 41 -27.5 63t-80.5 40l-32 -237q66 5 103 39.5t37 94.5z" />
    <glyph glyph-name="Euro.tosf" unicode="&#xf826;" horiz-adv-x="569" 
d="M314 225h-215v-1q0 -195 175 -195q76 0 122 35.5t74 114.5l40 -12q-29 -94 -93 -136.5t-148 -42.5q-110 0 -162 60t-54 177h-65l11 39h54q3 57 14 99h-55l12 39h53q34 108 107 174t182 66q94 0 144 -51t44 -152l-45 -5q-1 87 -31 126.5t-115 39.5q-90 0 -148.5 -54.5
t-88.5 -143.5h228l-11 -39h-228q-12 -49 -15 -99h224z" />
    <glyph glyph-name="cent.tosf" unicode="&#xf827;" 
d="M330 627h40l-14 -96q70 -7 105 -55.5t26 -122.5l-43 -3q5 128 -93 140l-59 -405q100 9 130 108l38 -10q-18 -65 -63.5 -100t-107.5 -40l-15 -108h-40l15 106q-158 24 -158 204q0 130 62 203.5t163 82.5zM139 244q0 -75 30.5 -114.5t82.5 -44.5l59 406q-33 -3 -61.5 -16.5
t-54.5 -40.5t-41 -76t-15 -114z" />
    <glyph glyph-name="s_t" unicode="&#xfb06;" horiz-adv-x="806" 
d="M272 519q85 0 124 -45t38 -115l-42 -4q-2 126 -119 126q-69 0 -98.5 -29.5t-29.5 -71.5q0 -20 8 -36t16.5 -25t30.5 -18.5t31.5 -12.5l38.5 -12q31 -9 50.5 -17.5t41.5 -23.5t32.5 -39.5t10.5 -57.5q0 -70 -48 -110t-134 -40q-165 0 -178 158l43 7q14 -126 136 -126
q53 0 94 25.5t41 81.5q0 25 -8.5 42.5t-28.5 29t-35.5 17.5t-44.5 14t-42.5 12.5t-36.5 16t-34 24.5t-20 35t-9 50q0 70 50.5 107t121.5 37zM748 56l9 -39q-48 -29 -109 -29q-69 0 -96.5 30.5t-17.5 98.5l75 538l50 7l-21 -154h144l-6 -42h-144l-49 -341q-7 -51 5 -73.5
t61 -22.5t99 27z" />
    <glyph glyph-name="hyphen.case" horiz-adv-x="318" 
d="M305 339h-271l6 46h271z" />
    <glyph glyph-name="zero.osf" horiz-adv-x="612" 
d="M257 -12q-58 0 -100 20t-64.5 55t-33 75t-10.5 87q0 66 14.5 124.5t46 112t92 85.5t143.5 32q56 0 96 -18.5t62 -51.5t31.5 -71.5t9.5 -84.5q0 -48 -6 -93t-24.5 -96.5t-49 -88.5t-84 -62t-123.5 -25zM261 33q62 0 108.5 25t72.5 69.5t38.5 98.5t12.5 119q0 189 -156 189
q-122 0 -180 -84.5t-58 -223.5q0 -87 39 -140t123 -53z" />
    <glyph glyph-name="one.osf" horiz-adv-x="383" 
d="M201 0h-47l69 484q-24 -16 -76 -26t-83 -10v40q71 5 117 24t85 59h16z" />
    <glyph glyph-name="two.osf" horiz-adv-x="509" 
d="M240 156l-159 -115h317l-6 -41h-382l5 38l176 133q123 94 154 126q52 59 53 128q0 56 -32 83.5t-88 27.5q-81 0 -117.5 -35t-56.5 -104l-43 9q19 86 78 129.5t138 43.5t124 -38.5t45 -114.5q0 -42 -11.5 -75t-40.5 -66t-61.5 -59.5t-92.5 -69.5z" />
    <glyph glyph-name="three.osf" horiz-adv-x="508" 
d="M296 579q74 0 115.5 -38t41.5 -99q0 -133 -164 -181v-2q56 -10 89.5 -45t33.5 -96q0 -91 -60 -146t-161 -55q-172 0 -181 155l46 9q2 -25 7 -42.5t18 -38t40.5 -31t67.5 -10.5q72 0 123 37t51 116q0 125 -154 125h-54l6 45h45q82 0 139.5 45.5t57.5 107.5q0 101 -116 101
q-69 0 -105.5 -30.5t-60.5 -86.5l-41 12q22 70 80.5 109t135.5 39z" />
    <glyph glyph-name="four.osf" horiz-adv-x="512" 
d="M362 -67h-45l21 154h-334l6 36l379 448h64l-63 -443h88l-5 -41h-89zM67 128h278l55 391z" />
    <glyph glyph-name="five.osf" horiz-adv-x="516" 
d="M461 520h-275l-55 -240q76 49 151 49q69 0 115 -42t46 -128q0 -99 -60.5 -170.5t-179.5 -71.5q-75 0 -126.5 40t-57.5 117l47 14q15 -128 140 -128q76 0 132 49t56 149q0 60 -31.5 94t-88.5 34q-88 0 -165 -64l-32 17l69 324h322z" />
    <glyph glyph-name="six.osf" horiz-adv-x="540" 
d="M508 486l-42 -10q-7 67 -35.5 96t-79.5 29q-191 0 -235 -299q97 97 194 97q79 0 118.5 -49.5t39.5 -120.5q0 -103 -59 -172t-162 -69q-54 0 -91.5 20.5t-56.5 56.5t-27 74t-8 83t6.5 94t26 109.5t49.5 107.5t84 79t123 32t111.5 -42.5t43.5 -115.5zM115 252
q-2 -20 -2 -45q0 -30 5.5 -57.5t18.5 -56.5t41 -46t68 -17q77 0 125.5 50t48.5 146q0 60 -28.5 95t-82.5 35q-92 0 -194 -104z" />
    <glyph glyph-name="seven.osf" horiz-adv-x="499" 
d="M88 -67h-56l389 587h-366l6 43h419l-6 -39z" />
    <glyph glyph-name="eight.osf" horiz-adv-x="503" 
d="M476 517q0 -65 -46.5 -108.5t-127.5 -77.5q30 -15 50.5 -27t42.5 -31.5t33 -45t11 -56.5q0 -91 -60.5 -137t-162.5 -46q-91 0 -138.5 40.5t-47.5 105.5q0 70 42 112t136 85q-112 51 -112 141q0 79 58 125.5t153 46.5q169 0 169 -127zM218 30q89 0 132.5 39.5t43.5 98.5
q0 87 -142 142q-92 -35 -132.5 -74.5t-40.5 -98.5q0 -53 36 -80t103 -27zM304 606q-80 0 -121.5 -34t-41.5 -95q0 -80 116 -127q88 39 130.5 75t42.5 90q0 91 -126 91z" />
    <glyph glyph-name="nine.osf" horiz-adv-x="554" 
d="M22 62l41 12q17 -117 131 -117q196 0 233 306q-30 -39 -85 -65t-113 -26q-78 0 -118 51t-40 122q0 105 58.5 173t163.5 68q181 0 181 -244q0 -122 -28 -215t-92.5 -151.5t-159.5 -58.5q-70 0 -118 37t-54 108zM427 315q1 10 1 38q0 33 -5.5 63.5t-19.5 61.5t-42 49.5
t-68 18.5q-80 0 -128.5 -49t-48.5 -147q0 -63 30 -100t84 -37q111 0 197 102z" />
    <glyph glyph-name="dollar.osf" horiz-adv-x="516" 
d="M416 451q-6 57 -30 87t-75 36l-35 -248q28 -9 45 -16t39.5 -19.5t35 -26t21.5 -34.5t9 -47q0 -75 -51 -125t-145 -57l-10 -81h-39l10 81q-169 14 -180 163l46 10q8 -60 38 -93.5t101 -36.5l34 251q-35 11 -57 20.5t-47 27t-37 44t-12 62.5q0 78 53.5 122t146.5 49l10 73
h40l-10 -76q64 -10 103 -48t41 -109zM125 453q0 -44 28.5 -69t82.5 -45l33 236q-62 -3 -103 -31t-41 -91zM378 179q0 41 -27.5 63t-80.5 40l-32 -237q66 5 103 39.5t37 94.5z" />
    <glyph glyph-name="Euro.osf" horiz-adv-x="575" 
d="M317 225h-215v-1q0 -195 175 -195q76 0 122 35.5t74 114.5l40 -12q-29 -94 -93 -136.5t-148 -42.5q-110 0 -162 60t-54 177h-65l11 39h54q3 57 14 99h-55l12 39h53q34 108 107 174t182 66q94 0 144 -51t44 -152l-45 -5q-1 87 -31 126.5t-115 39.5q-90 0 -148.5 -54.5
t-88.5 -143.5h228l-11 -39h-228q-12 -49 -15 -99h224z" />
    <glyph glyph-name="cent.osf" horiz-adv-x="480" 
d="M277 627h40l-14 -96q70 -7 105 -55.5t26 -122.5l-43 -3q5 128 -93 140l-59 -405q100 9 130 108l38 -10q-18 -65 -63.5 -100t-107.5 -40l-15 -108h-40l15 106q-158 24 -158 204q0 130 62 203.5t163 82.5zM86 244q0 -75 30.5 -114.5t82.5 -44.5l59 406q-33 -3 -61.5 -16.5
t-54.5 -40.5t-41 -76t-15 -114z" />
    <glyph glyph-name="sterling.osf" horiz-adv-x="537" 
d="M-8 41h51q105 93 105 172q0 30 -14 67h-112l7 42h89q-25 61 -25 112q0 93 66.5 151t167.5 58q87 0 133.5 -49t42.5 -140l-45 -2q0 71 -30 109.5t-104 38.5q-80 0 -132 -43t-52 -119q0 -17 3.5 -35.5t5.5 -26.5t9.5 -30t8.5 -24h244l-7 -42h-223q14 -37 14 -68
q0 -79 -93 -171h192q71 0 107 28.5t50 93.5l42 -10q-7 -48 -29.5 -80.5t-57 -47t-67.5 -20t-75 -5.5h-279z" />
    <glyph glyph-name="yen.osf" horiz-adv-x="500" 
d="M385 186h-136l-26 -186h-49l26 186h-137l7 39h135l11 78h-135l6 39h113l-137 290h53l128 -288l203 288h56l-210 -290h116l-6 -39h-138l-11 -78h138z" />
    <glyph glyph-name="florin.osf" horiz-adv-x="464" 
d="M496 559l-43 -18q-25 62 -81 62q-82 0 -102 -103l-25 -131h152l-9 -41h-152l-76 -366q-16 -76 -49.5 -108t-91.5 -32q-95 0 -125 91l45 19q14 -34 31 -49.5t49 -15.5q37 0 61 21.5t34 78.5l74 361h-75l9 41h75l27 136q27 140 149 140q90 0 123 -86z" />
    <glyph glyph-name="afii61352.osf" horiz-adv-x="926" 
d="M711 286q-130 0 -130 134q0 94 47.5 150t136.5 56q65 0 96.5 -36t31.5 -96q0 -97 -48 -152.5t-134 -55.5zM717 327q59 0 93.5 39.5t34.5 121.5q0 96 -87 96q-62 0 -96 -39t-34 -120q0 -98 89 -98zM543 191l5 47h302l-6 -47h-301zM440 0h-49l-221 573l-81 -573h-45l88 626
h69l206 -552l78 552h44z" />
    <glyph glyph-name="percent.osf" horiz-adv-x="839" 
d="M460 142q0 87 49.5 148.5t136.5 61.5q136 0 136 -152q0 -92 -46.5 -151.5t-138.5 -59.5q-70 0 -103.5 43t-33.5 110zM600 34q36 0 62.5 15t39 33t19 45t7.5 40.5t1 29.5q0 110 -86 110q-38 0 -65 -16t-40.5 -42.5t-19.5 -53.5t-6 -57q0 -104 88 -104zM52 410
q0 87 49.5 148.5t136.5 61.5q136 0 136 -152q0 -92 -46.5 -151.5t-138.5 -59.5q-70 0 -103.5 43t-33.5 110zM192 302q36 0 62.5 15t39 33t19 45t7.5 40.5t1 29.5q0 110 -86 110q-38 0 -65 -16t-40.5 -42.5t-19.5 -53.5t-6 -57q0 -104 88 -104zM674 621l-465 -639h-53
l467 639h51z" />
    <glyph glyph-name="perthousand.osf" horiz-adv-x="1029" 
d="M809 -12q-60 0 -90.5 35.5t-30.5 91.5q0 85 43.5 141.5t121.5 56.5q59 0 88 -34t29 -95q0 -87 -41.5 -141.5t-119.5 -54.5zM812 31q108 0 108 150q0 38 -17 62.5t-55 24.5q-58 0 -84 -44.5t-26 -104.5q0 -88 74 -88zM490 -12q-60 0 -90.5 35.5t-30.5 91.5
q0 85 43.5 141.5t121.5 56.5q59 0 88 -34t29 -95q0 -87 -41.5 -141.5t-119.5 -54.5zM493 31q108 0 108 150q0 38 -17 62.5t-55 24.5q-58 0 -84 -44.5t-26 -104.5q0 -88 74 -88zM185 295q-60 0 -90.5 35.5t-30.5 91.5q0 85 43.5 141.5t121.5 56.5q59 0 88 -34t29 -95
q0 -87 -41.5 -141.5t-119.5 -54.5zM148 -18h-53l466 639h52zM188 338q108 0 108 150q0 38 -17 62.5t-55 24.5q-58 0 -84 -44.5t-26 -104.5q0 -88 74 -88z" />
    <glyph glyph-name="zero.slash" 
d="M240 -12q-54 0 -91 18t-57 53.5t-28 79t-8 103.5q0 38 2.5 77.5t11 90t21.5 94.5t35.5 88t52 75t73 50.5t95.5 19.5q95 0 136.5 -60.5t41.5 -158.5q0 -44 -2 -86t-9.5 -96.5t-19.5 -101t-34 -93.5t-51 -79.5t-72.5 -53t-96.5 -20.5zM241 28q52 0 92.5 24.5t65.5 67.5
t42 91.5t24.5 108t10.5 104.5t3 93q0 60 -17 101l-328 -540q35 -50 107 -50zM103 230q0 -70 12 -111l324 537q-35 40 -95 40q-50 0 -90 -22.5t-65 -62t-43 -85.5t-27 -101.5t-12.5 -101.5t-3.5 -93z" />
    <glyph glyph-name="zero.tf" 
d="M240 -12q-54 0 -91 18t-57 53.5t-28 79t-8 103.5q0 38 2.5 77.5t11 90t21.5 94.5t35.5 88t52 75t73 50.5t95.5 19.5q95 0 136.5 -60.5t41.5 -158.5q0 -44 -2 -86t-9.5 -96.5t-19.5 -101t-34 -93.5t-51 -79.5t-72.5 -53t-96.5 -20.5zM241 28q52 0 92.5 24.5t65.5 67.5
t42 91.5t24.5 108t10.5 104.5t3 93q0 80 -32 129.5t-103 49.5q-50 0 -90 -22.5t-65 -62t-43 -85.5t-27 -101.5t-12.5 -101.5t-3.5 -93q0 -43 5 -74.5t18.5 -63t42.5 -48t72 -16.5z" />
    <glyph glyph-name="one.tf" horiz-adv-x="569" 
d="M89 0l6 41h139l84 596q-26 -14 -79 -25t-82 -11v39q73 7 119 25.5t85 58.5h16l-97 -683h132l-6 -41h-317z" />
    <glyph glyph-name="two.tf" 
d="M415 0h-390l5 37l211 225q125 132 161.5 188.5t36.5 127.5q0 117 -126 117q-130 0 -170 -141l-46 9q24 89 83.5 131.5t142.5 42.5q73 0 119.5 -37t46.5 -114q0 -36 -10.5 -71t-22.5 -60.5t-43.5 -65t-52 -62l-68.5 -74.5l-203 -211h332z" />
    <glyph glyph-name="three.tf" 
d="M333 737q79 0 121.5 -40t42.5 -106q0 -47 -17 -85.5t-44 -61.5t-55.5 -37t-57.5 -19l-1 -2q135 -21 135 -162q0 -107 -66.5 -171.5t-175.5 -64.5q-169 0 -178 155l44 9q2 -24 7.5 -41t18.5 -38t40.5 -32t67.5 -11q80 0 136 48.5t56 145.5q0 140 -161 140h-57l6 43h46
q94 0 149.5 50t55.5 128q0 110 -118 110q-70 0 -105.5 -29.5t-62.5 -90.5l-42 12q23 75 80 112.5t135 37.5z" />
    <glyph glyph-name="four.tf" 
d="M388 0h-47l27 191h-340l5 34l395 499h63l-69 -492h88l-6 -41h-90zM91 232h284l61 435z" />
    <glyph glyph-name="five.tf" 
d="M510 682h-289l-67 -279q66 56 158 56q72 0 122.5 -45t50.5 -147q0 -120 -70 -199.5t-193 -79.5q-79 0 -128.5 41.5t-55.5 115.5l45 14q18 -129 142 -129q87 0 149 57.5t62 182.5q0 72 -34 109.5t-98 37.5q-84 0 -165 -67l-33 18l78 356h332z" />
    <glyph glyph-name="six.tf" 
d="M532 585l-42 -9q-13 119 -115 119q-47 0 -87 -23t-67.5 -59.5t-48.5 -85t-32.5 -94t-18.5 -93.5q34 38 92 68.5t114 30.5q84 0 126.5 -48.5t42.5 -126.5q0 -121 -67.5 -198.5t-174.5 -77.5q-53 0 -90.5 18.5t-57.5 53.5t-29 78.5t-9 101.5q0 52 7.5 110.5t29.5 129.5
t56 126.5t92.5 93t132.5 37.5q63 0 103 -40t43 -112zM117 290q-2 -36 -2 -57q0 -204 140 -204q82 0 137.5 60.5t55.5 171.5q0 65 -31.5 99.5t-89.5 34.5q-55 0 -111 -30t-99 -75z" />
    <glyph glyph-name="seven.tf" 
d="M151 0h-53l403 682h-388l6 42h442l-5 -38z" />
    <glyph glyph-name="eight.tf" 
d="M334 374q33 -15 54 -27t46 -32.5t37.5 -49.5t12.5 -65q0 -94 -69 -153t-177 -59q-95 0 -143.5 46t-48.5 116q0 86 52 136.5t143 88.5q-122 61 -122 163q0 91 67.5 145t167.5 54q81 0 128 -37.5t47 -103.5q0 -134 -195 -222zM286 352q-99 -36 -144.5 -80.5t-45.5 -121.5
q0 -54 36 -88t111 -34q96 0 145 52t49 115q0 34 -13.5 61t-40 45.5t-46.5 28.5t-51 22zM291 394q190 87 190 197q0 49 -34.5 77t-101.5 28q-79 0 -129.5 -42.5t-50.5 -110.5q0 -55 29.5 -86t96.5 -63z" />
    <glyph glyph-name="nine.tf" 
d="M35 136l42 11q17 -120 128 -120q60 0 108 30t78 81t48 111t23 128q-34 -37 -99 -69.5t-122 -32.5q-82 0 -121 52t-39 133q0 123 67.5 200t181.5 77q180 0 180 -255q0 -227 -79 -360.5t-228 -133.5q-71 0 -114.5 37t-53.5 111zM463 424q1 21 1 70q0 202 -140 202
q-82 0 -140.5 -60.5t-58.5 -171.5q0 -148 118 -148q54 0 115.5 32t104.5 76z" />
    <glyph glyph-name="dollar.tf" 
d="M457 514q-1 144 -106 155l-39 -290q30 -12 47.5 -20t41.5 -23.5t37 -31t22.5 -40t9.5 -53.5q0 -95 -60 -146.5t-150 -58.5l-13 -86h-40l12 86q-173 7 -179 186l46 8q8 -75 37 -113t102 -40l41 301q-36 14 -59 26t-48 32.5t-37.5 49.5t-12.5 67q0 81 58.5 132t148.5 56
l12 81h41l-12 -83q145 -18 142 -188zM424 205q0 49 -30.5 76.5t-87.5 51.5l-39 -285q71 8 114 48t43 109zM156 523q0 -49 30 -77t86 -51l37 275q-68 -5 -110.5 -41.5t-42.5 -105.5z" />
    <glyph glyph-name="Euro.tf" horiz-adv-x="569" 
d="M16 455h61q35 126 116 204.5t204 78.5q188 0 175 -203l-44 -4q2 87 -28.5 127t-109.5 40q-82 0 -156.5 -62t-109.5 -181h237l-12 -40h-234q-11 -52 -13 -117h217l-12 -40h-205q3 -114 47.5 -171.5t137.5 -57.5q80 0 125 43.5t65 103.5l39 -12q-26 -87 -88 -131.5
t-147 -44.5q-216 0 -226 270h-81l11 40h70q2 61 13 117h-62z" />
    <glyph glyph-name="cent.tf" 
d="M343 692h40l-14 -96q70 -7 105 -55.5t26 -122.5l-43 -3q5 128 -93 140l-59 -405q100 9 130 108l38 -10q-18 -65 -63.5 -100t-107.5 -40l-15 -108h-40l15 106q-158 24 -158 204q0 130 62 203.5t163 82.5zM152 309q0 -75 30.5 -114.5t82.5 -44.5l59 406q-33 -3 -61.5 -16.5
t-54.5 -40.5t-41 -76t-15 -114z" />
    <glyph glyph-name="sterling.tf" 
d="M14 42h55q117 95 117 205q0 43 -15 84h-109l7 41h86q-30 70 -30 144q0 99 68.5 160t168.5 61q91 0 136 -43.5t41 -138.5l-46 -5q1 75 -28 110.5t-103 35.5q-82 0 -135.5 -45.5t-53.5 -136.5q0 -55 30 -142h247l-7 -41h-225q12 -38 12 -82q0 -119 -105 -207h202
q60 0 91 28.5t52 94.5l41 -11q-23 -83 -67.5 -118.5t-116.5 -35.5h-319z" />
    <glyph glyph-name="yen.tf" 
d="M429 249h-137l-34 -249h-48l34 249h-137l7 41h135l12 89h-135l7 41h112l-131 304h51l126 -304l206 304h54l-212 -304h116l-7 -41h-137l-13 -89h137z" />
    <glyph glyph-name="florin.tf" 
d="M555 650l-47 -19q-25 62 -81 62q-79 0 -98 -101l-28 -149h148l-10 -45h-148l-88 -440q-15 -75 -50.5 -107.5t-94.5 -32.5q-97 0 -127 91l47 19q14 -34 31 -49.5t49 -15.5q37 0 60.5 21.5t34.5 78.5l86 435h-75l10 45h75l30 154q27 140 149 140q94 0 127 -87z" />
    <glyph glyph-name="zeroslash.tosf" 
d="M239 -12q-58 0 -100 20t-64.5 55t-33 75t-10.5 87q0 66 14.5 124.5t46 112t92 85.5t143.5 32q56 0 96 -18.5t62 -51.5t31.5 -71.5t9.5 -84.5q0 -48 -6 -93t-24.5 -96.5t-49 -88.5t-84 -62t-123.5 -25zM243 33q62 0 108.5 25t72.5 69.5t38.5 98.5t12.5 119q0 82 -32 131
l-308 -407q41 -36 108 -36zM81 226q0 -76 27 -123l306 404q-38 27 -95 27q-122 0 -180 -84.5t-58 -223.5z" />
    <glyph glyph-name="zero.tosf" 
d="M239 -12q-58 0 -100 20t-64.5 55t-33 75t-10.5 87q0 66 14.5 124.5t46 112t92 85.5t143.5 32q56 0 96 -18.5t62 -51.5t31.5 -71.5t9.5 -84.5q0 -48 -6 -93t-24.5 -96.5t-49 -88.5t-84 -62t-123.5 -25zM243 33q62 0 108.5 25t72.5 69.5t38.5 98.5t12.5 119q0 189 -156 189
q-122 0 -180 -84.5t-58 -223.5q0 -87 39 -140t123 -53z" />
    <glyph glyph-name="one.tosf" horiz-adv-x="569" 
d="M100 0l5 40h153l63 446q-24 -15 -75.5 -25t-82.5 -10v37q71 5 116.5 24t84.5 59h15l-75 -531h135l-6 -40h-333z" />
    <glyph glyph-name="two.tosf" 
d="M269 156l-159 -115h317l-6 -41h-382l5 38l176 133q123 94 154 126q52 59 53 128q0 56 -32 83.5t-88 27.5q-81 0 -117.5 -35t-56.5 -104l-43 9q19 86 78 129.5t138 43.5t124 -38.5t45 -114.5q0 -42 -11.5 -75t-40.5 -66t-61.5 -59.5t-92.5 -69.5z" />
    <glyph glyph-name="eight.tosf" 
d="M515 517q0 -65 -46.5 -108.5t-127.5 -77.5q30 -15 50.5 -27t42.5 -31.5t33 -45t11 -56.5q0 -91 -60.5 -137t-162.5 -46q-91 0 -138.5 40.5t-47.5 105.5q0 70 42 112t136 85q-112 51 -112 141q0 79 58 125.5t153 46.5q169 0 169 -127zM257 30q89 0 132.5 39.5t43.5 98.5
q0 87 -142 142q-92 -35 -132.5 -74.5t-40.5 -98.5q0 -53 36 -80t103 -27zM343 606q-80 0 -121.5 -34t-41.5 -95q0 -80 116 -127q88 39 130.5 75t42.5 90q0 91 -126 91z" />
    <glyph glyph-name="sterling.tosf" 
d="M3 41h51q105 93 105 172q0 30 -14 67h-112l7 42h89q-25 61 -25 112q0 93 66.5 151t167.5 58q87 0 133.5 -49t42.5 -140l-45 -2q0 71 -30 109.5t-104 38.5q-80 0 -132 -43t-52 -119q0 -17 3.5 -35.5t5.5 -26.5t9.5 -30t8.5 -24h244l-7 -42h-223q14 -37 14 -68
q0 -79 -93 -171h192q71 0 107 28.5t50 93.5l42 -10q-7 -48 -29.5 -80.5t-57 -47t-67.5 -20t-75 -5.5h-279z" />
    <glyph glyph-name="yen.tosf" 
d="M411 186h-136l-26 -186h-49l26 186h-137l7 39h135l11 78h-135l6 39h113l-137 290h53l128 -288l203 288h56l-210 -290h116l-6 -39h-138l-11 -78h138z" />
    <glyph glyph-name="florin.tosf" 
d="M549 559l-43 -18q-25 62 -81 62q-82 0 -102 -103l-25 -131h152l-9 -41h-152l-76 -366q-16 -76 -49.5 -108t-91.5 -32q-95 0 -125 91l45 19q14 -34 31 -49.5t49 -15.5q37 0 61 21.5t34 78.5l74 361h-75l9 41h75l27 136q27 140 149 140q90 0 123 -86z" />
    <glyph glyph-name="idotaccent" horiz-adv-x="233" 
d="M175 508l-72 -508h-49l72 508h49zM217 685q0 -23 -13.5 -36.5t-36.5 -13.5q-38 0 -38 36q0 23 13 36.5t37 13.5q38 0 38 -36z" />
    <glyph glyph-name="s_p" horiz-adv-x="1024" 
d="M620 508l-11 -74h2q117 85 199 85q153 0 153 -192q0 -168 -71 -253.5t-175 -85.5q-86 0 -161 60l-36 -260h-48l102 720h46zM914 329q0 77 -25.5 112t-78.5 35q-50 0 -109 -31t-96 -63l-40 -285q77 -64 150 -64q44 0 79 17.5t57 45.5t36.5 67.5t20.5 80t6 85.5zM264 519
q86 0 126 -45.5t39 -114.5l-43 -4q-1 56 -30 91t-91 35q-69 0 -99 -30.5t-30 -74.5q0 -19 7.5 -34.5t15.5 -24t29.5 -18t32.5 -12.5t41 -12q33 -9 51.5 -16.5t42.5 -22.5t35.5 -39t11.5 -57q0 -70 -48 -111t-132 -41q-171 0 -184 158l43 7q14 -126 138 -126q57 0 96.5 26
t39.5 85q0 44 -29 64t-91 37q-29 8 -42.5 12.5t-37.5 15.5t-35.5 23t-21 33t-9.5 48q0 72 51 110t123 38z" />
    <glyph glyph-name="c_t" horiz-adv-x="852" 
d="M245 -12q-97 0 -144 57.5t-47 161.5q0 146 74.5 229t189.5 83q88 0 129.5 -53t31.5 -140l-44 -5q3 76 -24.5 116t-97.5 40q-38 0 -73 -14t-67.5 -43.5t-52 -85t-19.5 -130.5q0 -91 40.5 -132.5t105.5 -41.5q125 0 163 121l42 -10q-20 -75 -76 -114t-131 -39zM794 56
l9 -39q-48 -29 -109 -29q-69 0 -96.5 30.5t-17.5 98.5l75 538l50 7l-21 -154h144l-6 -42h-144l-49 -341q-7 -51 5 -73.5t61 -22.5t99 27z" />
    <glyph glyph-name="c_h" horiz-adv-x="1082" 
d="M245 -12q-97 0 -144 57.5t-47 161.5q0 146 74.5 229t189.5 83q88 0 129.5 -53t31.5 -140l-44 -5q3 76 -24.5 116t-97.5 40q-38 0 -73 -14t-67.5 -43.5t-52 -85t-19.5 -130.5q0 -91 40.5 -132.5t105.5 -41.5q125 0 163 121l42 -10q-20 -75 -76 -114t-131 -39zM663 384
l-54 -384h-49l106 755h49l-48 -323q107 87 202 87q77 0 112 -44.5t23 -131.5l-48 -343h-49l48 343q19 132 -89 132q-50 0 -97 -23.5t-106 -67.5z" />
    <glyph glyph-name="c_k" horiz-adv-x="996" 
d="M245 -12q-97 0 -144 57.5t-47 161.5q0 146 74.5 229t189.5 83q88 0 129.5 -53t31.5 -140l-44 -5q3 76 -24.5 116t-97.5 40q-38 0 -73 -14t-67.5 -43.5t-52 -85t-19.5 -130.5q0 -91 40.5 -132.5t105.5 -41.5q125 0 163 121l42 -10q-20 -75 -76 -114t-131 -39zM934 0h-53
l-135 288l-111 -95l-27 -193h-49l106 755h49l-70 -499l283 252h66l-209 -186z" />
    <glyph glyph-name="T_h" horiz-adv-x="998" 
d="M579 384l-54 -384h-49l96 683h-247l-91 -683h-45l92 683h-213l5 41h504l5 31h49l-48 -323q107 87 202 87q77 0 112 -44.5t23 -131.5l-48 -343h-49l48 343q19 132 -89 132q-50 0 -97 -23.5t-106 -67.5z" />
    <glyph glyph-name="revcommaaccent" horiz-adv-x="500" 
d="M394 723l-53 -143h-62l78 150z" />
    <glyph glyph-name="caron.alt" horiz-adv-x="499" 
d="M282 566l60 189h64l-87 -197z" />
    <glyph glyph-name="tilde.cap" horiz-adv-x="499" 
d="M292 872q33 0 73.5 -24t60.5 -24q42 0 52 59l37 -2q-8 -56 -30.5 -76t-59.5 -20q-30 0 -72 23t-65 23q-38 0 -48 -60l-37 2q12 99 89 99z" />
    <glyph glyph-name="ring.cap" horiz-adv-x="500" 
d="M456 847q0 -52 -31.5 -82.5t-84.5 -30.5q-41 0 -64.5 21t-23.5 59q0 53 33.5 82.5t80.5 29.5q40 0 65 -20t25 -59zM345 769q32 0 50 20.5t18 52.5q0 49 -51 49q-30 0 -49.5 -19t-19.5 -54q0 -49 52 -49z" />
    <glyph glyph-name="circumflex.cap" horiz-adv-x="499" 
d="M489 777l-46 -8l-83 83l-102 -85l-48 10l139 118h33z" />
    <glyph glyph-name="acute.cap" horiz-adv-x="500" 
d="M284 781l114 130h81l-156 -144z" />
    <glyph glyph-name="grave.cap" horiz-adv-x="499" 
d="M257 911h68l84 -130l-37 -14z" />
    <glyph glyph-name="dieresis.cap" horiz-adv-x="499" 
d="M212 820q0 24 14.5 38t37.5 14q17 0 27.5 -10t10.5 -28q0 -23 -14 -37t-36 -14q-40 0 -40 37zM403 820q0 24 14.5 38t37.5 14q38 0 38 -38q0 -24 -14 -37.5t-36 -13.5q-40 0 -40 37z" />
    <glyph glyph-name="caron.cap" horiz-adv-x="500" 
d="M223 889l47 8l82 -82l105 85l46 -11l-139 -118h-34z" />
    <glyph glyph-name="macron.cap" horiz-adv-x="499" 
d="M496 800h-290l6 40h290z" />
    <glyph glyph-name="dotaccent.cap" horiz-adv-x="500" 
d="M400 833q0 -23 -13.5 -36.5t-36.5 -13.5q-38 0 -38 36q0 23 13 36.5t37 13.5q38 0 38 -36z" />
    <glyph glyph-name="cedilla.cap" horiz-adv-x="500" 
d="M112 -190l15 33q27 -22 61 -22q28 0 45 14t17 42q0 45 -74 47l26 94l41 -2l-19 -65q26 -4 48 -21t22 -50q0 -46 -29.5 -70.5t-70.5 -24.5q-51 0 -82 25z" />
    <glyph glyph-name="hungarumlaut.cap" horiz-adv-x="500" 
d="M250 780l96 131h75l-128 -144zM370 781l122 134h74l-155 -148z" />
    <glyph glyph-name="commaaccent.cap" horiz-adv-x="500" 
d="M160 -212l53 143h62l-78 -150z" />
    <glyph glyph-name="breve.cap" horiz-adv-x="500" 
d="M355 824q41 0 65 18.5t38 60.5l41 -5q-28 -113 -148 -113q-58 0 -84 28t-29 84l43 5q2 -42 19.5 -60t54.5 -18z" />
    <glyph glyph-name="ogonek.cap" horiz-adv-x="500" 
d="M304 -132l33 -19q-37 -67 -105 -67q-37 0 -61.5 20.5t-24.5 56.5q0 27 10 50.5t33 45t39.5 33.5l47.5 33l41 -11q-52 -38 -71.5 -54t-35.5 -40t-16 -50q0 -18 11 -30.5t33 -12.5q34 0 66 45z" />
    <glyph glyph-name="a.sup" horiz-adv-x="387" 
d="M374 676l-39 -270q-3 -28 16 -28q10 0 22 4l-5 -31q-11 -4 -29 -4q-48 0 -44 45q-48 -50 -120 -50q-49 0 -77.5 30.5t-28.5 94.5q0 86 40 150.5t124 64.5q47 0 96 -36l5 30h40zM296 437l25 171q-38 36 -92 36q-60 0 -88.5 -54t-28.5 -118q0 -93 71 -93q58 0 113 58z" />
    <glyph glyph-name="b.sup" horiz-adv-x="391" 
d="M110 350h-40l69 483h45l-30 -202q64 51 126 51q101 0 101 -123q0 -107 -46.5 -162t-113.5 -55q-57 0 -103 36h-1zM150 589l-26 -170q48 -38 94 -38q61 0 89 51t28 125q0 87 -63 87q-29 0 -64.5 -18t-57.5 -37z" />
    <glyph glyph-name="c.sup" horiz-adv-x="358" 
d="M198 342q-130 0 -130 137q0 96 49.5 149.5t129.5 53.5q56 0 86 -35.5t23 -89.5l-42 -4q2 45 -14.5 67.5t-59.5 22.5q-50 0 -88 -38t-38 -123q0 -53 24 -77.5t62 -24.5q77 0 100 72l40 -9q-13 -50 -52 -75.5t-90 -25.5z" />
    <glyph glyph-name="d.sup" horiz-adv-x="383" 
d="M330 350h-36l1 38q-63 -46 -118 -46q-50 0 -78.5 31t-28.5 95q0 109 48 161.5t117 52.5q53 0 93 -33l27 184h44zM296 429l26 184q-45 33 -86 33q-62 0 -92.5 -51.5t-30.5 -127.5q0 -86 71 -86q56 0 112 48z" />
    <glyph glyph-name="e.sup" horiz-adv-x="345" 
d="M196 342q-67 0 -97 39.5t-30 103.5q0 81 46 139t129 58q50 0 77 -23.5t27 -59.5q0 -70 -92 -99q-47 -14 -143 -17q0 -103 90 -103q72 0 94 65l38 -8q-14 -47 -52 -71t-87 -24zM242 645q-55 0 -87.5 -36.5t-39.5 -91.5q93 6 131 18q58 17 58 63q0 47 -62 47z" />
    <glyph glyph-name="f.sup" horiz-adv-x="209" 
d="M295 828l-7 -36q-22 8 -46 8q-53 0 -61 -59l-10 -65h95l-5 -36h-95l-61 -426h-45l61 426h-51l5 36h51l9 60q15 102 106 102q34 0 54 -10z" />
    <glyph glyph-name="g.sup" horiz-adv-x="373" 
d="M224 643q-41 0 -68.5 -28t-37.5 -63.5t-10 -74.5q0 -90 68 -90q60 0 116 53l24 168q-35 35 -92 35zM276 325l12 72q-47 -47 -117 -47q-49 0 -78.5 30.5t-29.5 94.5q0 50 14.5 94.5t53.5 78.5t96 34q53 0 96 -35l6 29h40l-50 -354q-8 -54 -46.5 -84.5t-102.5 -30.5
q-119 0 -128 104l44 9q4 -34 22 -54t62 -20q93 0 106 79z" />
    <glyph glyph-name="h.sup" horiz-adv-x="390" 
d="M151 591l-36 -241h-45l69 483h46l-32 -202q71 51 133 51q100 0 85 -110l-32 -222h-45l31 218q6 41 -4 58.5t-41 17.5q-57 0 -129 -53z" />
    <glyph glyph-name="i.sup" horiz-adv-x="166" 
d="M159 676l-47 -326h-45l47 326h45zM189 788q0 -19 -11 -30t-30 -11q-31 0 -31 29q0 40 40 40q32 0 32 -28z" />
    <glyph glyph-name="j.sup" horiz-adv-x="168" 
d="M60 298l54 378h45l-55 -378q-7 -47 -29.5 -69t-65.5 -22q-40 0 -58 12l10 35q22 -8 47 -8q44 0 52 52zM189 788q0 -19 -11 -30t-30 -11q-31 0 -31 29q0 40 40 40q32 0 32 -28z" />
    <glyph glyph-name="k.sup" horiz-adv-x="343" 
d="M332 350h-50l-84 177l-65 -54l-18 -123h-45l69 483h45l-45 -309l175 152h56l-135 -118z" />
    <glyph glyph-name="l.sup" horiz-adv-x="166" 
d="M67 350l69 483h46l-70 -483h-45z" />
    <glyph glyph-name="m.sup" horiz-adv-x="579" 
d="M279 682q62 0 73 -53q68 53 129 53q94 0 77 -112l-31 -220h-46l31 227q6 38 -5 52t-37 14q-52 0 -112 -50l-35 -243h-44l31 229q5 37 -6 50.5t-36 13.5q-46 0 -119 -54l-34 -239h-45l47 326h40l-5 -45h1q70 51 126 51z" />
    <glyph glyph-name="n.sup" horiz-adv-x="391" 
d="M149 590l-34 -240h-45l47 326h42l-6 -46h1q64 52 128 52q50 0 73 -28t15 -83l-31 -221h-45l30 217q13 78 -47 78q-54 0 -128 -55z" />
    <glyph glyph-name="o.sup" horiz-adv-x="385" 
d="M197 342q-129 0 -129 141q0 81 46.5 140t133.5 59q64 0 95.5 -37t31.5 -102q0 -83 -45 -142t-133 -59zM202 382q64 0 96 46.5t32 116.5q0 98 -87 98q-64 0 -97 -46.5t-33 -118.5q0 -96 89 -96z" />
    <glyph glyph-name="p.sup" horiz-adv-x="391" 
d="M159 676l-7 -46q71 52 127 52q102 0 102 -121q0 -109 -47.5 -164t-117.5 -55q-56 0 -99 35l-24 -163h-44l68 462h42zM335 557q0 46 -15 66t-48 20q-30 0 -66 -17.5t-57 -36.5l-25 -171q42 -36 90 -36q64 0 92.5 50.5t28.5 124.5z" />
    <glyph glyph-name="q.sup" horiz-adv-x="383" 
d="M236 682q51 0 93 -34l4 28h44l-66 -462h-43l26 171q-57 -43 -116 -43q-50 0 -79 30t-29 90q0 113 48.5 166.5t117.5 53.5zM114 470q0 -90 68 -90q60 0 115 49l25 185q-32 32 -86 32q-61 0 -91.5 -50t-30.5 -126z" />
    <glyph glyph-name="r.sup" horiz-adv-x="241" 
d="M148 583l-33 -233h-45l47 326h43l-8 -55q31 32 54.5 46.5t54.5 14.5q9 0 14 -1l-7 -47q-56 5 -120 -51z" />
    <glyph glyph-name="s.sup" horiz-adv-x="324" 
d="M211 682q57 0 84 -28t28 -74l-38 -4q-4 71 -74 71q-41 0 -60 -15.5t-19 -39.5q0 -29 27 -44.5t59 -21t59 -26t27 -57.5q0 -48 -34 -74.5t-94 -26.5q-111 0 -120 101l39 7q4 -35 22 -54t60 -19q36 0 62.5 14.5t26.5 47.5q0 28 -27.5 43t-60 19.5t-60 25.5t-27.5 60
q0 46 35.5 70.5t84.5 24.5z" />
    <glyph glyph-name="t.sup" horiz-adv-x="253" 
d="M240 397l8 -35q-35 -20 -78 -20q-93 0 -78 96l29 202h-52l5 36h52l14 93l46 7l-15 -100h94l-5 -36h-94l-29 -202q-5 -30 3 -44t37 -14q31 0 63 17z" />
    <glyph glyph-name="u.sup" horiz-adv-x="390" 
d="M300 432l35 244h46l-48 -326h-37l2 42h-1q-65 -49 -129 -49q-102 0 -86 112l31 221h45l-30 -238q-6 -57 50 -57q58 0 122 51z" />
    <glyph glyph-name="v.sup" horiz-adv-x="327" 
d="M195 350h-51l-78 326h48l60 -282h1l141 282h46z" />
    <glyph glyph-name="w.sup" horiz-adv-x="488" 
d="M173 350h-54l-53 326h44l41 -282l118 282h52l36 -280h1l121 280h44l-145 -326h-54l-35 274z" />
    <glyph glyph-name="x.sup" horiz-adv-x="309" 
d="M297 350h-47l-72 140l-106 -140h-48l132 172l-85 154h46l67 -128l103 128h49l-129 -158z" />
    <glyph glyph-name="y.sup" horiz-adv-x="313" 
d="M135 348l-68 328h46l51 -275h1l136 275h47l-177 -345q-38 -75 -62 -99.5t-64 -24.5q-30 0 -54 12l10 33q20 -9 44 -9q40 0 71 65z" />
    <glyph glyph-name="z.sup" horiz-adv-x="305" 
d="M288 350h-253l4 30l229 261h-190l6 35h243l-5 -31l-227 -258h198z" />
    <glyph glyph-name="minusinferior" horiz-adv-x="433" 
d="M297 52h-233l6 44h234z" />
    <glyph glyph-name="plusinferior" horiz-adv-x="433" 
d="M189 -47h-47l13 95h-93l5 43h95l13 93h47l-14 -93h94l-7 -43h-93z" />
    <glyph glyph-name="equalinferior" horiz-adv-x="435" 
d="M276 -18h-230l7 46h230zM291 77h-232l6 46h232z" />
    <glyph glyph-name="a.sinf" horiz-adv-x="387" 
d="M305 180l-39 -270q-3 -28 16 -28q10 0 22 4l-5 -31q-11 -4 -29 -4q-48 0 -44 45q-48 -50 -120 -50q-49 0 -77.5 30.5t-28.5 94.5q0 86 40 150.5t124 64.5q47 0 96 -36l5 30h40zM227 -59l25 171q-38 36 -92 36q-60 0 -88.5 -54t-28.5 -118q0 -93 71 -93q58 0 113 58z" />
    <glyph glyph-name="b.sinf" horiz-adv-x="391" 
d="M41 -146h-40l69 483h45l-30 -202q64 51 126 51q101 0 101 -123q0 -107 -46.5 -162t-113.5 -55q-57 0 -103 36h-1zM81 93l-26 -170q47 -38 94 -38q61 0 89 51t28 125q0 87 -63 87q-29 0 -64.5 -18t-57.5 -37z" />
    <glyph glyph-name="c.sinf" horiz-adv-x="358" 
d="M129 -154q-130 0 -130 137q0 96 49.5 149.5t129.5 53.5q56 0 86 -35.5t23 -89.5l-42 -4q2 45 -14.5 67.5t-59.5 22.5q-50 0 -88 -38t-38 -123q0 -53 24 -77.5t62 -24.5q77 0 100 72l40 -9q-13 -50 -52 -75.5t-90 -25.5z" />
    <glyph glyph-name="d.sinf" horiz-adv-x="383" 
d="M261 -146h-36l1 38q-63 -46 -118 -46q-50 0 -78.5 31t-28.5 95q0 109 48 161.5t117 52.5q53 0 93 -33l27 184h44zM227 -67l26 184q-45 33 -86 33q-62 0 -92.5 -51.5t-30.5 -127.5q0 -86 71 -86q56 0 112 48z" />
    <glyph glyph-name="e.sinf" horiz-adv-x="345" 
d="M127 -154q-67 0 -97 39.5t-30 103.5q0 81 46 139t129 58q50 0 77 -23.5t27 -59.5q0 -70 -92 -99q-47 -14 -143 -17q0 -103 90 -103q72 0 94 65l38 -8q-14 -47 -52 -71t-87 -24zM173 149q-55 0 -87.5 -36.5t-39.5 -91.5q93 6 131 18q58 17 58 63q0 47 -62 47z" />
    <glyph glyph-name="f.sinf" horiz-adv-x="209" 
d="M226 332l-7 -36q-22 8 -46 8q-53 0 -61 -59l-10 -65h95l-5 -36h-95l-61 -426h-45l61 426h-51l5 36h51l9 60q15 102 106 102q34 0 54 -10z" />
    <glyph glyph-name="g.sinf" horiz-adv-x="373" 
d="M155 147q-41 0 -68.5 -28t-37.5 -63.5t-10 -74.5q0 -90 68 -90q60 0 116 53l24 168q-35 35 -92 35zM207 -171l12 72q-47 -47 -117 -47q-49 0 -78.5 30.5t-29.5 94.5q0 50 14.5 94.5t53.5 78.5t96 34q53 0 96 -35l6 29h40l-50 -354q-8 -54 -46.5 -84.5t-102.5 -30.5
q-119 0 -128 104l44 9q4 -34 22 -54t62 -20q93 0 106 79z" />
    <glyph glyph-name="h.sinf" horiz-adv-x="390" 
d="M82 95l-36 -241h-45l69 483h46l-32 -202q71 51 133 51q100 0 85 -110l-32 -222h-45l31 218q6 41 -4 58.5t-41 17.5q-57 0 -129 -53z" />
    <glyph glyph-name="i.sinf" horiz-adv-x="166" 
d="M90 180l-47 -326h-45l47 326h45zM120 292q0 -19 -11 -30t-30 -11q-31 0 -31 29q0 40 40 40q32 0 32 -28z" />
    <glyph glyph-name="j.sinf" horiz-adv-x="168" 
d="M-9 -198l54 378h45l-55 -378q-7 -47 -29.5 -69t-65.5 -22q-40 0 -58 12l10 35q22 -8 47 -8q44 0 52 52zM120 292q0 -19 -11 -30t-30 -11q-31 0 -31 29q0 40 40 40q32 0 32 -28z" />
    <glyph glyph-name="k.sinf" horiz-adv-x="343" 
d="M263 -146h-50l-84 177l-65 -54l-18 -123h-45l69 483h45l-45 -309l175 152h56l-135 -118z" />
    <glyph glyph-name="l.sinf" horiz-adv-x="166" 
d="M-2 -146l69 483h46l-70 -483h-45z" />
    <glyph glyph-name="m.sinf" horiz-adv-x="579" 
d="M210 186q62 0 73 -53q68 53 129 53q94 0 77 -112l-31 -220h-46l31 227q6 38 -5 52t-37 14q-52 0 -112 -50l-35 -243h-44l31 229q5 37 -6 50.5t-36 13.5q-46 0 -119 -54l-34 -239h-45l47 326h40l-5 -45h1q70 51 126 51z" />
    <glyph glyph-name="n.sinf" horiz-adv-x="391" 
d="M80 94l-34 -240h-45l47 326h42l-6 -46h1q64 52 128 52q50 0 73 -28t15 -83l-31 -221h-45l30 217q13 78 -47 78q-54 0 -128 -55z" />
    <glyph glyph-name="o.sinf" horiz-adv-x="385" 
d="M128 -154q-129 0 -129 141q0 81 46.5 140t133.5 59q64 0 95.5 -37t31.5 -102q0 -83 -45 -142t-133 -59zM133 -114q64 0 96 46.5t32 116.5q0 98 -87 98q-64 0 -97 -46.5t-33 -118.5q0 -96 89 -96z" />
    <glyph glyph-name="p.sinf" horiz-adv-x="391" 
d="M90 180l-7 -46q71 52 127 52q102 0 102 -121q0 -109 -47.5 -164t-117.5 -55q-56 0 -99 35l-24 -163h-44l68 462h42zM266 61q0 46 -15 66t-48 20q-30 0 -66 -17.5t-57 -36.5l-25 -171q42 -36 90 -36q64 0 92.5 50.5t28.5 124.5z" />
    <glyph glyph-name="q.sinf" horiz-adv-x="383" 
d="M167 186q51 0 93 -34l4 28h44l-66 -462h-43l26 171q-57 -43 -116 -43q-50 0 -79 30t-29 90q0 113 48.5 166.5t117.5 53.5zM45 -26q0 -90 68 -90q60 0 115 49l25 185q-32 32 -86 32q-61 0 -91.5 -50t-30.5 -126z" />
    <glyph glyph-name="r.sinf" horiz-adv-x="241" 
d="M79 87l-33 -233h-45l47 326h43l-8 -55q31 32 54.5 46.5t54.5 14.5q9 0 14 -1l-7 -47q-56 5 -120 -51z" />
    <glyph glyph-name="s.sinf" horiz-adv-x="324" 
d="M142 186q57 0 84 -28t28 -74l-38 -4q-4 71 -74 71q-41 0 -60 -15.5t-19 -39.5q0 -29 27 -44.5t59 -21t59 -26t27 -57.5q0 -48 -34 -74.5t-94 -26.5q-111 0 -120 101l39 7q4 -35 22 -54t60 -19q36 0 62.5 14.5t26.5 47.5q0 28 -27.5 43t-60 19.5t-60 25.5t-27.5 60
q0 46 35.5 70.5t84.5 24.5z" />
    <glyph glyph-name="t.sinf" horiz-adv-x="253" 
d="M171 -99l8 -35q-35 -20 -78 -20q-93 0 -78 96l29 202h-52l5 36h52l14 93l46 7l-15 -100h94l-5 -36h-94l-29 -202q-5 -30 3 -44t37 -14q31 0 63 17z" />
    <glyph glyph-name="u.sinf" horiz-adv-x="390" 
d="M231 -64l35 244h46l-48 -326h-37l2 42h-1q-65 -49 -129 -49q-102 0 -86 112l31 221h45l-30 -238q-6 -57 50 -57q58 0 122 51z" />
    <glyph glyph-name="v.sinf" horiz-adv-x="327" 
d="M126 -146h-51l-78 326h48l60 -282h1l141 282h46z" />
    <glyph glyph-name="w.sinf" horiz-adv-x="488" 
d="M104 -146h-54l-53 326h44l41 -282l118 282h52l36 -280h1l121 280h44l-145 -326h-54l-35 274z" />
    <glyph glyph-name="x.sinf" horiz-adv-x="309" 
d="M228 -146h-47l-72 140l-106 -140h-48l132 172l-85 154h46l67 -128l103 128h49l-129 -158z" />
    <glyph glyph-name="y.sinf" horiz-adv-x="313" 
d="M66 -148l-68 328h46l51 -275h1l136 275h47l-177 -345q-38 -75 -62 -99.5t-64 -24.5q-30 0 -54 12l10 33q20 -9 44 -9q40 0 71 65z" />
    <glyph glyph-name="z.sinf" horiz-adv-x="305" 
d="M219 -146h-253l4 30l229 261h-190l6 35h243l-5 -31l-227 -258h198z" />
    <glyph glyph-name="zero.num" horiz-adv-x="382" 
d="M184 274q-121 0 -121 158q0 48 7.5 93.5t26 94.5t58 79t95.5 30q63 0 90 -40.5t27 -116.5q0 -36 -3 -70t-15 -77.5t-30.5 -75t-53.5 -53.5t-81 -22zM186 317q134 0 134 268q0 103 -74 103q-43 0 -72.5 -28t-42 -75t-16.5 -84t-4 -77q0 -22 2 -37.5t9 -33t23 -27t41 -9.5z
" />
    <glyph glyph-name="one.num" horiz-adv-x="279" 
d="M178 281h-46l54 372q-16 -8 -49 -14t-51 -6v37q87 7 132 51h23z" />
    <glyph glyph-name="two.num" horiz-adv-x="344" 
d="M287 281h-255l5 38l126 126q76 78 100 111.5t24 71.5q0 62 -69 62q-74 0 -100 -79l-39 8q27 110 144 110q50 0 79 -24.5t29 -74.5q0 -47 -25.5 -85.5t-86.5 -97.5l-130 -126h205z" />
    <glyph glyph-name="three.num" horiz-adv-x="369" 
d="M235 729q52 0 80.5 -25t28.5 -69q0 -86 -107 -120v-2q84 -17 84 -97q0 -63 -42.5 -102.5t-109.5 -39.5q-56 0 -88.5 26.5t-35.5 76.5l42 7q10 -72 83 -72q41 0 73.5 27t32.5 79q0 76 -95 76h-38l6 38h28q54 0 88 27t34 69q0 62 -68 62q-39 0 -60.5 -16.5t-36.5 -50.5
l-41 9q15 48 53 72.5t89 24.5z" />
    <glyph glyph-name="four.num" horiz-adv-x="353" 
d="M279 281h-46l16 111h-210l5 34l239 295h60l-43 -289h55l-5 -40h-55zM94 432h162l36 241z" />
    <glyph glyph-name="five.num" horiz-adv-x="363" 
d="M337 679h-174l-38 -153q45 34 96 34q46 0 77.5 -29t31.5 -88q0 -76 -44 -122.5t-122 -46.5q-51 0 -85.5 27t-37.5 76l42 12q2 -29 22.5 -52t63.5 -23q48 0 81.5 31t33.5 98q0 39 -19.5 58.5t-52.5 19.5q-50 0 -98 -37l-31 14l49 223h211z" />
    <glyph glyph-name="six.num" horiz-adv-x="371" 
d="M367 631l-39 -10q-8 69 -66 69q-62 0 -97 -54.5t-45 -138.5q17 17 52 33.5t69 16.5q51 0 78 -28.5t27 -76.5q0 -77 -43 -123t-114 -46q-65 0 -92 42t-27 124q0 29 4.5 62.5t18.5 75t35 74t57.5 55t82.5 22.5q44 0 70.5 -24.5t28.5 -72.5zM117 457q-2 -13 -2 -41
q0 -107 78 -107q45 0 76.5 34t31.5 94q0 35 -18 53.5t-51 18.5q-61 0 -115 -52z" />
    <glyph glyph-name="seven.num" horiz-adv-x="324" 
d="M93 281h-51l243 398h-230l7 42h282l-7 -38z" />
    <glyph glyph-name="eight.num" horiz-adv-x="336" 
d="M235 508q28 -13 43 -22.5t29 -30t14 -48.5q0 -58 -44 -95.5t-117 -37.5q-62 0 -94.5 28t-32.5 72q0 90 118 134q-69 34 -69 94q0 59 42.5 93t107.5 34q54 0 83 -23.5t29 -65.5q0 -83 -109 -132zM188 488q-58 -20 -83.5 -44.5t-25.5 -63.5q0 -32 22 -50t64 -18
q54 0 83.5 27t29.5 62q0 55 -90 87zM197 525q44 19 73 48.5t29 62.5q0 55 -74 55q-44 0 -72.5 -22.5t-28.5 -57.5q0 -56 73 -86z" />
    <glyph glyph-name="nine.num" horiz-adv-x="377" 
d="M43 374l41 11q9 -71 78 -71q62 0 98 53t43 133q-19 -20 -55.5 -36t-70.5 -16q-52 0 -78 31t-26 81q0 77 44 123t115 46q120 0 120 -158q0 -136 -49.5 -216.5t-145.5 -80.5q-47 0 -77.5 26t-36.5 74zM303 542q3 21 3 41q0 108 -77 108q-46 0 -78 -32.5t-32 -92.5
q0 -78 66 -78q29 0 62.5 16t55.5 38z" />
    <glyph glyph-name="parenleft.ordn" horiz-adv-x="216" 
d="M171 208h-46q-56 101 -56 215q0 153 137 317h50q-71 -89 -104.5 -161.5t-33.5 -156.5q0 -103 53 -214z" />
    <glyph glyph-name="parenright.ordn" horiz-adv-x="216" 
d="M93 740h47q55 -102 55 -215q0 -155 -137 -317h-50q71 89 105 162t34 156q0 101 -54 214z" />
    <glyph glyph-name="hyphen.ordn" horiz-adv-x="225" 
d="M211 442h-168l5 45h170z" />
    <glyph glyph-name="comma.ordn" horiz-adv-x="174" 
d="M39 209l53 131h54l-70 -136z" />
    <glyph glyph-name="period.ordn" horiz-adv-x="179" 
d="M140 318q0 -43 -44 -43q-34 0 -34 30q0 43 44 43q34 0 34 -30z" />
    <glyph glyph-name="minus.ordn" horiz-adv-x="366" 
d="M320 480h-233l6 44h234z" />
    <glyph glyph-name="plus.ordn" horiz-adv-x="366" 
d="M223 381h-47l13 95h-93l5 43h95l13 93h47l-14 -93h94l-7 -43h-93z" />
    <glyph glyph-name="equal.ordn" horiz-adv-x="366" 
d="M315 410h-230l7 46h230zM330 505h-232l6 46h232z" />
    <glyph glyph-name="a.ordn" horiz-adv-x="387" 
d="M365 608l-39 -270q-3 -28 16 -28q10 0 22 4l-5 -31q-11 -4 -29 -4q-48 0 -44 45q-48 -50 -120 -50q-49 0 -77.5 30.5t-28.5 94.5q0 86 40 150.5t124 64.5q47 0 96 -36l5 30h40zM287 369l25 171q-38 36 -92 36q-60 0 -88.5 -54t-28.5 -118q0 -93 71 -93q58 0 113 58z" />
    <glyph glyph-name="b.ordn" horiz-adv-x="391" 
d="M101 282h-40l69 483h45l-30 -202q64 51 126 51q101 0 101 -123q0 -107 -46.5 -162t-113.5 -55q-57 0 -103 36h-1zM141 521l-26 -170q47 -38 94 -38q61 0 89 51t28 125q0 87 -63 87q-29 0 -64.5 -18t-57.5 -37z" />
    <glyph glyph-name="c.ordn" horiz-adv-x="358" 
d="M189 274q-130 0 -130 137q0 96 49.5 149.5t129.5 53.5q56 0 86 -35.5t23 -89.5l-42 -4q2 45 -14.5 67.5t-59.5 22.5q-50 0 -88 -38t-38 -123q0 -53 24 -77.5t62 -24.5q77 0 100 72l40 -9q-13 -50 -52 -75.5t-90 -25.5z" />
    <glyph glyph-name="d.ordn" horiz-adv-x="383" 
d="M321 282h-36l1 38q-63 -46 -118 -46q-50 0 -78.5 31t-28.5 95q0 109 48 161.5t117 52.5q53 0 93 -33l27 184h44zM287 361l26 184q-45 33 -86 33q-62 0 -92.5 -51.5t-30.5 -127.5q0 -86 71 -86q56 0 112 48z" />
    <glyph glyph-name="e.ordn" horiz-adv-x="345" 
d="M187 274q-67 0 -97 39.5t-30 103.5q0 81 46 139t129 58q50 0 77 -23.5t27 -59.5q0 -70 -92 -99q-47 -14 -143 -17q0 -103 90 -103q72 0 94 65l38 -8q-14 -47 -52 -71t-87 -24zM233 577q-55 0 -87.5 -36.5t-39.5 -91.5q93 6 131 18q58 17 58 63q0 47 -62 47z" />
    <glyph glyph-name="f.ordn" horiz-adv-x="209" 
d="M286 760l-7 -36q-22 8 -46 8q-53 0 -61 -59l-10 -65h95l-5 -36h-95l-61 -426h-45l61 426h-51l5 36h51l9 60q15 102 106 102q34 0 54 -10z" />
    <glyph glyph-name="g.ordn" horiz-adv-x="373" 
d="M215 575q-41 0 -68.5 -28t-37.5 -63.5t-10 -74.5q0 -90 68 -90q60 0 116 53l24 168q-35 35 -92 35zM267 257l12 72q-47 -47 -117 -47q-49 0 -78.5 30.5t-29.5 94.5q0 50 14.5 94.5t53.5 78.5t96 34q53 0 96 -35l6 29h40l-50 -354q-8 -54 -46.5 -84.5t-102.5 -30.5
q-119 0 -128 104l44 9q4 -34 22 -54t62 -20q93 0 106 79z" />
    <glyph glyph-name="h.ordn" horiz-adv-x="390" 
d="M142 523l-36 -241h-45l69 483h46l-32 -202q71 51 133 51q100 0 85 -110l-32 -222h-45l31 218q6 41 -4 58.5t-41 17.5q-57 0 -129 -53z" />
    <glyph glyph-name="i.ordn" horiz-adv-x="166" 
d="M150 608l-47 -326h-45l47 326h45zM180 720q0 -19 -11 -30t-30 -11q-31 0 -31 29q0 40 40 40q32 0 32 -28z" />
    <glyph glyph-name="j.ordn" horiz-adv-x="168" 
d="M51 230l54 378h45l-55 -378q-7 -47 -29.5 -69t-65.5 -22q-40 0 -58 12l10 35q22 -8 47 -8q44 0 52 52zM180 720q0 -19 -11 -30t-30 -11q-31 0 -31 29q0 40 40 40q32 0 32 -28z" />
    <glyph glyph-name="k.ordn" horiz-adv-x="343" 
d="M323 282h-50l-84 177l-65 -54l-18 -123h-45l69 483h45l-45 -309l175 152h56l-135 -118z" />
    <glyph glyph-name="l.ordn" horiz-adv-x="166" 
d="M58 282l69 483h46l-70 -483h-45z" />
    <glyph glyph-name="m.ordn" horiz-adv-x="579" 
d="M270 614q62 0 73 -53q68 53 129 53q94 0 77 -112l-31 -220h-46l31 227q6 38 -5 52t-37 14q-52 0 -112 -50l-35 -243h-44l31 229q5 37 -6 50.5t-36 13.5q-46 0 -119 -54l-34 -239h-45l47 326h40l-5 -45h1q70 51 126 51z" />
    <glyph glyph-name="n.ordn" horiz-adv-x="391" 
d="M140 522l-34 -240h-45l47 326h42l-6 -46h1q64 52 128 52q50 0 73 -28t15 -83l-31 -221h-45l30 217q13 78 -47 78q-54 0 -128 -55z" />
    <glyph glyph-name="o.ordn" horiz-adv-x="385" 
d="M188 274q-129 0 -129 141q0 81 46.5 140t133.5 59q64 0 95.5 -37t31.5 -102q0 -83 -45 -142t-133 -59zM193 314q64 0 96 46.5t32 116.5q0 98 -87 98q-64 0 -97 -46.5t-33 -118.5q0 -96 89 -96z" />
    <glyph glyph-name="p.ordn" horiz-adv-x="391" 
d="M150 608l-7 -46q71 52 127 52q102 0 102 -121q0 -109 -47.5 -164t-117.5 -55q-56 0 -99 35l-24 -163h-44l68 462h42zM326 489q0 46 -15 66t-48 20q-30 0 -66 -17.5t-57 -36.5l-25 -171q42 -36 90 -36q64 0 92.5 50.5t28.5 124.5z" />
    <glyph glyph-name="q.ordn" horiz-adv-x="383" 
d="M227 614q51 0 93 -34l4 28h44l-66 -462h-43l26 171q-57 -43 -116 -43q-50 0 -79 30t-29 90q0 113 48.5 166.5t117.5 53.5zM105 402q0 -90 68 -90q60 0 115 49l25 185q-32 32 -86 32q-61 0 -91.5 -50t-30.5 -126z" />
    <glyph glyph-name="r.ordn" horiz-adv-x="241" 
d="M139 515l-33 -233h-45l47 326h43l-8 -55q31 32 54.5 46.5t54.5 14.5q9 0 14 -1l-7 -47q-56 5 -120 -51z" />
    <glyph glyph-name="s.ordn" horiz-adv-x="324" 
d="M202 614q57 0 84 -28t28 -74l-38 -4q-4 71 -74 71q-41 0 -60 -15.5t-19 -39.5q0 -29 27 -44.5t59 -21t59 -26t27 -57.5q0 -48 -34 -74.5t-94 -26.5q-111 0 -120 101l39 7q4 -35 22 -54t60 -19q36 0 62.5 14.5t26.5 47.5q0 28 -27.5 43t-60 19.5t-60 25.5t-27.5 60
q0 46 35.5 70.5t84.5 24.5z" />
    <glyph glyph-name="t.ordn" horiz-adv-x="253" 
d="M231 329l8 -35q-35 -20 -78 -20q-93 0 -78 96l29 202h-52l5 36h52l14 93l46 7l-15 -100h94l-5 -36h-94l-29 -202q-5 -30 3 -44t37 -14q31 0 63 17z" />
    <glyph glyph-name="u.ordn" horiz-adv-x="390" 
d="M291 364l35 244h46l-48 -326h-37l2 42h-1q-65 -49 -129 -49q-102 0 -86 112l31 221h45l-30 -238q-6 -57 50 -57q58 0 122 51z" />
    <glyph glyph-name="v.ordn" horiz-adv-x="327" 
d="M186 282h-51l-78 326h48l60 -282h1l141 282h46z" />
    <glyph glyph-name="w.ordn" horiz-adv-x="488" 
d="M164 282h-54l-53 326h44l41 -282l118 282h52l36 -280h1l121 280h44l-145 -326h-54l-35 274z" />
    <glyph glyph-name="x.ordn" horiz-adv-x="309" 
d="M288 282h-47l-72 140l-106 -140h-48l132 172l-85 154h46l67 -128l103 128h49l-129 -158z" />
    <glyph glyph-name="y.ordn" horiz-adv-x="313" 
d="M126 280l-68 328h46l51 -275h1l136 275h47l-177 -345q-38 -75 -62 -99.5t-64 -24.5q-30 0 -54 12l10 33q20 -9 44 -9q40 0 71 65z" />
    <glyph glyph-name="z.ordn" horiz-adv-x="305" 
d="M279 282h-253l4 30l229 261h-190l6 35h243l-5 -31l-227 -258h198z" />
    <glyph glyph-name="zero.denom" horiz-adv-x="382" 
d="M145 -5q-121 0 -121 158q0 48 7.5 93.5t26 94.5t58 79t95.5 30q63 0 90 -40.5t27 -116.5q0 -36 -3 -70t-15 -77.5t-30.5 -75t-53.5 -53.5t-81 -22zM147 38q134 0 134 268q0 103 -74 103q-43 0 -72.5 -28t-42 -75t-16.5 -84t-4 -77q0 -22 2 -37.5t9 -33t23 -27t41 -9.5z
" />
    <glyph glyph-name="one.denom" horiz-adv-x="279" 
d="M139 3h-46l54 372q-16 -8 -49 -14t-51 -6v37q87 7 132 51h23z" />
    <glyph glyph-name="two.denom" horiz-adv-x="344" 
d="M248 0h-255l5 38l126 126q76 78 100 111.5t24 71.5q0 62 -69 62q-74 0 -100 -79l-39 8q27 110 144 110q50 0 79 -24.5t29 -74.5q0 -47 -25.5 -85.5t-86.5 -97.5l-130 -126h205z" />
    <glyph glyph-name="three.denom" horiz-adv-x="369" 
d="M196 450q52 0 80.5 -25t28.5 -69q0 -86 -107 -120v-2q84 -17 84 -97q0 -63 -42.5 -102.5t-109.5 -39.5q-56 0 -88.5 26.5t-35.5 76.5l42 7q10 -72 83 -72q41 0 73.5 27t32.5 79q0 76 -95 76h-38l6 38h28q54 0 88 27t34 69q0 62 -68 62q-39 0 -60.5 -16.5t-36.5 -50.5
l-41 9q15 48 53 72.5t89 24.5z" />
    <glyph glyph-name="four.denom" horiz-adv-x="353" 
d="M240 0h-46l16 111h-210l5 34l239 295h60l-43 -289h55l-5 -40h-55zM55 151h162l36 241z" />
    <glyph glyph-name="five.denom" horiz-adv-x="363" 
d="M298 400h-174l-38 -153q45 34 96 34q46 0 77.5 -29t31.5 -88q0 -76 -44 -122.5t-122 -46.5q-51 0 -85.5 27t-37.5 76l42 12q2 -29 22.5 -52t63.5 -23q48 0 81.5 31t33.5 98q0 39 -19.5 58.5t-52.5 19.5q-50 0 -98 -37l-31 14l49 223h211z" />
    <glyph glyph-name="six.denom" horiz-adv-x="371" 
d="M328 352l-39 -10q-8 69 -66 69q-62 0 -97 -54.5t-45 -138.5q17 18 52 34t69 16q51 0 78 -28.5t27 -76.5q0 -77 -43 -123t-114 -46q-65 0 -92 42t-27 124q0 29 4.5 62.5t18.5 75t35 74t57.5 55t82.5 22.5q44 0 70.5 -24.5t28.5 -72.5zM78 178q-2 -13 -2 -41
q0 -107 78 -107q45 0 76.5 34t31.5 94q0 35 -18 53.5t-51 18.5q-61 0 -115 -52z" />
    <glyph glyph-name="seven.denom" horiz-adv-x="324" 
d="M54 0h-51l243 398h-230l7 42h282l-7 -38z" />
    <glyph glyph-name="eight.denom" horiz-adv-x="336" 
d="M196 229q28 -13 43 -22.5t29 -30t14 -48.5q0 -58 -44 -95.5t-117 -37.5q-62 0 -94.5 28t-32.5 72q0 90 118 134q-69 34 -69 94q0 59 42.5 93t107.5 34q54 0 83 -23.5t29 -65.5q0 -83 -109 -132zM149 209q-58 -20 -83.5 -44.5t-25.5 -63.5q0 -32 22 -50t64 -18
q54 0 83.5 27t29.5 62q0 55 -90 87zM158 246q44 19 73 48.5t29 62.5q0 55 -74 55q-44 0 -72.5 -22.5t-28.5 -57.5q0 -56 73 -86z" />
    <glyph glyph-name="nine.denom" horiz-adv-x="377" 
d="M4 95l41 11q9 -71 78 -71q62 0 98 53t43 133q-19 -20 -55.5 -36t-70.5 -16q-52 0 -78 31t-26 81q0 77 44 123t115 46q120 0 120 -158q0 -136 -49.5 -216.5t-145.5 -80.5q-47 0 -77.5 26t-36.5 74zM264 263q3 21 3 41q0 108 -77 108q-46 0 -78 -32.5t-32 -92.5
q0 -78 66 -78q29 0 62.5 16t55.5 38z" />
    <glyph glyph-name="square" horiz-adv-x="610" 
d="M479 151h-349v349h349v-349z" />
    <glyph glyph-name="square.open" horiz-adv-x="610" 
d="M434 196v259h-259v-259h259zM479 151h-349v349h349v-349z" />
    <glyph glyph-name="circle.open" horiz-adv-x="610" 
d="M305 119q-85 0 -145 60t-60 145t60 145t145 60t145 -60t60 -145t-60 -145t-145 -60zM305 167q63 0 107 47.5t44 112.5q0 64 -43.5 108.5t-107.5 44.5t-107 -45.5t-43 -110.5t43 -111t107 -46z" />
    <glyph glyph-name="doublecircle" horiz-adv-x="610" 
d="M305 269q22 0 37.5 16.5t15.5 39.5t-15.5 38.5t-37.5 15.5t-37.5 -16.5t-15.5 -38.5q0 -23 15.5 -39t37.5 -16zM305 180q-59 0 -101.5 42.5t-42.5 101.5t42.5 101t101.5 42t101 -42t42 -101t-42 -101.5t-101 -42.5zM305 214q44 0 75 33.5t31 78.5t-31 76t-75 31
t-74.5 -32t-30.5 -77q0 -46 30 -78t75 -32z" />
    <glyph glyph-name="triangle.left" horiz-adv-x="425" 
d="M275 203l-185 117l185 114v-231z" />
    <glyph glyph-name="raute" horiz-adv-x="610" 
d="M514 325l-210 -209l-209 210l210 209z" />
    <glyph glyph-name="arrowlong.left" horiz-adv-x="540" 
d="M566 387l-8 -42h-482l73 -155h-47l-90 177l141 173h55l-119 -153h477z" />
    <glyph glyph-name="arrowlong.right" horiz-adv-x="540" 
d="M1 343l8 42h482l-73 155h47l90 -177l-141 -173h-55l119 153h-477z" />
    <glyph glyph-name="arrowlong.up" horiz-adv-x="540" 
d="M276 91h-49l65 474l-163 -87l10 54l191 108l159 -115l-6 -44l-140 90z" />
    <glyph glyph-name="arrowlong.down" horiz-adv-x="540" 
d="M293 640h49l-65 -474l163 87l-10 -54l-190 -109l-160 116l6 46l140 -92z" />
    <glyph glyph-name="arrowlong.leftup" horiz-adv-x="540" 
d="M507 189l-34 -33l-336 338l-40 -174l-38 34l44 206l205 42l35 -32l-174 -38z" />
    <glyph glyph-name="arrowlong.leftdown" horiz-adv-x="540" 
d="M493 602l34 -33l-338 -341l174 -38l-35 -34l-205 42l-44 206l38 34l40 -174z" />
    <glyph glyph-name="arrowlong.rightup" horiz-adv-x="540" 
d="M93 156l-34 33l338 343l-174 38l35 32l205 -42l44 -206l-38 -34l-40 174z" />
    <glyph glyph-name="arrowlong.rightdown" horiz-adv-x="540" 
d="M69 569l34 33l336 -338l40 174l38 -34l-44 -206l-205 -42l-36 36l174 38z" />
    <glyph glyph-name="ornm1" horiz-adv-x="600" 
d="M550 500v-500h-500v500h500z" />
    <glyph glyph-name="ornm2" horiz-adv-x="500" 
d="M211 351l44 143l43 -143l147 32l-102 -108l102 -111l-147 33l-43 -144l-44 144l-148 -33l102 111l-102 108z" />
    <glyph glyph-name="ornm3" horiz-adv-x="500" 
d="M203 352l49 137l48 -137l144 -4l-116 -87l43 -140l-119 83l-120 -83l43 140l-116 87z" />
    <glyph glyph-name="ornm4" horiz-adv-x="500" 
d="M59 348l144 4l48 134v-283l-119 -82l43 140z" />
    <glyph glyph-name="ornm5" horiz-adv-x="500" 
d="M252 489l48 -137l144 -4l-116 -87l43 -140l-119 83v285z" />
    <glyph glyph-name="ornm6" horiz-adv-x="752" 
d="M291 195l298 334l113 -105l-390 -425l-262 204l95 114z" />
    <glyph glyph-name="ornm7" horiz-adv-x="634" 
d="M205 260l-155 144l105 113l155 -143l145 157l113 -105l-144 -158l160 -147l-106 -115l-159 148l-141 -154l-115 106z" />
    <glyph glyph-name="ornm8" horiz-adv-x="844" 
d="M50 377q0 97 65 163t163 66q102 0 166.5 -63t64.5 -164q0 -54 -21 -102l306 -199l-58 -92l-301 219q-62 -54 -157 -54q-101 0 -164.5 62.5t-63.5 163.5zM132 377q0 -66 40.5 -108t105.5 -42t107 42.5t42 109.5t-42 109.5t-107 42.5q-64 0 -105 -43.5t-41 -110.5z" />
    <glyph glyph-name="ornm9" horiz-adv-x="818" 
d="M631 476h-127v115h-317v-285h-137v-243h102v-63h514v63h102v243h-137v170zM152 -111v65h514v-65h-514zM631 499h-102v92l7 5l100 -90z" />
    <glyph glyph-name="ornm10" horiz-adv-x="562" 
d="M148 489q0 60 37.5 97.5t95.5 37.5t96 -37.5t38 -97.5q0 -42 -19.5 -74t-52.5 -48v-4q90 -6 129.5 -47t39.5 -128v-188h-462v188q0 88 39.5 128.5t129.5 46.5v4q-71 35 -71 122z" />
    <glyph glyph-name="ornm11" horiz-adv-x="720" 
d="M122 210h-72v-210h620v210h-73v-142h-475v142zM261 382l-25 237h247l-21 -237h116l-218 -218l-214 218h115z" />
    <glyph glyph-name="ornm12" horiz-adv-x="571" 
d="M50 0v615h113v-299q0 -82 15 -117t57 -35t56 34.5t14 117.5v161h-45v-161q0 -68 -4 -90.5t-21 -22.5q-19 0 -23.5 23t-4.5 90v299h314v-615h-471z" />
    <glyph glyph-name="ornm13" horiz-adv-x="774" 
d="M468 -80h-157v8q0 46 -32.5 79t-79.5 33q-38 0 -66 -22l-82 143q39 18 53.5 60t-0.5 83.5t-54 59.5l83 141q29 -21 66 -21q47 0 79.5 32.5t32.5 78.5v11h158q0 -2 -0.5 -5.5t-0.5 -5.5q0 -47 32 -79t79 -32q36 0 65 21l80 -138q-32 -12 -51.5 -40.5t-19.5 -64.5t19.5 -64
t51.5 -40l-80 -138q-28 20 -65 20q-46 0 -78.5 -32.5t-32.5 -79.5v-8zM239 268q0 -66 41.5 -107.5t105.5 -41.5t106 41.5t42 107.5t-42 107.5t-106 41.5t-105.5 -41.5t-41.5 -107.5z" />
    <glyph glyph-name="ornm14" horiz-adv-x="541" 
d="M491 0h-441v406h54q0 140 34.5 199.5t132.5 59.5q100 0 133 -56.5t33 -202.5h54v-406zM271 598q-57 0 -75.5 -38.5t-18.5 -153.5h188q0 115 -18 153.5t-76 38.5zM246 205l-15 -96h80l-16 96q25 12 25 38q0 23 -13.5 35.5t-35.5 12.5t-35.5 -12.5t-13.5 -35.5
q0 -25 24 -38z" />
    <glyph glyph-name="ornm15" horiz-adv-x="729" 
d="M245 205l-14 -96h79l-15 96q25 12 25 38q0 23 -14 35.5t-36 12.5q-21 0 -34.5 -12.5t-13.5 -35.5q0 -25 23 -38zM679 424h-73q0 102 -18 138t-75 36q-58 0 -76 -38.5t-18 -153.5h72v-406h-441v406h296q0 140 34.5 199.5t132.5 59.5q100 0 133 -54t33 -187z" />
    <glyph glyph-name="ornm16" horiz-adv-x="846" 
d="M50 429l371 -320l375 318v-427h-746v429zM421 176l-350 302h704z" />
    <glyph glyph-name="ornm17" horiz-adv-x="846" 
d="M796 601v-89h-255l30 89h225zM50 478h746v-478h-746v478z" />
    <glyph glyph-name="ornm18" horiz-adv-x="785" 
d="M283 -50l-2 7q104 40 102 136q-56 1 -113 18t-107 49t-81.5 83.5t-31.5 113.5q0 63 32 115t83.5 84t111 49t119.5 17q133 1 236 -75.5t103 -190.5q0 -156 -193 -237q-56 -169 -259 -169z" />
    <glyph glyph-name="ornm19" horiz-adv-x="706" 
d="M50 68q0 37 22.5 58.5t57.5 21.5q36 0 58 -22t22 -58q0 -37 -22 -58.5t-58 -21.5q-35 0 -57.5 22t-22.5 58zM435 0h-107q0 113 -76 186.5t-186 73.5v104q156 0 262.5 -103t106.5 -261zM656 0h-110q0 136 -64 246t-173.5 171t-242.5 61v104q162 0 297 -74t214 -208
t79 -300z" />
    <glyph glyph-name="ornm20" horiz-adv-x="785" 
d="M376 0v183h-101v-183h-103v283h-122l345 355l123 -129v103h101v-208l116 -121h-114v-283h-245z" />
    <glyph glyph-name="eng.sc" horiz-adv-x="566" 
d="M440 0l-13 -90q-10 -71 -40 -102t-91 -31q-15 0 -43 5t-38 11l13 42q36 -13 70 -13q35 0 54 19.5t26 64.5l13 90l-230 506l-71 -502h-44l76 548h67l217 -477l66 477h44z" />
    <glyph glyph-name="eth.sc" horiz-adv-x="565" 
d="M194 0h-141l37 265h-60l6 39h59l34 244h155q118 0 175 -58t57 -162q0 -149 -80.5 -238.5t-241.5 -89.5zM104 41h96q127 0 197 75t70 215q0 95 -49 135.5t-143 40.5h-106l-29 -203h184l-6 -39h-183z" />
    <glyph glyph-name="thorn.sc" horiz-adv-x="470" 
d="M109 124l-17 -124h-46l76 548h46l-11 -82h103q85 0 128.5 -38.5t43.5 -102.5q0 -101 -61 -151t-170 -50h-92zM115 168h91q84 0 132.5 34t48.5 118q0 60 -37.5 82.5t-110.5 22.5h-88z" />
    <glyph glyph-name="kgreenlandic.sc" horiz-adv-x="476" 
d="M168 548l-39 -278l292 278h59l-252 -239l192 -309h-55l-172 274l-72 -65l-29 -209h-46l76 548h46z" />
    <glyph glyph-name="dotlessi.sc" horiz-adv-x="218" 
d="M91 0h-45l76 548h45z" />
    <glyph glyph-name="aacute.sc" horiz-adv-x="495" 
d="M252 548h65l109 -548h-49l-35 178h-216l-84 -178h-49zM335 221l-55 289l-135 -289h190zM266 626l130 164h78l-169 -178z" />
    <glyph glyph-name="abreve.sc" horiz-adv-x="495" 
d="M252 548h65l109 -548h-49l-35 178h-216l-84 -178h-49zM335 221l-55 289l-135 -289h190zM297 653q49 0 74 26t35 90l41 -5q-14 -150 -152 -150q-133 0 -113 148l41 6q-5 -59 11.5 -87t62.5 -28z" />
    <glyph glyph-name="acircumflex.sc" horiz-adv-x="495" 
d="M252 548h65l109 -548h-49l-35 178h-216l-84 -178h-49zM335 221l-55 289l-135 -289h190zM432 625l-44 -7l-82 130l-115 -132l-44 9l138 165h49z" />
    <glyph glyph-name="adieresis.sc" horiz-adv-x="495" 
d="M252 548h65l109 -548h-49l-35 178h-216l-84 -178h-49zM335 221l-55 289l-135 -289h190zM162 700q0 23 14.5 37t38.5 14q37 0 37 -38q0 -23 -14 -36.5t-36 -13.5q-40 0 -40 37zM354 700q0 23 14.5 37t37.5 14q17 0 27.5 -10t10.5 -28q0 -23 -14 -36.5t-36 -13.5
q-40 0 -40 37z" />
    <glyph glyph-name="aeacute.sc" horiz-adv-x="764" 
d="M677 0h-308l36 251h-176l-182 -251h-53l399 548h356l-5 -41h-255l-31 -213h238l-6 -42h-237l-31 -212h262zM411 293l31 214h-31l-155 -214h155zM523 626l130 164h78l-169 -178z" />
    <glyph glyph-name="agrave.sc" horiz-adv-x="495" 
d="M252 548h65l109 -548h-49l-35 178h-216l-84 -178h-49zM335 221l-55 289l-135 -289h190zM326 626l-39 -14l-119 178h68z" />
    <glyph glyph-name="amacron.sc" horiz-adv-x="495" 
d="M252 548h65l109 -548h-49l-35 178h-216l-84 -178h-49zM335 221l-55 289l-135 -289h190zM162 688l7 42h277l-7 -42h-277z" />
    <glyph glyph-name="aogonek.sc" horiz-adv-x="495" 
d="M423 -132l33 -19q-37 -67 -105 -67q-37 0 -61.5 20.5t-24.5 56.5q0 46 29.5 80.5t80.5 68.5l-33 170h-216l-84 -178h-49l259 548h65l109 -548q-46 -32 -64 -46.5t-33.5 -38t-15.5 -49.5q0 -18 11 -30.5t33 -12.5q34 0 66 45zM335 221l-55 289l-135 -289h190z" />
    <glyph glyph-name="aring.sc" horiz-adv-x="495" 
d="M395 649q0 -41 -20.5 -69.5t-56.5 -38.5l108 -541h-49l-35 178h-216l-84 -178h-49l256 541q-55 14 -55 75q0 52 33 81.5t79 29.5q40 0 64.5 -19.5t24.5 -58.5zM335 221l-55 289l-135 -289h190zM286 572q32 0 49.5 20.5t17.5 51.5q0 48 -51 48q-30 0 -49 -18.5t-19 -53.5
q0 -48 52 -48z" />
    <glyph glyph-name="aringacute.sc" horiz-adv-x="495" 
d="M394 634q0 -83 -73 -106l105 -528h-49l-35 178h-216l-84 -178h-49l249 527q-49 17 -49 74q0 52 33 81.5t79 29.5q40 0 64.5 -19.5t24.5 -58.5zM335 221l-55 289l-135 -289h190zM285 557q32 0 49.5 20.5t17.5 51.5q0 48 -51 48q-30 0 -49 -18.5t-19 -53.5q0 -48 52 -48z
M279 746l114 130h81l-156 -144z" />
    <glyph glyph-name="atilde.sc" horiz-adv-x="495" 
d="M252 548h65l109 -548h-49l-35 178h-216l-84 -178h-49zM335 221l-55 289l-135 -289h190zM231 737q33 0 73.5 -24t60.5 -24q42 0 52 59l37 -2q-8 -56 -30.5 -76t-59.5 -20q-30 0 -72 23t-65 23q-38 0 -48 -60l-37 2q12 99 89 99z" />
    <glyph glyph-name="cacute.sc" horiz-adv-x="525" 
d="M421 153l42 -10q-48 -155 -223 -155q-102 0 -151.5 59.5t-49.5 161.5q0 162 81 255.5t207 93.5q85 0 131 -48t42 -137l-44 -5q2 148 -134 148q-106 0 -170 -79.5t-64 -220.5q0 -187 159 -187q68 0 109 29.5t65 94.5zM267 626l130 164h78l-169 -178z" />
    <glyph glyph-name="ccaron.sc" horiz-adv-x="525" 
d="M421 153l42 -10q-48 -155 -223 -155q-102 0 -151.5 59.5t-49.5 161.5q0 162 81 255.5t207 93.5q85 0 131 -48t42 -137l-44 -5q2 148 -134 148q-106 0 -170 -79.5t-64 -220.5q0 -187 159 -187q68 0 109 29.5t65 94.5zM209 777l46 6l80 -131l115 134l44 -9l-138 -165h-49z
" />
    <glyph glyph-name="ccedilla.sc" horiz-adv-x="525" 
d="M128 -190l15 33q27 -22 61 -22q28 0 45 14t17 42q0 45 -74 47l18 66q-87 8 -129 66.5t-42 152.5q0 162 81 255.5t207 93.5q85 0 131 -48t42 -137l-44 -5q2 148 -134 148q-106 0 -170 -79.5t-64 -220.5q0 -187 159 -187q68 0 109 29.5t65 94.5l42 -10q-47 -150 -213 -155
l-10 -37q26 -4 48 -21t22 -50q0 -46 -29.5 -70.5t-70.5 -24.5q-51 0 -82 25z" />
    <glyph glyph-name="ccircumflex.sc" horiz-adv-x="525" 
d="M421 153l42 -10q-48 -155 -223 -155q-102 0 -151.5 59.5t-49.5 161.5q0 162 81 255.5t207 93.5q85 0 131 -48t42 -137l-44 -5q2 148 -134 148q-106 0 -170 -79.5t-64 -220.5q0 -187 159 -187q68 0 109 29.5t65 94.5zM477 625l-44 -7l-82 130l-115 -132l-44 9l138 165h49z
" />
    <glyph glyph-name="cdotaccent.sc" horiz-adv-x="525" 
d="M421 153l42 -10q-48 -155 -223 -155q-102 0 -151.5 59.5t-49.5 161.5q0 162 81 255.5t207 93.5q85 0 131 -48t42 -137l-44 -5q2 148 -134 148q-106 0 -170 -79.5t-64 -220.5q0 -187 159 -187q68 0 109 29.5t65 94.5zM390 725q0 -23 -13.5 -36.5t-36.5 -13.5q-38 0 -38 36
q0 23 13 36.5t37 13.5q38 0 38 -36z" />
    <glyph glyph-name="dcaron.sc" horiz-adv-x="558" 
d="M187 0h-141l76 548h155q118 0 175 -58t57 -162q0 -149 -80.5 -238.5t-241.5 -89.5zM97 41h96q127 0 197 75t70 215q0 95 -49 135.5t-143 40.5h-106zM177 777l46 6l80 -131l115 134l44 -9l-138 -165h-49z" />
    <glyph glyph-name="dcroat.sc" horiz-adv-x="565" 
d="M194 0h-141l37 265h-60l6 39h59l34 244h155q118 0 175 -58t57 -162q0 -149 -80.5 -238.5t-241.5 -89.5zM104 41h96q127 0 197 75t70 215q0 95 -49 135.5t-143 40.5h-106l-29 -203h184l-6 -39h-183z" />
    <glyph glyph-name="eacute.sc" horiz-adv-x="438" 
d="M354 0h-308l76 548h301l-5 -41h-256l-29 -209h239l-6 -42h-238l-30 -216h262zM221 626l130 164h78l-169 -178z" />
    <glyph glyph-name="ebreve.sc" horiz-adv-x="438" 
d="M354 0h-308l76 548h301l-5 -41h-256l-29 -209h239l-6 -42h-238l-30 -216h262zM288 653q49 0 74 26t35 90l41 -5q-14 -150 -152 -150q-133 0 -113 148l41 6q-5 -59 11.5 -87t62.5 -28z" />
    <glyph glyph-name="ecaron.sc" horiz-adv-x="438" 
d="M354 0h-308l76 548h301l-5 -41h-256l-29 -209h239l-6 -42h-238l-30 -216h262zM163 777l46 6l80 -131l115 134l44 -9l-138 -165h-49z" />
    <glyph glyph-name="ecircumflex.sc" horiz-adv-x="438" 
d="M354 0h-308l76 548h301l-5 -41h-256l-29 -209h239l-6 -42h-238l-30 -216h262zM425 625l-44 -7l-82 130l-115 -132l-44 9l138 165h49z" />
    <glyph glyph-name="edieresis.sc" horiz-adv-x="438" 
d="M354 0h-308l76 548h301l-5 -41h-256l-29 -209h239l-6 -42h-238l-30 -216h262zM148 700q0 23 14.5 37t38.5 14q37 0 37 -38q0 -23 -14 -36.5t-36 -13.5q-40 0 -40 37zM340 700q0 23 14.5 37t37.5 14q17 0 27.5 -10t10.5 -28q0 -23 -14 -36.5t-36 -13.5q-40 0 -40 37z" />
    <glyph glyph-name="edotaccent.sc" horiz-adv-x="438" 
d="M354 0h-308l76 548h301l-5 -41h-256l-29 -209h239l-6 -42h-238l-30 -216h262zM344 725q0 -23 -13.5 -36.5t-36.5 -13.5q-38 0 -38 36q0 23 13 36.5t37 13.5q38 0 38 -36z" />
    <glyph glyph-name="egrave.sc" horiz-adv-x="438" 
d="M354 0h-308l76 548h301l-5 -41h-256l-29 -209h239l-6 -42h-238l-30 -216h262zM335 626l-39 -14l-119 178h68z" />
    <glyph glyph-name="emacron.sc" horiz-adv-x="438" 
d="M354 0h-308l76 548h301l-5 -41h-256l-29 -209h239l-6 -42h-238l-30 -216h262zM155 688l7 42h277l-7 -42h-277z" />
    <glyph glyph-name="eogonek.sc" horiz-adv-x="438" 
d="M312 -132l33 -19q-37 -67 -105 -67q-37 0 -61.5 20.5t-24.5 56.5q0 43 26 76t72 65h-206l76 548h301l-5 -41h-256l-29 -209h239l-6 -42h-238l-30 -216h262l-6 -40h-43q-63 -46 -86 -72t-23 -62q0 -18 11 -30.5t33 -12.5q34 0 66 45z" />
    <glyph glyph-name="gbreve.sc" horiz-adv-x="553" 
d="M486 283l-39 -283h-35l3 74q-19 -35 -70.5 -60.5t-110.5 -25.5q-98 0 -146.5 60.5t-48.5 165.5q0 161 80.5 252.5t209.5 91.5q85 0 130.5 -44.5t40.5 -134.5l-44 -4q3 76 -30 109t-101 33q-108 0 -173 -80.5t-65 -220.5q0 -188 159 -188q76 0 126 46.5t58 109.5l8 60
h-162l6 39h204zM338 653q49 0 74 26t35 90l41 -5q-14 -150 -152 -150q-133 0 -113 148l41 6q-5 -59 11.5 -87t62.5 -28z" />
    <glyph glyph-name="gcircumflex.sc" horiz-adv-x="553" 
d="M486 283l-39 -283h-35l3 74q-19 -35 -70.5 -60.5t-110.5 -25.5q-98 0 -146.5 60.5t-48.5 165.5q0 161 80.5 252.5t209.5 91.5q85 0 130.5 -44.5t40.5 -134.5l-44 -4q3 76 -30 109t-101 33q-108 0 -173 -80.5t-65 -220.5q0 -188 159 -188q76 0 126 46.5t58 109.5l8 60
h-162l6 39h204zM479 625l-44 -7l-82 130l-115 -132l-44 9l138 165h49z" />
    <glyph glyph-name="gdotaccent.sc" horiz-adv-x="553" 
d="M486 283l-39 -283h-35l3 74q-19 -35 -70.5 -60.5t-110.5 -25.5q-98 0 -146.5 60.5t-48.5 165.5q0 161 80.5 252.5t209.5 91.5q85 0 130.5 -44.5t40.5 -134.5l-44 -4q3 76 -30 109t-101 33q-108 0 -173 -80.5t-65 -220.5q0 -188 159 -188q76 0 126 46.5t58 109.5l8 60
h-162l6 39h204zM392 725q0 -23 -13.5 -36.5t-36.5 -13.5q-38 0 -38 36q0 23 13 36.5t37 13.5q38 0 38 -36z" />
    <glyph glyph-name="gcommaaccent.sc" horiz-adv-x="553" 
d="M486 283l-39 -283h-35l3 74q-19 -35 -70.5 -60.5t-110.5 -25.5q-98 0 -146.5 60.5t-48.5 165.5q0 161 80.5 252.5t209.5 91.5q85 0 130.5 -44.5t40.5 -134.5l-44 -4q3 76 -30 109t-101 33q-108 0 -173 -80.5t-65 -220.5q0 -188 159 -188q76 0 126 46.5t58 109.5l8 60
h-162l6 39h204zM148 -212l53 143h62l-78 -150z" />
    <glyph glyph-name="hbar.sc" horiz-adv-x="552" 
d="M501 548l-15 -103h60l-7 -39h-58l-56 -406h-47l36 263h-288l-36 -263h-45l56 406h-59l7 39h58l14 103h45l-14 -103h287l15 103h47zM132 303h287l14 103h-287z" />
    <glyph glyph-name="hcircumflex.sc" horiz-adv-x="552" 
d="M501 548l-76 -548h-47l36 263h-288l-36 -263h-45l76 548h45l-34 -245h287l35 245h47zM461 625l-44 -7l-82 130l-115 -132l-44 9l138 165h49z" />
    <glyph glyph-name="iacute.sc" horiz-adv-x="218" 
d="M91 0h-45l76 548h45zM124 626l130 164h78l-169 -178z" />
    <glyph glyph-name="ibreve.sc" horiz-adv-x="218" 
d="M91 0h-45l76 548h45zM157 653q49 0 74 26t35 90l41 -5q-14 -150 -152 -150q-133 0 -113 148l41 6q-5 -59 11.5 -87t62.5 -28z" />
    <glyph glyph-name="icircumflex.sc" horiz-adv-x="218" 
d="M91 0h-45l76 548h45zM298 625l-44 -7l-82 130l-115 -132l-44 9l138 165h49z" />
    <glyph glyph-name="idieresis.sc" horiz-adv-x="218" 
d="M91 0h-45l76 548h45zM22 700q0 23 14.5 37t38.5 14q37 0 37 -38q0 -23 -14 -36.5t-36 -13.5q-40 0 -40 37zM214 700q0 23 14.5 37t37.5 14q17 0 27.5 -10t10.5 -28q0 -23 -14 -36.5t-36 -13.5q-40 0 -40 37z" />
    <glyph glyph-name="idotaccent.sc" horiz-adv-x="218" 
d="M91 0h-45l76 548h45zM211 725q0 -23 -13.5 -36.5t-36.5 -13.5q-38 0 -38 36q0 23 13 36.5t37 13.5q38 0 38 -36z" />
    <glyph glyph-name="igrave.sc" horiz-adv-x="218" 
d="M91 0h-45l76 548h45zM188 626l-39 -14l-119 178h68z" />
    <glyph glyph-name="imacron.sc" horiz-adv-x="218" 
d="M91 0h-45l76 548h45zM22 688l7 42h277l-7 -42h-277z" />
    <glyph glyph-name="iogonek.sc" horiz-adv-x="218" 
d="M89 -132l33 -19q-37 -67 -105 -67q-37 0 -61.5 20.5t-24.5 56.5q0 48 30.5 82t85.5 71l75 536h45l-76 -548l-63.5 -47.5t-33 -37t-15.5 -49.5q0 -18 11 -30.5t33 -12.5q34 0 66 45z" />
    <glyph glyph-name="itilde.sc" horiz-adv-x="218" 
d="M91 0h-45l76 548h45zM91 737q33 0 73.5 -24t60.5 -24q42 0 52 59l37 -2q-8 -56 -30.5 -76t-59.5 -20q-30 0 -72 23t-65 23q-38 0 -48 -60l-37 2q12 99 89 99z" />
    <glyph glyph-name="jcircumflex.sc" horiz-adv-x="383" 
d="M234 125l58 423h47l-58 -425q-18 -135 -149 -135q-117 0 -127 122l42 8q6 -43 24 -66.5t64 -23.5q42 0 66.5 21t32.5 76zM469 625l-44 -7l-82 130l-115 -132l-44 9l138 165h49z" />
    <glyph glyph-name="kcommaaccent.sc" horiz-adv-x="476" 
d="M168 548l-39 -278l292 278h59l-252 -239l192 -309h-55l-172 274l-72 -65l-29 -209h-46l76 548h46zM132 -212l53 143h62l-78 -150z" />
    <glyph glyph-name="lacute.sc" horiz-adv-x="417" 
d="M339 0h-293l76 548h45l-70 -508h248zM126 626l130 164h78l-169 -178z" />
    <glyph glyph-name="lcaron.sc" horiz-adv-x="417" 
d="M339 0h-293l76 548h45l-70 -508h248zM230 359l60 189h64l-87 -197z" />
    <glyph glyph-name="lcommaaccent.sc" horiz-adv-x="417" 
d="M339 0h-293l76 548h45l-70 -508h248zM111 -212l53 143h62l-78 -150z" />
    <glyph glyph-name="ldot.sc" horiz-adv-x="417" 
d="M339 0h-293l76 548h45l-70 -508h248zM332 309q0 -22 -13.5 -35.5t-35.5 -13.5q-37 0 -37 35q0 49 49 49q37 0 37 -35z" />
    <glyph glyph-name="lslash.sc" horiz-adv-x="417" 
d="M9 190l4 46l70 34l39 278h45l-36 -262l159 75l-5 -46l-161 -77l-27 -198h248l-6 -40h-293l31 222z" />
    <glyph glyph-name="nacute.sc" horiz-adv-x="566" 
d="M440 0h-60l-219 502l-71 -502h-44l76 548h67l215 -492l68 492h44zM288 626l130 164h78l-169 -178z" />
    <glyph glyph-name="napostrophe.sc" horiz-adv-x="605" 
d="M479 0h-60l-219 502l-71 -502h-44l76 548h67l215 -492l68 492h44zM4 403l54 145h63l-79 -152z" />
    <glyph glyph-name="ncaron.sc" horiz-adv-x="566" 
d="M440 0h-60l-219 502l-71 -502h-44l76 548h67l215 -492l68 492h44zM197 777l46 6l80 -131l115 134l44 -9l-138 -165h-49z" />
    <glyph glyph-name="ncommaaccent.sc" horiz-adv-x="566" 
d="M440 0h-60l-219 502l-71 -502h-44l76 548h67l215 -492l68 492h44zM159 -212l53 143h62l-78 -150z" />
    <glyph glyph-name="ntilde.sc" horiz-adv-x="566" 
d="M440 0h-60l-219 502l-71 -502h-44l76 548h67l215 -492l68 492h44zM266 737q33 0 73.5 -24t60.5 -24q42 0 52 59l37 -2q-8 -56 -30.5 -76t-59.5 -20q-30 0 -72 23t-65 23q-38 0 -48 -60l-37 2q12 99 89 99z" />
    <glyph glyph-name="oacute.sc" horiz-adv-x="583" 
d="M250 -12q-106 0 -158.5 63.5t-52.5 173.5q0 147 76 240t212 93q102 0 154 -61t52 -160q0 -162 -76 -255.5t-207 -93.5zM254 31q100 0 164 78t64 220q0 87 -39.5 137t-121.5 50q-101 0 -167 -76.5t-66 -214.5q0 -90 40 -142t126 -52zM269 626l130 164h78l-169 -178z" />
    </font>
</defs>
</svg>
