<?xml version="1.0" standalone="no"?>
<!DOCTYPE svg PUBLIC "-//W3C//DTD SVG 1.1//EN" "http://www.w3.org/Graphics/SVG/1.1/DTD/svg11.dtd" >
<svg>
<metadata>
Created by FontForge 20090622 at Thu Feb  9 20:38:02 2017
 By deploy user
Copyright (c) 2014 by TypeTogether. All rights reserved.
</metadata>
<defs>
<font id="AdelleSansUt-Italic" horiz-adv-x="570" >
  <font-face 
    font-family="Adelle Sans Ut"
    font-weight="220"
    font-style="italic"
    font-stretch="normal"
    units-per-em="1000"
    panose-1="2 0 5 3 0 0 0 2 0 4"
    ascent="755"
    descent="-245"
    x-height="505"
    cap-height="724"
    bbox="-287 -294 1130 1079"
    underline-thickness="50"
    underline-position="-50"
    slope="-8"
    unicode-range="U+000D-U+FB06"
  />
<missing-glyph horiz-adv-x="500" 
 />
    <glyph glyph-name="ij" unicode="ij" horiz-adv-x="452" 
d="M161 505l-71 -505h-28l71 505h28zM198 685q0 -17 -8 -30t-25 -13q-22 0 -22 25q0 21 9.5 32.5t23.5 11.5q22 0 22 -26zM271 -107l86 612h28l-85 -605q-9 -67 -34.5 -95t-82.5 -28q-41 0 -69 14l8 24q34 -13 62 -13q39 0 59.5 20t27.5 71zM425 685q0 -17 -8 -30t-25 -13
q-22 0 -22 25q0 21 9.5 32.5t23.5 11.5q22 0 22 -26z" />
    <glyph glyph-name="ff" unicode="ff" horiz-adv-x="595" 
d="M675 748l-5 -23q-31 13 -72 13q-82 0 -97 -110l-17 -123h151l-3 -22h-151l-98 -695h-26l98 695h-281l-98 -695h-26l98 695h-80l3 22h80l17 122q19 135 128 135q44 0 72 -14l-5 -23q-31 13 -72 13q-82 0 -97 -110l-17 -123h281l17 122q19 135 128 135q44 0 72 -14z" />
    <glyph glyph-name="fi" unicode="fi" horiz-adv-x="546" 
d="M481 505l-71 -505h-28l68 483h-276l-98 -695h-26l98 695h-80l3 22h80l17 122q19 135 128 135q44 0 72 -14l-5 -23q-31 13 -72 13q-82 0 -97 -110l-17 -123h304zM518 685q0 -17 -8 -30t-25 -13q-22 0 -22 25q0 21 9.5 32.5t23.5 11.5q22 0 22 -26z" />
    <glyph glyph-name="fl" unicode="fl" horiz-adv-x="545" 
d="M368 748l-5 -23q-31 13 -72 13q-82 0 -97 -110l-17 -123h151l-3 -22h-151l-98 -693h-26l98 693h-80l3 22h80l17 122q19 135 128 135q44 0 72 -14zM381 0l106 755h28l-106 -755h-28z" />
    <glyph glyph-name="ffi" unicode="ffi" horiz-adv-x="851" 
d="M786 505l-71 -505h-28l68 483h-274l-98 -695h-26l98 695h-281l-98 -695h-26l98 695h-80l3 22h80l17 122q19 135 128 135q44 0 72 -14l-5 -23q-31 13 -72 13q-82 0 -97 -110l-17 -123h281l17 122q19 135 128 135q44 0 72 -14l-5 -23q-31 13 -72 13q-82 0 -97 -110
l-17 -123h302zM823 685q0 -17 -8 -30t-25 -13q-22 0 -22 25q0 21 9.5 32.5t23.5 11.5q22 0 22 -26z" />
    <glyph glyph-name="ffl" unicode="ffl" horiz-adv-x="857" 
d="M675 748l-5 -23q-31 13 -72 13q-82 0 -97 -110l-17 -123h151l-3 -22h-151l-98 -695h-26l98 695h-281l-98 -695h-26l98 695h-80l3 22h80l17 122q19 135 128 135q44 0 72 -14l-5 -23q-31 13 -72 13q-82 0 -97 -110l-17 -123h281l17 122q19 135 128 135q44 0 72 -14zM693 0
l106 755h28l-106 -755h-28z" />
    <glyph glyph-name="f_k" unicode="fk" horiz-adv-x="797" 
d="M368 748l-5 -23q-31 13 -72 13q-82 0 -97 -110l-17 -123h151l-3 -22h-151l-98 -693h-26l98 693h-80l3 22h80l17 122q19 135 128 135q44 0 72 -14zM729 0h-30l-144 301l-117 -103l-27 -198h-28l106 755h28l-72 -518l300 268h42l-210 -185z" />
    <glyph glyph-name="f_b" unicode="fb" horiz-adv-x="891" 
d="M368 748l-5 -23q-31 13 -72 13q-82 0 -97 -110l-17 -123h151l-3 -22h-151l-98 -693h-26l98 693h-80l3 22h80l17 122q19 135 128 135q44 0 72 -14zM407 0h-24l106 755h27l-47 -328q111 89 208 89q150 0 150 -196q0 -86 -21 -152t-56 -104t-75 -57t-84 -19q-54 0 -93.5 16
t-80.5 47h-1zM465 397l-44 -314q72 -69 170 -69q95 0 151 82t56 227q0 92 -31 129.5t-93 37.5q-92 0 -209 -93z" />
    <glyph glyph-name="f_h" unicode="fh" horiz-adv-x="896" 
d="M368 748l-5 -23q-31 13 -72 13q-82 0 -97 -110l-17 -123h151l-3 -22h-151l-98 -693h-26l98 693h-80l3 22h80l17 122q19 135 128 135q44 0 72 -14zM469 401l-56 -401h-28l106 755h26l-46 -326q41 32 99.5 59.5t113.5 27.5q154 0 129 -174l-48 -342h-28l48 342
q10 73 -14 110.5t-90 37.5q-96 0 -212 -89z" />
    <glyph glyph-name="f_t" unicode="ft" horiz-adv-x="654" 
d="M599 43l6 -26q-43 -29 -100 -29q-41 0 -66.5 12t-33 31t-9.5 41t3 41l53 370h-278l-98 -693h-26l98 693h-80l3 22h80l17 122q19 135 128 135q44 0 72 -14l-5 -23q-31 13 -72 13q-82 0 -97 -110l-17 -123h278l20 145l27 4l-21 -149h147l-4 -22h-146l-50 -359
q-4 -32 -4 -56.5t19.5 -39t61.5 -14.5q48 0 94 29z" />
    <glyph glyph-name="f_j" unicode="fj" horiz-adv-x="554" 
d="M194 628l-17 -123h310l-85 -605q-9 -67 -34.5 -95t-82.5 -28q-41 0 -69 14l8 24q34 -13 62 -13q39 0 59.5 20t27.5 71l83 590h-282l-98 -693h-26l98 693h-80l3 22h80l17 122q19 135 128 135q44 0 72 -14l-5 -23q-31 13 -72 13q-82 0 -97 -110zM527 685q0 -17 -8 -30
t-25 -13q-22 0 -22 25q0 21 9.5 32.5t23.5 11.5q22 0 22 -26z" />
    <glyph glyph-name="f_f_j" unicode="ffj" horiz-adv-x="855" 
d="M675 748l-5 -23q-31 13 -72 13q-82 0 -97 -110l-17 -123h304l-85 -605q-9 -67 -34.5 -95t-82.5 -28q-41 0 -69 14l8 24q34 -13 62 -13q39 0 59.5 20t27.5 71l83 590h-276l-98 -695h-26l98 695h-281l-98 -695h-26l98 695h-80l3 22h80l17 122q19 135 128 135q44 0 72 -14
l-5 -23q-31 13 -72 13q-82 0 -97 -110l-17 -123h281l17 122q19 135 128 135q44 0 72 -14zM828 685q0 -17 -8 -30t-25 -13q-22 0 -22 25q0 21 9.5 32.5t23.5 11.5q22 0 22 -26z" />
    <glyph glyph-name="f_f_k" unicode="ffk" horiz-adv-x="1105" 
d="M675 748l-5 -23q-31 13 -72 13q-82 0 -97 -110l-17 -123h151l-3 -22h-151l-98 -695h-26l98 695h-281l-98 -695h-26l98 695h-80l3 22h80l17 122q19 135 128 135q44 0 72 -14l-5 -23q-31 13 -72 13q-82 0 -97 -110l-17 -123h281l17 122q19 135 128 135q44 0 72 -14zM1037 0
h-30l-144 301l-117 -103l-27 -198h-28l106 755h28l-72 -518l300 268h42l-210 -185z" />
    <glyph glyph-name="f_f_b" unicode="ffb" horiz-adv-x="1194" 
d="M675 748l-5 -23q-31 13 -72 13q-82 0 -97 -110l-17 -123h151l-3 -22h-151l-98 -695h-26l98 695h-281l-98 -695h-26l98 695h-80l3 22h80l17 122q19 135 128 135q44 0 72 -14l-5 -23q-31 13 -72 13q-82 0 -97 -110l-17 -123h281l17 122q19 135 128 135q44 0 72 -14zM710 0
h-24l106 755h27l-47 -328q111 89 208 89q150 0 150 -196q0 -86 -21 -152t-56 -104t-75 -57t-84 -19q-54 0 -93.5 16t-80.5 47h-1zM768 397l-44 -314q72 -69 170 -69q95 0 151 82t56 227q0 92 -31 129.5t-93 37.5q-92 0 -209 -93z" />
    <glyph glyph-name="f_f_h" unicode="ffh" horiz-adv-x="1201" 
d="M675 748l-5 -23q-31 13 -72 13q-82 0 -97 -110l-17 -123h151l-3 -22h-151l-98 -695h-26l98 695h-281l-98 -695h-26l98 695h-80l3 22h80l17 122q19 135 128 135q44 0 72 -14l-5 -23q-31 13 -72 13q-82 0 -97 -110l-17 -123h281l17 122q19 135 128 135q44 0 72 -14z
M774 401l-56 -401h-28l106 755h26l-46 -326q41 32 99.5 59.5t113.5 27.5q154 0 129 -174l-48 -342h-28l48 342q10 73 -14 110.5t-90 37.5q-96 0 -212 -89z" />
    <glyph glyph-name="f_f_t" unicode="fft" horiz-adv-x="959" 
d="M904 43l6 -26q-43 -29 -100 -29q-41 0 -66.5 12t-33 31t-9.5 41t3 41l53 370h-276l-98 -695h-26l98 695h-281l-98 -695h-26l98 695h-80l3 22h80l17 122q19 135 128 135q44 0 72 -14l-5 -23q-31 13 -72 13q-82 0 -97 -110l-17 -123h281l17 122q19 135 128 135q44 0 72 -14
l-5 -23q-31 13 -72 13q-82 0 -97 -110l-17 -123h276l20 145l27 4l-21 -149h147l-4 -22h-146l-50 -359q-4 -32 -4 -56.5t19.5 -39t61.5 -14.5q48 0 94 29z" />
    <glyph glyph-name="f_iacute" unicode="f&#xed;" horiz-adv-x="546" 
d="M481 505l-71 -505h-28l68 483h-276l-98 -695h-26l98 695h-80l3 22h80l17 122q19 135 128 135q44 0 72 -14l-5 -23q-31 13 -72 13q-82 0 -97 -110l-17 -123h304zM458 583l135 168h42l-157 -175z" />
    <glyph glyph-name="t_t" unicode="tt" horiz-adv-x="645" 
d="M590 43l6 -26q-43 -29 -100 -29q-41 0 -66.5 12t-33 31t-9.5 41t3 41l53 370h-270l-50 -359q-4 -32 -4 -56.5t19.5 -39t61.5 -14.5q48 0 94 29l6 -26q-43 -29 -100 -29q-41 0 -66.5 12t-33 31t-9.5 41t3 41l53 370h-82l3 22h82l20 145l27 4l-21 -149h270l20 145l27 4
l-21 -149h147l-4 -22h-146l-50 -359q-4 -32 -4 -56.5t19.5 -39t61.5 -14.5q48 0 94 29z" />
    <glyph glyph-name=".notdef" horiz-adv-x="500" 
 />
    <glyph glyph-name=".null" horiz-adv-x="0" 
 />
    <glyph glyph-name=".null" horiz-adv-x="0" 
 />
    <glyph glyph-name="nonmarkingreturn" horiz-adv-x="333" 
 />
    <glyph glyph-name="CR" unicode="&#xd;" horiz-adv-x="500" 
 />
    <glyph glyph-name="space" unicode=" " horiz-adv-x="256" 
 />
    <glyph glyph-name="exclam" unicode="!" horiz-adv-x="239" 
d="M105 175h-23l69 549h37zM109 26q-6 -38 -42 -38q-37 0 -31 38q6 37 41 37q38 0 32 -37z" />
    <glyph glyph-name="quotedbl" unicode="&#x22;" horiz-adv-x="326" 
d="M267 465h-27l37 259h27zM127 465h-27l37 259h27z" />
    <glyph glyph-name="numbersign" unicode="#" horiz-adv-x="607" 
d="M293 0h-26l45 148h-157l-45 -148h-26l45 148h-138l9 24h136l65 212h-137l9 24h135l39 127h26l-39 -127h157l39 127h26l-39 -127h136l-8 -24h-135l-65 -212h137l-8 -24h-136zM319 172l65 212h-157l-65 -212h157z" />
    <glyph glyph-name="dollar" unicode="$" horiz-adv-x="521" 
d="M184 -78l12 90q-167 11 -171 179l26 4q5 -77 39 -116t109 -44l43 323q-73 30 -110.5 63.5t-37.5 97.5q0 97 55.5 143.5t140.5 49.5l11 80h26l-11 -81q75 -4 114.5 -48.5t41.5 -119.5l-26 -4q-1 62 -34.5 102.5t-98.5 44.5l-42 -311q39 -16 59.5 -26.5t46.5 -31
t37.5 -48.5t11.5 -67q0 -95 -60.5 -142.5t-143.5 -48.5l-12 -89h-26zM398 200q0 54 -26 85t-105 63l-42 -314q83 1 128 45t45 121zM122 523q0 -56 30 -84t94 -54l40 302q-90 -4 -127 -50.5t-37 -113.5z" />
    <glyph glyph-name="percent" unicode="%" horiz-adv-x="737" 
d="M116 -18h-30l543 742h30zM206 374q-64 0 -94.5 39.5t-30.5 106.5q0 57 16 103.5t58 80t105 33.5q126 0 126 -150q0 -55 -16 -100.5t-58 -79t-106 -33.5zM209 397q47 0 79.5 21.5t46.5 55.5t19.5 60.5t5.5 51.5q0 128 -102 128q-44 0 -75.5 -19.5t-47 -51t-22 -62
t-6.5 -62.5q0 -122 102 -122zM490 -12q-64 0 -94.5 39.5t-30.5 106.5q0 57 16 103.5t58 80t105 33.5q126 0 126 -150q0 -55 -16 -100.5t-58 -79t-106 -33.5zM493 11q47 0 79.5 21.5t46.5 55.5t19.5 60.5t5.5 51.5q0 128 -102 128q-44 0 -75.5 -19.5t-47 -51t-22 -62
t-6.5 -62.5q0 -122 102 -122z" />
    <glyph glyph-name="ampersand" unicode="&#x26;" horiz-adv-x="646" 
d="M477 586q0 -111 -146 -179l-80 -38q85 -177 172 -289q76 80 101 243h28q-31 -175 -112 -259q44 -53 95 -53q32 0 62 19l8 -20q-34 -22 -68 -22q-61 0 -116 58q-82 -58 -170 -58q-55 0 -95 18t-59 46.5t-27.5 55.5t-8.5 54q0 81 39.5 132.5t115.5 89.5q-22 53 -22 110
q0 88 42 144.5t124 56.5q48 0 82.5 -25.5t34.5 -83.5zM255 12q86 0 150 52q-88 105 -179 297q-67 -34 -102 -77t-35 -117q0 -72 44 -113.5t122 -41.5zM358 670q-60 0 -98 -45.5t-38 -130.5q0 -52 20 -101l70 33q137 64 137 159q0 39 -24 62t-67 23z" />
    <glyph glyph-name="quotesingle" unicode="'" horiz-adv-x="186" 
d="M127 465h-27l37 259h27z" />
    <glyph glyph-name="parenleft" unicode="(" horiz-adv-x="269" 
d="M180 -153h-28q-45 81 -67 159.5t-22 179.5q0 150 66 295t154 243h27q-220 -263 -220 -538q0 -95 21 -173t69 -166z" />
    <glyph glyph-name="parenright" unicode=")" horiz-adv-x="269" 
d="M74 724h28q45 -81 67 -159.5t22 -179.5q0 -150 -66 -295t-154 -243h-27q220 263 220 538q0 95 -21 173t-69 166z" />
    <glyph glyph-name="asterisk" unicode="*" horiz-adv-x="464" 
d="M305 755l-6 -159l148 42l4 -11l-148 -68l74 -133l-11 -7l-98 114l-132 -116l-8 8l109 135l-131 65l7 13l138 -43l43 160h11z" />
    <glyph glyph-name="plus" unicode="+" horiz-adv-x="569" 
d="M321 504l-24 -169h169l-3 -24h-170l-23 -168h-24l23 168h-167l3 24h168l24 169h24z" />
    <glyph glyph-name="comma" unicode="," horiz-adv-x="191" 
d="M-12 -107l71 177h42l-93 -183z" />
    <glyph glyph-name="hyphen" unicode="-" horiz-adv-x="319" 
d="M295 289h-271l4 25h271z" />
    <glyph glyph-name="period" unicode="." horiz-adv-x="191" 
d="M91 33q0 -19 -11.5 -32t-30.5 -13q-30 0 -30 29q0 22 11.5 34t29.5 12q31 0 31 -30z" />
    <glyph glyph-name="slash" unicode="/" horiz-adv-x="323" 
d="M-26 -92h-25l399 847h25z" />
    <glyph glyph-name="zero" unicode="0" horiz-adv-x="552" 
d="M234 -12q-66 0 -107.5 29t-56 79t-17 117t9.5 143q6 50 12.5 87t19 85t31.5 82t45.5 64.5t66.5 46.5t89 16q48 0 83 -15t54.5 -44t30.5 -62t12 -79.5t-1.5 -85.5t-8.5 -91q-6 -51 -14 -91.5t-21 -85.5t-32.5 -78t-46 -60.5t-64.5 -42t-85 -14.5zM238 11q49 0 87.5 20.5
t62 51.5t41.5 80.5t27 95t16 107.5q6 51 8.5 88t1.5 80.5t-11 73t-27 55t-48 38.5t-73 13q-58 0 -100 -25.5t-68 -76.5t-41 -112t-26 -148q-11 -101 -7.5 -177t42 -120t115.5 -44z" />
    <glyph glyph-name="one" unicode="1" horiz-adv-x="380" 
d="M190 0h-25l91 672q-65 -57 -168 -57v25q66 2 108.5 23t74.5 61h17z" />
    <glyph glyph-name="two" unicode="2" horiz-adv-x="499" 
d="M295 737q79 0 125 -38.5t46 -111.5q0 -46 -10.5 -82t-39.5 -76.5t-69.5 -85.5l-109.5 -116l-18 -18l-178 -184h344l-3 -25h-380l3 19l220 231q137 144 176 202.5t39 134.5q0 56 -36 91t-111 35q-81 0 -125 -38t-67 -110l-25 5q53 167 219 167z" />
    <glyph glyph-name="three" unicode="3" horiz-adv-x="520" 
d="M33 141l24 5q6 -135 147 -135q25 0 50 4.5t54.5 19.5t52 37.5t37.5 63t15 93.5q0 78 -47 112t-123 34h-61l4 26h50q100 0 158.5 49.5t58.5 136.5q0 54 -31.5 90t-98.5 36q-142 0 -185 -133l-23 7q49 150 212 150q74 0 113 -41t39 -103q0 -53 -19 -93.5t-50 -62t-56.5 -32
t-51.5 -15.5v-2q63 -8 100.5 -48t37.5 -109q0 -108 -64 -175.5t-172 -67.5q-80 0 -124 41t-47 112z" />
    <glyph glyph-name="four" unicode="4" horiz-adv-x="524" 
d="M370 0h-25l26 194h-344l3 22l403 508h35l-69 -506h90l-3 -24h-90zM63 218h311l66 480z" />
    <glyph glyph-name="five" unicode="5" horiz-adv-x="539" 
d="M98 371l77 353h310l-3 -24h-284l-71 -304q77 62 170 62q68 0 118.5 -43t50.5 -138q0 -124 -66 -206.5t-184 -82.5q-167 0 -186 155l25 8q3 -21 6.5 -34t14.5 -35t26.5 -35t46 -23.5t70.5 -10.5q28 0 55.5 6.5t58 24.5t53.5 46t38 75.5t15 107.5q0 76 -40.5 117t-105.5 41
q-90 0 -176 -71z" />
    <glyph glyph-name="six" unicode="6" horiz-adv-x="561" 
d="M529 600l-26 -7q-11 58 -38.5 89t-87.5 31q-52 0 -95.5 -25t-72.5 -64.5t-51 -92.5t-34 -103.5t-19 -103.5q37 43 99 79t129 36q82 0 118.5 -45.5t36.5 -118.5q0 -129 -67.5 -208t-172.5 -79q-93 0 -134 66.5t-41 172.5q0 67 10 134.5t33.5 136t57.5 121t87.5 85.5
t118.5 33q69 0 106 -39.5t43 -97.5zM101 288q-3 -33 -3 -60q0 -217 152 -217q38 0 74 15t67.5 45.5t50.5 83t19 120.5q0 139 -130 139q-61 0 -121 -34t-109 -92z" />
    <glyph glyph-name="seven" unicode="7" horiz-adv-x="492" 
d="M86 0h-31l415 699h-407l3 25h438l-2 -20z" />
    <glyph glyph-name="eight" unicode="8" horiz-adv-x="534" 
d="M311 376q35 -14 56 -25.5t47.5 -32t39.5 -49.5t13 -66q0 -90 -68.5 -152.5t-173.5 -62.5q-96 0 -143.5 46.5t-47.5 113.5q0 40 14 73.5t33.5 55.5t51 42.5t55 31t58.5 24.5q-58 22 -97 62t-39 99q0 91 63.5 146t163.5 55q74 0 122.5 -35t48.5 -103q0 -80 -51.5 -130.5
t-145.5 -92.5zM278 365q-49 -18 -81 -33.5t-67 -40.5t-53 -60.5t-18 -80.5q0 -64 43 -101.5t125 -37.5q100 0 157 61t57 130q0 36 -15 64t-44.5 47.5t-49.5 29t-54 22.5zM278 384q100 43 152 90.5t52 118.5q0 55 -38.5 88.5t-108.5 33.5q-93 0 -146 -52t-53 -121
q0 -33 10.5 -58.5t33.5 -44t43 -29.5t55 -26z" />
    <glyph glyph-name="nine" unicode="9" horiz-adv-x="561" 
d="M31 130l26 7q22 -124 141 -124q87 0 146.5 60t90.5 165q18 60 30 151q-38 -46 -100.5 -80t-127.5 -34q-84 0 -121.5 50t-37.5 129q0 127 66.5 205t176.5 78q96 0 136 -61t40 -168q0 -61 -6 -122t-26 -135.5t-51 -130.5t-87.5 -94t-129.5 -38q-71 0 -114 37t-52 105z
M467 423q4 54 4 81q0 43 -5.5 76.5t-20.5 65.5t-46.5 50t-77.5 18q-37 0 -73 -13.5t-69 -42.5t-53.5 -82t-20.5 -123q0 -72 34.5 -112.5t99.5 -40.5q61 0 122.5 34.5t105.5 88.5z" />
    <glyph glyph-name="colon" unicode=":" horiz-adv-x="198" 
d="M87 33q0 -19 -11.5 -32t-30.5 -13q-30 0 -30 29q0 22 11.5 34t29.5 12q31 0 31 -30zM155 451q0 -19 -11.5 -32t-30.5 -13q-30 0 -30 29q0 22 11.5 34t29.5 12q31 0 31 -30z" />
    <glyph glyph-name="semicolon" unicode=";" horiz-adv-x="209" 
d="M-12 -107l71 177h42l-93 -183zM146 451q0 -19 -11.5 -32t-30.5 -13q-30 0 -30 29q0 22 11.5 34t29.5 12q31 0 31 -30z" />
    <glyph glyph-name="less" unicode="&#x3c;" 
d="M435 111l-346 156l5 29l390 169l-4 -31l-358 -153l317 -142z" />
    <glyph glyph-name="equal" unicode="=" 
d="M468 353h-361l4 24h361zM447 201h-361l4 24h361z" />
    <glyph glyph-name="greater" unicode="&#x3e;" horiz-adv-x="569" 
d="M441 265l-388 -154l4 30l358 141l-317 153l4 30l344 -172z" />
    <glyph glyph-name="question" unicode="?" horiz-adv-x="464" 
d="M163 173h-26l25 178q254 10 254 203q0 138 -143 138q-135 0 -172 -127l-24 8q4 22 17 45t35.5 46.5t61 38.5t86.5 15q76 0 123 -42t47 -121q0 -51 -17 -91t-43.5 -64.5t-63 -41.5t-69.5 -24t-70 -10zM167 33q0 -19 -11.5 -32t-30.5 -13q-30 0 -30 29q0 22 11.5 34
t29.5 12q31 0 31 -30z" />
    <glyph glyph-name="at" unicode="@" horiz-adv-x="834" 
d="M590 -54l16 -18q-99 -92 -260 -92q-143 0 -227 78.5t-84 218.5q0 95 28.5 171t72.5 123t103 78t116 43.5t115 12.5q138 0 221.5 -67.5t83.5 -200.5q0 -69 -20.5 -133t-68 -111t-112.5 -47q-70 0 -76 54q-40 -34 -73 -50.5t-75 -16.5q-118 0 -118 132q0 113 51 193t140 80
q62 0 111 -49l11 43h20l-36 -267q-6 -49 -6 -51q0 -10 1.5 -16.5t6.5 -14t17 -11.5t30 -4q45 0 80 26.5t54.5 68.5t29 85.5t9.5 85.5q0 87 -39.5 143.5t-102 79.5t-147.5 23q-36 0 -74.5 -6.5t-86 -21.5t-88 -45t-75.5 -72t-55 -108t-20 -148q0 -77 25 -132.5t69 -85
t92.5 -42.5t106.5 -13q70 0 132 23t102 61zM496 78l34 244q-17 15 -27.5 23t-32 17t-46.5 9q-78 0 -122.5 -69t-44.5 -177q0 -18 1 -30.5t6.5 -29.5t14.5 -27.5t27 -18t43 -7.5q43 0 76 16.5t71 49.5z" />
    <glyph glyph-name="A" unicode="A" horiz-adv-x="593" 
d="M491 0l-51 264h-289l-121 -264h-29l335 724h44l140 -724h-29zM355 706l-192 -417h272l-79 417h-1z" />
    <glyph glyph-name="B" unicode="B" horiz-adv-x="588" 
d="M258 0h-183l98 724h179q117 0 162.5 -37t45.5 -110q0 -87 -50 -136.5t-132 -64.5v-2q154 -23 154 -155q0 -112 -68 -165.5t-206 -53.5zM105 25h139q61 0 104.5 7.5t81 27.5t56 59t18.5 97q0 46 -18 76t-52 44t-69.5 19t-85.5 5h-128zM155 385h140q108 0 172.5 51
t64.5 138q0 68 -40 96.5t-156 28.5h-139z" />
    <glyph glyph-name="C" unicode="C" horiz-adv-x="647" 
d="M561 192l24 -7q-37 -109 -108 -153t-173 -44q-244 0 -244 292q0 208 99 332.5t264 124.5q112 0 166 -61t47 -176l-26 -3q9 215 -187 215q-149 0 -241.5 -115t-92.5 -316q0 -140 56 -203.5t170 -63.5q95 0 153.5 42t92.5 136z" />
    <glyph glyph-name="D" unicode="D" horiz-adv-x="693" 
d="M243 0h-168l98 724h193q151 0 217 -75.5t66 -216.5q0 -57 -8.5 -110t-35.5 -114t-70 -105t-118 -73.5t-174 -29.5zM105 25h136q178 0 279 103.5t101 311.5q0 140 -67.5 199.5t-193.5 59.5h-164z" />
    <glyph glyph-name="E" unicode="E" horiz-adv-x="533" 
d="M151 357l-47 -332h345l-3 -25h-371l101 724h365l-3 -25h-339l-45 -317h315l-3 -25h-315z" />
    <glyph glyph-name="F" unicode="F" horiz-adv-x="522" 
d="M149 344l-48 -344h-26l101 724h371l-3 -25h-345l-47 -330h318l-3 -25h-318z" />
    <glyph glyph-name="G" unicode="G" horiz-adv-x="682" 
d="M613 363l-49 -363h-20l9 117q-42 -69 -101 -99t-146 -30q-246 0 -246 297q0 198 97 325t269 127q105 0 160.5 -58.5t49.5 -171.5l-26 -3q4 208 -188 208q-147 0 -240 -115t-93 -313q0 -144 56.5 -207t173.5 -63q46 0 84.5 12t63.5 28.5t45 43.5t29.5 45t17.5 46.5t9.5 35
t3.5 21.5l13 92h-240l4 25h264z" />
    <glyph glyph-name="H" unicode="H" horiz-adv-x="683" 
d="M629 724l-98 -724h-26l49 361h-403l-49 -361h-27l98 724h27l-46 -338h402l46 338h27z" />
    <glyph glyph-name="I" unicode="I" horiz-adv-x="250" 
d="M105 0h-27l98 724h27z" />
    <glyph glyph-name="J" unicode="J" horiz-adv-x="445" 
d="M304 173l75 551h27l-78 -573q-11 -83 -52.5 -123t-120.5 -40q-76 0 -109 38.5t-36 96.5l26 7q7 -55 31.5 -85.5t88.5 -30.5q72 0 104 37t44 122z" />
    <glyph glyph-name="K" unicode="K" horiz-adv-x="580" 
d="M200 724l-53 -390l408 390h38l-332 -318l258 -406h-32l-248 387l-94 -88l-43 -299h-27l98 724h27z" />
    <glyph glyph-name="L" unicode="L" horiz-adv-x="502" 
d="M423 0h-348l98 724h27l-95 -699h322z" />
    <glyph glyph-name="M" unicode="M" horiz-adv-x="832" 
d="M778 724l-101 -724h-26l97 692h-3l-351 -692h-29l-165 693h-2l-97 -693h-26l101 724h42l165 -693h1l351 693h43z" />
    <glyph glyph-name="N" unicode="N" horiz-adv-x="700" 
d="M548 0h-39l-313 698l-94 -698h-27l98 724h39l313 -698l94 698h27z" />
    <glyph glyph-name="O" unicode="O" horiz-adv-x="718" 
d="M321 -12q-130 0 -197 84t-67 231q0 194 96 314t268 120q124 0 189 -81t65 -213q0 -218 -96 -336.5t-258 -118.5zM322 14q65 0 122 24.5t103.5 73t73 131t26.5 190.5q0 122 -55.5 201.5t-176.5 79.5q-65 0 -122 -24t-104.5 -71.5t-75 -129.5t-27.5 -189q0 -57 12 -105.5
t38 -90.5t73.5 -66t112.5 -24z" />
    <glyph glyph-name="P" unicode="P" horiz-adv-x="575" 
d="M142 298l-40 -298h-27l98 724h168q218 0 218 -175q0 -34 -5.5 -65t-24 -66.5t-48 -60.5t-82 -42t-121.5 -17h-136zM146 323h130q121 0 188 50.5t67 177.5q0 46 -16.5 76.5t-48 45.5t-66.5 20.5t-83 5.5h-120z" />
    <glyph glyph-name="Q" unicode="Q" horiz-adv-x="718" 
d="M322 -12q-130 0 -197 84t-67 231q0 194 96 314t268 120q124 0 189 -81t65 -213q0 -179 -67.5 -293.5t-186.5 -148.5q75 -101 209 -136l-6 -22q-71 16 -137 62t-93 90q-32 -7 -73 -7zM323 14q65 0 122 24.5t103.5 73t73 131t26.5 190.5q0 57 -12.5 105.5t-38.5 89
t-72 63.5t-109 23q-66 0 -123.5 -24.5t-104.5 -72.5t-74 -129.5t-27 -187.5q0 -57 12 -106t38 -90.5t73.5 -65.5t112.5 -24z" />
    <glyph glyph-name="R" unicode="R" horiz-adv-x="594" 
d="M496 0l-137 334q-33 -3 -55 -3h-157l-45 -331h-27l98 724h188q61 0 102.5 -13t62.5 -38t29.5 -52.5t8.5 -63.5q0 -184 -179 -219l141 -338h-30zM150 356h169q98 0 158 49t60 148q0 85 -46 115.5t-138 30.5h-156z" />
    <glyph glyph-name="S" unicode="S" horiz-adv-x="543" 
d="M522 535l-25 -3q0 86 -43 133t-125 47q-97 0 -148 -49t-51 -122q0 -67 39.5 -101.5t150.5 -67.5q81 -24 120.5 -61t39.5 -108q0 -73 -36 -123t-90 -71t-120 -21q-60 0 -102 16.5t-64.5 46.5t-33 60t-14.5 68l26 5q5 -39 14.5 -66.5t30 -52.5t58 -38t92.5 -13
q96 0 153.5 47.5t57.5 139.5q0 65 -32.5 94.5t-106.5 51.5q-113 33 -162 71.5t-49 118.5q0 90 61.5 145t168.5 55q88 0 139.5 -51.5t50.5 -150.5z" />
    <glyph glyph-name="T" unicode="T" horiz-adv-x="481" 
d="M216 0h-27l95 699h-211l3 25h448l-4 -25h-209z" />
    <glyph glyph-name="U" unicode="U" horiz-adv-x="675" 
d="M627 724l-68 -501q-32 -235 -261 -235q-232 0 -199 232l68 504h27l-68 -506q-16 -111 28.5 -158t139.5 -47q211 0 239 207l67 504h27z" />
    <glyph glyph-name="V" unicode="V" horiz-adv-x="545" 
d="M258 0h-33l-153 724h28l144 -695h1l309 695h28z" />
    <glyph glyph-name="W" unicode="W" horiz-adv-x="796" 
d="M571 0h-37l-84 695h-1l-265 -695h-36l-54 724h25l50 -694h1l265 694h37l84 -695h1l220 695h26z" />
    <glyph glyph-name="X" unicode="X" horiz-adv-x="563" 
d="M487 0h-30l-177 350l-261 -350h-27l276 372l-170 352h30l159 -331l247 331h31l-265 -351z" />
    <glyph glyph-name="Y" unicode="Y" horiz-adv-x="483" 
d="M255 291l-39 -291h-24l39 291l-170 433h29l156 -402h1l257 402h29z" />
    <glyph glyph-name="Z" unicode="Z" horiz-adv-x="537" 
d="M469 0h-463l3 18l504 681h-396l3 25h432l-2 -19l-505 -680h427z" />
    <glyph glyph-name="bracketleft" unicode="[" horiz-adv-x="222" 
d="M123 -143h-106l121 867h106l-3 -22h-79l-115 -823h79z" />
    <glyph glyph-name="backslash" unicode="\" horiz-adv-x="308" 
d="M256 -92h-25l-162 847h25z" />
    <glyph glyph-name="bracketright" unicode="]" horiz-adv-x="222" 
d="M81 724h106l-121 -867h-106l3 22h79l115 823h-79z" />
    <glyph glyph-name="asciicircum" unicode="^" horiz-adv-x="452" 
d="M436 299h-27l-186 342l-183 -342h-27l197 365h26z" />
    <glyph glyph-name="underscore" unicode="_" horiz-adv-x="500" 
d="M515 -181h-500v20h500v-20z" />
    <glyph glyph-name="grave" unicode="`" horiz-adv-x="499" 
d="M261 751l95 -168l-19 -7l-115 175h39z" />
    <glyph glyph-name="a" unicode="a" horiz-adv-x="558" 
d="M497 505l-58 -410q-6 -45 3.5 -60.5t35.5 -15.5q14 0 25 3l-3 -22q-15 -4 -29 -4q-28 0 -45.5 18t-13.5 58q-108 -84 -188 -84q-88 0 -125.5 53t-37.5 151q0 149 65 236.5t172 87.5q90 0 165 -60l14 49h20zM414 104l45 326q-66 60 -164 60q-56 0 -98.5 -27.5t-65 -73
t-33.5 -94t-11 -99.5q0 -95 32.5 -139t99.5 -44q92 0 195 91z" />
    <glyph glyph-name="b" unicode="b" horiz-adv-x="577" 
d="M93 0h-24l106 755h27l-47 -328q111 89 208 89q150 0 150 -196q0 -86 -21 -152t-56 -104t-75 -57t-84 -19q-54 0 -93.5 16t-80.5 47h-1zM151 397l-44 -314q72 -69 170 -69q95 0 151 82t56 227q0 92 -31 129.5t-93 37.5q-92 0 -209 -93z" />
    <glyph glyph-name="c" unicode="c" horiz-adv-x="524" 
d="M239 -12q-178 0 -178 220q0 133 68 220.5t188 87.5q86 0 125 -51.5t29 -137.5l-25 -3q3 81 -27 123.5t-105 42.5q-58 0 -102.5 -25.5t-70.5 -68t-39 -92t-13 -103.5q0 -98 42.5 -142.5t107.5 -44.5q137 0 181 128l23 -6q-18 -63 -70 -105.5t-134 -42.5z" />
    <glyph glyph-name="d" unicode="d" horiz-adv-x="562" 
d="M427 0h-22l5 66h-1q-92 -78 -183 -78q-78 0 -121.5 46t-43.5 154q0 86 20.5 152t55 103t74.5 55t84 18q92 0 168 -60l42 299h28zM413 98l46 332q-70 61 -164 61q-102 0 -155 -87t-53 -212q0 -92 32.5 -135.5t99.5 -43.5q95 0 194 85z" />
    <glyph glyph-name="e" unicode="e" horiz-adv-x="503" 
d="M239 -12q-81 0 -130 56t-49 169q0 127 69.5 215t186.5 88q76 0 111.5 -36t35.5 -86q0 -119 -149 -160q-82 -22 -226 -25q1 -51 13 -92t48.5 -72t94.5 -31q70 0 113.5 35.5t57.5 87.5l25 -5q-22 -73 -75.5 -108.5t-125.5 -35.5zM315 491q-56 0 -100.5 -24t-70.5 -63
t-39.5 -82t-15.5 -87q159 2 245 33q45 17 72 49t27 77q0 46 -30 71.5t-88 25.5z" />
    <glyph glyph-name="f" unicode="f" horiz-adv-x="288" 
d="M368 748l-5 -23q-31 13 -72 13q-82 0 -97 -110l-17 -123h151l-3 -22h-151l-98 -693h-26l98 693h-80l3 22h80l17 122q19 135 128 135q44 0 72 -14z" />
    <glyph glyph-name="g" unicode="g" horiz-adv-x="539" 
d="M281 490q-52 0 -92.5 -25t-64.5 -67.5t-36 -93.5t-12 -107q0 -176 133 -176q88 0 193 91l45 318q-27 25 -71.5 42.5t-94.5 17.5zM382 -37l15 114q-53 -40 -96 -60.5t-90 -20.5q-161 0 -161 200q0 150 66.5 235t166.5 85q89 0 168 -60l14 49h20l-79 -559
q-24 -169 -204 -169q-82 0 -128.5 33t-53.5 113l27 8q8 -63 39.5 -96t108.5 -33q76 0 125 35.5t62 125.5z" />
    <glyph glyph-name="h" unicode="h" horiz-adv-x="580" 
d="M153 401l-56 -401h-28l106 755h26l-46 -326q41 32 99.5 59.5t113.5 27.5q154 0 129 -174l-48 -342h-28l48 342q10 73 -14 110.5t-90 37.5q-96 0 -212 -89z" />
    <glyph glyph-name="i" unicode="i" horiz-adv-x="226" 
d="M161 505l-71 -505h-28l71 505h28zM198 685q0 -17 -8 -30t-25 -13q-22 0 -22 25q0 21 9.5 32.5t23.5 11.5q22 0 22 -26z" />
    <glyph glyph-name="j" unicode="j" horiz-adv-x="226" 
d="M45 -107l86 612h28l-85 -605q-9 -67 -34.5 -95t-82.5 -28q-41 0 -69 14l8 24q34 -13 62 -13q39 0 59.5 20t27.5 71zM199 685q0 -17 -8 -30t-25 -13q-22 0 -22 25q0 21 9.5 32.5t23.5 11.5q22 0 22 -26z" />
    <glyph glyph-name="k" unicode="k" horiz-adv-x="483" 
d="M415 0h-30l-144 301l-117 -103l-27 -198h-28l106 755h28l-72 -518l300 268h42l-210 -185z" />
    <glyph glyph-name="l" unicode="l" horiz-adv-x="226" 
d="M62 0l106 755h28l-106 -755h-28z" />
    <glyph glyph-name="m" unicode="m" horiz-adv-x="877" 
d="M369 516q101 0 110 -90q119 90 210 90q110 0 110 -111q0 -16 -7 -67l-47 -338h-28l47 333q7 47 7 70q0 87 -83 87q-47 0 -106 -28.5t-100 -60.5l-56 -401h-28l48 340q6 42 6 61q0 89 -85 89q-97 0 -214 -89l-56 -401h-28l71 505h26l-11 -76q112 87 214 87z" />
    <glyph glyph-name="n" unicode="n" horiz-adv-x="580" 
d="M153 401l-56 -401h-28l71 505h26l-11 -76q41 32 99.5 59.5t113.5 27.5q154 0 129 -174l-48 -342h-28l48 342q10 73 -14 110.5t-90 37.5q-96 0 -212 -89z" />
    <glyph glyph-name="o" unicode="o" horiz-adv-x="566" 
d="M245 -12q-96 0 -141 58t-45 161q0 54 14 105.5t43 99t82.5 76t124.5 28.5q182 0 182 -221q0 -39 -7.5 -78.5t-26.5 -81.5t-47 -74t-74.5 -52.5t-104.5 -20.5zM249 13q62 0 108 27t71 70.5t36.5 90.5t11.5 95q0 195 -157 195q-62 0 -109 -26t-72.5 -69.5t-37.5 -91
t-12 -98.5q0 -193 161 -193z" />
    <glyph glyph-name="p" unicode="p" horiz-adv-x="577" 
d="M164 505l-11 -77h1q112 88 206 88q151 0 151 -195q0 -163 -69.5 -248t-169.5 -85q-87 0 -172 64l-37 -264h-26l101 717h26zM482 324q0 87 -29.5 126.5t-95.5 39.5q-53 0 -110 -29.5t-98 -63.5l-44 -314q69 -69 166 -69q57 0 100 27t66 73t34 98.5t11 111.5z" />
    <glyph glyph-name="q" unicode="q" horiz-adv-x="557" 
d="M295 516q90 0 168 -60l7 49h28l-101 -717h-28l39 277q-95 -77 -184 -77q-41 0 -72 13t-48 32.5t-27 48t-13 53.5t-3 56q0 83 20 147.5t54 102t74.5 56.5t85.5 19zM87 192q0 -91 32.5 -135t100.5 -44q96 0 193 85l46 332q-70 61 -164 61q-69 0 -117.5 -43.5t-69.5 -109.5
t-21 -146z" />
    <glyph glyph-name="r" unicode="r" horiz-adv-x="330" 
d="M152 391l-55 -391h-28l71 505h27l-12 -83q51 53 85.5 73.5t79.5 20.5q13 0 20 -1l-5 -29q-46 6 -88.5 -19t-94.5 -76z" />
    <glyph glyph-name="s" unicode="s" horiz-adv-x="469" 
d="M258 516q85 0 123.5 -45.5t35.5 -113.5l-25 -2q0 139 -135 139q-75 0 -106.5 -34.5t-31.5 -79.5t28.5 -67t84.5 -38q84 -23 110 -41q50 -32 50 -93q0 -67 -45 -110t-123 -43q-169 0 -181 159l26 5q10 -140 150 -140q61 0 103.5 29.5t42.5 96.5q0 22 -8.5 39.5t-18.5 27.5
t-33 20t-35.5 13.5l-42.5 12.5q-31 9 -50.5 16.5t-41.5 22t-32.5 37t-10.5 53.5q0 63 45.5 99.5t120.5 36.5z" />
    <glyph glyph-name="t" unicode="t" horiz-adv-x="349" 
d="M294 43l6 -26q-43 -29 -100 -29q-41 0 -66.5 12t-33 31t-9.5 41t3 41l53 370h-82l3 22h82l20 145l27 4l-21 -149h147l-4 -22h-146l-50 -359q-4 -32 -4 -56.5t19.5 -39t61.5 -14.5q48 0 94 29z" />
    <glyph glyph-name="u" unicode="u" horiz-adv-x="584" 
d="M428 104l56 401h28l-71 -505h-26l11 76q-115 -88 -212 -88q-134 0 -134 127q0 22 5 54l47 336h28l-48 -342q-3 -20 -3 -42q0 -107 105 -107q99 0 214 90z" />
    <glyph glyph-name="v" unicode="v" horiz-adv-x="461" 
d="M210 0h-28l-127 505h27l117 -473h1l234 473h28z" />
    <glyph glyph-name="w" unicode="w" horiz-adv-x="691" 
d="M176 0h-32l-89 505h28l81 -475l195 475h39l66 -476l203 476h28l-220 -505h-32l-67 484z" />
    <glyph glyph-name="x" unicode="x" horiz-adv-x="422" 
d="M418 505l-196 -247l140 -258h-32l-128 236l-180 -236h-34l200 259l-134 246h31l122 -225l177 225h34z" />
    <glyph glyph-name="y" unicode="y" horiz-adv-x="431" 
d="M164 1l-99 504h27l91 -469l236 469h28l-311 -610q-35 -69 -65 -93.5t-71 -24.5q-38 0 -74 18l9 23q36 -16 65 -16q39 0 61 22.5t59 93.5z" />
    <glyph glyph-name="z" unicode="z" horiz-adv-x="444" 
d="M436 489l-390 -465h335l-4 -24h-369l2 19l388 462h-323l4 24h359z" />
    <glyph glyph-name="braceleft" unicode="{" horiz-adv-x="273" 
d="M197 -118l-4 -27h-54q-101 0 -88 93q2 18 20.5 103.5t22.5 113.5q8 58 -11.5 81t-63.5 23h-11l4 32h11q47 0 72 24.5t33 80.5q3 26 9.5 120t10.5 118q7 45 32.5 69t82.5 24h54l-4 -27h-55q-71 0 -80 -66q-4 -27 -9.5 -112.5t-10.5 -123.5q-14 -104 -87 -123
q68 -20 53 -119q-6 -40 -23.5 -120.5t-19.5 -96.5q-5 -36 10 -51.5t53 -15.5h53z" />
    <glyph glyph-name="bar" unicode="|" horiz-adv-x="280" 
d="M94 -143h-23l127 898h23z" />
    <glyph glyph-name="braceright" unicode="}" horiz-adv-x="273" 
d="M81 710l4 27h54q101 0 88 -93q-2 -18 -20.5 -103.5t-22.5 -113.5q-8 -58 11.5 -81t63.5 -23h11l-4 -32h-11q-47 0 -72 -24.5t-33 -80.5q-3 -26 -9.5 -120t-10.5 -118q-7 -45 -32.5 -69t-82.5 -24h-54l4 27h55q71 0 80 66q4 27 9.5 112.5t10.5 123.5q14 104 87 123
q-68 20 -53 119q6 40 23.5 120.5t19.5 96.5q5 36 -10 51.5t-53 15.5h-53z" />
    <glyph glyph-name="asciitilde" unicode="~" horiz-adv-x="430" 
d="M99 381q31 0 119 -28.5t120 -28.5q47 0 44 69l21 -1q7 -51 -15 -72t-52 -21q-32 0 -120 28.5t-117 28.5q-50 0 -46 -69l-21 1q-5 36 7.5 58.5t27.5 28.5t32 6z" />
    <glyph glyph-name="uni00A0" unicode="&#xa0;" horiz-adv-x="256" 
 />
    <glyph glyph-name="exclamdown" unicode="&#xa1;" horiz-adv-x="240" 
d="M112 329h23l-69 -549h-37zM108 478q6 38 42 38q37 0 31 -38q-6 -37 -41 -37q-38 0 -32 37z" />
    <glyph glyph-name="cent" unicode="&#xa2;" horiz-adv-x="493" 
d="M209 0l13 96q-29 3 -54 13t-50 31t-39.5 61.5t-14.5 95.5q0 132 60.5 207.5t167.5 81.5l14 100h25l-14 -99q65 -2 102 -42t33 -106l-23 -2q4 121 -116 126l-63 -445q54 1 96 31.5t60 85.5l24 -7q-21 -66 -72 -99t-111 -34l-13 -95h-25zM90 296q0 -26 5 -51t18.5 -54
t42.5 -48.5t70 -23.5l62 443q-97 -6 -147.5 -77t-50.5 -189z" />
    <glyph glyph-name="sterling" unicode="&#xa3;" horiz-adv-x="544" 
d="M418 338h-241q18 -54 18 -92q0 -118 -116 -222h218q64 0 99.5 28.5t55.5 94.5l25 -6q-24 -77 -66.5 -109t-120.5 -32h-298l3 24h53q123 107 123 221q0 41 -18 93h-104l4 24h91q-1 2 -5.5 13.5t-5.5 15t-5 14t-5.5 15t-4.5 14.5t-4.5 16t-3.5 15.5t-3 17.5t-1.5 17.5
t-0.5 18.5q0 61 20 105.5t55 68t73.5 34t83.5 10.5q88 0 131.5 -48t39.5 -137l-23 -3q0 81 -34.5 123t-116.5 42q-90 0 -147 -46t-57 -149q0 -12 1 -24t4 -25t4.5 -21.5t6.5 -23.5t7 -20.5t8.5 -22t7.5 -20.5h253z" />
    <glyph glyph-name="currency" unicode="&#xa4;" 
d="M535 26l-92 91q-56 -54 -145 -54q-91 0 -148 57l-90 -90l-21 21l91 91q-42 58 -42 141q0 82 40 137l-94 95l21 21l93 -93q57 59 150 59q100 0 155 -60l93 93l21 -21l-96 -96q35 -55 35 -135q0 -85 -43 -143l93 -93zM116 283q0 -89 52 -141.5t130 -52.5q84 0 133.5 55.5
t49.5 138.5q0 84 -47 138.5t-136 54.5q-85 0 -133.5 -55.5t-48.5 -137.5z" />
    <glyph glyph-name="yen" unicode="&#xa5;" horiz-adv-x="483" 
d="M393 256h-138l-34 -256h-24l34 256h-142l3 24h142l15 107h-142l3 24h128l-136 313h27l133 -310h1l216 310h31l-220 -313h125l-4 -24h-137l-15 -107h138z" />
    <glyph glyph-name="brokenbar" unicode="&#xa6;" horiz-adv-x="280" 
d="M94 -143h-23l55 388h23zM172 406h-23l49 349h23z" />
    <glyph glyph-name="section" unicode="&#xa7;" horiz-adv-x="539" 
d="M41 238q0 107 135 177q-60 40 -60 111q0 88 62 135.5t149 47.5q84 0 125 -41.5t41 -110.5q0 -17 -1 -25l-27 -4q3 73 -28 112t-117 39q-44 0 -78 -13.5t-51 -31.5t-28 -41t-13.5 -38t-2.5 -26q0 -51 33.5 -80.5t81.5 -42.5l95.5 -26t81 -43t33.5 -82q0 -100 -129 -174
q56 -38 56 -105q0 -92 -61.5 -141t-143.5 -49q-89 0 -131 40.5t-42 109.5q0 18 1 27l27 4v-14q0 -73 35.5 -106t109.5 -33q83 0 128.5 43.5t45.5 113.5q0 40 -24 67t-60.5 39l-79 25t-79 25.5t-60.5 40.5t-24 70zM200 400q-128 -64 -128 -162q0 -35 25.5 -59t57 -33.5
l81 -24t77.5 -26.5q55 26 92 68t37 92q0 35 -26 59t-57 34.5t-82 25.5t-77 26z" />
    <glyph glyph-name="dieresis" unicode="&#xa8;" horiz-adv-x="499" 
d="M248 659q-4 -34 -30 -34q-29 0 -24 34q6 35 33 35t21 -35zM406 659q-4 -34 -30 -34q-29 0 -24 34q6 35 33 35t21 -35z" />
    <glyph glyph-name="copyright" unicode="&#xa9;" horiz-adv-x="739" 
d="M691 306q0 -142 -89.5 -230t-232.5 -88q-154 0 -236.5 85t-82.5 219q0 81 28 144.5t74.5 101t102.5 56.5t116 19q149 0 234.5 -82t85.5 -225zM371 14q132 0 212 82.5t80 208.5q0 141 -80 211.5t-212 70.5q-127 0 -210 -79t-83 -215q0 -129 75.5 -204t217.5 -75zM374 111
q-181 0 -181 199q0 95 47.5 145t130.5 50q64 0 104.5 -30.5t44.5 -87.5l-26 -5q-8 52 -36.5 74.5t-85.5 22.5q-70 0 -110.5 -42.5t-40.5 -125.5q0 -174 152 -174q105 0 124 88l27 -6q-13 -55 -54 -81.5t-96 -26.5z" />
    <glyph glyph-name="ordfeminine" unicode="&#xaa;" horiz-adv-x="376" 
d="M346 603l-37 -271q-6 -37 20 -37q9 0 19 4l-3 -19q-8 -4 -22 -4q-44 0 -35 56q-64 -58 -125 -58q-99 0 -99 127q0 34 7.5 68t23.5 67.5t47.5 54t74.5 20.5q56 0 104 -42l9 34h16zM289 357l26 192q-42 40 -100 40q-46 0 -76 -32.5t-40.5 -72.5t-10.5 -84q0 -103 80 -103
q31 0 57.5 13t63.5 47z" />
    <glyph glyph-name="guillemotleft" unicode="&#xab;" horiz-adv-x="410" 
d="M179 103h-31l-69 159l110 146h32l-109 -146zM312 103h-31l-69 159l110 146h32l-109 -146z" />
    <glyph glyph-name="logicalnot" unicode="&#xac;" 
d="M461 215h-29l20 96h-337l5 25h367z" />
    <glyph glyph-name="uni00AD" unicode="&#xad;" horiz-adv-x="319" 
d="M295 289h-271l4 25h271z" />
    <glyph glyph-name="registered" unicode="&#xae;" horiz-adv-x="437" 
d="M416 485q0 -79 -48.5 -128t-126.5 -49q-86 0 -131 47t-45 123q0 81 50.5 128.5t125.5 47.5q81 0 128 -45t47 -124zM394 486q0 72 -41.5 109.5t-111.5 37.5q-67 0 -110.5 -42.5t-43.5 -111.5q0 -71 40 -110.5t113 -39.5q69 0 111.5 43t42.5 114zM272 473l49 -84h-23
l-45 80h-43v-80h-22v188h54q64 0 64 -53q0 -38 -34 -51zM210 489h28q45 0 45 34q0 18 -10.5 25.5t-34.5 7.5h-28v-67z" />
    <glyph glyph-name="macron" unicode="&#xaf;" horiz-adv-x="500" 
d="M452 645h-270l3 27h270z" />
    <glyph glyph-name="degree" unicode="&#xb0;" horiz-adv-x="278" 
d="M166 562q39 0 62 22t28 61q10 79 -69 79t-90 -85q-11 -77 69 -77zM283 644q-7 -47 -39 -76.5t-81 -29.5q-50 0 -75 27t-18 75q7 53 41 80.5t81 27.5q50 0 74 -27.5t17 -76.5z" />
    <glyph glyph-name="plusminus" unicode="&#xb1;" horiz-adv-x="569" 
d="M332 504l-24 -169h169l-3 -24h-169l-24 -168h-24l24 168h-168l3 24h168l24 169h24zM430 0h-361l3 24h361z" />
    <glyph glyph-name="twosuperior" unicode="&#xb2;" horiz-adv-x="336" 
d="M230 793q99 0 99 -96q0 -52 -32 -99t-101 -113l-119 -114h212l-3 -22h-242l3 24l123 119q55 54 77.5 78.5t39 57.5t16.5 70q0 38 -19 54.5t-58 16.5q-50 0 -73 -24t-36 -65l-24 7q34 106 137 106z" />
    <glyph glyph-name="threesuperior" unicode="&#xb3;" horiz-adv-x="364" 
d="M65 443l25 5q5 -83 83 -83q50 0 88.5 30.5t38.5 92.5q0 47 -27 64t-78 17h-37l3 23h28q56 0 95.5 30t39.5 79q0 70 -79 70q-47 0 -72.5 -18.5t-38.5 -57.5l-23 5q29 94 136 94q51 0 77 -24t26 -67q0 -45 -29 -76t-75 -43v-2q81 -16 81 -92q0 -65 -43 -106.5t-113 -41.5
q-51 0 -78 27t-28 74z" />
    <glyph glyph-name="acute" unicode="&#xb4;" horiz-adv-x="500" 
d="M247 583l135 168h42l-157 -175z" />
    <glyph glyph-name="mu" unicode="&#xb5;" horiz-adv-x="628" 
d="M54 -176l96 681h26l-47 -339q-11 -79 12 -118.5t90 -39.5q103 0 218 110l54 387h28l-71 -505h-26l13 90q-42 -46 -102.5 -77t-113.5 -31q-94 0 -122 61l-2 -1l-27 -218h-26z" />
    <glyph glyph-name="paragraph" unicode="&#xb6;" horiz-adv-x="540" 
d="M498 724l-121 -857h-25l117 832h-115l-117 -832h-24l55 388q-88 9 -138 59t-50 134q0 72 25.5 127t67 86.5t88 47t94.5 15.5h143z" />
    <glyph glyph-name="periodcentered" unicode="&#xb7;" horiz-adv-x="147" 
d="M111 304q-6 -38 -43 -38q-36 0 -30 38q4 37 41 37q36 0 32 -37z" />
    <glyph glyph-name="cedilla" unicode="&#xb8;" horiz-adv-x="499" 
d="M113 -185l12 20q25 -20 58 -20q30 0 48.5 18t18.5 49q0 54 -76 54l20 72h25l-14 -51q34 -4 53 -23.5t19 -48.5q0 -41 -26 -67.5t-69 -26.5q-48 0 -69 24z" />
    <glyph glyph-name="onesuperior" unicode="&#xb9;" horiz-adv-x="266" 
d="M173 347h-25l55 392q-19 -13 -51 -21t-53 -8v21q44 4 70 15.5t52 37.5h13z" />
    <glyph glyph-name="ordmasculine" unicode="&#xba;" horiz-adv-x="379" 
d="M182 274q-60 0 -89.5 36.5t-29.5 99.5q0 82 42 141.5t127 59.5q118 0 118 -136q0 -80 -41.5 -140.5t-126.5 -60.5zM186 296q71 0 105 51.5t34 127.5q0 115 -97 115q-71 0 -105.5 -50.5t-34.5 -128.5q0 -115 98 -115z" />
    <glyph glyph-name="guillemotright" unicode="&#xbb;" horiz-adv-x="410" 
d="M97 408h30l70 -159l-109 -146h-33l109 148zM230 408h30l70 -159l-109 -146h-33l109 148z" />
    <glyph glyph-name="onequarter" unicode="&#xbc;" horiz-adv-x="781" 
d="M169 -12h-30l458 736h30zM193 279h-25l55 392q-19 -13 -51 -21t-53 -8v21q44 4 70 15.5t52 37.5h13zM613 0h-25l16 116h-209l3 20l241 301h35l-42 -298h56l-3 -23h-56zM429 139h178l38 271z" />
    <glyph glyph-name="onehalf" unicode="&#xbd;" horiz-adv-x="781" 
d="M175 279h-25l55 392q-19 -13 -51 -21t-53 -8v21q44 4 70 15.5t52 37.5h13zM123 -12h-30l458 736h30zM600 444q99 0 99 -96q0 -52 -32 -99t-101 -113l-119 -114h212l-3 -22h-242l3 24l123 119q55 54 77.5 78.5t39 57.5t16.5 70q0 38 -19 54.5t-58 16.5q-50 0 -73 -24
t-36 -65l-24 7q34 106 137 106z" />
    <glyph glyph-name="threequarters" unicode="&#xbe;" horiz-adv-x="781" 
d="M229 -12h-30l458 736h30zM67 375l25 5q5 -83 83 -83q50 0 88.5 30.5t38.5 92.5q0 47 -27 64t-78 17h-37l3 23h28q56 0 95.5 30t39.5 79q0 70 -79 70q-47 0 -72.5 -18.5t-38.5 -57.5l-23 5q29 94 136 94q51 0 77 -24t26 -67q0 -45 -29 -76t-75 -43v-2q81 -16 81 -92
q0 -65 -43 -106.5t-113 -41.5q-51 0 -78 27t-28 74zM650 0h-25l16 116h-209l3 20l241 301h35l-42 -298h56l-3 -23h-56zM466 139h178l38 271z" />
    <glyph glyph-name="questiondown" unicode="&#xbf;" horiz-adv-x="416" 
d="M265 331h26l-25 -178q-254 -10 -254 -203q0 -138 143 -138q135 0 172 127l24 -8q-4 -22 -17 -45t-35.5 -46.5t-61 -38.5t-86.5 -15q-76 0 -123 42t-47 121q0 51 17 91t43.5 64.5t63 41.5t69.5 24t70 10zM261 471q0 19 11.5 32t30.5 13q30 0 30 -29q0 -22 -11.5 -34
t-29.5 -12q-31 0 -31 30z" />
    <glyph glyph-name="Agrave" unicode="&#xc0;" horiz-adv-x="593" 
d="M491 0l-51 264h-289l-121 -264h-29l335 724h44l140 -724h-29zM355 706l-192 -417h272l-79 417h-1zM298 911l86 -131l-19 -7l-111 138h44z" />
    <glyph glyph-name="Aacute" unicode="&#xc1;" horiz-adv-x="593" 
d="M491 0l-51 264h-289l-121 -264h-29l335 724h44l140 -724h-29zM355 706l-192 -417h272l-79 417h-1zM341 780l123 131h44l-145 -138z" />
    <glyph glyph-name="Acircumflex" unicode="&#xc2;" horiz-adv-x="593" 
d="M491 0l-51 264h-289l-121 -264h-29l335 724h44l140 -724h-29zM355 706l-192 -417h272l-79 417h-1zM475 770l-94 99l-121 -101l-27 7l136 115h28l105 -116z" />
    <glyph glyph-name="Atilde" unicode="&#xc3;" horiz-adv-x="593" 
d="M491 0l-51 264h-289l-121 -264h-29l335 724h44l140 -724h-29zM355 706l-192 -417h272l-79 417h-1zM284 862q30 0 78.5 -27t68.5 -27q44 0 54 72l21 -2q-10 -93 -77 -93q-27 0 -77 27t-70 27q-43 0 -54 -72l-21 2q10 93 77 93z" />
    <glyph glyph-name="Adieresis" unicode="&#xc4;" horiz-adv-x="593" 
d="M491 0l-51 264h-289l-121 -264h-29l335 724h44l140 -724h-29zM355 706l-192 -417h272l-79 417h-1zM303 820q-4 -34 -30 -34q-29 0 -24 34q6 35 33 35t21 -35zM488 820q-4 -34 -30 -34q-29 0 -24 34q6 35 33 35t21 -35z" />
    <glyph glyph-name="Aring" unicode="&#xc5;" horiz-adv-x="593" 
d="M463 820q0 -36 -22.5 -63.5t-60.5 -34.5l140 -722h-29l-51 264h-289l-121 -264h-29l334 723q-55 9 -55 69q0 47 31 73.5t73 26.5q79 0 79 -72zM355 706l-192 -417h272l-79 417h-1zM363 740q35 0 55 22t20 59q0 51 -55 51q-35 0 -56.5 -21t-21.5 -58q0 -53 58 -53z" />
    <glyph glyph-name="AE" unicode="&#xc6;" horiz-adv-x="949" 
d="M862 0h-371l49 353h-245l-263 -353h-29l538 724h416l-4 -25h-338l-46 -321h316l-3 -26h-316l-46 -327h345zM544 378l45 323h-36l-240 -323h231z" />
    <glyph glyph-name="Ccedilla" unicode="&#xc7;" horiz-adv-x="647" 
d="M214 -185l12 20q25 -20 58 -20q30 0 48.5 18t18.5 49q0 54 -76 54l14 52q-117 4 -173 80.5t-56 211.5q0 208 99 332.5t264 124.5q112 0 166 -61t47 -176l-26 -3q9 215 -187 215q-149 0 -241.5 -115t-92.5 -316q0 -140 56 -203.5t170 -63.5q95 0 153.5 42t92.5 136l24 -7
q-36 -106 -104.5 -150.5t-166.5 -46.5l-8 -31q34 -4 53 -23.5t19 -48.5q0 -41 -26 -67.5t-69 -26.5q-48 0 -69 24z" />
    <glyph glyph-name="Egrave" unicode="&#xc8;" horiz-adv-x="533" 
d="M151 357l-47 -332h345l-3 -25h-371l101 724h365l-3 -25h-339l-45 -317h315l-3 -25h-315zM324 911l86 -131l-19 -7l-111 138h44z" />
    <glyph glyph-name="Eacute" unicode="&#xc9;" horiz-adv-x="533" 
d="M151 357l-47 -332h345l-3 -25h-371l101 724h365l-3 -25h-339l-45 -317h315l-3 -25h-315zM313 780l123 131h44l-145 -138z" />
    <glyph glyph-name="Ecircumflex" unicode="&#xca;" horiz-adv-x="533" 
d="M151 357l-47 -332h345l-3 -25h-371l101 724h365l-3 -25h-339l-45 -317h315l-3 -25h-315zM472 770l-94 99l-121 -101l-27 7l136 115h28l105 -116z" />
    <glyph glyph-name="Edieresis" unicode="&#xcb;" horiz-adv-x="533" 
d="M151 357l-47 -332h345l-3 -25h-371l101 724h365l-3 -25h-339l-45 -317h315l-3 -25h-315zM300 820q-4 -34 -30 -34q-29 0 -24 34q6 35 33 35t21 -35zM485 820q-4 -34 -30 -34q-29 0 -24 34q6 35 33 35t21 -35z" />
    <glyph glyph-name="Igrave" unicode="&#xcc;" horiz-adv-x="250" 
d="M104 0h-27l98 724h27zM118 911l86 -131l-19 -7l-111 138h44z" />
    <glyph glyph-name="Iacute" unicode="&#xcd;" horiz-adv-x="250" 
d="M105 0h-27l98 724h27zM182 780l123 131h44l-145 -138z" />
    <glyph glyph-name="Icircumflex" unicode="&#xce;" horiz-adv-x="250" 
d="M105 0h-27l98 724h27zM303 770l-94 99l-121 -101l-27 7l136 115h28l105 -116z" />
    <glyph glyph-name="Idieresis" unicode="&#xcf;" horiz-adv-x="250" 
d="M105 0h-27l98 724h27zM135 820q-4 -34 -30 -34q-29 0 -24 34q6 35 33 35t21 -35zM320 820q-4 -34 -30 -34q-29 0 -24 34q6 35 33 35t21 -35z" />
    <glyph glyph-name="Eth" unicode="&#xd0;" horiz-adv-x="696" 
d="M246 0h-168l48 356h-75l3 24h75l47 344h187q289 0 289 -292q0 -57 -8.5 -110t-35.5 -114t-70 -105t-118 -73.5t-174 -29.5zM108 25h136q178 0 279 103.5t101 311.5q0 140 -67.5 199.5t-193.5 59.5h-164l-43 -319h246l-3 -24h-246z" />
    <glyph glyph-name="Ntilde" unicode="&#xd1;" horiz-adv-x="700" 
d="M548 0h-39l-313 698l-94 -698h-27l98 724h39l313 -698l94 698h27zM354 862q30 0 78.5 -27t68.5 -27q44 0 54 72l21 -2q-10 -93 -77 -93q-27 0 -77 27t-70 27q-43 0 -54 -72l-21 2q10 93 77 93z" />
    <glyph glyph-name="Ograve" unicode="&#xd2;" horiz-adv-x="718" 
d="M321 -12q-130 0 -197 84t-67 231q0 194 96 314t268 120q124 0 189 -81t65 -213q0 -218 -96 -336.5t-258 -118.5zM322 14q65 0 122 24.5t103.5 73t73 131t26.5 190.5q0 122 -55.5 201.5t-176.5 79.5q-65 0 -122 -24t-104.5 -71.5t-75 -129.5t-27.5 -189q0 -57 12 -105.5
t38 -90.5t73.5 -66t112.5 -24zM377 911l86 -131l-19 -7l-111 138h44z" />
    <glyph glyph-name="Oacute" unicode="&#xd3;" horiz-adv-x="718" 
d="M321 -12q-130 0 -197 84t-67 231q0 194 96 314t268 120q124 0 189 -81t65 -213q0 -218 -96 -336.5t-258 -118.5zM322 14q65 0 122 24.5t103.5 73t73 131t26.5 190.5q0 122 -55.5 201.5t-176.5 79.5q-65 0 -122 -24t-104.5 -71.5t-75 -129.5t-27.5 -189q0 -57 12 -105.5
t38 -90.5t73.5 -66t112.5 -24zM374 780l123 131h44l-145 -138z" />
    <glyph glyph-name="Ocircumflex" unicode="&#xd4;" horiz-adv-x="718" 
d="M321 -12q-130 0 -197 84t-67 231q0 194 96 314t268 120q124 0 189 -81t65 -213q0 -218 -96 -336.5t-258 -118.5zM322 14q65 0 122 24.5t103.5 73t73 131t26.5 190.5q0 122 -55.5 201.5t-176.5 79.5q-65 0 -122 -24t-104.5 -71.5t-75 -129.5t-27.5 -189q0 -57 12 -105.5
t38 -90.5t73.5 -66t112.5 -24zM535 770l-94 99l-121 -101l-27 7l136 115h28l105 -116z" />
    <glyph glyph-name="Otilde" unicode="&#xd5;" horiz-adv-x="718" 
d="M321 -12q-130 0 -197 84t-67 231q0 194 96 314t268 120q124 0 189 -81t65 -213q0 -218 -96 -336.5t-258 -118.5zM322 14q65 0 122 24.5t103.5 73t73 131t26.5 190.5q0 122 -55.5 201.5t-176.5 79.5q-65 0 -122 -24t-104.5 -71.5t-75 -129.5t-27.5 -189q0 -57 12 -105.5
t38 -90.5t73.5 -66t112.5 -24zM364 862q30 0 78.5 -27t68.5 -27q44 0 54 72l21 -2q-10 -93 -77 -93q-27 0 -77 27t-70 27q-43 0 -54 -72l-21 2q10 93 77 93z" />
    <glyph glyph-name="Odieresis" unicode="&#xd6;" horiz-adv-x="718" 
d="M321 -12q-130 0 -197 84t-67 231q0 194 96 314t268 120q124 0 189 -81t65 -213q0 -218 -96 -336.5t-258 -118.5zM322 14q65 0 122 24.5t103.5 73t73 131t26.5 190.5q0 122 -55.5 201.5t-176.5 79.5q-65 0 -122 -24t-104.5 -71.5t-75 -129.5t-27.5 -189q0 -57 12 -105.5
t38 -90.5t73.5 -66t112.5 -24zM365 820q-4 -34 -30 -34q-29 0 -24 34q6 35 33 35t21 -35zM550 820q-4 -34 -30 -34q-29 0 -24 34q6 35 33 35t21 -35z" />
    <glyph glyph-name="multiply" unicode="&#xd7;" 
d="M410 199l-20 -18l-104 123l-139 -121l-18 19l140 120l-100 116l20 18l98 -117l135 120l18 -19l-135 -119z" />
    <glyph glyph-name="Oslash" unicode="&#xd8;" horiz-adv-x="718" 
d="M321 -12q-51 0 -95 14l-33 -77h-29l37 87q-144 65 -144 291q0 194 96 314t268 120q49 0 89 -14l30 69h29l-34 -79q69 -32 104.5 -103t35.5 -167q0 -218 -96 -336.5t-258 -118.5zM86 300q0 -201 126 -263l288 664q-39 13 -85 13q-65 0 -122 -24t-104.5 -71.5t-75 -129.5
t-27.5 -189zM322 14q65 0 122 24.5t103.5 73t73 131t26.5 190.5q0 195 -122 257l-288 -663q39 -13 85 -13z" />
    <glyph glyph-name="Ugrave" unicode="&#xd9;" horiz-adv-x="675" 
d="M627 724l-68 -501q-32 -235 -261 -235q-232 0 -199 232l68 504h27l-68 -506q-16 -111 28.5 -158t139.5 -47q211 0 239 207l67 504h27zM369 911l86 -131l-19 -7l-111 138h44z" />
    <glyph glyph-name="Uacute" unicode="&#xda;" horiz-adv-x="675" 
d="M627 724l-68 -501q-32 -235 -261 -235q-232 0 -199 232l68 504h27l-68 -506q-16 -111 28.5 -158t139.5 -47q211 0 239 207l67 504h27zM368 780l123 131h44l-145 -138z" />
    <glyph glyph-name="Ucircumflex" unicode="&#xdb;" horiz-adv-x="675" 
d="M627 724l-68 -501q-32 -235 -261 -235q-232 0 -199 232l68 504h27l-68 -506q-16 -111 28.5 -158t139.5 -47q211 0 239 207l67 504h27zM512 770l-94 99l-121 -101l-27 7l136 115h28l105 -116z" />
    <glyph glyph-name="Udieresis" unicode="&#xdc;" horiz-adv-x="675" 
d="M627 724l-68 -501q-32 -235 -261 -235q-232 0 -199 232l68 504h27l-68 -506q-16 -111 28.5 -158t139.5 -47q211 0 239 207l67 504h27zM339 820q-4 -34 -30 -34q-29 0 -24 34q6 35 33 35t21 -35zM524 820q-4 -34 -30 -34q-29 0 -24 34q6 35 33 35t21 -35z" />
    <glyph glyph-name="Yacute" unicode="&#xdd;" horiz-adv-x="483" 
d="M255 291l-39 -291h-24l39 291l-170 433h29l156 -402h1l257 402h29zM294 780l123 131h44l-145 -138z" />
    <glyph glyph-name="Thorn" unicode="&#xde;" horiz-adv-x="576" 
d="M126 180l-24 -180h-27l98 724h27l-17 -123h140q218 0 218 -175q0 -34 -5.5 -64.5t-24 -65t-48 -59t-82 -41t-121.5 -16.5h-134zM130 205h128q122 0 188.5 48.5t66.5 174.5q0 46 -16.5 76.5t-48 45.5t-66.5 20.5t-83 5.5h-119z" />
    <glyph glyph-name="germandbls" unicode="&#xdf;" horiz-adv-x="665" 
d="M70 -212h-26l109 778q15 106 78 153.5t158 47.5q89 0 134 -40.5t45 -110.5q0 -74 -39.5 -123.5t-104.5 -67.5v-1q84 -14 129 -62t45 -126q0 -120 -61 -184t-153 -64q-167 0 -178 159l26 5q10 -140 152 -140q85 0 136 58t51 162q0 92 -60 134t-158 42h-44l3 22h14
q107 0 161 56t54 124q0 135 -151 135q-93 0 -145.5 -45t-67.5 -153z" />
    <glyph glyph-name="agrave" unicode="&#xe0;" horiz-adv-x="558" 
d="M497 505l-58 -410q-6 -45 3.5 -60.5t35.5 -15.5q14 0 25 3l-3 -22q-15 -4 -29 -4q-28 0 -45.5 18t-13.5 58q-108 -84 -188 -84q-88 0 -125.5 53t-37.5 151q0 149 65 236.5t172 87.5q90 0 165 -60l14 49h20zM414 104l45 326q-66 60 -164 60q-56 0 -98.5 -27.5t-65 -73
t-33.5 -94t-11 -99.5q0 -95 32.5 -139t99.5 -44q92 0 195 91zM281 751l95 -168l-19 -7l-115 175h39z" />
    <glyph glyph-name="aacute" unicode="&#xe1;" horiz-adv-x="558" 
d="M497 505l-58 -410q-6 -45 3.5 -60.5t35.5 -15.5q14 0 25 3l-3 -22q-15 -4 -29 -4q-28 0 -45.5 18t-13.5 58q-108 -84 -188 -84q-88 0 -125.5 53t-37.5 151q0 149 65 236.5t172 87.5q90 0 165 -60l14 49h20zM414 104l45 326q-66 60 -164 60q-56 0 -98.5 -27.5t-65 -73
t-33.5 -94t-11 -99.5q0 -95 32.5 -139t99.5 -44q92 0 195 91zM289 583l135 168h42l-157 -175z" />
    <glyph glyph-name="acircumflex" unicode="&#xe2;" horiz-adv-x="558" 
d="M497 505l-58 -410q-6 -45 3.5 -60.5t35.5 -15.5q14 0 25 3l-3 -22q-15 -4 -29 -4q-28 0 -45.5 18t-13.5 58q-108 -84 -188 -84q-88 0 -125.5 53t-37.5 151q0 149 65 236.5t172 87.5q90 0 165 -60l14 49h20zM414 104l45 326q-66 60 -164 60q-56 0 -98.5 -27.5t-65 -73
t-33.5 -94t-11 -99.5q0 -95 32.5 -139t99.5 -44q92 0 195 91zM472 583l-27 -4l-90 146l-123 -146l-27 6l138 165h27z" />
    <glyph glyph-name="atilde" unicode="&#xe3;" horiz-adv-x="558" 
d="M497 505l-58 -410q-6 -45 3.5 -60.5t35.5 -15.5q14 0 25 3l-3 -22q-15 -4 -29 -4q-28 0 -45.5 18t-13.5 58q-108 -84 -188 -84q-88 0 -125.5 53t-37.5 151q0 149 65 236.5t172 87.5q90 0 165 -60l14 49h20zM414 104l45 326q-66 60 -164 60q-56 0 -98.5 -27.5t-65 -73
t-33.5 -94t-11 -99.5q0 -95 32.5 -139t99.5 -44q92 0 195 91zM264 690q30 0 78.5 -27t68.5 -27q44 0 54 72l21 -2q-10 -93 -77 -93q-27 0 -77 27t-70 27q-43 0 -54 -72l-21 2q10 93 77 93z" />
    <glyph glyph-name="adieresis" unicode="&#xe4;" horiz-adv-x="558" 
d="M497 505l-58 -410q-6 -45 3.5 -60.5t35.5 -15.5q14 0 25 3l-3 -22q-15 -4 -29 -4q-28 0 -45.5 18t-13.5 58q-108 -84 -188 -84q-88 0 -125.5 53t-37.5 151q0 149 65 236.5t172 87.5q90 0 165 -60l14 49h20zM414 104l45 326q-66 60 -164 60q-56 0 -98.5 -27.5t-65 -73
t-33.5 -94t-11 -99.5q0 -95 32.5 -139t99.5 -44q92 0 195 91zM293 659q-4 -34 -30 -34q-29 0 -24 34q6 35 33 35t21 -35zM451 659q-4 -34 -30 -34q-29 0 -24 34q6 35 33 35t21 -35z" />
    <glyph glyph-name="aring" unicode="&#xe5;" horiz-adv-x="558" 
d="M497 505l-58 -410q-6 -45 3.5 -60.5t35.5 -15.5q14 0 25 3l-3 -22q-15 -4 -29 -4q-28 0 -45.5 18t-13.5 58q-108 -84 -188 -84q-88 0 -125.5 53t-37.5 151q0 149 65 236.5t172 87.5q90 0 165 -60l14 49h20zM414 104l45 326q-66 60 -164 60q-56 0 -98.5 -27.5t-65 -73
t-33.5 -94t-11 -99.5q0 -95 32.5 -139t99.5 -44q92 0 195 91zM433 676q0 -41 -28 -70t-76 -29q-79 0 -79 71q0 47 31 73.5t73 26.5q79 0 79 -72zM333 596q35 0 55 22t20 59q0 51 -55 51q-35 0 -56.5 -21t-21.5 -58q0 -53 58 -53z" />
    <glyph glyph-name="ae" unicode="&#xe6;" horiz-adv-x="847" 
d="M584 -12q-108 0 -156 97q-118 -97 -203 -97q-34 0 -61 8.5t-51.5 29t-38 63t-13.5 103.5q0 149 65 236.5t173 87.5q91 0 164 -60l14 49h20l-9 -63q61 74 172 74q72 0 109.5 -34.5t37.5 -87.5q0 -88 -84 -133q-94 -51 -291 -52q-1 -53 10 -93.5t47.5 -71t96.5 -30.5
q68 0 112.5 34t60.5 89l25 -5q-22 -74 -77.5 -109t-122.5 -35zM419 108q-15 41 -15 104q0 122 64 209q-67 69 -173 69q-53 0 -94.5 -25.5t-65.5 -68t-36 -94.5t-12 -110q0 -179 130 -179q96 0 202 95zM659 490q-55 0 -98 -22.5t-68.5 -60.5t-40 -81t-19.5 -91q183 3 265 41
q80 37 80 119q0 47 -31.5 71t-87.5 24z" />
    <glyph glyph-name="ccedilla" unicode="&#xe7;" horiz-adv-x="524" 
d="M146 -185l12 20q25 -20 58 -20q30 0 48.5 18t18.5 49q0 54 -76 54l14 53q-160 10 -160 219q0 133 68 220.5t188 87.5q86 0 125 -51.5t29 -137.5l-25 -3q3 81 -27 123.5t-105 42.5q-58 0 -102.5 -25.5t-70.5 -68t-39 -92t-13 -103.5q0 -98 42.5 -142.5t107.5 -44.5
q137 0 181 128l23 -6q-18 -62 -68 -104t-129 -44l-8 -31q34 -4 53 -23.5t19 -48.5q0 -41 -26 -67.5t-69 -26.5q-48 0 -69 24z" />
    <glyph glyph-name="egrave" unicode="&#xe8;" horiz-adv-x="503" 
d="M239 -12q-81 0 -130 56t-49 169q0 127 69.5 215t186.5 88q76 0 111.5 -36t35.5 -86q0 -119 -149 -160q-82 -22 -226 -25q1 -51 13 -92t48.5 -72t94.5 -31q70 0 113.5 35.5t57.5 87.5l25 -5q-22 -73 -75.5 -108.5t-125.5 -35.5zM315 491q-56 0 -100.5 -24t-70.5 -63
t-39.5 -82t-15.5 -87q159 2 245 33q45 17 72 49t27 77q0 46 -30 71.5t-88 25.5zM254 751l95 -168l-19 -7l-115 175h39z" />
    <glyph glyph-name="eacute" unicode="&#xe9;" horiz-adv-x="503" 
d="M239 -12q-81 0 -130 56t-49 169q0 127 69.5 215t186.5 88q76 0 111.5 -36t35.5 -86q0 -119 -149 -160q-82 -22 -226 -25q1 -51 13 -92t48.5 -72t94.5 -31q70 0 113.5 35.5t57.5 87.5l25 -5q-22 -73 -75.5 -108.5t-125.5 -35.5zM315 491q-56 0 -100.5 -24t-70.5 -63
t-39.5 -82t-15.5 -87q159 2 245 33q45 17 72 49t27 77q0 46 -30 71.5t-88 25.5zM279 583l135 168h42l-157 -175z" />
    <glyph glyph-name="ecircumflex" unicode="&#xea;" horiz-adv-x="503" 
d="M239 -12q-81 0 -130 56t-49 169q0 127 69.5 215t186.5 88q76 0 111.5 -36t35.5 -86q0 -119 -149 -160q-82 -22 -226 -25q1 -51 13 -92t48.5 -72t94.5 -31q70 0 113.5 35.5t57.5 87.5l25 -5q-22 -73 -75.5 -108.5t-125.5 -35.5zM315 491q-56 0 -100.5 -24t-70.5 -63
t-39.5 -82t-15.5 -87q159 2 245 33q45 17 72 49t27 77q0 46 -30 71.5t-88 25.5zM460 583l-27 -4l-90 146l-123 -146l-27 6l138 165h27z" />
    <glyph glyph-name="edieresis" unicode="&#xeb;" horiz-adv-x="503" 
d="M239 -12q-81 0 -130 56t-49 169q0 127 69.5 215t186.5 88q76 0 111.5 -36t35.5 -86q0 -119 -149 -160q-82 -22 -226 -25q1 -51 13 -92t48.5 -72t94.5 -31q70 0 113.5 35.5t57.5 87.5l25 -5q-22 -73 -75.5 -108.5t-125.5 -35.5zM315 491q-56 0 -100.5 -24t-70.5 -63
t-39.5 -82t-15.5 -87q159 2 245 33q45 17 72 49t27 77q0 46 -30 71.5t-88 25.5zM274 659q-4 -34 -30 -34q-29 0 -24 34q6 35 33 35t21 -35zM432 659q-4 -34 -30 -34q-29 0 -24 34q6 35 33 35t21 -35z" />
    <glyph glyph-name="igrave" unicode="&#xec;" horiz-adv-x="226" 
d="M161 505l-71 -505h-28l71 505h28zM79 751l95 -168l-19 -7l-115 175h39z" />
    <glyph glyph-name="iacute" unicode="&#xed;" horiz-adv-x="226" 
d="M161 505l-71 -505h-28l71 505h28zM134 583l135 168h42l-157 -175z" />
    <glyph glyph-name="icircumflex" unicode="&#xee;" horiz-adv-x="226" 
d="M161 505l-71 -505h-28l71 505h28zM293 583l-27 -4l-90 146l-123 -146l-27 6l138 165h27z" />
    <glyph glyph-name="idieresis" unicode="&#xef;" horiz-adv-x="226" 
d="M161 505l-71 -505h-28l71 505h28zM114 659q-4 -34 -30 -34q-29 0 -24 34q6 35 33 35t21 -35zM272 659q-4 -34 -30 -34q-29 0 -24 34q6 35 33 35t21 -35z" />
    <glyph glyph-name="eth" unicode="&#xf0;" horiz-adv-x="559" 
d="M244 614l113 55q-61 45 -155 69l16 20q99 -25 163 -77l113 54l7 -23l-100 -49q106 -100 106 -297q0 -53 -6.5 -101.5t-24 -100.5t-45.5 -89.5t-75.5 -62t-109.5 -24.5q-98 0 -145 60.5t-47 159.5q0 124 66 207.5t187 83.5q48 0 94 -22.5t78 -56.5h2q-13 149 -104 232
l-126 -61zM302 474q-100 0 -160 -69t-60 -194q0 -34 7 -66t23 -63t48 -50t77 -19q132 0 188.5 97.5t57.5 275.5q-23 31 -73 59.5t-108 28.5z" />
    <glyph glyph-name="ntilde" unicode="&#xf1;" horiz-adv-x="580" 
d="M153 401l-56 -401h-28l71 505h26l-11 -76q41 32 99.5 59.5t113.5 27.5q154 0 129 -174l-48 -342h-28l48 342q10 73 -14 110.5t-90 37.5q-96 0 -212 -89zM276 690q30 0 78.5 -27t68.5 -27q44 0 54 72l21 -2q-10 -93 -77 -93q-27 0 -77 27t-70 27q-43 0 -54 -72l-21 2
q10 93 77 93z" />
    <glyph glyph-name="ograve" unicode="&#xf2;" horiz-adv-x="566" 
d="M245 -12q-96 0 -141 58t-45 161q0 54 14 105.5t43 99t82.5 76t124.5 28.5q182 0 182 -221q0 -39 -7.5 -78.5t-26.5 -81.5t-47 -74t-74.5 -52.5t-104.5 -20.5zM249 13q62 0 108 27t71 70.5t36.5 90.5t11.5 95q0 195 -157 195q-62 0 -109 -26t-72.5 -69.5t-37.5 -91
t-12 -98.5q0 -193 161 -193zM280 751l95 -168l-19 -7l-115 175h39z" />
    <glyph glyph-name="oacute" unicode="&#xf3;" horiz-adv-x="566" 
d="M245 -12q-96 0 -141 58t-45 161q0 54 14 105.5t43 99t82.5 76t124.5 28.5q182 0 182 -221q0 -39 -7.5 -78.5t-26.5 -81.5t-47 -74t-74.5 -52.5t-104.5 -20.5zM249 13q62 0 108 27t71 70.5t36.5 90.5t11.5 95q0 195 -157 195q-62 0 -109 -26t-72.5 -69.5t-37.5 -91
t-12 -98.5q0 -193 161 -193zM294 583l135 168h42l-157 -175z" />
    <glyph glyph-name="ocircumflex" unicode="&#xf4;" horiz-adv-x="566" 
d="M245 -12q-96 0 -141 58t-45 161q0 54 14 105.5t43 99t82.5 76t124.5 28.5q182 0 182 -221q0 -39 -7.5 -78.5t-26.5 -81.5t-47 -74t-74.5 -52.5t-104.5 -20.5zM249 13q62 0 108 27t71 70.5t36.5 90.5t11.5 95q0 195 -157 195q-62 0 -109 -26t-72.5 -69.5t-37.5 -91
t-12 -98.5q0 -193 161 -193zM467 583l-27 -4l-90 146l-123 -146l-27 6l138 165h27z" />
    <glyph glyph-name="otilde" unicode="&#xf5;" horiz-adv-x="566" 
d="M245 -12q-96 0 -141 58t-45 161q0 54 14 105.5t43 99t82.5 76t124.5 28.5q182 0 182 -221q0 -39 -7.5 -78.5t-26.5 -81.5t-47 -74t-74.5 -52.5t-104.5 -20.5zM249 13q62 0 108 27t71 70.5t36.5 90.5t11.5 95q0 195 -157 195q-62 0 -109 -26t-72.5 -69.5t-37.5 -91
t-12 -98.5q0 -193 161 -193zM267 690q30 0 78.5 -27t68.5 -27q44 0 54 72l21 -2q-10 -93 -77 -93q-27 0 -77 27t-70 27q-43 0 -54 -72l-21 2q10 93 77 93z" />
    <glyph glyph-name="odieresis" unicode="&#xf6;" horiz-adv-x="566" 
d="M245 -12q-96 0 -141 58t-45 161q0 54 14 105.5t43 99t82.5 76t124.5 28.5q182 0 182 -221q0 -39 -7.5 -78.5t-26.5 -81.5t-47 -74t-74.5 -52.5t-104.5 -20.5zM249 13q62 0 108 27t71 70.5t36.5 90.5t11.5 95q0 195 -157 195q-62 0 -109 -26t-72.5 -69.5t-37.5 -91
t-12 -98.5q0 -193 161 -193zM287 659q-4 -34 -30 -34q-29 0 -24 34q6 35 33 35t21 -35zM445 659q-4 -34 -30 -34q-29 0 -24 34q6 35 33 35t21 -35z" />
    <glyph glyph-name="divide" unicode="&#xf7;" horiz-adv-x="569" 
d="M461 311h-361l3 24h361zM339 466q-6 -38 -43 -38q-36 0 -30 38q4 37 41 37q36 0 32 -37zM225 180q6 38 43 38q36 0 30 -38q-4 -37 -41 -37q-36 0 -32 37z" />
    <glyph glyph-name="oslash" unicode="&#xf8;" horiz-adv-x="566" 
d="M245 -12q-49 0 -90 18l-44 -78h-29l51 90q-74 53 -74 189q0 54 14 105.5t43 99t82.5 76t124.5 28.5q49 0 86 -17l49 86h29l-57 -99q75 -52 75 -191q0 -39 -7.5 -78.5t-26.5 -81.5t-47 -74t-74.5 -52.5t-104.5 -20.5zM249 13q62 0 108 27t71 70.5t36.5 90.5t11.5 95
q0 118 -60 165l-248 -432q32 -16 81 -16zM88 206q0 -120 59 -164l248 433q-34 16 -76 16q-62 0 -109 -26t-72.5 -69.5t-37.5 -91t-12 -98.5z" />
    <glyph glyph-name="ugrave" unicode="&#xf9;" horiz-adv-x="584" 
d="M428 104l56 401h28l-71 -505h-26l11 76q-115 -88 -212 -88q-134 0 -134 127q0 22 5 54l47 336h28l-48 -342q-3 -20 -3 -42q0 -107 105 -107q99 0 214 90zM294 751l95 -168l-19 -7l-115 175h39z" />
    <glyph glyph-name="uacute" unicode="&#xfa;" horiz-adv-x="584" 
d="M428 104l56 401h28l-71 -505h-26l11 76q-115 -88 -212 -88q-134 0 -134 127q0 22 5 54l47 336h28l-48 -342q-3 -20 -3 -42q0 -107 105 -107q99 0 214 90zM302 583l135 168h42l-157 -175z" />
    <glyph glyph-name="ucircumflex" unicode="&#xfb;" horiz-adv-x="584" 
d="M428 104l56 401h28l-71 -505h-26l11 76q-115 -88 -212 -88q-134 0 -134 127q0 22 5 54l47 336h28l-48 -342q-3 -20 -3 -42q0 -107 105 -107q99 0 214 90zM472 583l-27 -4l-90 146l-123 -146l-27 6l138 165h27z" />
    <glyph glyph-name="udieresis" unicode="&#xfc;" horiz-adv-x="584" 
d="M428 104l56 401h28l-71 -505h-26l11 76q-115 -88 -212 -88q-134 0 -134 127q0 22 5 54l47 336h28l-48 -342q-3 -20 -3 -42q0 -107 105 -107q99 0 214 90zM291 659q-4 -34 -30 -34q-29 0 -24 34q6 35 33 35t21 -35zM449 659q-4 -34 -30 -34q-29 0 -24 34q6 35 33 35
t21 -35z" />
    <glyph glyph-name="yacute" unicode="&#xfd;" horiz-adv-x="431" 
d="M164 1l-99 504h27l91 -469l236 469h28l-311 -610q-35 -69 -65 -93.5t-71 -24.5q-38 0 -74 18l9 23q36 -16 65 -16q39 0 61 22.5t59 93.5zM239 583l135 168h42l-157 -175z" />
    <glyph glyph-name="thorn" unicode="&#xfe;" horiz-adv-x="577" 
d="M200 755l-47 -327h1q112 88 206 88q151 0 151 -195q0 -163 -69.5 -248t-169.5 -85q-87 0 -172 64l-37 -264h-26l136 967h27zM482 324q0 87 -29.5 126.5t-95.5 39.5q-53 0 -110 -29.5t-98 -63.5l-44 -314q69 -69 166 -69q57 0 100 27t66 73t34 98.5t11 111.5z" />
    <glyph glyph-name="ydieresis" unicode="&#xff;" horiz-adv-x="431" 
d="M164 1l-99 504h27l91 -469l236 469h28l-311 -610q-35 -69 -65 -93.5t-71 -24.5q-38 0 -74 18l9 23q36 -16 65 -16q39 0 61 22.5t59 93.5zM213 659q-4 -34 -30 -34q-29 0 -24 34q6 35 33 35t21 -35zM371 659q-4 -34 -30 -34q-29 0 -24 34q6 35 33 35t21 -35z" />
    <glyph glyph-name="Amacron" unicode="&#x100;" horiz-adv-x="593" 
d="M491 0l-51 264h-289l-121 -264h-29l335 724h44l140 -724h-29zM355 706l-192 -417h272l-79 417h-1zM515 808h-287l3 27h287z" />
    <glyph glyph-name="amacron" unicode="&#x101;" horiz-adv-x="558" 
d="M497 505l-58 -410q-6 -45 3.5 -60.5t35.5 -15.5q14 0 25 3l-3 -22q-15 -4 -29 -4q-28 0 -45.5 18t-13.5 58q-108 -84 -188 -84q-88 0 -125.5 53t-37.5 151q0 149 65 236.5t172 87.5q90 0 165 -60l14 49h20zM414 104l45 326q-66 60 -164 60q-56 0 -98.5 -27.5t-65 -73
t-33.5 -94t-11 -99.5q0 -95 32.5 -139t99.5 -44q92 0 195 91zM472 645h-270l3 27h270z" />
    <glyph glyph-name="Abreve" unicode="&#x102;" horiz-adv-x="593" 
d="M491 0l-51 264h-289l-121 -264h-29l335 724h44l140 -724h-29zM355 706l-192 -417h272l-79 417h-1zM373 811q85 0 110 86l24 -4q-25 -105 -137 -105q-51 0 -78.5 26.5t-26.5 77.5l26 4q-4 -85 82 -85z" />
    <glyph glyph-name="abreve" unicode="&#x103;" horiz-adv-x="558" 
d="M497 505l-58 -410q-6 -45 3.5 -60.5t35.5 -15.5q14 0 25 3l-3 -22q-15 -4 -29 -4q-28 0 -45.5 18t-13.5 58q-108 -84 -188 -84q-88 0 -125.5 53t-37.5 151q0 149 65 236.5t172 87.5q90 0 165 -60l14 49h20zM414 104l45 326q-66 60 -164 60q-56 0 -98.5 -27.5t-65 -73
t-33.5 -94t-11 -99.5q0 -95 32.5 -139t99.5 -44q92 0 195 91zM454 725l24 -4q-7 -60 -41.5 -103t-104.5 -43q-130 0 -113 144l26 4q-6 -66 15.5 -95.5t74.5 -29.5q50 0 78.5 30.5t40.5 96.5z" />
    <glyph glyph-name="Aogonek" unicode="&#x104;" horiz-adv-x="593" 
d="M530 -160l17 -11q-35 -47 -84 -47q-81 0 -81 73q0 83 108 150l-50 259h-289l-121 -264h-29l335 724h44l140 -724q-57 -36 -84.5 -69.5t-27.5 -75.5q0 -52 55 -52q36 0 67 37zM355 706l-192 -417h272l-79 417h-1z" />
    <glyph glyph-name="aogonek" unicode="&#x105;" horiz-adv-x="558" 
d="M471 -160l17 -11q-35 -47 -84 -47q-81 0 -81 73q0 91 126 146q-43 11 -37 71q-108 -84 -188 -84q-88 0 -125.5 53t-37.5 151q0 149 65 236.5t172 87.5q90 0 165 -60l14 49h20l-58 -410q-6 -45 3.5 -60.5t35.5 -15.5q14 0 25 3l-3 -23q-63 -15 -107 -54t-44 -88
q0 -54 55 -54q36 0 67 37zM414 104l45 326q-66 60 -164 60q-56 0 -98.5 -27.5t-65 -73t-33.5 -94t-11 -99.5q0 -95 32.5 -139t99.5 -44q92 0 195 91z" />
    <glyph glyph-name="Cacute" unicode="&#x106;" horiz-adv-x="647" 
d="M561 192l24 -7q-37 -109 -108 -153t-173 -44q-244 0 -244 292q0 208 99 332.5t264 124.5q112 0 166 -61t47 -176l-26 -3q9 215 -187 215q-149 0 -241.5 -115t-92.5 -316q0 -140 56 -203.5t170 -63.5q95 0 153.5 42t92.5 136zM388 780l123 131h44l-145 -138z" />
    <glyph glyph-name="cacute" unicode="&#x107;" horiz-adv-x="524" 
d="M239 -12q-178 0 -178 220q0 133 68 220.5t188 87.5q86 0 125 -51.5t29 -137.5l-25 -3q3 81 -27 123.5t-105 42.5q-58 0 -102.5 -25.5t-70.5 -68t-39 -92t-13 -103.5q0 -98 42.5 -142.5t107.5 -44.5q137 0 181 128l23 -6q-18 -63 -70 -105.5t-134 -42.5zM273 583l135 168
h42l-157 -175z" />
    <glyph glyph-name="Ccircumflex" unicode="&#x108;" horiz-adv-x="647" 
d="M561 192l24 -7q-37 -109 -108 -153t-173 -44q-244 0 -244 292q0 208 99 332.5t264 124.5q112 0 166 -61t47 -176l-26 -3q9 215 -187 215q-149 0 -241.5 -115t-92.5 -316q0 -140 56 -203.5t170 -63.5q95 0 153.5 42t92.5 136zM537 770l-94 99l-121 -101l-27 7l136 115h28
l105 -116z" />
    <glyph glyph-name="ccircumflex" unicode="&#x109;" horiz-adv-x="524" 
d="M239 -12q-178 0 -178 220q0 133 68 220.5t188 87.5q86 0 125 -51.5t29 -137.5l-25 -3q3 81 -27 123.5t-105 42.5q-58 0 -102.5 -25.5t-70.5 -68t-39 -92t-13 -103.5q0 -98 42.5 -142.5t107.5 -44.5q137 0 181 128l23 -6q-18 -63 -70 -105.5t-134 -42.5zM462 583l-27 -4
l-90 146l-123 -146l-27 6l138 165h27z" />
    <glyph glyph-name="Cdotaccent" unicode="&#x10a;" horiz-adv-x="647" 
d="M561 192l24 -7q-37 -109 -108 -153t-173 -44q-244 0 -244 292q0 208 99 332.5t264 124.5q112 0 166 -61t47 -176l-26 -3q9 215 -187 215q-149 0 -241.5 -115t-92.5 -316q0 -140 56 -203.5t170 -63.5q95 0 153.5 42t92.5 136zM456 816q-4 -34 -30 -34q-29 0 -24 34
q6 35 33 35t21 -35z" />
    <glyph glyph-name="cdotaccent" unicode="&#x10b;" horiz-adv-x="524" 
d="M239 -12q-178 0 -178 220q0 133 68 220.5t188 87.5q86 0 125 -51.5t29 -137.5l-25 -3q3 81 -27 123.5t-105 42.5q-58 0 -102.5 -25.5t-70.5 -68t-39 -92t-13 -103.5q0 -98 42.5 -142.5t107.5 -44.5q137 0 181 128l23 -6q-18 -63 -70 -105.5t-134 -42.5zM363 676
q-4 -34 -31 -34t-23 34q6 35 32 35q28 0 22 -35z" />
    <glyph glyph-name="Ccaron" unicode="&#x10c;" horiz-adv-x="647" 
d="M561 192l24 -7q-37 -109 -108 -153t-173 -44q-244 0 -244 292q0 208 99 332.5t264 124.5q112 0 166 -61t47 -176l-26 -3q9 215 -187 215q-149 0 -241.5 -115t-92.5 -316q0 -140 56 -203.5t170 -63.5q95 0 153.5 42t92.5 136zM334 891l94 -99l121 101l27 -7l-136 -115h-28
l-105 116z" />
    <glyph glyph-name="ccaron" unicode="&#x10d;" horiz-adv-x="524" 
d="M239 -12q-178 0 -178 220q0 133 68 220.5t188 87.5q86 0 125 -51.5t29 -137.5l-25 -3q3 81 -27 123.5t-105 42.5q-58 0 -102.5 -25.5t-70.5 -68t-39 -92t-13 -103.5q0 -98 42.5 -142.5t107.5 -44.5q137 0 181 128l23 -6q-18 -63 -70 -105.5t-134 -42.5zM201 739l27 4
l90 -146l123 146l27 -6l-138 -165h-27z" />
    <glyph glyph-name="Dcaron" unicode="&#x10e;" horiz-adv-x="693" 
d="M243 0h-168l98 724h193q151 0 217 -75.5t66 -216.5q0 -57 -8.5 -110t-35.5 -114t-70 -105t-118 -73.5t-174 -29.5zM105 25h136q178 0 279 103.5t101 311.5q0 140 -67.5 199.5t-193.5 59.5h-164zM286 891l94 -99l121 101l27 -7l-136 -115h-28l-105 116z" />
    <glyph glyph-name="dcaron" unicode="&#x10f;" horiz-adv-x="601" 
d="M427 0h-22l5 66h-1q-92 -78 -183 -78q-78 0 -121.5 46t-43.5 154q0 86 20.5 152t55 103t74.5 55t84 18q92 0 168 -60l42 299h28zM413 98l46 332q-70 61 -164 61q-102 0 -155 -87t-53 -212q0 -92 32.5 -135.5t99.5 -43.5q95 0 194 85zM569 567l61 188h35l-79 -192z" />
    <glyph glyph-name="Dcroat" unicode="&#x110;" horiz-adv-x="696" 
d="M246 0h-168l48 356h-75l3 24h75l47 344h187q289 0 289 -292q0 -57 -8.5 -110t-35.5 -114t-70 -105t-118 -73.5t-174 -29.5zM108 25h136q178 0 279 103.5t101 311.5q0 140 -67.5 199.5t-193.5 59.5h-164l-43 -319h246l-3 -24h-246z" />
    <glyph glyph-name="dcroat" unicode="&#x111;" horiz-adv-x="562" 
d="M305 598l3 22h178l19 135h28l-19 -135h88l-4 -22h-87l-84 -598h-22l5 66h-1q-92 -78 -183 -78q-78 0 -121.5 46t-43.5 154q0 86 20.5 152t55 103t74.5 55t84 18q92 0 168 -60l20 142h-178zM413 98l46 332q-70 61 -164 61q-102 0 -155 -87t-53 -212q0 -92 32.5 -135.5
t99.5 -43.5q95 0 194 85z" />
    <glyph glyph-name="Emacron" unicode="&#x112;" horiz-adv-x="533" 
d="M151 357l-47 -332h345l-3 -25h-371l101 724h365l-3 -25h-339l-45 -317h315l-3 -25h-315zM510 808h-287l3 27h287z" />
    <glyph glyph-name="emacron" unicode="&#x113;" horiz-adv-x="503" 
d="M239 -12q-81 0 -130 56t-49 169q0 127 69.5 215t186.5 88q76 0 111.5 -36t35.5 -86q0 -119 -149 -160q-82 -22 -226 -25q1 -51 13 -92t48.5 -72t94.5 -31q70 0 113.5 35.5t57.5 87.5l25 -5q-22 -73 -75.5 -108.5t-125.5 -35.5zM315 491q-56 0 -100.5 -24t-70.5 -63
t-39.5 -82t-15.5 -87q159 2 245 33q45 17 72 49t27 77q0 46 -30 71.5t-88 25.5zM478 645h-270l3 27h270z" />
    <glyph glyph-name="Ebreve" unicode="&#x114;" horiz-adv-x="533" 
d="M151 357l-47 -332h345l-3 -25h-371l101 724h365l-3 -25h-339l-45 -317h315l-3 -25h-315zM363 811q85 0 110 86l24 -4q-25 -105 -137 -105q-51 0 -78.5 26.5t-26.5 77.5l26 4q-4 -85 82 -85z" />
    <glyph glyph-name="ebreve" unicode="&#x115;" horiz-adv-x="503" 
d="M239 -12q-81 0 -130 56t-49 169q0 127 69.5 215t186.5 88q76 0 111.5 -36t35.5 -86q0 -119 -149 -160q-82 -22 -226 -25q1 -51 13 -92t48.5 -72t94.5 -31q70 0 113.5 35.5t57.5 87.5l25 -5q-22 -73 -75.5 -108.5t-125.5 -35.5zM315 491q-56 0 -100.5 -24t-70.5 -63
t-39.5 -82t-15.5 -87q159 2 245 33q45 17 72 49t27 77q0 46 -30 71.5t-88 25.5zM442 725l24 -4q-7 -60 -41.5 -103t-104.5 -43q-130 0 -113 144l26 4q-6 -66 15.5 -95.5t74.5 -29.5q50 0 78.5 30.5t40.5 96.5z" />
    <glyph glyph-name="Edotaccent" unicode="&#x116;" horiz-adv-x="533" 
d="M151 357l-47 -332h345l-3 -25h-371l101 724h365l-3 -25h-339l-45 -317h315l-3 -25h-315zM391 816q-4 -34 -30 -34q-29 0 -24 34q6 35 33 35t21 -35z" />
    <glyph glyph-name="edotaccent" unicode="&#x117;" horiz-adv-x="503" 
d="M239 -12q-81 0 -130 56t-49 169q0 127 69.5 215t186.5 88q76 0 111.5 -36t35.5 -86q0 -119 -149 -160q-82 -22 -226 -25q1 -51 13 -92t48.5 -72t94.5 -31q70 0 113.5 35.5t57.5 87.5l25 -5q-22 -73 -75.5 -108.5t-125.5 -35.5zM315 491q-56 0 -100.5 -24t-70.5 -63
t-39.5 -82t-15.5 -87q159 2 245 33q45 17 72 49t27 77q0 46 -30 71.5t-88 25.5zM373 676q-4 -34 -31 -34t-23 34q6 35 32 35q28 0 22 -35z" />
    <glyph glyph-name="Eogonek" unicode="&#x118;" horiz-adv-x="533" 
d="M418 -160l17 -11q-35 -47 -84 -47q-81 0 -81 73q0 80 100 145h-295l101 724h365l-3 -25h-339l-45 -317h315l-3 -25h-315l-47 -332h345l-3 -25h-38q-59 -37 -85.5 -70.5t-26.5 -74.5q0 -52 55 -52q36 0 67 37z" />
    <glyph glyph-name="eogonek" unicode="&#x119;" horiz-adv-x="503" 
d="M333 -160l17 -11q-35 -47 -84 -47q-81 0 -81 73q0 74 85 135q-20 -2 -31 -2q-81 0 -130 56t-49 169q0 127 69.5 215t186.5 88q76 0 111.5 -36t35.5 -86q0 -119 -149 -160q-82 -22 -226 -25q1 -51 13 -92t48.5 -72t94.5 -31q70 0 113.5 35.5t57.5 87.5l25 -5
q-25 -84 -106 -126q-123 -64 -123 -151q0 -52 55 -52q36 0 67 37zM315 491q-56 0 -100.5 -24t-70.5 -63t-39.5 -82t-15.5 -87q159 2 245 33q45 17 72 49t27 77q0 46 -30 71.5t-88 25.5z" />
    <glyph glyph-name="Ecaron" unicode="&#x11a;" horiz-adv-x="533" 
d="M151 357l-47 -332h345l-3 -25h-371l101 724h365l-3 -25h-339l-45 -317h315l-3 -25h-315zM269 891l94 -99l121 101l27 -7l-136 -115h-28l-105 116z" />
    <glyph glyph-name="ecaron" unicode="&#x11b;" horiz-adv-x="503" 
d="M239 -12q-81 0 -130 56t-49 169q0 127 69.5 215t186.5 88q76 0 111.5 -36t35.5 -86q0 -119 -149 -160q-82 -22 -226 -25q1 -51 13 -92t48.5 -72t94.5 -31q70 0 113.5 35.5t57.5 87.5l25 -5q-22 -73 -75.5 -108.5t-125.5 -35.5zM315 491q-56 0 -100.5 -24t-70.5 -63
t-39.5 -82t-15.5 -87q159 2 245 33q45 17 72 49t27 77q0 46 -30 71.5t-88 25.5zM197 739l27 4l90 -146l123 146l27 -6l-138 -165h-27z" />
    <glyph glyph-name="Gcircumflex" unicode="&#x11c;" horiz-adv-x="682" 
d="M613 363l-49 -363h-20l9 117q-42 -69 -101 -99t-146 -30q-246 0 -246 297q0 198 97 325t269 127q105 0 160.5 -58.5t49.5 -171.5l-26 -3q4 208 -188 208q-147 0 -240 -115t-93 -313q0 -144 56.5 -207t173.5 -63q46 0 84.5 12t63.5 28.5t45 43.5t29.5 45t17.5 46.5t9.5 35
t3.5 21.5l13 92h-240l4 25h264zM532 770l-94 99l-121 -101l-27 7l136 115h28l105 -116z" />
    <glyph glyph-name="gcircumflex" unicode="&#x11d;" horiz-adv-x="539" 
d="M281 490q-52 0 -92.5 -25t-64.5 -67.5t-36 -93.5t-12 -107q0 -176 133 -176q88 0 193 91l45 318q-27 25 -71.5 42.5t-94.5 17.5zM382 -37l15 114q-53 -40 -96 -60.5t-90 -20.5q-161 0 -161 200q0 150 66.5 235t166.5 85q89 0 168 -60l14 49h20l-79 -559
q-24 -169 -204 -169q-82 0 -128.5 33t-53.5 113l27 8q8 -63 39.5 -96t108.5 -33q76 0 125 35.5t62 125.5zM452 583l-27 -4l-90 146l-123 -146l-27 6l138 165h27z" />
    <glyph glyph-name="Gbreve" unicode="&#x11e;" horiz-adv-x="682" 
d="M613 363l-49 -363h-20l9 117q-42 -69 -101 -99t-146 -30q-246 0 -246 297q0 198 97 325t269 127q105 0 160.5 -58.5t49.5 -171.5l-26 -3q4 208 -188 208q-147 0 -240 -115t-93 -313q0 -144 56.5 -207t173.5 -63q46 0 84.5 12t63.5 28.5t45 43.5t29.5 45t17.5 46.5t9.5 35
t3.5 21.5l13 92h-240l4 25h264zM430 811q85 0 110 86l24 -4q-25 -105 -137 -105q-51 0 -78.5 26.5t-26.5 77.5l26 4q-4 -85 82 -85z" />
    <glyph glyph-name="gbreve" unicode="&#x11f;" horiz-adv-x="539" 
d="M281 490q-52 0 -92.5 -25t-64.5 -67.5t-36 -93.5t-12 -107q0 -176 133 -176q88 0 193 91l45 318q-27 25 -71.5 42.5t-94.5 17.5zM382 -37l15 114q-53 -40 -96 -60.5t-90 -20.5q-161 0 -161 200q0 150 66.5 235t166.5 85q89 0 168 -60l14 49h20l-79 -559
q-24 -169 -204 -169q-82 0 -128.5 33t-53.5 113l27 8q8 -63 39.5 -96t108.5 -33q76 0 125 35.5t62 125.5zM444 725l24 -4q-7 -60 -41.5 -103t-104.5 -43q-130 0 -113 144l26 4q-6 -66 15.5 -95.5t74.5 -29.5q50 0 78.5 30.5t40.5 96.5z" />
    <glyph glyph-name="Gdotaccent" unicode="&#x120;" horiz-adv-x="682" 
d="M613 363l-49 -363h-20l9 117q-42 -69 -101 -99t-146 -30q-246 0 -246 297q0 198 97 325t269 127q105 0 160.5 -58.5t49.5 -171.5l-26 -3q4 208 -188 208q-147 0 -240 -115t-93 -313q0 -144 56.5 -207t173.5 -63q46 0 84.5 12t63.5 28.5t45 43.5t29.5 45t17.5 46.5t9.5 35
t3.5 21.5l13 92h-240l4 25h264zM458 816q-4 -34 -30 -34q-29 0 -24 34q6 35 33 35t21 -35z" />
    <glyph glyph-name="gdotaccent" unicode="&#x121;" horiz-adv-x="539" 
d="M281 490q-52 0 -92.5 -25t-64.5 -67.5t-36 -93.5t-12 -107q0 -176 133 -176q88 0 193 91l45 318q-27 25 -71.5 42.5t-94.5 17.5zM382 -37l15 114q-53 -40 -96 -60.5t-90 -20.5q-161 0 -161 200q0 150 66.5 235t166.5 85q89 0 168 -60l14 49h20l-79 -559
q-24 -169 -204 -169q-82 0 -128.5 33t-53.5 113l27 8q8 -63 39.5 -96t108.5 -33q76 0 125 35.5t62 125.5zM334 676q-4 -34 -31 -34t-23 34q6 35 32 35q28 0 22 -35z" />
    <glyph glyph-name="Gcommaaccent" unicode="&#x122;" horiz-adv-x="682" 
d="M613 363l-49 -363h-20l9 117q-42 -69 -101 -99t-146 -30q-246 0 -246 297q0 198 97 325t269 127q105 0 160.5 -58.5t49.5 -171.5l-26 -3q4 208 -188 208q-147 0 -240 -115t-93 -313q0 -144 56.5 -207t173.5 -63q46 0 84.5 12t63.5 28.5t45 43.5t29.5 45t17.5 46.5t9.5 35
t3.5 21.5l13 92h-240l4 25h264zM252 -205l51 136h35l-65 -140z" />
    <glyph glyph-name="gcommaaccent" unicode="&#x123;" horiz-adv-x="539" 
d="M281 490q-52 0 -92.5 -25t-64.5 -67.5t-36 -93.5t-12 -107q0 -176 133 -176q88 0 193 91l45 318q-27 25 -71.5 42.5t-94.5 17.5zM382 -37l15 114q-53 -40 -96 -60.5t-90 -20.5q-161 0 -161 200q0 150 66.5 235t166.5 85q89 0 168 -60l14 49h20l-79 -559
q-24 -169 -204 -169q-82 0 -128.5 33t-53.5 113l27 8q8 -63 39.5 -96t108.5 -33q76 0 125 35.5t62 125.5zM377 706l-50 -136h-36l71 140z" />
    <glyph glyph-name="Hcircumflex" unicode="&#x124;" horiz-adv-x="683" 
d="M629 724l-98 -724h-26l49 361h-403l-49 -361h-27l98 724h27l-46 -338h402l46 338h27zM519 770l-94 99l-121 -101l-27 7l136 115h28l105 -116z" />
    <glyph glyph-name="hcircumflex" unicode="&#x125;" horiz-adv-x="580" 
d="M153 401l-56 -401h-28l106 755h26l-46 -326q41 32 99.5 59.5t113.5 27.5q154 0 129 -174l-48 -342h-28l48 342q10 73 -14 110.5t-90 37.5q-96 0 -212 -89zM295 797l-94 99l-121 -101l-27 7l136 115h28l105 -116z" />
    <glyph glyph-name="Hbar" unicode="&#x126;" horiz-adv-x="683" 
d="M629 724l-22 -161h94l-3 -24h-94l-73 -539h-26l49 361h-403l-49 -361h-27l73 539h-92l3 24h92l22 161h27l-22 -161h402l22 161h27zM154 386h402l21 153h-402z" />
    <glyph glyph-name="hbar" unicode="&#x127;" horiz-adv-x="580" 
d="M86 595l3 22h66l20 138h26l-20 -138h212l-4 -22h-211l-23 -166q41 32 99.5 59.5t113.5 27.5q154 0 129 -174l-48 -342h-28l48 342q10 73 -14 110.5t-90 37.5q-96 0 -212 -89l-56 -401h-28l83 595h-66z" />
    <glyph glyph-name="Itilde" unicode="&#x128;" horiz-adv-x="250" 
d="M105 0h-27l98 724h27zM143 862q30 0 78.5 -27t68.5 -27q44 0 54 72l21 -2q-10 -93 -77 -93q-27 0 -77 27t-70 27q-43 0 -54 -72l-21 2q10 93 77 93z" />
    <glyph glyph-name="itilde" unicode="&#x129;" horiz-adv-x="226" 
d="M161 505l-71 -505h-28l71 505h28zM94 690q30 0 78.5 -27t68.5 -27q44 0 54 72l21 -2q-10 -93 -77 -93q-27 0 -77 27t-70 27q-43 0 -54 -72l-21 2q10 93 77 93z" />
    <glyph glyph-name="Imacron" unicode="&#x12a;" horiz-adv-x="250" 
d="M105 0h-27l98 724h27zM341 808h-287l3 27h287z" />
    <glyph glyph-name="imacron" unicode="&#x12b;" horiz-adv-x="226" 
d="M161 505l-71 -505h-28l71 505h28zM298 645h-270l3 27h270z" />
    <glyph glyph-name="Ibreve" unicode="&#x12c;" horiz-adv-x="250" 
d="M105 0h-27l98 724h27zM201 811q85 0 110 86l24 -4q-25 -105 -137 -105q-51 0 -78.5 26.5t-26.5 77.5l26 4q-4 -85 82 -85z" />
    <glyph glyph-name="ibreve" unicode="&#x12d;" horiz-adv-x="226" 
d="M161 505l-71 -505h-28l71 505h28zM285 725l24 -4q-7 -60 -41.5 -103t-104.5 -43q-130 0 -113 144l26 4q-6 -66 15.5 -95.5t74.5 -29.5q50 0 78.5 30.5t40.5 96.5z" />
    <glyph glyph-name="Iogonek" unicode="&#x12e;" horiz-adv-x="250" 
d="M115 -160l17 -11q-35 -47 -84 -47q-81 0 -81 73q0 85 112 152l97 717h27l-98 -724q-58 -38 -85 -70.5t-27 -74.5q0 -52 55 -52q36 0 67 37z" />
    <glyph glyph-name="iogonek" unicode="&#x12f;" horiz-adv-x="226" 
d="M99 -160l17 -11q-35 -47 -84 -47q-81 0 -81 73q0 91 112 152l70 498h28l-71 -505q-113 -59 -113 -145q0 -52 55 -52q36 0 67 37zM198 685q0 -17 -8 -30t-25 -13q-22 0 -22 25q0 21 9.5 32.5t23.5 11.5q22 0 22 -26z" />
    <glyph glyph-name="Idotaccent" unicode="&#x130;" horiz-adv-x="250" 
d="M105 0h-27l98 724h27zM229 816q-4 -34 -30 -34q-29 0 -24 34q6 35 33 35t21 -35z" />
    <glyph glyph-name="dotlessi" unicode="&#x131;" horiz-adv-x="226" 
d="M161 505l-71 -505h-28l71 505h28z" />
    <glyph glyph-name="IJ" unicode="&#x132;" horiz-adv-x="702" 
d="M105 0h-27l98 724h27zM561 173l75 551h27l-78 -573q-11 -83 -52.5 -123t-120.5 -40q-76 0 -109 38.5t-36 96.5l26 7q7 -55 31.5 -85.5t88.5 -30.5q72 0 104 37t44 122z" />
    <glyph glyph-name="Jcircumflex" unicode="&#x134;" horiz-adv-x="445" 
d="M304 173l75 551h27l-78 -573q-11 -83 -52.5 -123t-120.5 -40q-76 0 -109 38.5t-36 96.5l26 7q7 -55 31.5 -85.5t88.5 -30.5q72 0 104 37t44 122zM505 770l-94 99l-121 -101l-27 7l136 115h28l105 -116z" />
    <glyph glyph-name="jcircumflex" unicode="&#x135;" horiz-adv-x="226" 
d="M45 -107l86 612h28l-85 -605q-9 -67 -34.5 -95t-82.5 -28q-41 0 -69 14l8 24q34 -13 62 -13q39 0 59.5 20t27.5 71zM295 583l-27 -4l-90 146l-123 -146l-27 6l138 165h27z" />
    <glyph glyph-name="Kcommaaccent" unicode="&#x136;" horiz-adv-x="580" 
d="M200 724l-53 -390l408 390h38l-332 -318l258 -406h-32l-248 387l-94 -88l-43 -299h-27l98 724h27zM213 -205l51 136h35l-65 -140z" />
    <glyph glyph-name="kcommaaccent" unicode="&#x137;" horiz-adv-x="483" 
d="M415 0h-30l-144 301l-117 -103l-27 -198h-28l106 755h28l-72 -518l300 268h42l-210 -185zM163 -205l51 136h35l-65 -140z" />
    <glyph glyph-name="kgreenlandic" unicode="&#x138;" horiz-adv-x="483" 
d="M415 0h-30l-144 301l-117 -103l-27 -198h-28l72 509h28l-38 -272l300 268h42l-210 -185z" />
    <glyph glyph-name="Lacute" unicode="&#x139;" horiz-adv-x="502" 
d="M423 0h-348l98 724h27l-95 -699h322zM185 780l123 131h44l-145 -138z" />
    <glyph glyph-name="lacute" unicode="&#x13a;" horiz-adv-x="226" 
d="M62 0l106 755h28l-106 -755h-28zM154 802l123 131h44l-145 -138z" />
    <glyph glyph-name="Lcommaaccent" unicode="&#x13b;" horiz-adv-x="502" 
d="M423 0h-348l98 724h27l-95 -699h322zM182 -205l51 136h35l-65 -140z" />
    <glyph glyph-name="lcommaaccent" unicode="&#x13c;" horiz-adv-x="226" 
d="M62 0l106 755h28l-106 -755h-28zM1 -205l51 136h35l-65 -140z" />
    <glyph glyph-name="Lcaron" unicode="&#x13d;" horiz-adv-x="502" 
d="M423 0h-348l98 724h27l-95 -699h322zM341 536l61 188h35l-79 -192z" />
    <glyph glyph-name="lcaron" unicode="&#x13e;" horiz-adv-x="264" 
d="M62 0l106 755h28l-106 -755h-28zM231 567l61 188h35l-79 -192z" />
    <glyph glyph-name="Ldot" unicode="&#x13f;" horiz-adv-x="502" 
d="M423 0h-348l98 724h27l-95 -699h322zM402 377q-4 -35 -30 -35q-30 0 -25 35q6 35 34 35q27 0 21 -35z" />
    <glyph glyph-name="ldot" unicode="&#x140;" horiz-adv-x="238" 
d="M62 0l106 755h28l-106 -755h-28zM271 393q-4 -35 -31 -35q-28 0 -24 35q6 35 33 35q28 0 22 -35z" />
    <glyph glyph-name="Lslash" unicode="&#x141;" horiz-adv-x="505" 
d="M425 0h-348l45 328l-112 -50l4 28l112 50l49 368h27l-49 -358l215 98l-4 -31l-215 -96l-42 -312h322z" />
    <glyph glyph-name="lslash" unicode="&#x142;" horiz-adv-x="248" 
d="M74 0l53 379l-96 -43l3 28l97 43l49 348h28l-48 -338l98 43l-4 -28l-98 -43l-54 -389h-28z" />
    <glyph glyph-name="Nacute" unicode="&#x143;" horiz-adv-x="700" 
d="M548 0h-39l-313 698l-94 -698h-27l98 724h39l313 -698l94 698h27zM404 780l123 131h44l-145 -138z" />
    <glyph glyph-name="nacute" unicode="&#x144;" horiz-adv-x="580" 
d="M153 401l-56 -401h-28l71 505h26l-11 -76q41 32 99.5 59.5t113.5 27.5q154 0 129 -174l-48 -342h-28l48 342q10 73 -14 110.5t-90 37.5q-96 0 -212 -89zM305 583l135 168h42l-157 -175z" />
    <glyph glyph-name="Ncommaaccent" unicode="&#x145;" horiz-adv-x="700" 
d="M548 0h-39l-313 698l-94 -698h-27l98 724h39l313 -698l94 698h27zM244 -205l51 136h35l-65 -140z" />
    <glyph glyph-name="ncommaaccent" unicode="&#x146;" horiz-adv-x="580" 
d="M153 401l-56 -401h-28l71 505h26l-11 -76q41 32 99.5 59.5t113.5 27.5q154 0 129 -174l-48 -342h-28l48 342q10 73 -14 110.5t-90 37.5q-96 0 -212 -89zM182 -205l51 136h35l-65 -140z" />
    <glyph glyph-name="Ncaron" unicode="&#x147;" horiz-adv-x="700" 
d="M548 0h-39l-313 698l-94 -698h-27l98 724h39l313 -698l94 698h27zM329 891l94 -99l121 101l27 -7l-136 -115h-28l-105 116z" />
    <glyph glyph-name="ncaron" unicode="&#x148;" horiz-adv-x="580" 
d="M153 401l-56 -401h-28l71 505h26l-11 -76q41 32 99.5 59.5t113.5 27.5q154 0 129 -174l-48 -342h-28l48 342q10 73 -14 110.5t-90 37.5q-96 0 -212 -89zM221 739l27 4l90 -146l123 146l27 -6l-138 -165h-27z" />
    <glyph glyph-name="napostrophe" unicode="&#x149;" horiz-adv-x="580" 
d="M153 401l-56 -401h-28l71 505h26l-11 -76q41 32 99.5 59.5t113.5 27.5q154 0 129 -174l-48 -342h-28l48 342q10 73 -14 110.5t-90 37.5q-96 0 -212 -89zM52 526l51 135h37l-70 -139z" />
    <glyph glyph-name="Eng" unicode="&#x14a;" horiz-adv-x="702" 
d="M508 -99l14 99l-324 698l-94 -698h-27l98 724h39l315 -678l92 678h27l-98 -724l-13 -92q-9 -67 -34.5 -95t-82.5 -28q-41 0 -69 14l8 25q34 -13 62 -13q39 0 59.5 20t27.5 70z" />
    <glyph glyph-name="eng" unicode="&#x14b;" horiz-adv-x="580" 
d="M406 -107l63 449q9 74 -14.5 111t-89.5 37q-96 0 -212 -89l-56 -401h-28l71 505h26l-11 -76q41 32 99.5 59.5t113.5 27.5q154 0 129 -174l-62 -442q-9 -67 -34.5 -95t-82.5 -28q-41 0 -69 14l8 24q34 -13 62 -13q39 0 58 20t29 71z" />
    <glyph glyph-name="Omacron" unicode="&#x14c;" horiz-adv-x="718" 
d="M321 -12q-130 0 -197 84t-67 231q0 194 96 314t268 120q124 0 189 -81t65 -213q0 -218 -96 -336.5t-258 -118.5zM322 14q65 0 122 24.5t103.5 73t73 131t26.5 190.5q0 122 -55.5 201.5t-176.5 79.5q-65 0 -122 -24t-104.5 -71.5t-75 -129.5t-27.5 -189q0 -57 12 -105.5
t38 -90.5t73.5 -66t112.5 -24zM573 808h-287l3 27h287z" />
    <glyph glyph-name="omacron" unicode="&#x14d;" horiz-adv-x="566" 
d="M245 -12q-96 0 -141 58t-45 161q0 54 14 105.5t43 99t82.5 76t124.5 28.5q182 0 182 -221q0 -39 -7.5 -78.5t-26.5 -81.5t-47 -74t-74.5 -52.5t-104.5 -20.5zM249 13q62 0 108 27t71 70.5t36.5 90.5t11.5 95q0 195 -157 195q-62 0 -109 -26t-72.5 -69.5t-37.5 -91
t-12 -98.5q0 -193 161 -193zM471 645h-270l3 27h270z" />
    <glyph glyph-name="Obreve" unicode="&#x14e;" horiz-adv-x="718" 
d="M321 -12q-130 0 -197 84t-67 231q0 194 96 314t268 120q124 0 189 -81t65 -213q0 -218 -96 -336.5t-258 -118.5zM322 14q65 0 122 24.5t103.5 73t73 131t26.5 190.5q0 122 -55.5 201.5t-176.5 79.5q-65 0 -122 -24t-104.5 -71.5t-75 -129.5t-27.5 -189q0 -57 12 -105.5
t38 -90.5t73.5 -66t112.5 -24zM433 811q85 0 110 86l24 -4q-25 -105 -137 -105q-51 0 -78.5 26.5t-26.5 77.5l26 4q-4 -85 82 -85z" />
    <glyph glyph-name="obreve" unicode="&#x14f;" horiz-adv-x="566" 
d="M245 -12q-96 0 -141 58t-45 161q0 54 14 105.5t43 99t82.5 76t124.5 28.5q182 0 182 -221q0 -39 -7.5 -78.5t-26.5 -81.5t-47 -74t-74.5 -52.5t-104.5 -20.5zM249 13q62 0 108 27t71 70.5t36.5 90.5t11.5 95q0 195 -157 195q-62 0 -109 -26t-72.5 -69.5t-37.5 -91
t-12 -98.5q0 -193 161 -193zM451 725l24 -4q-7 -60 -41.5 -103t-104.5 -43q-130 0 -113 144l26 4q-6 -66 15.5 -95.5t74.5 -29.5q50 0 78.5 30.5t40.5 96.5z" />
    <glyph glyph-name="Ohungarumlaut" unicode="&#x150;" horiz-adv-x="718" 
d="M321 -12q-130 0 -197 84t-67 231q0 194 96 314t268 120q124 0 189 -81t65 -213q0 -218 -96 -336.5t-258 -118.5zM322 14q65 0 122 24.5t103.5 73t73 131t26.5 190.5q0 122 -55.5 201.5t-176.5 79.5q-65 0 -122 -24t-104.5 -71.5t-75 -129.5t-27.5 -189q0 -57 12 -105.5
t38 -90.5t73.5 -66t112.5 -24zM340 780l103 131h44l-125 -138zM466 780l115 131h44l-137 -138z" />
    <glyph glyph-name="ohungarumlaut" unicode="&#x151;" horiz-adv-x="566" 
d="M245 -12q-96 0 -141 58t-45 161q0 54 14 105.5t43 99t82.5 76t124.5 28.5q182 0 182 -221q0 -39 -7.5 -78.5t-26.5 -81.5t-47 -74t-74.5 -52.5t-104.5 -20.5zM249 13q62 0 108 27t71 70.5t36.5 90.5t11.5 95q0 195 -157 195q-62 0 -109 -26t-72.5 -69.5t-37.5 -91
t-12 -98.5q0 -193 161 -193zM242 583l130 168h44l-153 -175zM374 583l130 168h44l-153 -175z" />
    <glyph glyph-name="OE" unicode="&#x152;" horiz-adv-x="1064" 
d="M977 0h-371l24 173q-97 -185 -306 -185q-135 0 -201 85t-66 232q0 192 96 312t275 120q59 0 105 -18t74.5 -49.5t45.5 -68t25 -79.5l29 202h365l-3 -25h-339l-45 -317h315l-3 -25h-315l-47 -332h345zM325 14q158 0 245 113t87 299q0 133 -56.5 210.5t-175.5 77.5
q-161 0 -250 -110.5t-89 -296.5q0 -145 61.5 -219t177.5 -74z" />
    <glyph glyph-name="oe" unicode="&#x153;" horiz-adv-x="909" 
d="M646 -12q-67 0 -113.5 38.5t-61.5 118.5q-63 -157 -221 -157q-99 0 -145 58t-46 158q0 42 7.5 83t26 83t46.5 74t73 52t101 20q77 0 124 -42t56 -118q30 73 89 116.5t140 43.5q72 0 109.5 -34.5t37.5 -87.5q0 -57 -33.5 -95.5t-94.5 -56.5t-117 -25t-130 -8
q-1 -34 4.5 -64t20 -62t47.5 -50.5t81 -18.5q69 0 114 34t60 89l25 -5q-21 -72 -77 -108t-123 -36zM250 13q58 0 102.5 24.5t70 66t38 91t12.5 104.5q0 92 -42.5 142t-121.5 50q-75 0 -127 -44t-73 -106.5t-21 -136.5q0 -191 162 -191zM721 490q-101 0 -158 -72.5
t-68 -182.5l19 1q19 0 33.5 0.5t41 3t49 5.5t50.5 9t52 14q45 15 72.5 47.5t27.5 78.5t-30.5 71t-88.5 25z" />
    <glyph glyph-name="Racute" unicode="&#x154;" horiz-adv-x="594" 
d="M496 0l-137 334q-33 -3 -55 -3h-157l-45 -331h-27l98 724h188q61 0 102.5 -13t62.5 -38t29.5 -52.5t8.5 -63.5q0 -184 -179 -219l141 -338h-30zM150 356h169q98 0 158 49t60 148q0 85 -46 115.5t-138 30.5h-156zM312 780l123 131h44l-145 -138z" />
    <glyph glyph-name="racute" unicode="&#x155;" horiz-adv-x="330" 
d="M152 391l-55 -391h-28l71 505h27l-12 -83q51 53 85.5 73.5t79.5 20.5q13 0 20 -1l-5 -29q-46 6 -88.5 -19t-94.5 -76zM202 583l135 168h42l-157 -175z" />
    <glyph glyph-name="Rcommaaccent" unicode="&#x156;" horiz-adv-x="594" 
d="M496 0l-137 334q-33 -3 -55 -3h-157l-45 -331h-27l98 724h188q61 0 102.5 -13t62.5 -38t29.5 -52.5t8.5 -63.5q0 -184 -179 -219l141 -338h-30zM150 356h169q98 0 158 49t60 148q0 85 -46 115.5t-138 30.5h-156zM200 -205l51 136h35l-65 -140z" />
    <glyph glyph-name="rcommaaccent" unicode="&#x157;" horiz-adv-x="330" 
d="M152 391l-55 -391h-28l71 505h27l-12 -83q51 53 85.5 73.5t79.5 20.5q13 0 20 -1l-5 -29q-46 6 -88.5 -19t-94.5 -76zM11 -205l51 136h35l-65 -140z" />
    <glyph glyph-name="Rcaron" unicode="&#x158;" horiz-adv-x="594" 
d="M496 0l-137 334q-33 -3 -55 -3h-157l-45 -331h-27l98 724h188q61 0 102.5 -13t62.5 -38t29.5 -52.5t8.5 -63.5q0 -184 -179 -219l141 -338h-30zM150 356h169q98 0 158 49t60 148q0 85 -46 115.5t-138 30.5h-156zM252 891l94 -99l121 101l27 -7l-136 -115h-28l-105 116z
" />
    <glyph glyph-name="rcaron" unicode="&#x159;" horiz-adv-x="330" 
d="M152 391l-55 -391h-28l71 505h27l-12 -83q51 53 85.5 73.5t79.5 20.5q13 0 20 -1l-5 -29q-46 6 -88.5 -19t-94.5 -76zM153 739l27 4l90 -146l123 146l27 -6l-138 -165h-27z" />
    <glyph glyph-name="Sacute" unicode="&#x15a;" horiz-adv-x="543" 
d="M522 535l-25 -3q0 86 -43 133t-125 47q-97 0 -148 -49t-51 -122q0 -67 39.5 -101.5t150.5 -67.5q81 -24 120.5 -61t39.5 -108q0 -73 -36 -123t-90 -71t-120 -21q-60 0 -102 16.5t-64.5 46.5t-33 60t-14.5 68l26 5q5 -39 14.5 -66.5t30 -52.5t58 -38t92.5 -13
q96 0 153.5 47.5t57.5 139.5q0 65 -32.5 94.5t-106.5 51.5q-113 33 -162 71.5t-49 118.5q0 90 61.5 145t168.5 55q88 0 139.5 -51.5t50.5 -150.5zM285 780l123 131h44l-145 -138z" />
    <glyph glyph-name="sacute" unicode="&#x15b;" horiz-adv-x="469" 
d="M258 516q85 0 123.5 -45.5t35.5 -113.5l-25 -2q0 139 -135 139q-75 0 -106.5 -34.5t-31.5 -79.5t28.5 -67t84.5 -38q84 -23 110 -41q50 -32 50 -93q0 -67 -45 -110t-123 -43q-169 0 -181 159l26 5q10 -140 150 -140q61 0 103.5 29.5t42.5 96.5q0 22 -8.5 39.5t-18.5 27.5
t-33 20t-35.5 13.5l-42.5 12.5q-31 9 -50.5 16.5t-41.5 22t-32.5 37t-10.5 53.5q0 63 45.5 99.5t120.5 36.5zM230 583l135 168h42l-157 -175z" />
    <glyph glyph-name="Scircumflex" unicode="&#x15c;" horiz-adv-x="543" 
d="M522 535l-25 -3q0 86 -43 133t-125 47q-97 0 -148 -49t-51 -122q0 -67 39.5 -101.5t150.5 -67.5q81 -24 120.5 -61t39.5 -108q0 -73 -36 -123t-90 -71t-120 -21q-60 0 -102 16.5t-64.5 46.5t-33 60t-14.5 68l26 5q5 -39 14.5 -66.5t30 -52.5t58 -38t92.5 -13
q96 0 153.5 47.5t57.5 139.5q0 65 -32.5 94.5t-106.5 51.5q-113 33 -162 71.5t-49 118.5q0 90 61.5 145t168.5 55q88 0 139.5 -51.5t50.5 -150.5zM444 770l-94 99l-121 -101l-27 7l136 115h28l105 -116z" />
    <glyph glyph-name="scircumflex" unicode="&#x15d;" horiz-adv-x="469" 
d="M258 516q85 0 123.5 -45.5t35.5 -113.5l-25 -2q0 139 -135 139q-75 0 -106.5 -34.5t-31.5 -79.5t28.5 -67t84.5 -38q84 -23 110 -41q50 -32 50 -93q0 -67 -45 -110t-123 -43q-169 0 -181 159l26 5q10 -140 150 -140q61 0 103.5 29.5t42.5 96.5q0 22 -8.5 39.5t-18.5 27.5
t-33 20t-35.5 13.5l-42.5 12.5q-31 9 -50.5 16.5t-41.5 22t-32.5 37t-10.5 53.5q0 63 45.5 99.5t120.5 36.5zM403 583l-27 -4l-90 146l-123 -146l-27 6l138 165h27z" />
    <glyph glyph-name="Scedilla" unicode="&#x15e;" horiz-adv-x="544" 
d="M134 -185l12 20q25 -20 58 -20q30 0 48.5 18t18.5 49q0 54 -76 54l14 53q-52 4 -89 21.5t-56.5 46t-29 57.5t-13.5 65l26 5q5 -39 14.5 -66.5t30 -52.5t58 -38t92.5 -13q96 0 153.5 47.5t57.5 139.5q0 65 -32.5 94.5t-106.5 51.5q-113 33 -162 71.5t-49 118.5
q0 90 61.5 145t168.5 55q88 0 139.5 -51.5t50.5 -150.5l-25 -3q0 86 -43 133t-125 47q-97 0 -148 -49t-51 -122q0 -67 39.5 -101.5t150.5 -67.5q81 -24 120.5 -61t39.5 -108q0 -73 -36 -123t-90 -71t-120 -21h-1l-8 -31q34 -4 53 -23.5t19 -48.5q0 -41 -26 -67.5t-69 -26.5
q-48 0 -69 24z" />
    <glyph glyph-name="scedilla" unicode="&#x15f;" horiz-adv-x="469" 
d="M124 -185l12 20q25 -20 58 -20q30 0 48.5 18t18.5 49q0 54 -76 54l14 53q-144 11 -155 158l26 5q10 -140 150 -140q61 0 103.5 29.5t42.5 96.5q0 22 -8.5 39.5t-18.5 27.5t-33 20t-35.5 13.5l-42.5 12.5q-31 9 -50.5 16.5t-41.5 22t-32.5 37t-10.5 53.5q0 63 45.5 99.5
t120.5 36.5q85 0 123.5 -45.5t35.5 -113.5l-25 -2q0 139 -135 139q-75 0 -106.5 -34.5t-31.5 -79.5t28.5 -67t84.5 -38q84 -23 110 -41q50 -32 50 -93q0 -67 -45 -110t-123 -43h-1l-8 -31q34 -4 53 -23.5t19 -48.5q0 -41 -26 -67.5t-69 -26.5q-48 0 -69 24z" />
    <glyph glyph-name="Scaron" unicode="&#x160;" horiz-adv-x="543" 
d="M522 535l-25 -3q0 86 -43 133t-125 47q-97 0 -148 -49t-51 -122q0 -67 39.5 -101.5t150.5 -67.5q81 -24 120.5 -61t39.5 -108q0 -73 -36 -123t-90 -71t-120 -21q-60 0 -102 16.5t-64.5 46.5t-33 60t-14.5 68l26 5q5 -39 14.5 -66.5t30 -52.5t58 -38t92.5 -13
q96 0 153.5 47.5t57.5 139.5q0 65 -32.5 94.5t-106.5 51.5q-113 33 -162 71.5t-49 118.5q0 90 61.5 145t168.5 55q88 0 139.5 -51.5t50.5 -150.5zM243 891l94 -99l121 101l27 -7l-136 -115h-28l-105 116z" />
    <glyph glyph-name="scaron" unicode="&#x161;" horiz-adv-x="469" 
d="M258 516q85 0 123.5 -45.5t35.5 -113.5l-25 -2q0 139 -135 139q-75 0 -106.5 -34.5t-31.5 -79.5t28.5 -67t84.5 -38q84 -23 110 -41q50 -32 50 -93q0 -67 -45 -110t-123 -43q-169 0 -181 159l26 5q10 -140 150 -140q61 0 103.5 29.5t42.5 96.5q0 22 -8.5 39.5t-18.5 27.5
t-33 20t-35.5 13.5l-42.5 12.5q-31 9 -50.5 16.5t-41.5 22t-32.5 37t-10.5 53.5q0 63 45.5 99.5t120.5 36.5zM160 739l27 4l90 -146l123 146l27 -6l-138 -165h-27z" />
    <glyph glyph-name="uni0162" unicode="&#x162;" horiz-adv-x="481" 
d="M110 -185l12 20q25 -20 58 -20q30 0 48.5 18t18.5 49q0 54 -80 54l22 67l95 696h-211l3 25h448l-4 -25h-209l-95 -699l-14 -43q34 -4 53 -23.5t19 -48.5q0 -41 -26 -67.5t-69 -26.5q-48 0 -69 24z" />
    <glyph glyph-name="uni0163" unicode="&#x163;" horiz-adv-x="349" 
d="M93 -185l12 20q25 -20 58 -20q30 0 48.5 18t18.5 49q0 54 -76 54l15 54q-39 6 -58.5 27t-19 46t2.5 50l53 370h-82l3 22h82l20 145l27 4l-21 -149h147l-4 -22h-146l-50 -359q-4 -32 -4 -56.5t19.5 -39t61.5 -14.5q48 0 94 29l6 -26q-43 -29 -100 -29h-7l-8 -31
q34 -4 53 -23.5t19 -48.5q0 -41 -26 -67.5t-69 -26.5q-48 0 -69 24z" />
    <glyph glyph-name="Tcaron" unicode="&#x164;" horiz-adv-x="481" 
d="M216 0h-27l95 699h-211l3 25h448l-4 -25h-209zM222 891l94 -99l121 101l27 -7l-136 -115h-28l-105 116z" />
    <glyph glyph-name="tcaron" unicode="&#x165;" horiz-adv-x="349" 
d="M294 43l6 -26q-43 -29 -100 -29q-41 0 -66.5 12t-33 31t-9.5 41t3 41l53 370h-82l3 22h82l20 145l27 4l-21 -149h147l-4 -22h-146l-50 -359q-4 -32 -4 -56.5t19.5 -39t61.5 -14.5q48 0 94 29zM272 567l61 188h35l-79 -192z" />
    <glyph glyph-name="Tbar" unicode="&#x166;" horiz-adv-x="481" 
d="M216 0h-27l50 370h-146l4 24h145l42 305h-211l3 25h448l-4 -25h-209l-42 -305h149l-3 -24h-149z" />
    <glyph glyph-name="tbar" unicode="&#x167;" horiz-adv-x="349" 
d="M294 43l6 -26q-43 -29 -100 -29q-41 0 -66.5 12t-33 31t-9.5 41t3 41l24 166h-70l3 23h70l26 181h-82l3 22h82l20 145l27 4l-21 -149h147l-4 -22h-146l-26 -181h155l-4 -23h-154l-21 -155q-4 -32 -4 -56.5t19.5 -39t61.5 -14.5q48 0 94 29z" />
    <glyph glyph-name="Utilde" unicode="&#x168;" horiz-adv-x="675" 
d="M627 724l-68 -501q-32 -235 -261 -235q-232 0 -199 232l68 504h27l-68 -506q-16 -111 28.5 -158t139.5 -47q211 0 239 207l67 504h27zM340 862q30 0 78.5 -27t68.5 -27q44 0 54 72l21 -2q-10 -93 -77 -93q-27 0 -77 27t-70 27q-43 0 -54 -72l-21 2q10 93 77 93z" />
    <glyph glyph-name="utilde" unicode="&#x169;" horiz-adv-x="584" 
d="M428 104l56 401h28l-71 -505h-26l11 76q-115 -88 -212 -88q-134 0 -134 127q0 22 5 54l47 336h28l-48 -342q-3 -20 -3 -42q0 -107 105 -107q99 0 214 90zM271 690q30 0 78.5 -27t68.5 -27q44 0 54 72l21 -2q-10 -93 -77 -93q-27 0 -77 27t-70 27q-43 0 -54 -72l-21 2
q10 93 77 93z" />
    <glyph glyph-name="Umacron" unicode="&#x16a;" horiz-adv-x="675" 
d="M627 724l-68 -501q-32 -235 -261 -235q-232 0 -199 232l68 504h27l-68 -506q-16 -111 28.5 -158t139.5 -47q211 0 239 207l67 504h27zM550 808h-287l3 27h287z" />
    <glyph glyph-name="umacron" unicode="&#x16b;" horiz-adv-x="584" 
d="M428 104l56 401h28l-71 -505h-26l11 76q-115 -88 -212 -88q-134 0 -134 127q0 22 5 54l47 336h28l-48 -342q-3 -20 -3 -42q0 -107 105 -107q99 0 214 90zM485 645h-270l3 27h270z" />
    <glyph glyph-name="Ubreve" unicode="&#x16c;" horiz-adv-x="675" 
d="M627 724l-68 -501q-32 -235 -261 -235q-232 0 -199 232l68 504h27l-68 -506q-16 -111 28.5 -158t139.5 -47q211 0 239 207l67 504h27zM412 811q85 0 110 86l24 -4q-25 -105 -137 -105q-51 0 -78.5 26.5t-26.5 77.5l26 4q-4 -85 82 -85z" />
    <glyph glyph-name="ubreve" unicode="&#x16d;" horiz-adv-x="584" 
d="M428 104l56 401h28l-71 -505h-26l11 76q-115 -88 -212 -88q-134 0 -134 127q0 22 5 54l47 336h28l-48 -342q-3 -20 -3 -42q0 -107 105 -107q99 0 214 90zM472 725l24 -4q-7 -60 -41.5 -103t-104.5 -43q-130 0 -113 144l26 4q-6 -66 15.5 -95.5t74.5 -29.5q50 0 78.5 30.5
t40.5 96.5z" />
    <glyph glyph-name="Uring" unicode="&#x16e;" horiz-adv-x="675" 
d="M627 724l-68 -501q-32 -235 -261 -235q-232 0 -199 232l68 504h27l-68 -506q-16 -111 28.5 -158t139.5 -47q211 0 239 207l67 504h27zM501 836q0 -41 -28 -70t-76 -29q-79 0 -79 71q0 47 31 73.5t73 26.5q79 0 79 -72zM401 756q35 0 55 22t20 59q0 51 -55 51
q-35 0 -56.5 -21t-21.5 -58q0 -53 58 -53z" />
    <glyph glyph-name="uring" unicode="&#x16f;" horiz-adv-x="584" 
d="M428 104l56 401h28l-71 -505h-26l11 76q-115 -88 -212 -88q-134 0 -134 127q0 22 5 54l47 336h28l-48 -342q-3 -20 -3 -42q0 -107 105 -107q99 0 214 90zM441 676q0 -41 -28 -70t-76 -29q-79 0 -79 71q0 47 31 73.5t73 26.5q79 0 79 -72zM341 596q35 0 55 22t20 59
q0 51 -55 51q-35 0 -56.5 -21t-21.5 -58q0 -53 58 -53z" />
    <glyph glyph-name="Uhungarumlaut" unicode="&#x170;" horiz-adv-x="675" 
d="M627 724l-68 -501q-32 -235 -261 -235q-232 0 -199 232l68 504h27l-68 -506q-16 -111 28.5 -158t139.5 -47q211 0 239 207l67 504h27zM302 780l103 131h44l-125 -138zM428 780l115 131h44l-137 -138z" />
    <glyph glyph-name="uhungarumlaut" unicode="&#x171;" horiz-adv-x="584" 
d="M428 104l56 401h28l-71 -505h-26l11 76q-115 -88 -212 -88q-134 0 -134 127q0 22 5 54l47 336h28l-48 -342q-3 -20 -3 -42q0 -107 105 -107q99 0 214 90zM246 583l130 168h44l-153 -175zM378 583l130 168h44l-153 -175z" />
    <glyph glyph-name="Uogonek" unicode="&#x172;" horiz-adv-x="675" 
d="M413 -160l17 -11q-35 -47 -84 -47q-81 0 -81 73q0 81 94 139q-51 -6 -61 -6q-232 0 -199 232l68 504h27l-68 -506q-16 -111 28.5 -158t139.5 -47q211 0 239 207l67 504h27l-68 -501q-11 -80 -43 -130.5t-94 -83.5q-131 -69 -131 -154q0 -52 55 -52q36 0 67 37z" />
    <glyph glyph-name="uogonek" unicode="&#x173;" horiz-adv-x="583" 
d="M428 104l56 401h28l-71 -505q-56 -35 -84 -69t-28 -76q0 -52 55 -52q36 0 67 37l17 -11q-35 -47 -84 -47q-81 0 -81 73q0 85 113 153l10 68q-115 -88 -212 -88q-134 0 -134 127q0 22 5 54l47 336h28l-48 -342q-3 -20 -3 -42q0 -107 105 -107q99 0 214 90z" />
    <glyph glyph-name="Wcircumflex" unicode="&#x174;" horiz-adv-x="796" 
d="M571 0h-37l-84 695h-1l-265 -695h-36l-54 724h25l50 -694h1l265 694h37l84 -695h1l220 695h26zM568 770l-94 99l-121 -101l-27 7l136 115h28l105 -116z" />
    <glyph glyph-name="wcircumflex" unicode="&#x175;" horiz-adv-x="691" 
d="M176 0h-32l-89 505h28l81 -475l195 475h39l66 -476l203 476h28l-220 -505h-32l-67 484zM525 583l-27 -4l-90 146l-123 -146l-27 6l138 165h27z" />
    <glyph glyph-name="Ycircumflex" unicode="&#x176;" horiz-adv-x="483" 
d="M255 291l-39 -291h-24l39 291l-170 433h29l156 -402h1l257 402h29zM427 770l-94 99l-121 -101l-27 7l136 115h28l105 -116z" />
    <glyph glyph-name="ycircumflex" unicode="&#x177;" horiz-adv-x="431" 
d="M164 1l-99 504h27l91 -469l236 469h28l-311 -610q-35 -69 -65 -93.5t-71 -24.5q-38 0 -74 18l9 23q36 -16 65 -16q39 0 61 22.5t59 93.5zM402 583l-27 -4l-90 146l-123 -146l-27 6l138 165h27z" />
    <glyph glyph-name="Ydieresis" unicode="&#x178;" horiz-adv-x="483" 
d="M255 291l-39 -291h-24l39 291l-170 433h29l156 -402h1l257 402h29zM253 820q-4 -34 -30 -34q-29 0 -24 34q6 35 33 35t21 -35zM438 820q-4 -34 -30 -34q-29 0 -24 34q6 35 33 35t21 -35z" />
    <glyph glyph-name="Zacute" unicode="&#x179;" horiz-adv-x="537" 
d="M469 0h-463l3 18l504 681h-396l3 25h432l-2 -19l-505 -680h427zM287 780l123 131h44l-145 -138z" />
    <glyph glyph-name="zacute" unicode="&#x17a;" horiz-adv-x="444" 
d="M436 489l-390 -465h335l-4 -24h-369l2 19l388 462h-323l4 24h359zM231 583l135 168h42l-157 -175z" />
    <glyph glyph-name="Zdotaccent" unicode="&#x17b;" horiz-adv-x="537" 
d="M469 0h-463l3 18l504 681h-396l3 25h432l-2 -19l-505 -680h427zM365 816q-4 -34 -30 -34q-29 0 -24 34q6 35 33 35t21 -35z" />
    <glyph glyph-name="zdotaccent" unicode="&#x17c;" horiz-adv-x="444" 
d="M436 489l-390 -465h335l-4 -24h-369l2 19l388 462h-323l4 24h359zM311 676q-4 -34 -31 -34t-23 34q6 35 32 35q28 0 22 -35z" />
    <glyph glyph-name="Zcaron" unicode="&#x17d;" horiz-adv-x="537" 
d="M469 0h-463l3 18l504 681h-396l3 25h432l-2 -19l-505 -680h427zM248 891l94 -99l121 101l27 -7l-136 -115h-28l-105 116z" />
    <glyph glyph-name="zcaron" unicode="&#x17e;" horiz-adv-x="444" 
d="M436 489l-390 -465h335l-4 -24h-369l2 19l388 462h-323l4 24h359zM149 739l27 4l90 -146l123 146l27 -6l-138 -165h-27z" />
    <glyph glyph-name="longs" unicode="&#x17f;" horiz-adv-x="280" 
d="M199 628l-118 -838h-26l118 837q19 135 128 135q44 0 72 -14l-5 -23q-31 13 -72 13q-82 0 -97 -110z" />
    <glyph glyph-name="florin" unicode="&#x192;" horiz-adv-x="490" 
d="M511 658l-23 -10q-13 32 -32.5 48.5t-56.5 16.5q-92 0 -115 -122l-28 -149h152l-5 -24h-155l-89 -450q-16 -81 -48 -115t-85 -34q-24 0 -41 3.5t-38.5 22t-33.5 53.5l23 10q16 -37 35.5 -51t54.5 -14q40 0 65.5 28.5t38.5 93.5l90 453h-70l6 24h70l30 155q27 140 146 140
q82 0 109 -79z" />
    <glyph glyph-name="Aringacute" unicode="&#x1fa;" horiz-adv-x="593" 
d="M463 820q0 -36 -22.5 -63.5t-60.5 -34.5l140 -722h-29l-51 264h-289l-121 -264h-29l334 723q-55 9 -55 69q0 47 31 73.5t73 26.5q79 0 79 -72zM355 706l-192 -417h272l-79 417h-1zM363 740q35 0 55 22t20 59q0 51 -55 51q-35 0 -56.5 -21t-21.5 -58q0 -53 58 -53z
M365 948l123 131h44l-145 -138z" />
    <glyph glyph-name="aringacute" unicode="&#x1fb;" horiz-adv-x="558" 
d="M497 505l-58 -410q-6 -45 3.5 -60.5t35.5 -15.5q14 0 25 3l-3 -22q-15 -4 -29 -4q-28 0 -45.5 18t-13.5 58q-108 -84 -188 -84q-88 0 -125.5 53t-37.5 151q0 149 65 236.5t172 87.5q90 0 165 -60l14 49h20zM414 104l45 326q-66 60 -164 60q-56 0 -98.5 -27.5t-65 -73
t-33.5 -94t-11 -99.5q0 -95 32.5 -139t99.5 -44q92 0 195 91zM433 676q0 -41 -28 -70t-76 -29q-79 0 -79 71q0 47 31 73.5t73 26.5q79 0 79 -72zM333 596q35 0 55 22t20 59q0 51 -55 51q-35 0 -56.5 -21t-21.5 -58q0 -53 58 -53zM318 810l123 131h44l-145 -138z" />
    <glyph glyph-name="AEacute" unicode="&#x1fc;" horiz-adv-x="949" 
d="M862 0h-371l49 353h-245l-263 -353h-29l538 724h416l-4 -25h-338l-46 -321h316l-3 -26h-316l-46 -327h345zM544 378l45 323h-36l-240 -323h231zM689 780l123 131h44l-145 -138z" />
    <glyph glyph-name="aeacute" unicode="&#x1fd;" horiz-adv-x="847" 
d="M584 -12q-108 0 -156 97q-118 -97 -203 -97q-34 0 -61 8.5t-51.5 29t-38 63t-13.5 103.5q0 149 65 236.5t173 87.5q91 0 164 -60l14 49h20l-9 -63q61 74 172 74q72 0 109.5 -34.5t37.5 -87.5q0 -88 -84 -133q-94 -51 -291 -52q-1 -53 10 -93.5t47.5 -71t96.5 -30.5
q68 0 112.5 34t60.5 89l25 -5q-22 -74 -77.5 -109t-122.5 -35zM419 108q-15 41 -15 104q0 122 64 209q-67 69 -173 69q-53 0 -94.5 -25.5t-65.5 -68t-36 -94.5t-12 -110q0 -179 130 -179q96 0 202 95zM659 490q-55 0 -98 -22.5t-68.5 -60.5t-40 -81t-19.5 -91q183 3 265 41
q80 37 80 119q0 47 -31.5 71t-87.5 24zM453 583l135 168h42l-157 -175z" />
    <glyph glyph-name="Oslashacute" unicode="&#x1fe;" horiz-adv-x="718" 
d="M321 -12q-51 0 -95 14l-33 -77h-29l37 87q-144 65 -144 291q0 194 96 314t268 120q49 0 89 -14l30 69h29l-34 -79q69 -32 104.5 -103t35.5 -167q0 -218 -96 -336.5t-258 -118.5zM86 300q0 -201 126 -263l288 664q-39 13 -85 13q-65 0 -122 -24t-104.5 -71.5t-75 -129.5
t-27.5 -189zM322 14q65 0 122 24.5t103.5 73t73 131t26.5 190.5q0 195 -122 257l-288 -663q39 -13 85 -13zM386 780l123 131h44l-145 -138z" />
    <glyph glyph-name="oslashacute" unicode="&#x1ff;" horiz-adv-x="566" 
d="M245 -12q-49 0 -90 18l-44 -78h-29l51 90q-74 53 -74 189q0 54 14 105.5t43 99t82.5 76t124.5 28.5q49 0 86 -17l49 86h29l-57 -99q75 -52 75 -191q0 -39 -7.5 -78.5t-26.5 -81.5t-47 -74t-74.5 -52.5t-104.5 -20.5zM249 13q62 0 108 27t71 70.5t36.5 90.5t11.5 95
q0 118 -60 165l-248 -432q32 -16 81 -16zM88 206q0 -120 59 -164l248 433q-34 16 -76 16q-62 0 -109 -26t-72.5 -69.5t-37.5 -91t-12 -98.5zM276 583l135 168h42l-157 -175z" />
    <glyph glyph-name="Scommaaccent" unicode="&#x218;" horiz-adv-x="543" 
d="M522 535l-25 -3q0 86 -43 133t-125 47q-97 0 -148 -49t-51 -122q0 -67 39.5 -101.5t150.5 -67.5q81 -24 120.5 -61t39.5 -108q0 -73 -36 -123t-90 -71t-120 -21q-60 0 -102 16.5t-64.5 46.5t-33 60t-14.5 68l26 5q5 -39 14.5 -66.5t30 -52.5t58 -38t92.5 -13
q96 0 153.5 47.5t57.5 139.5q0 65 -32.5 94.5t-106.5 51.5q-113 33 -162 71.5t-49 118.5q0 90 61.5 145t168.5 55q88 0 139.5 -51.5t50.5 -150.5zM164 -205l51 136h35l-65 -140z" />
    <glyph glyph-name="scommaaccent" unicode="&#x219;" horiz-adv-x="469" 
d="M258 516q85 0 123.5 -45.5t35.5 -113.5l-25 -2q0 139 -135 139q-75 0 -106.5 -34.5t-31.5 -79.5t28.5 -67t84.5 -38q84 -23 110 -41q50 -32 50 -93q0 -67 -45 -110t-123 -43q-169 0 -181 159l26 5q10 -140 150 -140q61 0 103.5 29.5t42.5 96.5q0 22 -8.5 39.5t-18.5 27.5
t-33 20t-35.5 13.5l-42.5 12.5q-31 9 -50.5 16.5t-41.5 22t-32.5 37t-10.5 53.5q0 63 45.5 99.5t120.5 36.5zM137 -205l51 136h35l-65 -140z" />
    <glyph glyph-name="uni021A" unicode="&#x21a;" horiz-adv-x="481" 
d="M216 0h-27l95 699h-211l3 25h448l-4 -25h-209zM124 -205l51 136h35l-65 -140z" />
    <glyph glyph-name="uni021B" unicode="&#x21b;" horiz-adv-x="349" 
d="M294 43l6 -26q-43 -29 -100 -29q-41 0 -66.5 12t-33 31t-9.5 41t3 41l53 370h-82l3 22h82l20 145l27 4l-21 -149h147l-4 -22h-146l-50 -359q-4 -32 -4 -56.5t19.5 -39t61.5 -14.5q48 0 94 29zM116 -205l51 136h35l-65 -140z" />
    <glyph glyph-name="dotlessj" unicode="&#x237;" horiz-adv-x="186" 
d="M45 -107l86 612h28l-85 -605q-9 -67 -34.5 -95t-82.5 -28q-41 0 -69 14l8 24q34 -13 62 -13q39 0 59.5 20t27.5 71z" />
    <glyph glyph-name="apostrophe" unicode="&#x2bc;" horiz-adv-x="499" 
d="M275 543l49 130h35l-67 -134z" />
    <glyph glyph-name="circumflex" unicode="&#x2c6;" horiz-adv-x="500" 
d="M451 583l-27 -4l-90 146l-123 -146l-27 6l138 165h27z" />
    <glyph glyph-name="caron" unicode="&#x2c7;" horiz-adv-x="500" 
d="M215 739l27 4l90 -146l123 146l27 -6l-138 -165h-27z" />
    <glyph glyph-name="uni02C9" unicode="&#x2c9;" horiz-adv-x="500" 
d="M449 645h-270l3 27h270z" />
    <glyph glyph-name="breve" unicode="&#x2d8;" horiz-adv-x="499" 
d="M439 725l24 -4q-7 -60 -41.5 -103t-104.5 -43q-130 0 -113 144l26 4q-6 -66 15.5 -95.5t74.5 -29.5q50 0 78.5 30.5t40.5 96.5z" />
    <glyph glyph-name="dotaccent" unicode="&#x2d9;" horiz-adv-x="500" 
d="M347 676q-4 -34 -31 -34t-23 34q6 35 32 35q28 0 22 -35z" />
    <glyph glyph-name="ring" unicode="&#x2da;" horiz-adv-x="500" 
d="M404 676q0 -41 -28 -70t-76 -29q-79 0 -79 71q0 47 31 73.5t73 26.5q79 0 79 -72zM304 596q35 0 55 22t20 59q0 51 -55 51q-35 0 -56.5 -21t-21.5 -58q0 -53 58 -53z" />
    <glyph glyph-name="ogonek" unicode="&#x2db;" horiz-adv-x="500" 
d="M301 -160l17 -11q-35 -47 -84 -47q-81 0 -81 73q0 91 130 163l26 -7q-68 -41 -99 -77t-31 -79q0 -52 55 -52q36 0 67 37z" />
    <glyph glyph-name="tilde" unicode="&#x2dc;" horiz-adv-x="499" 
d="M248 690q30 0 78.5 -27t68.5 -27q44 0 54 72l21 -2q-10 -93 -77 -93q-27 0 -77 27t-70 27q-43 0 -54 -72l-21 2q10 93 77 93z" />
    <glyph glyph-name="hungarumlaut" unicode="&#x2dd;" horiz-adv-x="499" 
d="M213 583l130 168h44l-153 -175zM345 583l130 168h44l-153 -175z" />
    <glyph glyph-name="uni0394" unicode="&#x394;" horiz-adv-x="622" 
d="M610 0h-539l345 724h44zM435 706l-324 -681h465l-140 681h-1z" />
    <glyph glyph-name="uni03A9" unicode="&#x3a9;" horiz-adv-x="828" 
d="M585 100l-11 -74h192l-4 -26h-216l18 119q44 15 85 41t80.5 66.5t63 102t23.5 135.5q0 117 -69 183t-193 66q-85 0 -152 -26t-105.5 -64.5t-63 -88.5t-33 -91t-8.5 -78q0 -105 50 -168t127 -78l-16 -119h-228l4 26h202l11 74q-86 27 -130.5 95.5t-44.5 168.5q0 67 23 131
t68 119.5t121.5 89t173.5 33.5q70 0 124 -19.5t84 -48t49.5 -67.5t25.5 -71.5t6 -65.5q0 -125 -69 -221t-188 -144z" />
    <glyph glyph-name="uni03BC" unicode="&#x3bc;" horiz-adv-x="628" 
d="M128 -176l96 681h26l-47 -339q-11 -79 12 -118.5t90 -39.5q103 0 218 110l54 387h28l-71 -505h-26l13 90q-42 -46 -102.5 -77t-113.5 -31q-94 0 -122 61l-2 -1l-27 -218h-26z" />
    <glyph glyph-name="pi" unicode="&#x3c0;" horiz-adv-x="659" 
d="M94 0l71 505h380l-71 -505h-28l68 479h-324l-68 -479h-28z" />
    <glyph glyph-name="Wgrave" unicode="&#x1e80;" horiz-adv-x="796" 
d="M571 0h-37l-84 695h-1l-265 -695h-36l-54 724h25l50 -694h1l265 694h37l84 -695h1l220 695h26zM423 911l86 -131l-19 -7l-111 138h44z" />
    <glyph glyph-name="wgrave" unicode="&#x1e81;" horiz-adv-x="691" 
d="M176 0h-32l-89 505h28l81 -475l195 475h39l66 -476l203 476h28l-220 -505h-32l-67 484zM325 751l95 -168l-19 -7l-115 175h39z" />
    <glyph glyph-name="Wacute" unicode="&#x1e82;" horiz-adv-x="796" 
d="M571 0h-37l-84 695h-1l-265 -695h-36l-54 724h25l50 -694h1l265 694h37l84 -695h1l220 695h26zM431 780l123 131h44l-145 -138z" />
    <glyph glyph-name="wacute" unicode="&#x1e83;" horiz-adv-x="691" 
d="M176 0h-32l-89 505h28l81 -475l195 475h39l66 -476l203 476h28l-220 -505h-32l-67 484zM356 583l135 168h42l-157 -175z" />
    <glyph glyph-name="Wdieresis" unicode="&#x1e84;" horiz-adv-x="796" 
d="M571 0h-37l-84 695h-1l-265 -695h-36l-54 724h25l50 -694h1l265 694h37l84 -695h1l220 695h26zM402 820q-4 -34 -30 -34q-29 0 -24 34q6 35 33 35t21 -35zM587 820q-4 -34 -30 -34q-29 0 -24 34q6 35 33 35t21 -35z" />
    <glyph glyph-name="wdieresis" unicode="&#x1e85;" horiz-adv-x="691" 
d="M176 0h-32l-89 505h28l81 -475l195 475h39l66 -476l203 476h28l-220 -505h-32l-67 484zM342 659q-4 -34 -30 -34q-29 0 -24 34q6 35 33 35t21 -35zM500 659q-4 -34 -30 -34q-29 0 -24 34q6 35 33 35t21 -35z" />
    <glyph glyph-name="Ygrave" unicode="&#x1ef2;" horiz-adv-x="483" 
d="M255 291l-39 -291h-24l39 291l-170 433h29l156 -402h1l257 402h29zM245 911l86 -131l-19 -7l-111 138h44z" />
    <glyph glyph-name="ygrave" unicode="&#x1ef3;" horiz-adv-x="431" 
d="M164 1l-99 504h27l91 -469l236 469h28l-311 -610q-35 -69 -65 -93.5t-71 -24.5q-38 0 -74 18l9 23q36 -16 65 -16q39 0 61 22.5t59 93.5zM199 751l95 -168l-19 -7l-115 175h39z" />
    <glyph glyph-name="thinspace" unicode="&#x2009;" horiz-adv-x="125" 
 />
    <glyph glyph-name="endash" unicode="&#x2013;" horiz-adv-x="500" 
d="M499 269h-499l3 25h499z" />
    <glyph glyph-name="emdash" unicode="&#x2014;" horiz-adv-x="1000" 
d="M999 269h-999l3 25h999z" />
    <glyph glyph-name="quoteleft" unicode="&#x2018;" horiz-adv-x="161" 
d="M201 760l-81 -197h-42l100 201z" />
    <glyph glyph-name="quoteright" unicode="&#x2019;" horiz-adv-x="161" 
d="M80 560l81 197h42l-100 -201z" />
    <glyph glyph-name="quotesinglbase" unicode="&#x201a;" horiz-adv-x="161" 
d="M-20 -119l81 197h42l-100 -201z" />
    <glyph glyph-name="quotedblleft" unicode="&#x201c;" horiz-adv-x="285" 
d="M324 760l-81 -197h-42l100 201zM201 760l-81 -197h-42l100 201z" />
    <glyph glyph-name="quotedblright" unicode="&#x201d;" horiz-adv-x="286" 
d="M204 560l81 197h42l-100 -201zM80 560l81 197h42l-100 -201z" />
    <glyph glyph-name="quotedblbase" unicode="&#x201e;" horiz-adv-x="283" 
d="M-20 -119l81 197h42l-100 -201zM103 -119l81 197h42l-100 -201z" />
    <glyph glyph-name="dagger" unicode="&#x2020;" horiz-adv-x="367" 
d="M375 528l-150 3l-78 -614h-35l93 615l-149 -4l3 27l149 -5l20 174h29l-29 -173l150 4z" />
    <glyph glyph-name="daggerdbl" unicode="&#x2021;" horiz-adv-x="395" 
d="M387 528l-147 3l-59 -419l148 3l-4 -26l-148 5l-19 -177h-31l32 176l-151 -4l4 26l146 -2l58 419l-146 -4l3 27l149 -5l18 174h31l-31 -173l150 4z" />
    <glyph glyph-name="bullet" unicode="&#x2022;" horiz-adv-x="342" 
d="M275 280q-15 -105 -124 -105q-108 0 -93 105q14 105 122 105q52 0 77 -26.5t18 -78.5z" />
    <glyph glyph-name="ellipsis" unicode="&#x2026;" horiz-adv-x="555" 
d="M455 33q0 -19 -11.5 -32t-30.5 -13q-30 0 -30 29q0 22 11.5 34t29.5 12q31 0 31 -30zM282 33q0 -19 -11.5 -32t-30.5 -13q-30 0 -30 29q0 22 11.5 34t29.5 12q31 0 31 -30zM91 33q0 -19 -11.5 -32t-30.5 -13q-30 0 -30 29q0 22 11.5 34t29.5 12q31 0 31 -30z" />
    <glyph glyph-name="perthousand" unicode="&#x2030;" horiz-adv-x="950" 
d="M224 411q-62 0 -87.5 36.5t-25.5 91.5q0 35 8.5 68.5t26.5 63.5t51.5 48t77.5 18q61 0 87 -36.5t26 -90.5q0 -32 -7.5 -63.5t-24.5 -63.5t-51 -52t-81 -20zM88 -19h-30l544 743h30zM228 436q66 0 99.5 50t33.5 123q0 103 -89 103q-38 0 -65.5 -16.5t-41.5 -44t-20.5 -55
t-6.5 -56.5q0 -104 90 -104zM419 -12q-62 0 -87.5 36.5t-25.5 91.5q0 35 8.5 68.5t26.5 63.5t51.5 48t77.5 18q61 0 87 -36.5t26 -90.5q0 -32 -7.5 -63.5t-24.5 -63.5t-51 -52t-81 -20zM423 13q66 0 99.5 50t33.5 123q0 103 -89 103q-38 0 -65.5 -16.5t-41.5 -44t-20.5 -55
t-6.5 -56.5q0 -104 90 -104zM738 -12q-62 0 -87.5 36.5t-25.5 91.5q0 35 8.5 68.5t26.5 63.5t51.5 48t77.5 18q61 0 87 -36.5t26 -90.5q0 -32 -7.5 -63.5t-24.5 -63.5t-51 -52t-81 -20zM742 13q66 0 99.5 50t33.5 123q0 103 -89 103q-38 0 -65.5 -16.5t-41.5 -44t-20.5 -55
t-6.5 -56.5q0 -104 90 -104z" />
    <glyph glyph-name="guilsinglleft" unicode="&#x2039;" horiz-adv-x="278" 
d="M179 103h-31l-69 159l110 146h32l-109 -146z" />
    <glyph glyph-name="guilsinglright" unicode="&#x203a;" horiz-adv-x="277" 
d="M97 408h30l70 -159l-109 -146h-33l109 148z" />
    <glyph glyph-name="fraction" unicode="&#x2044;" horiz-adv-x="110" 
d="M-155 -12h-30l458 736h30z" />
    <glyph glyph-name="zerosuperior" unicode="&#x2070;" horiz-adv-x="373" 
d="M191 342q-115 0 -115 138q0 32 7 83q33 231 179 231q62 0 86.5 -37t24.5 -102q0 -41 -6 -83q-29 -230 -176 -230zM196 367q116 0 145 201q7 54 7 83q0 58 -21 88t-69 30q-68 0 -101.5 -55.5t-48.5 -153.5q-6 -42 -6 -74q0 -60 22.5 -89.5t71.5 -29.5z" />
    <glyph glyph-name="foursuperior" unicode="&#x2074;" horiz-adv-x="337" 
d="M268 349h-25l16 116h-209l3 20l241 301h35l-42 -298h56l-3 -23h-56zM84 488h178l38 271z" />
    <glyph glyph-name="fivesuperior" unicode="&#x2075;" horiz-adv-x="356" 
d="M97 569l48 216h199l-4 -23h-174l-40 -173q41 36 101 36q43 0 74 -25t31 -85q0 -71 -45 -122t-122 -51q-50 0 -79 25.5t-32 72.5l26 8q4 -36 22 -59.5t65 -23.5q52 0 95.5 35t43.5 113q0 87 -86 87q-54 0 -103 -42z" />
    <glyph glyph-name="sixsuperior" unicode="&#x2076;" horiz-adv-x="364" 
d="M371 705l-25 -6q-6 41 -23.5 55.5t-49.5 14.5q-38 0 -68 -23t-47.5 -60t-27 -69t-14.5 -65q24 25 59.5 43.5t71.5 18.5q52 0 77 -27t25 -73q0 -73 -42.5 -122.5t-111.5 -49.5q-111 0 -111 143q0 16 2.5 43.5t14.5 76.5t31 89t58 70t90 30q39 0 63 -22t28 -67zM113 522
q-2 -28 -2 -40q0 -56 19.5 -86t68.5 -30q51 0 87.5 34t36.5 112t-75 78q-72 0 -135 -68z" />
    <glyph glyph-name="sevensuperior" unicode="&#x2077;" horiz-adv-x="314" 
d="M93 349h-29l252 414h-241l3 23h272l-3 -20z" />
    <glyph glyph-name="eightsuperior" unicode="&#x2078;" horiz-adv-x="322" 
d="M230 572q45 -20 65.5 -43t20.5 -57q0 -57 -42.5 -93.5t-108.5 -36.5q-60 0 -90 25t-30 67q0 49 35 85t87 52q-73 33 -73 98q0 57 40.5 91t102.5 34q50 0 78.5 -21.5t28.5 -61.5q0 -88 -114 -139zM198 561q-125 -35 -125 -122q0 -73 96 -73q60 0 89.5 30.5t29.5 71.5
q0 21 -7.5 36.5t-24.5 27t-27 16.5t-31 13zM200 580q117 46 117 128q0 29 -22.5 45.5t-64.5 16.5q-49 0 -79 -27t-30 -72q0 -33 20.5 -53t58.5 -38z" />
    <glyph glyph-name="ninesuperior" unicode="&#x2079;" horiz-adv-x="371" 
d="M58 435l26 6q4 -74 78 -74q46 0 78.5 24.5t56.5 91.5q11 29 21 92q-22 -25 -59 -43t-74 -18q-51 0 -75.5 29.5t-24.5 75.5q0 82 44.5 128.5t109.5 46.5q59 0 84 -39.5t25 -114.5q0 -42 -7.5 -86.5t-26 -95.5t-57.5 -83.5t-94 -32.5q-46 0 -73.5 24t-31.5 69zM319 604
q2 30 2 44q0 123 -88 123q-48 0 -84 -37.5t-36 -112.5q0 -83 76 -83q66 0 130 66z" />
    <glyph glyph-name="plussuperior" unicode="&#x207a;" horiz-adv-x="305" 
d="M182 440h-26l12 94h-92l4 26h92l12 93h26l-12 -93h95l-4 -26h-95z" />
    <glyph glyph-name="minussuperior" unicode="&#x207b;" horiz-adv-x="305" 
d="M292 540h-223l4 26h223z" />
    <glyph glyph-name="equalsuperior" unicode="&#x207c;" horiz-adv-x="305" 
d="M292 478h-223l4 26h223zM305 570h-223l4 26h223z" />
    <glyph glyph-name="parenleftsuperior" unicode="&#x207d;" horiz-adv-x="202" 
d="M171 276h-25q-54 108 -54 207q0 151 133 321h27q-134 -175 -134 -322q0 -100 53 -206z" />
    <glyph glyph-name="parenrightsuperior" unicode="&#x207e;" horiz-adv-x="202" 
d="M103 804h25q54 -108 54 -207q0 -151 -133 -321h-27q134 175 134 322q0 100 -53 206z" />
    <glyph glyph-name="zeroinferior" unicode="&#x2080;" horiz-adv-x="373" 
d="M132 -154q-115 0 -115 138q0 32 7 83q33 231 179 231q62 0 86.5 -37t24.5 -102q0 -41 -6 -83q-29 -230 -176 -230zM137 -129q116 0 145 201q7 54 7 83q0 58 -21 88t-69 30q-68 0 -101.5 -55.5t-48.5 -153.5q-6 -42 -6 -74q0 -60 22.5 -89.5t71.5 -29.5z" />
    <glyph glyph-name="oneinferior" unicode="&#x2081;" horiz-adv-x="266" 
d="M114 -149h-25l55 392q-19 -13 -51 -21t-53 -8v21q44 4 70 15.5t52 37.5h13z" />
    <glyph glyph-name="twoinferior" unicode="&#x2082;" horiz-adv-x="336" 
d="M171 298q99 0 99 -96q0 -52 -32 -99t-101 -113l-119 -114h212l-3 -22h-242l3 24l123 119q55 54 77.5 78.5t39 57.5t16.5 70q0 38 -19 54.5t-58 16.5q-50 0 -73 -24t-36 -65l-24 7q34 106 137 106z" />
    <glyph glyph-name="threeinferior" unicode="&#x2083;" horiz-adv-x="364" 
d="M12 -53l25 5q5 -83 83 -83q50 0 88.5 30.5t38.5 92.5q0 47 -27 64t-78 17h-37l3 23h28q56 0 95.5 30t39.5 79q0 70 -79 70q-47 0 -72.5 -18.5t-38.5 -57.5l-23 5q29 94 136 94q51 0 77 -24t26 -67q0 -45 -29 -76t-75 -43v-2q81 -16 81 -92q0 -65 -43 -106.5t-113 -41.5
q-51 0 -78 27t-28 74z" />
    <glyph glyph-name="fourinferior" unicode="&#x2084;" horiz-adv-x="337" 
d="M209 -147h-25l16 116h-209l3 20l241 301h35l-42 -298h56l-3 -23h-56zM25 -8h178l38 271z" />
    <glyph glyph-name="fiveinferior" unicode="&#x2085;" horiz-adv-x="356" 
d="M46 73l48 216h199l-4 -23h-174l-40 -173q41 36 101 36q44 0 74.5 -25t30.5 -85q0 -71 -45 -122t-122 -51q-50 0 -79 25.5t-32 72.5l26 8q4 -36 22 -59.5t65 -23.5q52 0 95.5 35t43.5 113q0 87 -86 87q-54 0 -103 -42z" />
    <glyph glyph-name="sixinferior" unicode="&#x2086;" horiz-adv-x="364" 
d="M314 209l-25 -6q-6 41 -23.5 55.5t-49.5 14.5q-38 0 -68 -23t-47.5 -60t-27 -69t-14.5 -65q24 25 59.5 43.5t71.5 18.5q52 0 77 -27t25 -73q0 -73 -42.5 -122.5t-111.5 -49.5q-111 0 -111 143q0 16 2.5 43.5t14.5 76.5t31 89t58 70t90 30q39 0 63 -22t28 -67zM56 26
q-2 -28 -2 -40q0 -56 19.5 -86t68.5 -30q51 0 87.5 34t36.5 112t-75 78q-72 0 -135 -68z" />
    <glyph glyph-name="seveninferior" unicode="&#x2087;" horiz-adv-x="314" 
d="M37 -147h-29l252 414h-241l3 23h272l-3 -20z" />
    <glyph glyph-name="eightinferior" unicode="&#x2088;" horiz-adv-x="322" 
d="M178 76q45 -20 65.5 -43t20.5 -57q0 -57 -42.5 -93.5t-108.5 -36.5q-60 0 -90 25t-30 67q0 49 35 85t87 52q-73 33 -73 98q0 57 40.5 91t102.5 34q50 0 78.5 -21.5t28.5 -61.5q0 -88 -114 -139zM146 65q-125 -35 -125 -122q0 -73 96 -73q60 0 89.5 30.5t29.5 71.5
q0 21 -7.5 36.5t-24.5 27t-27 16.5t-31 13zM148 84q117 46 117 128q0 29 -22.5 45.5t-64.5 16.5q-49 0 -79 -27t-30 -72q0 -33 20.5 -53t58.5 -38z" />
    <glyph glyph-name="nineinferior" unicode="&#x2089;" horiz-adv-x="371" 
d="M9 -61l26 6q4 -74 78 -74q46 0 78.5 24.5t56.5 91.5q11 29 21 92q-22 -25 -59 -43t-74 -18q-51 0 -75.5 29.5t-24.5 75.5q0 82 44.5 128.5t109.5 46.5q59 0 84 -39.5t25 -114.5q0 -42 -7.5 -86.5t-26 -95.5t-57.5 -83.5t-94 -32.5q-46 0 -73.5 24t-31.5 69zM270 108
q2 30 2 44q0 123 -88 123q-48 0 -84 -37.5t-36 -112.5q0 -83 76 -83q66 0 130 66z" />
    <glyph glyph-name="parenleftinferior" unicode="&#x208d;" horiz-adv-x="202" 
d="M102 -220h-25q-54 108 -54 207q0 151 133 321h27q-134 -175 -134 -322q0 -100 53 -206z" />
    <glyph glyph-name="parenrightinferior" unicode="&#x208e;" horiz-adv-x="202" 
d="M35 308h25q54 -108 54 -207q0 -151 -133 -321h-27q134 175 134 322q0 100 -53 206z" />
    <glyph glyph-name="Euro" unicode="&#x20ac;" horiz-adv-x="644" 
d="M397 264h-257q0 -53 10.5 -96.5t32 -79t60.5 -55.5t93 -20q78 0 128 34t82 112l24 -8q-61 -163 -235 -163q-103 0 -161.5 69t-59.5 207h-82l7 24h75q2 67 15 130h-63l7 24h61q33 132 113.5 213.5t205.5 82.5q89 0 134.5 -47.5t39.5 -142.5l-22 -2q11 169 -153 169
q-113 0 -187.5 -75t-104.5 -198h289l-8 -24h-287q-13 -66 -14 -130h265z" />
    <glyph glyph-name="afii61352" unicode="&#x2116;" horiz-adv-x="999" 
d="M502 0h-43l-252 698l-94 -698h-26l98 724h44l251 -696l94 696h26zM657 303l4 26h273l-4 -26h-273zM799 392q-131 0 -131 135q0 81 46.5 141.5t138.5 60.5q66 0 98 -36t32 -93q0 -96 -50.5 -152t-133.5 -56zM805 416q71 0 111.5 49.5t40.5 130.5q0 56 -26.5 82.5
t-82.5 26.5q-55 0 -91.5 -29t-49.5 -67t-13 -82q0 -58 27 -84.5t84 -26.5z" />
    <glyph glyph-name="trademark" unicode="&#x2122;" horiz-adv-x="806" 
d="M725 348h-26l48 344l-188 -344h-21l-91 345l-49 -345h-26l53 376h42l88 -338l182 338h41zM214 700l-50 -352h-25l50 352h-146l3 24h319l-3 -24h-148z" />
    <glyph glyph-name="Omega" unicode="&#x2126;" horiz-adv-x="828" 
d="M501 100l-11 -74h192l-4 -26h-216l18 119q44 15 85 41t80.5 66.5t63 102t23.5 135.5q0 117 -69 183t-193 66q-85 0 -152 -26t-105.5 -64.5t-63 -88.5t-33 -91t-8.5 -78q0 -105 50 -168t127 -78l-16 -119h-228l4 26h202l11 74q-86 27 -130.5 95.5t-44.5 168.5q0 67 23 131
t68 119.5t121.5 89t173.5 33.5q70 0 124 -19.5t84 -48t49.5 -67.5t25.5 -71.5t6 -65.5q0 -125 -69 -221t-188 -144z" />
    <glyph glyph-name="onethird" unicode="&#x2153;" horiz-adv-x="781" 
d="M156 279h-25l55 392q-19 -13 -51 -21t-53 -8v21q44 4 70 15.5t52 37.5h13zM123 -12h-30l458 736h30zM426 94l25 5q5 -83 83 -83q50 0 88.5 30.5t38.5 92.5q0 47 -27 64t-78 17h-37l3 23h28q56 0 95.5 30t39.5 79q0 70 -79 70q-47 0 -72.5 -18.5t-38.5 -57.5l-23 5
q29 94 136 94q51 0 77 -24t26 -67q0 -45 -29 -76t-75 -43v-2q81 -16 81 -92q0 -65 -43 -106.5t-113 -41.5q-51 0 -78 27t-28 74z" />
    <glyph glyph-name="twothirds" unicode="&#x2154;" horiz-adv-x="781" 
d="M200 -12h-30l458 736h30zM220 725q99 0 99 -96q0 -52 -32 -99t-101 -113l-119 -114h212l-3 -22h-242l3 24l123 119q55 54 77.5 78.5t39 57.5t16.5 70q0 38 -19 54.5t-58 16.5q-50 0 -73 -24t-36 -65l-24 7q34 106 137 106zM475 94l25 5q5 -83 83 -83q50 0 88.5 30.5
t38.5 92.5q0 47 -27 64t-78 17h-37l3 23h28q56 0 95.5 30t39.5 79q0 70 -79 70q-47 0 -72.5 -18.5t-38.5 -57.5l-23 5q29 94 136 94q51 0 77 -24t26 -67q0 -45 -29 -76t-75 -43v-2q81 -16 81 -92q0 -65 -43 -106.5t-113 -41.5q-51 0 -78 27t-28 74z" />
    <glyph glyph-name="partialdiff" unicode="&#x2202;" horiz-adv-x="534" 
d="M260 388q-84 0 -141.5 -61t-57.5 -170q0 -70 33 -107.5t93 -37.5q58 0 104 26t75.5 70t46.5 86t29 90q-24 38 -70.5 71t-111.5 33zM338 645q-76 0 -169 -53l-11 22q99 56 176 56q153 0 153 -213q0 -46 -7 -100t-28 -121.5t-52.5 -121t-87.5 -90t-126 -36.5
q-75 0 -113.5 48t-38.5 119q0 112 64 184t165 72q110 0 185 -100q16 90 16 145q0 38 -6 69.5t-20 59.5t-39.5 44t-60.5 16z" />
    <glyph glyph-name="Delta" unicode="&#x2206;" horiz-adv-x="622" 
d="M545 0h-539l345 724h44zM370 706l-324 -681h465l-140 681h-1z" />
    <glyph glyph-name="product" unicode="&#x220f;" horiz-adv-x="754" 
d="M655 724l-120 -885h-26l116 860h-412l-117 -860h-27l120 885h466z" />
    <glyph glyph-name="summation" unicode="&#x2211;" horiz-adv-x="626" 
d="M306 282l-306 -433h499l-3 -25h-531l3 19l309 438l-165 418l3 25h505l-3 -25h-476z" />
    <glyph glyph-name="minus" unicode="&#x2212;" horiz-adv-x="569" 
d="M460 311h-361l3 24h361z" />
    <glyph glyph-name="uni2215" unicode="&#x2215;" horiz-adv-x="0" 
d="M-257 -10h-30l456 734h30z" />
    <glyph glyph-name="uni2219" unicode="&#x2219;" horiz-adv-x="296" 
d="M258 305q-7 -43 -48 -43q-42 0 -35 43q6 42 46 42q43 0 37 -42z" />
    <glyph glyph-name="radical" unicode="&#x221a;" horiz-adv-x="559" 
d="M307 0h-28l-146 269l-83 -35l-8 22l103 44l146 -279l187 719l24 -6z" />
    <glyph glyph-name="infinity" unicode="&#x221e;" horiz-adv-x="670" 
d="M344 294l-6 7l-13 -17q-24 -27 -39.5 -42.5t-46.5 -33t-62 -17.5q-50 0 -85.5 31.5t-35.5 93.5q0 56 36 94t93 38q31 0 59.5 -15t41 -27.5t39.5 -42.5l15 -16q25 29 42.5 46.5t50.5 36t66 18.5q51 0 86 -33t35 -95q0 -54 -37 -90.5t-91 -36.5q-29 0 -58 17t-46.5 35
t-43.5 49zM176 215q74 0 150 107q-50 61 -71 77q-32 25 -67 25q-55 0 -81 -33.5t-26 -76.5q0 -50 30 -74.5t65 -24.5zM499 424q-72 0 -145 -100q25 -34 41.5 -52.5t45 -36.5t56.5 -18q38 0 67.5 32.5t29.5 72.5q0 52 -29.5 77t-65.5 25z" />
    <glyph glyph-name="integral" unicode="&#x222b;" horiz-adv-x="407" 
d="M51 -173l-3 27q43 -19 82 -19q90 0 82 89l-57 683q-9 120 113 120q43 0 83 -20l3 -28q-42 23 -90 23q-39 0 -62.5 -20.5t-20.5 -65.5l57 -682q11 -124 -113 -124q-36 0 -74 17z" />
    <glyph glyph-name="approxequal" unicode="&#x2248;" 
d="M159 303q31 0 119 -28.5t120 -28.5q47 0 44 69l21 -1q7 -51 -15 -72t-52 -21q-32 0 -120 28.5t-117 28.5q-50 0 -46 -69l-21 1q-5 36 7.5 58.5t27.5 28.5t32 6zM174 484q31 0 119 -28.5t120 -28.5q47 0 44 69l21 -1q7 -51 -15 -72t-52 -21q-33 0 -120 28.5t-117 28.5
q-50 0 -46 -69l-21 1q-5 36 7.5 58.5t27.5 28.5t32 6z" />
    <glyph glyph-name="notequal" unicode="&#x2260;" 
d="M139 88l74 113h-114l3 24h127l84 128h-193l3 24h206l70 107h28l-70 -107h127l-3 -24h-140l-84 -128h206l-3 -24h-219l-74 -113h-28z" />
    <glyph glyph-name="lessequal" unicode="&#x2264;" horiz-adv-x="569" 
d="M422 90l-345 157l4 28l391 169l-5 -31l-358 -153l317 -142zM409 0h-361l4 24h361z" />
    <glyph glyph-name="greaterequal" unicode="&#x2265;" horiz-adv-x="569" 
d="M455 244l-389 -154l4 28l357 143l-315 154l4 29l343 -172zM414 0h-361l4 24h361z" />
    <glyph glyph-name="triangle" unicode="&#x25b3;" horiz-adv-x="425" 
d="M335 320l-185 -117v231z" />
    <glyph glyph-name="lozenge" unicode="&#x25ca;" 
d="M305 -17h-38l-157 324l157 324h38l157 -324zM286 7l147 300l-147 303l-147 -303z" />
    <glyph glyph-name="circle" unicode="&#x25cb;" horiz-adv-x="610" 
d="M305 119q-85 0 -145 60t-60 145t60 145t145 60t145 -60t60 -145t-60 -145t-145 -60z" />
    <glyph glyph-name="ae.sc" unicode="&#xf61f;" horiz-adv-x="746" 
d="M658 0h-285l35 261h-188l-189 -261h-30l398 548h327l-3 -24h-254l-32 -238h237l-3 -25h-238l-32 -237h261zM412 286l32 238h-33l-172 -238h173z" />
    <glyph glyph-name="oe.sc" unicode="&#xf621;" horiz-adv-x="821" 
d="M733 0h-285l16 120h-2q-71 -129 -220 -129q-99 0 -149 62.5t-50 170.5q0 148 73 239.5t204 91.5q74 0 119.5 -38.5t61.5 -105.5h2l19 137h279l-3 -24h-254l-31 -231h237l-3 -25h-238l-33 -244h261zM246 15q103 0 171.5 80t68.5 232q0 91 -41.5 147.5t-130.5 56.5
q-106 0 -176 -78t-70 -229q0 -92 43 -150.5t135 -58.5z" />
    <glyph glyph-name="dollar.sc" unicode="&#xf639;" horiz-adv-x="483" 
d="M395 422l-22 -5q-16 97 -114 105l-32 -232q58 -21 91 -50.5t33 -80.5q0 -72 -47 -113t-116 -44l-9 -67h-22l9 67q-60 4 -99.5 40.5t-44.5 98.5l23 4q3 -45 34.5 -81t89.5 -39l34 248q-31 11 -47 18.5t-36.5 22.5t-30 36t-9.5 50q0 62 44.5 101.5t115.5 43.5l8 61h22
l-8 -61q18 -1 37.5 -6.5t41.5 -18t37 -38t17 -60.5zM327 154q0 46 -21.5 67t-81.5 46l-32 -241q60 2 97.5 36.5t37.5 91.5zM105 400q0 -39 22 -59t79 -44l30 224q-57 -3 -94 -34.5t-37 -86.5z" />
    <glyph glyph-name="cent.sc" unicode="&#xf63a;" horiz-adv-x="442" 
d="M162 0l11 78q-51 7 -88 46.5t-37 120.5q0 103 48 163.5t132 66.5l12 81h24l-11 -80q52 -2 82.5 -36t28.5 -90l-26 -1q2 50 -22 75t-67 27l-49 -349q41 2 74.5 27t48.5 70l24 -9q-18 -56 -59.5 -84t-90.5 -29l-11 -77h-24zM75 241q0 -27 6.5 -53t31 -53t63.5 -32l49 347
q-74 -6 -112 -61.5t-38 -147.5z" />
    <glyph glyph-name="sterling.sc" unicode="&#xf63b;" horiz-adv-x="485" 
d="M12 24h40q94 75 94 162q0 37 -13 69h-83l3 23h72q-27 68 -27 115q0 77 51 121t126 44q133 0 130 -132l-23 -4q0 57 -24.5 85t-84.5 28q-65 0 -107 -35.5t-42 -104.5q0 -42 26 -117h184l-3 -23h-171q11 -38 11 -68q0 -91 -87 -163h164q50 0 75 22t41 72l21 -6
q-18 -60 -51 -86t-86 -26h-239z" />
    <glyph glyph-name="yen.sc" unicode="&#xf63c;" horiz-adv-x="415" 
d="M271 188h-105l-25 -188h-24l25 188h-106l4 23h106l10 81h-105l3 22h92l-100 233h27l98 -236l161 236h30l-163 -233h90l-4 -22h-105l-11 -81h106z" />
    <glyph glyph-name="florin.sc" unicode="&#xf63d;" horiz-adv-x="402" 
d="M407 494l-24 -10q-18 50 -70 50q-33 0 -52 -21.5t-28 -67.5l-22 -107h115l-5 -25h-115l-57 -281q-21 -105 -111 -105q-63 0 -89 64l25 10q18 -50 69 -50q32 0 50.5 20.5t28.5 68.5l55 273h-53l5 25h54l23 114q22 106 109 106q66 0 92 -64z" />
    <glyph glyph-name="commainferior" unicode="&#xf6e1;" horiz-adv-x="162" 
d="M-13 -220l48 120h35l-63 -124z" />
    <glyph glyph-name="commasuperior" unicode="&#xf6e2;" horiz-adv-x="162" 
d="M56 289l48 120h35l-63 -124z" />
    <glyph glyph-name="hypheninferior" unicode="&#xf6e5;" horiz-adv-x="226" 
d="M164 24h-165l5 31h165z" />
    <glyph glyph-name="hyphensuperior" unicode="&#xf6e6;" horiz-adv-x="226" 
d="M233 520h-165l5 31h165z" />
    <glyph glyph-name="periodinferior" unicode="&#xf6e7;" horiz-adv-x="168" 
d="M67 -123q-5 -29 -35 -29q-29 0 -24 29q3 28 33 28q29 0 26 -28z" />
    <glyph glyph-name="periodsuperior" unicode="&#xf6e8;" horiz-adv-x="168" 
d="M136 373q-5 -29 -35 -29q-29 0 -24 29q3 28 33 28q29 0 26 -28z" />
    <glyph glyph-name="three.tosf" unicode="&#xf81e;" 
d="M57 77l24 5q5 -71 40 -106.5t107 -35.5q33 0 63.5 9.5t58.5 29.5t45 58t17 90q0 117 -166 117h-52l4 26h34q117 0 170.5 48.5t53.5 124.5q0 48 -29.5 77.5t-95.5 29.5q-70 0 -115.5 -26.5t-74.5 -101.5l-23 7q52 145 215 145q71 0 110 -34t39 -93q0 -85 -53 -131
t-117 -57v-2q57 -6 92 -40t35 -89q0 -93 -56 -152t-156 -59q-83 0 -126.5 44t-43.5 116z" />
    <glyph glyph-name="four.tosf" unicode="&#xf81f;" 
d="M378 -67h-24l21 162h-338l2 21l395 453h35l-65 -450h91l-3 -24h-91zM75 119h305l58 417z" />
    <glyph glyph-name="five.tosf" unicode="&#xf820;" 
d="M115 240l67 320h306l-3 -24h-280l-62 -273q77 62 161 62q158 0 158 -159q0 -32 -7 -65t-24.5 -66.5t-42.5 -59t-64.5 -42t-87.5 -16.5q-167 0 -186 155l26 9q3 -20 6.5 -33.5t14.5 -35.5t27 -35.5t46 -24t69 -10.5q48 0 85.5 18.5t57.5 45t32.5 59t16.5 56t4 41.5
q0 75 -34 106.5t-101 31.5q-47 0 -85 -17.5t-81 -53.5z" />
    <glyph glyph-name="six.tosf" unicode="&#xf821;" 
d="M114 256q-2 -18 -2 -51q0 -194 146 -194q86 0 139.5 60.5t53.5 161.5q0 68 -32 104t-94 36q-54 0 -110 -30.5t-101 -86.5zM518 503l-24 -7q-11 64 -41.5 92t-84.5 28q-66 0 -115 -33.5t-76 -88.5t-41 -104t-20 -102q35 44 92 76t117 32q80 0 116 -45t36 -115
q0 -31 -6 -62.5t-21.5 -66t-39.5 -60t-64.5 -42.5t-91.5 -17q-49 0 -83.5 18t-52 51t-24.5 71t-7 88q0 14 1 34t7 63.5t16 83t31 86t49.5 79.5t74.5 55.5t102 22.5q65 0 104.5 -36.5t45.5 -100.5z" />
    <glyph glyph-name="seven.tosf" unicode="&#xf822;" 
d="M121 -67h-32l400 602h-375l2 25h409l-2 -20z" />
    <glyph glyph-name="nine.tosf" unicode="&#xf824;" 
d="M462 315q2 18 2 51q0 194 -146 194q-86 0 -139.5 -63.5t-53.5 -165.5q0 -64 31.5 -99.5t94.5 -35.5q116 0 211 119zM50 57l24 6q11 -122 135 -122q133 0 200 142q35 74 51 198q-35 -44 -92 -76t-117 -32q-152 0 -152 162q0 27 6 57t21.5 65t39.5 62t64.5 45.5t91.5 18.5
q167 0 167 -215q0 -20 -0.5 -40t-6.5 -68.5t-15.5 -88.5t-31 -89.5t-51 -83.5t-77 -57.5t-106.5 -23.5q-62 0 -104 36t-47 104z" />
    <glyph glyph-name="dollar.tosf" unicode="&#xf825;" 
d="M229 -78l10 77q-165 4 -174 161l26 6q7 -73 39.5 -107.5t111.5 -36.5l39 286q-37 12 -57.5 21t-46 25.5t-37 41t-11.5 57.5q0 56 30.5 94t72 53t90.5 17l10 69h24l-10 -70q144 -7 156 -148l-26 -4q-6 54 -37 90t-96 39l-36 -267q37 -12 58 -21t46.5 -26t37.5 -41.5
t12 -58.5q0 -84 -59.5 -130t-138.5 -49l-10 -78h-24zM435 172q0 28 -10 49.5t-31 36.5t-40 24t-50 19l-38 -279q72 4 120.5 45.5t48.5 104.5zM156 456q0 -27 9.5 -47t30 -34.5t39 -22.5t49.5 -19l35 261q-82 -3 -122.5 -42.5t-40.5 -95.5z" />
    <glyph glyph-name="Euro.tosf" unicode="&#xf826;" horiz-adv-x="569" 
d="M310 229h-232q6 -117 51.5 -167.5t140.5 -50.5q81 0 129.5 37.5t82.5 123.5l22 -8q-58 -176 -237 -176q-110 0 -161.5 60.5t-53.5 180.5h-60l8 25h54q3 63 17 118h-58l8 25h57q29 107 103 174.5t181 67.5q191 0 187 -199l-25 -4q-2 91 -38.5 135t-128.5 44
q-96 0 -160.5 -60t-91.5 -158h239l-6 -25h-240q-14 -52 -19 -118h237z" />
    <glyph glyph-name="cent.tosf" unicode="&#xf827;" 
d="M246 -63l13 96q-29 3 -54 13t-50 31t-39.5 61.5t-14.5 95.5q0 132 60.5 207.5t167.5 81.5l14 100h25l-14 -99q65 -2 102 -42t33 -106l-23 -2q4 121 -116 126l-63 -445q54 1 96 31.5t60 85.5l24 -7q-21 -66 -72 -99t-111 -34l-13 -95h-25zM127 233q0 -26 5 -51t18.5 -54
t42.5 -48.5t70 -23.5l62 443q-97 -6 -147.5 -77t-50.5 -189z" />
    <glyph glyph-name="s_t" unicode="&#xfb06;" horiz-adv-x="783" 
d="M528 113l76 537l27 4l-21 -149h147l-4 -22h-146l-50 -359q-4 -32 -4 -56.5t19.5 -39t61.5 -14.5q48 0 94 29l6 -26q-43 -29 -100 -29q-41 0 -66.5 12t-33 31t-9.5 41t3 41zM258 516q85 0 123.5 -45.5t35.5 -113.5l-25 -2q0 139 -135 139q-75 0 -106.5 -34.5t-31.5 -79.5
t28.5 -67t84.5 -38q84 -23 110 -41q50 -32 50 -93q0 -67 -45 -110t-123 -43q-169 0 -181 159l26 5q10 -140 150 -140q61 0 103.5 29.5t42.5 96.5q0 22 -8.5 39.5t-18.5 27.5t-33 20t-35.5 13.5l-42.5 12.5q-31 9 -50.5 16.5t-41.5 22t-32.5 37t-10.5 53.5q0 63 45.5 99.5
t120.5 36.5z" />
    <glyph glyph-name="hyphen.case" horiz-adv-x="319" 
d="M295 352h-271l4 25h271z" />
    <glyph glyph-name="zero.osf" horiz-adv-x="611" 
d="M262 -12q-198 0 -198 224q0 65 16.5 126.5t50 115.5t91.5 87t133 33q54 0 92.5 -17.5t59.5 -48.5t30 -67t9 -79q0 -71 -16 -135.5t-48.5 -119t-89 -87t-130.5 -32.5zM267 13q66 0 116.5 32t79.5 85t43 112.5t14 121.5q0 185 -171 185q-67 0 -118 -30t-80 -80t-43.5 -108
t-14.5 -120q0 -96 40 -147t134 -51z" />
    <glyph glyph-name="one.osf" horiz-adv-x="371" 
d="M188 0h-26l70 516q-65 -57 -165 -57v25q66 2 108 23t74 61h16z" />
    <glyph glyph-name="two.osf" horiz-adv-x="490" 
d="M277 574q72 0 115 -38t43 -110q0 -45 -12.5 -81t-44.5 -71t-62.5 -60t-89.5 -67l-169 -122h327l-3 -25h-370l3 21l176 130q119 87 149 117q65 64 70 146v15q0 58 -34.5 89.5t-98.5 31.5q-65 0 -111.5 -30.5t-73.5 -117.5l-25 6q48 166 211 166z" />
    <glyph glyph-name="three.osf" horiz-adv-x="504" 
d="M18 77l24 5q5 -71 40 -106.5t107 -35.5q33 0 63.5 9.5t58.5 29.5t45 58t17 90q0 117 -166 117h-52l4 26h34q117 0 170.5 48.5t53.5 124.5q0 48 -29.5 77.5t-95.5 29.5q-70 0 -115.5 -26.5t-74.5 -101.5l-23 7q52 145 215 145q71 0 110 -34t39 -93q0 -85 -53 -131
t-117 -57v-2q57 -6 92 -40t35 -89q0 -93 -56 -152t-156 -59q-83 0 -126.5 44t-43.5 116z" />
    <glyph glyph-name="four.osf" horiz-adv-x="498" 
d="M337 -67h-24l21 155h-328l2 21l384 460h36l-65 -456h91l-3 -25h-91zM44 113h293l61 425z" />
    <glyph glyph-name="five.osf" horiz-adv-x="509" 
d="M89 240l67 320h306l-3 -24h-280l-62 -273q77 62 161 62q158 0 158 -159q0 -32 -7 -65t-24.5 -66.5t-42.5 -59t-64.5 -42t-87.5 -16.5q-167 0 -186 155l26 9q3 -20 6.5 -33.5t14.5 -35.5t27 -35.5t46 -24t69 -10.5q48 0 85.5 18.5t57.5 45t32.5 59t16.5 56t4 41.5
q0 75 -34 106.5t-101 31.5q-47 0 -85 -17.5t-81 -53.5z" />
    <glyph glyph-name="six.osf" horiz-adv-x="532" 
d="M94 256q-2 -18 -2 -51q0 -194 146 -194q86 0 139.5 60.5t53.5 161.5q0 68 -32 104t-94 36q-54 0 -110 -30.5t-101 -86.5zM498 503l-24 -7q-11 64 -41.5 92t-84.5 28q-66 0 -115 -33.5t-76 -88.5t-41 -104t-20 -102q35 44 92 76t117 32q80 0 116 -45t36 -115
q0 -31 -6 -62.5t-21.5 -66t-39.5 -60t-64.5 -42.5t-91.5 -17q-49 0 -83.5 18t-52 51t-24.5 71t-7 88q0 14 1 34t7 63.5t16 83t31 86t49.5 79.5t74.5 55.5t102 22.5q65 0 104.5 -36.5t45.5 -100.5z" />
    <glyph glyph-name="seven.osf" horiz-adv-x="492" 
d="M64 -67h-32l400 602h-375l2 25h409l-2 -20z" />
    <glyph glyph-name="eight.osf" horiz-adv-x="497" 
d="M297 329q81 -37 108 -61q41 -38 41 -93q0 -90 -64.5 -138.5t-165.5 -48.5q-87 0 -134.5 37.5t-47.5 101.5q0 79 49.5 123.5t151.5 79.5q-69 27 -101 58.5t-32 84.5q0 79 61.5 122.5t156.5 43.5q80 0 123.5 -29t43.5 -83q0 -67 -46.5 -112t-143.5 -86zM267 316
q-101 -28 -153 -72.5t-52 -113.5q0 -56 41.5 -88t114.5 -32q94 0 147 46.5t53 115.5q0 29 -11 51t-34.5 39t-45.5 28t-60 26zM268 340q100 41 146.5 81t46.5 100q0 96 -147 96q-85 0 -135 -38.5t-50 -104.5q0 -50 37.5 -80t101.5 -54z" />
    <glyph glyph-name="nine.osf" horiz-adv-x="548" 
d="M440 315q2 18 2 51q0 194 -146 194q-86 0 -139.5 -63.5t-53.5 -165.5q0 -64 31.5 -99.5t94.5 -35.5q116 0 211 119zM28 57l24 6q11 -122 135 -122q133 0 200 142q35 74 51 198q-35 -44 -92 -76t-117 -32q-152 0 -152 162q0 27 6 57t21.5 65t39.5 62t64.5 45.5t91.5 18.5
q167 0 167 -215q0 -20 -0.5 -40t-6.5 -68.5t-15.5 -88.5t-31 -89.5t-51 -83.5t-77 -57.5t-106.5 -23.5q-62 0 -104 36t-47 104z" />
    <glyph glyph-name="dollar.osf" horiz-adv-x="511" 
d="M173 -78l10 77q-165 4 -174 161l26 6q7 -73 39.5 -107.5t111.5 -36.5l39 286q-37 12 -57.5 21t-46 25.5t-37 41t-11.5 57.5q0 56 30.5 94t72 53t90.5 17l10 69h24l-10 -70q144 -7 156 -148l-26 -4q-6 54 -37 90t-96 39l-36 -267q37 -12 58 -21t46.5 -26t37.5 -41.5
t12 -58.5q0 -84 -59.5 -130t-138.5 -49l-10 -78h-24zM379 172q0 28 -10 49.5t-31 36.5t-40 24t-50 19l-38 -279q72 4 120.5 45.5t48.5 104.5zM100 456q0 -27 9.5 -47t30 -34.5t39 -22.5t49.5 -19l35 261q-82 -3 -122.5 -42.5t-40.5 -95.5z" />
    <glyph glyph-name="Euro.osf" horiz-adv-x="557" 
d="M319 230h-249q0 -110 45.5 -164t144.5 -54q74 0 124 31t80 99l23 -7q-28 -72 -87 -109.5t-141 -37.5q-100 0 -157 54.5t-58 187.5h-59l7 24h52q2 56 17 118h-42l7 24h41q33 106 105 174.5t186 68.5q181 0 184 -167l-22 -1q-6 145 -163 145q-98 0 -165.5 -59t-98.5 -161
h268l-8 -24h-267q-13 -53 -16 -118h257z" />
    <glyph glyph-name="cent.osf" horiz-adv-x="469" 
d="M181 -61l13 96q-29 3 -54 13t-50 31t-39.5 61.5t-14.5 95.5q0 132 60.5 207.5t167.5 81.5l14 100h25l-14 -99q65 -2 102 -42t33 -106l-23 -2q4 121 -116 126l-63 -445q54 1 96 31.5t60 85.5l24 -7q-21 -66 -72 -99t-111 -34l-13 -95h-25zM62 235q0 -26 5 -51t18.5 -54
t42.5 -48.5t70 -23.5l62 443q-97 -6 -147.5 -77t-50.5 -189z" />
    <glyph glyph-name="sterling.osf" horiz-adv-x="524" 
d="M410 280h-236q12 -33 12 -63q0 -106 -110 -193h237q62 0 96 27t54 89l25 -6q-23 -72 -65 -103t-117 -31h-321l3 24h56q116 90 116 190q0 29 -14 66h-109l4 24h95q-29 68 -29 125q0 98 65.5 153.5t155.5 55.5q174 0 174 -164l-23 -4q-1 67 -37.5 106t-113.5 39
q-92 0 -143 -54.5t-51 -133.5q0 -53 31 -123h249z" />
    <glyph glyph-name="yen.osf" horiz-adv-x="486" 
d="M370 183h-138l-25 -183h-24l25 183h-142l4 24h141l12 85h-141l4 24h126l-144 316h29l140 -311h1l217 311h33l-226 -316h128l-4 -24h-140l-11 -85h139z" />
    <glyph glyph-name="florin.osf" horiz-adv-x="443" 
d="M485 566l-23 -10q-13 32 -32.5 48.5t-56.5 16.5q-92 0 -115 -122l-28 -149h152l-5 -24h-153l-74 -358q-16 -81 -48 -115t-85 -34q-24 0 -41 3.5t-38.5 22t-33.5 53.5l23 10q16 -37 35.5 -51t54.5 -14q40 0 65 28.5t38 93.5l74 361h-70l6 24h70l30 155q27 140 146 140
q82 0 109 -79z" />
    <glyph glyph-name="afii61352.osf" horiz-adv-x="905" 
d="M590 198l4 26h273l-4 -26h-273zM732 287q-131 0 -131 135q0 81 46.5 141.5t138.5 60.5q66 0 98 -36t32 -93q0 -96 -50.5 -152t-133.5 -56zM738 311q71 0 111.5 49.5t40.5 130.5q0 56 -26.5 82.5t-82.5 26.5q-55 0 -91.5 -29t-49.5 -67t-13 -82q0 -58 27 -84.5t84 -26.5z
M451 0h-39l-258 606l-83 -606h-26l86 632h42l257 -604l81 604h26z" />
    <glyph glyph-name="percent.osf" horiz-adv-x="817" 
d="M196 -12h-30l442 634h30zM180 257q-66 0 -97.5 39.5t-31.5 107.5q0 90 44.5 154t139.5 64q130 0 130 -151q0 -40 -9.5 -76t-30 -68t-58 -51t-87.5 -19zM183 280q48 0 81.5 21.5t48 55.5t20 61t5.5 52q0 129 -105 129q-45 0 -77.5 -19.5t-48.5 -51.5t-23 -62.5t-7 -62.5
q0 -123 106 -123zM568 -12q-66 0 -97.5 39.5t-31.5 107.5q0 90 44.5 154t139.5 64q130 0 130 -151q0 -40 -9.5 -76t-30 -68t-58 -51t-87.5 -19zM571 11q48 0 81.5 21.5t48 55.5t20 61t5.5 52q0 129 -105 129q-45 0 -77.5 -19.5t-48 -51.5t-22.5 -62.5t-7 -62.5
q0 -123 105 -123z" />
    <glyph glyph-name="perthousand.osf" horiz-adv-x="991" 
d="M172 295q-62 0 -87.5 36.5t-25.5 91.5q0 35 8.5 68.5t26.5 63.5t51.5 48t77.5 18q61 0 87 -36.5t26 -90.5q0 -32 -7.5 -63.5t-24.5 -63.5t-51 -52t-81 -20zM129 -12h-30l462 634h30zM176 319q66 0 99.5 50t33.5 124q0 105 -89 105q-51 0 -83 -30.5t-42 -66.5t-10 -77
q0 -105 91 -105zM455 -12q-62 0 -87.5 36.5t-25.5 91.5q0 35 8.5 68.5t26.5 63.5t51.5 48t77.5 18q61 0 87 -36.5t26 -90.5q0 -32 -7.5 -63.5t-24.5 -63.5t-51 -52t-81 -20zM459 13q66 0 99.5 50t33.5 123q0 103 -89 103q-38 0 -65.5 -16.5t-41.5 -44t-20.5 -55t-6.5 -56.5
q0 -104 90 -104zM774 -12q-62 0 -87.5 36.5t-25.5 91.5q0 35 8.5 68.5t26.5 63.5t51.5 48t77.5 18q61 0 87 -36.5t26 -90.5q0 -32 -7.5 -63.5t-24.5 -63.5t-51 -52t-81 -20zM778 13q66 0 99.5 50t33.5 123q0 103 -89 103q-38 0 -65.5 -16.5t-41.5 -44t-20.5 -55t-6.5 -56.5
q0 -104 90 -104z" />
    <glyph glyph-name="zero.slash" 
d="M247 -12q-66 0 -107.5 29t-56 79t-17 117t9.5 143q6 50 12.5 87t19 85t31.5 82t45.5 64.5t66.5 46.5t89 16q48 0 83 -15t54.5 -44t30.5 -62t12 -79.5t-1.5 -85.5t-8.5 -91q-6 -51 -14 -91.5t-21 -85.5t-32.5 -78t-46 -60.5t-64.5 -42t-85 -14.5zM251 11q49 0 87.5 20.5
t62 51.5t41.5 80.5t27 95t16 107.5t9 106.5t-2.5 92t-23 80.5t-50.5 51l-234 -674q30 -11 67 -11zM101 352q-18 -113 -5 -200.5t67 -120.5l231 675q-27 8 -58 8q-58 0 -100 -25.5t-68 -76.5t-41 -112t-26 -148z" />
    <glyph glyph-name="zero.tf" 
d="M247 -12q-66 0 -107.5 29t-56 79t-17 117t9.5 143q6 50 12.5 87t19 85t31.5 82t45.5 64.5t66.5 46.5t89 16q48 0 83 -15t54.5 -44t30.5 -62t12 -79.5t-1.5 -85.5t-8.5 -91q-6 -51 -14 -91.5t-21 -85.5t-32.5 -78t-46 -60.5t-64.5 -42t-85 -14.5zM251 11q49 0 87.5 20.5
t62 51.5t41.5 80.5t27 95t16 107.5q6 51 8.5 88t1.5 80.5t-11 73t-27 55t-48 38.5t-73 13q-58 0 -100 -25.5t-68 -76.5t-41 -112t-26 -148q-11 -101 -7.5 -177t42 -120t115.5 -44z" />
    <glyph glyph-name="one.tf" horiz-adv-x="569" 
d="M98 0l3 21h139l88 651q-65 -57 -168 -57v25q66 2 108.5 23t74.5 61h17l-95 -703h132l-3 -21h-296z" />
    <glyph glyph-name="two.tf" 
d="M322 737q79 0 125 -38.5t46 -111.5q0 -46 -10.5 -82t-39.5 -76.5t-69.5 -85.5l-109.5 -116l-18 -18l-178 -184h344l-3 -25h-380l3 19l220 231q137 144 176 202.5t39 134.5q0 56 -36 91t-111 35q-81 0 -125 -38t-67 -110l-25 5q53 167 219 167z" />
    <glyph glyph-name="three.tf" 
d="M46 141l24 5q6 -135 147 -135q25 0 50 4.5t54.5 19.5t52 37.5t37.5 63t15 93.5q0 78 -47 112t-123 34h-61l4 26h50q100 0 158.5 49.5t58.5 136.5q0 54 -31.5 90t-98.5 36q-142 0 -185 -133l-23 7q49 150 212 150q74 0 113 -41t39 -103q0 -53 -19 -93.5t-50 -62t-56.5 -32
t-51.5 -15.5v-2q63 -8 100.5 -48t37.5 -109q0 -108 -64 -175.5t-172 -67.5q-80 0 -124 41t-47 112z" />
    <glyph glyph-name="four.tf" 
d="M403 0h-25l26 194h-344l3 22l403 508h35l-69 -506h90l-3 -24h-90zM96 218h311l66 480z" />
    <glyph glyph-name="five.tf" 
d="M113 371l77 353h310l-3 -24h-284l-71 -304q78 62 170 62q68 0 118.5 -43t50.5 -138q0 -124 -66 -206.5t-184 -82.5q-167 0 -186 155l25 8q3 -21 6.5 -34t14.5 -35t26.5 -35t46 -23.5t70.5 -10.5q28 0 55.5 6.5t58 24.5t53.5 46t38 75.5t15 107.5q0 76 -40.5 117
t-105.5 41q-90 0 -176 -71z" />
    <glyph glyph-name="six.tf" 
d="M530 600l-26 -7q-11 58 -38.5 89t-87.5 31q-52 0 -95.5 -25t-72.5 -64.5t-51 -92.5t-34 -103.5t-19 -103.5q37 43 99 79t129 36q82 0 118.5 -45.5t36.5 -118.5q0 -129 -67.5 -208t-172.5 -79q-93 0 -134 66.5t-41 172.5q0 67 10 134.5t33.5 136t57.5 121t87.5 85.5
t118.5 33q69 0 106 -39.5t43 -97.5zM102 288q-3 -33 -3 -60q0 -217 152 -217q38 0 74 15t67.5 45.5t50.5 83t19 120.5q0 139 -130 139q-61 0 -121 -34t-109 -92z" />
    <glyph glyph-name="seven.tf" 
d="M137 0h-31l415 699h-407l3 25h438l-2 -20z" />
    <glyph glyph-name="eight.tf" 
d="M321 376q34 -14 56 -25.5t48 -32t39 -49.5t13 -66q0 -90 -68.5 -152.5t-173.5 -62.5q-96 0 -143.5 46.5t-47.5 113.5q0 40 14 73.5t33.5 55.5t51 42.5t55 31t58.5 24.5q-58 22 -97 62t-39 99q0 91 63.5 146t163.5 55q74 0 122.5 -35t48.5 -103q0 -80 -51.5 -130.5
t-145.5 -92.5zM288 365q-49 -18 -81 -33.5t-67 -40.5t-53 -60.5t-18 -80.5q0 -64 43 -101.5t125 -37.5q100 0 157 61t57 130q0 36 -15 64t-44.5 47.5t-49.5 29t-54 22.5zM288 384q100 43 152 90.5t52 118.5q0 55 -38.5 88.5t-108.5 33.5q-93 0 -146 -52t-53 -121
q0 -33 10.5 -58.5t33.5 -44t43 -29.5t55 -26z" />
    <glyph glyph-name="nine.tf" 
d="M46 130l26 7q22 -124 141 -124q87 0 146.5 60t90.5 165q18 60 30 151q-38 -46 -100.5 -80t-127.5 -34q-84 0 -121.5 50t-37.5 129q0 127 66.5 205t176.5 78q96 0 136 -61t40 -168q0 -61 -6 -122t-26 -135.5t-51 -130.5t-87.5 -94t-129.5 -38q-71 0 -114 37t-52 105z
M482 423q4 54 4 81q0 43 -5.5 76.5t-20.5 65.5t-46.5 50t-77.5 18q-37 0 -73 -13.5t-69 -42.5t-53.5 -82t-20.5 -123q0 -72 34.5 -112.5t99.5 -40.5q61 0 122.5 34.5t105.5 88.5z" />
    <glyph glyph-name="dollar.tf" 
d="M206 -78l12 90q-167 11 -171 179l26 4q5 -77 39 -116t109 -44l43 323q-73 30 -110.5 63.5t-37.5 97.5q0 97 55.5 143.5t140.5 49.5l11 80h26l-11 -81q75 -4 114.5 -48.5t41.5 -119.5l-26 -4q-1 62 -34.5 102.5t-98.5 44.5l-42 -311q39 -16 59.5 -26.5t46.5 -31
t37.5 -48.5t11.5 -67q0 -95 -60.5 -142.5t-143.5 -48.5l-12 -89h-26zM420 200q0 54 -26 85t-105 63l-42 -314q83 1 128 45t45 121zM144 523q0 -56 30 -84t94 -54l40 302q-90 -4 -127 -50.5t-37 -113.5z" />
    <glyph glyph-name="Euro.tf" horiz-adv-x="569" 
d="M337 264h-257q0 -53 10.5 -96.5t32 -79t60.5 -55.5t93 -20q78 0 128 34t82 112l24 -8q-61 -163 -235 -163q-103 0 -161.5 69t-59.5 207h-82l7 24h75q2 67 15 130h-63l7 24h61q33 132 113.5 213.5t205.5 82.5q89 0 134.5 -47.5t39.5 -142.5l-22 -2q11 169 -153 169
q-113 0 -187.5 -75t-104.5 -198h289l-8 -24h-287q-13 -66 -14 -130h265z" />
    <glyph glyph-name="cent.tf" 
d="M223 0l13 96q-29 3 -54 13t-50 31t-39.5 61.5t-14.5 95.5q0 132 60.5 207.5t167.5 81.5l14 100h25l-14 -99q65 -2 102 -42t33 -106l-23 -2q4 121 -116 126l-63 -445q54 1 96 31.5t60 85.5l24 -7q-21 -66 -72 -99t-111 -34l-13 -95h-25zM104 296q0 -26 5 -51t18.5 -54
t42.5 -48.5t70 -23.5l62 443q-97 -6 -147.5 -77t-50.5 -189z" />
    <glyph glyph-name="sterling.tf" 
d="M421 338h-241q18 -54 18 -92q0 -118 -116 -222h218q64 0 99.5 28.5t55.5 94.5l25 -6q-24 -77 -66.5 -109t-120.5 -32h-298l3 24h53q123 107 123 221q0 41 -18 93h-104l4 24h91q-1 2 -5.5 13.5t-5.5 15t-5 14t-5.5 15t-4.5 14.5t-4.5 16t-3.5 15.5t-3 17.5t-1.5 17.5
t-0.5 18.5q0 61 20 105.5t55 68t73.5 34t83.5 10.5q88 0 131.5 -48t39.5 -137l-23 -3q0 81 -34.5 123t-116.5 42q-90 0 -147 -46t-57 -149q0 -12 1 -24t4 -25t4.5 -21.5t6.5 -23.5t7 -20.5t8.5 -22t7.5 -20.5h253z" />
    <glyph glyph-name="yen.tf" 
d="M421 256h-138l-34 -256h-24l34 256h-142l3 24h142l15 107h-142l3 24h128l-136 313h27l133 -310h1l216 310h31l-220 -313h125l-4 -24h-137l-15 -107h138z" />
    <glyph glyph-name="florin.tf" 
d="M546 658l-23 -10q-13 32 -32.5 48.5t-56.5 16.5q-92 0 -115 -122l-28 -149h152l-5 -24h-155l-89 -450q-16 -81 -48 -115t-85 -34q-24 0 -41 3.5t-38.5 22t-33.5 53.5l23 10q16 -37 35.5 -51t54.5 -14q40 0 65.5 28.5t38.5 93.5l90 453h-70l6 24h70l30 155q27 140 146 140
q82 0 109 -79z" />
    <glyph glyph-name="zeroslash.tosf" 
d="M247 -12q-198 0 -198 224q0 65 16.5 126.5t50 115.5t91.5 87t133 33q54 0 92.5 -17.5t59.5 -48.5t30 -67t9 -79q0 -71 -16 -135.5t-48.5 -119t-89 -87t-130.5 -32.5zM252 13q66 0 116.5 32t79.5 85t43 112.5t14 121.5q0 89 -39 135l-341 -443q43 -43 127 -43zM78 211
q0 -87 31 -135l339 440q-42 33 -114 33q-67 0 -118 -30t-80 -80t-43.5 -108t-14.5 -120z" />
    <glyph glyph-name="zero.tosf" 
d="M247 -12q-198 0 -198 224q0 65 16.5 126.5t50 115.5t91.5 87t133 33q54 0 92.5 -17.5t59.5 -48.5t30 -67t9 -79q0 -71 -16 -135.5t-48.5 -119t-89 -87t-130.5 -32.5zM252 13q66 0 116.5 32t79.5 85t43 112.5t14 121.5q0 185 -171 185q-67 0 -118 -30t-80 -80t-43.5 -108
t-14.5 -120q0 -96 40 -147t134 -51z" />
    <glyph glyph-name="one.tosf" horiz-adv-x="569" 
d="M110 22h156l69 496q-65 -57 -168 -57v23q66 2 108.5 23t74.5 61h17l-76 -546h139l-3 -22h-319z" />
    <glyph glyph-name="two.tosf" 
d="M319 574q72 0 115 -38t43 -110q0 -45 -12.5 -81t-44.5 -71t-62.5 -60t-89.5 -67l-169 -122h327l-3 -25h-370l3 21l176 130q119 87 149 117q65 64 70 146v15q0 58 -34.5 89.5t-98.5 31.5q-65 0 -111.5 -30.5t-73.5 -117.5l-25 6q48 166 211 166z" />
    <glyph glyph-name="eight.tosf" 
d="M324 329q81 -37 108 -61q41 -38 41 -93q0 -90 -64.5 -138.5t-165.5 -48.5q-87 0 -134.5 37.5t-47.5 101.5q0 79 49.5 123.5t151.5 79.5q-69 27 -101 58.5t-32 84.5q0 79 61.5 122.5t156.5 43.5q80 0 123.5 -29t43.5 -83q0 -67 -46.5 -112t-143.5 -86zM294 316
q-101 -28 -153 -72.5t-52 -113.5q0 -56 41.5 -88t114.5 -32q94 0 147 46.5t53 115.5q0 29 -11 51t-34.5 39t-45.5 28t-60 26zM295 340q100 41 146.5 81t46.5 100q0 96 -147 96q-85 0 -135 -38.5t-50 -104.5q0 -50 37.5 -80t101.5 -54z" />
    <glyph glyph-name="sterling.tosf" 
d="M427 280h-236q12 -33 12 -63q0 -106 -110 -193h237q62 0 96 27t54 89l25 -6q-23 -72 -65 -103t-117 -31h-321l3 24h56q116 90 116 190q0 29 -14 66h-109l4 24h95q-29 68 -29 125q0 98 65.5 153.5t155.5 55.5q174 0 174 -164l-23 -4q-1 67 -37.5 106t-113.5 39
q-92 0 -143 -54.5t-51 -133.5q0 -53 31 -123h249z" />
    <glyph glyph-name="yen.tosf" 
d="M394 183h-138l-25 -183h-24l25 183h-142l4 24h141l12 85h-141l4 24h126l-144 316h29l140 -311h1l217 311h33l-226 -316h128l-4 -24h-140l-11 -85h139z" />
    <glyph glyph-name="florin.tosf" 
d="M553 566l-23 -10q-13 32 -32.5 48.5t-56.5 16.5q-92 0 -115 -122l-28 -149h152l-5 -24h-153l-74 -358q-16 -81 -48 -115t-85 -34q-24 0 -41 3.5t-38.5 22t-33.5 53.5l23 10q16 -37 35.5 -51t54.5 -14q40 0 65 28.5t38 93.5l74 361h-70l6 24h70l30 155q27 140 146 140
q82 0 109 -79z" />
    <glyph glyph-name="idotaccent" horiz-adv-x="229" 
d="M164 505l-71 -505h-28l71 505h28zM201 685q0 -17 -8 -30t-25 -13q-22 0 -22 25q0 21 9.5 32.5t23.5 11.5q22 0 22 -26z" />
    <glyph glyph-name="s_p" horiz-adv-x="1012" 
d="M599 505l-11 -77h1q112 88 206 88q151 0 151 -195q0 -163 -69.5 -248t-169.5 -85q-87 0 -172 64l-37 -264h-26l101 717h26zM917 324q0 87 -29.5 126.5t-95.5 39.5q-53 0 -110 -29.5t-98 -63.5l-44 -314q69 -69 166 -69q57 0 100 27t66 73t34 98.5t11 111.5zM258 516
q85 0 123.5 -45.5t35.5 -113.5l-25 -2q0 139 -135 139q-75 0 -106.5 -34.5t-31.5 -79.5t28.5 -67t84.5 -38q84 -23 110 -41q50 -32 50 -93q0 -67 -45 -110t-123 -43q-169 0 -181 159l26 5q10 -140 150 -140q61 0 103.5 29.5t42.5 96.5q0 22 -8.5 39.5t-18.5 27.5t-33 20
t-35.5 13.5l-42.5 12.5q-31 9 -50.5 16.5t-41.5 22t-32.5 37t-10.5 53.5q0 63 45.5 99.5t120.5 36.5z" />
    <glyph glyph-name="c_t" horiz-adv-x="838" 
d="M583 113l76 537l27 4l-21 -149h147l-4 -22h-146l-50 -359q-4 -32 -4 -56.5t19.5 -39t61.5 -14.5q48 0 94 29l6 -26q-43 -29 -100 -29q-41 0 -66.5 12t-33 31t-9.5 41t3 41zM239 -12q-178 0 -178 220q0 133 68 220.5t188 87.5q86 0 125 -51.5t29 -137.5l-25 -3
q3 81 -27 123.5t-105 42.5q-58 0 -102.5 -25.5t-70.5 -68t-39 -92t-13 -103.5q0 -98 42.5 -142.5t107.5 -44.5q137 0 181 128l23 -6q-18 -63 -70 -105.5t-134 -42.5z" />
    <glyph glyph-name="c_h" horiz-adv-x="1075" 
d="M239 -12q-178 0 -178 220q0 133 68 220.5t188 87.5q86 0 125 -51.5t29 -137.5l-25 -3q3 81 -27 123.5t-105 42.5q-58 0 -102.5 -25.5t-70.5 -68t-39 -92t-13 -103.5q0 -98 42.5 -142.5t107.5 -44.5q137 0 181 128l23 -6q-18 -63 -70 -105.5t-134 -42.5zM648 401l-56 -401
h-28l106 755h26l-46 -326q41 32 99.5 59.5t113.5 27.5q154 0 129 -174l-48 -342h-28l48 342q10 73 -14 110.5t-90 37.5q-96 0 -212 -89z" />
    <glyph glyph-name="c_k" horiz-adv-x="976" 
d="M239 -12q-178 0 -178 220q0 133 68 220.5t188 87.5q86 0 125 -51.5t29 -137.5l-25 -3q3 81 -27 123.5t-105 42.5q-58 0 -102.5 -25.5t-70.5 -68t-39 -92t-13 -103.5q0 -98 42.5 -142.5t107.5 -44.5q137 0 181 128l23 -6q-18 -63 -70 -105.5t-134 -42.5zM908 0h-30
l-144 301l-117 -103l-27 -198h-28l106 755h28l-72 -518l300 268h42l-210 -185z" />
    <glyph glyph-name="T_h" horiz-adv-x="983" 
d="M556 401l-56 -401h-28l98 699h-259l-95 -699h-27l95 699h-211l3 25h497l5 31h26l-46 -326q41 32 99.5 59.5t113.5 27.5q154 0 129 -174l-48 -342h-28l48 342q10 73 -14 110.5t-90 37.5q-96 0 -212 -89z" />
    <glyph glyph-name="commaaccent" horiz-adv-x="500" 
d="M179 -205l51 136h35l-65 -140z" />
    <glyph glyph-name="revcommaaccent" horiz-adv-x="500" 
d="M364 716l-50 -136h-36l71 140z" />
    <glyph glyph-name="caron.alt" horiz-adv-x="499" 
d="M286 567l61 188h35l-79 -192z" />
    <glyph glyph-name="tilde.cap" horiz-adv-x="499" 
d="M239 862q30 0 78.5 -27t68.5 -27q44 0 54 72l21 -2q-10 -93 -77 -93q-27 0 -77 27t-70 27q-43 0 -54 -72l-21 2q10 93 77 93z" />
    <glyph glyph-name="ring.cap" horiz-adv-x="500" 
d="M427 836q0 -41 -28 -70t-76 -29q-79 0 -79 71q0 47 31 73.5t73 26.5q79 0 79 -72zM327 756q35 0 55 22t20 59q0 51 -55 51q-35 0 -56.5 -21t-21.5 -58q0 -53 58 -53z" />
    <glyph glyph-name="circumflex.cap" horiz-adv-x="499" 
d="M449 770l-94 99l-121 -101l-27 7l136 115h28l105 -116z" />
    <glyph glyph-name="acute.cap" horiz-adv-x="500" 
d="M280 780l123 131h44l-145 -138z" />
    <glyph glyph-name="grave.cap" horiz-adv-x="499" 
d="M301 911l86 -131l-19 -7l-111 138h44z" />
    <glyph glyph-name="dieresis.cap" horiz-adv-x="499" 
d="M271 820q-4 -34 -30 -34q-29 0 -24 34q6 35 33 35t21 -35zM456 820q-4 -34 -30 -34q-29 0 -24 34q6 35 33 35t21 -35z" />
    <glyph glyph-name="caron.cap" horiz-adv-x="500" 
d="M246 891l94 -99l121 101l27 -7l-136 -115h-28l-105 116z" />
    <glyph glyph-name="macron.cap" horiz-adv-x="499" 
d="M487 808h-287l3 27h287z" />
    <glyph glyph-name="dotaccent.cap" horiz-adv-x="500" 
d="M368 816q-4 -34 -30 -34q-29 0 -24 34q6 35 33 35t21 -35z" />
    <glyph glyph-name="cedilla.cap" horiz-adv-x="500" 
d="M113 -185l12 20q25 -20 58 -20q30 0 48.5 18t18.5 49q0 54 -76 54l20 72h25l-14 -51q34 -4 53 -23.5t19 -48.5q0 -41 -26 -67.5t-69 -26.5q-48 0 -69 24z" />
    <glyph glyph-name="hungarumlaut.cap" horiz-adv-x="500" 
d="M234 780l103 131h44l-125 -138zM360 780l115 131h44l-137 -138z" />
    <glyph glyph-name="commaaccent.cap" horiz-adv-x="500" 
d="M170 -205l51 136h35l-65 -140z" />
    <glyph glyph-name="breve.cap" horiz-adv-x="500" 
d="M347 811q85 0 110 86l24 -4q-25 -105 -137 -105q-51 0 -78.5 26.5t-26.5 77.5l26 4q-4 -85 82 -85z" />
    <glyph glyph-name="ogonek.cap" horiz-adv-x="500" 
d="M301 -160l17 -11q-35 -47 -84 -47q-81 0 -81 73q0 91 130 163l26 -7q-68 -41 -99 -77t-31 -79q0 -52 55 -52q36 0 67 37z" />
    <glyph glyph-name="a.sup" horiz-adv-x="376" 
d="M355 671l-37 -271q-6 -37 20 -37q9 0 19 4l-3 -19q-8 -4 -22 -4q-44 0 -35 56q-64 -58 -125 -58q-99 0 -99 127q0 34 7.5 68t23.5 67.5t47.5 54t74.5 20.5q56 0 104 -42l9 34h16zM298 425l26 192q-42 40 -100 40q-46 0 -76 -32.5t-40.5 -72.5t-10.5 -84q0 -103 80 -103
q31 0 57.5 13t63.5 47z" />
    <glyph glyph-name="b.sup" horiz-adv-x="385" 
d="M95 349h-20l67 479h23l-30 -208l43 29t40.5 19.5t51.5 10.5q93 0 93 -120q0 -108 -43 -162.5t-106 -54.5q-57 0 -112 42zM131 595l-25 -187q52 -42 106 -42q46 0 75.5 30.5t40 71.5t10.5 92t-18 73.5t-54 22.5q-58 0 -135 -61z" />
    <glyph glyph-name="c.sup" horiz-adv-x="352" 
d="M191 342q-119 0 -119 139q0 92 47 145t119 53q54 0 80 -32t21 -85l-22 -3q1 48 -17 74t-65 26q-56 0 -98 -43t-42 -138q0 -115 97 -115q82 0 107 80l21 -7q-25 -94 -129 -94z" />
    <glyph glyph-name="d.sup" horiz-adv-x="375" 
d="M314 349h-20l6 45q-65 -52 -123 -52q-48 0 -75.5 30t-27.5 90q0 110 44.5 163.5t109.5 53.5q58 0 103 -40l29 189h22zM302 421l26 196q-50 41 -100 41q-67 0 -98.5 -55t-31.5 -138q0 -101 81 -101q25 0 49 9t38 19.5t36 28.5z" />
    <glyph glyph-name="e.sup" horiz-adv-x="338" 
d="M189 342q-116 0 -116 143q0 77 43 135.5t122 58.5q43 0 68 -22.5t25 -56.5q0 -63 -63 -88.5t-174 -28.5q1 -55 21 -88.5t77 -33.5q40 0 67.5 21.5t38.5 52.5l18 -5q-14 -45 -48.5 -66.5t-78.5 -21.5zM234 660q-62 0 -98 -44.5t-42 -114.5q216 2 216 99q0 28 -20 44
t-56 16z" />
    <glyph glyph-name="f.sup" horiz-adv-x="196" 
d="M276 824l-3 -20q-25 7 -44 7q-59 0 -67 -68l-10 -72h96l-4 -21h-95l-62 -448h-22l62 448h-52l3 21h52l9 67q11 95 93 95q24 0 44 -9z" />
    <glyph glyph-name="g.sup" horiz-adv-x="363" 
d="M213 656q-44 0 -74 -31t-40.5 -70.5t-10.5 -83.5q0 -101 78 -101q60 0 127 64l25 181q-41 41 -105 41zM279 330l11 78q-57 -59 -127 -59q-45 0 -72 30t-27 94q0 36 8 70.5t25 66t48.5 50.5t72.5 19q51 0 105 -41l7 33h17l-48 -354q-17 -112 -141 -112q-106 0 -115 93
l21 4q5 -38 26 -57.5t69 -19.5q105 0 120 105z" />
    <glyph glyph-name="h.sup" horiz-adv-x="385" 
d="M133 594l-35 -245h-21l67 479h21l-30 -211q72 62 141 62q46 0 65 -28.5t13 -75.5l-32 -226h-21l31 219q12 89 -62 89q-52 0 -137 -63z" />
    <glyph glyph-name="i.sup" horiz-adv-x="159" 
d="M141 671l-47 -322h-22l45 322h24zM167 794q0 -30 -28 -30q-18 0 -18 21q0 30 26 30q20 0 20 -21z" />
    <glyph glyph-name="j.sup" horiz-adv-x="162" 
d="M64 289l53 382h24l-54 -386q-11 -77 -80 -77q-26 0 -47 8l6 22q18 -7 41 -7q26 0 39.5 13t17.5 45zM167 794q0 -30 -28 -30q-18 0 -18 21q0 30 26 30q20 0 20 -21z" />
    <glyph glyph-name="k.sup" horiz-adv-x="330" 
d="M306 349h-25l-88 192l-78 -66l-17 -126h-23l68 479h22l-47 -326l199 169h28l-134 -116z" />
    <glyph glyph-name="l.sup" horiz-adv-x="159" 
d="M72 349l66 479h22l-66 -479h-22z" />
    <glyph glyph-name="m.sup" horiz-adv-x="575" 
d="M269 679q65 0 71 -59q77 59 136 59q48 0 61.5 -29.5t6.5 -81.5l-31 -219h-23l30 216q2 21 3.5 41.5t-10 36t-38.5 15.5q-49 0 -133 -59l-33 -250h-24l30 216q14 93 -48 93q-51 0 -135 -61l-33 -248h-25l45 322h23l-7 -50q73 58 134 58z" />
    <glyph glyph-name="n.sup" horiz-adv-x="386" 
d="M134 596l-35 -247h-24l45 322h22l-6 -49q76 57 143 57q92 0 75 -115l-30 -215h-24l30 224q11 83 -55 83q-58 0 -141 -60z" />
    <glyph glyph-name="o.sup" horiz-adv-x="379" 
d="M191 342q-60 0 -89.5 36.5t-29.5 99.5q0 82 42 141.5t127 59.5q118 0 118 -136q0 -80 -41.5 -140.5t-126.5 -60.5zM195 364q71 0 105 51.5t34 127.5q0 115 -97 115q-71 0 -105.5 -50.5t-34.5 -128.5q0 -115 98 -115z" />
    <glyph glyph-name="p.sup" horiz-adv-x="385" 
d="M138 671l-8 -53q80 61 137 61q94 0 94 -121q0 -106 -44.5 -161t-109.5 -55q-59 0 -108 45l-24 -172h-23l64 456h22zM335 559q0 51 -17 73.5t-52 22.5q-33 0 -72.5 -21t-64.5 -43l-25 -180q51 -45 101 -45q37 0 64 16.5t40.5 45.5t19.5 61t6 70z" />
    <glyph glyph-name="q.sup" horiz-adv-x="376" 
d="M229 679q53 0 102 -43l4 35h24l-64 -456h-22l26 179q-63 -52 -124 -52q-46 0 -73.5 30.5t-27.5 88.5q0 111 44.5 164.5t110.5 53.5zM99 466q0 -52 18.5 -76.5t59.5 -24.5q63 0 124 59l26 189q-46 43 -97 43q-66 0 -98.5 -54t-32.5 -136z" />
    <glyph glyph-name="r.sup" horiz-adv-x="230" 
d="M133 591l-35 -242h-23l44 322h23l-7 -55q33 36 57.5 49.5t54.5 13.5h7l-3 -29q-52 4 -118 -59z" />
    <glyph glyph-name="s.sup" horiz-adv-x="317" 
d="M203 680q52 0 76.5 -27t25.5 -70l-19 -3q-6 80 -82 80q-46 0 -66.5 -20.5t-20.5 -49.5q0 -21 12.5 -35.5t26.5 -20t39 -12.5q23 -6 34.5 -10t28 -13.5t23.5 -24.5t7 -36q0 -45 -29.5 -70.5t-82.5 -25.5q-106 0 -114 97l20 4q10 -81 93 -81q91 0 91 74q0 21 -12.5 35.5
t-26.5 20t-39 12.5q-23 6 -34.5 10t-28 13.5t-23.5 24.5t-7 36q0 45 31.5 68.5t76.5 23.5z" />
    <glyph glyph-name="t.sup" horiz-adv-x="243" 
d="M224 377l3 -20q-32 -15 -64 -15q-83 0 -72 79l33 230h-53l3 20h52l14 95l24 3l-15 -98h95l-3 -20h-94l-32 -220q-5 -35 5 -51t44 -16q30 0 60 13z" />
    <glyph glyph-name="u.sup" horiz-adv-x="386" 
d="M296 427l34 244h23l-45 -322h-21l7 51q-67 -58 -134 -58q-56 0 -72.5 31t-9.5 86l28 212h24l-27 -201l-4 -46t13.5 -40.5t49.5 -17.5q59 0 134 61z" />
    <glyph glyph-name="v.sup" horiz-adv-x="314" 
d="M173 349h-27l-77 322h25l67 -303l151 303h25z" />
    <glyph glyph-name="w.sup" horiz-adv-x="468" 
d="M149 349h-28l-54 322h22l48 -303l124 303h32l40 -302l132 302h21l-139 -322h-32l-40 299h-2z" />
    <glyph glyph-name="x.sup" horiz-adv-x="294" 
d="M268 349h-22l-81 151l-113 -151h-25l127 169l-82 153h23l73 -140l107 140h26l-123 -155z" />
    <glyph glyph-name="y.sup" horiz-adv-x="299" 
d="M134 349l-64 322h23l57 -293l143 293h23l-192 -389q-18 -37 -38.5 -55.5t-52.5 -18.5q-24 0 -44 9l6 20q20 -8 38 -8q25 0 42 15.5t38 59.5z" />
    <glyph glyph-name="z.sup" horiz-adv-x="299" 
d="M272 349h-234l3 17l237 285h-197l3 20h226l-2 -16l-239 -286h206z" />
    <glyph glyph-name="minusinferior" horiz-adv-x="305" 
d="M245 44h-223l4 26h223z" />
    <glyph glyph-name="plusinferior" horiz-adv-x="305" 
d="M130 -56h-26l12 94h-92l4 26h92l12 93h26l-12 -93h95l-4 -26h-95z" />
    <glyph glyph-name="equalinferior" horiz-adv-x="305" 
d="M240 -18h-223l4 26h223zM253 74h-223l4 26h223z" />
    <glyph glyph-name="a.sinf" horiz-adv-x="376" 
d="M286 175l-37 -271q-6 -37 20 -37q9 0 19 4l-3 -19q-8 -4 -22 -4q-44 0 -35 56q-64 -58 -125 -58q-99 0 -99 127q0 34 7.5 68t23.5 67.5t47.5 54t74.5 20.5q56 0 104 -42l9 34h16zM229 -71l26 192q-42 40 -100 40q-46 0 -76 -32.5t-40.5 -72.5t-10.5 -84q0 -103 80 -103
q31 0 57.5 13t63.5 47z" />
    <glyph glyph-name="b.sinf" horiz-adv-x="385" 
d="M26 -147h-20l67 479h23l-30 -208l43 29t40.5 19.5t51.5 10.5q93 0 93 -120q0 -108 -43 -162.5t-106 -54.5q-57 0 -112 42zM62 99l-25 -187q52 -42 106 -42q46 0 75.5 30.5t40 71.5t10.5 92t-18 73.5t-54 22.5q-58 0 -135 -61z" />
    <glyph glyph-name="c.sinf" horiz-adv-x="352" 
d="M122 -154q-119 0 -119 139q0 92 47 145t119 53q54 0 80 -32t21 -85l-22 -3q1 48 -17 74t-65 26q-56 0 -98 -43t-42 -138q0 -115 97 -115q82 0 107 80l21 -7q-25 -94 -129 -94z" />
    <glyph glyph-name="d.sinf" horiz-adv-x="375" 
d="M245 -147h-20l6 45q-65 -52 -123 -52q-48 0 -75.5 30t-27.5 90q0 110 44.5 163.5t109.5 53.5q58 0 103 -40l29 189h22zM233 -75l26 196q-50 41 -100 41q-67 0 -98.5 -55t-31.5 -138q0 -101 81 -101q25 0 49 9t38 19.5t36 28.5z" />
    <glyph glyph-name="e.sinf" horiz-adv-x="338" 
d="M120 -154q-116 0 -116 143q0 77 43 135.5t122 58.5q43 0 68 -22.5t25 -56.5q0 -63 -63 -88.5t-174 -28.5q1 -55 21 -88.5t77 -33.5q40 0 67.5 21.5t38.5 52.5l18 -5q-14 -45 -48.5 -66.5t-78.5 -21.5zM165 164q-62 0 -98 -44.5t-42 -114.5q216 2 216 99q0 28 -20 44
t-56 16z" />
    <glyph glyph-name="f.sinf" horiz-adv-x="196" 
d="M207 328l-3 -20q-25 7 -44 7q-59 0 -67 -68l-10 -72h96l-4 -21h-95l-62 -448h-22l62 448h-52l3 21h52l9 67q11 95 93 95q24 0 44 -9z" />
    <glyph glyph-name="g.sinf" horiz-adv-x="363" 
d="M144 160q-44 0 -74 -31t-40.5 -70.5t-10.5 -83.5q0 -101 78 -101q60 0 127 64l25 181q-41 41 -105 41zM210 -166l11 78q-57 -59 -127 -59q-45 0 -72 30t-27 94q0 36 8 70.5t25 66t48.5 50.5t72.5 19q51 0 105 -41l7 33h17l-48 -354q-17 -112 -141 -112q-106 0 -115 93
l21 4q5 -38 26 -57.5t69 -19.5q105 0 120 105z" />
    <glyph glyph-name="h.sinf" horiz-adv-x="385" 
d="M64 98l-35 -245h-21l67 479h21l-30 -211q72 62 141 62q46 0 65 -28.5t13 -75.5l-32 -226h-21l31 219q12 89 -62 89q-52 0 -137 -63z" />
    <glyph glyph-name="i.sinf" horiz-adv-x="159" 
d="M72 175l-47 -322h-22l45 322h24zM98 298q0 -30 -28 -30q-18 0 -18 21q0 30 26 30q20 0 20 -21z" />
    <glyph glyph-name="j.sinf" horiz-adv-x="162" 
d="M-5 -207l53 382h24l-54 -386q-11 -77 -80 -77q-26 0 -47 8l6 22q18 -7 41 -7q26 0 39.5 13t17.5 45zM98 298q0 -30 -28 -30q-18 0 -18 21q0 30 26 30q20 0 20 -21z" />
    <glyph glyph-name="k.sinf" horiz-adv-x="330" 
d="M237 -147h-25l-88 192l-78 -66l-17 -126h-23l68 479h22l-47 -326l199 169h28l-134 -116z" />
    <glyph glyph-name="l.sinf" horiz-adv-x="159" 
d="M3 -147l66 479h22l-66 -479h-22z" />
    <glyph glyph-name="m.sinf" horiz-adv-x="575" 
d="M200 183q65 0 71 -59q77 59 136 59q48 0 61.5 -29.5t6.5 -81.5l-31 -219h-23l30 216q2 21 3.5 41.5t-10 36t-38.5 15.5q-49 0 -133 -59l-33 -250h-24l30 216q14 93 -48 93q-51 0 -135 -61l-33 -248h-25l45 322h23l-7 -50q73 58 134 58z" />
    <glyph glyph-name="n.sinf" horiz-adv-x="386" 
d="M65 100l-35 -247h-24l45 322h22l-6 -49q76 57 143 57q92 0 75 -115l-30 -215h-24l30 224q11 83 -55 83q-58 0 -141 -60z" />
    <glyph glyph-name="o.sinf" horiz-adv-x="379" 
d="M122 -154q-60 0 -89.5 36.5t-29.5 99.5q0 82 42 141.5t127 59.5q118 0 118 -136q0 -80 -41.5 -140.5t-126.5 -60.5zM126 -132q71 0 105 51.5t34 127.5q0 115 -97 115q-71 0 -105.5 -50.5t-34.5 -128.5q0 -115 98 -115z" />
    <glyph glyph-name="p.sinf" horiz-adv-x="385" 
d="M69 175l-8 -53q80 61 137 61q94 0 94 -121q0 -106 -44.5 -161t-109.5 -55q-59 0 -108 45l-24 -172h-23l64 456h22zM266 63q0 51 -17 73.5t-52 22.5q-33 0 -72.5 -21t-64.5 -43l-25 -180q51 -45 101 -45q37 0 64 16.5t40.5 45.5t19.5 61t6 70z" />
    <glyph glyph-name="q.sinf" horiz-adv-x="376" 
d="M160 183q53 0 102 -43l4 35h24l-64 -456h-22l26 179q-63 -52 -124 -52q-46 0 -73.5 30.5t-27.5 88.5q0 111 44.5 164.5t110.5 53.5zM30 -30q0 -52 18.5 -76.5t59.5 -24.5q63 0 124 59l26 189q-46 43 -97 43q-66 0 -98.5 -54t-32.5 -136z" />
    <glyph glyph-name="r.sinf" horiz-adv-x="230" 
d="M64 95l-35 -242h-23l44 322h23l-7 -55q33 36 57.5 49.5t54.5 13.5h7l-3 -29q-52 4 -118 -59z" />
    <glyph glyph-name="s.sinf" horiz-adv-x="317" 
d="M134 184q52 0 76.5 -27t25.5 -70l-19 -3q-6 80 -82 80q-46 0 -66.5 -20.5t-20.5 -49.5q0 -21 12.5 -35.5t26.5 -20t39 -12.5q23 -6 34.5 -10t28 -13.5t23.5 -24.5t7 -36q0 -45 -29.5 -70.5t-82.5 -25.5q-106 0 -114 97l20 4q10 -81 93 -81q91 0 91 74q0 21 -12.5 35.5
t-26.5 20t-39 12.5q-23 6 -34.5 10t-28 13.5t-23.5 24.5t-7 36q0 45 31.5 68.5t76.5 23.5z" />
    <glyph glyph-name="t.sinf" horiz-adv-x="243" 
d="M155 -119l3 -20q-32 -15 -64 -15q-83 0 -72 79l33 230h-53l3 20h52l14 95l24 3l-15 -98h95l-3 -20h-94l-32 -220q-5 -35 5 -51t44 -16q30 0 60 13z" />
    <glyph glyph-name="u.sinf" horiz-adv-x="386" 
d="M227 -69l34 244h23l-45 -322h-21l7 51q-67 -58 -134 -58q-56 0 -72.5 31t-9.5 86l28 212h24l-27 -201l-4 -46t13.5 -40.5t49.5 -17.5q59 0 134 61z" />
    <glyph glyph-name="v.sinf" horiz-adv-x="314" 
d="M104 -147h-27l-77 322h25l67 -303l151 303h25z" />
    <glyph glyph-name="w.sinf" horiz-adv-x="468" 
d="M80 -147h-28l-54 322h22l48 -303l124 303h32l40 -302l132 302h21l-139 -322h-32l-40 299h-2z" />
    <glyph glyph-name="x.sinf" horiz-adv-x="294" 
d="M199 -147h-22l-81 151l-113 -151h-25l127 169l-82 153h23l73 -140l107 140h26l-123 -155z" />
    <glyph glyph-name="y.sinf" horiz-adv-x="299" 
d="M65 -147l-64 322h23l57 -293l143 293h23l-192 -389q-18 -37 -38.5 -55.5t-52.5 -18.5q-24 0 -44 9l6 20q20 -8 38 -8q25 0 42 15.5t38 59.5z" />
    <glyph glyph-name="z.sinf" horiz-adv-x="299" 
d="M203 -147h-234l3 17l237 285h-197l3 20h226l-2 -16l-239 -286h206z" />
    <glyph glyph-name="zero.num" horiz-adv-x="373" 
d="M182 274q-115 0 -115 138q0 32 7 83q33 231 179 231q62 0 86.5 -37t24.5 -102q0 -41 -6 -83q-29 -230 -176 -230zM187 299q116 0 145 201q7 54 7 83q0 58 -21 88t-69 30q-68 0 -101.5 -55.5t-48.5 -153.5q-6 -42 -6 -74q0 -60 22.5 -89.5t71.5 -29.5z" />
    <glyph glyph-name="one.num" horiz-adv-x="266" 
d="M164 279h-25l55 392q-19 -13 -51 -21t-53 -8v21q44 4 70 15.5t52 37.5h13z" />
    <glyph glyph-name="two.num" horiz-adv-x="336" 
d="M221 726q99 0 99 -96q0 -52 -32 -99t-101 -113l-119 -114h212l-3 -22h-242l3 24l123 119q55 54 77.5 78.5t39 57.5t16.5 70q0 38 -19 54.5t-58 16.5q-50 0 -73 -24t-36 -65l-24 7q34 106 137 106z" />
    <glyph glyph-name="three.num" horiz-adv-x="364" 
d="M52 375l25 5q5 -83 83 -83q50 0 88.5 30.5t38.5 92.5q0 47 -27 64t-78 17h-37l3 23h28q56 0 95.5 30t39.5 79q0 70 -79 70q-47 0 -72.5 -18.5t-38.5 -57.5l-23 5q29 94 136 94q51 0 77 -24t26 -67q0 -45 -29 -76t-75 -43v-2q81 -16 81 -92q0 -65 -43 -106.5t-113 -41.5
q-51 0 -78 27t-28 74z" />
    <glyph glyph-name="four.num" horiz-adv-x="337" 
d="M259 281h-25l16 116h-209l3 20l241 301h35l-42 -298h56l-3 -23h-56zM75 420h178l38 271z" />
    <glyph glyph-name="five.num" horiz-adv-x="356" 
d="M91 501l48 216h199l-4 -23h-174l-40 -173q41 36 101 36q43 0 74 -25t31 -85q0 -71 -45 -122t-122 -51q-50 0 -79 25.5t-32 72.5l26 8q4 -36 22 -59.5t65 -23.5q52 0 95.5 35t43.5 113q0 87 -86 87q-54 0 -103 -42z" />
    <glyph glyph-name="six.num" horiz-adv-x="364" 
d="M364 637l-25 -6q-6 41 -23.5 55.5t-49.5 14.5q-38 0 -68 -23t-47.5 -60t-27 -69t-14.5 -65q24 25 59.5 43.5t71.5 18.5q52 0 77 -27t25 -73q0 -73 -42.5 -122.5t-111.5 -49.5q-111 0 -111 143q0 16 2.5 43.5t14.5 76.5t31 89t58 70t90 30q39 0 63 -22t28 -67zM106 454
q-2 -28 -2 -40q0 -56 19.5 -86t68.5 -30q51 0 87.5 34t36.5 112t-75 78q-72 0 -135 -68z" />
    <glyph glyph-name="seven.num" horiz-adv-x="314" 
d="M92 281h-29l252 414h-241l3 23h272l-3 -20z" />
    <glyph glyph-name="eight.num" horiz-adv-x="322" 
d="M221 504q45 -20 65.5 -43t20.5 -57q0 -57 -42.5 -93.5t-108.5 -36.5q-60 0 -90 25t-30 67q0 49 35 85t87 52q-73 33 -73 98q0 57 40.5 91t102.5 34q50 0 78.5 -21.5t28.5 -61.5q0 -88 -114 -139zM189 493q-125 -35 -125 -122q0 -73 96 -73q60 0 89.5 30.5t29.5 71.5
q0 21 -7.5 36.5t-24.5 27t-27 16.5t-31 13zM191 512q117 46 117 128q0 29 -22.5 45.5t-64.5 16.5q-49 0 -79 -27t-30 -72q0 -33 20.5 -53t58.5 -38z" />
    <glyph glyph-name="nine.num" horiz-adv-x="371" 
d="M60 367l26 6q4 -74 78 -74q46 0 78.5 24.5t56.5 91.5q11 29 21 92q-22 -25 -59 -43t-74 -18q-51 0 -75.5 29.5t-24.5 75.5q0 82 44.5 128.5t109.5 46.5q59 0 84 -39.5t25 -114.5q0 -42 -7.5 -86.5t-26 -95.5t-57.5 -83.5t-94 -32.5q-46 0 -73.5 24t-31.5 69zM321 536
q2 30 2 44q0 123 -88 123q-48 0 -84 -37.5t-36 -112.5q0 -83 76 -83q66 0 130 66z" />
    <glyph glyph-name="parenleft.ordn" horiz-adv-x="202" 
d="M162 208h-25q-54 108 -54 207q0 151 133 321h27q-134 -175 -134 -322q0 -100 53 -206z" />
    <glyph glyph-name="parenright.ordn" horiz-adv-x="202" 
d="M95 736h25q54 -108 54 -207q0 -151 -133 -321h-27q134 175 134 322q0 100 -53 206z" />
    <glyph glyph-name="hyphen.ordn" horiz-adv-x="226" 
d="M210 452h-165l5 31h165z" />
    <glyph glyph-name="comma.ordn" horiz-adv-x="162" 
d="M47 208l48 120h35l-63 -124z" />
    <glyph glyph-name="period.ordn" horiz-adv-x="168" 
d="M127 305q-5 -29 -35 -29q-29 0 -24 29q3 28 33 28q29 0 26 -28z" />
    <glyph glyph-name="minus.ordn" horiz-adv-x="305" 
d="M293 472h-223l4 26h223z" />
    <glyph glyph-name="plus.ordn" horiz-adv-x="305" 
d="M178 372h-26l12 94h-92l4 26h92l12 93h26l-12 -93h95l-4 -26h-95z" />
    <glyph glyph-name="equal.ordn" horiz-adv-x="305" 
d="M277 410h-223l4 26h223zM290 502h-223l4 26h223z" />
    <glyph glyph-name="a.ordn" horiz-adv-x="376" 
d="M346 603l-37 -271q-6 -37 20 -37q9 0 19 4l-3 -19q-8 -4 -22 -4q-44 0 -35 56q-64 -58 -125 -58q-99 0 -99 127q0 34 7.5 68t23.5 67.5t47.5 54t74.5 20.5q56 0 104 -42l9 34h16zM289 357l26 192q-42 40 -100 40q-46 0 -76 -32.5t-40.5 -72.5t-10.5 -84q0 -103 80 -103
q31 0 57.5 13t63.5 47z" />
    <glyph glyph-name="b.ordn" horiz-adv-x="385" 
d="M86 281h-20l67 479h23l-30 -208l43 29t40.5 19.5t51.5 10.5q93 0 93 -120q0 -108 -43 -162.5t-106 -54.5q-57 0 -112 42zM122 527l-25 -187q52 -42 106 -42q46 0 75.5 30.5t40 71.5t10.5 92t-18 73.5t-54 22.5q-58 0 -135 -61z" />
    <glyph glyph-name="c.ordn" horiz-adv-x="352" 
d="M182 274q-119 0 -119 139q0 92 47 145t119 53q54 0 80 -32t21 -85l-22 -3q1 48 -17 74t-65 26q-56 0 -98 -43t-42 -138q0 -115 97 -115q82 0 107 80l21 -7q-25 -94 -129 -94z" />
    <glyph glyph-name="d.ordn" horiz-adv-x="375" 
d="M305 281h-20l6 45q-65 -52 -123 -52q-48 0 -75.5 30t-27.5 90q0 110 44.5 163.5t109.5 53.5q58 0 103 -40l29 189h22zM293 353l26 196q-50 41 -100 41q-67 0 -98.5 -55t-31.5 -138q0 -101 81 -101q25 0 49 9t38 19.5t36 28.5z" />
    <glyph glyph-name="e.ordn" horiz-adv-x="338" 
d="M180 274q-116 0 -116 143q0 77 43 135.5t122 58.5q43 0 68 -22.5t25 -56.5q0 -63 -63 -88.5t-174 -28.5q1 -55 21 -88.5t77 -33.5q40 0 67.5 21.5t38.5 52.5l18 -5q-14 -45 -48.5 -66.5t-78.5 -21.5zM225 592q-62 0 -98 -44.5t-42 -114.5q216 2 216 99q0 28 -20 44
t-56 16z" />
    <glyph glyph-name="f.ordn" horiz-adv-x="196" 
d="M267 756l-3 -20q-24 7 -44 7q-59 0 -67 -68l-10 -72h96l-4 -21h-95l-62 -448h-22l62 448h-52l3 21h52l9 67q11 95 93 95q24 0 44 -9z" />
    <glyph glyph-name="g.ordn" horiz-adv-x="363" 
d="M204 588q-44 0 -74 -31t-40.5 -70.5t-10.5 -83.5q0 -101 78 -101q60 0 127 64l25 181q-41 41 -105 41zM270 262l11 78q-57 -59 -127 -59q-45 0 -72 30t-27 94q0 36 8 70.5t25 66t48.5 50.5t72.5 19q51 0 105 -41l7 33h17l-48 -354q-17 -112 -141 -112q-106 0 -115 93
l21 4q5 -38 26 -57.5t69 -19.5q105 0 120 105z" />
    <glyph glyph-name="h.ordn" horiz-adv-x="385" 
d="M124 526l-35 -245h-21l67 479h21l-30 -211q72 62 141 62q46 0 65 -28.5t13 -75.5l-32 -226h-21l31 219q12 89 -62 89q-52 0 -137 -63z" />
    <glyph glyph-name="i.ordn" horiz-adv-x="159" 
d="M132 603l-47 -322h-22l45 322h24zM158 726q0 -30 -28 -30q-18 0 -18 21q0 30 26 30q20 0 20 -21z" />
    <glyph glyph-name="j.ordn" horiz-adv-x="162" 
d="M55 221l53 382h24l-54 -386q-11 -77 -80 -77q-26 0 -47 8l6 22q18 -7 41 -7q26 0 39.5 13t17.5 45zM158 726q0 -30 -28 -30q-18 0 -18 21q0 30 26 30q20 0 20 -21z" />
    <glyph glyph-name="k.ordn" horiz-adv-x="330" 
d="M297 281h-25l-88 192l-78 -66l-17 -126h-23l68 479h22l-47 -326l199 169h28l-134 -116z" />
    <glyph glyph-name="l.ordn" horiz-adv-x="159" 
d="M63 281l66 479h22l-66 -479h-22z" />
    <glyph glyph-name="m.ordn" horiz-adv-x="575" 
d="M260 611q65 0 71 -59q77 59 136 59q48 0 61.5 -29.5t6.5 -81.5l-31 -219h-23l30 216q2 21 3.5 41.5t-10 36t-38.5 15.5q-49 0 -133 -59l-33 -250h-24l30 216q14 93 -48 93q-51 0 -135 -61l-33 -248h-25l45 322h23l-7 -50q73 58 134 58z" />
    <glyph glyph-name="n.ordn" horiz-adv-x="386" 
d="M125 528l-35 -247h-24l45 322h22l-6 -49q76 57 143 57q92 0 75 -115l-30 -215h-24l30 224q11 83 -55 83q-58 0 -141 -60z" />
    <glyph glyph-name="o.ordn" horiz-adv-x="379" 
d="M182 274q-60 0 -89.5 36.5t-29.5 99.5q0 82 42 141.5t127 59.5q118 0 118 -136q0 -80 -41.5 -140.5t-126.5 -60.5zM186 296q71 0 105 51.5t34 127.5q0 115 -97 115q-71 0 -105.5 -50.5t-34.5 -128.5q0 -115 98 -115z" />
    <glyph glyph-name="p.ordn" horiz-adv-x="385" 
d="M129 603l-8 -53q80 61 137 61q94 0 94 -121q0 -106 -44.5 -161t-109.5 -55q-59 0 -108 45l-24 -172h-23l64 456h22zM326 491q0 51 -17 73.5t-52 22.5q-33 0 -72.5 -21t-64.5 -43l-25 -180q51 -45 101 -45q37 0 64 16.5t40.5 45.5t19.5 61t6 70z" />
    <glyph glyph-name="q.ordn" horiz-adv-x="376" 
d="M220 611q53 0 102 -43l4 35h24l-64 -456h-22l26 179q-63 -52 -124 -52q-46 0 -73.5 30.5t-27.5 88.5q0 111 44.5 164.5t110.5 53.5zM90 398q0 -52 18.5 -76.5t59.5 -24.5q63 0 124 59l26 189q-46 43 -97 43q-66 0 -98.5 -54t-32.5 -136z" />
    <glyph glyph-name="r.ordn" horiz-adv-x="230" 
d="M124 523l-35 -242h-23l44 322h23l-7 -55q33 36 57.5 49.5t54.5 13.5h7l-3 -29q-52 4 -118 -59z" />
    <glyph glyph-name="s.ordn" horiz-adv-x="317" 
d="M194 612q52 0 76.5 -27t25.5 -70l-19 -3q-6 80 -82 80q-46 0 -66.5 -20.5t-20.5 -49.5q0 -21 12.5 -35.5t26.5 -20t39 -12.5q23 -6 34.5 -10t28 -13.5t23.5 -24.5t7 -36q0 -45 -29.5 -70.5t-82.5 -25.5q-106 0 -114 97l20 4q10 -81 93 -81q91 0 91 74q0 21 -12.5 35.5
t-26.5 20t-39 12.5q-23 6 -34.5 10t-28 13.5t-23.5 24.5t-7 36q0 45 31.5 68.5t76.5 23.5z" />
    <glyph glyph-name="t.ordn" horiz-adv-x="243" 
d="M215 309l3 -20q-32 -15 -64 -15q-83 0 -72 79l33 230h-53l3 20h52l14 95l24 3l-15 -98h95l-3 -20h-94l-32 -220q-5 -35 5 -51t44 -16q30 0 60 13z" />
    <glyph glyph-name="u.ordn" horiz-adv-x="386" 
d="M287 359l34 244h23l-45 -322h-21l7 51q-67 -58 -134 -58q-56 0 -72.5 31t-9.5 86l28 212h24l-27 -201l-4 -46t13.5 -40.5t49.5 -17.5q59 0 134 61z" />
    <glyph glyph-name="v.ordn" horiz-adv-x="314" 
d="M164 281h-27l-77 322h25l67 -303l151 303h25z" />
    <glyph glyph-name="w.ordn" horiz-adv-x="468" 
d="M140 281h-28l-54 322h22l48 -303l124 303h32l40 -302l132 302h21l-139 -322h-32l-40 299h-2z" />
    <glyph glyph-name="x.ordn" horiz-adv-x="294" 
d="M259 281h-22l-81 151l-113 -151h-25l127 169l-82 153h23l73 -140l107 140h26l-123 -155z" />
    <glyph glyph-name="y.ordn" horiz-adv-x="299" 
d="M125 281l-64 322h23l57 -293l143 293h23l-192 -389q-18 -37 -38.5 -55.5t-52.5 -18.5q-24 0 -44 9l6 20q20 -8 38 -8q25 0 42 15.5t38 59.5z" />
    <glyph glyph-name="z.ordn" horiz-adv-x="299" 
d="M263 281h-234l3 17l237 285h-197l3 20h226l-2 -16l-239 -286h206z" />
    <glyph glyph-name="zero.denom" horiz-adv-x="373" 
d="M143 -7q-115 0 -115 138q0 32 7 83q33 231 179 231q62 0 86.5 -37t24.5 -102q0 -41 -6 -83q-29 -230 -176 -230zM148 18q116 0 145 201q7 54 7 83q0 58 -21 88t-69 30q-68 0 -101.5 -55.5t-48.5 -153.5q-6 -42 -6 -74q0 -60 22.5 -89.5t71.5 -29.5z" />
    <glyph glyph-name="one.denom" horiz-adv-x="266" 
d="M125 -2h-25l55 392q-19 -13 -51 -21t-53 -8v21q44 4 70 15.5t52 37.5h13z" />
    <glyph glyph-name="two.denom" horiz-adv-x="336" 
d="M184 444q99 0 99 -96q0 -52 -32 -99t-101 -113l-119 -114h212l-3 -22h-242l3 24l123 119q55 54 77.5 78.5t39 57.5t16.5 70q0 38 -19 54.5t-58 16.5q-50 0 -73 -24t-36 -65l-24 7q34 106 137 106z" />
    <glyph glyph-name="three.denom" horiz-adv-x="364" 
d="M16 94l25 5q5 -83 83 -83q50 0 88.5 30.5t38.5 92.5q0 47 -27 64t-78 17h-37l3 23h28q56 0 95.5 30t39.5 79q0 70 -79 70q-47 0 -72.5 -18.5t-38.5 -57.5l-23 5q29 94 136 94q51 0 77 -24t26 -67q0 -45 -29 -76t-75 -43v-2q81 -16 81 -92q0 -65 -43 -106.5t-113 -41.5
q-51 0 -78 27t-28 74z" />
    <glyph glyph-name="four.denom" horiz-adv-x="337" 
d="M218 0h-25l16 116h-209l3 20l241 301h35l-42 -298h56l-3 -23h-56zM34 139h178l38 271z" />
    <glyph glyph-name="five.denom" horiz-adv-x="356" 
d="M54 220l48 216h199l-4 -23h-174l-40 -173q41 36 101 36q43 0 74 -25t31 -85q0 -71 -45 -122t-122 -51q-50 0 -79 25.5t-32 72.5l26 8q4 -36 22 -59.5t65 -23.5q52 0 95.5 35t43.5 113q0 87 -86 87q-54 0 -103 -42z" />
    <glyph glyph-name="six.denom" horiz-adv-x="364" 
d="M319 356l-25 -6q-6 41 -23.5 55.5t-49.5 14.5q-38 0 -68 -23t-47.5 -60t-27 -69t-14.5 -65q24 25 59.5 43.5t71.5 18.5q52 0 77 -27t25 -73q0 -73 -42.5 -122.5t-111.5 -49.5q-111 0 -111 143q0 16 2.5 43.5t14.5 76.5t31 89t58 70t90 30q39 0 63 -22t28 -67zM61 173
q-2 -28 -2 -40q0 -56 19.5 -86t68.5 -30q51 0 87.5 34t36.5 112t-75 78q-72 0 -135 -68z" />
    <glyph glyph-name="seven.denom" horiz-adv-x="314" 
d="M45 0h-29l252 414h-241l3 23h272l-3 -20z" />
    <glyph glyph-name="eight.denom" horiz-adv-x="322" 
d="M182 223q45 -20 65.5 -43t20.5 -57q0 -57 -42.5 -93.5t-108.5 -36.5q-60 0 -90 25t-30 67q0 49 35 85t87 52q-73 33 -73 98q0 57 40.5 91t102.5 34q50 0 78.5 -21.5t28.5 -61.5q0 -88 -114 -139zM150 212q-125 -35 -125 -122q0 -73 96 -73q60 0 89.5 30.5t29.5 71.5
q0 21 -7.5 36.5t-24.5 27t-27 16.5t-31 13zM152 231q117 46 117 128q0 29 -22.5 45.5t-64.5 16.5q-49 0 -79 -27t-30 -72q0 -33 20.5 -53t58.5 -38z" />
    <glyph glyph-name="nine.denom" horiz-adv-x="371" 
d="M23 86l26 6q4 -74 78 -74q46 0 78.5 24.5t56.5 91.5q11 29 21 92q-22 -25 -59 -43t-74 -18q-51 0 -75.5 29.5t-24.5 75.5q0 82 44.5 128.5t109.5 46.5q59 0 84 -39.5t25 -114.5q0 -42 -7.5 -86.5t-26 -95.5t-57.5 -83.5t-94 -32.5q-46 0 -73.5 24t-31.5 69zM284 255
q2 30 2 44q0 123 -88 123q-48 0 -84 -37.5t-36 -112.5q0 -83 76 -83q66 0 130 66z" />
    <glyph glyph-name="square" horiz-adv-x="610" 
d="M479 151h-349v349h349v-349z" />
    <glyph glyph-name="square.open" horiz-adv-x="610" 
d="M434 196v259h-259v-259h259zM479 151h-349v349h349v-349z" />
    <glyph glyph-name="circle.open" horiz-adv-x="610" 
d="M305 119q-85 0 -145 60t-60 145t60 145t145 60t145 -60t60 -145t-60 -145t-145 -60zM305 167q63 0 107 47.5t44 112.5q0 64 -43.5 108.5t-107.5 44.5t-107 -45.5t-43 -110.5t43 -111t107 -46z" />
    <glyph glyph-name="doublecircle" horiz-adv-x="610" 
d="M305 269q22 0 37.5 16.5t15.5 39.5t-15.5 38.5t-37.5 15.5t-37.5 -16.5t-15.5 -38.5q0 -23 15.5 -39t37.5 -16zM305 180q-59 0 -101.5 42.5t-42.5 101.5t42.5 101t101.5 42t101 -42t42 -101t-42 -101.5t-101 -42.5zM305 214q44 0 75 33.5t31 78.5t-31 76t-75 31
t-74.5 -32t-30.5 -77q0 -46 30 -78t75 -32z" />
    <glyph glyph-name="triangle.left" horiz-adv-x="425" 
d="M275 203l-185 117l185 114v-231z" />
    <glyph glyph-name="raute" horiz-adv-x="610" 
d="M514 325l-210 -209l-209 210l210 209z" />
    <glyph glyph-name="arrow.right" 
d="M56 263l5 24h399l-54 129h28l61 -142l-99 -138h-29l88 127h-399z" />
    <glyph glyph-name="arrow.left" 
d="M525 290l-5 -24h-397l53 -130h-28l-61 144l98 136h28l-88 -126h400z" />
    <glyph glyph-name="arrow.up" 
d="M270 56h-29l57 405l-140 -63l3 25l154 72l127 -80l-4 -23l-114 67z" />
    <glyph glyph-name="arrow.down" 
d="M308 495h28l-55 -402l134 63l-3 -26l-153 -74l-128 80l4 25l117 -68z" />
    <glyph glyph-name="arrow.leftup" 
d="M464 133l-18 -17l-280 286l-49 -134l-18 13l50 152l150 39l17 -17l-131 -37z" />
    <glyph glyph-name="arrow.rightup" 
d="M117 116l-19 18l275 279l-127 39l17 18l146 -40l57 -156l-20 -15l-55 138z" />
    <glyph glyph-name="arrowleft.down" 
d="M442 465l18 -18l-265 -271l133 -44l-17 -18l-150 45l-54 153l20 15l49 -133z" />
    <glyph glyph-name="arrowright.down" 
d="M115 454l19 17l279 -286l50 134l17 -13l-50 -151l-150 -41l-17 17l130 39z" />
    <glyph glyph-name="arrowright.alt" 
d="M100 397l234 -25l16 115l188 -214l-249 -218l17 116l-240 -21z" />
    <glyph glyph-name="arrowleft.alt" 
d="M270 372l240 25l-34 -247l-234 21l-17 -116l-187 218l248 214z" />
    <glyph glyph-name="arrowup.alt" 
d="M395 291l-8 -237h-247l54 237h-116l249 218l183 -218h-115z" />
    <glyph glyph-name="arrowdown.alt" 
d="M449 496l-58 -237h115l-245 -218l-187 218h116l12 237h247z" />
    <glyph glyph-name="arrowleftup.alt" 
d="M324 357l185 -150l-175 -175l-152 183l-82 -83v309l305 -3z" />
    <glyph glyph-name="arrowrightup.alt" 
d="M385 217l-150 -185l-175 175l183 152l-83 82h309l-3 -305z" />
    <glyph glyph-name="arrowleftdown.alt" 
d="M184 355l150 185l175 -175l-183 -152l83 -82h-309l3 305z" />
    <glyph glyph-name="arrowrightdown.alt" 
d="M255 215l-185 150l175 175l152 -183l82 83v-309l-305 3z" />
    <glyph glyph-name="arrowlong.left" horiz-adv-x="505" 
d="M561 380l-5 -26h-493l81 -155h-33l-91 168l136 164h34l-124 -151h495z" />
    <glyph glyph-name="arrowlong.right" horiz-adv-x="505" 
d="M7 352l5 26h491l-79 153h33l91 -168l-134 -164h-36l124 153h-495z" />
    <glyph glyph-name="arrowlong.up" horiz-adv-x="505" 
d="M269 96h-33l67 490l-163 -91l8 36l181 104l151 -113l-4 -30l-139 94z" />
    <glyph glyph-name="arrowlong.down" horiz-adv-x="505" 
d="M283 636h33l-67 -486l163 90l-9 -38l-180 -103l-152 113l4 35l139 -100z" />
    <glyph glyph-name="arrowlong.leftup" horiz-adv-x="505" 
d="M485 187l-22 -21l-342 347l-37 -177l-27 21l38 200l198 39l24 -24l-176 -34z" />
    <glyph glyph-name="arrowlong.leftdown" horiz-adv-x="505" 
d="M484 583l21 -21l-333 -337l184 -41l-23 -21l-203 42l-40 200l22 21l41 -180z" />
    <glyph glyph-name="arrowlong.rightup" horiz-adv-x="505" 
d="M94 173l-21 21l333 337l-184 41l23 21l203 -42l40 -200l-22 -21l-41 180z" />
    <glyph glyph-name="arrowlong.rightdown" horiz-adv-x="505" 
d="M59 570l21 22l344 -346l36 175l26 -20l-38 -199l-199 -36l-23 24l176 34z" />
    <glyph glyph-name="ornm1" horiz-adv-x="600" 
d="M550 500v-500h-500v500h500z" />
    <glyph glyph-name="ornm2" horiz-adv-x="500" 
d="M211 351l44 143l43 -143l147 32l-102 -108l102 -111l-147 33l-43 -144l-44 144l-148 -33l102 111l-102 108z" />
    <glyph glyph-name="ornm3" horiz-adv-x="500" 
d="M203 352l49 137l48 -137l144 -4l-116 -87l43 -140l-119 83l-120 -83l43 140l-116 87z" />
    <glyph glyph-name="ornm4" horiz-adv-x="500" 
d="M59 348l144 4l48 134v-283l-119 -82l43 140z" />
    <glyph glyph-name="ornm5" horiz-adv-x="500" 
d="M252 489l48 -137l144 -4l-116 -87l43 -140l-119 83v285z" />
    <glyph glyph-name="ornm6" horiz-adv-x="752" 
d="M291 195l298 334l113 -105l-390 -425l-262 204l95 114z" />
    <glyph glyph-name="ornm7" horiz-adv-x="634" 
d="M205 260l-155 144l105 113l155 -143l145 157l113 -105l-144 -158l160 -147l-106 -115l-159 148l-141 -154l-115 106z" />
    <glyph glyph-name="ornm8" horiz-adv-x="844" 
d="M50 377q0 97 65 163t163 66q102 0 166.5 -63t64.5 -164q0 -54 -21 -102l306 -199l-58 -92l-301 219q-62 -54 -157 -54q-101 0 -164.5 62.5t-63.5 163.5zM132 377q0 -66 40.5 -108t105.5 -42t107 42.5t42 109.5t-42 109.5t-107 42.5q-64 0 -105 -43.5t-41 -110.5z" />
    <glyph glyph-name="ornm9" horiz-adv-x="818" 
d="M631 476h-127v115h-317v-285h-137v-243h102v-63h514v63h102v243h-137v170zM152 -111v65h514v-65h-514zM631 499h-102v92l7 5l100 -90z" />
    <glyph glyph-name="ornm10" horiz-adv-x="562" 
d="M148 489q0 60 37.5 97.5t95.5 37.5t96 -37.5t38 -97.5q0 -42 -19.5 -74t-52.5 -48v-4q90 -6 129.5 -47t39.5 -128v-188h-462v188q0 88 39.5 128.5t129.5 46.5v4q-71 35 -71 122z" />
    <glyph glyph-name="ornm11" horiz-adv-x="720" 
d="M122 210h-72v-210h620v210h-73v-142h-475v142zM261 382l-25 237h247l-21 -237h116l-218 -218l-214 218h115z" />
    <glyph glyph-name="ornm12" horiz-adv-x="571" 
d="M50 0v615h113v-299q0 -82 15 -117t57 -35t56 34.5t14 117.5v161h-45v-161q0 -68 -4 -90.5t-21 -22.5q-19 0 -23.5 23t-4.5 90v299h314v-615h-471z" />
    <glyph glyph-name="ornm13" horiz-adv-x="774" 
d="M468 -80h-157v8q0 46 -32.5 79t-79.5 33q-38 0 -66 -22l-82 143q39 18 53.5 60t-0.5 83.5t-54 59.5l83 141q29 -21 66 -21q47 0 79.5 32.5t32.5 78.5v11h158q0 -2 -0.5 -5.5t-0.5 -5.5q0 -47 32 -79t79 -32q36 0 65 21l80 -138q-32 -12 -51.5 -40.5t-19.5 -64.5t19.5 -64
t51.5 -40l-80 -138q-28 20 -65 20q-46 0 -78.5 -32.5t-32.5 -79.5v-8zM239 268q0 -66 41.5 -107.5t105.5 -41.5t106 41.5t42 107.5t-42 107.5t-106 41.5t-105.5 -41.5t-41.5 -107.5z" />
    <glyph glyph-name="ornm14" horiz-adv-x="541" 
d="M491 0h-441v406h54q0 140 34.5 199.5t132.5 59.5q100 0 133 -56.5t33 -202.5h54v-406zM271 598q-57 0 -75.5 -38.5t-18.5 -153.5h188q0 115 -18 153.5t-76 38.5zM246 205l-15 -96h80l-16 96q25 12 25 38q0 23 -13.5 35.5t-35.5 12.5t-35.5 -12.5t-13.5 -35.5
q0 -25 24 -38z" />
    <glyph glyph-name="ornm15" horiz-adv-x="729" 
d="M245 205l-14 -96h79l-15 96q25 12 25 38q0 23 -14 35.5t-36 12.5q-21 0 -34.5 -12.5t-13.5 -35.5q0 -25 23 -38zM679 424h-73q0 102 -18 138t-75 36q-58 0 -76 -38.5t-18 -153.5h72v-406h-441v406h296q0 140 34.5 199.5t132.5 59.5q100 0 133 -54t33 -187z" />
    <glyph glyph-name="ornm16" horiz-adv-x="846" 
d="M50 429l371 -320l375 318v-427h-746v429zM421 176l-350 302h704z" />
    <glyph glyph-name="ornm17" horiz-adv-x="846" 
d="M796 601v-89h-255l30 89h225zM50 478h746v-478h-746v478z" />
    <glyph glyph-name="ornm18" horiz-adv-x="785" 
d="M283 -50l-2 7q104 40 102 136q-56 1 -113 18t-107 49t-81.5 83.5t-31.5 113.5q0 63 32 115t83.5 84t111 49t119.5 17q133 1 236 -75.5t103 -190.5q0 -156 -193 -237q-56 -169 -259 -169z" />
    <glyph glyph-name="ornm19" horiz-adv-x="706" 
d="M50 68q0 37 22.5 58.5t57.5 21.5q36 0 58 -22t22 -58q0 -37 -22 -58.5t-58 -21.5q-35 0 -57.5 22t-22.5 58zM435 0h-107q0 113 -76 186.5t-186 73.5v104q156 0 262.5 -103t106.5 -261zM656 0h-110q0 136 -64 246t-173.5 171t-242.5 61v104q162 0 297 -74t214 -208
t79 -300z" />
    <glyph glyph-name="ornm20" horiz-adv-x="785" 
d="M376 0v183h-101v-183h-103v283h-122l345 355l123 -129v103h101v-208l116 -121h-114v-283h-245z" />
    <glyph glyph-name="j.calt" horiz-adv-x="226" 
d="M48 -107l86 612h28l-85 -605q-9 -67 -34.5 -95t-82.5 -28q-27 0 -46 7l5 24q22 -6 44 -6q38 0 58 21t27 70zM200 683q0 -18 -10.5 -28t-26.5 -10q-29 0 -29 27q0 38 38 38q28 0 28 -27z" />
    <glyph glyph-name="jcircumflex.calt" horiz-adv-x="226" 
d="M49 -107l86 612h28l-85 -605q-9 -67 -34.5 -95t-82.5 -28q-27 0 -46 7l5 24q22 -6 44 -6q38 0 58 21t27 70zM303 583l-27 -4l-90 146l-123 -146l-27 6l138 165h27z" />
    <glyph glyph-name="a.sc" horiz-adv-x="475" 
d="M252 548h36l105 -548h-27l-37 197h-213l-90 -197h-26zM325 221l-57 307l-141 -307h198z" />
    <glyph glyph-name="b.sc" horiz-adv-x="470" 
d="M195 0h-141l74 548h149q81 0 114 -29t33 -82q0 -64 -36.5 -103.5t-91.5 -50.5v-2q107 -17 107 -115q0 -90 -54.5 -128t-153.5 -38zM82 25h107q95 0 142 28t47 111q0 34 -13.5 56t-40.5 31.5t-54.5 13t-68.5 3.5h-86zM119 293h103q22 0 44 3.5t46 13.5t42 25.5t30 41.5
t12 59q0 56 -36 72t-127 16h-83z" />
    <glyph glyph-name="c.sc" horiz-adv-x="513" 
d="M422 145l20 -5q-27 -78 -81.5 -113.5t-124.5 -35.5q-193 0 -193 219q0 159 78 252t197 93q79 0 123.5 -46.5t40.5 -131.5l-21 -2q3 70 -33 113.5t-112 43.5q-109 0 -178.5 -85t-69.5 -234q0 -107 43 -152.5t128 -45.5q69 0 113 31t70 99z" />
    <glyph glyph-name="d.sc" horiz-adv-x="549" 
d="M182 0h-128l74 548h139q115 0 170.5 -57t55.5 -161q0 -150 -77.5 -240t-233.5 -90zM82 24h106q132 0 206.5 81.5t74.5 228.5q0 102 -53 146t-155 44h-111z" />
    <glyph glyph-name="e.sc" horiz-adv-x="427" 
d="M339 0h-285l74 548h279l-3 -24h-254l-31 -231h237l-3 -25h-238l-33 -244h261z" />
    <glyph glyph-name="f.sc" horiz-adv-x="409" 
d="M114 257l-35 -257h-25l74 548h278l-3 -24h-253l-33 -242h237l-3 -25h-237z" />
    <glyph glyph-name="g.sc" horiz-adv-x="541" 
d="M467 279l-37 -279h-16l6 83h-1q-56 -92 -182 -92q-194 0 -194 223q0 148 75 244.5t203 96.5q75 0 120 -45.5t41 -126.5l-21 -2q2 72 -36.5 111.5t-107.5 39.5q-113 0 -181 -86.5t-68 -231.5q0 -106 42.5 -152.5t130.5 -46.5q85 0 133.5 47t56.5 111l11 83h-168l3 23h190z
" />
    <glyph glyph-name="h.sc" horiz-adv-x="540" 
d="M481 548l-74 -548h-25l36 269h-304l-36 -269h-25l74 548h25l-34 -254h304l34 254h25z" />
    <glyph glyph-name="i.sc" horiz-adv-x="208" 
d="M79 0h-25l74 548h25z" />
    <glyph glyph-name="j.sc" horiz-adv-x="365" 
d="M237 121l58 427h25l-58 -429q-17 -128 -133 -128q-58 0 -86 27t-35 79l25 5q7 -42 28 -64.5t69 -22.5q93 0 107 106z" />
    <glyph glyph-name="k.sc" horiz-adv-x="457" 
d="M153 548l-40 -297l308 297h35l-249 -239l192 -309h-28l-181 292l-82 -76l-29 -216h-25l74 548h25z" />
    <glyph glyph-name="l.sc" horiz-adv-x="404" 
d="M324 0h-270l74 548h25l-70 -523h244z" />
    <glyph glyph-name="m.sc" horiz-adv-x="647" 
d="M588 548l-74 -548h-24l69 514l-261 -514h-29l-122 516l-70 -516h-24l74 548h37l123 -521l263 521h38z" />
    <glyph glyph-name="n.sc" horiz-adv-x="548" 
d="M415 0h-35l-231 527l-71 -527h-25l74 548h40l227 -520l70 520h25z" />
    <glyph glyph-name="o.sc" horiz-adv-x="575" 
d="M242 -9q-99 0 -149 62.5t-50 170.5q0 148 73 239.5t204 91.5q94 0 143 -60.5t49 -157.5q0 -163 -73 -254.5t-197 -91.5zM246 15q103 0 171.5 80t68.5 232q0 91 -41.5 147.5t-130.5 56.5q-106 0 -176 -78t-70 -229q0 -92 43 -150.5t135 -58.5z" />
    <glyph glyph-name="p.sc" horiz-adv-x="460" 
d="M109 219l-30 -219h-25l74 548h131q168 0 168 -136q0 -98 -58 -145.5t-161 -47.5h-99zM112 245h99q89 0 138.5 37t49.5 129q0 63 -36 88.5t-109 25.5h-104z" />
    <glyph glyph-name="q.sc" horiz-adv-x="566" 
d="M239 -9q-99 0 -149 62.5t-50 169.5q0 148 72.5 240t204.5 92q94 0 143 -60.5t49 -157.5q0 -132 -49 -218.5t-138 -115.5q61 -78 155 -101l-6 -22q-47 9 -99 45t-74 72q-25 -6 -59 -6zM243 15q104 0 172 80t68 232q0 91 -41.5 147.5t-130.5 56.5q-106 0 -176 -78.5
t-70 -229.5q0 -91 43 -149.5t135 -58.5z" />
    <glyph glyph-name="r.sc" horiz-adv-x="483" 
d="M298 251l104 -251h-24l-102 247h-160l-34 -247h-25l74 548h145q88 0 122 -34t34 -91q0 -139 -134 -172zM119 271h142q61 0 104 37t43 112q0 61 -34.5 83t-104.5 22h-116z" />
    <glyph glyph-name="s.sc" horiz-adv-x="435" 
d="M394 409l-23 -3q-2 126 -121 126q-76 0 -113.5 -35.5t-37.5 -91.5q0 -28 10.5 -49t32.5 -34t39 -19.5t45 -14.5q70 -21 102 -52t32 -83q0 -82 -52.5 -122t-133.5 -40q-150 0 -162 143l23 4q16 -123 139 -123q65 0 113 32.5t48 103.5q0 49 -29 73t-86 41
q-35 11 -53.5 18.5t-44 23t-37 39t-11.5 56.5q0 70 48.5 111.5t127.5 41.5q67 0 106 -35.5t38 -110.5z" />
    <glyph glyph-name="t.sc" horiz-adv-x="390" 
d="M168 0h-25l71 524h-162l3 24h347l-3 -24h-160z" />
    <glyph glyph-name="u.sc" horiz-adv-x="522" 
d="M473 548l-51 -377q-24 -180 -201 -180q-158 0 -158 139q0 19 3 40l51 378h25l-50 -371q-4 -24 -4 -42q0 -120 133 -120q77 0 120.5 36t55.5 120l51 377h25z" />
    <glyph glyph-name="v.sc" horiz-adv-x="437" 
d="M196 0h-35l-109 548h26l103 -526h1l236 526h27z" />
    <glyph glyph-name="w.sc" horiz-adv-x="647" 
d="M464 0h-44l-58 522h-2l-210 -522h-40l-50 548h26l47 -527h1l211 527h38l61 -527h1l175 527h27z" />
    <glyph glyph-name="x.sc" horiz-adv-x="451" 
d="M380 0h-25l-139 263l-199 -263h-32l218 284l-128 264h27l119 -247l186 247h32l-205 -269z" />
    <glyph glyph-name="y.sc" horiz-adv-x="392" 
d="M197 216l-29 -216h-22l29 215l-136 333h27l122 -307h1l192 307h30z" />
    <glyph glyph-name="z.sc" horiz-adv-x="429" 
d="M359 0h-358l3 20l381 505h-299l3 23h330l-3 -21l-381 -503h328z" />
    <glyph glyph-name="thorn.sc" horiz-adv-x="460" 
d="M97 132l-18 -132h-25l74 548h25l-13 -94h106q89 0 128.5 -36t39.5 -95q0 -191 -224 -191h-93zM100 158h103q183 0 183 158q0 59 -33 87t-115 28h-101z" />
    <glyph glyph-name="agrave.sc" horiz-adv-x="475" 
d="M252 548h36l105 -548h-27l-37 197h-213l-90 -197h-26zM325 221l-57 307l-141 -307h198zM197 786l95 -168l-19 -7l-115 175h39z" />
    <glyph glyph-name="aacute.sc" horiz-adv-x="475" 
d="M252 548h36l105 -548h-27l-37 197h-213l-90 -197h-26zM325 221l-57 307l-141 -307h198zM240 618l135 168h42l-157 -175z" />
    <glyph glyph-name="acircumflex.sc" horiz-adv-x="475" 
d="M252 548h36l105 -548h-27l-37 197h-213l-90 -197h-26zM325 221l-57 307l-141 -307h198zM413 618l-27 -4l-90 146l-123 -146l-27 6l138 165h27z" />
    <glyph glyph-name="atilde.sc" horiz-adv-x="475" 
d="M252 548h36l105 -548h-27l-37 197h-213l-90 -197h-26zM325 221l-57 307l-141 -307h198zM211 725q30 0 78.5 -27t68.5 -27q44 0 54 72l21 -2q-10 -93 -77 -93q-27 0 -77 27t-70 27q-43 0 -54 -72l-21 2q10 93 77 93z" />
    <glyph glyph-name="adieresis.sc" horiz-adv-x="475" 
d="M252 548h36l105 -548h-27l-37 197h-213l-90 -197h-26zM325 221l-57 307l-141 -307h198zM228 694q-4 -34 -30 -34q-29 0 -24 34q6 35 33 35t21 -35zM386 694q-4 -34 -30 -34q-29 0 -24 34q6 35 33 35t21 -35z" />
    <glyph glyph-name="aring.sc" horiz-adv-x="475" 
d="M375 642q0 -37 -23 -64.5t-64 -33.5l105 -544h-27l-37 197h-213l-90 -197h-26l250 544q-58 9 -58 70q0 47 31 73.5t73 26.5q79 0 79 -72zM325 221l-57 307l-141 -307h198zM275 562q35 0 55 22t20 59q0 51 -55 51q-35 0 -56.5 -21t-21.5 -58q0 -53 58 -53z" />
    <glyph glyph-name="aringacute.sc" horiz-adv-x="475" 
d="M375 642q0 -37 -23 -64.5t-64 -33.5l105 -544h-27l-37 197h-213l-90 -197h-26l250 544q-58 9 -58 70q0 47 31 73.5t73 26.5q79 0 79 -72zM325 221l-57 307l-141 -307h198zM275 562q35 0 55 22t20 59q0 51 -55 51q-35 0 -56.5 -21t-21.5 -58q0 -53 58 -53zM283 745
l123 131h44l-145 -138z" />
    <glyph glyph-name="amacron.sc" horiz-adv-x="475" 
d="M252 548h36l105 -548h-27l-37 197h-213l-90 -197h-26zM325 221l-57 307l-141 -307h198zM422 680h-270l3 27h270z" />
    <glyph glyph-name="abreve.sc" horiz-adv-x="475" 
d="M406 765l24 -4q-7 -60 -41.5 -103t-104.5 -43q-130 0 -113 144l26 4q-6 -66 15.5 -95.5t74.5 -29.5q50 0 78.5 30.5t40.5 96.5zM252 548h36l105 -548h-27l-37 197h-213l-90 -197h-26zM325 221l-57 307l-141 -307h198z" />
    <glyph glyph-name="aogonek.sc" horiz-adv-x="475" 
d="M403 -160l17 -11q-35 -47 -84 -47q-81 0 -81 73q0 84 110 151l-35 190h-215l-90 -196h-25l252 548h36l105 -548q-112 -69 -112 -145q0 -52 55 -52q36 0 67 37zM325 221l-57 307l-141 -307h198z" />
    <glyph glyph-name="ccedilla.sc" horiz-adv-x="513" 
d="M139 -185l12 20q25 -20 58 -20q30 0 48.5 18t18.5 49q0 54 -76 54l15 56q-172 11 -172 218q0 159 78 252t197 93q79 0 123.5 -46.5t40.5 -131.5l-21 -2q3 70 -33 113.5t-112 43.5q-109 0 -178.5 -85t-69.5 -234q0 -107 43 -152.5t128 -45.5q69 0 113 31t70 99l20 -5
q-51 -145 -202 -149l-9 -34q34 -4 53 -23.5t19 -48.5q0 -41 -26 -67.5t-69 -26.5q-48 0 -69 24z" />
    <glyph glyph-name="eth.sc" horiz-adv-x="549" 
d="M182 0h-128l36 269h-49l3 23h49l35 256h139q115 0 170.5 -57t55.5 -161q0 -150 -77.5 -240t-233.5 -90zM82 24h106q132 0 206.5 81.5t74.5 228.5q0 102 -53 146t-155 44h-111l-32 -232h187l-3 -23h-187z" />
    <glyph glyph-name="egrave.sc" horiz-adv-x="427" 
d="M215 791l95 -168l-19 -7l-115 175h39zM339 0h-285l74 548h279l-3 -24h-254l-31 -231h237l-3 -25h-238l-33 -244h261z" />
    <glyph glyph-name="eacute.sc" horiz-adv-x="427" 
d="M242 623l135 168h42l-157 -175zM339 0h-285l74 548h279l-3 -24h-254l-31 -231h237l-3 -25h-238l-33 -244h261z" />
    <glyph glyph-name="ecircumflex.sc" horiz-adv-x="427" 
d="M339 0h-285l74 548h279l-3 -24h-254l-31 -231h237l-3 -25h-238l-33 -244h261zM417 623l-27 -4l-90 146l-123 -146l-27 6l138 165h27z" />
    <glyph glyph-name="edieresis.sc" horiz-adv-x="427" 
d="M339 0h-285l74 548h279l-3 -24h-254l-31 -231h237l-3 -25h-238l-33 -244h261zM229 699q-4 -34 -30 -34q-29 0 -24 34q6 35 33 35t21 -35zM387 699q-4 -34 -30 -34q-29 0 -24 34q6 35 33 35t21 -35z" />
    <glyph glyph-name="igrave.sc" horiz-adv-x="208" 
d="M70 791l95 -168l-19 -7l-115 175h39zM79 0h-25l74 548h25z" />
    <glyph glyph-name="iacute.sc" horiz-adv-x="208" 
d="M138 623l135 168h42l-157 -175zM79 0h-25l74 548h25z" />
    <glyph glyph-name="icircumflex.sc" horiz-adv-x="208" 
d="M79 0h-25l74 548h25zM287 623l-27 -4l-90 146l-123 -146l-27 6l138 165h27z" />
    <glyph glyph-name="idieresis.sc" horiz-adv-x="208" 
d="M79 0h-25l74 548h25zM105 699q-4 -34 -30 -34q-29 0 -24 34q6 35 33 35t21 -35zM263 699q-4 -34 -30 -34q-29 0 -24 34q6 35 33 35t21 -35z" />
    <glyph glyph-name="ntilde.sc" horiz-adv-x="549" 
d="M255 730q30 0 78.5 -27t68.5 -27q44 0 54 72l21 -2q-10 -93 -77 -93q-27 0 -77 27t-70 27q-43 0 -54 -72l-21 2q10 93 77 93zM416 0h-35l-231 527l-71 -527h-25l74 548h40l227 -520l70 520h25z" />
    <glyph glyph-name="ograve.sc" horiz-adv-x="575" 
d="M271 791l95 -168l-19 -7l-115 175h39zM242 -9q-99 0 -149 62.5t-50 170.5q0 148 73 239.5t204 91.5q94 0 143 -60.5t49 -157.5q0 -163 -73 -254.5t-197 -91.5zM246 15q103 0 171.5 80t68.5 232q0 91 -41.5 147.5t-130.5 56.5q-106 0 -176 -78t-70 -229q0 -92 43 -150.5
t135 -58.5z" />
    <glyph glyph-name="oacute.sc" horiz-adv-x="575" 
d="M297 623l135 168h42l-157 -175zM242 -9q-99 0 -149 62.5t-50 170.5q0 148 73 239.5t204 91.5q94 0 143 -60.5t49 -157.5q0 -163 -73 -254.5t-197 -91.5zM246 15q103 0 171.5 80t68.5 232q0 91 -41.5 147.5t-130.5 56.5q-106 0 -176 -78t-70 -229q0 -92 43 -150.5
t135 -58.5z" />
    <glyph glyph-name="ocircumflex.sc" horiz-adv-x="575" 
d="M242 -9q-99 0 -149 62.5t-50 170.5q0 148 73 239.5t204 91.5q94 0 143 -60.5t49 -157.5q0 -163 -73 -254.5t-197 -91.5zM246 15q103 0 171.5 80t68.5 232q0 91 -41.5 147.5t-130.5 56.5q-106 0 -176 -78t-70 -229q0 -92 43 -150.5t135 -58.5zM462 623l-27 -4l-90 146
l-123 -146l-27 6l138 165h27z" />
    <glyph glyph-name="otilde.sc" horiz-adv-x="575" 
d="M258 730q30 0 78.5 -27t68.5 -27q44 0 54 72l21 -2q-10 -93 -77 -93q-27 0 -77 27t-70 27q-43 0 -54 -72l-21 2q10 93 77 93zM242 -9q-99 0 -149 62.5t-50 170.5q0 148 73 239.5t204 91.5q94 0 143 -60.5t49 -157.5q0 -163 -73 -254.5t-197 -91.5zM246 15q103 0 171.5 80
t68.5 232q0 91 -41.5 147.5t-130.5 56.5q-106 0 -176 -78t-70 -229q0 -92 43 -150.5t135 -58.5z" />
    <glyph glyph-name="odieresis.sc" horiz-adv-x="575" 
d="M242 -9q-99 0 -149 62.5t-50 170.5q0 148 73 239.5t204 91.5q94 0 143 -60.5t49 -157.5q0 -163 -73 -254.5t-197 -91.5zM246 15q103 0 171.5 80t68.5 232q0 91 -41.5 147.5t-130.5 56.5q-106 0 -176 -78t-70 -229q0 -92 43 -150.5t135 -58.5zM284 699q-4 -34 -30 -34
q-29 0 -24 34q6 35 33 35t21 -35zM442 699q-4 -34 -30 -34q-29 0 -24 34q6 35 33 35t21 -35z" />
    <glyph glyph-name="oslash.sc" horiz-adv-x="575" 
d="M242 -9q-66 0 -110 27l-52 -85h-28l61 100q-70 58 -70 191q0 148 73 239.5t204 91.5q55 0 98 -24l52 85h28l-60 -98q74 -56 74 -181q0 -163 -73 -254.5t-197 -91.5zM246 15q103 0 171.5 80t68.5 232q0 116 -62 168l-278 -454q42 -26 100 -26zM68 224q0 -113 59 -168
l277 453q-38 22 -90 22q-106 0 -176 -78t-70 -229z" />
    <glyph glyph-name="oslashacute.sc" horiz-adv-x="575" 
d="M287 623l135 168h42l-157 -175zM242 -9q-66 0 -110 27l-52 -85h-28l61 100q-70 58 -70 191q0 148 73 239.5t204 91.5q55 0 98 -24l52 85h28l-60 -98q74 -56 74 -181q0 -163 -73 -254.5t-197 -91.5zM246 15q103 0 171.5 80t68.5 232q0 116 -62 168l-278 -454
q42 -26 100 -26zM68 224q0 -113 59 -168l277 453q-38 22 -90 22q-106 0 -176 -78t-70 -229z" />
    <glyph glyph-name="ugrave.sc" horiz-adv-x="522" 
d="M242 791l95 -168l-19 -7l-115 175h39zM473 548l-51 -377q-24 -180 -201 -180q-158 0 -158 139q0 19 3 40l51 378h25l-50 -371q-4 -24 -4 -42q0 -120 133 -120q77 0 120.5 36t55.5 120l51 377h25z" />
    <glyph glyph-name="uacute.sc" horiz-adv-x="522" 
d="M286 623l135 168h42l-157 -175zM473 548l-51 -377q-24 -180 -201 -180q-158 0 -158 139q0 19 3 40l51 378h25l-50 -371q-4 -24 -4 -42q0 -120 133 -120q77 0 120.5 36t55.5 120l51 377h25z" />
    <glyph glyph-name="ucircumflex.sc" horiz-adv-x="522" 
d="M473 548l-51 -377q-24 -180 -201 -180q-158 0 -158 139q0 19 3 40l51 378h25l-50 -371q-4 -24 -4 -42q0 -120 133 -120q77 0 120.5 36t55.5 120l51 377h25zM442 623l-27 -4l-90 146l-123 -146l-27 6l138 165h27z" />
    <glyph glyph-name="udieresis.sc" horiz-adv-x="522" 
d="M473 548l-51 -377q-24 -180 -201 -180q-158 0 -158 139q0 19 3 40l51 378h25l-50 -371q-4 -24 -4 -42q0 -120 133 -120q77 0 120.5 36t55.5 120l51 377h25zM259 699q-4 -34 -30 -34q-29 0 -24 34q6 35 33 35t21 -35zM417 699q-4 -34 -30 -34q-29 0 -24 34q6 35 33 35
t21 -35z" />
    <glyph glyph-name="yacute.sc" horiz-adv-x="392" 
d="M219 623l135 168h42l-157 -175zM197 216l-29 -216h-22l29 215l-136 333h27l122 -307h1l192 307h30z" />
    <glyph glyph-name="ydieresis.sc" horiz-adv-x="392" 
d="M197 216l-29 -216h-22l29 215l-136 333h27l122 -307h1l192 307h30zM193 699q-4 -34 -30 -34q-29 0 -24 34q6 35 33 35t21 -35zM351 699q-4 -34 -30 -34q-29 0 -24 34q6 35 33 35t21 -35z" />
    <glyph glyph-name="cacute.sc" horiz-adv-x="513" 
d="M287 623l135 168h42l-157 -175zM422 145l20 -5q-27 -78 -81.5 -113.5t-124.5 -35.5q-193 0 -193 219q0 159 78 252t197 93q79 0 123.5 -46.5t40.5 -131.5l-21 -2q3 70 -33 113.5t-112 43.5q-109 0 -178.5 -85t-69.5 -234q0 -107 43 -152.5t128 -45.5q69 0 113 31t70 99z
" />
    <glyph glyph-name="ccircumflex.sc" horiz-adv-x="513" 
d="M422 145l20 -5q-27 -78 -81.5 -113.5t-124.5 -35.5q-193 0 -193 219q0 159 78 252t197 93q79 0 123.5 -46.5t40.5 -131.5l-21 -2q3 70 -33 113.5t-112 43.5q-109 0 -178.5 -85t-69.5 -234q0 -107 43 -152.5t128 -45.5q69 0 113 31t70 99zM461 623l-27 -4l-90 146
l-123 -146l-27 6l138 165h27z" />
    <glyph glyph-name="cdotaccent.sc" horiz-adv-x="513" 
d="M422 145l20 -5q-27 -78 -81.5 -113.5t-124.5 -35.5q-193 0 -193 219q0 159 78 252t197 93q79 0 123.5 -46.5t40.5 -131.5l-21 -2q3 70 -33 113.5t-112 43.5q-109 0 -178.5 -85t-69.5 -234q0 -107 43 -152.5t128 -45.5q69 0 113 31t70 99zM367 711q-4 -34 -31 -34t-23 34
q6 35 32 35q28 0 22 -35z" />
    <glyph glyph-name="ccaron.sc" horiz-adv-x="513" 
d="M201 779l27 4l90 -146l123 146l27 -6l-138 -165h-27zM422 145l20 -5q-27 -78 -81.5 -113.5t-124.5 -35.5q-193 0 -193 219q0 159 78 252t197 93q79 0 123.5 -46.5t40.5 -131.5l-21 -2q3 70 -33 113.5t-112 43.5q-109 0 -178.5 -85t-69.5 -234q0 -107 43 -152.5t128 -45.5
q69 0 113 31t70 99z" />
    <glyph glyph-name="dcaron.sc" horiz-adv-x="549" 
d="M174 779l27 4l90 -146l123 146l27 -6l-138 -165h-27zM182 0h-128l74 548h139q115 0 170.5 -57t55.5 -161q0 -150 -77.5 -240t-233.5 -90zM82 24h106q132 0 206.5 81.5t74.5 228.5q0 102 -53 146t-155 44h-111z" />
    <glyph glyph-name="dcroat.sc" horiz-adv-x="549" 
d="M182 0h-128l36 269h-49l3 23h49l35 256h139q115 0 170.5 -57t55.5 -161q0 -150 -77.5 -240t-233.5 -90zM82 24h106q132 0 206.5 81.5t74.5 228.5q0 102 -53 146t-155 44h-111l-32 -232h187l-3 -23h-187z" />
    <glyph glyph-name="emacron.sc" horiz-adv-x="427" 
d="M339 0h-285l74 548h279l-3 -24h-254l-31 -231h237l-3 -25h-238l-33 -244h261zM417 685h-270l3 27h270z" />
    <glyph glyph-name="ebreve.sc" horiz-adv-x="427" 
d="M401 765l24 -4q-7 -60 -41.5 -103t-104.5 -43q-130 0 -113 144l26 4q-6 -66 15.5 -95.5t74.5 -29.5q50 0 78.5 30.5t40.5 96.5zM339 0h-285l74 548h279l-3 -24h-254l-31 -231h237l-3 -25h-238l-33 -244h261z" />
    <glyph glyph-name="edotaccent.sc" horiz-adv-x="427" 
d="M339 0h-285l74 548h279l-3 -24h-254l-31 -231h237l-3 -25h-238l-33 -244h261zM315 711q-4 -34 -31 -34t-23 34q6 35 32 35q28 0 22 -35z" />
    <glyph glyph-name="eogonek.sc" horiz-adv-x="427" 
d="M311 -160l17 -11q-35 -47 -84 -47q-81 0 -81 73q0 80 100 145h-209l74 548h279l-3 -24h-254l-31 -231h237l-3 -25h-238l-33 -244h261l-4 -24h-38q-59 -37 -85.5 -70.5t-26.5 -74.5q0 -52 55 -52q36 0 67 37z" />
    <glyph glyph-name="ecaron.sc" horiz-adv-x="427" 
d="M158 779l27 4l90 -146l123 146l27 -6l-138 -165h-27zM339 0h-285l74 548h279l-3 -24h-254l-31 -231h237l-3 -25h-238l-33 -244h261z" />
    <glyph glyph-name="gcircumflex.sc" horiz-adv-x="541" 
d="M467 279l-37 -279h-16l6 83h-1q-56 -92 -182 -92q-194 0 -194 223q0 148 75 244.5t203 96.5q75 0 120 -45.5t41 -126.5l-21 -2q2 72 -36.5 111.5t-107.5 39.5q-113 0 -181 -86.5t-68 -231.5q0 -106 42.5 -152.5t130.5 -46.5q85 0 133.5 47t56.5 111l11 83h-168l3 23h190z
M456 623l-27 -4l-90 146l-123 -146l-27 6l138 165h27z" />
    <glyph glyph-name="gbreve.sc" horiz-adv-x="541" 
d="M448 765l24 -4q-7 -60 -41.5 -103t-104.5 -43q-130 0 -113 144l26 4q-6 -66 15.5 -95.5t74.5 -29.5q50 0 78.5 30.5t40.5 96.5zM467 279l-37 -279h-16l6 83h-1q-56 -92 -182 -92q-194 0 -194 223q0 148 75 244.5t203 96.5q75 0 120 -45.5t41 -126.5l-21 -2
q2 72 -36.5 111.5t-107.5 39.5q-113 0 -181 -86.5t-68 -231.5q0 -106 42.5 -152.5t130.5 -46.5q85 0 133.5 47t56.5 111l11 83h-168l3 23h190z" />
    <glyph glyph-name="gdotaccent.sc" horiz-adv-x="541" 
d="M467 279l-37 -279h-16l6 83h-1q-56 -92 -182 -92q-194 0 -194 223q0 148 75 244.5t203 96.5q75 0 120 -45.5t41 -126.5l-21 -2q2 72 -36.5 111.5t-107.5 39.5q-113 0 -181 -86.5t-68 -231.5q0 -106 42.5 -152.5t130.5 -46.5q85 0 133.5 47t56.5 111l11 83h-168l3 23h190z
M362 711q-4 -34 -31 -34t-23 34q6 35 32 35q28 0 22 -35z" />
    <glyph glyph-name="gcommaaccent.sc" horiz-adv-x="541" 
d="M467 279l-37 -279h-16l6 83h-1q-56 -92 -182 -92q-194 0 -194 223q0 148 75 244.5t203 96.5q75 0 120 -45.5t41 -126.5l-21 -2q2 72 -36.5 111.5t-107.5 39.5q-113 0 -181 -86.5t-68 -231.5q0 -106 42.5 -152.5t130.5 -46.5q85 0 133.5 47t56.5 111l11 83h-168l3 23h190z
M163 -205l51 136h35l-65 -140z" />
    <glyph glyph-name="hcircumflex.sc" horiz-adv-x="540" 
d="M481 548l-74 -548h-25l36 269h-304l-36 -269h-25l74 548h25l-34 -254h304l34 254h25zM452 623l-27 -4l-90 146l-123 -146l-27 6l138 165h27z" />
    <glyph glyph-name="hbar.sc" horiz-adv-x="540" 
d="M483 548l-16 -115h69l-3 -22h-69l-55 -411h-25l36 269h-304l-36 -269h-25l55 411h-62l3 22h62l16 115h25l-16 -115h304l16 115h25zM120 294h304l15 117h-304z" />
    <glyph glyph-name="itilde.sc" horiz-adv-x="208" 
d="M88 730q30 0 78.5 -27t68.5 -27q44 0 54 72l21 -2q-10 -93 -77 -93q-27 0 -77 27t-70 27q-43 0 -54 -72l-21 2q10 93 77 93zM79 0h-25l74 548h25z" />
    <glyph glyph-name="imacron.sc" horiz-adv-x="208" 
d="M79 0h-25l74 548h25zM292 680h-270l3 27h270z" />
    <glyph glyph-name="ibreve.sc" horiz-adv-x="208" 
d="M279 765l24 -4q-7 -60 -41.5 -103t-104.5 -43q-130 0 -113 144l26 4q-6 -66 15.5 -95.5t74.5 -29.5q50 0 78.5 30.5t40.5 96.5zM79 0h-25l74 548h25z" />
    <glyph glyph-name="iogonek.sc" horiz-adv-x="208" 
d="M89 -160l17 -11q-35 -47 -84 -47q-81 0 -81 73q0 86 114 154l73 539h25l-74 -548q-57 -36 -84.5 -69.5t-27.5 -75.5q0 -52 55 -52q36 0 67 37z" />
    <glyph glyph-name="idotaccent.sc" horiz-adv-x="208" 
d="M79 0h-25l74 548h25zM187 716q-4 -34 -31 -34t-23 34q6 35 32 35q28 0 22 -35z" />
    <glyph glyph-name="dotlessi.sc" horiz-adv-x="208" 
d="M79 0h-25l74 548h25z" />
    <glyph glyph-name="jcircumflex.sc" horiz-adv-x="365" 
d="M237 121l58 427h25l-58 -429q-17 -128 -133 -128q-58 0 -86 27t-35 79l25 5q7 -42 28 -64.5t69 -22.5q93 0 107 106zM445 623l-27 -4l-90 146l-123 -146l-27 6l138 165h27z" />
    <glyph glyph-name="kcommaaccent.sc" horiz-adv-x="457" 
d="M153 548l-40 -297l308 297h35l-249 -239l192 -309h-28l-181 292l-82 -76l-29 -216h-25l74 548h25zM138 -205l51 136h35l-65 -140z" />
    <glyph glyph-name="kgreenlandic.sc" horiz-adv-x="457" 
d="M153 548l-40 -297l308 297h35l-249 -239l192 -309h-28l-181 292l-82 -76l-29 -216h-25l74 548h25z" />
    <glyph glyph-name="lacute.sc" horiz-adv-x="404" 
d="M139 623l135 168h42l-157 -175zM324 0h-270l74 548h25l-70 -523h244z" />
    <glyph glyph-name="lcommaaccent.sc" horiz-adv-x="404" 
d="M324 0h-270l74 548h25l-70 -523h244zM117 -205l51 136h35l-65 -140z" />
    <glyph glyph-name="lcaron.sc" horiz-adv-x="404" 
d="M324 0h-270l74 548h25l-70 -523h244zM245 360l61 188h35l-79 -192z" />
    <glyph glyph-name="ldot.sc" horiz-adv-x="404" 
d="M324 0h-270l74 548h25l-70 -523h244zM318 293q-4 -33 -31 -33t-22 33q6 35 31 35q28 0 22 -35z" />
    <glyph glyph-name="nacute.sc" horiz-adv-x="549" 
d="M299 623l135 168h42l-157 -175zM416 0h-35l-231 527l-71 -527h-25l74 548h40l227 -520l70 520h25z" />
    <glyph glyph-name="ncommaaccent.sc" horiz-adv-x="548" 
d="M415 0h-35l-231 527l-71 -527h-25l74 548h40l227 -520l70 520h25zM170 -205l51 136h35l-65 -140z" />
    </font>
</defs>
</svg>
