<?xml version="1.0" standalone="no"?>
<!DOCTYPE svg PUBLIC "-//W3C//DTD SVG 1.1//EN" "http://www.w3.org/Graphics/SVG/1.1/DTD/svg11.dtd" >
<svg>
<metadata>
Created by FontForge 20090622 at Thu Feb  9 20:36:07 2017
 By deploy user
Copyright (c) 2012 by TypeTogether. All rights reserved.
</metadata>
<defs>
<font id="AdelleSansSb-Italic" horiz-adv-x="570" >
  <font-face 
    font-family="Adelle Sans Sb"
    font-weight="600"
    font-style="italic"
    font-stretch="normal"
    units-per-em="1000"
    panose-1="2 0 5 3 0 0 0 2 0 4"
    ascent="755"
    descent="-245"
    x-height="517"
    cap-height="724"
    bbox="-207 -290 1223 1077"
    underline-thickness="50"
    underline-position="-50"
    slope="-8"
    unicode-range="U+000D-U+FB06"
  />
<missing-glyph horiz-adv-x="500" 
 />
    <glyph glyph-name="ij" unicode="ij" horiz-adv-x="511" 
d="M215 517l-73 -517h-115l73 517h115zM257 692q0 -40 -23.5 -63.5t-63.5 -23.5q-31 0 -48 16.5t-17 45.5q0 40 23 63t63 23q32 0 49 -16t17 -45zM275 -55l81 572h115l-82 -577q-22 -163 -179 -163q-30 0 -63 7.5t-46 16.5l22 81q36 -15 74 -15q32 0 52 17t26 61zM512 692
q0 -41 -23 -64t-63 -23q-31 0 -48.5 16.5t-17.5 45.5q0 40 23.5 63t62.5 23q66 0 66 -61z" />
    <glyph glyph-name="ff" unicode="ff" horiz-adv-x="666" 
d="M749 746l-16 -81q-38 14 -71 14q-37 0 -59 -19t-30 -70l-10 -73h141l-12 -82h-141l-91 -647h-115l91 647h-214l-91 -647h-115l91 647h-74l12 82h73l11 78q24 170 187 170q61 0 97 -18l-16 -81q-35 13 -68 13q-34 0 -56 -19.5t-29 -69.5l-11 -73h215l11 78q23 170 187 170
q67 0 103 -19z" />
    <glyph glyph-name="fi" unicode="fi" horiz-adv-x="604" 
d="M563 517l-73 -517h-115l61 435h-214l-91 -647h-115l91 647h-74l12 82h74l11 78q23 170 183 170q56 0 90 -17l-16 -81q-34 12 -63 12q-35 0 -54 -19.5t-26 -67.5l-10 -75h329zM605 692q0 -40 -23 -63.5t-63 -23.5q-31 0 -48.5 16.5t-17.5 45.5q0 40 23 63t63 23
q66 0 66 -61z" />
    <glyph glyph-name="fl" unicode="fl" horiz-adv-x="604" 
d="M406 748l-16 -81q-34 12 -63 12q-36 0 -56.5 -20t-26.5 -67l-10 -75h133l-12 -82h-133l-91 -647h-115l91 647h-74l12 82h74l11 78q23 170 183 170q59 0 93 -17zM375 0l106 755h115l-106 -755h-115z" />
    <glyph glyph-name="ffi" unicode="ffi" horiz-adv-x="934" 
d="M893 517l-73 -517h-115l61 435h-214l-91 -647h-115l91 647h-215l-91 -647h-115l91 647h-74l12 82h73l11 78q24 170 187 170q61 0 97 -18l-16 -81q-35 13 -68 13q-34 0 -56 -19.5t-29 -69.5l-11 -73h216l11 78q23 170 183 170q56 0 90 -17l-16 -81q-34 12 -63 12
q-35 0 -54 -19.5t-26 -67.5l-10 -75h329zM935 692q0 -40 -23 -63.5t-63 -23.5q-31 0 -48.5 16.5t-17.5 45.5q0 40 23 63t63 23q66 0 66 -61z" />
    <glyph glyph-name="ffl" unicode="ffl" horiz-adv-x="933" 
d="M735 748l-16 -81q-34 12 -63 12q-36 0 -56.5 -20t-26.5 -67l-10 -75h133l-12 -82h-133l-91 -647h-115l91 647h-214l-91 -647h-115l91 647h-74l12 82h73l11 78q24 170 187 170q61 0 97 -18l-16 -81q-35 13 -68 13q-34 0 -56 -19.5t-29 -69.5l-11 -73h215l11 78
q23 170 183 170q59 0 93 -17zM704 0l106 755h115l-106 -755h-115z" />
    <glyph glyph-name="f_k" unicode="fk" horiz-adv-x="885" 
d="M406 748l-16 -81q-34 12 -63 12q-36 0 -56.5 -20t-26.5 -67l-10 -75h133l-12 -82h-133l-91 -647h-115l91 647h-74l12 82h74l11 78q23 170 183 170q59 0 93 -17zM833 0h-126l-112 257l-79 -69l-26 -188h-115l106 755h115l-63 -447l227 209h133l-202 -187z" />
    <glyph glyph-name="f_b" unicode="fb" horiz-adv-x="936" 
d="M405 748l-15 -81q-34 12 -64 12q-35 0 -55.5 -19.5t-26.5 -67.5l-11 -75h134l-12 -82h-133l-92 -647h-115l92 647h-74l12 82h73l11 78q24 170 183 170q61 0 93 -17zM478 0h-104l106 755h114l-43 -301q89 73 177 73q159 0 159 -197q0 -168 -70.5 -255t-174.5 -87
q-88 0 -151 60q-1 0 -1 -0.5t-1 -0.5zM541 371l-34 -245q53 -45 114 -45q74 0 109.5 67t35.5 170q0 117 -82 117q-34 0 -74.5 -20t-68.5 -44z" />
    <glyph glyph-name="f_h" unicode="fh" horiz-adv-x="930" 
d="M406 748l-16 -81q-34 12 -63 12q-36 0 -56.5 -20t-26.5 -67l-10 -75h133l-12 -82h-133l-91 -647h-115l91 647h-74l12 82h74l11 78q23 170 183 170q59 0 93 -17zM542 365l-52 -365h-115l106 755h114l-45 -306q89 78 183 78q162 0 137 -176l-49 -351h-115l47 335
q14 98 -63 98q-61 0 -148 -68z" />
    <glyph glyph-name="f_t" unicode="ft" horiz-adv-x="719" 
d="M656 99l14 -77q-58 -34 -134 -34q-164 0 -140 159l41 288h-215l-91 -647h-115l91 647h-74l12 82h73l11 78q24 170 185 170q56 0 94 -19l-16 -81q-38 14 -68 14q-35 0 -54 -20t-26 -69l-11 -73h215l21 149l118 17l-24 -166h140l-11 -82h-140l-39 -276q-6 -43 5 -63.5
t50 -20.5q42 0 88 24z" />
    <glyph glyph-name="f_j" unicode="fj" horiz-adv-x="602" 
d="M403 748l-16 -81q-34 12 -64 12q-35 0 -53.5 -19.5t-25.5 -67.5l-11 -75h330l-82 -577q-22 -163 -173 -163q-62 0 -96 18l17 82q31 -11 65 -11q31 0 49 17.5t24 61.5l69 490h-214l-92 -647h-115l92 647h-74l12 82h73l11 78q24 170 183 170q57 0 91 -17zM604 692
q0 -41 -23 -64t-63 -23q-31 0 -48.5 16.5t-17.5 45.5q0 40 23 63t63 23q66 0 66 -61z" />
    <glyph glyph-name="f_f_j" unicode="ffj" horiz-adv-x="933" 
d="M733 748l-16 -81q-34 12 -64 12q-35 0 -53.5 -19.5t-25.5 -67.5l-11 -75h330l-82 -577q-22 -163 -173 -163q-62 0 -96 18l17 82q31 -11 65 -11q31 0 49 17.5t24 61.5l69 490h-214l-92 -647h-115l92 647h-215l-91 -647h-115l91 647h-74l12 82h73l11 78q24 170 187 170
q61 0 97 -18l-16 -81q-35 13 -68 13q-34 0 -56 -19.5t-29 -69.5l-11 -73h215l11 78q24 170 183 170q57 0 91 -17zM934 692q0 -41 -23 -64t-63 -23q-31 0 -48.5 16.5t-17.5 45.5q0 40 23 63t63 23q66 0 66 -61z" />
    <glyph glyph-name="f_f_k" unicode="ffk" horiz-adv-x="1214" 
d="M736 748l-16 -81q-34 12 -63 12q-36 0 -56.5 -20t-26.5 -67l-10 -75h133l-12 -82h-133l-91 -647h-115l91 647h-215l-91 -647h-115l91 647h-74l12 82h73l11 78q24 170 187 170q61 0 97 -18l-16 -81q-35 13 -68 13q-34 0 -56 -19.5t-29 -69.5l-11 -73h216l11 78
q23 170 183 170q59 0 93 -17zM1163 0h-126l-112 257l-79 -69l-26 -188h-115l106 755h115l-63 -447l227 209h133l-202 -187z" />
    <glyph glyph-name="f_f_b" unicode="ffb" horiz-adv-x="1266" 
d="M736 748l-15 -81q-34 12 -64 12q-35 0 -55.5 -19.5t-26.5 -67.5l-11 -75h134l-12 -82h-133l-92 -647h-115l92 647h-216l-91 -647h-115l91 647h-74l12 82h73l11 78q24 170 187 170q61 0 97 -18l-16 -81q-35 13 -68 13q-34 0 -56 -19.5t-29 -69.5l-11 -73h216l11 78
q24 170 183 170q61 0 93 -17zM809 0h-104l106 755h114l-43 -301q89 73 177 73q159 0 159 -197q0 -168 -70.5 -255t-174.5 -87q-88 0 -151 60h-1l-1 -1zM872 371l-34 -245q53 -45 114 -45q74 0 109.5 67t35.5 170q0 117 -82 117q-34 0 -74.5 -20t-68.5 -44z" />
    <glyph glyph-name="f_f_h" unicode="ffh" horiz-adv-x="1259" 
d="M735 748l-16 -81q-34 12 -63 12q-36 0 -56.5 -20t-26.5 -67l-10 -75h133l-12 -82h-133l-91 -647h-115l91 647h-214l-91 -647h-115l91 647h-74l12 82h73l11 78q24 170 187 170q61 0 97 -18l-16 -81q-35 13 -68 13q-34 0 -56 -19.5t-29 -69.5l-11 -73h215l11 78
q23 170 183 170q59 0 93 -17zM871 365l-52 -365h-115l106 755h114l-45 -306q89 78 183 78q162 0 137 -176l-49 -351h-115l47 335q14 98 -63 98q-61 0 -148 -68z" />
    <glyph glyph-name="f_f_t" unicode="fft" horiz-adv-x="1048" 
d="M985 99l14 -77q-58 -34 -134 -34q-164 0 -140 159l41 288h-215l-91 -647h-115l91 647h-214l-91 -647h-115l91 647h-74l12 82h73l11 78q24 170 187 170q61 0 97 -18l-16 -81q-35 13 -68 13q-34 0 -56 -19.5t-29 -69.5l-11 -73h214l11 78q24 170 185 170q56 0 94 -19
l-16 -81q-38 14 -68 14q-35 0 -54 -20t-26 -69l-11 -73h215l21 149l118 17l-24 -166h140l-11 -82h-140l-39 -276q-6 -43 5 -63.5t50 -20.5q42 0 88 24z" />
    <glyph glyph-name="f_iacute" unicode="f&#xed;" horiz-adv-x="609" 
d="M568 517l-73 -517h-115l61 435h-219l-92 -647h-115l92 647h-74l12 82h73l11 78q24 170 183 170q61 0 93 -17l-15 -81q-34 12 -64 12q-35 0 -55.5 -19.5t-26.5 -67.5l-11 -75h335zM460 583l108 163h133l-163 -174z" />
    <glyph glyph-name="t_t" unicode="tt" horiz-adv-x="722" 
d="M659 99l14 -77q-58 -34 -134 -34q-162 0 -140 159l41 288h-214l-39 -276q-6 -43 5 -63.5t50 -20.5q42 0 88 24l14 -77q-58 -34 -134 -34q-162 0 -140 159l41 288h-79l11 82h79l22 149l117 17l-24 -166h214l22 149l117 17l-24 -166h140l-11 -82h-140l-39 -276
q-6 -43 5 -63.5t50 -20.5q42 0 88 24z" />
    <glyph glyph-name=".notdef" horiz-adv-x="500" 
 />
    <glyph glyph-name=".null" horiz-adv-x="0" 
 />
    <glyph glyph-name=".null" horiz-adv-x="0" 
 />
    <glyph glyph-name="nonmarkingreturn" horiz-adv-x="333" 
 />
    <glyph glyph-name="CR" unicode="&#xd;" horiz-adv-x="500" 
 />
    <glyph glyph-name="space" unicode=" " horiz-adv-x="198" 
 />
    <glyph glyph-name="exclam" unicode="!" horiz-adv-x="275" 
d="M161 191h-91l56 533h127zM174 69q0 -81 -87 -81q-67 0 -67 57q0 82 87 82q67 0 67 -58z" />
    <glyph glyph-name="quotedbl" unicode="&#x22;" horiz-adv-x="399" 
d="M347 465h-108l36 259h108zM167 465h-108l36 259h108z" />
    <glyph glyph-name="numbersign" unicode="#" horiz-adv-x="607" 
d="M342 0h-84l42 142h-108l-42 -142h-84l41 142h-109l29 80h104l40 134h-109l29 81h104l37 133h86l-39 -133h106l38 133h85l-38 -133h110l-28 -81h-106l-38 -134h108l-27 -80h-105zM323 222l38 134h-106l-39 -134h107z" />
    <glyph glyph-name="dollar" unicode="$" horiz-adv-x="532" 
d="M404 505q-2 98 -64 115l-33 -218q33 -13 50 -21t44 -25t41 -33.5t25 -43.5t11 -60q0 -99 -66.5 -155.5t-163.5 -64.5l-11 -80h-84l12 84q-164 28 -169 192l103 19q4 -53 22 -84.5t61 -41.5l34 233q-82 33 -122 75.5t-40 107.5q0 90 59.5 143t160.5 63l12 82h81l-12 -85
q152 -26 152 -190zM366 201q0 57 -75 90l-30 -207q47 9 76 39t29 78zM169 518q0 -54 63 -88l28 189q-41 -6 -66 -32t-25 -69z" />
    <glyph glyph-name="percent" unicode="%" horiz-adv-x="820" 
d="M208 374q-77 0 -112 40.5t-35 109.5q0 94 50 153.5t145 59.5q145 0 145 -151q0 -93 -49.5 -152.5t-143.5 -59.5zM216 443q92 0 92 142q0 82 -59 82q-49 0 -71.5 -40t-22.5 -104q0 -80 61 -80zM194 -15h-104l542 739h104zM583 -12q-77 0 -112.5 40.5t-35.5 109.5
q0 94 50 153.5t145 59.5q146 0 146 -151q0 -93 -50 -152.5t-143 -59.5zM590 57q92 0 92 141q0 82 -59 82q-49 0 -71.5 -39.5t-22.5 -103.5q0 -80 61 -80z" />
    <glyph glyph-name="ampersand" unicode="&#x26;" horiz-adv-x="724" 
d="M548 573q0 -72 -49.5 -119.5t-164.5 -92.5q40 -86 126 -189q49 64 68 176h102q-22 -149 -102 -237q39 -31 75 -31q21 0 45 9l11 -82q-33 -17 -82 -17q-76 0 -140 51q-78 -53 -198 -53q-99 0 -155.5 49.5t-56.5 127.5q0 79 42.5 134t128.5 93q-22 52 -22 108
q0 92 63 145.5t158 53.5q63 0 107 -30.5t44 -95.5zM228 316q-85 -52 -85 -134q0 -50 31.5 -78.5t94.5 -28.5q51 0 101 29q-84 94 -142 212zM293 518q0 -43 15 -85q75 31 105.5 59.5t30.5 71.5q0 58 -59 58q-40 0 -66 -27t-26 -77z" />
    <glyph glyph-name="quotesingle" unicode="'" horiz-adv-x="219" 
d="M167 465h-108l36 259h108z" />
    <glyph glyph-name="parenleft" unicode="(" horiz-adv-x="335" 
d="M248 -153l-119 1q-91 170 -91 356q0 147 58.5 271.5t159.5 248.5h125q-112 -144 -167 -261t-55 -261q0 -166 89 -355z" />
    <glyph glyph-name="parenright" unicode=")" horiz-adv-x="335" 
d="M67 724l119 -1q91 -170 91 -356q0 -147 -58.5 -271.5t-159.5 -248.5h-125q112 144 167 261t55 261q0 166 -89 355z" />
    <glyph glyph-name="asterisk" unicode="*" horiz-adv-x="472" 
d="M321 755l-2 -134l127 32l9 -53l-122 -58l60 -116l-47 -33l-87 95l-115 -97l-42 34l91 118l-108 56l25 53l121 -31l36 134h54z" />
    <glyph glyph-name="plus" unicode="+" horiz-adv-x="569" 
d="M300 125h-98l20 150h-141l13 95h141l21 146h98l-20 -146h141l-13 -95h-141z" />
    <glyph glyph-name="comma" unicode="," horiz-adv-x="249" 
d="M-37 -120l92 234h124l-125 -245z" />
    <glyph glyph-name="hyphen" unicode="-" horiz-adv-x="314" 
d="M280 243h-271l14 100h271z" />
    <glyph glyph-name="period" unicode="." horiz-adv-x="245" 
d="M167 75q0 -87 -89 -87q-69 0 -69 61q0 87 90 87q68 0 68 -61z" />
    <glyph glyph-name="slash" unicode="/" horiz-adv-x="404" 
d="M56 -92h-108l400 847h107z" />
    <glyph glyph-name="zero" unicode="0" horiz-adv-x="589" 
d="M243 -12q-114 0 -160.5 62t-46.5 183q0 75 8 140q45 364 303 364q203 0 203 -236q0 -69 -7 -132q-41 -381 -300 -381zM251 74q53 0 89.5 40t55 103t29.5 157q8 70 8 122q1 30 -3 55q-11 99 -93 99q-75 0 -115.5 -73.5t-58.5 -209.5q-7 -54 -9 -125q-1 -31 2 -63
q5 -53 27.5 -79t67.5 -26z" />
    <glyph glyph-name="one" unicode="1" horiz-adv-x="423" 
d="M260 0h-113l82 579q-25 -13 -77.5 -22t-82.5 -9v91q144 11 221 85h72z" />
    <glyph glyph-name="two" unicode="2" horiz-adv-x="531" 
d="M431 0h-437l13 93l192 198q115 119 150 168t35 103q0 86 -91 86q-96 0 -132 -119l-100 18q21 97 88.5 143.5t160.5 46.5q90 0 140.5 -42t50.5 -121q0 -30 -4.5 -54.5t-19.5 -52.5t-27 -47t-44 -54t-52.5 -55.5l-69.5 -68.5l-68 -67t-76 -79h304z" />
    <glyph glyph-name="three" unicode="3" horiz-adv-x="552" 
d="M325 737q89 0 138 -40.5t49 -113.5q0 -78 -50.5 -127.5t-116.5 -67.5v-2q131 -27 131 -155q0 -111 -73 -177t-194 -66q-196 0 -204 173l102 19q4 -47 26 -76t80 -29q61 0 103.5 38.5t42.5 113.5q0 58 -32 82.5t-93 24.5h-66l12 87h47q77 0 123 40t46 105q0 38 -21 61
t-67 23q-54 0 -84 -25t-49 -76l-99 20q53 168 249 168z" />
    <glyph glyph-name="four" unicode="4" horiz-adv-x="578" 
d="M421 0h-110l24 173h-331l12 80l364 471h144l-65 -459h84l-13 -92h-84zM123 265h225l50 353z" />
    <glyph glyph-name="five" unicode="5" horiz-adv-x="549" 
d="M493 629h-272l-54 -219q66 50 146 50q74 0 123 -45t49 -140q0 -129 -77.5 -208t-202.5 -79q-90 0 -146 44t-61 131l101 22q3 -44 28.5 -75t83.5 -31q64 0 111.5 45t47.5 138q0 108 -99 108q-62 0 -131 -58l-77 34l80 378h363z" />
    <glyph glyph-name="six" unicode="6" 
d="M552 571l-103 -24q-4 56 -26.5 79.5t-62.5 23.5q-55 0 -97.5 -41.5t-65 -100.5t-32.5 -132q33 26 80 46t96 20q80 0 126 -46t46 -127q0 -130 -75 -205.5t-190 -75.5q-112 0 -159 68.5t-47 191.5q0 46 6 94.5t19.5 105.5t39 107t61 91.5t89.5 66t120 24.5q73 0 121 -41.5
t54 -124.5zM160 290q-4 -29 -4 -69q0 -146 103 -146q59 0 98 47t39 133q0 99 -89 99q-70 0 -147 -64z" />
    <glyph glyph-name="seven" unicode="7" horiz-adv-x="520" 
d="M146 0h-123l377 629h-342l14 95h463l-12 -85z" />
    <glyph glyph-name="eight" unicode="8" horiz-adv-x="551" 
d="M379 381q60 -29 92.5 -65.5t32.5 -98.5q0 -99 -75.5 -164t-203.5 -65q-107 0 -164 46.5t-57 122.5q0 81 45.5 131t130.5 86q-99 54 -99 151q0 100 73.5 156t185.5 56q92 0 145.5 -39.5t53.5 -108.5q0 -68 -38.5 -114t-121.5 -94zM259 326q-71 -29 -106.5 -65.5
t-35.5 -91.5q0 -43 30 -69.5t88 -26.5q69 0 107.5 38t38.5 90q0 48 -32 75t-90 50zM297 424q131 70 131 152q0 39 -26 60t-75 21q-58 0 -93 -32t-35 -81q0 -75 98 -120z" />
    <glyph glyph-name="nine" unicode="9" horiz-adv-x="569" 
d="M4 151l102 26q13 -104 102 -104q84 0 132.5 74t63.5 195q-32 -28 -82 -46t-102 -18q-79 0 -124 49.5t-45 132.5q0 130 74.5 203.5t187.5 73.5q209 0 209 -266q0 -105 -18.5 -191t-56 -152.5t-99.5 -103t-144 -36.5q-85 0 -138 40.5t-62 122.5zM406 431q4 31 4 71
q0 149 -102 149q-61 0 -101 -46t-40 -130q0 -110 88 -110q38 0 81.5 19t69.5 47z" />
    <glyph glyph-name="colon" unicode=":" horiz-adv-x="267" 
d="M178 75q0 -87 -89 -87q-69 0 -69 61q0 87 90 87q68 0 68 -61zM237 440q0 -87 -89 -87q-69 0 -69 61q0 87 90 87q68 0 68 -61z" />
    <glyph glyph-name="semicolon" unicode=";" horiz-adv-x="276" 
d="M-37 -120l92 234h124l-125 -245zM251 440q0 -87 -89 -87q-69 0 -69 61q0 87 90 87q68 0 68 -61z" />
    <glyph glyph-name="less" unicode="&#x3c;" 
d="M426 90l-363 144l15 110l404 149l-13 -100l-304 -105l275 -104z" />
    <glyph glyph-name="equal" unicode="=" 
d="M444 147h-379l14 97h379zM468 319h-379l14 97h379z" />
    <glyph glyph-name="greater" unicode="&#x3e;" horiz-adv-x="569" 
d="M487 344l-15 -108l-403 -142l13 101l304 103l-275 104l14 91z" />
    <glyph glyph-name="question" unicode="?" horiz-adv-x="528" 
d="M315 729q88 0 145.5 -43t57.5 -133q0 -209 -249 -254l-15 -109h-112l25 180q39 3 68.5 8.5t61.5 17.5t53 29.5t34.5 47t13.5 68.5q0 49 -27 73t-73 24q-104 0 -135 -111l-107 18q22 86 86.5 135t172.5 49zM254 69q0 -81 -86 -81q-67 0 -67 57q0 82 87 82q66 0 66 -58z
" />
    <glyph glyph-name="at" unicode="@" horiz-adv-x="847" 
d="M569 -49l31 -66q-92 -67 -255 -67q-146 0 -236 83.5t-90 232.5q0 200 130 321t332 121q143 0 231.5 -74t88.5 -202q0 -147 -65.5 -226.5t-166.5 -79.5q-42 0 -68 15.5t-34 40.5q-55 -58 -131 -58q-58 0 -86.5 41.5t-28.5 106.5q0 112 58 184.5t149 72.5q53 0 85 -35
l12 29h70l-45 -257q-4 -16 -4 -34q0 -38 41 -38q55 0 90.5 65.5t35.5 161.5q0 99 -65 155t-183 56q-170 0 -262.5 -102.5t-92.5 -256.5q0 -118 67.5 -182.5t182.5 -64.5q121 0 209 57zM465 116l32 186q-25 28 -65 28q-54 0 -89.5 -46.5t-35.5 -133.5q0 -89 59 -89
q55 0 99 55z" />
    <glyph glyph-name="A" unicode="A" horiz-adv-x="664" 
d="M309 724h148l147 -724h-123l-39 204h-254l-92 -204h-121zM429 296l-59 325h-1l-146 -325h206z" />
    <glyph glyph-name="B" unicode="B" horiz-adv-x="619" 
d="M277 0h-236l99 724h260q192 0 192 -153q0 -82 -46.5 -129t-119.5 -64v-3q145 -18 145 -150q0 -225 -294 -225zM168 87h102q89 0 134 28.5t45 109.5q0 32 -12 53t-36.5 30.5t-49.5 13t-62 3.5h-89zM212 412h83q179 0 179 139q0 54 -35 69.5t-117 15.5h-80z" />
    <glyph glyph-name="C" unicode="C" horiz-adv-x="680" 
d="M527 226l102 -19q-32 -115 -114.5 -167t-194.5 -52q-140 0 -209.5 79t-69.5 216q0 209 104.5 331.5t281.5 122.5q120 0 185.5 -67t58.5 -190l-107 -11q5 174 -145 174q-118 0 -187.5 -91.5t-69.5 -260.5q0 -210 174 -210q76 0 120 36t71 109z" />
    <glyph glyph-name="D" unicode="D" horiz-adv-x="712" 
d="M254 0h-213l99 724h230q156 0 232 -76t76 -214q0 -196 -107 -315t-317 -119zM169 92h94q144 0 220 86.5t76 253.5q0 108 -52.5 154.5t-157.5 46.5h-106z" />
    <glyph glyph-name="E" unicode="E" horiz-adv-x="565" 
d="M483 0h-442l99 724h428l-13 -94h-313l-29 -221h293l-13 -92h-294l-30 -223h327z" />
    <glyph glyph-name="F" unicode="F" horiz-adv-x="537" 
d="M198 306l-42 -306h-115l99 724h426l-12 -94h-311l-32 -232h286l-12 -92h-287z" />
    <glyph glyph-name="G" unicode="G" horiz-adv-x="715" 
d="M660 376l-52 -376h-84l-1 93q-27 -47 -89.5 -76t-133.5 -29q-131 0 -195 79.5t-64 216.5q0 208 105.5 330.5t283.5 122.5q120 0 184 -60.5t59 -183.5l-109 -11q6 162 -142 162q-123 0 -191 -95.5t-68 -258.5q0 -111 44 -161t128 -50q81 0 133.5 47.5t60.5 111.5l8 56
h-164l12 82h275z" />
    <glyph glyph-name="H" unicode="H" horiz-adv-x="712" 
d="M683 724l-100 -724h-115l43 321h-313l-43 -321h-115l100 724h115l-43 -307h313l43 307h115z" />
    <glyph glyph-name="I" unicode="I" horiz-adv-x="284" 
d="M156 0h-115l99 724h115z" />
    <glyph glyph-name="J" unicode="J" horiz-adv-x="514" 
d="M303 184l74 540h115l-73 -539q-14 -104 -71 -150.5t-153 -46.5q-91 0 -141 44t-51 136l110 18q5 -53 22.5 -80t63.5 -27q44 0 70 23t34 82z" />
    <glyph glyph-name="K" unicode="K" horiz-adv-x="640" 
d="M255 724l-46 -338l337 338h134l-312 -311l218 -413h-131l-178 332l-87 -85l-35 -247h-114l99 724h115z" />
    <glyph glyph-name="L" unicode="L" horiz-adv-x="545" 
d="M468 0h-427l99 724h115l-86 -628h312z" />
    <glyph glyph-name="M" unicode="M" horiz-adv-x="882" 
d="M854 724l-99 -724h-109l84 606h-3l-275 -606h-113l-106 607h-3l-83 -607h-106l99 724h173l101 -588h3l264 588h173z" />
    <glyph glyph-name="N" unicode="N" horiz-adv-x="726" 
d="M598 0h-135l-237 576l-79 -576h-106l99 724h145l229 -573l79 573h105z" />
    <glyph glyph-name="O" unicode="O" horiz-adv-x="742" 
d="M328 -12q-146 0 -216.5 82t-70.5 220q0 196 102 321.5t287 125.5q143 0 212 -82t69 -216q0 -203 -101 -327t-282 -124zM340 83q116 0 183 97.5t67 251.5q0 46 -11 87q-32 123 -161 123q-120 0 -188.5 -95.5t-68.5 -250.5q0 -48 11 -87q32 -126 168 -126z" />
    <glyph glyph-name="P" unicode="P" horiz-adv-x="603" 
d="M190 255l-35 -255h-114l99 724h236q113 0 165.5 -51.5t52.5 -132.5q0 -140 -79.5 -212.5t-230.5 -72.5h-94zM202 347h84q88 0 137.5 39t49.5 138q0 61 -38 84.5t-112 23.5h-81z" />
    <glyph glyph-name="Q" unicode="Q" horiz-adv-x="742" 
d="M326 -12q-146 0 -216 82t-70 220q0 196 102 321.5t287 125.5q143 0 211.5 -82t68.5 -216q0 -149 -56 -258.5t-161 -158.5q72 -89 183 -93l-24 -92q-78 -1 -150 45t-110 111q-35 -5 -65 -5zM338 83q116 0 183 97.5t67 251.5q0 46 -11 87q-32 123 -161 123
q-119 0 -187.5 -95.5t-68.5 -250.5q0 -45 10 -87q34 -126 168 -126z" />
    <glyph glyph-name="R" unicode="R" horiz-adv-x="622" 
d="M441 323l124 -323h-125l-111 295h-134l-40 -295h-114l99 724h247q114 0 164.5 -49t50.5 -127q0 -86 -40.5 -140t-120.5 -85zM208 384h95q178 0 178 154q0 52 -33.5 73.5t-99.5 21.5h-106z" />
    <glyph glyph-name="S" unicode="S" horiz-adv-x="577" 
d="M563 529l-109 -12q1 61 -24.5 96t-93.5 35q-72 0 -108 -32.5t-36 -84.5q0 -24 9.5 -42t32.5 -31.5t40 -20.5t52 -18q94 -32 127 -54q74 -49 74 -142q0 -115 -80.5 -175t-195.5 -60q-248 0 -251 214l108 16q5 -64 36 -102t109 -38q67 0 111 29.5t44 97.5q0 47 -33 70
t-99 43l-41.5 13t-38.5 14t-40 19l-31.5 24t-28.5 32.5t-15.5 41t-7.5 53.5q0 101 77.5 161.5t192.5 60.5q49 0 88.5 -10.5t70.5 -34t47 -65t14 -98.5z" />
    <glyph glyph-name="T" unicode="T" horiz-adv-x="558" 
d="M293 0h-115l86 628h-212l13 96h537l-13 -96h-210z" />
    <glyph glyph-name="U" unicode="U" horiz-adv-x="696" 
d="M672 724l-65 -475q-36 -261 -301 -261q-141 0 -198 67t-39 201l65 468h115l-63 -461q-13 -96 17 -138.5t111 -42.5q82 0 124.5 41t55.5 137l63 464h115z" />
    <glyph glyph-name="V" unicode="V" horiz-adv-x="623" 
d="M348 0h-157l-134 724h124l103 -615h3l261 615h122z" />
    <glyph glyph-name="W" unicode="W" horiz-adv-x="913" 
d="M696 0h-147l-58 564h-2l-213 -564h-149l-54 724h120l30 -598h2l225 598h126l64 -604h2l188 604h115z" />
    <glyph glyph-name="X" unicode="X" horiz-adv-x="620" 
d="M569 0h-132l-140 277l-207 -277h-127l281 370l-169 354h128l126 -273l202 273h121l-270 -357z" />
    <glyph glyph-name="Y" unicode="Y" horiz-adv-x="564" 
d="M340 279l-39 -279h-116l39 278l-181 446h120l130 -341h2l215 341h121z" />
    <glyph glyph-name="Z" unicode="Z" horiz-adv-x="568" 
d="M497 0h-509l11 80l433 550h-348l13 94h485l-12 -82l-428 -548h369z" />
    <glyph glyph-name="bracketleft" unicode="[" horiz-adv-x="290" 
d="M188 -143h-191l121 867h192l-11 -75h-81l-101 -717h81z" />
    <glyph glyph-name="backslash" unicode="\" horiz-adv-x="405" 
d="M342 -92h-105l-161 847h104z" />
    <glyph glyph-name="bracketright" unicode="]" horiz-adv-x="290" 
d="M83 724h191l-121 -867h-192l11 75h81l101 717h-81z" />
    <glyph glyph-name="asciicircum" unicode="^" horiz-adv-x="616" 
d="M564 299h-112l-148 267l-145 -267h-109l197 365h117z" />
    <glyph glyph-name="underscore" unicode="_" horiz-adv-x="500" 
d="M480 -181h-500v83h500v-83z" />
    <glyph glyph-name="grave" unicode="`" horiz-adv-x="499" 
d="M429 583l-81 -11l-113 174h129z" />
    <glyph glyph-name="a" unicode="a" horiz-adv-x="598" 
d="M541 517l-58 -409q-3 -23 1.5 -32.5t22.5 -9.5q12 0 33 6l-8 -67q-30 -13 -72 -13q-81 0 -85 73q-69 -77 -171 -77q-79 0 -124.5 49.5t-45.5 151.5q0 146 68 242t184 96q80 0 140 -54l8 44h107zM374 140l35 253q-44 42 -107 42q-40 0 -71 -23t-47 -59.5t-23.5 -75
t-7.5 -76.5q0 -123 91 -123q63 0 130 62z" />
    <glyph glyph-name="b" unicode="b" horiz-adv-x="588" 
d="M131 0h-104l106 755h113l-42 -301q89 73 177 73q159 0 159 -197q0 -168 -70.5 -255t-174.5 -87q-89 0 -151 60h-1l-1 -1zM194 371l-34 -245q51 -45 113 -45q51 0 84.5 34t47.5 85.5t14 117.5q0 117 -83 117q-33 0 -74 -20.5t-68 -43.5z" />
    <glyph glyph-name="c" unicode="c" horiz-adv-x="539" 
d="M248 -12q-108 0 -162 59.5t-54 159.5q0 150 78 235t207 85q95 0 144.5 -56.5t41.5 -148.5l-103 -8q3 60 -17.5 92.5t-74.5 32.5q-65 0 -110 -53.5t-45 -173.5q0 -136 106 -136q96 0 126 104l97 -18q-22 -88 -84 -131t-150 -43z" />
    <glyph glyph-name="d" unicode="d" horiz-adv-x="582" 
d="M470 0h-99l5 58h-1q-81 -70 -170 -70q-80 0 -125 49t-45 149q0 90 22.5 158t60 106.5t81 57.5t90.5 19q80 0 137 -52l39 280h111zM375 135l36 262q-47 40 -102 40q-54 0 -90.5 -37t-50.5 -89t-14 -115q0 -108 78 -115q25 -3 52 5q51 13 91 49z" />
    <glyph glyph-name="e" unicode="e" horiz-adv-x="523" 
d="M241 -12q-109 0 -158.5 62t-49.5 163q0 137 77.5 225.5t204.5 88.5q86 0 129.5 -38.5t43.5 -98.5q0 -107 -125 -153q-69 -25 -212 -34q0 -58 22.5 -93t86.5 -35q46 0 75.5 24.5t41.5 64.5l93 -22q-22 -75 -82.5 -114.5t-146.5 -39.5zM307 445q-64 0 -103 -44.5
t-48 -116.5q94 4 146 20q77 24 77 80q0 30 -19 45.5t-53 15.5z" />
    <glyph glyph-name="f" unicode="f" horiz-adv-x="337" 
d="M420 746l-16 -81q-38 14 -72 14q-37 0 -59 -19t-29 -70l-11 -73h141l-11 -82h-141l-91 -647h-115l91 647h-74l12 82h73l11 78q24 170 188 170q65 0 103 -19z" />
    <glyph glyph-name="g" unicode="g" horiz-adv-x="573" 
d="M298 435q-40 0 -70 -21t-46 -55t-23.5 -70.5t-7.5 -74.5q0 -116 88 -116q72 0 134 59l32 236q-17 18 -46.5 30t-60.5 12zM353 -16l14 90q-30 -30 -75.5 -48.5t-93.5 -18.5q-77 0 -122 48.5t-45 147.5q0 57 14 112t42 103.5t79 78.5t117 30q89 0 141 -59l9 49h104
l-75 -531q-29 -209 -254 -209q-198 0 -213 167l107 17q4 -47 27.5 -71.5t80.5 -24.5q124 0 143 119z" />
    <glyph glyph-name="h" unicode="h" horiz-adv-x="582" 
d="M194 365l-52 -365h-115l106 755h114l-45 -306q89 78 183 78q161 0 137 -176l-49 -351h-115l47 335q14 98 -63 98q-61 0 -148 -68z" />
    <glyph glyph-name="i" unicode="i" horiz-adv-x="256" 
d="M215 517l-73 -517h-115l73 517h115zM257 692q0 -40 -23.5 -63.5t-63.5 -23.5q-31 0 -48 16.5t-17 45.5q0 40 23 63t63 23q32 0 49 -16t17 -45z" />
    <glyph glyph-name="j" unicode="j" horiz-adv-x="255" 
d="M19 -55l81 572h115l-82 -577q-22 -163 -179 -163q-30 0 -63 7.5t-46 16.5l22 81q36 -15 74 -15q32 0 52 17t26 61zM256 692q0 -41 -23 -64t-63 -23q-31 0 -48.5 16.5t-17.5 45.5q0 40 23.5 63t62.5 23q66 0 66 -61z" />
    <glyph glyph-name="k" unicode="k" horiz-adv-x="537" 
d="M486 0h-127l-112 257l-78 -69l-27 -188h-115l106 755h115l-63 -447l228 209h132l-202 -187z" />
    <glyph glyph-name="l" unicode="l" horiz-adv-x="256" 
d="M27 0l106 755h115l-106 -755h-115z" />
    <glyph glyph-name="m" unicode="m" horiz-adv-x="861" 
d="M376 527q100 0 119 -78q91 78 180 78q80 0 108.5 -44.5t16.5 -129.5l-49 -353h-115l48 336q3 26 2 41q0 28 -13 41.5t-42 13.5q-57 0 -130 -63l-52 -369h-115l48 336q4 30 2 41q1 55 -52 55q-61 0 -138 -66l-52 -366h-115l73 517h106l-10 -72h1q94 82 179 82z" />
    <glyph glyph-name="n" unicode="n" horiz-adv-x="582" 
d="M194 366l-52 -366h-115l73 517h108l-10 -70h1q87 80 189 80q76 0 111.5 -44t22.5 -132l-49 -351h-115l47 335q14 98 -61 98q-68 0 -150 -67z" />
    <glyph glyph-name="o" unicode="o" horiz-adv-x="581" 
d="M247 -12q-109 0 -162 55.5t-53 155.5q0 36 4 65q17 121 90.5 192t196.5 71q109 0 159 -57.5t50 -152.5q0 -32 -4 -65q-16 -124 -87 -194t-194 -70zM257 71q62 0 102 46t51 139q4 31 4 60q0 124 -105 124q-63 0 -104.5 -44.5t-52.5 -136.5q-3 -30 -3 -57q0 -131 108 -131z
" />
    <glyph glyph-name="p" unicode="p" horiz-adv-x="588" 
d="M208 517l-10 -67l1 -1q87 78 182 78q159 0 159 -197q0 -170 -72.5 -256t-180.5 -86q-85 0 -142 53l-36 -253h-111l103 729h107zM419 318q0 62 -19 89.5t-61 27.5q-34 0 -75.5 -20t-69.5 -43l-34 -246q49 -46 108 -46q80 0 115.5 68t35.5 170z" />
    <glyph glyph-name="q" unicode="q" horiz-adv-x="580" 
d="M290 527q85 0 139 -57l8 47h105l-102 -729h-109l38 265q-80 -65 -165 -65q-80 0 -125 49t-45 148q0 90 22.5 158.5t60 107t81 57.5t92.5 19zM153 203q0 -123 89 -123q70 0 132 56l37 263q-40 38 -102 38q-79 0 -117.5 -67t-38.5 -167z" />
    <glyph glyph-name="r" unicode="r" horiz-adv-x="378" 
d="M191 348l-49 -348h-115l73 517h106l-12 -87h1q42 48 80.5 72t89.5 24q16 0 25 -1l-16 -111q-93 8 -183 -66z" />
    <glyph glyph-name="s" unicode="s" horiz-adv-x="492" 
d="M269 527q88 0 135 -41.5t53 -113.5l-96 -17q-9 93 -96 93q-48 0 -70.5 -19t-22.5 -48q0 -17 7.5 -29.5t25.5 -21.5t31.5 -13l41.5 -12q28 -7 44.5 -12.5t40 -17t36.5 -25.5t23 -37.5t10 -53.5q0 -81 -61 -126t-160 -45q-184 0 -199 154l94 21q13 -96 112 -96
q43 0 72.5 17.5t29.5 55.5q0 18 -7.5 31t-24.5 22.5t-30.5 14t-40.5 11.5q-30 8 -45 12.5t-40 16.5t-37.5 25.5t-22.5 37t-10 54.5q0 80 60.5 121t146.5 41z" />
    <glyph glyph-name="t" unicode="t" horiz-adv-x="393" 
d="M330 99l14 -77q-58 -34 -134 -34q-162 0 -140 159l41 288h-79l11 82h79l22 149l117 17l-24 -166h140l-11 -82h-140l-39 -276q-6 -43 5 -63.5t50 -20.5q42 0 88 24z" />
    <glyph glyph-name="u" unicode="u" horiz-adv-x="579" 
d="M371 145l51 372h115l-72 -517h-102l8 66q0 1 -1 1q-33 -32 -83 -55t-103 -23q-78 0 -113 45.5t-23 132.5l48 350h115l-46 -336q-4 -24 -1 -42q1 -58 65 -58q68 0 142 64z" />
    <glyph glyph-name="v" unicode="v" horiz-adv-x="515" 
d="M278 0h-133l-112 517h123l72 -408h2l185 408h119z" />
    <glyph glyph-name="w" unicode="w" horiz-adv-x="778" 
d="M249 0h-137l-79 517h114l51 -402l160 402h118l49 -400l159 400h113l-224 -517h-132l-45 384z" />
    <glyph glyph-name="x" unicode="x" horiz-adv-x="495" 
d="M440 0h-121l-94 185l-138 -185h-117l204 267l-134 250h120l91 -178l135 178h117l-200 -256z" />
    <glyph glyph-name="y" unicode="y" horiz-adv-x="497" 
d="M146 -7l-113 524h122l65 -396h2l177 396h119l-271 -551q-55 -110 -96.5 -149.5t-115.5 -39.5q-57 0 -97 20l20 81q39 -15 71 -15q35 0 58.5 27.5t58.5 102.5z" />
    <glyph glyph-name="z" unicode="z" horiz-adv-x="459" 
d="M389 0h-402l11 76l310 357h-258l12 84h387l-12 -77l-305 -352h270z" />
    <glyph glyph-name="braceleft" unicode="{" horiz-adv-x="318" 
d="M6 329h18q62 0 78 60q8 31 13 106.5t6 86.5q9 85 48.5 120t127.5 35h51l-11 -80h-32q-31 0 -45 -14.5t-18 -47.5l-3 -47t-4.5 -59t-5.5 -48q-9 -73 -30.5 -102t-65.5 -46v-2q31 -12 47 -32t16 -59q0 -38 -21 -116t-21 -105q0 -45 55 -45h24l-11 -79h-63q-118 0 -127 87
q-2 14 0 30q2 34 21.5 109.5t19.5 110.5q0 62 -58 62h-20z" />
    <glyph glyph-name="bar" unicode="|" horiz-adv-x="280" 
d="M128 -143h-104l126 898h104z" />
    <glyph glyph-name="braceright" unicode="}" horiz-adv-x="318" 
d="M288 263h-18q-62 0 -78 -60q-8 -31 -13 -106.5t-6 -86.5q-9 -85 -48.5 -120t-127.5 -35h-51l11 80h32q31 0 45 14.5t18 47.5l3 47t4.5 59t5.5 48q9 73 30.5 102t65.5 46v2q-31 12 -47 32t-16 59q0 38 21 116t21 105q0 45 -55 45h-24l11 79h63q118 0 127 -87q2 -14 0 -30
q-2 -34 -21.5 -109.5t-19.5 -110.5q0 -62 58 -62h20z" />
    <glyph glyph-name="asciitilde" unicode="~" horiz-adv-x="550" 
d="M170 430q34 0 126 -22.5t112 -22.5q19 0 27 10t8 39l67 -4q7 -61 -17.5 -95.5t-73.5 -34.5q-35 0 -128.5 22.5t-112.5 22.5q-37 0 -33 -52l-70 3q-7 62 19.5 98t75.5 36z" />
    <glyph glyph-name="uni00A0" unicode="&#xa0;" horiz-adv-x="198" 
 />
    <glyph glyph-name="exclamdown" unicode="&#xa1;" horiz-adv-x="276" 
d="M98 324h91l-56 -533h-127zM85 446q0 81 87 81q67 0 67 -57q0 -82 -87 -82q-67 0 -67 58z" />
    <glyph glyph-name="cent" unicode="&#xa2;" horiz-adv-x="524" 
d="M283 704h85l-15 -102q67 -11 105 -60.5t33 -120.5l-102 -7q2 84 -49 103l-48 -321q62 15 84 91l94 -17q-17 -70 -67.5 -111t-121.5 -50l-15 -109h-88l16 112q-76 13 -114.5 64.5t-38.5 133.5q0 128 62 206t166 91zM157 313q0 -91 56 -114l47 318q-103 -34 -103 -204z" />
    <glyph glyph-name="sterling" unicode="&#xa3;" horiz-adv-x="574" 
d="M-12 88h55q101 80 101 167q0 31 -11 64h-101l12 85h72q-25 62 -25 120q0 95 70.5 154t183.5 59q209 0 206 -198l-105 -8q-1 59 -23 89t-81 30q-61 0 -98 -32.5t-37 -96.5q0 -44 26 -117h214l-12 -85h-187q7 -24 7 -55q0 -96 -95 -176h148q58 0 86.5 24t45.5 83l97 -17
q-19 -93 -75 -135.5t-155 -42.5h-331z" />
    <glyph glyph-name="currency" unicode="&#xa4;" 
d="M521 69l-74 -67l-85 88q-56 -35 -128 -35q-77 0 -127 37l-94 -90l-60 66l98 93q-24 42 -24 107q0 67 36 126l-86 90l74 68l82 -87q58 40 134 40q78 0 129 -37l88 83l59 -66l-91 -87q22 -44 22 -100q0 -74 -40 -138zM246 143q59 0 92 41t33 104q0 61 -29.5 94.5
t-86.5 33.5q-60 0 -92.5 -39.5t-32.5 -103.5q0 -58 29 -94t87 -36z" />
    <glyph glyph-name="yen" unicode="&#xa5;" horiz-adv-x="548" 
d="M439 178h-134l-25 -178h-117l24 178h-125l10 83h127l11 79l-1 1h-126l13 83h80l-121 300h124l103 -289h2l169 289h122l-194 -300h92l-13 -83h-132l-12 -80h134z" />
    <glyph glyph-name="brokenbar" unicode="&#xa6;" horiz-adv-x="280" 
d="M128 -143h-104l55 388h104zM206 414h-104l48 341h104z" />
    <glyph glyph-name="section" unicode="&#xa7;" horiz-adv-x="562" 
d="M341 628q-56 0 -88.5 -28.5t-32.5 -72.5q0 -37 30 -61t73 -37t86 -28t73 -47.5t30 -82.5q0 -51 -29.5 -91.5t-88.5 -80.5q48 -42 48 -106q0 -97 -65 -152t-166 -55q-97 0 -152 45.5t-56 136.5l104 12q2 -111 106 -111q51 0 82.5 27.5t31.5 71.5q0 38 -30.5 61t-73.5 36
t-86 28t-73.5 49t-30.5 87q0 49 28 87t90 79q-47 44 -47 111q0 96 69.5 149.5t173.5 53.5q95 0 147 -46t47 -136l-105 -12q3 57 -19.5 85t-75.5 28zM143 255q0 -25 18.5 -43.5t40.5 -26.5t63 -20.5t62 -21.5q75 44 75 101q0 24 -19 41t-42 25t-63 20t-63 22q-72 -45 -72 -97
z" />
    <glyph glyph-name="dieresis" unicode="&#xa8;" horiz-adv-x="499" 
d="M181 669q0 35 23.5 56.5t60.5 21.5q30 0 47 -16t17 -43q0 -35 -23.5 -56.5t-59.5 -21.5q-30 0 -47.5 16t-17.5 43zM400 669q0 35 24 56.5t61 21.5q30 0 47 -16t17 -43q0 -35 -23.5 -56.5t-59.5 -21.5q-30 0 -48 16t-18 43z" />
    <glyph glyph-name="copyright" unicode="&#xa9;" horiz-adv-x="784" 
d="M737 331q0 -154 -95 -248.5t-248 -94.5q-164 0 -253 91.5t-89 236.5q0 156 98 249t246 93q157 0 249 -89t92 -238zM396 50q127 0 199.5 73.5t72.5 201.5q0 129 -75 200t-197 71q-120 0 -196.5 -74.5t-76.5 -204.5q0 -125 72.5 -196t200.5 -71zM493 269l62 -10
q-5 -37 -21.5 -63.5t-40 -40t-46.5 -19.5t-48 -6q-92 0 -136 53t-44 142q0 87 48 140.5t134 53.5q63 0 104 -32t45 -98l-65 -8q-7 81 -86 81q-48 0 -77.5 -33.5t-29.5 -105.5q0 -60 25.5 -98t79.5 -38q44 0 65.5 20.5t30.5 61.5z" />
    <glyph glyph-name="ordfeminine" unicode="&#xaa;" horiz-adv-x="420" 
d="M401 619l-39 -260q-3 -27 16 -27q10 0 23 4l-6 -50q-24 -10 -57 -10q-57 0 -63 45q-45 -47 -112 -47q-54 0 -85.5 32.5t-31.5 98.5q0 100 48 160t123 60q54 0 93 -35l5 29h86zM273 377l24 156q-27 23 -63 23q-48 0 -70 -44t-22 -97q0 -72 57 -72q40 0 74 34z" />
    <glyph glyph-name="guillemotleft" unicode="&#xab;" horiz-adv-x="449" 
d="M204 103h-98l-64 155l110 150h98l-107 -147zM374 103h-98l-64 155l110 150h98l-107 -147z" />
    <glyph glyph-name="logicalnot" unicode="&#xac;" 
d="M461 183h-93l5 95h-288l8 95h381z" />
    <glyph glyph-name="uni00AD" unicode="&#xad;" horiz-adv-x="311" 
d="M278 243h-271l14 100h271z" />
    <glyph glyph-name="registered" unicode="&#xae;" horiz-adv-x="456" 
d="M433 477q0 -84 -52.5 -136t-136.5 -52q-90 0 -139 50t-49 130q0 86 54 138t135 52q87 0 137.5 -49.5t50.5 -132.5zM388 474q0 68 -39.5 105.5t-103.5 37.5q-62 0 -102.5 -39.5t-40.5 -106.5q0 -65 38.5 -102.5t104.5 -37.5t104.5 38.5t38.5 104.5zM285 469l51 -86h-46
l-44 73h-22v-73h-42v190h69q68 0 68 -54q0 -36 -34 -50zM224 488h14q38 0 38 28q0 25 -33 25h-19v-53z" />
    <glyph glyph-name="macron" unicode="&#xaf;" horiz-adv-x="500" 
d="M210 617l11 82h299l-11 -82h-299z" />
    <glyph glyph-name="degree" unicode="&#xb0;" horiz-adv-x="312" 
d="M184 579q24 0 38.5 15.5t15.5 41.5q1 25 -12.5 40t-36.5 15q-24 0 -39.5 -16.5t-15.5 -44.5q0 -24 13 -37.5t37 -13.5zM301 642q0 -54 -33.5 -87.5t-87.5 -33.5q-50 0 -79.5 28.5t-29.5 76.5q0 56 35.5 89t87.5 33q47 0 77 -28t30 -78z" />
    <glyph glyph-name="plusminus" unicode="&#xb1;" horiz-adv-x="569" 
d="M412 0h-381l13 95h381zM288 139h-98l20 136h-141l14 95h141l20 146h99l-21 -146h142l-14 -95h-142z" />
    <glyph glyph-name="twosuperior" unicode="&#xb2;" horiz-adv-x="369" 
d="M332 349h-301l12 82l118 113q70 66 90.5 92.5t20.5 53.5q0 40 -45 40q-49 0 -70 -65l-88 15q12 63 60.5 94t113.5 31t99 -28t34 -77q0 -50 -27.5 -87.5t-105.5 -103.5l-79 -75v-1h180z" />
    <glyph glyph-name="threesuperior" unicode="&#xb3;" horiz-adv-x="385" 
d="M252 805q62 0 97.5 -25.5t35.5 -72.5q0 -44 -30 -74.5t-74 -42.5v-3q82 -17 82 -96q0 -69 -47 -109t-130 -40q-140 0 -148 115l90 16q4 -58 60 -58q31 0 51.5 19t20.5 55q0 56 -66 56h-46l10 69h31q44 0 69 21t25 56q0 41 -46 41q-51 0 -69 -55l-88 16q35 112 172 112z
" />
    <glyph glyph-name="acute" unicode="&#xb4;" horiz-adv-x="500" 
d="M277 583l108 163h133l-162 -174z" />
    <glyph glyph-name="mu" unicode="&#xb5;" horiz-adv-x="596" 
d="M373 65q-33 -29 -79 -50t-90 -21q-43 0 -63 20l-32 -226h-111l103 729h112l-43 -315q-6 -48 -6 -62q0 -59 65 -59q72 0 144 64l51 372h115l-56 -396q-6 -17 -3.5 -36t25.5 -19q12 0 33 6l-8 -67q-28 -13 -68 -13q-42 0 -63.5 15t-25.5 58z" />
    <glyph glyph-name="paragraph" unicode="&#xb6;" horiz-adv-x="584" 
d="M558 724l-119 -857h-89l110 781h-76l-109 -781h-89l53 380q-89 7 -136 57.5t-47 135.5q0 75 25 131t70 89t100.5 48.5t121.5 15.5h185z" />
    <glyph glyph-name="periodcentered" unicode="&#xb7;" horiz-adv-x="211" 
d="M180 318q0 -81 -85 -81q-65 0 -65 57q0 81 85 81q65 0 65 -57z" />
    <glyph glyph-name="cedilla" unicode="&#xb8;" horiz-adv-x="499" 
d="M107 -218l19 58q31 -14 54 -14q25 0 39.5 12.5t14.5 33.5q0 22 -15.5 31t-48.5 10l33 117l61 -8l-19 -67q71 -14 71 -78q0 -54 -36.5 -83.5t-92.5 -29.5q-46 0 -80 18z" />
    <glyph glyph-name="onesuperior" unicode="&#xb9;" horiz-adv-x="318" 
d="M236 348h-102l50 332q-16 -8 -49.5 -13t-53.5 -5v80q99 9 150 54h70z" />
    <glyph glyph-name="ordmasculine" unicode="&#xba;" horiz-adv-x="404" 
d="M195 274q-150 0 -150 146q0 88 53.5 146.5t147.5 58.5q146 0 146 -145q0 -87 -51 -146.5t-146 -59.5zM203 339q80 0 92 109q3 22 3 39q0 74 -63 74q-81 0 -95 -110q-2 -26 -2 -37q0 -75 65 -75z" />
    <glyph glyph-name="guillemotright" unicode="&#xbb;" horiz-adv-x="448" 
d="M111 103h-99l109 154l-65 151h97l66 -154zM281 103h-99l109 154l-65 151h97l66 -154z" />
    <glyph glyph-name="onequarter" unicode="&#xbc;" horiz-adv-x="945" 
d="M223 280h-102l50 332q-16 -8 -49.5 -13t-53.5 -5v80q99 9 150 54h70zM262 -12h-107l460 736h105zM791 0h-99l16 99h-209l9 68l223 281h126l-40 -271h52l-11 -78h-52zM597 177h122l29 188z" />
    <glyph glyph-name="onehalf" unicode="&#xbd;" horiz-adv-x="945" 
d="M231 280h-102l50 332q-16 -8 -49.5 -13t-53.5 -5v80q99 9 150 54h70zM252 -12h-107l460 736h105zM820 0h-301l12 82l118 113q70 66 90.5 92.5t20.5 53.5q0 40 -45 40q-49 0 -70 -65l-88 15q12 63 60.5 94t113.5 31t99 -28t34 -77q0 -50 -27.5 -87.5t-105.5 -103.5
l-79 -75v-1h180z" />
    <glyph glyph-name="threequarters" unicode="&#xbe;" horiz-adv-x="945" 
d="M316 -12h-107l460 736h105zM824 0h-99l16 99h-209l9 68l223 281h126l-40 -271h52l-11 -78h-52zM630 177h122l29 188zM251 737q62 0 97.5 -25.5t35.5 -72.5q0 -44 -30 -74.5t-74 -42.5v-3q82 -17 82 -96q0 -69 -47 -109t-130 -40q-140 0 -148 115l90 16q4 -58 60 -58
q31 0 51.5 19t20.5 55q0 56 -66 56h-46l10 69h31q44 0 69 21t25 56q0 41 -46 41q-51 0 -69 -55l-88 16q35 112 172 112z" />
    <glyph glyph-name="questiondown" unicode="&#xbf;" horiz-adv-x="507" 
d="M193 -214q-88 0 -145.5 43t-57.5 133q0 209 249 254l15 109h112l-25 -180q-39 -3 -68.5 -8.5t-61.5 -17.5t-53 -29.5t-34.5 -47t-13.5 -68.5q0 -49 27 -73t73 -24q104 0 135 111l107 -18q-22 -86 -86.5 -135t-172.5 -49zM254 446q0 81 86 81q67 0 67 -57q0 -82 -87 -82
q-66 0 -66 58z" />
    <glyph glyph-name="Agrave" unicode="&#xc0;" horiz-adv-x="664" 
d="M309 724h148l147 -724h-123l-39 204h-254l-92 -204h-121zM429 296l-59 325h-1l-146 -325h206zM265 914h129l76 -136l-83 -11z" />
    <glyph glyph-name="Aacute" unicode="&#xc1;" horiz-adv-x="664" 
d="M309 724h148l147 -724h-123l-39 204h-254l-92 -204h-121zM429 296l-59 325h-1l-146 -325h206zM305 778l111 136h134l-163 -147z" />
    <glyph glyph-name="Acircumflex" unicode="&#xc2;" horiz-adv-x="664" 
d="M309 724h148l147 -724h-123l-39 204h-254l-92 -204h-121zM429 296l-59 325h-1l-146 -325h206zM551 776l-82 -7l-69 76l-91 -78l-83 9l131 133h103z" />
    <glyph glyph-name="Atilde" unicode="&#xc3;" horiz-adv-x="664" 
d="M309 724h148l147 -724h-123l-39 204h-254l-92 -204h-121zM429 296l-59 325h-1l-146 -325h206zM336 911q34 0 75.5 -22.5t61.5 -22.5q18 0 28 11t14 38l63 -3q-2 -61 -31 -94t-74 -33q-35 0 -78 23t-63 23q-35 0 -39 -52l-66 3q3 61 33.5 95t75.5 34z" />
    <glyph glyph-name="Adieresis" unicode="&#xc4;" horiz-adv-x="664" 
d="M309 724h148l147 -724h-123l-39 204h-254l-92 -204h-121zM429 296l-59 325h-1l-146 -325h206zM214 837q0 35 23.5 56.5t60.5 21.5q30 0 47 -16t17 -43q0 -35 -23 -56.5t-60 -21.5q-30 0 -47.5 15.5t-17.5 43.5zM433 837q0 35 24 56.5t61 21.5q30 0 47 -16t17 -43
q0 -35 -23 -56.5t-60 -21.5q-30 0 -48 15.5t-18 43.5z" />
    <glyph glyph-name="Aring" unicode="&#xc5;" horiz-adv-x="664" 
d="M504 819q0 -64 -47 -98l147 -721h-123l-39 204h-254l-92 -204h-121l331 719q-29 24 -29 67q0 56 38 89t91 33q43 0 70.5 -23t27.5 -66zM429 296l-59 325h-1l-146 -325h206zM383 754q27 0 42 15t15 43q0 39 -43 39q-25 0 -40.5 -15t-15.5 -43q0 -39 42 -39z" />
    <glyph glyph-name="AE" unicode="&#xc6;" horiz-adv-x="980" 
d="M896 0h-442l42 307h-199l-201 -307h-122l479 724h530l-13 -94h-312l-32 -228h292l-13 -93h-292l-30 -215h326zM509 399l33 231h-41l-154 -231h162z" />
    <glyph glyph-name="Ccedilla" unicode="&#xc7;" horiz-adv-x="680" 
d="M201 -218l19 58q31 -14 54 -14q25 0 39.5 12.5t14.5 33.5q0 22 -15.5 31t-48.5 10l21 77q-123 9 -183.5 86.5t-60.5 206.5q0 209 104.5 331.5t281.5 122.5q120 0 185.5 -67t58.5 -190l-107 -11q5 174 -145 174q-118 0 -187.5 -91.5t-69.5 -260.5q0 -210 174 -210
q76 0 120 36t71 109l102 -19q-30 -107 -104 -159t-176 -59l-9 -34q70 -14 70 -78q0 -54 -36 -83.5t-93 -29.5q-44 0 -80 18z" />
    <glyph glyph-name="Egrave" unicode="&#xc8;" horiz-adv-x="565" 
d="M483 0h-442l99 724h428l-13 -94h-313l-29 -221h293l-13 -92h-294l-30 -223h327zM236 914h129l76 -136l-83 -11z" />
    <glyph glyph-name="Eacute" unicode="&#xc9;" horiz-adv-x="565" 
d="M483 0h-442l99 724h428l-13 -94h-313l-29 -221h293l-13 -92h-294l-30 -223h327zM276 778l111 136h134l-163 -147z" />
    <glyph glyph-name="Ecircumflex" unicode="&#xca;" horiz-adv-x="565" 
d="M483 0h-442l99 724h428l-13 -94h-313l-29 -221h293l-13 -92h-294l-30 -223h327zM522 776l-82 -7l-69 76l-91 -78l-83 9l131 133h103z" />
    <glyph glyph-name="Edieresis" unicode="&#xcb;" horiz-adv-x="565" 
d="M483 0h-442l99 724h428l-13 -94h-313l-29 -221h293l-13 -92h-294l-30 -223h327zM185 837q0 35 23.5 56.5t60.5 21.5q30 0 47 -16t17 -43q0 -35 -23 -56.5t-60 -21.5q-30 0 -47.5 15.5t-17.5 43.5zM404 837q0 35 24 56.5t61 21.5q30 0 47 -16t17 -43q0 -35 -23 -56.5
t-60 -21.5q-30 0 -48 15.5t-18 43.5z" />
    <glyph glyph-name="Igrave" unicode="&#xcc;" horiz-adv-x="284" 
d="M156 0h-115l99 724h115zM78 914h129l76 -136l-83 -11z" />
    <glyph glyph-name="Iacute" unicode="&#xcd;" horiz-adv-x="284" 
d="M156 0h-115l99 724h115zM118 778l111 136h134l-163 -147z" />
    <glyph glyph-name="Icircumflex" unicode="&#xce;" horiz-adv-x="284" 
d="M156 0h-115l99 724h115zM364 776l-82 -7l-69 76l-91 -78l-83 9l131 133h103z" />
    <glyph glyph-name="Idieresis" unicode="&#xcf;" horiz-adv-x="284" 
d="M156 0h-115l99 724h115zM27 837q0 35 23.5 56.5t60.5 21.5q30 0 47 -16t17 -43q0 -35 -23 -56.5t-60 -21.5q-30 0 -47.5 15.5t-17.5 43.5zM246 837q0 35 24 56.5t61 21.5q30 0 47 -16t17 -43q0 -35 -23 -56.5t-60 -21.5q-30 0 -48 15.5t-18 43.5z" />
    <glyph glyph-name="Eth" unicode="&#xd0;" horiz-adv-x="721" 
d="M263 0h-213l44 326h-74l12 90h75l42 308h230q156 0 232 -76t76 -214q0 -196 -107 -315t-317 -119zM178 92h94q144 0 220 86.5t76 253.5q0 108 -52.5 154.5t-157.5 46.5h-106l-30 -217h195l-12 -90h-195z" />
    <glyph glyph-name="Ntilde" unicode="&#xd1;" horiz-adv-x="726" 
d="M598 0h-135l-237 576l-79 -576h-106l99 724h145l229 -573l79 573h105zM376 911q34 0 75.5 -22.5t61.5 -22.5q18 0 28 11t14 38l63 -3q-2 -61 -31 -94t-74 -33q-35 0 -78 23t-63 23q-35 0 -39 -52l-66 3q3 61 33.5 95t75.5 34z" />
    <glyph glyph-name="Ograve" unicode="&#xd2;" horiz-adv-x="742" 
d="M328 -12q-146 0 -216.5 82t-70.5 220q0 196 102 321.5t287 125.5q143 0 212 -82t69 -216q0 -203 -101 -327t-282 -124zM340 83q116 0 183 97.5t67 251.5q0 46 -11 87q-32 123 -161 123q-120 0 -188.5 -95.5t-68.5 -250.5q0 -48 11 -87q32 -126 168 -126zM311 914h129
l76 -136l-83 -11z" />
    <glyph glyph-name="Oacute" unicode="&#xd3;" horiz-adv-x="742" 
d="M328 -12q-146 0 -216.5 82t-70.5 220q0 196 102 321.5t287 125.5q143 0 212 -82t69 -216q0 -203 -101 -327t-282 -124zM340 83q116 0 183 97.5t67 251.5q0 46 -11 87q-32 123 -161 123q-120 0 -188.5 -95.5t-68.5 -250.5q0 -48 11 -87q32 -126 168 -126zM351 778l111 136
h134l-163 -147z" />
    <glyph glyph-name="Ocircumflex" unicode="&#xd4;" horiz-adv-x="742" 
d="M328 -12q-146 0 -216.5 82t-70.5 220q0 196 102 321.5t287 125.5q143 0 212 -82t69 -216q0 -203 -101 -327t-282 -124zM340 83q116 0 183 97.5t67 251.5q0 46 -11 87q-32 123 -161 123q-120 0 -188.5 -95.5t-68.5 -250.5q0 -48 11 -87q32 -126 168 -126zM597 776l-82 -7
l-69 76l-91 -78l-83 9l131 133h103z" />
    <glyph glyph-name="Otilde" unicode="&#xd5;" horiz-adv-x="742" 
d="M328 -12q-146 0 -216.5 82t-70.5 220q0 196 102 321.5t287 125.5q143 0 212 -82t69 -216q0 -203 -101 -327t-282 -124zM340 83q116 0 183 97.5t67 251.5q0 46 -11 87q-32 123 -161 123q-120 0 -188.5 -95.5t-68.5 -250.5q0 -48 11 -87q32 -126 168 -126zM382 911
q34 0 75.5 -22.5t61.5 -22.5q18 0 28 11t14 38l63 -3q-2 -61 -31 -94t-74 -33q-35 0 -78 23t-63 23q-35 0 -39 -52l-66 3q3 61 33.5 95t75.5 34z" />
    <glyph glyph-name="Odieresis" unicode="&#xd6;" horiz-adv-x="742" 
d="M328 -12q-146 0 -216.5 82t-70.5 220q0 196 102 321.5t287 125.5q143 0 212 -82t69 -216q0 -203 -101 -327t-282 -124zM340 83q116 0 183 97.5t67 251.5q0 46 -11 87q-32 123 -161 123q-120 0 -188.5 -95.5t-68.5 -250.5q0 -48 11 -87q32 -126 168 -126zM260 837
q0 35 23.5 56.5t60.5 21.5q30 0 47 -16t17 -43q0 -35 -23 -56.5t-60 -21.5q-30 0 -47.5 15.5t-17.5 43.5zM479 837q0 35 24 56.5t61 21.5q30 0 47 -16t17 -43q0 -35 -23 -56.5t-60 -21.5q-30 0 -48 15.5t-18 43.5z" />
    <glyph glyph-name="multiply" unicode="&#xd7;" 
d="M351 149l-88 103l-117 -103l-59 68l117 104l-88 104l79 69l87 -104l118 104l59 -69l-118 -104l89 -104z" />
    <glyph glyph-name="Oslash" unicode="&#xd8;" horiz-adv-x="742" 
d="M328 -12q-30 0 -60 5l-30 -71h-104l42 98q-135 70 -135 270q0 196 102 321.5t287 125.5q27 0 51 -3l24 55h104l-35 -82q137 -69 137 -268q0 -203 -101 -327t-282 -124zM340 83q116 0 183 97.5t67 251.5q0 46 -11 87q-16 56 -49 85l-223 -519q11 -2 33 -2zM172 209
q14 -55 48 -86l221 518q-7 1 -23 1q-120 0 -188.5 -95.5t-68.5 -250.5q0 -48 11 -87z" />
    <glyph glyph-name="Ugrave" unicode="&#xd9;" horiz-adv-x="696" 
d="M672 724l-65 -475q-36 -261 -301 -261q-141 0 -198 67t-39 201l65 468h115l-63 -461q-13 -96 17 -138.5t111 -42.5q82 0 124.5 41t55.5 137l63 464h115zM284 914h129l76 -136l-83 -11z" />
    <glyph glyph-name="Uacute" unicode="&#xda;" horiz-adv-x="696" 
d="M672 724l-65 -475q-36 -261 -301 -261q-141 0 -198 67t-39 201l65 468h115l-63 -461q-13 -96 17 -138.5t111 -42.5q82 0 124.5 41t55.5 137l63 464h115zM324 778l111 136h134l-163 -147z" />
    <glyph glyph-name="Ucircumflex" unicode="&#xdb;" horiz-adv-x="696" 
d="M672 724l-65 -475q-36 -261 -301 -261q-141 0 -198 67t-39 201l65 468h115l-63 -461q-13 -96 17 -138.5t111 -42.5q82 0 124.5 41t55.5 137l63 464h115zM570 776l-82 -7l-69 76l-91 -78l-83 9l131 133h103z" />
    <glyph glyph-name="Udieresis" unicode="&#xdc;" horiz-adv-x="696" 
d="M672 724l-65 -475q-36 -261 -301 -261q-141 0 -198 67t-39 201l65 468h115l-63 -461q-13 -96 17 -138.5t111 -42.5q82 0 124.5 41t55.5 137l63 464h115zM233 837q0 35 23.5 56.5t60.5 21.5q30 0 47 -16t17 -43q0 -35 -23 -56.5t-60 -21.5q-30 0 -47.5 15.5t-17.5 43.5z
M452 837q0 35 24 56.5t61 21.5q30 0 47 -16t17 -43q0 -35 -23 -56.5t-60 -21.5q-30 0 -48 15.5t-18 43.5z" />
    <glyph glyph-name="Yacute" unicode="&#xdd;" horiz-adv-x="564" 
d="M340 279l-39 -279h-116l39 278l-181 446h120l130 -341h2l215 341h121zM260 778l111 136h134l-163 -147z" />
    <glyph glyph-name="Thorn" unicode="&#xde;" horiz-adv-x="649" 
d="M230 147l-21 -147h-116l102 724h115l-16 -119h112q123 0 179.5 -53t56.5 -142q0 -131 -78 -197t-228 -66h-106zM243 239h85q92 0 141.5 34.5t49.5 128.5q0 111 -145 111h-92z" />
    <glyph glyph-name="germandbls" unicode="&#xdf;" horiz-adv-x="671" 
d="M116 -212h-114l102 740q32 239 280 239q101 0 156.5 -44.5t55.5 -120.5q0 -138 -139 -191v-3q149 -29 149 -180q0 -114 -58 -176.5t-164 -62.5q-80 0 -127 38.5t-56 112.5l97 23q12 -86 90 -86q102 0 102 141q0 138 -149 138h-38l12 83h16q74 0 110.5 42.5t36.5 104.5
q0 94 -104 94q-66 0 -104 -32.5t-50 -117.5z" />
    <glyph glyph-name="agrave" unicode="&#xe0;" horiz-adv-x="598" 
d="M541 517l-58 -409q-3 -23 1.5 -32.5t22.5 -9.5q12 0 33 6l-8 -67q-30 -13 -72 -13q-81 0 -85 73q-69 -77 -171 -77q-79 0 -124.5 49.5t-45.5 151.5q0 146 68 242t184 96q80 0 140 -54l8 44h107zM374 140l35 253q-44 42 -107 42q-40 0 -71 -23t-47 -59.5t-23.5 -75
t-7.5 -76.5q0 -123 91 -123q63 0 130 62zM409 583l-81 -11l-113 174h129z" />
    <glyph glyph-name="aacute" unicode="&#xe1;" horiz-adv-x="598" 
d="M541 517l-58 -409q-3 -23 1.5 -32.5t22.5 -9.5q12 0 33 6l-8 -67q-30 -13 -72 -13q-81 0 -85 73q-69 -77 -171 -77q-79 0 -124.5 49.5t-45.5 151.5q0 146 68 242t184 96q80 0 140 -54l8 44h107zM374 140l35 253q-44 42 -107 42q-40 0 -71 -23t-47 -59.5t-23.5 -75
t-7.5 -76.5q0 -123 91 -123q63 0 130 62zM257 583l108 163h133l-162 -174z" />
    <glyph glyph-name="acircumflex" unicode="&#xe2;" horiz-adv-x="598" 
d="M541 517l-58 -409q-3 -23 1.5 -32.5t22.5 -9.5q12 0 33 6l-8 -67q-30 -13 -72 -13q-81 0 -85 73q-69 -77 -171 -77q-79 0 -124.5 49.5t-45.5 151.5q0 146 68 242t184 96q80 0 140 -54l8 44h107zM374 140l35 253q-44 42 -107 42q-40 0 -71 -23t-47 -59.5t-23.5 -75
t-7.5 -76.5q0 -123 91 -123q63 0 130 62zM496 582l-81 -5l-68 107l-95 -109l-86 7l134 165h111z" />
    <glyph glyph-name="atilde" unicode="&#xe3;" horiz-adv-x="598" 
d="M541 517l-58 -409q-3 -23 1.5 -32.5t22.5 -9.5q12 0 33 6l-8 -67q-30 -13 -72 -13q-81 0 -85 73q-69 -77 -171 -77q-79 0 -124.5 49.5t-45.5 151.5q0 146 68 242t184 96q80 0 140 -54l8 44h107zM374 140l35 253q-44 42 -107 42q-40 0 -71 -23t-47 -59.5t-23.5 -75
t-7.5 -76.5q0 -123 91 -123q63 0 130 62zM274 721q34 0 75.5 -22.5t61.5 -22.5q19 0 28 11t14 38l63 -3q-5 -62 -32 -94.5t-73 -32.5q-35 0 -78 23t-63 23q-35 0 -40 -52l-66 3q5 62 35 95.5t75 33.5z" />
    <glyph glyph-name="adieresis" unicode="&#xe4;" horiz-adv-x="598" 
d="M541 517l-58 -409q-3 -23 1.5 -32.5t22.5 -9.5q12 0 33 6l-8 -67q-30 -13 -72 -13q-81 0 -85 73q-69 -77 -171 -77q-79 0 -124.5 49.5t-45.5 151.5q0 146 68 242t184 96q80 0 140 -54l8 44h107zM374 140l35 253q-44 42 -107 42q-40 0 -71 -23t-47 -59.5t-23.5 -75
t-7.5 -76.5q0 -123 91 -123q63 0 130 62zM161 669q0 35 23.5 56.5t60.5 21.5q30 0 47 -16t17 -43q0 -35 -23.5 -56.5t-59.5 -21.5q-30 0 -47.5 16t-17.5 43zM380 669q0 35 24 56.5t61 21.5q30 0 47 -16t17 -43q0 -35 -23.5 -56.5t-59.5 -21.5q-30 0 -48 16t-18 43z" />
    <glyph glyph-name="aring" unicode="&#xe5;" horiz-adv-x="598" 
d="M541 517l-58 -409q-3 -23 1.5 -32.5t22.5 -9.5q12 0 33 6l-8 -67q-30 -13 -72 -13q-81 0 -85 73q-69 -77 -171 -77q-79 0 -124.5 49.5t-45.5 151.5q0 146 68 242t184 96q80 0 140 -54l8 44h107zM374 140l35 253q-44 42 -107 42q-40 0 -71 -23t-47 -59.5t-23.5 -75
t-7.5 -76.5q0 -123 91 -123q63 0 130 62zM455 689q0 -54 -34.5 -85.5t-90.5 -31.5q-44 0 -70 22.5t-26 62.5q0 55 37 86.5t88 31.5q43 0 69.5 -22t26.5 -64zM337 626q26 0 40.5 15t14.5 41q0 38 -41 38q-24 0 -39.5 -14.5t-15.5 -41.5q0 -38 41 -38z" />
    <glyph glyph-name="ae" unicode="&#xe6;" horiz-adv-x="855" 
d="M574 -12q-120 0 -172 80q-91 -80 -197 -80q-78 0 -124.5 49.5t-46.5 151.5q0 146 68 242t184 96q80 0 140 -54l8 44h87l-6 -34q25 19 65 31.5t80 12.5q76 0 118 -39t42 -98q0 -35 -14.5 -64t-34.5 -47.5t-54.5 -32.5t-60 -21.5t-66.5 -12.5t-57.5 -6l-49.5 -3
q-1 -128 109 -128q43 0 74 23.5t43 65.5l93 -22q-23 -75 -83 -114.5t-145 -39.5zM373 139q-8 37 -8 74q0 103 45 180q-45 42 -108 42q-40 0 -71 -23t-47 -59.5t-23.5 -75t-7.5 -76.5q0 -123 91 -123q63 0 129 61zM639 445q-63 0 -102.5 -46t-48.5 -116q94 4 146 20
q77 24 77 81q0 30 -19 45.5t-53 15.5z" />
    <glyph glyph-name="ccedilla" unicode="&#xe7;" horiz-adv-x="539" 
d="M121 -218l19 58q31 -14 54 -14q25 0 39.5 12.5t14.5 33.5q0 22 -15.5 31t-48.5 10l22 78q-87 11 -130.5 68.5t-43.5 147.5q0 150 78 235t207 85q95 0 144.5 -56.5t41.5 -148.5l-103 -8q3 60 -17.5 92.5t-74.5 32.5q-65 0 -110 -53.5t-45 -173.5q0 -136 106 -136
q96 0 126 104l97 -18q-20 -83 -76.5 -125.5t-137.5 -47.5l-9 -34q71 -14 71 -78q0 -54 -36.5 -83.5t-92.5 -29.5q-46 0 -80 18z" />
    <glyph glyph-name="egrave" unicode="&#xe8;" horiz-adv-x="523" 
d="M241 -12q-109 0 -158.5 62t-49.5 163q0 137 77.5 225.5t204.5 88.5q86 0 129.5 -38.5t43.5 -98.5q0 -107 -125 -153q-69 -25 -212 -34q0 -58 22.5 -93t86.5 -35q46 0 75.5 24.5t41.5 64.5l93 -22q-22 -75 -82.5 -114.5t-146.5 -39.5zM307 445q-64 0 -103 -44.5
t-48 -116.5q94 4 146 20q77 24 77 80q0 30 -19 45.5t-53 15.5zM401 583l-81 -11l-113 174h129z" />
    <glyph glyph-name="eacute" unicode="&#xe9;" horiz-adv-x="523" 
d="M241 -12q-109 0 -158.5 62t-49.5 163q0 137 77.5 225.5t204.5 88.5q86 0 129.5 -38.5t43.5 -98.5q0 -107 -125 -153q-69 -25 -212 -34q0 -58 22.5 -93t86.5 -35q46 0 75.5 24.5t41.5 64.5l93 -22q-22 -75 -82.5 -114.5t-146.5 -39.5zM307 445q-64 0 -103 -44.5
t-48 -116.5q94 4 146 20q77 24 77 80q0 30 -19 45.5t-53 15.5zM249 583l108 163h133l-162 -174z" />
    <glyph glyph-name="ecircumflex" unicode="&#xea;" horiz-adv-x="523" 
d="M241 -12q-109 0 -158.5 62t-49.5 163q0 137 77.5 225.5t204.5 88.5q86 0 129.5 -38.5t43.5 -98.5q0 -107 -125 -153q-69 -25 -212 -34q0 -58 22.5 -93t86.5 -35q46 0 75.5 24.5t41.5 64.5l93 -22q-22 -75 -82.5 -114.5t-146.5 -39.5zM307 445q-64 0 -103 -44.5
t-48 -116.5q94 4 146 20q77 24 77 80q0 30 -19 45.5t-53 15.5zM488 582l-81 -5l-68 107l-95 -109l-86 7l134 165h111z" />
    <glyph glyph-name="edieresis" unicode="&#xeb;" horiz-adv-x="523" 
d="M241 -12q-109 0 -158.5 62t-49.5 163q0 137 77.5 225.5t204.5 88.5q86 0 129.5 -38.5t43.5 -98.5q0 -107 -125 -153q-69 -25 -212 -34q0 -58 22.5 -93t86.5 -35q46 0 75.5 24.5t41.5 64.5l93 -22q-22 -75 -82.5 -114.5t-146.5 -39.5zM307 445q-64 0 -103 -44.5
t-48 -116.5q94 4 146 20q77 24 77 80q0 30 -19 45.5t-53 15.5zM153 669q0 35 23.5 56.5t60.5 21.5q30 0 47 -16t17 -43q0 -35 -23.5 -56.5t-59.5 -21.5q-30 0 -47.5 16t-17.5 43zM372 669q0 35 24 56.5t61 21.5q30 0 47 -16t17 -43q0 -35 -23.5 -56.5t-59.5 -21.5
q-30 0 -48 16t-18 43z" />
    <glyph glyph-name="igrave" unicode="&#xec;" horiz-adv-x="256" 
d="M215 517l-73 -517h-115l73 517h115zM240 583l-81 -11l-113 174h129z" />
    <glyph glyph-name="iacute" unicode="&#xed;" horiz-adv-x="256" 
d="M215 517l-73 -517h-115l73 517h115zM88 583l108 163h133l-162 -174z" />
    <glyph glyph-name="icircumflex" unicode="&#xee;" horiz-adv-x="256" 
d="M215 517l-73 -517h-115l73 517h115zM327 582l-81 -5l-68 107l-95 -109l-86 7l134 165h111z" />
    <glyph glyph-name="idieresis" unicode="&#xef;" horiz-adv-x="256" 
d="M215 517l-73 -517h-115l73 517h115zM-8 669q0 35 23.5 56.5t60.5 21.5q30 0 47 -16t17 -43q0 -35 -23.5 -56.5t-59.5 -21.5q-30 0 -47.5 16t-17.5 43zM211 669q0 35 24 56.5t61 21.5q30 0 47 -16t17 -43q0 -35 -23.5 -56.5t-59.5 -21.5q-30 0 -48 16t-18 43z" />
    <glyph glyph-name="eth" unicode="&#xf0;" horiz-adv-x="592" 
d="M221 614l70 41q-56 32 -123 50l75 67q80 -25 138 -65l101 59l44 -67l-81 -47q98 -106 98 -271q0 -61 -7.5 -114t-27.5 -106t-51 -90t-82.5 -60t-118.5 -23q-216 0 -216 223q0 121 68.5 207t188.5 86q79 0 134 -44q1 -1 2 1t2 2q-24 84 -77 138l-94 -54zM308 418
q-75 0 -114 -62t-39 -152q0 -60 26.5 -95.5t80.5 -35.5q166 0 168 299q-48 46 -122 46z" />
    <glyph glyph-name="ntilde" unicode="&#xf1;" horiz-adv-x="582" 
d="M194 366l-52 -366h-115l73 517h108l-10 -70h1q87 80 189 80q76 0 111.5 -44t22.5 -132l-49 -351h-115l47 335q14 98 -61 98q-68 0 -150 -67zM271 721q34 0 75.5 -22.5t61.5 -22.5q19 0 28 11t14 38l63 -3q-5 -62 -32 -94.5t-73 -32.5q-35 0 -78 23t-63 23q-35 0 -40 -52
l-66 3q5 62 35 95.5t75 33.5z" />
    <glyph glyph-name="ograve" unicode="&#xf2;" horiz-adv-x="581" 
d="M247 -12q-109 0 -162 55.5t-53 155.5q0 36 4 65q17 121 90.5 192t196.5 71q109 0 159 -57.5t50 -152.5q0 -32 -4 -65q-16 -124 -87 -194t-194 -70zM257 71q62 0 102 46t51 139q4 31 4 60q0 124 -105 124q-63 0 -104.5 -44.5t-52.5 -136.5q-3 -30 -3 -57q0 -131 108 -131z
M403 583l-81 -11l-113 174h129z" />
    <glyph glyph-name="oacute" unicode="&#xf3;" horiz-adv-x="581" 
d="M247 -12q-109 0 -162 55.5t-53 155.5q0 36 4 65q17 121 90.5 192t196.5 71q109 0 159 -57.5t50 -152.5q0 -32 -4 -65q-16 -124 -87 -194t-194 -70zM257 71q62 0 102 46t51 139q4 31 4 60q0 124 -105 124q-63 0 -104.5 -44.5t-52.5 -136.5q-3 -30 -3 -57q0 -131 108 -131z
M251 583l108 163h133l-162 -174z" />
    <glyph glyph-name="ocircumflex" unicode="&#xf4;" horiz-adv-x="581" 
d="M247 -12q-109 0 -162 55.5t-53 155.5q0 36 4 65q17 121 90.5 192t196.5 71q109 0 159 -57.5t50 -152.5q0 -32 -4 -65q-16 -124 -87 -194t-194 -70zM257 71q62 0 102 46t51 139q4 31 4 60q0 124 -105 124q-63 0 -104.5 -44.5t-52.5 -136.5q-3 -30 -3 -57q0 -131 108 -131z
M490 582l-81 -5l-68 107l-95 -109l-86 7l134 165h111z" />
    <glyph glyph-name="otilde" unicode="&#xf5;" horiz-adv-x="581" 
d="M247 -12q-109 0 -162 55.5t-53 155.5q0 36 4 65q17 121 90.5 192t196.5 71q109 0 159 -57.5t50 -152.5q0 -32 -4 -65q-16 -124 -87 -194t-194 -70zM257 71q62 0 102 46t51 139q4 31 4 60q0 124 -105 124q-63 0 -104.5 -44.5t-52.5 -136.5q-3 -30 -3 -57q0 -131 108 -131z
M268 721q34 0 75.5 -22.5t61.5 -22.5q19 0 28 11t14 38l63 -3q-5 -62 -32 -94.5t-73 -32.5q-35 0 -78 23t-63 23q-35 0 -40 -52l-66 3q5 62 35 95.5t75 33.5z" />
    <glyph glyph-name="odieresis" unicode="&#xf6;" horiz-adv-x="581" 
d="M247 -12q-109 0 -162 55.5t-53 155.5q0 36 4 65q17 121 90.5 192t196.5 71q109 0 159 -57.5t50 -152.5q0 -32 -4 -65q-16 -124 -87 -194t-194 -70zM257 71q62 0 102 46t51 139q4 31 4 60q0 124 -105 124q-63 0 -104.5 -44.5t-52.5 -136.5q-3 -30 -3 -57q0 -131 108 -131z
M155 669q0 35 23.5 56.5t60.5 21.5q30 0 47 -16t17 -43q0 -35 -23.5 -56.5t-59.5 -21.5q-30 0 -47.5 16t-17.5 43zM374 669q0 35 24 56.5t61 21.5q30 0 47 -16t17 -43q0 -35 -23.5 -56.5t-59.5 -21.5q-30 0 -48 16t-18 43z" />
    <glyph glyph-name="divide" unicode="&#xf7;" horiz-adv-x="569" 
d="M326 173q0 -36 -20.5 -56.5t-59.5 -20.5q-62 0 -62 55q0 36 21 56.5t60 20.5q61 0 61 -55zM465 274h-381l13 94h381zM371 491q0 -36 -20.5 -56t-59.5 -20q-62 0 -62 54q0 36 21 57t59 21q30 0 46 -15t16 -41z" />
    <glyph glyph-name="oslash" unicode="&#xf8;" horiz-adv-x="581" 
d="M247 -12q-13 0 -37 2l-28 -64h-93l38 87q-95 48 -95 186q0 36 4 65q17 121 90.5 192t196.5 71q11 0 31 -2l28 64h93l-38 -86q95 -49 95 -186q0 -32 -4 -65q-16 -124 -87 -194t-194 -70zM257 71q62 0 102 46t51 139q4 31 4 60q0 55 -22 86l-146 -331h11zM149 202
q0 -60 22 -91l145 329h-7q-63 0 -104.5 -44.5t-52.5 -136.5q-3 -30 -3 -57z" />
    <glyph glyph-name="ugrave" unicode="&#xf9;" horiz-adv-x="579" 
d="M371 145l51 372h115l-72 -517h-102l8 66q0 1 -1 1q-33 -32 -83 -55t-103 -23q-78 0 -113 45.5t-23 132.5l48 350h115l-46 -336q-4 -24 -1 -42q1 -58 65 -58q68 0 142 64zM399 583l-81 -11l-113 174h129z" />
    <glyph glyph-name="uacute" unicode="&#xfa;" horiz-adv-x="579" 
d="M371 145l51 372h115l-72 -517h-102l8 66q0 1 -1 1q-33 -32 -83 -55t-103 -23q-78 0 -113 45.5t-23 132.5l48 350h115l-46 -336q-4 -24 -1 -42q1 -58 65 -58q68 0 142 64zM255 583l108 163h133l-162 -174z" />
    <glyph glyph-name="ucircumflex" unicode="&#xfb;" horiz-adv-x="579" 
d="M371 145l51 372h115l-72 -517h-102l8 66q0 1 -1 1q-33 -32 -83 -55t-103 -23q-78 0 -113 45.5t-23 132.5l48 350h115l-46 -336q-4 -24 -1 -42q1 -58 65 -58q68 0 142 64zM486 582l-81 -5l-68 107l-95 -109l-86 7l134 165h111z" />
    <glyph glyph-name="udieresis" unicode="&#xfc;" horiz-adv-x="579" 
d="M371 145l51 372h115l-72 -517h-102l8 66q0 1 -1 1q-33 -32 -83 -55t-103 -23q-78 0 -113 45.5t-23 132.5l48 350h115l-46 -336q-4 -24 -1 -42q1 -58 65 -58q68 0 142 64zM151 669q0 35 23.5 56.5t60.5 21.5q30 0 47 -16t17 -43q0 -35 -23.5 -56.5t-59.5 -21.5
q-30 0 -47.5 16t-17.5 43zM370 669q0 35 24 56.5t61 21.5q30 0 47 -16t17 -43q0 -35 -23.5 -56.5t-59.5 -21.5q-30 0 -48 16t-18 43z" />
    <glyph glyph-name="yacute" unicode="&#xfd;" horiz-adv-x="497" 
d="M146 -7l-113 524h122l65 -396h2l177 396h119l-271 -551q-55 -110 -96.5 -149.5t-115.5 -39.5q-57 0 -97 20l20 81q39 -15 71 -15q35 0 58.5 27.5t58.5 102.5zM208 583l108 163h133l-162 -174z" />
    <glyph glyph-name="thorn" unicode="&#xfe;" horiz-adv-x="588" 
d="M194 371l-34 -245q53 -45 112 -45q76 0 111.5 67t35.5 170q0 61 -19.5 89t-62.5 28q-34 0 -74.5 -20t-68.5 -44zM-2 -213l135 968h113l-42 -301q88 72 177 72q159 0 159 -197q0 -170 -72.5 -256t-180.5 -86q-84 0 -142 54l-36 -254h-111z" />
    <glyph glyph-name="ydieresis" unicode="&#xff;" horiz-adv-x="497" 
d="M146 -7l-113 524h122l65 -396h2l177 396h119l-271 -551q-55 -110 -96.5 -149.5t-115.5 -39.5q-57 0 -97 20l20 81q39 -15 71 -15q35 0 58.5 27.5t58.5 102.5zM112 669q0 35 23.5 56.5t60.5 21.5q30 0 47 -16t17 -43q0 -35 -23.5 -56.5t-59.5 -21.5q-30 0 -47.5 16
t-17.5 43zM331 669q0 35 24 56.5t61 21.5q30 0 47 -16t17 -43q0 -35 -23.5 -56.5t-59.5 -21.5q-30 0 -48 16t-18 43z" />
    <glyph glyph-name="Amacron" unicode="&#x100;" horiz-adv-x="664" 
d="M309 724h148l147 -724h-123l-39 204h-254l-92 -204h-121zM429 296l-59 325h-1l-146 -325h206zM547 790h-311l11 82h311z" />
    <glyph glyph-name="amacron" unicode="&#x101;" horiz-adv-x="598" 
d="M541 517l-58 -409q-3 -23 1.5 -32.5t22.5 -9.5q12 0 33 6l-8 -67q-30 -13 -72 -13q-81 0 -85 73q-69 -77 -171 -77q-79 0 -124.5 49.5t-45.5 151.5q0 146 68 242t184 96q80 0 140 -54l8 44h107zM374 140l35 253q-44 42 -107 42q-40 0 -71 -23t-47 -59.5t-23.5 -75
t-7.5 -76.5q0 -123 91 -123q63 0 130 62zM190 617l11 82h299l-11 -82h-299z" />
    <glyph glyph-name="Abreve" unicode="&#x102;" horiz-adv-x="664" 
d="M309 724h148l147 -724h-123l-39 204h-254l-92 -204h-121zM429 296l-59 325h-1l-146 -325h206zM399 848q68 0 90 71l78 -6q-30 -138 -175 -138q-141 0 -142 136l82 8q1 -38 17 -54.5t50 -16.5z" />
    <glyph glyph-name="abreve" unicode="&#x103;" horiz-adv-x="598" 
d="M541 517l-58 -409q-3 -23 1.5 -32.5t22.5 -9.5q12 0 33 6l-8 -67q-30 -13 -72 -13q-81 0 -85 73q-69 -77 -171 -77q-79 0 -124.5 49.5t-45.5 151.5q0 146 68 242t184 96q80 0 140 -54l8 44h107zM374 140l35 253q-44 42 -107 42q-40 0 -71 -23t-47 -59.5t-23.5 -75
t-7.5 -76.5q0 -123 91 -123q63 0 130 62zM340 644q39 0 61.5 20t33.5 70l78 -6q-9 -78 -55 -117.5t-124 -39.5q-73 0 -109 39t-32 115l81 9q-2 -47 13.5 -68.5t52.5 -21.5z" />
    <glyph glyph-name="Aogonek" unicode="&#x104;" horiz-adv-x="664" 
d="M579 -118l54 -27q-18 -43 -52.5 -65t-76.5 -22q-48 0 -75.5 23t-27.5 64q0 75 80 145l-39 204h-254l-92 -204h-121l334 724h148l147 -724q-59 -39 -84.5 -66.5t-25.5 -59.5q0 -34 31 -34q29 0 54 42zM429 296l-59 325h-1l-146 -325h206z" />
    <glyph glyph-name="aogonek" unicode="&#x105;" horiz-adv-x="598" 
d="M488 -118l53 -27q-21 -43 -57.5 -65t-78.5 -22q-45 0 -71.5 22t-26.5 59q0 78 107 151q-36 15 -39 65q-69 -77 -171 -77q-79 0 -124.5 49.5t-45.5 151.5q0 146 68 242t184 96q80 0 140 -54l8 44h107l-58 -409q-3 -23 1.5 -32.5t22.5 -9.5q12 0 33 6l-8 -67
q-58 -19 -94 -59t-36 -75q0 -31 30 -31q28 0 56 42zM374 140l35 253q-44 42 -107 42q-40 0 -71 -23t-47 -59.5t-23.5 -75t-7.5 -76.5q0 -123 91 -123q63 0 130 62z" />
    <glyph glyph-name="Cacute" unicode="&#x106;" horiz-adv-x="680" 
d="M527 226l102 -19q-32 -115 -114.5 -167t-194.5 -52q-140 0 -209.5 79t-69.5 216q0 209 104.5 331.5t281.5 122.5q120 0 185.5 -67t58.5 -190l-107 -11q5 174 -145 174q-118 0 -187.5 -91.5t-69.5 -260.5q0 -210 174 -210q76 0 120 36t71 109zM347 778l111 136h134
l-163 -147z" />
    <glyph glyph-name="cacute" unicode="&#x107;" horiz-adv-x="539" 
d="M248 -12q-108 0 -162 59.5t-54 159.5q0 150 78 235t207 85q95 0 144.5 -56.5t41.5 -148.5l-103 -8q3 60 -17.5 92.5t-74.5 32.5q-65 0 -110 -53.5t-45 -173.5q0 -136 106 -136q96 0 126 104l97 -18q-22 -88 -84 -131t-150 -43zM245 583l108 163h133l-162 -174z" />
    <glyph glyph-name="Ccircumflex" unicode="&#x108;" horiz-adv-x="680" 
d="M527 226l102 -19q-32 -115 -114.5 -167t-194.5 -52q-140 0 -209.5 79t-69.5 216q0 209 104.5 331.5t281.5 122.5q120 0 185.5 -67t58.5 -190l-107 -11q5 174 -145 174q-118 0 -187.5 -91.5t-69.5 -260.5q0 -210 174 -210q76 0 120 36t71 109zM593 776l-82 -7l-69 76
l-91 -78l-83 9l131 133h103z" />
    <glyph glyph-name="ccircumflex" unicode="&#x109;" horiz-adv-x="539" 
d="M248 -12q-108 0 -162 59.5t-54 159.5q0 150 78 235t207 85q95 0 144.5 -56.5t41.5 -148.5l-103 -8q3 60 -17.5 92.5t-74.5 32.5q-65 0 -110 -53.5t-45 -173.5q0 -136 106 -136q96 0 126 104l97 -18q-22 -88 -84 -131t-150 -43zM484 582l-81 -5l-68 107l-95 -109l-86 7
l134 165h111z" />
    <glyph glyph-name="Cdotaccent" unicode="&#x10a;" horiz-adv-x="680" 
d="M527 226l102 -19q-32 -115 -114.5 -167t-194.5 -52q-140 0 -209.5 79t-69.5 216q0 209 104.5 331.5t281.5 122.5q120 0 185.5 -67t58.5 -190l-107 -11q5 174 -145 174q-118 0 -187.5 -91.5t-69.5 -260.5q0 -210 174 -210q76 0 120 36t71 109zM519 865q0 -41 -23.5 -64
t-63.5 -23q-31 0 -48 16.5t-17 45.5q0 40 22.5 63t63.5 23q66 0 66 -61z" />
    <glyph glyph-name="cdotaccent" unicode="&#x10b;" horiz-adv-x="539" 
d="M248 -12q-108 0 -162 59.5t-54 159.5q0 150 78 235t207 85q95 0 144.5 -56.5t41.5 -148.5l-103 -8q3 60 -17.5 92.5t-74.5 32.5q-65 0 -110 -53.5t-45 -173.5q0 -136 106 -136q96 0 126 104l97 -18q-22 -88 -84 -131t-150 -43zM258 667q0 40 23 63t63 23q66 0 66 -61
q0 -41 -23 -64t-64 -23q-31 0 -48 16.5t-17 45.5z" />
    <glyph glyph-name="Ccaron" unicode="&#x10c;" horiz-adv-x="680" 
d="M527 226l102 -19q-32 -115 -114.5 -167t-194.5 -52q-140 0 -209.5 79t-69.5 216q0 209 104.5 331.5t281.5 122.5q120 0 185.5 -67t58.5 -190l-107 -11q5 174 -145 174q-118 0 -187.5 -91.5t-69.5 -260.5q0 -210 174 -210q76 0 120 36t71 109zM286 904l83 7l69 -77l91 78
l82 -8l-131 -133h-103z" />
    <glyph glyph-name="ccaron" unicode="&#x10d;" horiz-adv-x="539" 
d="M248 -12q-108 0 -162 59.5t-54 159.5q0 150 78 235t207 85q95 0 144.5 -56.5t41.5 -148.5l-103 -8q3 60 -17.5 92.5t-74.5 32.5q-65 0 -110 -53.5t-45 -173.5q0 -136 106 -136q96 0 126 104l97 -18q-22 -88 -84 -131t-150 -43zM179 736l83 6l66 -107l96 108l85 -7
l-133 -164h-111z" />
    <glyph glyph-name="Dcaron" unicode="&#x10e;" horiz-adv-x="712" 
d="M254 0h-213l99 724h230q156 0 232 -76t76 -214q0 -196 -107 -315t-317 -119zM169 92h94q144 0 220 86.5t76 253.5q0 108 -52.5 154.5t-157.5 46.5h-106zM235 904l83 7l69 -77l91 78l82 -8l-131 -133h-103z" />
    <glyph glyph-name="dcaron" unicode="&#x10f;" horiz-adv-x="620" 
d="M470 0h-99l5 58h-1q-81 -70 -170 -70q-80 0 -125 49t-45 149q0 90 22.5 158t60 106.5t81 57.5t90.5 19q80 0 137 -52l39 280h111zM375 135l36 262q-47 40 -102 40q-54 0 -90.5 -37t-50.5 -89t-14 -115q0 -108 78 -115q25 -3 52 5q51 13 91 49zM588 563l60 192h112
l-91 -200z" />
    <glyph glyph-name="Dcroat" unicode="&#x110;" horiz-adv-x="721" 
d="M263 0h-213l44 322h-74l13 90h73l43 312h230q156 0 232 -76t76 -214q0 -196 -107 -315t-317 -119zM178 92h94q144 0 220 86.5t76 253.5q0 108 -52.5 154.5t-157.5 46.5h-106l-30 -221h198l-13 -90h-198z" />
    <glyph glyph-name="dcroat" unicode="&#x111;" horiz-adv-x="582" 
d="M470 0h-99l5 58h-1q-81 -70 -170 -70q-80 0 -125 49t-45 149q0 88 22 154t59.5 103t80 54.5t90.5 17.5q80 0 137 -52l17 124h-186l10 73h186l14 95h111l-14 -95h67l-10 -73h-67zM375 135l34 250q-45 40 -102 40q-54 0 -90 -35.5t-49.5 -84.5t-13.5 -109q0 -108 78 -115
q25 -3 52 5q51 13 91 49z" />
    <glyph glyph-name="Emacron" unicode="&#x112;" horiz-adv-x="565" 
d="M483 0h-442l99 724h428l-13 -94h-313l-29 -221h293l-13 -92h-294l-30 -223h327zM518 790h-311l11 82h311z" />
    <glyph glyph-name="emacron" unicode="&#x113;" horiz-adv-x="523" 
d="M241 -12q-109 0 -158.5 62t-49.5 163q0 137 77.5 225.5t204.5 88.5q86 0 129.5 -38.5t43.5 -98.5q0 -107 -125 -153q-69 -25 -212 -34q0 -58 22.5 -93t86.5 -35q46 0 75.5 24.5t41.5 64.5l93 -22q-22 -75 -82.5 -114.5t-146.5 -39.5zM307 445q-64 0 -103 -44.5
t-48 -116.5q94 4 146 20q77 24 77 80q0 30 -19 45.5t-53 15.5zM182 617l11 82h299l-11 -82h-299z" />
    <glyph glyph-name="Ebreve" unicode="&#x114;" horiz-adv-x="565" 
d="M483 0h-442l99 724h428l-13 -94h-313l-29 -221h293l-13 -92h-294l-30 -223h327zM370 848q68 0 90 71l78 -6q-30 -138 -175 -138q-141 0 -142 136l82 8q1 -38 17 -54.5t50 -16.5z" />
    <glyph glyph-name="ebreve" unicode="&#x115;" horiz-adv-x="523" 
d="M241 -12q-109 0 -158.5 62t-49.5 163q0 137 77.5 225.5t204.5 88.5q86 0 129.5 -38.5t43.5 -98.5q0 -107 -125 -153q-69 -25 -212 -34q0 -58 22.5 -93t86.5 -35q46 0 75.5 24.5t41.5 64.5l93 -22q-22 -75 -82.5 -114.5t-146.5 -39.5zM307 445q-64 0 -103 -44.5
t-48 -116.5q94 4 146 20q77 24 77 80q0 30 -19 45.5t-53 15.5zM332 644q39 0 61.5 20t33.5 70l78 -6q-9 -78 -55 -117.5t-124 -39.5q-73 0 -109 39t-32 115l81 9q-2 -47 13.5 -68.5t52.5 -21.5z" />
    <glyph glyph-name="Edotaccent" unicode="&#x116;" horiz-adv-x="565" 
d="M483 0h-442l99 724h428l-13 -94h-313l-29 -221h293l-13 -92h-294l-30 -223h327zM448 865q0 -41 -23 -64t-64 -23q-31 0 -48 16.5t-17 45.5q0 40 23 63t63 23q66 0 66 -61z" />
    <glyph glyph-name="edotaccent" unicode="&#x117;" horiz-adv-x="523" 
d="M241 -12q-109 0 -158.5 62t-49.5 163q0 137 77.5 225.5t204.5 88.5q86 0 129.5 -38.5t43.5 -98.5q0 -107 -125 -153q-69 -25 -212 -34q0 -58 22.5 -93t86.5 -35q46 0 75.5 24.5t41.5 64.5l93 -22q-22 -75 -82.5 -114.5t-146.5 -39.5zM307 445q-64 0 -103 -44.5
t-48 -116.5q94 4 146 20q77 24 77 80q0 30 -19 45.5t-53 15.5zM262 667q0 40 23 63t63 23q66 0 66 -61q0 -41 -23 -64t-64 -23q-31 0 -48 16.5t-17 45.5z" />
    <glyph glyph-name="Eogonek" unicode="&#x118;" horiz-adv-x="565" 
d="M433 -118l54 -27q-18 -43 -52.5 -65t-76.5 -22q-48 0 -75.5 23t-27.5 64q0 75 99 145h-313l99 724h428l-13 -94h-313l-29 -221h293l-13 -92h-294l-30 -223h327l-13 -94h-43q-34 -30 -50 -45.5t-29 -37.5t-13 -43q0 -34 31 -34q29 0 54 42z" />
    <glyph glyph-name="eogonek" unicode="&#x119;" horiz-adv-x="523" 
d="M324 -118l53 -27q-21 -43 -57.5 -65t-78.5 -22q-45 0 -71.5 22t-26.5 59q0 73 90 139q-105 3 -152.5 64.5t-47.5 160.5q0 137 77.5 225.5t204.5 88.5q86 0 129.5 -38.5t43.5 -98.5q0 -107 -125 -153q-69 -25 -212 -34q0 -58 22.5 -93t86.5 -35q46 0 75.5 24.5t41.5 64.5
l93 -22q-25 -85 -117 -138q-115 -67 -115 -133q0 -31 30 -31q28 0 56 42zM307 445q-64 0 -103 -45.5t-48 -119.5q94 4 146 20q77 24 77 84q0 30 -19 45.5t-53 15.5z" />
    <glyph glyph-name="Ecaron" unicode="&#x11a;" horiz-adv-x="565" 
d="M483 0h-442l99 724h428l-13 -94h-313l-29 -221h293l-13 -92h-294l-30 -223h327zM215 904l83 7l69 -77l91 78l82 -8l-131 -133h-103z" />
    <glyph glyph-name="ecaron" unicode="&#x11b;" horiz-adv-x="523" 
d="M241 -12q-109 0 -158.5 62t-49.5 163q0 137 77.5 225.5t204.5 88.5q86 0 129.5 -38.5t43.5 -98.5q0 -107 -125 -153q-69 -25 -212 -34q0 -58 22.5 -93t86.5 -35q46 0 75.5 24.5t41.5 64.5l93 -22q-22 -75 -82.5 -114.5t-146.5 -39.5zM307 445q-64 0 -103 -44.5
t-48 -116.5q94 4 146 20q77 24 77 80q0 30 -19 45.5t-53 15.5zM183 736l83 6l66 -107l96 108l85 -7l-133 -164h-111z" />
    <glyph glyph-name="Gcircumflex" unicode="&#x11c;" horiz-adv-x="715" 
d="M660 376l-52 -376h-84l-1 93q-27 -47 -89.5 -76t-133.5 -29q-131 0 -195 79.5t-64 216.5q0 208 105.5 330.5t283.5 122.5q120 0 184 -60.5t59 -183.5l-109 -11q6 162 -142 162q-123 0 -191 -95.5t-68 -258.5q0 -111 44 -161t128 -50q81 0 133.5 47.5t60.5 111.5l8 56
h-164l12 82h275zM591 776l-82 -7l-69 76l-91 -78l-83 9l131 133h103z" />
    <glyph glyph-name="gcircumflex" unicode="&#x11d;" horiz-adv-x="573" 
d="M298 435q-40 0 -70 -21t-46 -55t-23.5 -70.5t-7.5 -74.5q0 -116 88 -116q72 0 134 59l32 236q-17 18 -46.5 30t-60.5 12zM353 -16l14 90q-30 -30 -75.5 -48.5t-93.5 -18.5q-77 0 -122 48.5t-45 147.5q0 57 14 112t42 103.5t79 78.5t117 30q89 0 141 -59l9 49h104
l-75 -531q-29 -209 -254 -209q-198 0 -213 167l107 17q4 -47 27.5 -71.5t80.5 -24.5q124 0 143 119zM485 582l-81 -5l-68 107l-95 -109l-86 7l134 165h111z" />
    <glyph glyph-name="Gbreve" unicode="&#x11e;" horiz-adv-x="715" 
d="M660 376l-52 -376h-84l-1 93q-27 -47 -89.5 -76t-133.5 -29q-131 0 -195 79.5t-64 216.5q0 208 105.5 330.5t283.5 122.5q120 0 184 -60.5t59 -183.5l-109 -11q6 162 -142 162q-123 0 -191 -95.5t-68 -258.5q0 -111 44 -161t128 -50q81 0 133.5 47.5t60.5 111.5l8 56
h-164l12 82h275zM439 848q68 0 90 71l78 -6q-30 -138 -175 -138q-141 0 -142 136l82 8q1 -38 17 -54.5t50 -16.5z" />
    <glyph glyph-name="gbreve" unicode="&#x11f;" horiz-adv-x="573" 
d="M298 435q-40 0 -70 -21t-46 -55t-23.5 -70.5t-7.5 -74.5q0 -116 88 -116q72 0 134 59l32 236q-17 18 -46.5 30t-60.5 12zM353 -16l14 90q-30 -30 -75.5 -48.5t-93.5 -18.5q-77 0 -122 48.5t-45 147.5q0 57 14 112t42 103.5t79 78.5t117 30q89 0 141 -59l9 49h104
l-75 -531q-29 -209 -254 -209q-198 0 -213 167l107 17q4 -47 27.5 -71.5t80.5 -24.5q124 0 143 119zM329 644q39 0 61.5 20t33.5 70l78 -6q-9 -78 -55 -117.5t-124 -39.5q-73 0 -109 39t-32 115l81 9q-2 -47 13.5 -68.5t52.5 -21.5z" />
    <glyph glyph-name="Gdotaccent" unicode="&#x120;" horiz-adv-x="715" 
d="M660 376l-52 -376h-84l-1 93q-27 -47 -89.5 -76t-133.5 -29q-131 0 -195 79.5t-64 216.5q0 208 105.5 330.5t283.5 122.5q120 0 184 -60.5t59 -183.5l-109 -11q6 162 -142 162q-123 0 -191 -95.5t-68 -258.5q0 -111 44 -161t128 -50q81 0 133.5 47.5t60.5 111.5l8 56
h-164l12 82h275zM517 865q0 -41 -23.5 -64t-63.5 -23q-31 0 -48 16.5t-17 45.5q0 40 22.5 63t63.5 23q66 0 66 -61z" />
    <glyph glyph-name="gdotaccent" unicode="&#x121;" horiz-adv-x="573" 
d="M298 435q-40 0 -70 -21t-46 -55t-23.5 -70.5t-7.5 -74.5q0 -116 88 -116q72 0 134 59l32 236q-17 18 -46.5 30t-60.5 12zM353 -16l14 90q-30 -30 -75.5 -48.5t-93.5 -18.5q-77 0 -122 48.5t-45 147.5q0 57 14 112t42 103.5t79 78.5t117 30q89 0 141 -59l9 49h104
l-75 -531q-29 -209 -254 -209q-198 0 -213 167l107 17q4 -47 27.5 -71.5t80.5 -24.5q124 0 143 119zM259 667q0 40 23 63t63 23q66 0 66 -61q0 -41 -23 -64t-64 -23q-31 0 -48 16.5t-17 45.5z" />
    <glyph glyph-name="Gcommaaccent" unicode="&#x122;" horiz-adv-x="715" 
d="M660 376l-52 -376h-84l-1 93q-27 -47 -89.5 -76t-133.5 -29q-131 0 -195 79.5t-64 216.5q0 208 105.5 330.5t283.5 122.5q120 0 184 -60.5t59 -183.5l-109 -11q6 162 -142 162q-123 0 -191 -95.5t-68 -258.5q0 -111 44 -161t128 -50q81 0 133.5 47.5t60.5 111.5l8 56
h-164l12 82h275zM204 -241l66 173h114l-100 -185z" />
    <glyph glyph-name="gcommaaccent" unicode="&#x123;" horiz-adv-x="573" 
d="M298 435q-40 0 -70 -21t-46 -55t-23.5 -70.5t-7.5 -74.5q0 -116 88 -116q72 0 134 59l32 236q-17 18 -46.5 30t-60.5 12zM353 -16l14 90q-30 -30 -75.5 -48.5t-93.5 -18.5q-77 0 -122 48.5t-45 147.5q0 57 14 112t42 103.5t79 78.5t117 30q89 0 141 -59l9 49h104
l-75 -531q-29 -209 -254 -209q-198 0 -213 167l107 17q4 -47 27.5 -71.5t80.5 -24.5q124 0 143 119zM436 743l-66 -173h-114l100 184z" />
    <glyph glyph-name="Hcircumflex" unicode="&#x124;" horiz-adv-x="712" 
d="M683 724l-100 -724h-115l43 321h-313l-43 -321h-115l100 724h115l-43 -307h313l43 307h115zM579 776l-82 -7l-69 76l-91 -78l-83 9l131 133h103z" />
    <glyph glyph-name="hcircumflex" unicode="&#x125;" horiz-adv-x="582" 
d="M194 365l-52 -365h-115l106 755h114l-45 -306q89 78 183 78q161 0 137 -176l-49 -351h-115l47 335q14 98 -63 98q-61 0 -148 -68zM356 802l-82 -7l-69 76l-91 -78l-83 9l131 133h103z" />
    <glyph glyph-name="Hbar" unicode="&#x126;" horiz-adv-x="712" 
d="M683 724l-17 -119h73l-12 -83h-72l-72 -522h-115l43 321h-313l-43 -321h-115l72 522h-75l12 83h74l17 119h115l-17 -119h313l17 119h115zM212 417h313l14 105h-313z" />
    <glyph glyph-name="hbar" unicode="&#x127;" horiz-adv-x="582" 
d="M193 353l-51 -353h-115l82 584h-64l10 74h64l14 97h114l-14 -97h183l-10 -74h-184l-21 -147q89 78 183 78q161 0 137 -176l-48 -339h-115l46 323q14 98 -63 98q-61 0 -148 -68z" />
    <glyph glyph-name="Itilde" unicode="&#x128;" horiz-adv-x="284" 
d="M156 0h-115l99 724h115zM149 911q34 0 75.5 -22.5t61.5 -22.5q18 0 28 11t14 38l63 -3q-2 -61 -31 -94t-74 -33q-35 0 -78 23t-63 23q-35 0 -39 -52l-66 3q3 61 33.5 95t75.5 34z" />
    <glyph glyph-name="itilde" unicode="&#x129;" horiz-adv-x="256" 
d="M215 517l-73 -517h-115l73 517h115zM105 721q34 0 75.5 -22.5t61.5 -22.5q19 0 28 11t14 38l63 -3q-5 -62 -32 -94.5t-73 -32.5q-35 0 -78 23t-63 23q-35 0 -40 -52l-66 3q5 62 35 95.5t75 33.5z" />
    <glyph glyph-name="Imacron" unicode="&#x12a;" horiz-adv-x="284" 
d="M156 0h-115l99 724h115zM360 790h-311l11 82h311z" />
    <glyph glyph-name="imacron" unicode="&#x12b;" horiz-adv-x="256" 
d="M215 517l-73 -517h-115l73 517h115zM21 617l11 82h299l-11 -82h-299z" />
    <glyph glyph-name="Ibreve" unicode="&#x12c;" horiz-adv-x="284" 
d="M156 0h-115l99 724h115zM212 848q68 0 90 71l78 -6q-30 -138 -175 -138q-141 0 -142 136l82 8q1 -38 17 -54.5t50 -16.5z" />
    <glyph glyph-name="ibreve" unicode="&#x12d;" horiz-adv-x="256" 
d="M215 517l-73 -517h-115l73 517h115zM171 644q39 0 61.5 20t33.5 70l78 -6q-9 -78 -55 -117.5t-124 -39.5q-73 0 -109 39t-32 115l81 9q-2 -47 13.5 -68.5t52.5 -21.5z" />
    <glyph glyph-name="Iogonek" unicode="&#x12e;" horiz-adv-x="284" 
d="M134 -118l54 -27q-18 -43 -52.5 -65t-76.5 -22q-48 0 -75.5 23t-27.5 64q0 81 85 145l99 724h115l-99 -724q-57 -39 -82 -66.5t-25 -59.5q0 -34 31 -34q29 0 54 42z" />
    <glyph glyph-name="iogonek" unicode="&#x12f;" horiz-adv-x="256" 
d="M115 -118l53 -27q-21 -43 -57.5 -65t-78.5 -22q-45 0 -71.5 22t-26.5 59q0 79 93 151l73 517h115l-73 -517q-61 -42 -87 -69.5t-26 -59.5q0 -31 30 -31q28 0 56 42zM257 692q0 -40 -23.5 -63.5t-63.5 -23.5q-31 0 -48 16.5t-17 45.5q0 40 23 63t63 23q32 0 49 -16t17 -45
z" />
    <glyph glyph-name="Idotaccent" unicode="&#x130;" horiz-adv-x="284" 
d="M156 0h-115l99 724h115zM290 865q0 -41 -23 -64t-64 -23q-31 0 -48 16.5t-17 45.5q0 40 23 63t63 23q66 0 66 -61z" />
    <glyph glyph-name="dotlessi" unicode="&#x131;" horiz-adv-x="256" 
d="M215 517l-73 -517h-115l73 517h115z" />
    <glyph glyph-name="IJ" unicode="&#x132;" horiz-adv-x="798" 
d="M156 0h-115l99 724h115zM587 184l74 540h115l-73 -539q-14 -104 -71 -150.5t-153 -46.5q-91 0 -141 44t-51 136l110 18q5 -53 22.5 -80t63.5 -27q44 0 70 23t34 82z" />
    <glyph glyph-name="Jcircumflex" unicode="&#x134;" horiz-adv-x="514" 
d="M303 184l74 540h115l-73 -539q-14 -104 -71 -150.5t-153 -46.5q-91 0 -141 44t-51 136l110 18q5 -53 22.5 -80t63.5 -27q44 0 70 23t34 82zM601 776l-82 -7l-69 76l-91 -78l-83 9l131 133h103z" />
    <glyph glyph-name="jcircumflex" unicode="&#x135;" horiz-adv-x="255" 
d="M19 -55l81 572h115l-82 -577q-22 -163 -179 -163q-30 0 -63 7.5t-46 16.5l22 81q36 -15 74 -15q32 0 52 17t26 61zM321 582l-81 -5l-68 107l-95 -109l-86 7l134 165h111z" />
    <glyph glyph-name="Kcommaaccent" unicode="&#x136;" horiz-adv-x="640" 
d="M255 724l-46 -338l337 338h134l-312 -311l218 -413h-131l-178 332l-87 -85l-35 -247h-114l99 724h115zM169 -241l66 173h114l-100 -185z" />
    <glyph glyph-name="kcommaaccent" unicode="&#x137;" horiz-adv-x="537" 
d="M486 0h-127l-112 257l-78 -69l-27 -188h-115l106 755h115l-63 -447l228 209h132l-202 -187zM119 -241l66 173h114l-100 -185z" />
    <glyph glyph-name="kgreenlandic" unicode="&#x138;" horiz-adv-x="537" 
d="M486 0h-127l-112 257l-78 -69l-27 -188h-115l73 517h115l-30 -209l228 209h132l-202 -187z" />
    <glyph glyph-name="Lacute" unicode="&#x139;" horiz-adv-x="545" 
d="M468 0h-427l99 724h115l-86 -628h312zM123 778l111 136h134l-163 -147z" />
    <glyph glyph-name="lacute" unicode="&#x13a;" horiz-adv-x="256" 
d="M27 0l106 755h115l-106 -755h-115zM123 799l111 136h134l-163 -147z" />
    <glyph glyph-name="Lcommaaccent" unicode="&#x13b;" horiz-adv-x="545" 
d="M468 0h-427l99 724h115l-86 -628h312zM140 -241l66 173h114l-100 -185z" />
    <glyph glyph-name="lcommaaccent" unicode="&#x13c;" horiz-adv-x="256" 
d="M27 0l106 755h115l-106 -755h-115zM-37 -241l66 173h114l-100 -185z" />
    <glyph glyph-name="Lcaron" unicode="&#x13d;" horiz-adv-x="545" 
d="M468 0h-427l99 724h115l-86 -628h312zM305 532l60 192h112l-91 -200z" />
    <glyph glyph-name="lcaron" unicode="&#x13e;" horiz-adv-x="289" 
d="M27 0l106 755h115l-106 -755h-115zM254 563l60 192h112l-91 -200z" />
    <glyph glyph-name="Ldot" unicode="&#x13f;" horiz-adv-x="545" 
d="M468 0h-427l99 724h115l-86 -628h312zM490 419q0 -40 -22.5 -62.5t-62.5 -22.5q-63 0 -63 60q0 40 22 62.5t62 22.5q64 0 64 -60z" />
    <glyph glyph-name="ldot" unicode="&#x140;" horiz-adv-x="353" 
d="M27 0l106 755h115l-106 -755h-115zM242 387q0 39 22.5 61.5t61.5 22.5q65 0 65 -59q0 -40 -22.5 -62.5t-62.5 -22.5q-31 0 -47.5 15.5t-16.5 44.5z" />
    <glyph glyph-name="Lslash" unicode="&#x141;" horiz-adv-x="545" 
d="M-10 237l10 96l92 40l48 351h115l-43 -309l197 86l-10 -97l-200 -86l-30 -222h312l-13 -96h-427l38 276z" />
    <glyph glyph-name="lslash" unicode="&#x142;" horiz-adv-x="313" 
d="M15 286l14 97l85 38l47 334h115l-41 -294l88 39l-14 -97l-88 -38l-51 -365h-115l45 324z" />
    <glyph glyph-name="Nacute" unicode="&#x143;" horiz-adv-x="726" 
d="M598 0h-135l-237 576l-79 -576h-106l99 724h145l229 -573l79 573h105zM369 778l111 136h134l-163 -147z" />
    <glyph glyph-name="nacute" unicode="&#x144;" horiz-adv-x="582" 
d="M194 366l-52 -366h-115l73 517h108l-10 -70h1q87 80 189 80q76 0 111.5 -44t22.5 -132l-49 -351h-115l47 335q14 98 -61 98q-68 0 -150 -67zM254 583l108 163h133l-162 -174z" />
    <glyph glyph-name="Ncommaaccent" unicode="&#x145;" horiz-adv-x="726" 
d="M598 0h-135l-237 576l-79 -576h-106l99 724h145l229 -573l79 573h105zM204 -241l66 173h114l-100 -185z" />
    <glyph glyph-name="ncommaaccent" unicode="&#x146;" horiz-adv-x="582" 
d="M194 366l-52 -366h-115l73 517h108l-10 -70h1q87 80 189 80q76 0 111.5 -44t22.5 -132l-49 -351h-115l47 335q14 98 -61 98q-68 0 -150 -67zM129 -241l66 173h114l-100 -185z" />
    <glyph glyph-name="Ncaron" unicode="&#x147;" horiz-adv-x="726" 
d="M598 0h-135l-237 576l-79 -576h-106l99 724h145l229 -573l79 573h105zM297 904l83 7l69 -77l91 78l82 -8l-131 -133h-103z" />
    <glyph glyph-name="ncaron" unicode="&#x148;" horiz-adv-x="582" 
d="M194 366l-52 -366h-115l73 517h108l-10 -70h1q87 80 189 80q76 0 111.5 -44t22.5 -132l-49 -351h-115l47 335q14 98 -61 98q-68 0 -150 -67zM184 736l83 6l66 -107l96 108l85 -7l-133 -164h-111z" />
    <glyph glyph-name="napostrophe" unicode="&#x149;" horiz-adv-x="621" 
d="M233 366l-52 -366h-115l73 517h108l-10 -70h1q87 80 189 80q76 0 111.5 -44t22.5 -132l-49 -351h-115l47 335q14 98 -61 98q-68 0 -150 -67zM11 506l62 163h108l-94 -175z" />
    <glyph glyph-name="Eng" unicode="&#x14a;" horiz-adv-x="726" 
d="M598 0l-10 -69q-24 -163 -179 -163q-31 0 -64 7t-45 16l22 82q36 -15 73 -15q68 0 79 78l8 58l-256 582l-79 -576h-106l99 724h145l233 -543l75 543h105z" />
    <glyph glyph-name="eng" unicode="&#x14b;" horiz-adv-x="582" 
d="M350 -55l8 55l47 335q14 98 -61 98q-68 0 -150 -67l-52 -366h-115l73 517h108l-10 -70h1q87 80 189 80q76 0 111.5 -44t22.5 -132l-46 -329l-3 -22l-9 -60q-22 -163 -179 -163q-30 0 -63 7.5t-46 16.5l23 81q34 -15 73 -15q32 0 52 17t26 61z" />
    <glyph glyph-name="Omacron" unicode="&#x14c;" horiz-adv-x="742" 
d="M328 -12q-146 0 -216.5 82t-70.5 220q0 196 102 321.5t287 125.5q143 0 212 -82t69 -216q0 -203 -101 -327t-282 -124zM340 83q116 0 183 97.5t67 251.5q0 46 -11 87q-32 123 -161 123q-120 0 -188.5 -95.5t-68.5 -250.5q0 -48 11 -87q32 -126 168 -126zM593 790h-311
l11 82h311z" />
    <glyph glyph-name="omacron" unicode="&#x14d;" horiz-adv-x="581" 
d="M247 -12q-109 0 -162 55.5t-53 155.5q0 36 4 65q17 121 90.5 192t196.5 71q109 0 159 -57.5t50 -152.5q0 -32 -4 -65q-16 -124 -87 -194t-194 -70zM257 71q62 0 102 46t51 139q4 31 4 60q0 124 -105 124q-63 0 -104.5 -44.5t-52.5 -136.5q-3 -30 -3 -57q0 -131 108 -131z
M184 617l11 82h299l-11 -82h-299z" />
    <glyph glyph-name="Obreve" unicode="&#x14e;" horiz-adv-x="742" 
d="M328 -12q-146 0 -216.5 82t-70.5 220q0 196 102 321.5t287 125.5q143 0 212 -82t69 -216q0 -203 -101 -327t-282 -124zM340 83q116 0 183 97.5t67 251.5q0 46 -11 87q-32 123 -161 123q-120 0 -188.5 -95.5t-68.5 -250.5q0 -48 11 -87q32 -126 168 -126zM445 848
q68 0 90 71l78 -6q-30 -138 -175 -138q-141 0 -142 136l82 8q1 -38 17 -54.5t50 -16.5z" />
    <glyph glyph-name="obreve" unicode="&#x14f;" horiz-adv-x="581" 
d="M247 -12q-109 0 -162 55.5t-53 155.5q0 36 4 65q17 121 90.5 192t196.5 71q109 0 159 -57.5t50 -152.5q0 -32 -4 -65q-16 -124 -87 -194t-194 -70zM257 71q62 0 102 46t51 139q4 31 4 60q0 124 -105 124q-63 0 -104.5 -44.5t-52.5 -136.5q-3 -30 -3 -57q0 -131 108 -131z
M334 644q39 0 61.5 20t33.5 70l78 -6q-9 -78 -55 -117.5t-124 -39.5q-73 0 -109 39t-32 115l81 9q-2 -47 13.5 -68.5t52.5 -21.5z" />
    <glyph glyph-name="Ohungarumlaut" unicode="&#x150;" horiz-adv-x="742" 
d="M328 -12q-146 0 -216.5 82t-70.5 220q0 196 102 321.5t287 125.5q143 0 212 -82t69 -216q0 -203 -101 -327t-282 -124zM340 83q116 0 183 97.5t67 251.5q0 46 -11 87q-32 123 -161 123q-120 0 -188.5 -95.5t-68.5 -250.5q0 -48 11 -87q32 -126 168 -126zM318 780l78 134
h126l-128 -147zM454 778l117 140h130l-167 -151z" />
    <glyph glyph-name="ohungarumlaut" unicode="&#x151;" horiz-adv-x="581" 
d="M247 -12q-109 0 -162 55.5t-53 155.5q0 36 4 65q17 121 90.5 192t196.5 71q109 0 159 -57.5t50 -152.5q0 -32 -4 -65q-16 -124 -87 -194t-194 -70zM257 71q62 0 102 46t51 139q4 31 4 60q0 124 -105 124q-63 0 -104.5 -44.5t-52.5 -136.5q-3 -30 -3 -57q0 -131 108 -131z
M206 585l84 160h126l-135 -173zM345 583l117 165h130l-169 -176z" />
    <glyph glyph-name="OE" unicode="&#x152;" horiz-adv-x="1073" 
d="M989 0h-434l13 94q-92 -106 -244 -106q-141 0 -212 83t-71 221q0 196 104.5 320.5t284.5 124.5q151 0 212 -116l14 103h420l-13 -94h-315l-31 -221h295l-13 -92h-295l-31 -223h329zM340 83q113 0 187.5 88.5t74.5 259.5q0 100 -48 155.5t-131 55.5q-115 0 -188 -89.5
t-73 -255.5q0 -103 47 -158.5t131 -55.5z" />
    <glyph glyph-name="oe" unicode="&#x153;" horiz-adv-x="891" 
d="M615 -12q-65 0 -108.5 27.5t-61.5 71.5q-70 -99 -203 -99q-106 0 -158 57t-52 162q0 134 74.5 227t212.5 93q127 0 171 -99q30 43 81.5 71t115.5 28q83 0 126 -38.5t43 -98.5q0 -107 -125 -153q-69 -25 -212 -34q0 -58 22.5 -93t86.5 -35q46 0 75.5 24.5t41.5 64.5
l93 -22q-23 -74 -82 -114t-141 -40zM257 71q57 0 94 38.5t50 90t13 113.5q0 127 -105 127q-43 0 -75.5 -21.5t-50 -57t-26 -75t-8.5 -80.5q0 -135 108 -135zM674 445q-64 0 -102.5 -45.5t-47.5 -119.5q94 4 146 20q77 24 77 84q0 30 -19.5 45.5t-53.5 15.5z" />
    <glyph glyph-name="Racute" unicode="&#x154;" horiz-adv-x="622" 
d="M441 323l124 -323h-125l-111 295h-134l-40 -295h-114l99 724h247q114 0 164.5 -49t50.5 -127q0 -86 -40.5 -140t-120.5 -85zM208 384h95q178 0 178 154q0 52 -33.5 73.5t-99.5 21.5h-106zM268 778l111 136h134l-163 -147z" />
    <glyph glyph-name="racute" unicode="&#x155;" horiz-adv-x="378" 
d="M191 348l-49 -348h-115l73 517h106l-12 -87h1q42 48 80.5 72t89.5 24q16 0 25 -1l-16 -111q-93 8 -183 -66zM185 583l108 163h133l-162 -174z" />
    <glyph glyph-name="Rcommaaccent" unicode="&#x156;" horiz-adv-x="622" 
d="M441 323l124 -323h-125l-111 295h-134l-40 -295h-114l99 724h247q114 0 164.5 -49t50.5 -127q0 -86 -40.5 -140t-120.5 -85zM208 384h95q178 0 178 154q0 52 -33.5 73.5t-99.5 21.5h-106zM160 -241l66 173h114l-100 -185z" />
    <glyph glyph-name="rcommaaccent" unicode="&#x157;" horiz-adv-x="378" 
d="M191 348l-49 -348h-115l73 517h106l-12 -87h1q42 48 80.5 72t89.5 24q16 0 25 -1l-16 -111q-93 8 -183 -66zM-33 -241l66 173h114l-100 -185z" />
    <glyph glyph-name="Rcaron" unicode="&#x158;" horiz-adv-x="622" 
d="M441 323l124 -323h-125l-111 295h-134l-40 -295h-114l99 724h247q114 0 164.5 -49t50.5 -127q0 -86 -40.5 -140t-120.5 -85zM208 384h95q178 0 178 154q0 52 -33.5 73.5t-99.5 21.5h-106zM207 904l83 7l69 -77l91 78l82 -8l-131 -133h-103z" />
    <glyph glyph-name="rcaron" unicode="&#x159;" horiz-adv-x="378" 
d="M191 348l-49 -348h-115l73 517h106l-12 -87h1q42 48 80.5 72t89.5 24q16 0 25 -1l-16 -111q-93 8 -183 -66zM108 736l83 6l66 -107l96 108l85 -7l-133 -164h-111z" />
    <glyph glyph-name="Sacute" unicode="&#x15a;" horiz-adv-x="577" 
d="M563 529l-109 -12q1 61 -24.5 96t-93.5 35q-72 0 -108 -32.5t-36 -84.5q0 -24 9.5 -42t32.5 -31.5t40 -20.5t52 -18q94 -32 127 -54q74 -49 74 -142q0 -115 -80.5 -175t-195.5 -60q-248 0 -251 214l108 16q5 -64 36 -102t109 -38q67 0 111 29.5t44 97.5q0 47 -33 70
t-99 43l-41.5 13t-38.5 14t-40 19l-31.5 24t-28.5 32.5t-15.5 41t-7.5 53.5q0 101 77.5 161.5t192.5 60.5q49 0 88.5 -10.5t70.5 -34t47 -65t14 -98.5zM262 778l111 136h134l-163 -147z" />
    <glyph glyph-name="sacute" unicode="&#x15b;" horiz-adv-x="492" 
d="M269 527q88 0 135 -41.5t53 -113.5l-96 -17q-9 93 -96 93q-48 0 -70.5 -19t-22.5 -48q0 -17 7.5 -29.5t25.5 -21.5t31.5 -13l41.5 -12q28 -7 44.5 -12.5t40 -17t36.5 -25.5t23 -37.5t10 -53.5q0 -81 -61 -126t-160 -45q-184 0 -199 154l94 21q13 -96 112 -96
q43 0 72.5 17.5t29.5 55.5q0 18 -7.5 31t-24.5 22.5t-30.5 14t-40.5 11.5q-30 8 -45 12.5t-40 16.5t-37.5 25.5t-22.5 37t-10 54.5q0 80 60.5 121t146.5 41zM207 583l108 163h133l-162 -174z" />
    <glyph glyph-name="Scircumflex" unicode="&#x15c;" horiz-adv-x="577" 
d="M563 529l-109 -12q1 61 -24.5 96t-93.5 35q-72 0 -108 -32.5t-36 -84.5q0 -24 9.5 -42t32.5 -31.5t40 -20.5t52 -18q94 -32 127 -54q74 -49 74 -142q0 -115 -80.5 -175t-195.5 -60q-248 0 -251 214l108 16q5 -64 36 -102t109 -38q67 0 111 29.5t44 97.5q0 47 -33 70
t-99 43l-41.5 13t-38.5 14t-40 19l-31.5 24t-28.5 32.5t-15.5 41t-7.5 53.5q0 101 77.5 161.5t192.5 60.5q49 0 88.5 -10.5t70.5 -34t47 -65t14 -98.5zM508 776l-82 -7l-69 76l-91 -78l-83 9l131 133h103z" />
    <glyph glyph-name="scircumflex" unicode="&#x15d;" horiz-adv-x="492" 
d="M269 527q88 0 135 -41.5t53 -113.5l-96 -17q-9 93 -96 93q-48 0 -70.5 -19t-22.5 -48q0 -17 7.5 -29.5t25.5 -21.5t31.5 -13l41.5 -12q28 -7 44.5 -12.5t40 -17t36.5 -25.5t23 -37.5t10 -53.5q0 -81 -61 -126t-160 -45q-184 0 -199 154l94 21q13 -96 112 -96
q43 0 72.5 17.5t29.5 55.5q0 18 -7.5 31t-24.5 22.5t-30.5 14t-40.5 11.5q-30 8 -45 12.5t-40 16.5t-37.5 25.5t-22.5 37t-10 54.5q0 80 60.5 121t146.5 41zM446 582l-81 -5l-68 107l-95 -109l-86 7l134 165h111z" />
    <glyph glyph-name="Scedilla" unicode="&#x15e;" horiz-adv-x="577" 
d="M121 -218l19 58q31 -14 54 -14q25 0 39.5 12.5t14.5 33.5q0 22 -15.5 31t-48.5 10l21 77q-202 17 -205 212l108 16q3 -31 9.5 -53t21 -43.5t42.5 -33t69 -11.5q67 0 112.5 30t45.5 98q0 47 -33 70t-99 43l-41.5 13t-38.5 14t-40 19l-31.5 24t-28.5 32.5t-15.5 41
t-7.5 53.5q0 101 77.5 161.5t192.5 60.5q49 0 88.5 -10.5t70.5 -34t47 -65t14 -98.5l-109 -12q1 61 -24.5 96t-93.5 35q-72 0 -108 -32.5t-36 -84.5q0 -24 9.5 -42t32.5 -31.5t40 -20.5t52 -18q94 -32 127 -54q74 -49 74 -142q0 -110 -73.5 -169t-184.5 -65l-9 -34
q70 -14 70 -78q0 -54 -36 -83.5t-93 -29.5q-44 0 -80 18z" />
    <glyph glyph-name="scedilla" unicode="&#x15f;" horiz-adv-x="492" 
d="M91 -218l19 58q31 -14 54 -14q25 0 39.5 12.5t14.5 33.5q0 22 -15.5 31t-48.5 10l21 77q-153 14 -166 151l97 22q13 -96 112 -96q43 0 72.5 17.5t29.5 55.5q0 30 -26.5 47.5t-64.5 27t-76 22t-64.5 44.5t-26.5 84q0 80 60.5 121t146.5 41q88 0 135 -41.5t53 -113.5
l-96 -17q-9 93 -96 93q-48 0 -70.5 -19t-22.5 -48q0 -30 27 -47t65 -26t76 -21.5t65 -44t27 -83.5q0 -75 -52.5 -119.5t-141.5 -50.5l-9 -34q71 -14 71 -78q0 -54 -36.5 -83.5t-92.5 -29.5q-46 0 -80 18z" />
    <glyph glyph-name="Scaron" unicode="&#x160;" horiz-adv-x="577" 
d="M563 529l-109 -12q1 61 -24.5 96t-93.5 35q-72 0 -108 -32.5t-36 -84.5q0 -24 9.5 -42t32.5 -31.5t40 -20.5t52 -18q94 -32 127 -54q74 -49 74 -142q0 -115 -80.5 -175t-195.5 -60q-248 0 -251 214l108 16q5 -64 36 -102t109 -38q67 0 111 29.5t44 97.5q0 47 -33 70
t-99 43l-41.5 13t-38.5 14t-40 19l-31.5 24t-28.5 32.5t-15.5 41t-7.5 53.5q0 101 77.5 161.5t192.5 60.5q49 0 88.5 -10.5t70.5 -34t47 -65t14 -98.5zM201 904l83 7l69 -77l91 78l82 -8l-131 -133h-103z" />
    <glyph glyph-name="scaron" unicode="&#x161;" horiz-adv-x="492" 
d="M269 527q88 0 135 -41.5t53 -113.5l-96 -17q-9 93 -96 93q-48 0 -70.5 -19t-22.5 -48q0 -17 7.5 -29.5t25.5 -21.5t31.5 -13l41.5 -12q28 -7 44.5 -12.5t40 -17t36.5 -25.5t23 -37.5t10 -53.5q0 -81 -61 -126t-160 -45q-184 0 -199 154l94 21q13 -96 112 -96
q43 0 72.5 17.5t29.5 55.5q0 18 -7.5 31t-24.5 22.5t-30.5 14t-40.5 11.5q-30 8 -45 12.5t-40 16.5t-37.5 25.5t-22.5 37t-10 54.5q0 80 60.5 121t146.5 41zM141 736l83 6l66 -107l96 108l85 -7l-133 -164h-111z" />
    <glyph glyph-name="uni0162" unicode="&#x162;" horiz-adv-x="558" 
d="M114 -218l19 58q31 -14 54 -14q25 0 39.5 12.5t14.5 33.5q0 22 -15.5 31t-48.5 10l24 87h-23l86 628h-212l13 96h537l-13 -96h-210l-86 -628h-27l-13 -45q70 -14 70 -78q0 -54 -36 -83.5t-93 -29.5q-44 0 -80 18z" />
    <glyph glyph-name="uni0163" unicode="&#x163;" horiz-adv-x="393" 
d="M66 -218l19 58q31 -14 54 -14q25 0 39.5 12.5t14.5 33.5q0 22 -15.5 31t-48.5 10l23 82q-100 25 -82 152l41 288h-79l11 82h79l22 149l117 17l-24 -166h140l-11 -82h-140l-39 -276q-6 -43 5 -63.5t50 -20.5q42 0 88 24l14 -77q-55 -32 -131 -34l-9 -33q71 -14 71 -78
q0 -54 -36.5 -83.5t-92.5 -29.5q-46 0 -80 18z" />
    <glyph glyph-name="Tcaron" unicode="&#x164;" horiz-adv-x="558" 
d="M293 0h-115l86 628h-212l13 96h537l-13 -96h-210zM195 904l83 7l69 -77l91 78l82 -8l-131 -133h-103z" />
    <glyph glyph-name="tcaron" unicode="&#x165;" horiz-adv-x="393" 
d="M330 99l14 -77q-58 -34 -134 -34q-162 0 -140 159l41 288h-79l11 82h79l22 149l117 17l-24 -166h140l-11 -82h-140l-39 -276q-6 -43 5 -63.5t50 -20.5q42 0 88 24zM293 577l60 192h112l-91 -200z" />
    <glyph glyph-name="Tbar" unicode="&#x166;" horiz-adv-x="558" 
d="M84 315l13 89h136l31 224h-212l13 96h537l-13 -96h-210l-31 -224h143l-13 -89h-142l-43 -315h-115l43 315h-137z" />
    <glyph glyph-name="tbar" unicode="&#x167;" horiz-adv-x="393" 
d="M330 99l14 -77q-58 -34 -134 -34q-162 0 -140 159l12 88h-76l11 79h77l17 121h-79l11 82h79l22 149l117 17l-24 -166h140l-11 -82h-140l-17 -121h141l-11 -79h-142l-10 -76q-6 -43 5 -63.5t50 -20.5q42 0 88 24z" />
    <glyph glyph-name="Utilde" unicode="&#x168;" horiz-adv-x="696" 
d="M672 724l-65 -475q-36 -261 -301 -261q-141 0 -198 67t-39 201l65 468h115l-63 -461q-13 -96 17 -138.5t111 -42.5q82 0 124.5 41t55.5 137l63 464h115zM355 911q34 0 75.5 -22.5t61.5 -22.5q18 0 28 11t14 38l63 -3q-2 -61 -31 -94t-74 -33q-35 0 -78 23t-63 23
q-35 0 -39 -52l-66 3q3 61 33.5 95t75.5 34z" />
    <glyph glyph-name="utilde" unicode="&#x169;" horiz-adv-x="579" 
d="M371 145l51 372h115l-72 -517h-102l8 66q0 1 -1 1q-33 -32 -83 -55t-103 -23q-78 0 -113 45.5t-23 132.5l48 350h115l-46 -336q-4 -24 -1 -42q1 -58 65 -58q68 0 142 64zM264 721q34 0 75.5 -22.5t61.5 -22.5q19 0 28 11t14 38l63 -3q-5 -62 -32 -94.5t-73 -32.5
q-35 0 -78 23t-63 23q-35 0 -40 -52l-66 3q5 62 35 95.5t75 33.5z" />
    <glyph glyph-name="Umacron" unicode="&#x16a;" horiz-adv-x="696" 
d="M672 724l-65 -475q-36 -261 -301 -261q-141 0 -198 67t-39 201l65 468h115l-63 -461q-13 -96 17 -138.5t111 -42.5q82 0 124.5 41t55.5 137l63 464h115zM566 790h-311l11 82h311z" />
    <glyph glyph-name="umacron" unicode="&#x16b;" horiz-adv-x="579" 
d="M371 145l51 372h115l-72 -517h-102l8 66q0 1 -1 1q-33 -32 -83 -55t-103 -23q-78 0 -113 45.5t-23 132.5l48 350h115l-46 -336q-4 -24 -1 -42q1 -58 65 -58q68 0 142 64zM180 617l11 82h299l-11 -82h-299z" />
    <glyph glyph-name="Ubreve" unicode="&#x16c;" horiz-adv-x="696" 
d="M672 724l-65 -475q-36 -261 -301 -261q-141 0 -198 67t-39 201l65 468h115l-63 -461q-13 -96 17 -138.5t111 -42.5q82 0 124.5 41t55.5 137l63 464h115zM418 848q68 0 90 71l78 -6q-30 -138 -175 -138q-141 0 -142 136l82 8q1 -38 17 -54.5t50 -16.5z" />
    <glyph glyph-name="ubreve" unicode="&#x16d;" horiz-adv-x="579" 
d="M371 145l51 372h115l-72 -517h-102l8 66q0 1 -1 1q-33 -32 -83 -55t-103 -23q-78 0 -113 45.5t-23 132.5l48 350h115l-46 -336q-4 -24 -1 -42q1 -58 65 -58q68 0 142 64zM330 644q39 0 61.5 20t33.5 70l78 -6q-9 -78 -55 -117.5t-124 -39.5q-73 0 -109 39t-32 115l81 9
q-2 -47 13.5 -68.5t52.5 -21.5z" />
    <glyph glyph-name="Uring" unicode="&#x16e;" horiz-adv-x="696" 
d="M672 724l-65 -475q-36 -261 -301 -261q-141 0 -198 67t-39 201l65 468h115l-63 -461q-13 -96 17 -138.5t111 -42.5q82 0 124.5 41t55.5 137l63 464h115zM526 849q0 -55 -35 -87t-91 -32q-45 0 -71.5 22.5t-26.5 63.5q0 56 37.5 88t88.5 32q43 0 70.5 -22.5t27.5 -64.5z
M406 783q27 0 42.5 16.5t15.5 43.5q0 40 -43 40q-26 0 -42 -15.5t-16 -43.5q0 -41 43 -41z" />
    <glyph glyph-name="uring" unicode="&#x16f;" horiz-adv-x="579" 
d="M371 145l51 372h115l-72 -517h-102l8 66q0 1 -1 1q-33 -32 -83 -55t-103 -23q-78 0 -113 45.5t-23 132.5l48 350h115l-46 -336q-4 -24 -1 -42q1 -58 65 -58q68 0 142 64zM445 689q0 -54 -34.5 -85.5t-90.5 -31.5q-44 0 -70 22.5t-26 62.5q0 55 37 86.5t88 31.5
q43 0 69.5 -22t26.5 -64zM327 626q26 0 40.5 15t14.5 41q0 38 -41 38q-24 0 -39.5 -14.5t-15.5 -41.5q0 -38 41 -38z" />
    <glyph glyph-name="Uhungarumlaut" unicode="&#x170;" horiz-adv-x="696" 
d="M672 724l-65 -475q-36 -261 -301 -261q-141 0 -198 67t-39 201l65 468h115l-63 -461q-13 -96 17 -138.5t111 -42.5q82 0 124.5 41t55.5 137l63 464h115zM291 780l78 134h126l-128 -147zM427 778l117 140h130l-167 -151z" />
    <glyph glyph-name="uhungarumlaut" unicode="&#x171;" horiz-adv-x="579" 
d="M371 145l51 372h115l-72 -517h-102l8 66q0 1 -1 1q-33 -32 -83 -55t-103 -23q-78 0 -113 45.5t-23 132.5l48 350h115l-46 -336q-4 -24 -1 -42q1 -58 65 -58q68 0 142 64zM202 585l84 160h126l-135 -173zM341 583l117 165h130l-169 -176z" />
    <glyph glyph-name="Uogonek" unicode="&#x172;" horiz-adv-x="696" 
d="M428 -118l54 -27q-18 -43 -52.5 -65t-76.5 -22q-48 0 -75.5 23t-27.5 64q0 69 83 134q-9 -1 -27 -1q-141 0 -198 67t-39 201l65 468h115l-63 -461q-13 -96 17 -138.5t111 -42.5q82 0 124.5 41t55.5 137l63 464h115l-65 -475q-12 -88 -51 -143t-106 -95
q-107 -65 -107 -137q0 -34 31 -34q29 0 54 42z" />
    <glyph glyph-name="uogonek" unicode="&#x173;" horiz-adv-x="579" 
d="M443 -118l53 -27q-21 -43 -57.5 -65t-78.5 -22q-45 0 -71.5 22t-26.5 59q0 45 27.5 80.5t73.5 70.5l8 66q0 1 -1 1q-33 -32 -83 -55t-103 -23q-78 0 -113 45.5t-23 132.5l48 350h115l-46 -336q-4 -24 -1 -42q1 -58 65 -58q68 0 142 64l51 372h115l-72 -517
q-59 -43 -83.5 -70t-24.5 -59q0 -31 30 -31q28 0 56 42z" />
    <glyph glyph-name="Wcircumflex" unicode="&#x174;" horiz-adv-x="913" 
d="M696 0h-147l-58 564h-2l-213 -564h-149l-54 724h120l30 -598h2l225 598h126l64 -604h2l188 604h115zM680 776l-82 -7l-69 76l-91 -78l-83 9l131 133h103z" />
    <glyph glyph-name="wcircumflex" unicode="&#x175;" horiz-adv-x="778" 
d="M249 0h-137l-79 517h114l51 -402l160 402h118l49 -400l159 400h113l-224 -517h-132l-45 384zM586 582l-81 -5l-68 107l-95 -109l-86 7l134 165h111z" />
    <glyph glyph-name="Ycircumflex" unicode="&#x176;" horiz-adv-x="564" 
d="M340 279l-39 -279h-116l39 278l-181 446h120l130 -341h2l215 341h121zM506 776l-82 -7l-69 76l-91 -78l-83 9l131 133h103z" />
    <glyph glyph-name="ycircumflex" unicode="&#x177;" horiz-adv-x="497" 
d="M146 -7l-113 524h122l65 -396h2l177 396h119l-271 -551q-55 -110 -96.5 -149.5t-115.5 -39.5q-57 0 -97 20l20 81q39 -15 71 -15q35 0 58.5 27.5t58.5 102.5zM447 582l-81 -5l-68 107l-95 -109l-86 7l134 165h111z" />
    <glyph glyph-name="Ydieresis" unicode="&#x178;" horiz-adv-x="564" 
d="M340 279l-39 -279h-116l39 278l-181 446h120l130 -341h2l215 341h121zM169 837q0 35 23.5 56.5t60.5 21.5q30 0 47 -16t17 -43q0 -35 -23 -56.5t-60 -21.5q-30 0 -47.5 15.5t-17.5 43.5zM388 837q0 35 24 56.5t61 21.5q30 0 47 -16t17 -43q0 -35 -23 -56.5t-60 -21.5
q-30 0 -48 15.5t-18 43.5z" />
    <glyph glyph-name="Zacute" unicode="&#x179;" horiz-adv-x="568" 
d="M497 0h-509l11 80l433 550h-348l13 94h485l-12 -82l-428 -548h369zM252 778l111 136h134l-163 -147z" />
    <glyph glyph-name="zacute" unicode="&#x17a;" horiz-adv-x="459" 
d="M389 0h-402l11 76l310 357h-258l12 84h387l-12 -77l-305 -352h270zM185 583l108 163h133l-162 -174z" />
    <glyph glyph-name="Zdotaccent" unicode="&#x17b;" horiz-adv-x="568" 
d="M497 0h-509l11 80l433 550h-348l13 94h485l-12 -82l-428 -548h369zM424 865q0 -41 -23 -64t-64 -23q-31 0 -48 16.5t-17 45.5q0 40 23 63t63 23q66 0 66 -61z" />
    <glyph glyph-name="zdotaccent" unicode="&#x17c;" horiz-adv-x="459" 
d="M389 0h-402l11 76l310 357h-258l12 84h387l-12 -77l-305 -352h270zM198 667q0 40 23 63t63 23q66 0 66 -61q0 -41 -23 -64t-64 -23q-31 0 -48 16.5t-17 45.5z" />
    <glyph glyph-name="Zcaron" unicode="&#x17d;" horiz-adv-x="568" 
d="M497 0h-509l11 80l433 550h-348l13 94h485l-12 -82l-428 -548h369zM191 904l83 7l69 -77l91 78l82 -8l-131 -133h-103z" />
    <glyph glyph-name="zcaron" unicode="&#x17e;" horiz-adv-x="459" 
d="M389 0h-402l11 76l310 357h-258l12 84h387l-12 -77l-305 -352h270zM119 736l83 6l66 -107l96 108l85 -7l-133 -164h-111z" />
    <glyph glyph-name="longs" unicode="&#x17f;" horiz-adv-x="290" 
d="M408 746l-16 -81q-38 14 -71 14q-37 0 -59.5 -19t-29.5 -70l-113 -802h-115l114 807q23 170 187 170q67 0 103 -19z" />
    <glyph glyph-name="florin" unicode="&#x192;" horiz-adv-x="552" 
d="M198 446l25 123q18 86 61 127t123 41q123 0 159 -118l-93 -29q-10 32 -24.5 48t-40.5 16q-30 0 -48.5 -18t-26.5 -59l-25 -131h138l-14 -78h-137l-76 -392q-18 -85 -60 -124t-121 -39q-65 0 -107 30.5t-55 83.5l94 33q11 -31 25.5 -47.5t42.5 -16.5q30 0 46 18t24 61
l77 393h-86l13 78h86z" />
    <glyph glyph-name="Aringacute" unicode="&#x1fa;" horiz-adv-x="664" 
d="M504 819q0 -64 -47 -98l147 -721h-123l-39 204h-254l-92 -204h-121l331 719q-29 24 -29 67q0 56 38 89t91 33q43 0 70.5 -23t27.5 -66zM429 296l-59 325h-1l-146 -325h206zM351 941l111 136h134l-163 -147zM383 754q27 0 42 15t15 43q0 39 -43 39q-25 0 -40.5 -15
t-15.5 -43q0 -39 42 -39z" />
    <glyph glyph-name="aringacute" unicode="&#x1fb;" horiz-adv-x="598" 
d="M541 517l-58 -409q-3 -23 1.5 -32.5t22.5 -9.5q12 0 33 6l-8 -67q-30 -13 -72 -13q-81 0 -85 73q-69 -77 -171 -77q-79 0 -124.5 49.5t-45.5 151.5q0 146 68 242t184 96q80 0 140 -54l8 44h107zM374 140l35 253q-44 42 -107 42q-40 0 -71 -23t-47 -59.5t-23.5 -75
t-7.5 -76.5q0 -123 91 -123q63 0 130 62zM455 685q0 -54 -34.5 -85.5t-90.5 -31.5q-44 0 -70 22.5t-26 62.5q0 55 37 86.5t88 31.5q43 0 69.5 -22t26.5 -64zM337 622q26 0 40.5 15t14.5 41q0 38 -41 38q-24 0 -39.5 -14.5t-15.5 -41.5q0 -38 41 -38zM296 813l111 136h134
l-163 -147z" />
    <glyph glyph-name="AEacute" unicode="&#x1fc;" horiz-adv-x="999" 
d="M925 0h-442l42 307h-199l-201 -307h-122l479 724h530l-13 -94h-312l-32 -228h292l-13 -93h-292l-30 -215h326zM538 399l33 231h-41l-154 -231h162zM658 778l111 136h134l-163 -147z" />
    <glyph glyph-name="aeacute" unicode="&#x1fd;" horiz-adv-x="855" 
d="M574 -12q-120 0 -172 80q-91 -80 -197 -80q-78 0 -124.5 49.5t-46.5 151.5q0 146 68 242t184 96q80 0 140 -54l8 44h87l-6 -34q25 19 65 31.5t80 12.5q76 0 118 -39t42 -98q0 -35 -14.5 -64t-34.5 -47.5t-54.5 -32.5t-60 -21.5t-66.5 -12.5t-57.5 -6l-49.5 -3
q-1 -128 109 -128q43 0 74 23.5t43 65.5l93 -22q-23 -75 -83 -114.5t-145 -39.5zM373 139q-8 37 -8 74q0 103 45 180q-45 42 -108 42q-40 0 -71 -23t-47 -59.5t-23.5 -75t-7.5 -76.5q0 -123 91 -123q63 0 129 61zM639 445q-63 0 -102.5 -46t-48.5 -116q94 4 146 20
q77 24 77 81q0 30 -19 45.5t-53 15.5zM425 583l108 163h133l-162 -174z" />
    <glyph glyph-name="Oslashacute" unicode="&#x1fe;" horiz-adv-x="742" 
d="M346 790l111 136h134l-163 -147zM328 -12q-30 0 -60 5l-30 -71h-104l42 98q-135 70 -135 270q0 196 102 321.5t287 125.5q27 0 51 -3l24 55h104l-35 -82q137 -69 137 -268q0 -203 -101 -327t-282 -124zM340 83q116 0 183 97.5t67 251.5q0 46 -11 87q-16 56 -49 85
l-223 -519q11 -2 33 -2zM172 209q14 -55 48 -86l221 518q-7 1 -23 1q-120 0 -188.5 -95.5t-68.5 -250.5q0 -48 11 -87z" />
    <glyph glyph-name="oslashacute" unicode="&#x1ff;" horiz-adv-x="581" 
d="M248 619l111 136h134l-163 -147zM247 -12q-13 0 -37 2l-28 -64h-93l38 87q-95 48 -95 186q0 36 4 65q17 121 90.5 192t196.5 71q11 0 31 -2l28 64h93l-38 -86q95 -49 95 -186q0 -32 -4 -65q-16 -124 -87 -194t-194 -70zM257 71q62 0 102 46t51 139q4 31 4 60q0 55 -22 86
l-146 -331h11zM149 202q0 -60 22 -91l145 329h-7q-63 0 -104.5 -44.5t-52.5 -136.5q-3 -30 -3 -57z" />
    <glyph glyph-name="Scommaaccent" unicode="&#x218;" horiz-adv-x="577" 
d="M563 529l-109 -12q1 61 -24.5 96t-93.5 35q-72 0 -108 -32.5t-36 -84.5q0 -24 9.5 -42t32.5 -31.5t40 -20.5t52 -18q94 -32 127 -54q74 -49 74 -142q0 -115 -80.5 -175t-195.5 -60q-248 0 -251 214l108 16q5 -64 36 -102t109 -38q67 0 111 29.5t44 97.5q0 47 -33 70
t-99 43l-41.5 13t-38.5 14t-40 19l-31.5 24t-28.5 32.5t-15.5 41t-7.5 53.5q0 101 77.5 161.5t192.5 60.5q49 0 88.5 -10.5t70.5 -34t47 -65t14 -98.5zM125 -241l66 173h114l-100 -185z" />
    <glyph glyph-name="scommaaccent" unicode="&#x219;" horiz-adv-x="492" 
d="M269 527q88 0 135 -41.5t53 -113.5l-96 -17q-9 93 -96 93q-48 0 -70.5 -19t-22.5 -48q0 -17 7.5 -29.5t25.5 -21.5t31.5 -13l41.5 -12q28 -7 44.5 -12.5t40 -17t36.5 -25.5t23 -37.5t10 -53.5q0 -81 -61 -126t-160 -45q-184 0 -199 154l94 21q13 -96 112 -96
q43 0 72.5 17.5t29.5 55.5q0 18 -7.5 31t-24.5 22.5t-30.5 14t-40.5 11.5q-30 8 -45 12.5t-40 16.5t-37.5 25.5t-22.5 37t-10 54.5q0 80 60.5 121t146.5 41zM83 -241l66 173h114l-100 -185z" />
    <glyph glyph-name="uni021A" unicode="&#x21a;" horiz-adv-x="558" 
d="M293 0h-115l86 628h-212l13 96h537l-13 -96h-210zM115 -241l66 173h114l-100 -185z" />
    <glyph glyph-name="uni021B" unicode="&#x21b;" horiz-adv-x="393" 
d="M330 99l14 -77q-58 -34 -134 -34q-162 0 -140 159l41 288h-79l11 82h79l22 149l117 17l-24 -166h140l-11 -82h-140l-39 -276q-6 -43 5 -63.5t50 -20.5q42 0 88 24zM65 -241l66 173h114l-100 -185z" />
    <glyph glyph-name="dotlessj" unicode="&#x237;" horiz-adv-x="255" 
d="M19 -55l81 572h115l-82 -577q-22 -163 -179 -163q-30 0 -63 7.5t-46 16.5l22 81q36 -15 74 -15q32 0 52 17t26 61z" />
    <glyph glyph-name="apostrophe" unicode="&#x2bc;" horiz-adv-x="499" 
d="M242 529l66 173h114l-100 -185z" />
    <glyph glyph-name="circumflex" unicode="&#x2c6;" horiz-adv-x="500" 
d="M516 582l-81 -5l-68 107l-95 -109l-86 7l134 165h111z" />
    <glyph glyph-name="caron" unicode="&#x2c7;" horiz-adv-x="500" 
d="M211 736l83 6l66 -107l96 108l85 -7l-133 -164h-111z" />
    <glyph glyph-name="uni02C9" unicode="&#x2c9;" horiz-adv-x="500" 
d="M208 611l11 82h299l-11 -82h-299z" />
    <glyph glyph-name="breve" unicode="&#x2d8;" horiz-adv-x="499" 
d="M360 644q39 0 61.5 20t33.5 70l78 -6q-9 -78 -55 -117.5t-124 -39.5q-73 0 -109 39t-32 115l81 9q-2 -47 13.5 -68.5t52.5 -21.5z" />
    <glyph glyph-name="dotaccent" unicode="&#x2d9;" horiz-adv-x="500" 
d="M290 667q0 40 23 63t63 23q66 0 66 -61q0 -41 -23 -64t-64 -23q-31 0 -48 16.5t-17 45.5z" />
    <glyph glyph-name="ring" unicode="&#x2da;" horiz-adv-x="500" 
d="M475 689q0 -54 -34.5 -85.5t-90.5 -31.5q-44 0 -70 22.5t-26 62.5q0 55 37 86.5t88 31.5q43 0 69.5 -22t26.5 -64zM357 626q26 0 40.5 15t14.5 41q0 38 -41 38q-24 0 -39.5 -14.5t-15.5 -41.5q0 -38 41 -38z" />
    <glyph glyph-name="ogonek" unicode="&#x2db;" horiz-adv-x="500" 
d="M301 -118l53 -27q-21 -43 -57.5 -65t-78.5 -22q-45 0 -71.5 22t-26.5 59q0 53 38 92.5t104 80.5l61 -15l-59.5 -51t-31.5 -37.5t-17 -47.5q0 -31 30 -31q28 0 56 42z" />
    <glyph glyph-name="tilde" unicode="&#x2dc;" horiz-adv-x="499" 
d="M294 721q34 0 75.5 -22.5t61.5 -22.5q19 0 28 11t14 38l63 -3q-5 -62 -32 -94.5t-73 -32.5q-35 0 -78 23t-63 23q-35 0 -40 -52l-66 3q5 62 35 95.5t75 33.5z" />
    <glyph glyph-name="hungarumlaut" unicode="&#x2dd;" horiz-adv-x="499" 
d="M232 585l84 160h126l-135 -173zM371 583l117 165h130l-169 -176z" />
    <glyph glyph-name="uni0394" unicode="&#x394;" horiz-adv-x="673" 
d="M315 724h148l143 -658v-66h-606v65zM479 92l-103 529h-1l-241 -529h345z" />
    <glyph glyph-name="uni03A9" unicode="&#x3a9;" horiz-adv-x="766" 
d="M430 642q-117 0 -184.5 -77.5t-67.5 -188.5q0 -74 39 -124t103 -68l-26 -184h-273l13 90h175l5 35q-156 59 -156 249q0 153 102 258t276 105q138 0 221.5 -72.5t83.5 -215.5q0 -66 -21.5 -128t-75.5 -117.5t-133 -78.5l-5 -35h181l-13 -90h-279l26 183q85 18 142 91
t57 170q0 89 -48.5 143.5t-141.5 54.5z" />
    <glyph glyph-name="uni03BC" unicode="&#x3bc;" horiz-adv-x="596" 
d="M373 65q-33 -29 -79 -50t-90 -21q-43 0 -63 20l-32 -226h-111l103 729h112l-43 -315q-6 -48 -6 -62q0 -59 65 -59q72 0 144 64l51 372h115l-56 -396q-6 -17 -3.5 -36t25.5 -19q12 0 33 6l-8 -67q-28 -13 -68 -13q-42 0 -63.5 15t-25.5 58z" />
    <glyph glyph-name="pi" unicode="&#x3c0;" horiz-adv-x="653" 
d="M376 102l46 328h-163l-103 -430h-116l108 430h-102l12 87h583l-13 -87h-97l-44 -321q-3 -21 3.5 -32t28.5 -11q14 0 35 6l-8 -67q-30 -13 -78 -13q-107 0 -92 110z" />
    <glyph glyph-name="Wgrave" unicode="&#x1e80;" horiz-adv-x="913" 
d="M696 0h-147l-58 564h-2l-213 -564h-149l-54 724h120l30 -598h2l225 598h126l64 -604h2l188 604h115zM394 914h129l76 -136l-83 -11z" />
    <glyph glyph-name="wgrave" unicode="&#x1e81;" horiz-adv-x="778" 
d="M249 0h-137l-79 517h114l51 -402l160 402h118l49 -400l159 400h113l-224 -517h-132l-45 384zM499 583l-81 -11l-113 174h129z" />
    <glyph glyph-name="Wacute" unicode="&#x1e82;" horiz-adv-x="913" 
d="M696 0h-147l-58 564h-2l-213 -564h-149l-54 724h120l30 -598h2l225 598h126l64 -604h2l188 604h115zM434 778l111 136h134l-163 -147z" />
    <glyph glyph-name="wacute" unicode="&#x1e83;" horiz-adv-x="778" 
d="M249 0h-137l-79 517h114l51 -402l160 402h118l49 -400l159 400h113l-224 -517h-132l-45 384zM347 583l108 163h133l-162 -174z" />
    <glyph glyph-name="Wdieresis" unicode="&#x1e84;" horiz-adv-x="913" 
d="M696 0h-147l-58 564h-2l-213 -564h-149l-54 724h120l30 -598h2l225 598h126l64 -604h2l188 604h115zM343 837q0 35 23.5 56.5t60.5 21.5q30 0 47 -16t17 -43q0 -35 -23 -56.5t-60 -21.5q-30 0 -47.5 15.5t-17.5 43.5zM562 837q0 35 24 56.5t61 21.5q30 0 47 -16t17 -43
q0 -35 -23 -56.5t-60 -21.5q-30 0 -48 15.5t-18 43.5z" />
    <glyph glyph-name="wdieresis" unicode="&#x1e85;" horiz-adv-x="778" 
d="M249 0h-137l-79 517h114l51 -402l160 402h118l49 -400l159 400h113l-224 -517h-132l-45 384zM251 669q0 35 23.5 56.5t60.5 21.5q30 0 47 -16t17 -43q0 -35 -23.5 -56.5t-59.5 -21.5q-30 0 -47.5 16t-17.5 43zM470 669q0 35 24 56.5t61 21.5q30 0 47 -16t17 -43
q0 -35 -23.5 -56.5t-59.5 -21.5q-30 0 -48 16t-18 43z" />
    <glyph glyph-name="Ygrave" unicode="&#x1ef2;" horiz-adv-x="564" 
d="M340 279l-39 -279h-116l39 278l-181 446h120l130 -341h2l215 341h121zM200 914h129l76 -136l-83 -11z" />
    <glyph glyph-name="ygrave" unicode="&#x1ef3;" horiz-adv-x="497" 
d="M146 -7l-113 524h122l65 -396h2l177 396h119l-271 -551q-55 -110 -96.5 -149.5t-115.5 -39.5q-57 0 -97 20l20 81q39 -15 71 -15q35 0 58.5 27.5t58.5 102.5zM349 583l-81 -11l-113 174h129z" />
    <glyph glyph-name="thinspace" unicode="&#x2009;" horiz-adv-x="125" 
 />
    <glyph glyph-name="endash" unicode="&#x2013;" horiz-adv-x="500" 
d="M489 239h-499l12 84h499z" />
    <glyph glyph-name="emdash" unicode="&#x2014;" horiz-adv-x="1000" 
d="M989 239h-999l12 84h999z" />
    <glyph glyph-name="quoteleft" unicode="&#x2018;" horiz-adv-x="219" 
d="M264 773l-84 -222h-117l117 232z" />
    <glyph glyph-name="quoteright" unicode="&#x2019;" horiz-adv-x="219" 
d="M65 547l84 222h117l-117 -232z" />
    <glyph glyph-name="quotesinglbase" unicode="&#x201a;" horiz-adv-x="219" 
d="M-39 -132l84 222h117l-117 -232z" />
    <glyph glyph-name="quotedblleft" unicode="&#x201c;" horiz-adv-x="385" 
d="M430 773l-84 -222h-117l117 232zM264 773l-84 -222h-117l117 232z" />
    <glyph glyph-name="quotedblright" unicode="&#x201d;" horiz-adv-x="384" 
d="M231 547l84 222h117l-117 -232zM65 547l84 222h117l-117 -232z" />
    <glyph glyph-name="quotedblbase" unicode="&#x201e;" horiz-adv-x="385" 
d="M-39 -132l84 222h117l-117 -232zM127 -132l84 222h117l-117 -232z" />
    <glyph glyph-name="dagger" unicode="&#x2020;" horiz-adv-x="419" 
d="M421 468l-149 11l-62 -562h-111l94 563l-151 -12l13 95l148 -13l12 174h105l-37 -173l151 12z" />
    <glyph glyph-name="daggerdbl" unicode="&#x2021;" horiz-adv-x="431" 
d="M7 173l148 -11l43 318l-150 -12l13 95l148 -13l12 174h105l-37 -173l151 12l-13 -95l-148 11l-44 -318l151 12l-14 -95l-147 13l-12 -174h-105l37 173l-152 -12z" />
    <glyph glyph-name="bullet" unicode="&#x2022;" horiz-adv-x="419" 
d="M350 304q0 -79 -43 -121t-122 -42q-125 0 -125 114q0 79 43 121t121 42q126 0 126 -114z" />
    <glyph glyph-name="ellipsis" unicode="&#x2026;" horiz-adv-x="677" 
d="M599 75q0 -87 -89 -87q-69 0 -69 61q0 87 90 87q68 0 68 -61zM167 75q0 -87 -89 -87q-69 0 -69 61q0 87 90 87q68 0 68 -61zM380 75q0 -87 -89 -87q-69 0 -69 61q0 87 90 87q68 0 68 -61z" />
    <glyph glyph-name="perthousand" unicode="&#x2030;" horiz-adv-x="1038" 
d="M826 -12q-68 0 -101 36.5t-33 97.5q0 85 46 138t128 53q66 0 98 -35t32 -98q0 -87 -44 -139.5t-126 -52.5zM830 53q79 0 79 127q0 67 -50 67q-41 0 -60.5 -35t-19.5 -91q0 -68 51 -68zM482 -12q-67 0 -100.5 36.5t-33.5 97.5q0 85 46 138t128 53q66 0 98 -35t32 -98
q0 -87 -44 -139.5t-126 -52.5zM487 53q78 0 78 127q0 67 -50 67q-41 0 -60.5 -35t-19.5 -91q0 -68 52 -68zM131 -15h-105l542 739h104zM195 412q-67 0 -100.5 36.5t-33.5 98.5q0 85 46.5 137.5t127.5 52.5q130 0 130 -132q0 -87 -44 -140t-126 -53zM200 477q78 0 78 128
q0 66 -50 66q-41 0 -60.5 -35t-19.5 -90q0 -69 52 -69z" />
    <glyph glyph-name="guilsinglleft" unicode="&#x2039;" horiz-adv-x="279" 
d="M204 103h-98l-64 155l110 150h98l-107 -147z" />
    <glyph glyph-name="guilsinglright" unicode="&#x203a;" horiz-adv-x="278" 
d="M111 103h-99l109 154l-65 151h97l66 -154z" />
    <glyph glyph-name="fraction" unicode="&#x2044;" horiz-adv-x="163" 
d="M-100 -12h-107l460 736h105z" />
    <glyph glyph-name="zerosuperior" unicode="&#x2070;" horiz-adv-x="408" 
d="M205 342q-78 0 -111.5 42t-33.5 127q0 39 5 76.5t19.5 78t37 70.5t60.5 49.5t88 19.5q142 0 142 -164q0 -41 -5 -79t-19 -79t-36 -71.5t-60 -50t-87 -19.5zM212 415q26 0 44 18t27.5 54.5t14 69.5t8.5 85q4 89 -47 89q-26 0 -44.5 -17.5t-28 -52.5t-14.5 -70.5t-8 -86.5
q-4 -89 48 -89z" />
    <glyph glyph-name="foursuperior" unicode="&#x2074;" horiz-adv-x="402" 
d="M333 349h-99l16 99h-209l9 68l223 281h126l-40 -271h52l-11 -78h-52zM139 526h122l29 188z" />
    <glyph glyph-name="fivesuperior" unicode="&#x2075;" horiz-adv-x="385" 
d="M369 714h-176l-28 -109q45 30 93 30q49 0 79.5 -29.5t30.5 -86.5q0 -82 -51 -129.5t-132 -47.5q-63 0 -103 29t-46 89l90 16q0 -25 15 -41.5t45 -16.5q36 0 58.5 22t22.5 66q0 58 -54 58q-37 0 -71 -29l-62 25l53 237h249z" />
    <glyph glyph-name="sixsuperior" unicode="&#x2076;" horiz-adv-x="393" 
d="M412 694l-91 -20q-3 59 -47 59q-40 0 -67 -40.5t-37 -109.5q49 39 106 39q50 0 80.5 -28t30.5 -80q0 -84 -50 -128.5t-124 -44.5q-148 0 -148 171q0 36 5 71.5t20.5 76.5t39 72t64.5 51.5t93 20.5t86.5 -27t38.5 -83zM167 521q-2 -12 -2 -36q0 -72 52 -72q29 0 48 23.5
t19 65.5q0 52 -46 52q-36 0 -71 -33z" />
    <glyph glyph-name="sevensuperior" unicode="&#x2077;" horiz-adv-x="354" 
d="M143 349h-107l231 365h-202l13 83h308l-11 -75z" />
    <glyph glyph-name="eightsuperior" unicode="&#x2078;" horiz-adv-x="380" 
d="M303 591q78 -38 78 -100q0 -63 -52.5 -106t-142.5 -43q-74 0 -114.5 29t-40.5 78q0 88 111 126q-61 39 -61 95q0 64 51 99.5t128 35.5q64 0 101.5 -25.5t37.5 -68.5q0 -69 -96 -120zM197 542q-34 -15 -50.5 -33t-16.5 -45q0 -22 17 -35t48 -13q34 0 55.5 17t21.5 43
t-18.5 39.5t-56.5 26.5zM245 619q62 35 62 79q0 20 -14.5 32t-41.5 12q-30 0 -48 -15.5t-18 -39.5q0 -40 60 -68z" />
    <glyph glyph-name="ninesuperior" unicode="&#x2079;" horiz-adv-x="394" 
d="M34 452l92 22q6 -58 56 -58q84 0 103 145q-16 -16 -47 -27.5t-63 -11.5q-48 0 -78.5 30t-30.5 84q0 83 50.5 126t124.5 43q147 0 147 -169q0 -130 -51.5 -212t-159.5 -82q-59 0 -98 27.5t-45 82.5zM285 621q3 23 3 40q0 71 -50 71q-31 0 -50 -23.5t-19 -63.5
q0 -56 45 -56q41 0 71 32z" />
    <glyph glyph-name="plussuperior" unicode="&#x207a;" horiz-adv-x="382" 
d="M247 439h-80l12 88h-85l11 77h85l13 84h80l-13 -84h86l-11 -77h-85z" />
    <glyph glyph-name="minussuperior" unicode="&#x207b;" horiz-adv-x="382" 
d="M333 533h-250l10 76h251z" />
    <glyph glyph-name="equalsuperior" unicode="&#x207c;" horiz-adv-x="382" 
d="M325 451h-250l11 76h250zM342 569h-250l11 76h251z" />
    <glyph glyph-name="parenleftsuperior" unicode="&#x207d;" horiz-adv-x="259" 
d="M234 276h-106q-61 101 -61 221q0 91 36.5 166.5t103.5 154.5h113q-71 -84 -107.5 -155t-36.5 -165q0 -106 58 -222z" />
    <glyph glyph-name="parenrightsuperior" unicode="&#x207e;" horiz-adv-x="259" 
d="M83 818h106q61 -101 61 -221q0 -91 -36.5 -166.5t-103.5 -154.5h-113q71 84 107.5 155.5t36.5 165.5q0 107 -58 221z" />
    <glyph glyph-name="zeroinferior" unicode="&#x2080;" horiz-adv-x="408" 
d="M136 -154q-78 0 -111.5 42t-33.5 127q0 39 5 76.5t19.5 78t37 70.5t60.5 49.5t88 19.5q142 0 142 -164q0 -41 -5 -79t-19 -79t-36 -71.5t-60 -50t-87 -19.5zM143 -81q26 0 44 18t27.5 54.5t14 69.5t8.5 85q4 89 -47 89q-26 0 -44.5 -17.5t-28 -52.5t-14.5 -70.5t-8 -86.5
q-4 -89 48 -89z" />
    <glyph glyph-name="oneinferior" unicode="&#x2081;" horiz-adv-x="318" 
d="M167 -147h-102l50 332q-16 -8 -49.5 -13t-53.5 -5v80q99 9 150 54h70z" />
    <glyph glyph-name="twoinferior" unicode="&#x2082;" horiz-adv-x="369" 
d="M263 -147h-301l12 82l118 113q70 66 90.5 92.5t20.5 53.5q0 40 -45 40q-49 0 -70 -65l-88 15q12 63 60.5 94t113.5 31t99 -28t34 -77q0 -50 -27.5 -87.5t-105.5 -103.5l-79 -75v-1h180z" />
    <glyph glyph-name="threeinferior" unicode="&#x2083;" horiz-adv-x="385" 
d="M183 309q62 0 97.5 -25.5t35.5 -72.5q0 -44 -30 -74.5t-74 -42.5v-3q82 -17 82 -96q0 -69 -47 -109t-130 -40q-140 0 -148 115l90 16q4 -58 60 -58q31 0 51.5 19t20.5 55q0 56 -66 56h-46l10 69h31q44 0 69 21t25 56q0 41 -46 41q-51 0 -69 -55l-88 16q35 112 172 112z
" />
    <glyph glyph-name="fourinferior" unicode="&#x2084;" horiz-adv-x="402" 
d="M264 -147h-99l16 99h-209l9 68l223 281h126l-40 -271h52l-11 -78h-52zM70 30h122l29 188z" />
    <glyph glyph-name="fiveinferior" unicode="&#x2085;" horiz-adv-x="385" 
d="M300 218h-176l-28 -109q45 30 93 30q49 0 79.5 -29.5t30.5 -86.5q0 -82 -51 -129.5t-132 -47.5q-63 0 -103 29t-46 89l90 16q0 -25 15 -41.5t45 -16.5q36 0 58.5 22t22.5 66q0 58 -54 58q-37 0 -71 -29l-62 25l53 237h249z" />
    <glyph glyph-name="sixinferior" unicode="&#x2086;" horiz-adv-x="393" 
d="M343 198l-91 -20q-3 59 -47 59q-40 0 -67 -40.5t-37 -109.5q49 39 106 39q50 0 80.5 -28t30.5 -80q0 -84 -50 -128.5t-124 -44.5q-148 0 -148 171q0 36 5 71.5t20.5 76.5t39 72t64.5 51.5t93 20.5t86.5 -27t38.5 -83zM98 25q-2 -12 -2 -36q0 -72 52 -72q29 0 48 23.5
t19 65.5q0 52 -46 52q-36 0 -71 -33z" />
    <glyph glyph-name="seveninferior" unicode="&#x2087;" horiz-adv-x="354" 
d="M74 -147h-107l231 365h-202l13 83h308l-11 -75z" />
    <glyph glyph-name="eightinferior" unicode="&#x2088;" horiz-adv-x="380" 
d="M234 95q78 -38 78 -100q0 -63 -52.5 -106t-142.5 -43q-74 0 -114.5 29t-40.5 78q0 88 111 126q-61 39 -61 95q0 64 51 99.5t128 35.5q64 0 101.5 -25.5t37.5 -68.5q0 -69 -96 -120zM128 46q-34 -15 -50.5 -33t-16.5 -45q0 -22 17 -35t48 -13q34 0 55.5 17t21.5 43
t-18.5 39.5t-56.5 26.5zM176 123q62 35 62 79q0 20 -14.5 32t-41.5 12q-30 0 -48 -15.5t-18 -39.5q0 -40 60 -68z" />
    <glyph glyph-name="nineinferior" unicode="&#x2089;" horiz-adv-x="394" 
d="M-35 -44l92 22q6 -58 56 -58q84 0 103 145q-16 -16 -47 -27.5t-63 -11.5q-48 0 -78.5 30t-30.5 84q0 83 50.5 126t124.5 43q147 0 147 -169q0 -130 -51.5 -212t-159.5 -82q-59 0 -98 27.5t-45 82.5zM216 125q3 23 3 40q0 71 -50 71q-31 0 -50 -23.5t-19 -63.5
q0 -56 45 -56q41 0 71 32z" />
    <glyph glyph-name="parenleftinferior" unicode="&#x208d;" horiz-adv-x="259" 
d="M165 -220h-106q-61 101 -61 221q0 91 36.5 166.5t103.5 154.5h113q-71 -84 -107.5 -155t-36.5 -165q0 -106 58 -222z" />
    <glyph glyph-name="parenrightinferior" unicode="&#x208e;" horiz-adv-x="259" 
d="M15 322h106q61 -101 61 -221q0 -91 -36.5 -166.5t-103.5 -154.5h-113q71 84 107.5 155.5t36.5 165.5q0 107 -58 221z" />
    <glyph glyph-name="Euro" unicode="&#x20ac;" horiz-adv-x="646" 
d="M62 472h61q37 120 117.5 193t205.5 73q90 0 144.5 -51.5t45.5 -173.5l-101 -10q2 80 -21.5 111.5t-86.5 31.5q-58 0 -107 -47t-78 -127h196l-22 -80h-196q-8 -44 -11 -79h197l-22 -81h-175q11 -152 134 -152q64 0 98.5 35t53.5 93l94 -19q-17 -71 -58.5 -117.5t-91 -65
t-108.5 -18.5q-219 0 -235 244h-88l22 81h66q1 36 8 79h-63z" />
    <glyph glyph-name="afii61352" unicode="&#x2116;" horiz-adv-x="1057" 
d="M833 378q-79 0 -117.5 39t-38.5 104q0 94 53 151t147 57q79 0 117 -39.5t38 -105.5q0 -94 -53 -150t-146 -56zM841 447q42 0 68 33t26 105q0 74 -64 74q-97 0 -97 -136q0 -76 67 -76zM661 259l12 77h310l-12 -77h-310zM537 -1h-137l-167 572l-81 -572h-108l102 724h147
l160 -569l80 569h106z" />
    <glyph glyph-name="trademark" unicode="&#x2122;" horiz-adv-x="841" 
d="M808 348h-62v258l-100 -258h-53l-97 259v-259h-63v376h80l109 -292l112 292h74v-376zM257 666v-318h-69v318h-124v58h318v-58h-125z" />
    <glyph glyph-name="Omega" unicode="&#x2126;" horiz-adv-x="766" 
d="M430 642q-117 0 -184.5 -77.5t-67.5 -188.5q0 -74 39 -124t103 -68l-26 -184h-273l13 90h175l5 35q-156 59 -156 249q0 153 102 258t276 105q138 0 221.5 -72.5t83.5 -215.5q0 -66 -21.5 -128t-75.5 -117.5t-133 -78.5l-5 -35h181l-13 -90h-279l26 183q85 18 142 91
t57 170q0 89 -48.5 143.5t-141.5 54.5z" />
    <glyph glyph-name="onethird" unicode="&#x2153;" horiz-adv-x="945" 
d="M224 280h-102l50 332q-16 -8 -49.5 -13t-53.5 -5v80q99 9 150 54h70zM251 -12h-107l460 736h105zM748 456q62 0 97.5 -25.5t35.5 -72.5q0 -44 -30 -74.5t-74 -42.5v-3q82 -17 82 -96q0 -69 -47 -109t-130 -40q-140 0 -148 115l90 16q4 -58 60 -58q31 0 51.5 19t20.5 55
q0 56 -66 56h-46l10 69h31q44 0 69 21t25 56q0 41 -46 41q-51 0 -69 -55l-88 16q35 112 172 112z" />
    <glyph glyph-name="twothirds" unicode="&#x2154;" horiz-adv-x="945" 
d="M302 -12h-107l460 736h105zM785 456q62 0 97.5 -25.5t35.5 -72.5q0 -44 -30 -74.5t-74 -42.5v-3q82 -17 82 -96q0 -69 -47 -109t-130 -40q-140 0 -148 115l90 16q4 -58 60 -58q31 0 51.5 19t20.5 55q0 56 -66 56h-46l10 69h31q44 0 69 21t25 56q0 41 -46 41
q-51 0 -69 -55l-88 16q35 112 172 112zM312 281h-301l12 82l118 113q70 66 90.5 92.5t20.5 53.5q0 40 -45 40q-49 0 -70 -65l-88 15q12 63 60.5 94t113.5 31t99 -28t34 -77q0 -50 -27.5 -87.5t-105.5 -103.5l-79 -75v-1h180z" />
    <glyph glyph-name="arrow.left" unicode="&#x2190;" 
d="M525 322l-13 -94h-350l44 -123h-99l-71 169l119 169h100l-78 -121h348z" />
    <glyph glyph-name="arrow.up" unicode="&#x2191;" 
d="M281 33h-97l50 352l-131 -62l14 97l183 94l156 -94l-14 -99l-112 61z" />
    <glyph glyph-name="arrow.right" unicode="&#x2192;" 
d="M30 228l13 94h349l-44 121h99l71 -169l-119 -169h-106l80 123h-343z" />
    <glyph glyph-name="arrow.down" unicode="&#x2193;" 
d="M266 517h97l-49 -349l131 61l-14 -99l-182 -94l-157 94l13 98l111 -62z" />
    <glyph glyph-name="arrow.leftup" unicode="&#x2196;" 
d="M71 257l54 188l185 52l70 -70l-128 -41l248 -248l-69 -66l-246 246l-44 -130z" />
    <glyph glyph-name="arrow.rightup" unicode="&#x2197;" 
d="M470 445l27 -188l-79 -69l-27 130l-280 -246l-60 66l281 247l-122 41l81 71z" />
    <glyph glyph-name="arrowleft.down" unicode="&#x2198;" 
d="M101 124l-28 188l80 69l27 -131l280 246l58 -66l-282 -247l124 -40l-81 -71z" />
    <glyph glyph-name="arrowright.down" unicode="&#x2199;" 
d="M504 312l-53 -188l-186 -52l-71 71l130 41l-247 247l67 66l246 -246l45 130z" />
    <glyph glyph-name="arrowleft.alt" unicode="&#x21d0;" 
d="M270 372l240 25l-34 -247l-234 21l-17 -116l-187 218l248 214z" />
    <glyph glyph-name="arrowdown.alt" unicode="&#x21d1;" 
d="M449 496l-58 -237h115l-245 -218l-187 218h116l12 237h247z" />
    <glyph glyph-name="arrowright.alt" unicode="&#x21d2;" 
d="M100 397l234 -25l16 115l188 -214l-249 -218l17 116l-240 -21z" />
    <glyph glyph-name="arrowup.alt" unicode="&#x21d3;" 
d="M395 291l-8 -237h-247l54 237h-116l249 218l183 -218h-115z" />
    <glyph glyph-name="arrowleftup.alt" unicode="&#x21d6;" 
d="M324 357l185 -150l-175 -175l-152 183l-82 -83v309l305 -3z" />
    <glyph glyph-name="arrowrightup.alt" unicode="&#x21d7;" 
d="M385 217l-150 -185l-175 175l183 152l-83 82h309l-3 -305z" />
    <glyph glyph-name="arrowleftdown.alt" unicode="&#x21d8;" 
d="M184 355l150 185l175 -175l-183 -152l83 -82h-309l3 305z" />
    <glyph glyph-name="arrowrightdown.alt" unicode="&#x21d9;" 
d="M255 215l-185 150l175 175l152 -183l82 83v-309l-305 3z" />
    <glyph glyph-name="partialdiff" unicode="&#x2202;" horiz-adv-x="563" 
d="M259 328q-64 0 -95.5 -44.5t-31.5 -111.5q0 -44 20.5 -70.5t63.5 -26.5q121 0 165 197q-58 56 -122 56zM308 588q-71 0 -157 -54l-36 71q105 69 218 69q52 0 89.5 -19t58 -53t29.5 -73t9 -85q0 -31 -3 -65t-11.5 -80t-22.5 -87.5t-38.5 -83.5t-56.5 -72t-80 -49t-105 -19
q-89 0 -138.5 47.5t-49.5 127.5q0 111 66 180t171 69q80 0 146 -57q8 38 8 98q0 58 -23 96.5t-74 38.5z" />
    <glyph glyph-name="Delta" unicode="&#x2206;" horiz-adv-x="642" 
d="M291 724h148l143 -658v-66h-606v65zM455 92l-103 529h-1l-241 -529h345z" />
    <glyph glyph-name="product" unicode="&#x220f;" horiz-adv-x="778" 
d="M714 724l-124 -885h-117l112 797h-316l-112 -797h-117l124 885h550z" />
    <glyph glyph-name="summation" unicode="&#x2211;" horiz-adv-x="626" 
d="M362 281l-270 -364h416l-13 -93h-551l11 76l283 382l-162 377l9 65h534l-12 -86h-393z" />
    <glyph glyph-name="minus" unicode="&#x2212;" horiz-adv-x="569" 
d="M467 275h-381l13 95h381z" />
    <glyph glyph-name="uni2215" unicode="&#x2215;" horiz-adv-x="355" 
d="M22 -15h-107l426 683h105z" />
    <glyph glyph-name="uni2219" unicode="&#x2219;" horiz-adv-x="278" 
d="M221 321q0 -40 -23 -62t-66 -22q-67 0 -67 59q0 85 88 85q68 0 68 -60z" />
    <glyph glyph-name="radical" unicode="&#x221a;" horiz-adv-x="582" 
d="M314 0h-111l-102 238l-73 -30l-23 70l162 71l94 -236l257 632l90 -24z" />
    <glyph glyph-name="infinity" unicode="&#x221e;" horiz-adv-x="671" 
d="M329 264q-78 -80 -155 -80q-55 0 -93 32.5t-38 94.5q0 67 44.5 107.5t110.5 40.5q45 0 78 -21t66 -58q27 25 43 38t47.5 27t63.5 14q57 0 93 -33t36 -97q0 -65 -43.5 -106t-106.5 -41q-77 0 -146 82zM291 323q-25 32 -47 47.5t-52 15.5q-29 0 -47.5 -19t-18.5 -46
q0 -26 15 -46t43 -20q20 0 42.5 13t33.5 23.5t31 31.5zM384 322q17 -21 27.5 -32t29 -21.5t38.5 -10.5q29 0 46 20.5t17 47.5t-14 44t-42 17q-19 0 -39 -11.5t-31 -21.5t-32 -32z" />
    <glyph glyph-name="integral" unicode="&#x222b;" horiz-adv-x="422" 
d="M51 -168l12 83q35 -19 76 -19q56 0 50 69l-53 622q-3 39 8.5 68t33 43.5t45 21.5t49.5 7q51 0 108 -21l-11 -84q-42 20 -77 20q-57 0 -50 -70l53 -621q4 -40 -7.5 -69t-33.5 -43.5t-45.5 -21t-49.5 -6.5q-55 0 -108 21z" />
    <glyph glyph-name="approxequal" unicode="&#x2248;" 
d="M147 347q34 0 126 -22.5t112 -22.5q19 0 27 10t8 39l67 -4q7 -61 -17.5 -95.5t-73.5 -34.5q-35 0 -128.5 22.5t-112.5 22.5q-37 0 -33 -52l-70 3q-7 62 19.5 98t75.5 36zM171 527q34 0 126 -22.5t112 -22.5q19 0 27 10t8 39l67 -4q7 -61 -17.5 -95.5t-73.5 -34.5
q-35 0 -128.5 22.5t-112.5 22.5q-37 0 -33 -52l-70 3q-7 62 19.5 98t75.5 36z" />
    <glyph glyph-name="notequal" unicode="&#x2260;" 
d="M441 147h-198l-53 -91h-94l53 91h-87l14 97h126l43 75h-159l14 97h198l54 93h95l-54 -93h86l-14 -97h-126l-43 -75h159z" />
    <glyph glyph-name="lessequal" unicode="&#x2264;" horiz-adv-x="569" 
d="M454 114l-361 142l15 112l403 149l-14 -98l-303 -106l273 -105zM438 0h-381l13 95h381z" />
    <glyph glyph-name="greaterequal" unicode="&#x2265;" horiz-adv-x="569" 
d="M441 95l-13 -95h-381l13 95h381zM481 368l-16 -108l-401 -142l13 99l303 104l-274 104l14 92z" />
    <glyph glyph-name="triangle" unicode="&#x25b3;" horiz-adv-x="425" 
d="M335 320l-185 -117v231z" />
    <glyph glyph-name="lozenge" unicode="&#x25ca;" 
d="M279 -17h-89l-110 324l202 324h89l110 -324zM249 81l138 226l-76 221l-138 -221z" />
    <glyph glyph-name="circle" unicode="&#x25cb;" horiz-adv-x="610" 
d="M305 119q-85 0 -145 60t-60 145t60 145t145 60t145 -60t60 -145t-60 -145t-145 -60z" />
    <glyph glyph-name="a.sc" unicode="&#xf605;" horiz-adv-x="558" 
d="M237 556h142l119 -556h-120l-28 141h-194l-66 -141h-120zM338 229l-43 228h-3l-104 -228h150z" />
    <glyph glyph-name="b.sc" unicode="&#xf606;" horiz-adv-x="514" 
d="M223 0h-202l80 556h220q155 0 155 -118q0 -116 -129 -147l-1 -2q114 -15 114 -114q0 -175 -237 -175zM145 81h68q64 0 96 19.5t32 74.5q0 40 -28 53t-81 13h-64zM180 323h52q129 0 129 93q0 36 -25 47t-80 11h-54z" />
    <glyph glyph-name="c.sc" unicode="&#xf607;" horiz-adv-x="562" 
d="M409 186l99 -18q-25 -92 -92 -134.5t-158 -42.5q-116 0 -174.5 62t-58.5 168q0 157 83.5 251t228.5 94q98 0 152.5 -53t49.5 -151l-105 -10q6 125 -105 125q-85 0 -135 -64t-50 -185q0 -148 125 -148q56 0 88 27t52 79z" />
    <glyph glyph-name="d.sc" unicode="&#xf608;" horiz-adv-x="584" 
d="M203 0h-182l80 556h192q249 0 249 -225q0 -149 -85.5 -240t-253.5 -91zM147 88h63q107 0 162 61t55 179q0 75 -38.5 108t-117.5 33h-69z" />
    <glyph glyph-name="e.sc" unicode="&#xf609;" horiz-adv-x="470" 
d="M390 0h-369l80 556h355l-12 -90h-243l-21 -145h228l-12 -88h-228l-21 -143h256z" />
    <glyph glyph-name="f.sc" unicode="&#xf60a;" horiz-adv-x="447" 
d="M167 225l-33 -225h-113l80 556h353l-12 -90h-241l-22 -153h221l-12 -88h-221z" />
    <glyph glyph-name="g.sc" unicode="&#xf60b;" horiz-adv-x="591" 
d="M534 289l-42 -289h-83l-1 70q-22 -36 -68.5 -57.5t-102.5 -21.5q-107 0 -159.5 62.5t-52.5 166.5q0 158 84.5 252t231.5 94q99 0 151.5 -47.5t48.5 -143.5l-106 -10q5 113 -102 113q-91 0 -139.5 -68.5t-48.5 -183.5q0 -150 127 -150q54 0 91 30t44 72l6 37h-120l11 74
h230z" />
    <glyph glyph-name="h.sc" unicode="&#xf60c;" horiz-adv-x="588" 
d="M553 556l-80 -556h-113l33 233h-226l-34 -233h-113l80 556h113l-33 -228h227l33 228h113z" />
    <glyph glyph-name="i.sc" unicode="&#xf60d;" horiz-adv-x="248" 
d="M134 0h-113l80 556h113z" />
    <glyph glyph-name="j.sc" unicode="&#xf60e;" horiz-adv-x="437" 
d="M237 150l58 406h113l-58 -405q-23 -160 -186 -160q-162 0 -169 154l110 17q4 -41 16 -62.5t47 -21.5q30 0 46.5 16t22.5 56z" />
    <glyph glyph-name="k.sc" unicode="&#xf60f;" horiz-adv-x="534" 
d="M213 556l-36 -249l254 249h129l-243 -236l161 -320h-127l-124 241l-68 -63l-26 -178h-112l80 556h112z" />
    <glyph glyph-name="l.sc" unicode="&#xf610;" horiz-adv-x="456" 
d="M379 0h-358l80 556h113l-67 -461h246z" />
    <glyph glyph-name="m.sc" unicode="&#xf611;" horiz-adv-x="729" 
d="M695 556l-80 -556h-106l66 444h-4l-203 -444h-105l-71 446h-3l-64 -446h-104l80 556h168l66 -420h3l188 420h169z" />
    <glyph glyph-name="n.sc" unicode="&#xf612;" horiz-adv-x="598" 
d="M484 0h-131l-169 409l-60 -409h-103l80 556h137l165 -408l58 408h103z" />
    <glyph glyph-name="o.sc" unicode="&#xf613;" horiz-adv-x="610" 
d="M258 -9q-119 0 -176 64.5t-57 173.5q0 146 82.5 241.5t233.5 95.5q119 0 174 -63.5t55 -168.5q0 -150 -82 -246.5t-230 -96.5zM271 81q88 0 135 72.5t47 175.5q0 69 -30.5 108t-93.5 39q-90 0 -138.5 -71t-48.5 -176q0 -69 31.5 -108.5t97.5 -39.5z" />
    <glyph glyph-name="p.sc" unicode="&#xf614;" horiz-adv-x="500" 
d="M160 186l-27 -186h-112l80 556h185q101 0 146.5 -41.5t45.5 -111.5q0 -103 -64.5 -160t-188.5 -57h-65zM172 273h54q136 0 136 119q0 44 -27.5 60.5t-76.5 16.5h-57z" />
    <glyph glyph-name="q.sc" unicode="&#xf615;" horiz-adv-x="610" 
d="M255 -9q-119 0 -176 64.5t-57 173.5q0 146 82.5 241.5t233.5 95.5q119 0 174 -63.5t55 -168.5q0 -107 -43 -189t-123 -122q53 -64 139 -61l-22 -89q-66 -4 -124.5 31.5t-90.5 89.5q-23 -3 -48 -3zM268 81q88 0 135 72.5t47 175.5q0 69 -30.5 108t-93.5 39
q-90 0 -138.5 -71t-48.5 -176q0 -69 31.5 -108.5t97.5 -39.5z" />
    <glyph glyph-name="r.sc" unicode="&#xf616;" horiz-adv-x="525" 
d="M360 245l95 -245h-122l-82 218h-86l-32 -218h-112l80 556h212q90 0 131 -38.5t41 -98.5q0 -125 -125 -174zM176 301h63q128 0 128 105q0 63 -94 63h-72z" />
    <glyph glyph-name="s.sc" unicode="&#xf617;" horiz-adv-x="482" 
d="M455 405l-104 -12q-4 92 -88 92q-49 0 -74 -20.5t-25 -52.5q0 -33 23 -48.5t71 -29.5q85 -24 114 -44q56 -38 56 -113q0 -91 -66.5 -138.5t-163.5 -47.5q-202 0 -206 171l105 15q3 -46 24.5 -74t79.5 -28q48 0 80 19.5t32 62.5q0 33 -24.5 49t-76.5 29q-30 8 -47.5 14
t-43 18.5t-39 27.5t-24 39.5t-10.5 56.5q0 80 63 127.5t159 47.5q84 0 135 -38t50 -123z" />
    <glyph glyph-name="t.sc" unicode="&#xf618;" horiz-adv-x="476" 
d="M248 0h-113l66 463h-167l13 93h448l-14 -93h-167z" />
    <glyph glyph-name="u.sc" unicode="&#xf619;" 
d="M541 556l-51 -358q-29 -207 -244 -207q-120 0 -168.5 54.5t-32.5 162.5l50 348h113l-49 -342q-10 -68 11 -100t81 -32q59 0 88.5 30t39.5 100l49 344h113z" />
    <glyph glyph-name="v.sc" unicode="&#xf61a;" horiz-adv-x="528" 
d="M296 0h-153l-105 556h121l74 -449h4l194 449h121z" />
    <glyph glyph-name="w.sc" unicode="&#xf61b;" horiz-adv-x="768" 
d="M580 0h-145l-38 397h-3l-152 -397h-149l-43 556h117l20 -437h3l168 437h122l44 -440h4l139 440h114z" />
    <glyph glyph-name="x.sc" unicode="&#xf61c;" horiz-adv-x="520" 
d="M466 0h-130l-102 199l-150 -199h-123l223 288l-134 268h125l92 -197l150 197h118l-216 -279z" />
    <glyph glyph-name="y.sc" unicode="&#xf61d;" horiz-adv-x="481" 
d="M286 211l-31 -211h-113l31 211l-147 345h119l95 -245h2l159 245h119z" />
    <glyph glyph-name="z.sc" unicode="&#xf61e;" horiz-adv-x="474" 
d="M400 0h-417l12 78l327 387h-265l13 91h399l-12 -81l-324 -384h280z" />
    <glyph glyph-name="ae.sc" unicode="&#xf61f;" horiz-adv-x="800" 
d="M720 0h-370l33 225h-147l-148 -225h-117l367 556h448l-12 -90h-242l-22 -151h227l-13 -88h-227l-20 -137h256zM396 312l23 154h-33l-105 -154h115z" />
    <glyph glyph-name="oe.sc" unicode="&#xf621;" horiz-adv-x="864" 
d="M784 0h-359l10 68q-68 -77 -186 -77q-111 0 -167.5 64t-56.5 170q0 152 82 246.5t226 94.5q57 0 99 -23t63 -59l10 72h345l-12 -90h-244l-21 -145h229l-13 -88h-228l-22 -143h257zM271 81q81 0 134.5 61.5t53.5 186.5q0 70 -34 108.5t-94 38.5q-84 0 -136.5 -63
t-52.5 -183q0 -74 33.5 -111.5t95.5 -37.5z" />
    <glyph glyph-name="dollar.sc" unicode="&#xf639;" horiz-adv-x="432" 
d="M310 385q0 64 -40 80l-22 -155l42 -16.5t37 -19t34 -26t20.5 -33t9.5 -45.5q0 -77 -50.5 -120.5t-129.5 -50.5l-8 -62h-87l10 63q-133 27 -136 151l97 19q6 -77 59 -92l23 161q-60 23 -94.5 54.5t-34.5 92.5q0 64 43.5 107.5t119.5 53.5l10 65h89l-9 -71
q117 -23 117 -146zM287 149q0 39 -52 63l-19 -135q71 14 71 72zM144 402q0 -38 39 -62l17 128q-56 -14 -56 -66z" />
    <glyph glyph-name="cent.sc" unicode="&#xf63a;" horiz-adv-x="425" 
d="M216 570h94l-11 -81q51 -10 78.5 -49.5t25.5 -91.5l-99 -14q0 56 -31 71l-32 -235q38 13 53 65l91 -17q-14 -56 -53.5 -91.5t-96.5 -44.5l-10 -82h-94l13 88q-58 13 -88 56.5t-30 105.5q0 109 49 170.5t130 71.5zM139 254q0 -60 32 -80l32 230q-64 -30 -64 -150z" />
    <glyph glyph-name="sterling.sc" unicode="&#xf63b;" horiz-adv-x="475" 
d="M-12 80h44q74 55 74 118q0 21 -7 41h-77l11 82h53q-20 40 -20 85q0 71 56 115.5t150 44.5q174 0 174 -157l-102 -11q0 87 -75 87q-42 0 -66 -21t-24 -61q0 -31 20 -82h160l-10 -82h-137q4 -13 4 -32q0 -67 -73 -127h99q47 0 69.5 18.5t34.5 61.5l93 -15
q-13 -75 -60.5 -110t-133.5 -35h-268z" />
    <glyph glyph-name="yen.sc" unicode="&#xf63c;" horiz-adv-x="451" 
d="M362 106h-105l-15 -106h-115l15 106h-101l10 73h101l8 59h-101l10 73h67l-101 245h116l79 -218h3l117 218h125l-158 -245h73l-10 -73h-105l-8 -59h105z" />
    <glyph glyph-name="florin.sc" unicode="&#xf63d;" horiz-adv-x="454" 
d="M148 344l17 84q15 70 51.5 104t106.5 34q106 0 136 -101l-86 -24q-14 50 -48 50q-23 0 -35.5 -13.5t-19.5 -46.5l-16 -87h107l-16 -80h-104l-55 -277q-14 -69 -49 -101t-104 -32q-58 0 -93.5 26t-46.5 70l87 29q8 -26 19 -37.5t32 -11.5t32 14t18 49l53 271h-71l14 80h71
z" />
    <glyph glyph-name="commaaccent" unicode="&#xf6c3;" horiz-adv-x="500" 
d="M131 -241l66 173h114l-100 -185z" />
    <glyph glyph-name="commainferior" unicode="&#xf6e1;" horiz-adv-x="210" 
d="M-46 -222l64 160h107l-90 -168z" />
    <glyph glyph-name="commasuperior" unicode="&#xf6e2;" horiz-adv-x="210" 
d="M23 274l64 160h107l-90 -168z" />
    <glyph glyph-name="hypheninferior" unicode="&#xf6e5;" horiz-adv-x="221" 
d="M150 -2h-175l12 82h175z" />
    <glyph glyph-name="hyphensuperior" unicode="&#xf6e6;" horiz-adv-x="221" 
d="M219 494h-175l12 82h175z" />
    <glyph glyph-name="periodinferior" unicode="&#xf6e7;" horiz-adv-x="212" 
d="M117 -91q0 -65 -70 -65q-55 0 -55 45q0 67 71 67q54 0 54 -47z" />
    <glyph glyph-name="periodsuperior" unicode="&#xf6e8;" horiz-adv-x="212" 
d="M186 405q0 -65 -70 -65q-55 0 -55 45q0 67 71 67q54 0 54 -47z" />
    <glyph glyph-name="three.tosf" unicode="&#xf81e;" 
d="M325 587q87 0 134.5 -38.5t47.5 -105.5q0 -74 -45 -116.5t-111 -61.5l-1 -3q57 -9 90 -42.5t33 -91.5q0 -100 -71 -155.5t-182 -55.5q-96 0 -151 42.5t-57 130.5l102 19q4 -49 27 -77.5t81 -28.5t97 29.5t39 94.5q0 89 -115 89h-73l12 85h48q72 0 116.5 34.5t44.5 87.5
q0 77 -87 77q-53 0 -81.5 -25t-47.5 -75l-98 20q25 87 92 127t156 40z" />
    <glyph glyph-name="four.tosf" unicode="&#xf81f;" 
d="M405 -67h-110l19 141h-311l12 81l339 420h142l-58 -409h80l-13 -92h-80zM121 166h207l43 307z" />
    <glyph glyph-name="five.tosf" unicode="&#xf820;" 
d="M493 475h-273l-44 -181q67 49 148 49q72 0 118 -44t46 -129q0 -111 -72.5 -182t-192.5 -71q-90 0 -146 43.5t-63 129.5l103 20q9 -103 110 -103q61 0 103.5 37.5t42.5 113.5q0 96 -93 96q-64 0 -130 -57l-77 35l71 340h363z" />
    <glyph glyph-name="six.tosf" unicode="&#xf821;" 
d="M538 491l-102 -25q-4 52 -25 77t-63 25q-77 0 -121 -64.5t-59 -166.5q80 66 175 66q75 0 118 -45t43 -121q0 -117 -71 -183t-180 -66q-204 0 -204 242q0 52 8 105t30 111.5t55.5 103t90 73.5t128.5 29q80 0 126 -41t51 -120zM164 253q-2 -26 -2 -47q0 -133 99 -133
q60 0 95 41t35 112q0 93 -82 93q-66 0 -145 -66z" />
    <glyph glyph-name="seven.tosf" unicode="&#xf822;" 
d="M172 -67h-124l361 543h-330l13 96h452l-13 -86z" />
    <glyph glyph-name="nine.tosf" unicode="&#xf824;" 
d="M7 74l101 25q16 -98 103 -98q147 0 178 230q-70 -62 -170 -62q-76 0 -121.5 48t-45.5 127q0 115 69.5 181t180.5 66q109 0 156.5 -70t47.5 -183q0 -64 -8 -121t-29.5 -113.5t-54.5 -96.5t-87 -65t-123 -25q-84 0 -136.5 40.5t-60.5 116.5zM392 317q3 42 3 48
q0 36 -7 65.5t-30.5 53t-61.5 23.5q-61 0 -96.5 -41t-35.5 -113q0 -48 22 -74t64 -26q76 0 142 64z" />
    <glyph glyph-name="dollar.tosf" unicode="&#xf825;" 
d="M407 447q-5 82 -55 98l-28 -186q37 -13 58 -22.5t48 -28t39.5 -47t12.5 -66.5q0 -77 -56 -130t-152 -63l-11 -83h-84l12 86q-67 10 -113 53.5t-48 122.5l99 16q4 -46 21 -73.5t59 -36.5l29 195q-35 13 -56 23.5t-46.5 29.5t-37.5 46.5t-12 64.5q0 77 55.5 126.5
t141.5 58.5l11 76h83l-10 -79q62 -10 101 -53.5t38 -114.5zM372 172q0 50 -63 82l-25 -169q42 7 65 29.5t23 57.5zM201 464q0 -50 53 -77l24 161q-37 -7 -57 -29t-20 -55z" />
    <glyph glyph-name="Euro.tosf" unicode="&#xf826;" horiz-adv-x="569" 
d="M323 205h-161q6 -66 36.5 -96t85.5 -30q56 0 89.5 30t53.5 92l98 -19q-25 -99 -92.5 -146.5t-159.5 -47.5q-212 0 -225 217h-76l23 75h54q1 27 6 56h-49l23 76h43q35 110 112 175t195 65q94 0 143 -53.5t42 -162.5l-105 -10q3 72 -19.5 104.5t-82.5 32.5
q-125 0 -173 -151h195l-23 -76h-188q-4 -27 -6 -56h184z" />
    <glyph glyph-name="cent.tosf" unicode="&#xf827;" 
d="M304 631h85l-15 -102q67 -11 105 -60.5t33 -120.5l-102 -7q2 84 -49 103l-48 -321q62 15 84 91l94 -17q-17 -70 -67.5 -111t-121.5 -50l-15 -109h-88l16 112q-76 13 -114.5 64.5t-38.5 133.5q0 128 62 206t166 91zM178 240q0 -91 56 -114l47 318q-103 -34 -103 -204z" />
    <glyph glyph-name="s_t" unicode="&#xfb06;" horiz-adv-x="846" 
d="M784 99l13 -77q-58 -34 -134 -34q-143 0 -143 123q0 12 10 82l67 473l117 17l-24 -166h141l-11 -82h-141l-39 -276q-6 -43 5.5 -63.5t50.5 -20.5q44 0 88 24zM269 527q88 0 135 -41.5t53 -113.5l-96 -17q-9 93 -96 93q-48 0 -70.5 -19t-22.5 -48q0 -17 7.5 -29.5
t25.5 -21.5t31.5 -13l41.5 -12q28 -7 44.5 -12.5t40 -17t36.5 -25.5t23 -37.5t10 -53.5q0 -81 -61 -126t-160 -45q-184 0 -199 154l94 21q13 -96 112 -96q43 0 72.5 17.5t29.5 55.5q0 18 -7.5 31t-24.5 22.5t-30.5 14t-40.5 11.5q-30 8 -45 12.5t-40 16.5t-37.5 25.5
t-22.5 37t-10 54.5q0 80 60.5 121t146.5 41z" />
    <glyph glyph-name="hyphen.case" horiz-adv-x="315" 
d="M291 305h-271l14 100h271z" />
    <glyph glyph-name="zero.osf" horiz-adv-x="615" 
d="M261 -12q-117 0 -172 65t-55 172q0 101 31.5 180.5t104 130.5t178.5 51q114 0 168 -62t54 -167q0 -74 -16.5 -137.5t-51.5 -117t-96.5 -84.5t-144.5 -31zM272 74q49 0 85.5 26t55.5 69.5t27.5 88.5t8.5 94q0 146 -112 146q-50 0 -87.5 -25t-57 -67.5t-28.5 -88.5t-9 -96
q0 -147 117 -147z" />
    <glyph glyph-name="one.osf" horiz-adv-x="421" 
d="M264 0h-114l62 434q-24 -14 -76.5 -23t-82.5 -9v90q145 11 220 83h72z" />
    <glyph glyph-name="two.osf" horiz-adv-x="528" 
d="M288 181l-121 -84v-1h274l-13 -96h-423l13 90l157 119q117 86 153 124.5t36 92.5q0 76 -83 76q-57 0 -86 -29t-46 -86l-98 19q24 95 89 138t155 43q89 0 136.5 -40t47.5 -114q0 -75 -42.5 -127.5t-148.5 -124.5z" />
    <glyph glyph-name="three.osf" horiz-adv-x="526" 
d="M303 587q87 0 134.5 -38.5t47.5 -105.5q0 -74 -45 -116.5t-111 -61.5l-1 -3q57 -9 90 -42.5t33 -91.5q0 -100 -71 -155.5t-182 -55.5q-96 0 -151 42.5t-57 130.5l102 19q4 -49 27 -77.5t81 -28.5t97 29.5t39 94.5q0 89 -115 89h-73l12 85h48q72 0 116.5 34.5t44.5 87.5
q0 77 -87 77q-53 0 -81.5 -25t-47.5 -75l-98 20q25 87 92 127t156 40z" />
    <glyph glyph-name="four.osf" horiz-adv-x="556" 
d="M406 -67h-111l20 141h-319l11 81l348 420h142l-58 -409h84l-13 -92h-85zM116 166h213l43 307z" />
    <glyph glyph-name="five.osf" horiz-adv-x="539" 
d="M476 475h-273l-44 -181q67 49 148 49q72 0 118 -44t46 -129q0 -111 -72.5 -182t-192.5 -71q-90 0 -146 43.5t-63 129.5l103 20q9 -103 110 -103q61 0 103.5 37.5t42.5 113.5q0 96 -93 96q-64 0 -130 -57l-77 35l71 340h363z" />
    <glyph glyph-name="six.osf" horiz-adv-x="563" 
d="M541 491l-102 -25q-4 52 -25 77t-63 25q-77 0 -121 -64.5t-59 -166.5q80 66 175 66q75 0 118 -45t43 -121q0 -117 -71 -183t-180 -66q-204 0 -204 242q0 52 8 105t30 111.5t55.5 103t90 73.5t128.5 29q80 0 126 -41t51 -120zM167 253q-2 -26 -2 -47q0 -133 99 -133
q60 0 95 41t35 112q0 93 -82 93q-66 0 -145 -66z" />
    <glyph glyph-name="seven.osf" horiz-adv-x="520" 
d="M140 -67h-124l361 543h-330l13 96h452l-13 -86z" />
    <glyph glyph-name="eight.osf" horiz-adv-x="542" 
d="M515 517q0 -57 -33 -98t-109 -78q58 -28 87 -60t29 -89q0 -92 -71.5 -148t-198.5 -56q-97 0 -151.5 40.5t-54.5 112.5q0 69 40 112.5t122 76.5q-94 45 -94 135q0 88 69 137.5t181 49.5q92 0 138 -37t46 -98zM234 71q67 0 100.5 28.5t33.5 76.5q0 39 -31.5 63.5
t-88.5 46.5q-67 -29 -95.5 -58.5t-28.5 -72.5q0 -84 110 -84zM319 573q-56 0 -88 -24t-32 -69q0 -62 97 -102q59 31 87 60t28 66q0 69 -92 69z" />
    <glyph glyph-name="nine.osf" horiz-adv-x="572" 
d="M9 74l101 25q16 -98 103 -98q147 0 178 230q-70 -62 -170 -62q-76 0 -121.5 48t-45.5 127q0 115 69.5 181t180.5 66q109 0 156.5 -70t47.5 -183q0 -64 -8 -121t-29.5 -113.5t-54.5 -96.5t-87 -65t-123 -25q-84 0 -136.5 40.5t-60.5 116.5zM394 317q3 42 3 48
q0 36 -7 65.5t-30.5 53t-61.5 23.5q-61 0 -96.5 -41t-35.5 -113q0 -48 22 -74t64 -26q76 0 142 64z" />
    <glyph glyph-name="dollar.osf" horiz-adv-x="530" 
d="M384 447q-5 82 -55 98l-28 -186q37 -13 58 -22.5t48 -28t39.5 -47t12.5 -66.5q0 -77 -56 -130t-152 -63l-11 -83h-84l12 86q-67 10 -113 53.5t-48 122.5l99 16q4 -46 21 -73.5t59 -36.5l29 195q-35 13 -56 23.5t-46.5 29.5t-37.5 46.5t-12 64.5q0 77 55.5 126.5
t141.5 58.5l11 76h83l-10 -79q62 -10 101 -53.5t38 -114.5zM349 172q0 50 -63 82l-25 -169q42 7 65 29.5t23 57.5zM178 464q0 -50 53 -77l24 161q-37 -7 -57 -29t-20 -55z" />
    <glyph glyph-name="Euro.osf" horiz-adv-x="623" 
d="M371 205h-172q7 -67 39.5 -96.5t92.5 -29.5q58 0 93 29.5t56 92.5l98 -19q-26 -100 -95.5 -147t-164.5 -47q-220 0 -233 217h-81l23 75h59q1 27 6 56h-58l23 76h52q35 110 112 175t195 65q96 0 152 -54t50 -162l-106 -10q3 71 -23 104t-87 33q-65 0 -110 -40t-69 -111
h200l-22 -76h-196q-4 -27 -6 -56h195z" />
    <glyph glyph-name="cent.osf" horiz-adv-x="512" 
d="M276 631h85l-15 -102q67 -11 105 -60.5t33 -120.5l-102 -7q2 84 -49 103l-48 -321q62 15 84 91l94 -17q-17 -70 -67.5 -111t-121.5 -50l-15 -109h-88l16 112q-76 13 -114.5 64.5t-38.5 133.5q0 128 62 206t166 91zM150 240q0 -91 56 -114l47 318q-103 -34 -103 -204z" />
    <glyph glyph-name="sterling.osf" horiz-adv-x="578" 
d="M-3 84h56q76 66 76 146q0 20 -6 44h-101l11 81h73q-20 49 -20 90q0 92 70 149t186 57q197 0 204 -186l-102 -18q-2 120 -109 120q-61 0 -100 -30.5t-39 -90.5q0 -33 21 -91h217l-12 -81h-188q3 -17 3 -32q0 -84 -79 -158h147q62 0 92.5 25.5t46.5 85.5l93 -17
q-18 -96 -78.5 -137t-172.5 -41h-301z" />
    <glyph glyph-name="yen.osf" horiz-adv-x="544" 
d="M433 147h-131l-21 -147h-115l21 147h-131l12 77h130l8 59l-3 7h-128l12 78h81l-116 264h121l101 -260h2l168 260h120l-186 -264h86l-12 -78h-129v-1l-10 -65h132z" />
    <glyph glyph-name="florin.osf" horiz-adv-x="530" 
d="M182 374l21 104q18 86 61 127t123 41q123 0 159 -118l-93 -29q-10 32 -24.5 48t-40.5 16q-30 0 -48.5 -18t-26.5 -59l-22 -112h138l-14 -78h-137l-64 -319q-17 -85 -59 -124t-121 -39q-65 0 -107 30.5t-56 83.5l94 33q12 -32 26.5 -48t42.5 -16q29 0 45 18t24 61l65 320
h-86l13 78h87z" />
    <glyph glyph-name="afii61352.osf" horiz-adv-x="1007" 
d="M776 276q-79 0 -116 39t-37 105q0 95 51.5 151t149.5 56q78 0 115 -38.5t37 -102.5q0 -98 -51.5 -154t-148.5 -56zM785 344q94 0 94 138q0 77 -63 77q-97 0 -97 -134q0 -81 66 -81zM593 161l11 76h324l-10 -76h-325zM497 0h-127l-162 473l-66 -473h-107l88 626h143
l149 -469l65 469h106z" />
    <glyph glyph-name="percent.osf" horiz-adv-x="872" 
d="M624 -12q-74 0 -111 39.5t-37 110.5q0 98 52 155.5t143 57.5q146 0 146 -152q0 -91 -49.5 -151t-143.5 -60zM631 57q92 0 92 139q0 85 -59 85q-49 0 -71 -40.5t-22 -103.5q0 -80 60 -80zM46 407q0 97 51.5 155t143.5 58q146 0 146 -152q0 -91 -50 -151t-143 -60
q-74 0 -111 39.5t-37 110.5zM201 326q92 0 92 140q0 84 -59 84q-48 0 -71 -40t-23 -101q0 -83 61 -83zM716 621l-465 -636h-108l466 636h107z" />
    <glyph glyph-name="perthousand.osf" horiz-adv-x="1095" 
d="M870 -12q-67 0 -99.5 36t-32.5 97q0 86 46 139t128 53q130 0 130 -132q0 -87 -45 -140t-127 -53zM877 53q79 0 79 128q0 66 -50 66q-80 0 -80 -125q0 -69 51 -69zM531 -12q-67 0 -99 36t-32 97q0 86 46 139t128 53q65 0 97.5 -35t32.5 -97q0 -87 -45.5 -140t-127.5 -53z
M538 53q79 0 79 128q0 66 -50 66q-41 0 -60.5 -35t-19.5 -90q0 -69 51 -69zM180 295q-67 0 -99.5 36t-32.5 97q0 86 46 139t128 53q130 0 130 -132q0 -87 -45 -140t-127 -53zM197 -15h-108l464 636h107zM187 360q79 0 79 128q0 66 -50 66q-80 0 -80 -125q0 -69 51 -69z" />
    <glyph glyph-name="zero.slash" 
d="M238 -12q-113 0 -159 62t-46 183q0 67 9 140q47 364 301 364q108 0 154.5 -62t46.5 -174q0 -69 -7 -132q-20 -181 -90.5 -281t-208.5 -100zM153 179l3 -21l228 478q-22 14 -52 14q-75 0 -114.5 -73.5t-56.5 -209.5q-8 -64 -10 -125q0 -44 2 -63zM246 74q78 0 116.5 77
t55.5 223q7 66 9 122q0 32 -4 55l-2 12l-227 -476q21 -13 52 -13z" />
    <glyph glyph-name="zero.tf" 
d="M239 -12q-113 0 -159 62t-46 183q0 77 9 140q44 364 301 364q108 0 154.5 -62t46.5 -174q0 -69 -7 -132q-20 -181 -90.5 -281t-208.5 -100zM247 74q78 0 116.5 77t55.5 223q7 66 9 122q0 32 -4 55q-11 99 -91 99q-75 0 -114.5 -73.5t-56.5 -209.5q-8 -64 -10 -125
q0 -44 2 -63q5 -53 26.5 -79t66.5 -26z" />
    <glyph glyph-name="one.tf" horiz-adv-x="569" 
d="M60 0l13 95h142l69 485q-25 -13 -78 -22.5t-82 -9.5v91q143 11 221 85h72l-89 -629h127l-13 -95h-382z" />
    <glyph glyph-name="two.tf" 
d="M450 0h-437l13 93l192 198q115 119 150 168t35 103q0 86 -91 86q-96 0 -132 -119l-100 18q21 97 88.5 143.5t160.5 46.5q90 0 140.5 -42t50.5 -121q0 -30 -4.5 -54.5t-19.5 -52.5t-27 -47t-44 -54t-52.5 -55.5l-69.5 -68.5l-68 -67t-76 -79h304z" />
    <glyph glyph-name="three.tf" 
d="M336 737q89 0 138 -40.5t49 -113.5q0 -78 -50.5 -127.5t-116.5 -67.5v-2q131 -27 131 -155q0 -111 -73 -177t-194 -66q-196 0 -204 173l102 19q4 -47 26 -76t80 -29q61 0 103.5 38.5t42.5 113.5q0 58 -32 82.5t-93 24.5h-66l12 87h47q77 0 123 40t46 105q0 38 -21 61
t-67 23q-54 0 -84 -25t-49 -76l-99 20q53 168 249 168z" />
    <glyph glyph-name="four.tf" 
d="M413 0h-111l25 173h-319l11 80l355 471h142l-65 -459h79l-13 -92h-80zM124 265h216l50 353z" />
    <glyph glyph-name="five.tf" 
d="M509 629h-272l-54 -219q66 50 146 50q74 0 123 -45t49 -140q0 -129 -77.5 -208t-202.5 -79q-90 0 -146 44t-61 131l101 22q3 -44 28.5 -75t83.5 -31q64 0 111.5 45t47.5 138q0 108 -99 108q-62 0 -131 -58l-77 34l80 378h363z" />
    <glyph glyph-name="six.tf" 
d="M557 571l-103 -24q-4 56 -26.5 79.5t-62.5 23.5q-55 0 -97.5 -41.5t-65 -100.5t-32.5 -132q33 26 80 46t96 20q80 0 126 -46t46 -127q0 -130 -75 -205.5t-190 -75.5q-112 0 -159 68.5t-47 191.5q0 46 6 94.5t19.5 105.5t39 107t61 91.5t89.5 66t120 24.5q73 0 121 -41.5
t54 -124.5zM165 290q-4 -29 -4 -69q0 -146 103 -146q59 0 98 47t39 133q0 99 -89 99q-70 0 -147 -64z" />
    <glyph glyph-name="seven.tf" 
d="M178 0h-123l377 629h-342l14 95h463l-12 -85z" />
    <glyph glyph-name="eight.tf" 
d="M390 381q58 -31 90 -67t32 -97q0 -100 -74.5 -164.5t-201.5 -64.5q-107 0 -162 46.5t-55 122.5q0 81 44 131.5t128 85.5q-95 52 -95 151q0 101 72 156.5t183 55.5q92 0 144 -39.5t52 -108.5q0 -68 -37.5 -114t-119.5 -94zM270 326q-70 -29 -104 -65t-34 -92
q0 -43 28.5 -69.5t85.5 -26.5q69 0 106 37.5t37 90.5q0 49 -31 76t-88 49zM308 424q55 29 91.5 68.5t36.5 83.5q0 81 -98 81q-57 0 -90.5 -32t-33.5 -81q0 -77 94 -120z" />
    <glyph glyph-name="nine.tf" 
d="M10 151l102 26q13 -104 102 -104q84 0 132.5 74t63.5 195q-32 -28 -82 -46t-102 -18q-79 0 -124 49.5t-45 132.5q0 130 74.5 203.5t187.5 73.5q209 0 209 -266q0 -105 -18.5 -191t-56 -152.5t-99.5 -103t-144 -36.5q-85 0 -138 40.5t-62 122.5zM412 431q4 31 4 71
q0 149 -102 149q-61 0 -101 -46t-40 -130q0 -110 88 -110q38 0 81.5 19t69.5 47z" />
    <glyph glyph-name="dollar.tf" 
d="M425 505q-2 98 -64 115l-33 -218q33 -13 50 -21t44 -25t41 -33.5t25 -43.5t11 -60q0 -99 -66.5 -155.5t-163.5 -64.5l-11 -80h-84l12 84q-164 28 -169 192l103 19q4 -53 22 -84.5t61 -41.5l34 233q-82 33 -122 75.5t-40 107.5q0 90 59.5 143t160.5 63l12 82h81l-12 -85
q152 -26 152 -190zM387 201q0 57 -75 90l-30 -207q47 9 76 39t29 78zM190 518q0 -54 63 -88l28 189q-41 -6 -66 -32t-25 -69z" />
    <glyph glyph-name="Euro.tf" horiz-adv-x="569" 
d="M29 476h49q37 118 115.5 190t199.5 72q40 0 73.5 -10.5t61.5 -35t41.5 -70t8.5 -109.5l-102 -10q3 80 -19 111.5t-82 31.5q-54 0 -100.5 -46.5t-75.5 -123.5h196l-25 -84h-195q-6 -31 -10 -75h187l-26 -84h-162q11 -153 128 -153q60 0 93 35t52 93l94 -19
q-26 -105 -93 -153t-156 -48q-216 0 -231 245h-91l26 84h65q1 33 8 75h-55z" />
    <glyph glyph-name="cent.tf" 
d="M317 704h85l-15 -102q67 -11 105 -60.5t33 -120.5l-102 -7q2 84 -49 103l-48 -321q62 15 84 91l94 -17q-17 -70 -67.5 -111t-121.5 -50l-15 -109h-88l16 112q-76 13 -114.5 64.5t-38.5 133.5q0 128 62 206t166 91zM191 313q0 -91 56 -114l47 318q-103 -34 -103 -204z" />
    <glyph glyph-name="sterling.tf" 
d="M-8 88h55q101 80 101 167q0 31 -11 64h-101l12 85h72q-25 62 -25 120q0 94 69.5 153.5t179.5 59.5q105 0 154.5 -48.5t48.5 -149.5l-105 -8q-1 59 -21.5 89t-77.5 30q-60 0 -95.5 -32.5t-35.5 -96.5q0 -47 25 -117h206l-12 -85h-178q6 -25 6 -55q0 -96 -95 -176h141
q58 0 86.5 24t44.5 83l97 -17q-19 -93 -75 -135.5t-154 -42.5h-324z" />
    <glyph glyph-name="yen.tf" 
d="M453 178h-134l-25 -178h-117l24 178h-125l10 83h127l11 79l-1 1h-126l13 83h80l-121 300h124l103 -289h2l169 289h122l-194 -300h92l-13 -83h-132l-12 -80h134z" />
    <glyph glyph-name="florin.tf" 
d="M198 446l25 123q18 86 61 127t123 41q123 0 159 -118l-93 -29q-10 32 -24.5 48t-40.5 16q-30 0 -48.5 -18t-26.5 -59l-25 -131h138l-14 -78h-137l-76 -392q-18 -85 -60 -124t-121 -39q-65 0 -107 30.5t-55 83.5l94 33q11 -31 25.5 -47.5t42.5 -16.5q30 0 46 18t24 61
l77 393h-86l13 78h86z" />
    <glyph glyph-name="zeroslash.tosf" 
d="M235 -12q-114 0 -168.5 65t-54.5 172q0 157 78.5 259.5t231.5 102.5q112 0 165 -62t53 -167q0 -59 -9 -111t-31.5 -100.5t-56.5 -83t-87 -55t-121 -20.5zM133 218q0 -55 17 -88l201 362q-18 6 -41 6q-49 0 -85 -25.5t-55 -68.5t-28 -89.5t-9 -96.5zM246 74q48 0 83 25.5
t54 68.5t27.5 89.5t8.5 98.5q0 51 -13 83l-201 -359q18 -6 41 -6z" />
    <glyph glyph-name="zero.tosf" 
d="M235 -12q-114 0 -168.5 65t-54.5 172q0 157 78.5 259.5t231.5 102.5q112 0 165 -62t53 -167q0 -59 -9 -111t-31.5 -100.5t-56.5 -83t-87 -55t-121 -20.5zM246 74q48 0 83 25.5t54 68.5t27.5 89.5t8.5 98.5q0 142 -109 142q-49 0 -85 -25.5t-55 -68.5t-28 -89.5t-9 -96.5
q0 -144 113 -144z" />
    <glyph glyph-name="one.tosf" horiz-adv-x="569" 
d="M75 0l14 95h141l47 339q-24 -14 -76 -23t-82 -9v90q145 11 220 83h72l-68 -480h122l-13 -95h-377z" />
    <glyph glyph-name="two.tosf" 
d="M306 181l-121 -84v-1h274l-13 -96h-423l13 90l157 119q117 86 153 124.5t36 92.5q0 76 -83 76q-57 0 -86 -29t-46 -86l-98 19q24 95 89 138t155 43q89 0 136.5 -40t47.5 -114q0 -75 -42.5 -127.5t-148.5 -124.5z" />
    <glyph glyph-name="eight.tosf" 
d="M530 517q0 -57 -33 -98t-109 -78q58 -28 87 -60t29 -89q0 -92 -71.5 -148t-198.5 -56q-97 0 -151.5 40.5t-54.5 112.5q0 69 40 112.5t122 76.5q-94 45 -94 135q0 88 69 137.5t181 49.5q92 0 138 -37t46 -98zM249 71q67 0 100.5 28.5t33.5 76.5q0 39 -31.5 63.5
t-88.5 46.5q-67 -29 -95.5 -58.5t-28.5 -72.5q0 -84 110 -84zM334 573q-56 0 -88 -24t-32 -69q0 -62 97 -102q59 31 87 60t28 66q0 69 -92 69z" />
    <glyph glyph-name="sterling.tosf" 
d="M-8 84h57q76 68 76 146q0 20 -6 44h-102l12 81h73q-20 49 -20 90q0 92 67.5 149t179.5 57q194 0 202 -186l-101 -18q-2 56 -24.5 88t-80.5 32t-95.5 -30.5t-37.5 -90.5q0 -38 21 -91h206l-11 -81h-178q7 -32 -1 -62q-7 -66 -75 -128h136q62 0 92.5 26t46.5 85l93 -17
q-17 -96 -77.5 -137t-172.5 -41h-291z" />
    <glyph glyph-name="yen.tosf" 
d="M451 147h-131l-21 -147h-115l21 147h-131l12 77h130l8 59l-3 7h-128l12 78h81l-116 264h121l101 -260h2l168 260h120l-186 -264h86l-12 -78h-129v-1l-10 -65h132z" />
    <glyph glyph-name="florin.tosf" 
d="M204 374l21 104q18 86 61 127t123 41q123 0 159 -118l-93 -29q-10 32 -24.5 48t-40.5 16q-30 0 -48.5 -18t-26.5 -59l-22 -112h138l-14 -78h-137l-64 -319q-17 -85 -59 -124t-121 -39q-65 0 -107 30.5t-56 83.5l94 33q12 -32 26.5 -48t42.5 -16q29 0 45 18t24 61l65 320
h-86l13 78h87z" />
    <glyph glyph-name="idotaccent" horiz-adv-x="256" 
d="M215 517l-73 -517h-115l73 517h115zM257 692q0 -40 -23.5 -63.5t-63.5 -23.5q-31 0 -48 16.5t-17 45.5q0 40 23 63t63 23q32 0 49 -16t17 -45z" />
    <glyph glyph-name="s_p" horiz-adv-x="1062" 
d="M679 517l-10 -67l1 -1q87 78 182 78q159 0 159 -197q0 -170 -72.5 -256t-180.5 -86q-85 0 -142 53l-36 -253h-111l103 729h107zM890 318q0 62 -19 89.5t-61 27.5q-34 0 -75.5 -20t-69.5 -43l-34 -246q49 -46 108 -46q80 0 115.5 68t35.5 170zM270 527q88 0 135 -41.5
t53 -113.5l-96 -17q-9 93 -96 93q-48 0 -70.5 -19t-22.5 -48q0 -17 7.5 -29.5t25.5 -21.5t31.5 -13l41.5 -12q28 -7 44.5 -12.5t40 -17t36.5 -25.5t23 -37.5t10 -53.5q0 -81 -61 -126t-160 -45q-184 0 -199 154l94 21q13 -96 112 -96q43 0 72.5 17.5t29.5 55.5q0 18 -7.5 31
t-24.5 22.5t-30.5 14t-40.5 11.5q-30 8 -45 12.5t-40 16.5t-37.5 25.5t-22.5 37t-10 54.5q0 80 60.5 121t146.5 41z" />
    <glyph glyph-name="c_t" horiz-adv-x="888" 
d="M826 97l13 -77q-58 -34 -134 -34q-143 0 -143 123q0 12 10 82l67 473l117 17l-24 -166h141l-11 -82h-141l-39 -276q-6 -43 5.5 -63.5t50.5 -20.5q44 0 88 24zM248 -12q-108 0 -162 59.5t-54 159.5q0 150 78 235t207 85q95 0 144.5 -56.5t41.5 -148.5l-103 -8
q3 60 -17.5 92.5t-74.5 32.5q-65 0 -110 -53.5t-45 -173.5q0 -136 106 -136q96 0 126 104l97 -18q-22 -88 -84 -131t-150 -43z" />
    <glyph glyph-name="c_h" horiz-adv-x="1105" 
d="M247 -12q-108 0 -162 59.5t-54 159.5q0 150 78 235t207 85q95 0 144.5 -56.5t41.5 -148.5l-103 -8q3 60 -17.5 92.5t-74.5 32.5q-65 0 -110 -53.5t-45 -173.5q0 -136 106 -136q96 0 126 104l97 -18q-22 -88 -84 -131t-150 -43zM714 365l-52 -365h-115l106 755h114
l-45 -306q89 78 183 78q161 0 137 -176l-49 -351h-115l47 335q14 98 -63 98q-61 0 -148 -68z" />
    <glyph glyph-name="c_k" horiz-adv-x="1058" 
d="M247 -12q-108 0 -162 59.5t-54 159.5q0 150 78 235t207 85q95 0 144.5 -56.5t41.5 -148.5l-103 -8q3 60 -17.5 92.5t-74.5 32.5q-65 0 -110 -53.5t-45 -173.5q0 -136 106 -136q96 0 126 104l97 -18q-22 -88 -84 -131t-150 -43zM1007 0h-127l-112 257l-78 -69l-27 -188
h-115l106 755h115l-63 -447l228 209h132l-202 -187z" />
    <glyph glyph-name="T_h" horiz-adv-x="1040" 
d="M652 365l-52 -365h-115l88 628h-194l-86 -628h-115l86 628h-212l13 96h521l5 31h114l-45 -306q89 78 183 78q161 0 137 -176l-49 -351h-115l47 335q14 98 -63 98q-61 0 -148 -68z" />
    <glyph glyph-name="revcommaaccent" horiz-adv-x="500" 
d="M467 743l-66 -173h-114l100 184z" />
    <glyph glyph-name="caron.alt" horiz-adv-x="499" 
d="M257 563l60 192h112l-91 -200z" />
    <glyph glyph-name="tilde.cap" horiz-adv-x="499" 
d="M328 911q34 0 75.5 -22.5t61.5 -22.5q18 0 28 11t14 38l63 -3q-2 -61 -31 -94t-74 -33q-35 0 -78 23t-63 23q-35 0 -39 -52l-66 3q3 61 33.5 95t75.5 34z" />
    <glyph glyph-name="ring.cap" horiz-adv-x="500" 
d="M499 849q0 -55 -35 -87t-91 -32q-45 0 -71.5 22.5t-26.5 63.5q0 56 37.5 88t88.5 32q43 0 70.5 -22.5t27.5 -64.5zM379 783q27 0 42.5 16.5t15.5 43.5q0 40 -43 40q-26 0 -42 -15.5t-16 -43.5q0 -41 43 -41z" />
    <glyph glyph-name="circumflex.cap" horiz-adv-x="499" 
d="M543 776l-82 -7l-69 76l-91 -78l-83 9l131 133h103z" />
    <glyph glyph-name="acute.cap" horiz-adv-x="500" 
d="M297 778l111 136h134l-163 -147z" />
    <glyph glyph-name="grave.cap" horiz-adv-x="499" 
d="M257 914h129l76 -136l-83 -11z" />
    <glyph glyph-name="dieresis.cap" horiz-adv-x="499" 
d="M206 837q0 35 23.5 56.5t60.5 21.5q30 0 47 -16t17 -43q0 -35 -23 -56.5t-60 -21.5q-30 0 -47.5 15.5t-17.5 43.5zM425 837q0 35 24 56.5t61 21.5q30 0 47 -16t17 -43q0 -35 -23 -56.5t-60 -21.5q-30 0 -48 15.5t-18 43.5z" />
    <glyph glyph-name="caron.cap" horiz-adv-x="500" 
d="M236 904l83 7l69 -77l91 78l82 -8l-131 -133h-103z" />
    <glyph glyph-name="macron.cap" horiz-adv-x="499" 
d="M539 790h-311l11 82h311z" />
    <glyph glyph-name="dotaccent.cap" horiz-adv-x="500" 
d="M469 865q0 -41 -23.5 -64t-63.5 -23q-31 0 -48 16.5t-17 45.5q0 40 22.5 63t63.5 23q66 0 66 -61z" />
    <glyph glyph-name="cedilla.cap" horiz-adv-x="500" 
d="M103 -218l19 58q31 -14 54 -14q25 0 39.5 12.5t14.5 33.5q0 22 -15.5 31t-48.5 10l33 117l62 -8l-19 -67q70 -14 70 -78q0 -54 -36 -83.5t-93 -29.5q-44 0 -80 18z" />
    <glyph glyph-name="hungarumlaut.cap" horiz-adv-x="500" 
d="M264 780l78 134h126l-128 -147zM400 778l117 140h130l-167 -151z" />
    <glyph glyph-name="commaaccent.cap" horiz-adv-x="500" 
d="M131 -241l66 173h114l-100 -185z" />
    <glyph glyph-name="breve.cap" horiz-adv-x="500" 
d="M391 848q68 0 90 71l78 -6q-30 -138 -175 -138q-141 0 -142 136l82 8q1 -38 17 -54.5t50 -16.5z" />
    <glyph glyph-name="ogonek.cap" horiz-adv-x="500" 
d="M307 -118l54 -27q-18 -43 -52.5 -65t-76.5 -22q-48 0 -75.5 23t-27.5 64q0 51 35 89t97 78l62 -15q-40 -34 -55.5 -49t-30.5 -38.5t-15 -45.5q0 -34 31 -34q29 0 54 42z" />
    <glyph glyph-name="a.sup" horiz-adv-x="420" 
d="M410 687l-39 -260q-3 -27 16 -27q10 0 23 4l-6 -50q-24 -10 -57 -10q-57 0 -63 45q-45 -47 -112 -47q-54 0 -85.5 32.5t-31.5 98.5q0 100 48 160t123 60q54 0 93 -35l5 29h86zM282 445l24 156q-27 23 -63 23q-48 0 -70 -44t-22 -97q0 -72 57 -72q40 0 74 34z" />
    <glyph glyph-name="b.sup" horiz-adv-x="410" 
d="M131 350h-82l71 483h90l-27 -184q55 44 115 44q108 0 108 -128q0 -110 -47 -166.5t-118 -56.5q-60 0 -100 40q-1 -1 -2 -1zM176 589l-23 -151q31 -26 69 -26q44 0 65.5 39t21.5 102q0 70 -51 70q-43 0 -82 -34z" />
    <glyph glyph-name="c.sup" horiz-adv-x="377" 
d="M205 342q-75 0 -113 39t-38 105q0 97 53 152t143 55q66 0 101 -37t30 -99l-81 -5q3 75 -57 75q-39 0 -66 -32t-27 -106q0 -80 64 -80q58 0 78 64l76 -13q-30 -118 -163 -118z" />
    <glyph glyph-name="d.sup" horiz-adv-x="406" 
d="M362 350h-78l1 36q0 1 -1 1q-50 -45 -112 -45q-116 0 -116 130q0 112 51.5 166.5t120.5 54.5q54 0 92 -33l24 173h88zM284 441l23 162q-26 22 -60 22q-49 0 -72 -43t-23 -101q0 -62 46 -67q42 -7 86 27z" />
    <glyph glyph-name="e.sup" horiz-adv-x="366" 
d="M200 342q-76 0 -110.5 40.5t-34.5 105.5q0 93 54.5 149t140.5 56q61 0 91 -25.5t30 -65.5q0 -67 -75 -94q-49 -19 -147 -25q0 -75 65 -75q56 0 72 53l74 -17q-16 -49 -58 -75.5t-102 -26.5zM242 633q-36 0 -60.5 -27t-29.5 -70q60 4 83 11q50 15 50 51q0 35 -43 35z" />
    <glyph glyph-name="f.sup" horiz-adv-x="248" 
d="M328 828l-12 -59q-26 8 -48 8q-52 0 -59 -53l-6 -37h95l-9 -62h-95l-60 -411h-92l61 411h-49l9 62h48l7 42q17 113 135 113q47 0 75 -14z" />
    <glyph glyph-name="g.sup" horiz-adv-x="403" 
d="M241 624q-46 0 -67.5 -39.5t-21.5 -89.5q0 -69 54 -69q43 0 78 33l21 141q-26 24 -64 24zM271 347l9 51q-44 -41 -109 -41q-53 0 -84.5 32.5t-31.5 96.5q0 51 16 96t56.5 78t99.5 33q58 0 93 -38l6 32h82l-48 -335q-22 -145 -180 -145q-141 0 -148 114l83 13
q4 -62 66 -62q77 0 90 75z" />
    <glyph glyph-name="h.sup" horiz-adv-x="404" 
d="M176 583l-35 -233h-92l71 483h91l-29 -188q58 48 122 48q108 0 90 -117l-33 -226h-92l31 213q5 31 -3 44.5t-31 13.5q-41 0 -90 -38z" />
    <glyph glyph-name="i.sup" horiz-adv-x="188" 
d="M191 687l-50 -337h-92l50 337h92zM218 800q0 -30 -17.5 -47t-48.5 -17q-49 0 -49 46q0 29 17 45.5t47 16.5q51 0 51 -44z" />
    <glyph glyph-name="j.sup" horiz-adv-x="187" 
d="M46 325l53 362h92l-54 -368q-17 -112 -132 -112q-56 0 -79 17l16 62q24 -10 51 -10q46 0 53 49zM218 800q0 -30 -17.5 -47t-48.5 -17q-49 0 -49 46q0 29 17 45.5t48 16.5q50 0 50 -44z" />
    <glyph glyph-name="k.sup" horiz-adv-x="382" 
d="M377 350h-102l-70 160l-46 -38l-18 -122h-92l71 483h92l-41 -272l142 126h104l-135 -121z" />
    <glyph glyph-name="l.sup" horiz-adv-x="188" 
d="M49 350l71 483h92l-71 -483h-92z" />
    <glyph glyph-name="m.sup" horiz-adv-x="589" 
d="M294 693q64 0 79 -49q57 49 120 49q49 0 72 -29.5t15 -82.5l-34 -231h-92l31 222q8 49 -30 49t-75 -35l-35 -236h-92l32 221q6 50 -31 50q-35 0 -79 -36l-34 -235h-92l49 337h84l-5 -44h1q59 50 116 50z" />
    <glyph glyph-name="n.sup" horiz-adv-x="405" 
d="M175 584l-34 -234h-92l49 337h87l-8 -45q1 0 1 -0.5t1 -0.5q57 52 125 52q107 0 91 -114l-34 -229h-92l32 216q8 55 -37 55q-39 0 -89 -37z" />
    <glyph glyph-name="o.sup" horiz-adv-x="404" 
d="M204 342q-150 0 -150 146q0 88 53.5 146.5t147.5 58.5q146 0 146 -145q0 -87 -51 -146.5t-146 -59.5zM212 407q80 0 92 109q3 22 3 39q0 74 -63 74q-81 0 -95 -110q-2 -26 -2 -37q0 -75 65 -75z" />
    <glyph glyph-name="p.sup" horiz-adv-x="410" 
d="M184 687l-6 -42h1q53 48 119 48q109 0 109 -131q0 -109 -49 -164.5t-121 -55.5q-57 0 -94 35l-25 -163h-88l69 473h85zM310 554q0 70 -50 70q-42 0 -84 -35l-23 -152q28 -25 64 -25q49 0 71 40t22 102z" />
    <glyph glyph-name="q.sup" horiz-adv-x="406" 
d="M229 693q62 0 92 -38l7 32h82l-69 -473h-87l26 168q-49 -40 -108 -40q-55 0 -86 32t-31 99q0 112 51.5 166t122.5 54zM151 486q0 -74 56 -74q42 0 76 32l23 159q-24 22 -59 22q-48 0 -72 -40t-24 -99z" />
    <glyph glyph-name="r.sup" horiz-adv-x="273" 
d="M173 569l-32 -219h-92l49 337h85l-8 -57h1q54 63 115 63q12 0 18 -1l-13 -84q-66 4 -123 -39z" />
    <glyph glyph-name="s.sup" horiz-adv-x="346" 
d="M219 693q60 0 93.5 -26.5t38.5 -72.5l-76 -14q-7 55 -60 55q-55 0 -55 -38q0 -21 27.5 -32t60.5 -16t60.5 -27.5t27.5 -63.5q0 -56 -43 -86t-114 -30q-128 0 -142 98l77 18q10 -57 71 -57q63 0 63 43q0 21 -27.5 32.5t-60.5 16.5t-60.5 27.5t-27.5 63.5q0 54 42.5 81.5
t104.5 27.5z" />
    <glyph glyph-name="t.sup" horiz-adv-x="283" 
d="M266 427l11 -62q-42 -23 -96 -23q-117 0 -100 114l25 169h-52l9 62h52l15 96l94 14l-17 -110h94l-8 -62h-95l-23 -162q-4 -25 3 -37.5t32 -12.5q30 0 56 14z" />
    <glyph glyph-name="u.sup" horiz-adv-x="401" 
d="M278 449l34 238h92l-49 -337h-80l4 41q0 1 -1 1q-51 -49 -122 -49q-53 0 -77 31t-16 88l32 225h92l-30 -224q-6 -50 39 -50q38 0 82 36z" />
    <glyph glyph-name="v.sup" horiz-adv-x="366" 
d="M236 350h-106l-75 337h97l44 -254h2l113 254h98z" />
    <glyph glyph-name="w.sup" horiz-adv-x="550" 
d="M217 350h-109l-53 337h91l32 -252h1l100 252h92l30 -250h2l99 250h90l-152 -337h-104l-26 233h-2z" />
    <glyph glyph-name="x.sup" horiz-adv-x="356" 
d="M347 350h-96l-58 110l-87 -110h-92l139 173l-92 164h96l57 -109l85 109h92l-136 -169z" />
    <glyph glyph-name="y.sup" horiz-adv-x="357" 
d="M134 345l-78 342h96l41 -246h1l111 246h95l-184 -359q-35 -70 -65.5 -96t-83.5 -26q-42 0 -70 14l16 62q27 -10 49 -10q23 0 37 15.5t35 57.5z" />
    <glyph glyph-name="z.sup" horiz-adv-x="322" 
d="M302 350h-277l9 58l198 215h-165l9 64h266l-9 -60l-194 -210h173z" />
    <glyph glyph-name="minusinferior" horiz-adv-x="382" 
d="M284 37h-250l10 76h251z" />
    <glyph glyph-name="plusinferior" horiz-adv-x="382" 
d="M188 -57h-80l12 88h-85l11 77h85l13 84h80l-13 -84h86l-11 -77h-85z" />
    <glyph glyph-name="equalinferior" horiz-adv-x="382" 
d="M264 -45h-250l11 76h250zM281 73h-250l11 76h251z" />
    <glyph glyph-name="a.sinf" horiz-adv-x="420" 
d="M341 191l-39 -260q-3 -27 16 -27q10 0 23 4l-6 -50q-24 -10 -57 -10q-57 0 -63 45q-45 -47 -112 -47q-54 0 -85.5 32.5t-31.5 98.5q0 100 48 160t123 60q54 0 93 -35l5 29h86zM213 -51l24 156q-27 23 -63 23q-48 0 -70 -44t-22 -97q0 -72 57 -72q40 0 74 34z" />
    <glyph glyph-name="b.sinf" horiz-adv-x="410" 
d="M62 -146h-82l71 483h90l-27 -184q55 44 115 44q108 0 108 -128q0 -110 -47 -166.5t-118 -56.5q-60 0 -100 40q-1 -1 -2 -1zM107 93l-23 -151q31 -26 69 -26q44 0 65.5 39t21.5 102q0 70 -51 70q-43 0 -82 -34z" />
    <glyph glyph-name="c.sinf" horiz-adv-x="377" 
d="M136 -154q-75 0 -113 39t-38 105q0 97 53 152t143 55q66 0 101 -37t30 -99l-81 -5q3 75 -57 75q-39 0 -66 -32t-27 -106q0 -80 64 -80q58 0 78 64l76 -13q-30 -118 -163 -118z" />
    <glyph glyph-name="d.sinf" horiz-adv-x="406" 
d="M293 -146h-78l1 36q0 1 -1 1q-50 -45 -112 -45q-116 0 -116 130q0 112 51.5 166.5t120.5 54.5q54 0 92 -33l24 173h88zM215 -55l23 162q-26 22 -60 22q-49 0 -72 -43t-23 -101q0 -62 46 -67q42 -7 86 27z" />
    <glyph glyph-name="e.sinf" horiz-adv-x="366" 
d="M131 -154q-76 0 -110.5 40.5t-34.5 105.5q0 93 54.5 149t140.5 56q61 0 91 -25.5t30 -65.5q0 -67 -75 -94q-49 -19 -147 -25q0 -75 65 -75q56 0 72 53l74 -17q-16 -49 -58 -75.5t-102 -26.5zM173 137q-36 0 -60.5 -27t-29.5 -70q60 4 83 11q50 15 50 51q0 35 -43 35z" />
    <glyph glyph-name="f.sinf" horiz-adv-x="248" 
d="M259 332l-12 -59q-26 8 -48 8q-52 0 -59 -53l-6 -37h95l-9 -62h-95l-60 -411h-92l61 411h-49l9 62h48l7 42q17 113 135 113q47 0 75 -14z" />
    <glyph glyph-name="g.sinf" horiz-adv-x="403" 
d="M172 128q-46 0 -67.5 -39.5t-21.5 -89.5q0 -69 54 -69q43 0 78 33l21 141q-26 24 -64 24zM202 -149l9 51q-44 -41 -109 -41q-53 0 -84.5 32.5t-31.5 96.5q0 51 16 96t56.5 78t99.5 33q58 0 93 -38l6 32h82l-48 -335q-22 -145 -180 -145q-141 0 -148 114l83 13
q4 -62 66 -62q77 0 90 75z" />
    <glyph glyph-name="h.sinf" horiz-adv-x="404" 
d="M107 87l-35 -233h-92l71 483h91l-29 -188q58 48 122 48q108 0 90 -117l-33 -226h-92l31 213q5 31 -3 44.5t-31 13.5q-41 0 -90 -38z" />
    <glyph glyph-name="i.sinf" horiz-adv-x="188" 
d="M122 191l-50 -337h-92l50 337h92zM149 304q0 -30 -17.5 -47t-48.5 -17q-49 0 -49 46q0 29 17 45.5t47 16.5q51 0 51 -44z" />
    <glyph glyph-name="j.sinf" horiz-adv-x="187" 
d="M-23 -171l53 362h92l-54 -368q-17 -112 -132 -112q-56 0 -79 17l16 62q24 -10 51 -10q46 0 53 49zM149 304q0 -30 -17.5 -47t-48.5 -17q-49 0 -49 46q0 29 17 45.5t48 16.5q50 0 50 -44z" />
    <glyph glyph-name="k.sinf" horiz-adv-x="382" 
d="M308 -146h-102l-70 160l-46 -38l-18 -122h-92l71 483h92l-41 -272l142 126h104l-135 -121z" />
    <glyph glyph-name="l.sinf" horiz-adv-x="188" 
d="M-20 -146l71 483h92l-71 -483h-92z" />
    <glyph glyph-name="m.sinf" horiz-adv-x="589" 
d="M225 197q64 0 79 -49q57 49 120 49q49 0 72 -29.5t15 -82.5l-34 -231h-92l31 222q8 49 -30 49t-75 -35l-35 -236h-92l32 221q6 50 -31 50q-35 0 -79 -36l-34 -235h-92l49 337h84l-5 -44h1q59 50 116 50z" />
    <glyph glyph-name="n.sinf" horiz-adv-x="405" 
d="M106 88l-34 -234h-92l49 337h87l-8 -45h1l1 -1q57 52 125 52q107 0 91 -114l-34 -229h-92l32 216q8 55 -37 55q-39 0 -89 -37z" />
    <glyph glyph-name="o.sinf" horiz-adv-x="404" 
d="M135 -154q-150 0 -150 146q0 88 53.5 146.5t147.5 58.5q146 0 146 -145q0 -87 -51 -146.5t-146 -59.5zM143 -89q80 0 92 109q3 22 3 39q0 74 -63 74q-81 0 -95 -110q-2 -26 -2 -37q0 -75 65 -75z" />
    <glyph glyph-name="p.sinf" horiz-adv-x="410" 
d="M115 191l-6 -42h1q53 48 119 48q109 0 109 -131q0 -109 -49 -164.5t-121 -55.5q-57 0 -94 35l-25 -163h-88l69 473h85zM241 58q0 70 -50 70q-42 0 -84 -35l-23 -152q28 -25 64 -25q49 0 71 40t22 102z" />
    <glyph glyph-name="q.sinf" horiz-adv-x="406" 
d="M160 197q62 0 92 -38l7 32h82l-69 -473h-87l26 168q-49 -40 -108 -40q-55 0 -86 32t-31 99q0 112 51.5 166t122.5 54zM82 -10q0 -74 56 -74q42 0 76 32l23 159q-24 22 -59 22q-48 0 -72 -40t-24 -99z" />
    <glyph glyph-name="r.sinf" horiz-adv-x="273" 
d="M104 73l-32 -219h-92l49 337h85l-8 -57h1q54 63 115 63q12 0 18 -1l-13 -84q-66 4 -123 -39z" />
    <glyph glyph-name="s.sinf" horiz-adv-x="346" 
d="M150 197q60 0 93.5 -26.5t38.5 -72.5l-76 -14q-7 55 -60 55q-55 0 -55 -38q0 -21 27.5 -32t60.5 -16t60.5 -27.5t27.5 -63.5q0 -56 -43 -86t-114 -30q-128 0 -142 98l77 18q10 -57 71 -57q63 0 63 43q0 21 -27.5 32.5t-60.5 16.5t-60.5 27.5t-27.5 63.5q0 54 42.5 81.5
t104.5 27.5z" />
    <glyph glyph-name="t.sinf" horiz-adv-x="283" 
d="M197 -69l11 -62q-42 -23 -96 -23q-117 0 -100 114l25 169h-52l9 62h52l15 96l94 14l-17 -110h94l-8 -62h-95l-23 -162q-4 -25 3 -37.5t32 -12.5q30 0 56 14z" />
    <glyph glyph-name="u.sinf" horiz-adv-x="401" 
d="M209 -47l34 238h92l-49 -337h-80l4 41q0 1 -1 1q-51 -49 -122 -49q-53 0 -77 31t-16 88l32 225h92l-30 -224q-6 -50 39 -50q38 0 82 36z" />
    <glyph glyph-name="v.sinf" horiz-adv-x="366" 
d="M167 -146h-106l-75 337h97l44 -254h2l113 254h98z" />
    <glyph glyph-name="w.sinf" horiz-adv-x="550" 
d="M148 -146h-109l-53 337h91l32 -252h1l100 252h92l30 -250h2l99 250h90l-152 -337h-104l-26 233h-2z" />
    <glyph glyph-name="x.sinf" horiz-adv-x="356" 
d="M278 -146h-96l-58 110l-87 -110h-92l139 173l-92 164h96l57 -109l85 109h92l-136 -169z" />
    <glyph glyph-name="y.sinf" horiz-adv-x="357" 
d="M65 -151l-78 342h96l41 -246h1l111 246h95l-184 -359q-35 -70 -65.5 -96t-83.5 -26q-42 0 -70 14l16 62q27 -10 49 -10q23 0 37 15.5t35 57.5z" />
    <glyph glyph-name="z.sinf" horiz-adv-x="322" 
d="M233 -146h-277l9 58l198 215h-165l9 64h266l-9 -60l-194 -210h173z" />
    <glyph glyph-name="zero.num" horiz-adv-x="408" 
d="M196 274q-78 0 -111.5 42t-33.5 127q0 39 5 76.5t19.5 78t37 70.5t60.5 49.5t88 19.5q142 0 142 -164q0 -41 -5 -79t-19 -79t-36 -71.5t-60 -50t-87 -19.5zM203 347q26 0 44 18t27.5 54.5t14 69.5t8.5 85q4 89 -47 89q-26 0 -44.5 -17.5t-28 -52.5t-14.5 -70.5t-8 -86.5
q-4 -89 48 -89z" />
    <glyph glyph-name="one.num" horiz-adv-x="318" 
d="M227 281h-102l50 332q-16 -8 -49.5 -13t-53.5 -5v80q99 9 150 54h70z" />
    <glyph glyph-name="two.num" horiz-adv-x="369" 
d="M323 281h-301l12 82l118 113q70 66 90.5 92.5t20.5 53.5q0 40 -45 40q-49 0 -70 -65l-88 15q12 63 60.5 94t113.5 31t99 -28t34 -77q0 -50 -27.5 -87.5t-105.5 -103.5l-79 -75v-1h180z" />
    <glyph glyph-name="three.num" horiz-adv-x="385" 
d="M243 737q62 0 97.5 -25.5t35.5 -72.5q0 -44 -30 -74.5t-74 -42.5v-3q82 -17 82 -96q0 -69 -47 -109t-130 -40q-140 0 -148 115l90 16q4 -58 60 -58q31 0 51.5 19t20.5 55q0 56 -66 56h-46l10 69h31q44 0 69 21t25 56q0 41 -46 41q-51 0 -69 -55l-88 16q35 112 172 112z
" />
    <glyph glyph-name="four.num" horiz-adv-x="402" 
d="M324 281h-99l16 99h-209l9 68l223 281h126l-40 -271h52l-11 -78h-52zM130 458h122l29 188z" />
    <glyph glyph-name="five.num" horiz-adv-x="385" 
d="M360 646h-176l-28 -109q45 30 93 30q49 0 79.5 -29.5t30.5 -86.5q0 -82 -51 -129.5t-132 -47.5q-63 0 -103 29t-46 89l90 16q0 -25 15 -41.5t45 -16.5q36 0 58.5 22t22.5 66q0 58 -54 58q-37 0 -71 -29l-62 25l53 237h249z" />
    <glyph glyph-name="six.num" horiz-adv-x="393" 
d="M403 626l-91 -20q-3 59 -47 59q-40 0 -67 -40.5t-37 -109.5q49 39 106 39q50 0 80.5 -28t30.5 -80q0 -84 -50 -128.5t-124 -44.5q-148 0 -148 171q0 36 5 71.5t20.5 76.5t39 72t64.5 51.5t93 20.5t86.5 -27t38.5 -83zM158 453q-2 -12 -2 -36q0 -72 52 -72q29 0 48 23.5
t19 65.5q0 52 -46 52q-36 0 -71 -33z" />
    <glyph glyph-name="seven.num" horiz-adv-x="354" 
d="M134 281h-107l231 365h-202l13 83h308l-11 -75z" />
    <glyph glyph-name="eight.num" horiz-adv-x="380" 
d="M294 523q78 -38 78 -100q0 -63 -52.5 -106t-142.5 -43q-74 0 -114.5 29t-40.5 78q0 88 111 126q-61 39 -61 95q0 64 51 99.5t128 35.5q64 0 101.5 -25.5t37.5 -68.5q0 -69 -96 -120zM188 474q-34 -15 -50.5 -33t-16.5 -45q0 -22 17 -35t48 -13q34 0 55.5 17t21.5 43
t-18.5 39.5t-56.5 26.5zM236 551q62 35 62 79q0 20 -14.5 32t-41.5 12q-30 0 -48 -15.5t-18 -39.5q0 -40 60 -68z" />
    <glyph glyph-name="nine.num" horiz-adv-x="394" 
d="M25 384l92 22q6 -58 56 -58q84 0 103 145q-16 -16 -47 -27.5t-63 -11.5q-48 0 -78.5 30t-30.5 84q0 83 50.5 126t124.5 43q147 0 147 -169q0 -130 -51.5 -212t-159.5 -82q-59 0 -98 27.5t-45 82.5zM276 553q3 23 3 40q0 71 -50 71q-31 0 -50 -23.5t-19 -63.5
q0 -56 45 -56q41 0 71 32z" />
    <glyph glyph-name="parenleft.ordn" horiz-adv-x="259" 
d="M225 208h-106q-61 101 -61 221q0 91 36.5 166.5t103.5 154.5h113q-71 -84 -107.5 -155t-36.5 -165q0 -106 58 -222z" />
    <glyph glyph-name="parenright.ordn" horiz-adv-x="259" 
d="M75 750h106q61 -101 61 -221q0 -91 -36.5 -166.5t-103.5 -154.5h-113q71 84 107.5 155.5t36.5 165.5q0 107 -58 221z" />
    <glyph glyph-name="hyphen.ordn" horiz-adv-x="221" 
d="M210 426h-175l12 82h175z" />
    <glyph glyph-name="comma.ordn" horiz-adv-x="210" 
d="M14 206l64 160h107l-90 -168z" />
    <glyph glyph-name="period.ordn" horiz-adv-x="212" 
d="M177 337q0 -65 -70 -65q-55 0 -55 45q0 67 71 67q54 0 54 -47z" />
    <glyph glyph-name="minus.ordn" horiz-adv-x="382" 
d="M334 465h-250l10 76h251z" />
    <glyph glyph-name="plus.ordn" horiz-adv-x="382" 
d="M237 371h-80l12 88h-85l11 77h85l13 84h80l-13 -84h86l-11 -77h-85z" />
    <glyph glyph-name="equal.ordn" horiz-adv-x="382" 
d="M316 383h-250l11 76h250zM333 501h-250l11 76h251z" />
    <glyph glyph-name="a.ordn" horiz-adv-x="420" 
d="M401 619l-39 -260q-3 -27 16 -27q10 0 23 4l-6 -50q-24 -10 -57 -10q-57 0 -63 45q-45 -47 -112 -47q-54 0 -85.5 32.5t-31.5 98.5q0 100 48 160t123 60q54 0 93 -35l5 29h86zM273 377l24 156q-27 23 -63 23q-48 0 -70 -44t-22 -97q0 -72 57 -72q40 0 74 34z" />
    <glyph glyph-name="b.ordn" horiz-adv-x="410" 
d="M122 282h-82l71 483h90l-27 -184q55 44 115 44q108 0 108 -128q0 -110 -47 -166.5t-118 -56.5q-60 0 -100 40q-1 -1 -2 -1zM167 521l-23 -151q31 -26 69 -26q44 0 65.5 39t21.5 102q0 70 -51 70q-43 0 -82 -34z" />
    <glyph glyph-name="c.ordn" horiz-adv-x="377" 
d="M196 274q-75 0 -113 39t-38 105q0 97 53 152t143 55q66 0 101 -37t30 -99l-81 -5q3 75 -57 75q-39 0 -66 -32t-27 -106q0 -80 64 -80q58 0 78 64l76 -13q-30 -118 -163 -118z" />
    <glyph glyph-name="d.ordn" horiz-adv-x="406" 
d="M353 282h-78l1 36q0 1 -1 1q-50 -45 -112 -45q-116 0 -116 130q0 112 51.5 166.5t120.5 54.5q54 0 92 -33l24 173h88zM275 373l23 162q-26 22 -60 22q-49 0 -72 -43t-23 -101q0 -62 46 -67q42 -7 86 27z" />
    <glyph glyph-name="e.ordn" horiz-adv-x="366" 
d="M191 274q-76 0 -110.5 40.5t-34.5 105.5q0 93 54.5 149t140.5 56q61 0 91 -25.5t30 -65.5q0 -67 -75 -94q-49 -19 -147 -25q0 -75 65 -75q56 0 72 53l74 -17q-16 -49 -58 -75.5t-102 -26.5zM233 565q-36 0 -60.5 -27t-29.5 -70q60 4 83 11q50 15 50 51q0 35 -43 35z" />
    <glyph glyph-name="f.ordn" horiz-adv-x="248" 
d="M319 760l-12 -59q-26 8 -48 8q-52 0 -59 -53l-6 -37h95l-9 -62h-95l-60 -411h-92l61 411h-49l9 62h48l7 42q17 113 135 113q47 0 75 -14z" />
    <glyph glyph-name="g.ordn" horiz-adv-x="403" 
d="M232 556q-46 0 -67.5 -39.5t-21.5 -89.5q0 -69 54 -69q43 0 78 33l21 141q-26 24 -64 24zM262 279l9 51q-44 -41 -109 -41q-53 0 -84.5 32.5t-31.5 96.5q0 51 16 96t56.5 78t99.5 33q58 0 93 -38l6 32h82l-48 -335q-22 -145 -180 -145q-141 0 -148 114l83 13
q4 -62 66 -62q77 0 90 75z" />
    <glyph glyph-name="h.ordn" horiz-adv-x="404" 
d="M167 515l-35 -233h-92l71 483h91l-29 -188q58 48 122 48q108 0 90 -117l-33 -226h-92l31 213q5 31 -3 44.5t-31 13.5q-41 0 -90 -38z" />
    <glyph glyph-name="i.ordn" horiz-adv-x="188" 
d="M182 619l-50 -337h-92l50 337h92zM209 732q0 -30 -17.5 -47t-48.5 -17q-49 0 -49 46q0 29 17 45.5t47 16.5q51 0 51 -44z" />
    <glyph glyph-name="j.ordn" horiz-adv-x="187" 
d="M37 257l53 362h92l-54 -368q-17 -112 -132 -112q-56 0 -79 17l16 62q24 -10 51 -10q46 0 53 49zM209 732q0 -30 -17.5 -47t-48.5 -17q-49 0 -49 46q0 29 17 45.5t48 16.5q50 0 50 -44z" />
    <glyph glyph-name="k.ordn" horiz-adv-x="382" 
d="M368 282h-102l-70 160l-46 -38l-18 -122h-92l71 483h92l-41 -272l142 126h104l-135 -121z" />
    <glyph glyph-name="l.ordn" horiz-adv-x="188" 
d="M40 282l71 483h92l-71 -483h-92z" />
    <glyph glyph-name="m.ordn" horiz-adv-x="589" 
d="M285 625q64 0 79 -49q57 49 120 49q49 0 72 -29.5t15 -82.5l-34 -231h-92l31 222q8 49 -30 49t-75 -35l-35 -236h-92l32 221q6 50 -31 50q-35 0 -79 -36l-34 -235h-92l49 337h84l-5 -44h1q59 50 116 50z" />
    <glyph glyph-name="n.ordn" horiz-adv-x="405" 
d="M166 516l-34 -234h-92l49 337h87l-8 -45h1l1 -1q57 52 125 52q107 0 91 -114l-34 -229h-92l32 216q8 55 -37 55q-39 0 -89 -37z" />
    <glyph glyph-name="o.ordn" horiz-adv-x="404" 
d="M195 274q-150 0 -150 146q0 88 53.5 146.5t147.5 58.5q146 0 146 -145q0 -87 -51 -146.5t-146 -59.5zM203 339q80 0 92 109q3 22 3 39q0 74 -63 74q-81 0 -95 -110q-2 -26 -2 -37q0 -75 65 -75z" />
    <glyph glyph-name="p.ordn" horiz-adv-x="410" 
d="M175 619l-6 -42h1q53 48 119 48q109 0 109 -131q0 -109 -49 -164.5t-121 -55.5q-57 0 -94 35l-25 -163h-88l69 473h85zM301 486q0 70 -50 70q-42 0 -84 -35l-23 -152q28 -25 64 -25q49 0 71 40t22 102z" />
    <glyph glyph-name="q.ordn" horiz-adv-x="406" 
d="M220 625q62 0 92 -38l7 32h82l-69 -473h-87l26 168q-49 -40 -108 -40q-55 0 -86 32t-31 99q0 112 51.5 166t122.5 54zM142 418q0 -74 56 -74q42 0 76 32l23 159q-24 22 -59 22q-48 0 -72 -40t-24 -99z" />
    <glyph glyph-name="r.ordn" horiz-adv-x="273" 
d="M164 501l-32 -219h-92l49 337h85l-8 -57h1q54 63 115 63q12 0 18 -1l-13 -84q-66 4 -123 -39z" />
    <glyph glyph-name="s.ordn" horiz-adv-x="346" 
d="M210 625q60 0 93.5 -26.5t38.5 -72.5l-76 -14q-7 55 -60 55q-55 0 -55 -38q0 -21 27.5 -32t60.5 -16t60.5 -27.5t27.5 -63.5q0 -56 -43 -86t-114 -30q-128 0 -142 98l77 18q10 -57 71 -57q63 0 63 43q0 21 -27.5 32.5t-60.5 16.5t-60.5 27.5t-27.5 63.5q0 54 42.5 81.5
t104.5 27.5z" />
    <glyph glyph-name="t.ordn" horiz-adv-x="283" 
d="M257 359l11 -62q-42 -23 -96 -23q-117 0 -100 114l25 169h-52l9 62h52l15 96l94 14l-17 -110h94l-8 -62h-95l-23 -162q-4 -25 3 -37.5t32 -12.5q30 0 56 14z" />
    <glyph glyph-name="u.ordn" horiz-adv-x="401" 
d="M269 381l34 238h92l-49 -337h-80l4 41q0 1 -1 1q-51 -49 -122 -49q-53 0 -77 31t-16 88l32 225h92l-30 -224q-6 -50 39 -50q38 0 82 36z" />
    <glyph glyph-name="v.ordn" horiz-adv-x="366" 
d="M227 282h-106l-75 337h97l44 -254h2l113 254h98z" />
    <glyph glyph-name="w.ordn" horiz-adv-x="550" 
d="M208 282h-109l-53 337h91l32 -252h1l100 252h92l30 -250h2l99 250h90l-152 -337h-104l-26 233h-2z" />
    <glyph glyph-name="x.ordn" horiz-adv-x="356" 
d="M338 282h-96l-58 110l-87 -110h-92l139 173l-92 164h96l57 -109l85 109h92l-136 -169z" />
    <glyph glyph-name="y.ordn" horiz-adv-x="357" 
d="M125 277l-78 342h96l41 -246h1l111 246h95l-184 -359q-35 -70 -65.5 -96t-83.5 -26q-42 0 -70 14l16 62q27 -10 49 -10q23 0 37 15.5t35 57.5z" />
    <glyph glyph-name="z.ordn" horiz-adv-x="322" 
d="M293 282h-277l9 58l198 215h-165l9 64h266l-9 -60l-194 -210h173z" />
    <glyph glyph-name="zero.denom" horiz-adv-x="408" 
d="M157 -6q-78 0 -111.5 42t-33.5 127q0 39 5 76.5t19.5 78t37 70.5t60.5 49.5t88 19.5q142 0 142 -164q0 -41 -5 -79t-19 -79t-36 -71.5t-60 -50t-87 -19.5zM164 67q26 0 44 18t27.5 54.5t14 69.5t8.5 85q4 89 -47 89q-26 0 -44.5 -17.5t-28 -52.5t-14.5 -70.5t-8 -86.5
q-4 -89 48 -89z" />
    <glyph glyph-name="one.denom" horiz-adv-x="318" 
d="M188 1h-102l50 332q-16 -8 -49.5 -13t-53.5 -5v80q99 9 150 54h70z" />
    <glyph glyph-name="two.denom" horiz-adv-x="369" 
d="M284 0h-301l12 82l118 113q70 66 90.5 92.5t20.5 53.5q0 40 -45 40q-49 0 -70 -65l-88 15q12 63 60.5 94t113.5 31t99 -28t34 -77q0 -50 -27.5 -87.5t-105.5 -103.5l-79 -75v-1h180z" />
    <glyph glyph-name="three.denom" horiz-adv-x="385" 
d="M204 457q62 0 97.5 -25.5t35.5 -72.5q0 -44 -30 -74.5t-74 -42.5v-3q82 -17 82 -96q0 -69 -47 -109t-130 -40q-140 0 -148 115l90 16q4 -58 60 -58q31 0 51.5 19t20.5 55q0 56 -66 56h-46l10 69h31q44 0 69 21t25 56q0 41 -46 41q-51 0 -69 -55l-88 16q35 112 172 112z
" />
    <glyph glyph-name="four.denom" horiz-adv-x="402" 
d="M285 0h-99l16 99h-209l9 68l223 281h126l-40 -271h52l-11 -78h-52zM91 177h122l29 188z" />
    <glyph glyph-name="five.denom" horiz-adv-x="385" 
d="M321 366h-176l-28 -109q45 30 93 30q49 0 79.5 -29.5t30.5 -86.5q0 -82 -51 -129.5t-132 -47.5q-63 0 -103 29t-46 89l90 16q0 -25 15 -41.5t45 -16.5q36 0 58.5 22t22.5 66q0 58 -54 58q-37 0 -71 -29l-62 25l53 237h249z" />
    <glyph glyph-name="six.denom" horiz-adv-x="393" 
d="M364 346l-91 -20q-3 59 -47 59q-40 0 -67 -40.5t-37 -109.5q49 39 106 39q50 0 80.5 -28t30.5 -80q0 -84 -50 -128.5t-124 -44.5q-148 0 -148 171q0 36 5 71.5t20.5 76.5t39 72t64.5 51.5t93 20.5t86.5 -27t38.5 -83zM119 173q-2 -12 -2 -36q0 -72 52 -72q29 0 48 23.5
t19 65.5q0 52 -46 52q-36 0 -71 -33z" />
    <glyph glyph-name="seven.denom" horiz-adv-x="354" 
d="M95 0h-107l231 365h-202l13 83h308l-11 -75z" />
    <glyph glyph-name="eight.denom" horiz-adv-x="380" 
d="M255 243q78 -38 78 -100q0 -63 -52.5 -106t-142.5 -43q-74 0 -114.5 29t-40.5 78q0 88 111 126q-61 39 -61 95q0 64 51 99.5t128 35.5q64 0 101.5 -25.5t37.5 -68.5q0 -69 -96 -120zM149 194q-34 -15 -50.5 -33t-16.5 -45q0 -22 17 -35t48 -13q34 0 55.5 17t21.5 43
t-18.5 39.5t-56.5 26.5zM197 271q62 35 62 79q0 20 -14.5 32t-41.5 12q-30 0 -48 -15.5t-18 -39.5q0 -40 60 -68z" />
    <glyph glyph-name="nine.denom" horiz-adv-x="394" 
d="M-14 104l92 22q6 -58 56 -58q84 0 103 145q-16 -16 -47 -27.5t-63 -11.5q-48 0 -78.5 30t-30.5 84q0 83 50.5 126t124.5 43q147 0 147 -169q0 -130 -51.5 -212t-159.5 -82q-59 0 -98 27.5t-45 82.5zM237 273q3 22 3 40q0 71 -50 71q-31 0 -50 -23.5t-19 -63.5
q0 -56 45 -56q41 0 71 32z" />
    <glyph glyph-name="square" horiz-adv-x="610" 
d="M479 151h-349v349h349v-349z" />
    <glyph glyph-name="square.open" horiz-adv-x="610" 
d="M434 196v259h-259v-259h259zM479 151h-349v349h349v-349z" />
    <glyph glyph-name="circle.open" horiz-adv-x="610" 
d="M305 119q-85 0 -145 60t-60 145t60 145t145 60t145 -60t60 -145t-60 -145t-145 -60zM305 167q63 0 107 47.5t44 112.5q0 64 -43.5 108.5t-107.5 44.5t-107 -45.5t-43 -110.5t43 -111t107 -46z" />
    <glyph glyph-name="doublecircle" horiz-adv-x="610" 
d="M305 269q22 0 37.5 16.5t15.5 39.5t-15.5 38.5t-37.5 15.5t-37.5 -16.5t-15.5 -38.5q0 -23 15.5 -39t37.5 -16zM305 180q-59 0 -101.5 42.5t-42.5 101.5t42.5 101t101.5 42t101 -42t42 -101t-42 -101.5t-101 -42.5zM305 214q44 0 75 33.5t31 78.5t-31 76t-75 31
t-74.5 -32t-30.5 -77q0 -46 30 -78t75 -32z" />
    <glyph glyph-name="triangle.left" horiz-adv-x="425" 
d="M275 203l-185 117l185 114v-231z" />
    <glyph glyph-name="raute" horiz-adv-x="610" 
d="M514 325l-210 -209l-209 210l210 209z" />
    <glyph glyph-name="arrowlong.left" horiz-adv-x="622" 
d="M617 410l-13 -94h-450l62 -156h-101l-86 204l144 202h104l-106 -156h446z" />
    <glyph glyph-name="arrowlong.right" horiz-adv-x="622" 
d="M12 317l13 94h450l-62 155h101l87 -203l-145 -203h-105l105 157h-444z" />
    <glyph glyph-name="arrowlong.up" horiz-adv-x="622" 
d="M304 73h-96l63 450l-168 -85l14 101l220 115l187 -115l-14 -100l-143 84z" />
    <glyph glyph-name="arrowlong.down" horiz-adv-x="622" 
d="M309 654h94l-63 -450l169 84l-14 -100l-219 -115l-188 115l14 101l144 -85z" />
    <glyph glyph-name="arrowlong.leftup" horiz-adv-x="622" 
d="M367 631l71 -70l-171 -52l319 -318l-67 -66l-318 318l-50 -170l-71 71l62 225z" />
    <glyph glyph-name="arrowlong.leftdown" horiz-adv-x="622" 
d="M403 196l-81 -71l-216 62l-31 225l81 71l26 -170l363 318l58 -66l-364 -319z" />
    <glyph glyph-name="arrowlong.rightup" horiz-adv-x="622" 
d="M261 561l81 70l216 -62l31 -225l-81 -71l-26 170l-363 -318l-62 68l364 318z" />
    <glyph glyph-name="arrowlong.rightdown" horiz-adv-x="622" 
d="M319 125l-72 71l171 50l-318 319l66 66l318 -318l50 170l72 -71l-63 -225z" />
    <glyph glyph-name="ornm1" horiz-adv-x="600" 
d="M550 500v-500h-500v500h500z" />
    <glyph glyph-name="ornm2" horiz-adv-x="500" 
d="M211 351l44 143l43 -143l147 32l-102 -108l102 -111l-147 33l-43 -144l-44 144l-148 -33l102 111l-102 108z" />
    <glyph glyph-name="ornm3" horiz-adv-x="500" 
d="M203 352l49 137l48 -137l144 -4l-116 -87l43 -140l-119 83l-120 -83l43 140l-116 87z" />
    <glyph glyph-name="ornm4" horiz-adv-x="500" 
d="M59 348l144 4l48 134v-283l-119 -82l43 140z" />
    <glyph glyph-name="ornm5" horiz-adv-x="500" 
d="M252 489l48 -137l144 -4l-116 -87l43 -140l-119 83v285z" />
    <glyph glyph-name="ornm6" horiz-adv-x="752" 
d="M291 195l298 334l113 -105l-390 -425l-262 204l95 114z" />
    <glyph glyph-name="ornm7" horiz-adv-x="634" 
d="M205 260l-155 144l105 113l155 -143l145 157l113 -105l-144 -158l160 -147l-106 -115l-159 148l-141 -154l-115 106z" />
    <glyph glyph-name="ornm8" horiz-adv-x="844" 
d="M50 377q0 97 65 163t163 66q102 0 166.5 -63t64.5 -164q0 -54 -21 -102l306 -199l-58 -92l-301 219q-62 -54 -157 -54q-101 0 -164.5 62.5t-63.5 163.5zM132 377q0 -66 40.5 -108t105.5 -42t107 42.5t42 109.5t-42 109.5t-107 42.5q-64 0 -105 -43.5t-41 -110.5z" />
    <glyph glyph-name="ornm9" horiz-adv-x="818" 
d="M631 476h-127v115h-317v-285h-137v-243h102v-63h514v63h102v243h-137v170zM152 -111v65h514v-65h-514zM631 499h-102v92l7 5l100 -90z" />
    <glyph glyph-name="ornm10" horiz-adv-x="562" 
d="M148 489q0 60 37.5 97.5t95.5 37.5t96 -37.5t38 -97.5q0 -42 -19.5 -74t-52.5 -48v-4q90 -6 129.5 -47t39.5 -128v-188h-462v188q0 88 39.5 128.5t129.5 46.5v4q-71 35 -71 122z" />
    <glyph glyph-name="ornm11" horiz-adv-x="720" 
d="M122 210h-72v-210h620v210h-73v-142h-475v142zM261 382l-25 237h247l-21 -237h116l-218 -218l-214 218h115z" />
    <glyph glyph-name="ornm12" horiz-adv-x="571" 
d="M50 0v615h113v-299q0 -82 15 -117t57 -35t56 34.5t14 117.5v161h-45v-161q0 -68 -4 -90.5t-21 -22.5q-19 0 -23.5 23t-4.5 90v299h314v-615h-471z" />
    <glyph glyph-name="ornm13" horiz-adv-x="774" 
d="M468 -80h-157v8q0 46 -32.5 79t-79.5 33q-38 0 -66 -22l-82 143q39 18 53.5 60t-0.5 83.5t-54 59.5l83 141q29 -21 66 -21q47 0 79.5 32.5t32.5 78.5v11h158q0 -2 -0.5 -5.5t-0.5 -5.5q0 -47 32 -79t79 -32q36 0 65 21l80 -138q-32 -12 -51.5 -40.5t-19.5 -64.5t19.5 -64
t51.5 -40l-80 -138q-28 20 -65 20q-46 0 -78.5 -32.5t-32.5 -79.5v-8zM239 268q0 -66 41.5 -107.5t105.5 -41.5t106 41.5t42 107.5t-42 107.5t-106 41.5t-105.5 -41.5t-41.5 -107.5z" />
    <glyph glyph-name="ornm14" horiz-adv-x="541" 
d="M491 0h-441v406h54q0 140 34.5 199.5t132.5 59.5q100 0 133 -56.5t33 -202.5h54v-406zM271 598q-57 0 -75.5 -38.5t-18.5 -153.5h188q0 115 -18 153.5t-76 38.5zM246 205l-15 -96h80l-16 96q25 12 25 38q0 23 -13.5 35.5t-35.5 12.5t-35.5 -12.5t-13.5 -35.5
q0 -25 24 -38z" />
    <glyph glyph-name="ornm15" horiz-adv-x="729" 
d="M245 205l-14 -96h79l-15 96q25 12 25 38q0 23 -14 35.5t-36 12.5q-21 0 -34.5 -12.5t-13.5 -35.5q0 -25 23 -38zM679 424h-73q0 102 -18 138t-75 36q-58 0 -76 -38.5t-18 -153.5h72v-406h-441v406h296q0 140 34.5 199.5t132.5 59.5q100 0 133 -54t33 -187z" />
    <glyph glyph-name="ornm16" horiz-adv-x="846" 
d="M50 429l371 -320l375 318v-427h-746v429zM421 176l-350 302h704z" />
    <glyph glyph-name="ornm17" horiz-adv-x="846" 
d="M796 601v-89h-255l30 89h225zM50 478h746v-478h-746v478z" />
    <glyph glyph-name="ornm18" horiz-adv-x="785" 
d="M283 -50l-2 7q104 40 102 136q-56 1 -113 18t-107 49t-81.5 83.5t-31.5 113.5q0 63 32 115t83.5 84t111 49t119.5 17q133 1 236 -75.5t103 -190.5q0 -156 -193 -237q-56 -169 -259 -169z" />
    <glyph glyph-name="ornm19" horiz-adv-x="706" 
d="M50 68q0 37 22.5 58.5t57.5 21.5q36 0 58 -22t22 -58q0 -37 -22 -58.5t-58 -21.5q-35 0 -57.5 22t-22.5 58zM435 0h-107q0 113 -76 186.5t-186 73.5v104q156 0 262.5 -103t106.5 -261zM656 0h-110q0 136 -64 246t-173.5 171t-242.5 61v104q162 0 297 -74t214 -208
t79 -300z" />
    <glyph glyph-name="ornm20" horiz-adv-x="785" 
d="M376 0v183h-101v-183h-103v283h-122l345 355l123 -129v103h101v-208l116 -121h-114v-283h-245z" />
    <glyph glyph-name="eng.sc" horiz-adv-x="598" 
d="M484 0l-9 -60q-24 -163 -179 -163q-31 0 -64 7.5t-45 16.5l22 81q36 -15 73 -15q68 0 79 78l6 47l-183 417l-60 -409h-103l80 556h137l168 -386l55 386h103z" />
    <glyph glyph-name="eth.sc" horiz-adv-x="596" 
d="M215 0h-182l35 246h-58l10 75h59l34 235h192q249 0 249 -225q0 -149 -85.5 -240t-253.5 -91zM159 88h63q107 0 162 61t55 179q0 75 -38.5 108t-117.5 33h-69l-21 -148h140l-11 -75h-140z" />
    <glyph glyph-name="thorn.sc" horiz-adv-x="500" 
d="M150 116l-17 -116h-112l80 556h110l-10 -78h73q101 0 146.5 -41.5t45.5 -108.5q0 -100 -64 -156t-187 -56h-65zM162 204h54q134 0 134 111q0 43 -27.5 60t-76.5 17h-58z" />
    <glyph glyph-name="germandbls.sc" horiz-adv-x="970" 
d="M943 405l-104 -12q-4 92 -88 92q-49 0 -74 -20.5t-25 -52.5q0 -33 23 -48.5t71 -29.5q85 -24 114 -44q56 -38 56 -113q0 -91 -66.5 -138.5t-163.5 -47.5q-202 0 -206 171l105 15q3 -46 24.5 -74t79.5 -28q48 0 80 19.5t32 62.5q0 33 -24.5 49t-76.5 29q-30 8 -47.5 14
t-43 18.5t-39 27.5t-24 39.5t-10.5 56.5q0 80 63 127.5t159 47.5q84 0 135 -38t50 -123zM455 405l-104 -12q-4 92 -88 92q-49 0 -74 -20.5t-25 -52.5q0 -33 23 -48.5t71 -29.5q85 -24 114 -44q56 -38 56 -113q0 -91 -66.5 -138.5t-163.5 -47.5q-202 0 -206 171l105 15
q3 -46 24.5 -74t79.5 -28q48 0 80 19.5t32 62.5q0 33 -24.5 49t-76.5 29q-30 8 -47.5 14t-43 18.5t-39 27.5t-24 39.5t-10.5 56.5q0 80 63 127.5t159 47.5q84 0 135 -38t50 -123z" />
    <glyph glyph-name="kgreenlandic.sc" horiz-adv-x="534" 
d="M213 556l-36 -249l254 249h129l-243 -236l161 -320h-127l-124 241l-68 -63l-26 -178h-112l80 556h112z" />
    <glyph glyph-name="dotlessi.sc" horiz-adv-x="248" 
d="M134 0h-113l80 556h113z" />
    <glyph glyph-name="aacute.sc" horiz-adv-x="558" 
d="M237 556h142l119 -556h-120l-28 141h-194l-66 -141h-120zM338 229l-43 228h-3l-104 -228h150zM238 623l108 163h133l-162 -174z" />
    <glyph glyph-name="abreve.sc" horiz-adv-x="558" 
d="M237 556h142l119 -556h-120l-28 141h-194l-66 -141h-120zM338 229l-43 228h-3l-104 -228h150zM321 684q39 0 61.5 20t33.5 70l78 -6q-9 -78 -55 -117.5t-124 -39.5q-73 0 -109 39t-32 115l81 9q-2 -47 13.5 -68.5t52.5 -21.5z" />
    <glyph glyph-name="acircumflex.sc" horiz-adv-x="558" 
d="M237 556h142l119 -556h-120l-28 141h-194l-66 -141h-120zM338 229l-43 228h-3l-104 -228h150zM477 622l-81 -5l-68 107l-95 -109l-86 7l134 165h111z" />
    <glyph glyph-name="adieresis.sc" horiz-adv-x="558" 
d="M237 556h142l119 -556h-120l-28 141h-194l-66 -141h-120zM338 229l-43 228h-3l-104 -228h150zM142 709q0 35 23.5 56.5t60.5 21.5q30 0 47 -16t17 -43q0 -35 -23.5 -56.5t-59.5 -21.5q-30 0 -47.5 16t-17.5 43zM361 709q0 35 24 56.5t61 21.5q30 0 47 -16t17 -43
q0 -35 -23.5 -56.5t-59.5 -21.5q-30 0 -48 16t-18 43z" />
    <glyph glyph-name="aeacute.sc" horiz-adv-x="804" 
d="M720 0h-370l33 225h-147l-148 -225h-117l367 556h448l-12 -90h-242l-22 -151h227l-13 -88h-227l-20 -137h256zM396 312l23 154h-33l-105 -154h115zM497 618l108 163h133l-162 -174z" />
    <glyph glyph-name="agrave.sc" horiz-adv-x="558" 
d="M237 556h142l119 -556h-120l-28 141h-194l-66 -141h-120zM338 229l-43 228h-3l-104 -228h150zM390 623l-81 -11l-113 174h129z" />
    <glyph glyph-name="amacron.sc" horiz-adv-x="558" 
d="M237 556h142l119 -556h-120l-28 141h-194l-66 -141h-120zM338 229l-43 228h-3l-104 -228h150zM171 657l11 82h299l-11 -82h-299z" />
    <glyph glyph-name="aogonek.sc" horiz-adv-x="558" 
d="M468 -118l53 -27q-21 -43 -57.5 -65t-78.5 -22q-45 0 -71.5 22t-26.5 59q0 31 15 60.5t31.5 47.5t44.5 43l-28 141h-194l-66 -141h-120l267 556h142l119 -556q-63 -41 -89.5 -69t-26.5 -60q0 -31 30 -31q28 0 56 42zM338 229l-43 228h-3l-104 -228h150z" />
    <glyph glyph-name="aring.sc" horiz-adv-x="558" 
d="M429 644q0 -64 -48 -98l117 -546h-120l-28 141h-194l-66 -141h-120l261 544q-30 24 -30 67q0 56 38 89t91 33q43 0 71 -23t28 -66zM338 229l-43 228h-3l-104 -228h150zM307 579q26 0 41.5 15.5t15.5 42.5q0 39 -42 39q-25 0 -41 -15t-16 -42q0 -40 42 -40z" />
    <glyph glyph-name="aringacute.sc" horiz-adv-x="558" 
d="M429 640q0 -65 -48 -97l117 -543h-120l-28 141h-194l-66 -141h-120l260 541q-29 23 -29 66q0 56 38 89t91 33q43 0 71 -23t28 -66zM338 229l-43 228h-3l-104 -228h150zM288 759l111 136h134l-163 -147zM307 575q26 0 41.5 15.5t15.5 42.5q0 39 -42 39q-25 0 -41 -15
t-16 -42q0 -40 42 -40z" />
    <glyph glyph-name="atilde.sc" horiz-adv-x="558" 
d="M237 556h142l119 -556h-120l-28 141h-194l-66 -141h-120zM338 229l-43 228h-3l-104 -228h150zM255 761q34 0 75.5 -22.5t61.5 -22.5q19 0 28 11t14 38l63 -3q-5 -62 -32 -94.5t-73 -32.5q-35 0 -78 23t-63 23q-35 0 -40 -52l-66 3q5 62 35 95.5t75 33.5z" />
    <glyph glyph-name="cacute.sc" horiz-adv-x="562" 
d="M409 186l99 -18q-25 -92 -92 -134.5t-158 -42.5q-116 0 -174.5 62t-58.5 168q0 157 83.5 251t228.5 94q98 0 152.5 -53t49.5 -151l-105 -10q6 125 -105 125q-85 0 -135 -64t-50 -185q0 -148 125 -148q56 0 88 27t52 79zM264 623l108 163h133l-162 -174z" />
    <glyph glyph-name="ccaron.sc" horiz-adv-x="562" 
d="M409 186l99 -18q-25 -92 -92 -134.5t-158 -42.5q-116 0 -174.5 62t-58.5 168q0 157 83.5 251t228.5 94q98 0 152.5 -53t49.5 -151l-105 -10q6 125 -105 125q-85 0 -135 -64t-50 -185q0 -148 125 -148q56 0 88 27t52 79zM198 776l83 6l66 -107l96 108l85 -7l-133 -164
h-111z" />
    <glyph glyph-name="ccedilla.sc" horiz-adv-x="562" 
d="M126 -218l19 58q31 -14 54 -14q25 0 39.5 12.5t14.5 33.5q0 22 -15.5 31t-48.5 10l23 81q-93 12 -140 72t-47 155q0 157 83.5 251t228.5 94q98 0 152.5 -53t49.5 -151l-105 -10q6 125 -105 125q-85 0 -135 -64t-50 -185q0 -148 125 -148q56 0 88 27t52 79l99 -18
q-24 -88 -86 -130.5t-148 -45.5l-10 -37q71 -14 71 -78q0 -54 -36.5 -83.5t-92.5 -29.5q-46 0 -80 18z" />
    <glyph glyph-name="ccircumflex.sc" horiz-adv-x="562" 
d="M409 186l99 -18q-25 -92 -92 -134.5t-158 -42.5q-116 0 -174.5 62t-58.5 168q0 157 83.5 251t228.5 94q98 0 152.5 -53t49.5 -151l-105 -10q6 125 -105 125q-85 0 -135 -64t-50 -185q0 -148 125 -148q56 0 88 27t52 79zM503 622l-81 -5l-68 107l-95 -109l-86 7l134 165
h111z" />
    <glyph glyph-name="cdotaccent.sc" horiz-adv-x="562" 
d="M409 186l99 -18q-25 -92 -92 -134.5t-158 -42.5q-116 0 -174.5 62t-58.5 168q0 157 83.5 251t228.5 94q98 0 152.5 -53t49.5 -151l-105 -10q6 125 -105 125q-85 0 -135 -64t-50 -185q0 -148 125 -148q56 0 88 27t52 79zM277 707q0 40 23 63t63 23q66 0 66 -61
q0 -41 -23 -64t-64 -23q-31 0 -48 16.5t-17 45.5z" />
    <glyph glyph-name="dcaron.sc" horiz-adv-x="584" 
d="M203 0h-182l80 556h192q249 0 249 -225q0 -149 -85.5 -240t-253.5 -91zM147 88h63q107 0 162 61t55 179q0 75 -38.5 108t-117.5 33h-69zM157 776l83 6l66 -107l96 108l85 -7l-133 -164h-111z" />
    <glyph glyph-name="dcroat.sc" horiz-adv-x="596" 
d="M215 0h-182l35 246h-58l10 75h59l34 235h192q249 0 249 -225q0 -149 -85.5 -240t-253.5 -91zM159 88h63q107 0 162 61t55 179q0 75 -38.5 108t-117.5 33h-69l-21 -148h140l-11 -75h-140z" />
    <glyph glyph-name="eacute.sc" horiz-adv-x="470" 
d="M390 0h-369l80 556h355l-12 -90h-243l-21 -145h228l-12 -88h-228l-21 -143h256zM215 623l108 163h133l-162 -174z" />
    <glyph glyph-name="ebreve.sc" horiz-adv-x="470" 
d="M390 0h-369l80 556h355l-12 -90h-243l-21 -145h228l-12 -88h-228l-21 -143h256zM298 684q39 0 61.5 20t33.5 70l78 -6q-9 -78 -55 -117.5t-124 -39.5q-73 0 -109 39t-32 115l81 9q-2 -47 13.5 -68.5t52.5 -21.5z" />
    <glyph glyph-name="ecaron.sc" horiz-adv-x="470" 
d="M390 0h-369l80 556h355l-12 -90h-243l-21 -145h228l-12 -88h-228l-21 -143h256zM149 776l83 6l66 -107l96 108l85 -7l-133 -164h-111z" />
    <glyph glyph-name="ecircumflex.sc" horiz-adv-x="470" 
d="M390 0h-369l80 556h355l-12 -90h-243l-21 -145h228l-12 -88h-228l-21 -143h256zM454 622l-81 -5l-68 107l-95 -109l-86 7l134 165h111z" />
    <glyph glyph-name="edieresis.sc" horiz-adv-x="470" 
d="M390 0h-369l80 556h355l-12 -90h-243l-21 -145h228l-12 -88h-228l-21 -143h256zM119 709q0 35 23.5 56.5t60.5 21.5q30 0 47 -16t17 -43q0 -35 -23.5 -56.5t-59.5 -21.5q-30 0 -47.5 16t-17.5 43zM338 709q0 35 24 56.5t61 21.5q30 0 47 -16t17 -43q0 -35 -23.5 -56.5
t-59.5 -21.5q-30 0 -48 16t-18 43z" />
    <glyph glyph-name="edotaccent.sc" horiz-adv-x="470" 
d="M390 0h-369l80 556h355l-12 -90h-243l-21 -145h228l-12 -88h-228l-21 -143h256zM228 707q0 40 23 63t63 23q66 0 66 -61q0 -41 -23 -64t-64 -23q-31 0 -48 16.5t-17 45.5z" />
    <glyph glyph-name="egrave.sc" horiz-adv-x="470" 
d="M390 0h-369l80 556h355l-12 -90h-243l-21 -145h228l-12 -88h-228l-21 -143h256zM367 623l-81 -11l-113 174h129z" />
    <glyph glyph-name="emacron.sc" horiz-adv-x="470" 
d="M390 0h-369l80 556h355l-12 -90h-243l-21 -145h228l-12 -88h-228l-21 -143h256zM148 657l11 82h299l-11 -82h-299z" />
    <glyph glyph-name="eogonek.sc" horiz-adv-x="470" 
d="M334 -118l53 -27q-21 -43 -57.5 -65t-78.5 -22q-45 0 -71.5 22t-26.5 59q0 78 107 151h-239l80 556h355l-12 -90h-243l-21 -145h228l-12 -88h-228l-21 -143h256l-13 -90h-43q-38 -32 -54 -47t-30.5 -37.5t-14.5 -44.5q0 -31 30 -31q28 0 56 42z" />
    <glyph glyph-name="gbreve.sc" horiz-adv-x="591" 
d="M534 289l-42 -289h-83l-1 70q-22 -36 -68.5 -57.5t-102.5 -21.5q-107 0 -159.5 62.5t-52.5 166.5q0 158 84.5 252t231.5 94q99 0 151.5 -47.5t48.5 -143.5l-106 -10q5 113 -102 113q-91 0 -139.5 -68.5t-48.5 -183.5q0 -150 127 -150q54 0 91 30t44 72l6 37h-120l11 74
h230zM353 684q39 0 61.5 20t33.5 70l78 -6q-9 -78 -55 -117.5t-124 -39.5q-73 0 -109 39t-32 115l81 9q-2 -47 13.5 -68.5t52.5 -21.5z" />
    <glyph glyph-name="gcircumflex.sc" horiz-adv-x="591" 
d="M534 289l-42 -289h-83l-1 70q-22 -36 -68.5 -57.5t-102.5 -21.5q-107 0 -159.5 62.5t-52.5 166.5q0 158 84.5 252t231.5 94q99 0 151.5 -47.5t48.5 -143.5l-106 -10q5 113 -102 113q-91 0 -139.5 -68.5t-48.5 -183.5q0 -150 127 -150q54 0 91 30t44 72l6 37h-120l11 74
h230zM509 622l-81 -5l-68 107l-95 -109l-86 7l134 165h111z" />
    <glyph glyph-name="gdotaccent.sc" horiz-adv-x="591" 
d="M534 289l-42 -289h-83l-1 70q-22 -36 -68.5 -57.5t-102.5 -21.5q-107 0 -159.5 62.5t-52.5 166.5q0 158 84.5 252t231.5 94q99 0 151.5 -47.5t48.5 -143.5l-106 -10q5 113 -102 113q-91 0 -139.5 -68.5t-48.5 -183.5q0 -150 127 -150q54 0 91 30t44 72l6 37h-120l11 74
h230zM283 707q0 40 23 63t63 23q66 0 66 -61q0 -41 -23 -64t-64 -23q-31 0 -48 16.5t-17 45.5z" />
    <glyph glyph-name="gcommaaccent.sc" horiz-adv-x="591" 
d="M534 289l-42 -289h-83l-1 70q-22 -36 -68.5 -57.5t-102.5 -21.5q-107 0 -159.5 62.5t-52.5 166.5q0 158 84.5 252t231.5 94q99 0 151.5 -47.5t48.5 -143.5l-106 -10q5 113 -102 113q-91 0 -139.5 -68.5t-48.5 -183.5q0 -150 127 -150q54 0 91 30t44 72l6 37h-120l11 74
h230zM146 -241l66 173h114l-100 -185z" />
    <glyph glyph-name="hbar.sc" horiz-adv-x="588" 
d="M553 556l-11 -78h59l-11 -73h-59l-58 -405h-113l33 233h-226l-34 -233h-113l58 405h-54l11 73h54l11 78h113l-12 -78h227l12 78h113zM180 328h227l11 77h-227z" />
    <glyph glyph-name="hcircumflex.sc" horiz-adv-x="588" 
d="M553 556l-80 -556h-113l33 233h-226l-34 -233h-113l80 556h113l-33 -228h227l33 228h113zM494 622l-81 -5l-68 107l-95 -109l-86 7l134 165h111z" />
    <glyph glyph-name="iacute.sc" horiz-adv-x="248" 
d="M134 0h-113l80 556h113zM111 623l108 163h133l-162 -174z" />
    <glyph glyph-name="ibreve.sc" horiz-adv-x="248" 
d="M134 0h-113l80 556h113zM171 684q39 0 61.5 20t33.5 70l78 -6q-9 -78 -55 -117.5t-124 -39.5q-73 0 -109 39t-32 115l81 9q-2 -47 13.5 -68.5t52.5 -21.5z" />
    <glyph glyph-name="icircumflex.sc" horiz-adv-x="248" 
d="M134 0h-113l80 556h113zM327 622l-81 -5l-68 107l-95 -109l-86 7l134 165h111z" />
    <glyph glyph-name="idieresis.sc" horiz-adv-x="248" 
d="M134 0h-113l80 556h113zM-8 709q0 35 23.5 56.5t60.5 21.5q30 0 47 -16t17 -43q0 -35 -23.5 -56.5t-59.5 -21.5q-30 0 -47.5 16t-17.5 43zM211 709q0 35 24 56.5t61 21.5q30 0 47 -16t17 -43q0 -35 -23.5 -56.5t-59.5 -21.5q-30 0 -48 16t-18 43z" />
    <glyph glyph-name="idotaccent.sc" horiz-adv-x="248" 
d="M134 0h-113l80 556h113zM101 707q0 40 23 63t63 23q66 0 66 -61q0 -41 -23 -64t-64 -23q-31 0 -48 16.5t-17 45.5z" />
    <glyph glyph-name="igrave.sc" horiz-adv-x="248" 
d="M134 0h-113l80 556h113zM221 623l-81 -11l-113 174h129z" />
    <glyph glyph-name="imacron.sc" horiz-adv-x="248" 
d="M134 0h-113l80 556h113zM21 657l11 82h299l-11 -82h-299z" />
    <glyph glyph-name="iogonek.sc" horiz-adv-x="248" 
d="M108 -118l53 -27q-21 -43 -57.5 -65t-78.5 -22q-45 0 -71.5 22t-26.5 59q0 78 94 151l80 556h113l-80 -556q-60 -42 -86 -69.5t-26 -59.5q0 -31 30 -31q28 0 56 42z" />
    <glyph glyph-name="itilde.sc" horiz-adv-x="248" 
d="M134 0h-113l80 556h113zM105 761q34 0 75.5 -22.5t61.5 -22.5q19 0 28 11t14 38l63 -3q-5 -62 -32 -94.5t-73 -32.5q-35 0 -78 23t-63 23q-35 0 -40 -52l-66 3q5 62 35 95.5t75 33.5z" />
    <glyph glyph-name="jcircumflex.sc" horiz-adv-x="437" 
d="M237 150l58 406h113l-58 -405q-23 -160 -186 -160q-162 0 -169 154l110 17q4 -41 16 -62.5t47 -21.5q30 0 46.5 16t22.5 56zM520 622l-81 -5l-68 107l-95 -109l-86 7l134 165h111z" />
    <glyph glyph-name="kcommaaccent.sc" horiz-adv-x="534" 
d="M213 556l-36 -249l254 249h129l-243 -236l161 -320h-127l-124 241l-68 -63l-26 -178h-112l80 556h112zM110 -241l66 173h114l-100 -185z" />
    <glyph glyph-name="lacute.sc" horiz-adv-x="456" 
d="M379 0h-358l80 556h113l-67 -461h246zM103 623l108 163h133l-162 -174z" />
    <glyph glyph-name="lcaron.sc" horiz-adv-x="456" 
d="M379 0h-358l80 556h113l-67 -461h246zM249 364l60 192h112l-91 -200z" />
    <glyph glyph-name="lcommaaccent.sc" horiz-adv-x="456" 
d="M379 0h-358l80 556h113l-67 -461h246zM86 -241l66 173h114l-100 -185z" />
    <glyph glyph-name="ldot.sc" horiz-adv-x="456" 
d="M379 0h-358l80 556h113l-67 -461h246zM261 314q0 37 21.5 58.5t58.5 21.5q62 0 62 -57q0 -38 -21.5 -59.5t-59.5 -21.5q-61 0 -61 58z" />
    <glyph glyph-name="lslash.sc" horiz-adv-x="456" 
d="M-15 195l13 89l68 28l35 244h113l-30 -205l143 60l-13 -90l-143 -60l-24 -166h246l-14 -95h-358l32 223z" />
    <glyph glyph-name="nacute.sc" horiz-adv-x="598" 
d="M484 0h-131l-169 409l-60 -409h-103l80 556h137l165 -408l58 408h103zM273 623l108 163h133l-162 -174z" />
    <glyph glyph-name="napostrophe.sc" horiz-adv-x="691" 
d="M577 0h-131l-169 409l-60 -409h-103l80 556h137l165 -408l58 408h103zM-4 390l63 167h111l-97 -179z" />
    <glyph glyph-name="ncaron.sc" horiz-adv-x="598" 
d="M484 0h-131l-169 409l-60 -409h-103l80 556h137l165 -408l58 408h103zM196 776l83 6l66 -107l96 108l85 -7l-133 -164h-111z" />
    <glyph glyph-name="ncommaaccent.sc" horiz-adv-x="598" 
d="M484 0h-131l-169 409l-60 -409h-103l80 556h137l165 -408l58 408h103zM137 -241l66 173h114l-100 -185z" />
    <glyph glyph-name="ntilde.sc" horiz-adv-x="598" 
d="M484 0h-131l-169 409l-60 -409h-103l80 556h137l165 -408l58 408h103zM279 761q34 0 75.5 -22.5t61.5 -22.5q19 0 28 11t14 38l63 -3q-5 -62 -32 -94.5t-73 -32.5q-35 0 -78 23t-63 23q-35 0 -40 -52l-66 3q5 62 35 95.5t75 33.5z" />
    <glyph glyph-name="oacute.sc" horiz-adv-x="610" 
d="M258 -9q-119 0 -176 64.5t-57 173.5q0 146 82.5 241.5t233.5 95.5q119 0 174 -63.5t55 -168.5q0 -150 -82 -246.5t-230 -96.5zM271 81q88 0 135 72.5t47 175.5q0 69 -30.5 108t-93.5 39q-90 0 -138.5 -71t-48.5 -176q0 -69 31.5 -108.5t97.5 -39.5zM270 623l108 163h133
l-162 -174z" />
    <glyph glyph-name="obreve.sc" horiz-adv-x="610" 
d="M258 -9q-119 0 -176 64.5t-57 173.5q0 146 82.5 241.5t233.5 95.5q119 0 174 -63.5t55 -168.5q0 -150 -82 -246.5t-230 -96.5zM271 81q88 0 135 72.5t47 175.5q0 69 -30.5 108t-93.5 39q-90 0 -138.5 -71t-48.5 -176q0 -69 31.5 -108.5t97.5 -39.5zM353 684q39 0 61.5 20
t33.5 70l78 -6q-9 -78 -55 -117.5t-124 -39.5q-73 0 -109 39t-32 115l81 9q-2 -47 13.5 -68.5t52.5 -21.5z" />
    <glyph glyph-name="ocircumflex.sc" horiz-adv-x="610" 
d="M258 -9q-119 0 -176 64.5t-57 173.5q0 146 82.5 241.5t233.5 95.5q119 0 174 -63.5t55 -168.5q0 -150 -82 -246.5t-230 -96.5zM271 81q88 0 135 72.5t47 175.5q0 69 -30.5 108t-93.5 39q-90 0 -138.5 -71t-48.5 -176q0 -69 31.5 -108.5t97.5 -39.5zM509 622l-81 -5
l-68 107l-95 -109l-86 7l134 165h111z" />
    <glyph glyph-name="odieresis.sc" horiz-adv-x="610" 
d="M258 -9q-119 0 -176 64.5t-57 173.5q0 146 82.5 241.5t233.5 95.5q119 0 174 -63.5t55 -168.5q0 -150 -82 -246.5t-230 -96.5zM271 81q88 0 135 72.5t47 175.5q0 69 -30.5 108t-93.5 39q-90 0 -138.5 -71t-48.5 -176q0 -69 31.5 -108.5t97.5 -39.5zM174 709
q0 35 23.5 56.5t60.5 21.5q30 0 47 -16t17 -43q0 -35 -23.5 -56.5t-59.5 -21.5q-30 0 -47.5 16t-17.5 43zM393 709q0 35 24 56.5t61 21.5q30 0 47 -16t17 -43q0 -35 -23.5 -56.5t-59.5 -21.5q-30 0 -48 16t-18 43z" />
    <glyph glyph-name="ograve.sc" horiz-adv-x="610" 
d="M258 -9q-119 0 -176 64.5t-57 173.5q0 146 82.5 241.5t233.5 95.5q119 0 174 -63.5t55 -168.5q0 -150 -82 -246.5t-230 -96.5zM271 81q88 0 135 72.5t47 175.5q0 69 -30.5 108t-93.5 39q-90 0 -138.5 -71t-48.5 -176q0 -69 31.5 -108.5t97.5 -39.5zM422 623l-81 -11
l-113 174h129z" />
    <glyph glyph-name="ohungarumlaut.sc" horiz-adv-x="610" 
d="M258 -9q-119 0 -176 64.5t-57 173.5q0 146 82.5 241.5t233.5 95.5q119 0 174 -63.5t55 -168.5q0 -150 -82 -246.5t-230 -96.5zM271 81q88 0 135 72.5t47 175.5q0 69 -30.5 108t-93.5 39q-90 0 -138.5 -71t-48.5 -176q0 -69 31.5 -108.5t97.5 -39.5zM225 625l84 160h126
l-135 -173zM364 623l117 165h130l-169 -176z" />
    <glyph glyph-name="omacron.sc" horiz-adv-x="610" 
d="M258 -9q-119 0 -176 64.5t-57 173.5q0 146 82.5 241.5t233.5 95.5q119 0 174 -63.5t55 -168.5q0 -150 -82 -246.5t-230 -96.5zM271 81q88 0 135 72.5t47 175.5q0 69 -30.5 108t-93.5 39q-90 0 -138.5 -71t-48.5 -176q0 -69 31.5 -108.5t97.5 -39.5zM203 657l11 82h299
l-11 -82h-299z" />
    <glyph glyph-name="oslash.sc" horiz-adv-x="610" 
d="M258 -9q-5 0 -15 0.5t-14 0.5l-24 -61h-95l33 81q-118 53 -118 217q0 146 82.5 241.5t233.5 95.5q5 0 13.5 -0.5t12.5 -0.5l23 55h95l-31 -75q116 -52 116 -211q0 -150 -82 -246.5t-230 -96.5zM142 229q0 -82 41 -119l148 366h-2q-90 0 -138.5 -71t-48.5 -176zM271 81
q88 0 135 72.5t47 175.5q0 79 -39 117l-149 -365h6z" />
    <glyph glyph-name="oslashacute.sc" horiz-adv-x="610" 
d="M258 -9q-5 0 -15 0.5t-14 0.5l-24 -61h-95l33 81q-118 53 -118 217q0 146 82.5 241.5t233.5 95.5q5 0 13.5 -0.5t12.5 -0.5l23 55h95l-31 -75q116 -52 116 -211q0 -150 -82 -246.5t-230 -96.5zM142 229q0 -82 41 -119l148 366h-2q-90 0 -138.5 -71t-48.5 -176zM271 81
q88 0 135 72.5t47 175.5q0 79 -39 117l-149 -365h6zM270 623l108 163h133l-162 -174z" />
    <glyph glyph-name="otilde.sc" horiz-adv-x="610" 
d="M258 -9q-119 0 -176 64.5t-57 173.5q0 146 82.5 241.5t233.5 95.5q119 0 174 -63.5t55 -168.5q0 -150 -82 -246.5t-230 -96.5zM271 81q88 0 135 72.5t47 175.5q0 69 -30.5 108t-93.5 39q-90 0 -138.5 -71t-48.5 -176q0 -69 31.5 -108.5t97.5 -39.5zM287 761
q34 0 75.5 -22.5t61.5 -22.5q19 0 28 11t14 38l63 -3q-5 -62 -32 -94.5t-73 -32.5q-35 0 -78 23t-63 23q-35 0 -40 -52l-66 3q5 62 35 95.5t75 33.5z" />
    <glyph glyph-name="racute.sc" horiz-adv-x="525" 
d="M360 245l95 -245h-122l-82 218h-86l-32 -218h-112l80 556h212q90 0 131 -38.5t41 -98.5q0 -125 -125 -174zM176 301h63q128 0 128 105q0 63 -94 63h-72zM209 623l108 163h133l-162 -174z" />
    <glyph glyph-name="rcaron.sc" horiz-adv-x="525" 
d="M360 245l95 -245h-122l-82 218h-86l-32 -218h-112l80 556h212q90 0 131 -38.5t41 -98.5q0 -125 -125 -174zM176 301h63q128 0 128 105q0 63 -94 63h-72zM143 776l83 6l66 -107l96 108l85 -7l-133 -164h-111z" />
    <glyph glyph-name="rcommaaccent.sc" horiz-adv-x="525" 
d="M360 245l95 -245h-122l-82 218h-86l-32 -218h-112l80 556h212q90 0 131 -38.5t41 -98.5q0 -125 -125 -174zM176 301h63q128 0 128 105q0 63 -94 63h-72zM102 -241l66 173h114l-100 -185z" />
    </font>
</defs>
</svg>
