<?xml version="1.0" standalone="no"?>
<!DOCTYPE svg PUBLIC "-//W3C//DTD SVG 1.1//EN" "http://www.w3.org/Graphics/SVG/1.1/DTD/svg11.dtd" >
<svg xmlns="http://www.w3.org/2000/svg">
<metadata></metadata>
<defs>
<font id="naive_line_sansextra_black" horiz-adv-x="1394" >
<font-face units-per-em="2048" ascent="1540" descent="-508" />
<missing-glyph horiz-adv-x="901" />
<glyph horiz-adv-x="0" />
<glyph horiz-adv-x="0" />
<glyph horiz-adv-x="682" />
<glyph unicode="&#xd;" horiz-adv-x="942" />
<glyph unicode=" "  horiz-adv-x="901" />
<glyph unicode="&#x09;" horiz-adv-x="901" />
<glyph unicode="&#xa0;" horiz-adv-x="901" />
<glyph unicode="!" horiz-adv-x="368" d="M158 109q0 39 24.5 72.5t61.5 45.5q24 6 39 6q40 0 71 -29.5t37 -66.5q7 -38 -25.5 -80.5t-62.5 -58.5q-43 -16 -76 -4.5t-49 43.5l2 -2q-22 31 -22 74zM168 1311v147q-3 33 13 54t50 22q34 3 68 0q31 1 47.5 -20t18.5 -54q6 -120 2 -145q-2 -10 -2 -45v-135l2 -37 q6 -42 0 -99q-4 -41 0 -127l6 -137q0 -41 -2 -57q0 -39 -2 -45q0 -9 1 -32t1 -32v-88q-1 -29 -3 -41.5t-10.5 -26.5t-28 -19t-53.5 -5q-26 0 -36 0.5t-27 3.5t-23.5 10.5t-12 21.5t-5.5 36q0 106 2 153q4 132 4 203q0 47 -4 105v16q3 37 0 68q0 1 -0.5 5.5t-1 14.5t-0.5 25 v77q-4 86 -4 183z" />
<glyph unicode="&#x22;" horiz-adv-x="659" d="M-4 1440q-8 22 11.5 48.5t47.5 39.5q99 42 119 -12l70 -132q12 -36 32 -73q2 -5 52 -113q13 -26 18 -39q18 -26 21 -49q5 -27 -13 -54.5t-45 -42t-56 -18.5t-46 17q-13 18 -21 26q-4 5 -20 37l-8 17l-62 133q-6 22 -19 49.5t-22 36.5q-2 6 -8 18.5t-8 18.5l-19 36 q-1 7 -16 37zM287 1440q-8 22 11.5 48.5t47.5 39.5q99 42 119 -12l70 -132q12 -36 32 -73q4 -12 51 -113q17 -35 19 -39q17 -24 20 -49q5 -27 -12.5 -54.5t-45 -42t-56 -18.5t-45.5 17q-13 18 -21 26q-4 5 -20 37l-8 17l-62 133q-6 22 -19 49.5t-22 36.5q-2 6 -8 18.5 t-8 18.5l-19 36q-1 7 -16 37z" />
<glyph unicode="#" horiz-adv-x="1259" d="M-29 557q0 36 5 56t16 27.5t28 8.5t41 0h11l57 6q1 0 3 -1t3 -1h37l41 2v2q5 9 8 23l8 22l33 93l12 43l7 20h-29l-8 2q-72 1 -102.5 14t-34.5 41.5t2 75.5q9 46 23 58t63 12h43q37 2 106 2q2 5 8 17t8 20l11 39q30 89 47 155l18 62l45 108q9 31 35 48.5t64 17.5 q52 0 81 -16t23 -46l-63 -225l-21 -57q-4 -4 -4 -12l-12 -39l-9 -29l-8 -27q0 -1 -1 -4.5t-1 -5.5l-2 -6h31q1 0 4.5 1t5.5 1h74q2 0 7.5 1t8.5 1q50 0 70 4q4 15 14.5 45t14.5 47q30 78 32 84q0 15 9 33l-3 -2l7 22l24 66l35 104q15 37 37.5 49.5t66.5 10.5q20 -1 33 -3 t31.5 -8t26 -19.5t2.5 -33.5q0 -1 -10.5 -39t-30 -110t-39.5 -148q-24 -78 -37 -108q17 0 48 -1t48 -1q39 -2 52 -16.5t14 -65.5q2 -67 -13 -90t-67 -27l-148 -4l-6 -16l-26 -86l-5 -25q-4 -16 -4 -29l-14 -45q2 0 6 -1t6 -1h23l76 -2q24 0 32.5 -1t19 -8.5t14.5 -23.5 t7 -47q0 -68 -16.5 -92t-60.5 -22q-77 0 -172 -6q-27 -93 -64 -189q-6 -24 -8 -29q-4 -8 -4 -12q0 -11 -8 -24v2l-39 -138q-6 -20 -14.5 -32t-21 -17t-22.5 -6.5t-26 -1.5l-78 4q-34 4 -39.5 30t6.5 68l64 189q2 14 8 40t8 38l14 57l8 27h-36q-7 0 -24 1t-26 1l-118 -6v-7 l-4 -20q-1 -2 -2 -5t-2 -5t-1 -4q-4 -21 -20 -54l-45 -143l-14 -39l-7 -20q-4 -16 -4 -25l-26 -70q-13 -27 -28 -39t-29.5 -12h-30.5h-21q-12 0 -22 6l2 -2q-12 4 -15 4q-16 2 -25.5 4.5t-22 11.5t-12.5 23.5t3 40.5l16 49q2 16 15 50l10 28l20 68l46 129q1 4 4 13t4 16h-99 q-51 0 -70.5 18.5t-19.5 87.5zM434 659q1 0 4.5 1.5t5.5 1.5h191l6 36q1 3 4.5 13t8 21t8.5 20q3 7 9 26t9 27q1 3 4.5 21.5t7.5 29.5h-149q-2 0 -4.5 1t-3.5 1h-41l-7 -22l-41 -142l-8 -26z" />
<glyph unicode="$" horiz-adv-x="1171" d="M96.5 279q1.5 28 34.5 65q35 40 61 46t54 -17l45 -33l28 -27l33 -26q5 -4 19.5 -15t21.5 -18l29 -16l14 -5l10 -6q-6 421 -4 439v67l-26 17q-49 20 -62 30q-156 83 -211 203q-24 50 -32 107q-4 71 10 130t31 87q25 44 89 103t130 97q52 21 71 25v14l4 31q0 51 15.5 73 t73.5 23l12 -2q44 0 62 -14.5t20 -50.5l2 -68q66 -11 141 -59l19 -13q87 -90 112 -127q37 -51 37 -77q0 -18 -20 -58l-15 -16q-51 -64 -102 -23l-17 15l-20 26l-29 33q-22 20 -47 47q-34 25 -51 31l-10 2v-80q4 -32 4 -78q2 -41 2 -117v-170q24 -15 76 -44t75 -44l37 -28 q44 -37 79 -92t50 -109q19 -77 21 -133q9 -180 -86 -281q-41 -41 -69 -64.5t-77.5 -48.5t-107.5 -36q0 -6 1 -23t1 -30q-1 -58 -16 -71t-80 -13q-58 0 -74 19.5t-16 90.5v35q-75 18 -103 39q-13 4 -28.5 13t-35.5 23t-28 19q-4 0 -10 6l-82 72l-43 49q-24 28 -22.5 56z M319 1159q-7 -17 4.5 -52.5t28.5 -59.5q26 -24 97 -72l2 61v54l-2 59q0 41 -3 88q-2 10 -2 66l-16 -9q-36 -24 -69 -63t-40 -72zM635 614q4 -70 4 -223q0 -1 -1 -62.5t-1 -99.5l20 4q45 22 56 35q46 41 53 92v74q-3 35 -13 59t-40 64q-14 21 -49 39z" />
<glyph unicode="%" horiz-adv-x="1228" d="M128 104q-1 31 19 58l74 125l146 250q1 3 7.5 12.5t8.5 15.5q9 18 27 45l24 43l21 33l18 39l14 25l43 88l119 206l23 31l20 45q10 16 19 32t16.5 30t9.5 18l62 111l26 47l21 41l10 22l49 76q25 49 76 23q17 -8 39 -25l16 -8q28 -24 32.5 -43.5t-7.5 -46.5 q-9 -25 -27 -60.5t-32 -58.5l-13 -23l-6 -12l-8 -12l-29 -53l-43 -70l-37 -74l-12 -33l-8 -16l-49 -94l-54 -88q-3 -6 -18.5 -31.5t-22.5 -40.5l-81 -139l-80 -160l-35 -57l-23 -33l-86 -145l-20 -37q-1 -3 -5 -9.5t-5 -9.5l-7 -8q-2 -3 -13.5 -22.5t-16.5 -30.5l-31 -53 q-9 -21 -33.5 -23t-44.5 12l-12 7l-53 36q-27 14 -28 45zM156 1327q0 60 23.5 108.5t62.5 75.5q52 31 145 31q130 0 180 -112q15 -38 15 -89q0 -39 -9 -57q-36 -75 -69.5 -111t-87.5 -49q-58 -3 -116.5 19.5t-100.5 71.5t-43 112zM303 1337q0 -20 6 -32q10 -18 29 -25t39 -2 l24 6q33 30 33 64q0 23 -41 53q-1 0 -6 1t-8 1q-23 0 -31 -4q-45 -15 -45 -56v-6zM643 195q0 61 23 109t63 75q52 31 145 31q131 0 181 -111q14 -35 14 -88q0 -43 -8 -59q-36 -74 -70 -109.5t-88 -48.5q-58 -3 -116.5 19.5t-100.5 71t-43 110.5zM791 205q0 -21 6 -33 q31 -27 53 -27l39 7q33 30 33 65q0 12 -11 28.5t-30 24.5q-1 0 -6 1t-9 1q-22 0 -30 -4q-45 -15 -45 -55v-8z" />
<glyph unicode="&#x26;" horiz-adv-x="1435" d="M80 440q0 48 4 58q36 176 166 309l94 80l18 10l-2 -2l23 18q-1 2 -14 15q-2 3 -18.5 22t-28.5 35t-21 33h2q-2 2 -18 26q-13 16 -15 25q-28 45 -28 145q0 73 30 132t101 124q12 11 27 21t24 14l8 4q22 12 35.5 18.5t41 11.5t64.5 5q46 -1 86 -15.5t60 -31.5 q32 -26 62.5 -72.5t47.5 -97.5q5 -12 10 -35.5t7 -41.5l2 -17q3 -96 -28 -157t-103 -138l-47 -49q20 -27 37 -45l22 -33l76 -96l96 -119l27 -33q32 -48 43 -61q14 28 14 30v3v1.5t2 4t2 4.5q6 18 12 24q12 30 29 105q0 3 2 10t2 10q0 7 4 27v-2q4 28 4 35q9 37 11 43 q3 43 22.5 57.5t69.5 11.5q66 -6 81 -22t13 -68q0 -31 -11 -110t-20 -113q-1 -5 -5 -15.5t-5 -15.5l-6 -20q-18 -65 -37 -111l-18 -22q-6 -6 -17 -25l29 -39l4 -6v2q8 -16 14 -20l52 -68l34 -47q49 -59 72 -98q11 -18 12.5 -31.5t-3.5 -21t-18 -12t-28 -6t-37 -1.5l-53 2 q-29 0 -43 6t-33 23l-8 6q-64 58 -74 80l2 -2l-18 20l-49 53q-63 -63 -86 -71h2l-33 -21l-12 -6h2l-66 -37l-28 -12q-30 -16 -79 -28t-83 -17l-33 -4q-47 0 -65.5 0.5t-48 5.5t-56.5 16q-100 35 -168 101q-26 23 -38 35t-35 47t-42 81q-12 31 -19 84t-7 82zM293 465 q0 -77 18 -109v-4q-1 0 10.5 -17.5t18.5 -25.5q55 -66 184 -108q18 -6 31 -6q58 0 139 43.5t148 99.5l-115 141l-14 25h2l-23 28l-30 37q-5 9 -55.5 67.5t-57.5 65.5l-10 17q-1 1 -3 2l-4 2t-2 2l-34 39l-15 -14l-24 -19l-21 -16l-76 -80q1 0 -3 -6.5t-9 -13.5l-4 -7 l-14 -20q0 -1 -2 -5t-2 -5q-33 -73 -33 -113zM451 1231q-7 -58 24 -98l10 -19h-2l19 -22l28 -35q8 -8 9 -8q117 86 106 178q-2 46 -21 81t-49 35q-38 0 -63 -12q-23 -10 -40.5 -39t-20.5 -61z" />
<glyph unicode="'" horiz-adv-x="432" d="M57 1110q3 23 21 49q5 13 18 39q47 101 51 113l33 73l70 132q20 54 119 12q28 -13 47.5 -39.5t11.5 -48.5l-8 -19q-2 -3 -6.5 -11t-7 -14t-3.5 -12l-18 -36q-2 -6 -8 -18.5t-8 -18.5q-9 -9 -22 -36.5t-19 -49.5l-62 -133l-8 -17q-16 -32 -20 -37q-8 -8 -21 -26 q-17 -21 -46 -17t-56 18.5t-45 42t-13 54.5z" />
<glyph unicode="(" horiz-adv-x="561" d="M16 555v55v35v148q0 29 8 102.5t13 99.5l6 25l18 51l7 12l14 47l45 117l102 201l25 47l25 45q17 35 55 78l28 31q39 39 117 -15q30 -22 39 -41.5t-4 -52.5q-28 -58 -39 -86l-29 -45q-8 -17 -27.5 -50.5t-21.5 -37.5q-3 -5 -20 -30.5t-25 -41.5l-12 -26q-5 -19 -14 -33 l-64 -166q-45 -162 -45 -268q0 -124 12 -197l13 -82l6 -28l10 -46l10 -47l11 -51q4 -19 13.5 -43.5t17.5 -39.5l7 -15q31 -88 181 -307q24 -35 21 -57.5t-34 -63.5q-11 -14 -30.5 -25t-40.5 -14t-35 12l-31 37q-29 27 -73 85t-78 124l-56 119l-32 63l-21 64q-6 12 -6 20 l-21 72l-28 108z" />
<glyph unicode=")" horiz-adv-x="573" d="M11 -157.5q-3 23.5 20 57.5q145 202 182 307q29 55 37 98q1 8 5 25.5t5 25.5l10 47l13 46l6 28l12 82q12 73 12 197q0 51 -14.5 131.5t-32.5 136.5l-61 166l-15 33q-1 3 -5.5 13t-6.5 13q-8 16 -25 41.5t-20 30.5q-2 4 -21.5 37.5t-27.5 50.5l-29 45l-41 86q-22 53 37 94 q78 54 117 15l31 -33q32 -36 51 -76l24 -45l27 -47l102 -201l46 -117l14 -47l6 -12l18 -51l5 -25q5 -25 12.5 -99t7.5 -103l2 -148v-35l-2 -55l-16 -111l-27 -108l-20 -72q0 -5 -1 -9t-3 -7.5t-3 -5.5l-20 -62l-33 -63l-55 -119q-34 -66 -78 -123.5t-74 -85.5l-30 -37 q-23 -19 -56 -7.5t-51 34.5q-31 40 -34 63.5z" />
<glyph unicode="*" horiz-adv-x="1011" d="M95.5 1281q-5.5 31 15.5 62q33 72 94 52q1 0 8.5 -4t21 -11t23.5 -12l35 -18l10 -9q1 0 13.5 -6t13.5 -6l22 -14l41 -35q-2 32 -6 73t-7 67.5t-3 27.5q0 58 21 78t81 18q42 2 61 -15.5t19 -64.5v-39l2 -20v-6q1 -6 -1.5 -24t-2.5 -19l-2 -68q12 9 30.5 26.5t30.5 30.5 l13 13q6 4 21 13.5t24 15.5t24.5 14t30.5 14q51 0 88 -72q11 -46 8 -59.5t-24 -32.5l-8 -8q-14 -4 -41 -31l-52 -36l-57 -25l64 -29q25 -12 55 -35q46 -32 53 -34q30 -22 36 -45.5t-11 -59.5q-21 -43 -44 -57.5t-55 -1.5q-21 9 -30 16l-35 19l-35 20l-78 72q6 -24 6 -41 q0 -3 1 -10.5t1 -10.5l2 -63l2 -55q0 -30 -4 -47t-18 -25.5t-23 -10.5t-36 -5q-2 0 -5.5 -1.5t-5.5 -1.5q-49 -3 -72 17t-26 63q-1 18 4.5 93.5t5.5 87.5l-65 -52l-58 -41l-65 -34q-29 -12 -53 3.5t-39 53.5q-18 45 -15 61q1 9 6 19q12 21 31 31l21 12l22 14l64 43l71 23 q-5 3 -29.5 9t-29.5 9l-49 25q-1 0 -9 3t-10 5l-49 29q-38 31 -43.5 62z" />
<glyph unicode="+" horiz-adv-x="993" d="M72 623v8q0 32 5.5 52t16.5 29.5t21.5 12.5t27.5 4q61 4 207 4l12 -2v19l-2 208q3 68 22.5 89t74.5 18q62 -3 80 -20.5t18 -55.5v-8l2 -121q0 -5 4 -55v-33q2 -10 2 -41h53q4 0 15 -1t16 -1h68h12q42 0 58.5 -1t35 -9t25 -25t10.5 -49q0 -71 -18.5 -86.5t-94.5 -15.5h-14 q-16 -2 -106 -2q-46 0 -64 2q0 -100 -2 -123q0 -2 1 -7t1 -7l2 -23v-39q0 -53 -20.5 -78.5t-83.5 -25.5q-60 0 -77.5 23t-17.5 73l-4 205h-88l-151 6q-21 2 -32 14.5t-13 25.5t-2 36z" />
<glyph unicode="," horiz-adv-x="425" d="M-63 -197q3 26 20 50l6 18q3 7 7 13t5 7l9 17l16 39l6 10l14 27q2 6 8.5 18t8.5 18q7 15 19 42.5t20 45.5t10 23q9 16 17 34.5t12 28.5l4 11l69 131q20 54 119 12q29 -13 48.5 -39.5t11.5 -48.5l-9 -18q-15 -30 -16 -37l-18 -37q-2 -6 -8.5 -18.5t-8.5 -18.5 q-9 -9 -22 -36.5t-19 -49.5q-21 -63 -71 -160l-9 -18l-12 -27q-15 -23 -29 -55l-6 -16q-13 -27 -22 -37q-6 -6 -21 -27q-17 -21 -45.5 -17t-56 18.5t-45 42t-12.5 54.5z" />
<glyph unicode="-" horiz-adv-x="1038" d="M53 655q5 28 18 45.5t33.5 24t36 8.5t39.5 2h23q23 -3 114 2q25 2 82 2l62 -2l303 -6q54 0 86 -19t31 -77q-4 -67 -28 -82.5t-101 -15.5q-107 4 -207 4q-117 0 -168 -4q-20 -2 -72 -2l-100 4q-74 -1 -106.5 9t-41 32.5t-4.5 74.5z" />
<glyph unicode="." horiz-adv-x="382" d="M84 43q-24 44 6 108t82 85q10 2 14 4q8 2 17 2q37 0 67 -34t35 -71q7 -41 -29 -86.5t-67 -58.5q-85 -21 -125 51z" />
<glyph unicode="/" horiz-adv-x="798" d="M4 72l47 145l92 272l11 33l14 49q2 7 7.5 22t8.5 25q0 1 2 5t2 6q0 10 11 28l12 41l8 27l25 96l71 226q2 8 15 34l12 52q22 56 29 86l37 118l16 54l12 43q0 4 2 11t2 11l25 68q6 12 6 16q3 15 27 29.5t45 7.5l45 -14l8 -4q3 -3 8 -3q30 -14 37 -29.5t4 -49.5 q-3 -26 -11 -60t-15 -55l-7 -21l-8 -22q0 -8 -2 -10q-4 -8 -4 -13l-20 -57l-29 -80l-21 -82l-6 -33q0 -3 -1 -9t-1 -9l-28 -102l-33 -95q-18 -49 -27 -79l-53 -154l-6 -27l-39 -147l-23 -62l-14 -34l-53 -164l-13 -39l-6 -19q-4 -4 -4 -8t-4 -12q-5 -10 -12 -41l-25 -68 q-28 -44 -71 -26l-17 6q-13 0 -22 6q-30 10 -53.5 45t-12.5 66z" />
<glyph unicode="0" horiz-adv-x="1093" d="M72 737v68q0 46 4 78l4 20l2 21q6 99 16 147q3 15 18.5 67.5t20.5 71.5q0 2 1 7.5t1 7.5q5 16 33 71l8 13l27 51l14 24l21 25l6 6q51 55 96 80l53 31q31 14 109 18q59 4 110 -12q27 -12 56.5 -28.5t45.5 -27.5l15 -10q39 -31 62 -69q20 -20 37 -52t22 -53l4 -16l12 -31 q31 -90 52 -170l4 -20l2 -13q1 -12 5 -33.5t5 -33.5l2 -25q10 -68 10 -125v-61q0 -55 -4 -88q-2 -128 -8 -189q0 -22 -2 -26q-7 -47 -18 -86l-7 -17l-22 -63q-3 -24 -33 -86l-41 -66q-28 -28 -51 -55q-10 -10 -39.5 -29t-48.5 -28q-97 -43 -170 -43q-68 0 -105 12 q-24 6 -28 12l-41 25q-57 26 -94 69l-41 58l-17 35l-18 32l-8 23l-11 31l-22 86q-4 6 -4 12l-17 66q0 1 -1 6t-1 10q0 1 -1 4.5t-1 5.5l-4 19l-6 43l-2 57q-12 70 -12 143zM279 811q0 -53 2 -76v-45q0 -18 14 -160q5 -31 16 -63l8 -21q13 -64 29 -96l12 -35l15 -26 q8 -20 20 -45l13 -15q10 -10 12 -10q41 -18 67 -22q1 0 5.5 -1t5.5 -1h12q13 -4 29 0l10 4q4 2 13.5 5t20.5 8t25 13q6 4 23 21q14 10 33 43q11 19 32 76l13 41q0 6 4 10q42 187 37 266l-2 203q0 13 -5 26l-12 78q-4 12 -4 33l-6 22q-1 2 -3 7.5t-3.5 9.5t-1.5 6l-21 80 l-4 14l-12 33l-35 61l-14 17q-34 51 -78 67l-14 4q-11 0 -27 -4q-73 -18 -121 -86l2 2l-24 -43l-7 -14q-1 -1 -8 -20q-17 -26 -35 -103l-12 -53q-2 -8 -2 -21v-10l-8 -67l-1 -5q-1 -5 -1 -8q-2 -6 -2 -10l-6 -31q-4 -16 -4 -59z" />
<glyph unicode="1" horiz-adv-x="657" d="M-52.5 1188q-5.5 32 11.5 47l51 59l17 17l100 88l12 12q10 5 17 12l10 9l14 12l68 49q55 41 100 41q48 0 73 -15.5t25 -56.5v-110q0 -42 3 -92l6 -142q0 -45 -2 -88l-7 -178l3 -37l-3 -98q0 -38 5 -43v-606q0 -45 -22 -57.5t-85 -12.5q-52 0 -75 13.5t-23 51.5v261 q2 18 2 90q0 98 -4 176v59q0 64 2 99v73q0 25 2 39q4 37 2 47v58q0 32 -2 55q0 4 -1 14t-1 15l-6 170l2 18l-35 -33l-47 -43q-3 -3 -35 -28.5t-39 -32.5q-20 -22 -49.5 -15.5t-52.5 39.5q-31 32 -36.5 64z" />
<glyph unicode="2" horiz-adv-x="1124" d="M29 53q-2 53 17.5 94.5t86.5 114.5l164 180q59 52 84 84l22 21l117 127l86 117l35 38l27 35q55 83 57 187v23.5t-1.5 22.5t-2.5 18t-4 18t-4 15t-5.5 15t-5.5 13.5t-6.5 14.5t-5.5 13q-8 8 -18 31q-81 98 -152 98q-30 0 -53 -4.5t-32.5 -8.5t-28.5 -16t-27 -16l-6 -6 q-1 -1 -15 -15.5t-24 -28t-17 -28.5q-10 -17 -24 -63q0 -3 -4 -30l-4 -27q-2 -31 -19.5 -44t-70.5 -14q-17 0 -31.5 -0.5t-25.5 1.5t-20 5.5t-15 11t-10 17.5t-5.5 26.5t-1.5 36.5t2 48q4 62 38 125.5t83 115.5q70 64 143.5 93t177.5 32h13q105 -9 190 -71q24 -11 66 -58 l30 -35q94 -125 103 -313q6 -179 -94 -340l-50 -68l-30 -43l-78 -73l-12 -17l-17 -18l-192 -207l-31 -27l-45 -38l-12 -13l-11 -8l-16 -12q24 -4 39 -4l135 2q13 -1 32 -2t67.5 -2t60.5 2q19 3 56.5 4t65.5 1l27 -1h2q8 -2 17 -2h7q36 0 50.5 -1.5t31 -10t21.5 -28.5t5 -55 q0 -32 -5 -52t-11 -31t-23 -16t-30 -6t-42 -1q-145 0 -227 6q-119 0 -185 -4q-61 0 -69 2h-21l-215 -4q-54 -2 -78.5 9t-25.5 44z" />
<glyph unicode="3" horiz-adv-x="1048" d="M45 1174q6 64 41 128.5t86 118.5q68 62 132.5 90.5t148.5 34.5q41 0 104 -10l66 -18l45 -23q43 -21 70.5 -40.5t40 -33t32.5 -41.5q44 -64 51 -137q10 -52 10 -117q0 -87 -20 -116q-1 -1 -7 -14.5t-13 -27.5t-13 -24q-18 -26 -41 -53t-33 -33l-28 -18q-23 -13 -70 -25 q43 -2 78 -24l39 -25q2 -1 65 -64l23 -28q14 -19 43 -92q0 -1 1.5 -5t4 -10.5t4.5 -11.5q17 -57 17 -94v-45q0 -54 -7 -70q-10 -50 -38 -115q-5 -4 -13 -30q-16 -33 -24 -47q-29 -42 -74 -76.5t-76 -42.5l-10 -6q-14 -10 -53 -21l-27 -6q-46 -16 -100 -16q-56 0 -140 22 l-65 33q-37 21 -53 37q-62 44 -105 125q-44 135 -49 186q-1 27 0 46.5t8.5 33.5t27 22.5t54.5 12.5q25 3 42 3t27.5 -2.5t17.5 -10t10.5 -15t7.5 -22.5q0 -2 2.5 -19.5t7 -41.5t8.5 -36q12 -37 31 -73l12 -19q9 -12 23 -26l30 -23l17 -10q18 -8 61 -8h33q38 0 72 12 q24 9 43 25l18 16q20 17 30 31.5t29 52.5l9 22q2 5 8 62q0 47 -6 65q-2 7 -7 17.5t-10 17.5l-4 6q0 1 -3 9t-6.5 15.5t-6.5 10.5l-23 25l-33 26l-28 27q-27 31 -146 74q-33 11 -59.5 32t-26.5 48q0 18 8 30.5t16.5 18t31.5 18.5l65 39q61 37 96 72l21 20q3 1 19.5 22 t19.5 27q30 26 35 72q4 59 -21 135q-10 20 -37 41t-51 31l-31 6q-32 12 -49 8q-73 -3 -133 -32l-18 -17q-46 -37 -54 -49q-6 -10 -13 -32t-7 -23q-2 -4 -5 -15.5t-5 -15.5q-3 -10 -6 -41q-3 -42 -20.5 -54.5t-65.5 -19.5q-72 -7 -93 22t-16 116z" />
<glyph unicode="4" horiz-adv-x="1163" d="M-4 289q0 27 31 86l118 235l33 62l27 49q0 2 2 6t2 6l12 27l29 59l37 72l18 43l10 22q23 41 27 58l47 106l10 21l15 39l59 125q34 53 55 118l37 66q16 26 40.5 35t70.5 12q54 2 73 -13.5t9 -62.5q0 2 -15 -35q-1 -2 -4 -8.5t-4 -11.5q-12 -24 -12 -29l-18 -33l-11 -28 l-24 -70l-17 -31l-16 -34l-16 -56l-29 -65l-25 -43l-10 -29l-12 -35l-35 -67q-2 -2 -2 -6l-43 -82q-6 -6 -6 -13l-19 -43q-15 -38 -16 -41l-21 -41l-6 -16l-6 -14l-88 -156q-4 -4 -4 -6l-16 -21h18q1 0 64 5h30q2 0 8 1t9 1q102 6 213 6q0 21 -1 61.5t-1 59.5v137l2 108 q2 32 18.5 46t73.5 14q55 0 74 -14.5t22 -51.5q7 -54 2 -123v-43l2 -32q0 -9 2 -23q4 -24 4 -47l-2 -35v-37q0 -5 -1 -10.5t-1 -9.5q47 0 70 2h65q45 0 57.5 -19.5t14.5 -76.5v-11q4 -41 -8 -65q-25 -15 -52 -20.5t-94 -6.5q-29 0 -47 -2q0 -53 2 -55v-37l2 -43v-6v-34.5 t-1.5 -25.5t-3.5 -21.5t-7 -14t-11.5 -11t-18 -5.5t-25 -4.5t-33.5 -0.5q-58 0 -78.5 14t-23.5 58v184h-15q-64 0 -178 -4h-55q-39 0 -62 -2q-50 -4 -77 -4q-20 0 -56 -4h-100q-58 0 -73 10t-15 35z" />
<glyph unicode="5" horiz-adv-x="1075" d="M39 367q-3 87 13.5 105.5t94.5 16.5q29 0 47 -6t25.5 -19.5t9 -22t2.5 -27.5q0 -3 11 -47q21 -49 26 -58l4 -12q12 -18 36 -41t34 -29q40 -28 145 -28q35 3 58 22l30 23l19 16l12 19q36 51 50.5 72t33.5 63.5t19 74.5l2 11v12v41q0 51 -30 110t-69 97q-34 38 -71 51 l-56 2q-23 0 -57 -12q-23 -8 -65 -31t-68 -43q-3 -3 -12 -10t-12 -9.5t-10.5 -8t-11.5 -7.5t-11.5 -5.5t-13 -5t-13 -3.5t-16 -2h-17.5q-41 0 -58.5 14t-23.5 58v18q-3 43 0 141v56q0 4 -1 12.5t-1 13.5v23q0 2 -1 6.5t-1 7.5v133q-2 53 -2 156v16q-2 8 -2 33v45 q-3 65 17.5 96.5t78.5 28.5q8 0 25.5 -1t26.5 -1h73q14 -2 47 -2l23 2q39 4 74 0h184q142 0 182 -4q23 -2 36 -26t13 -89q0 -28 -4 -44t-17 -22.5t-24 -8t-37 -1.5h-12q-102 4 -141 0q-55 -3 -137 4q-14 2 -72 2l-135 -6v-96l2 -80v-71q2 -39 2 -121q46 24 91 36t67 13h22 q67 0 119 -14q6 -1 11.5 -2.5t12.5 -4t11 -4.5t13 -7.5t13.5 -8.5t17.5 -11t19 -12l55 -34q59 -55 105 -134q30 -49 51 -131l12 -71q2 -18 2 -62q2 -92 -77 -278q0 -7 -15 -31l-12 -20l-31 -39l-45 -52q-103 -91 -200 -108q-48 -6 -86 -4q-153 11 -283 123q-44 44 -82 117 t-45 137z" />
<glyph unicode="6" horiz-adv-x="1034" d="M82 479v15q0 68 4 88q9 63 35 131q0 1 1 3t1 3l18 49l23 47l18 39l25 51l4 10l43 84l6 17l6 12l41 72l15 24l38 95q81 151 91 176q11 25 34 65l11 19q20 33 35 43q24 15 65 14h8l34.5 -1.5t26.5 -3.5t21 -8.5t11 -15.5t4 -25t-7 -36l-43 -103l-35 -61l-26 -74l-27 -49 l-31 -51l-14 -27l-12 -20l-19 -33l-14 -29q-6 -10 -11 -21.5t-7 -17.5l-2 -6l-35 -59q41 39 106 39q31 0 76 -10q53 -7 156 -93l18 -20q55 -69 90 -168l8 -29q7 -14 11 -47v-55q2 -12 2 -43v-16q0 -85 -15 -129l-6 -21q-6 -34 -39 -113q-38 -75 -120 -139l-35 -20 q-10 -7 -27.5 -15.5t-55 -17.5t-79.5 -10q-42 -2 -116 12t-97 33q-4 1 -18.5 12t-43 36t-59.5 56q-7 8 -16 22t-14 24l-5 10q-23 53 -33 106l-10 35q-14 49 -14 145zM287 475q0 -36 8 -82l20 -61l9 -25q0 -6 4 -10l12 -18q3 -4 13.5 -15.5t11.5 -13.5q14 -23 59 -43 q32 -14 74 -14h20q27 0 49 12q23 13 25 16q2 2 8 12l14 19l15 20q18 23 29.5 48.5t13.5 39.5l2 15q8 46 8 84q0 47 -10 102q0 4 -4 12l-9 27q-13 39 -38 74l-25 24q-42 36 -98 41q-21 -2 -31 -4q-2 -1 -47 -20l-19 -13l-12 -8q-23 -15 -37 -35l-16 -22l-12 -23l-13 -16 q-6 -9 -13 -33t-7 -41q-4 -36 -4 -49z" />
<glyph unicode="7" horiz-adv-x="976" d="M-4 1425q0 17 0.5 27t4.5 27.5t11.5 28t22.5 18.5t37 8h57q21 0 25 2h43q11 -2 204 -2h189q4 0 67 2q87 0 150 -2q59 -3 79.5 -11.5t20.5 -33.5q0 -56 -14 -84l-8 -23q-9 -18 -48 -97t-59 -122q-29 -51 -78 -151l-6 -13l-6 -14l-39 -80q-29 -50 -45 -90l-18 -61 q0 -1 -1 -3t-1 -3l-62 -127l-20 -43l-8 -15l-43 -86q0 -1 -1 -2t-2.5 -5t-3.5 -11l-14 -33l-27 -64l-71 -145l-25 -47l-61 -119q-10 -19 -17.5 -28.5t-23.5 -17.5t-37 -5h-29q-24 1 -36.5 1.5t-27.5 4t-21.5 9t-11.5 15.5t-5 25q0 8 18 60l6 14l7 18l41 82q10 39 45 88 l12 25q8 10 14 29q16 40 37 78l6 14l56 112l55 107q4 26 22 57l23 58l45 88q0 1 2 5t2 5l18 49l11 21l14 24l14 31q20 39 35 72q19 29 33 61l16 31l21 53l45 96l-152 -2h-159h-2q-2 0 -6.5 -0.5t-11 -1t-18.5 -0.5h-26l-86 2h-92q-25 0 -36.5 1.5t-25.5 10t-19 28.5t-5 54z " />
<glyph unicode="8" horiz-adv-x="1120" d="M94 436v10l10 95q10 43 38 94t53 80l16 22l33 29q40 34 73 49q-52 24 -96 68q-6 6 -12.5 15t-10.5 14l-3 6l-15 28q-39 86 -39 187v65q3 31 25.5 92t42.5 88q41 51 86 86l76 45q48 25 108 33q14 2 47 2q82 0 109 -10q39 -21 57 -27q9 -6 15 -6q28 -12 75.5 -50t73.5 -75 q40 -73 53 -162v-59q0 -40 -8 -72l-12 -41q-26 -67 -84 -133l-25 -24q-8 -7 -18.5 -16.5t-18.5 -16.5q-22 -15 -51 -25q48 -17 109 -65q39 -27 70 -71.5t61 -129.5q10 -27 10 -69v-33q1 -4 1 -8t-0.5 -11t-0.5 -14q0 -6 -1 -19t-1 -18q-4 -54 -22 -106l-17 -29l-18 -37 l-13 -27l-30 -43l-17 -14l-28 -27q-42 -38 -93.5 -65t-85.5 -37q-58 -14 -108 -14q-75 0 -164 33q-98 45 -131 86q-20 18 -66 100l-6 16l-4 13l-13 31q-2 5 -3 7q-20 46 -25 113zM305 397l2 -22l4 -19q8 -47 39 -82q14 -21 31 -38l14 -11q4 -4 7.5 -6t9.5 -4t10 -4 q16 -8 24 -8q35 -10 48 -6h10q41 0 84 16l39 25l8 6l10 6l41 39l19 22l24 47l12 41q4 8 4 41v15q0 31 -18 67l-18 33q-15 21 -29 35q-32 36 -45 45l-31 29l-20 14q-4 3 -9 6t-13 7t-13 7l-21 11q-14 8 -18 10l-35 -23q-21 -14 -41 -34l-8 -9l-45 -47l-33 -41l-18 -30 q-4 -8 -4 -13q-21 -65 -21 -96v-29zM344 1161q-4 -10 8 -65q4 -20 21 -58q19 -33 37 -51l43 -37l6 -4l8 -6l33 -22q26 11 80 49l20 16q7 5 18.5 14.5t36.5 40.5t39 64v-2q0 2 2 5.5t2 4.5q13 56 13 82q-4 37 -41.5 78.5t-77.5 62.5q-27 6 -68 6l-41 -6l-14 -6l-16 -8 q-14 -4 -29 -14q-45 -37 -55 -58q-25 -57 -25 -86z" />
<glyph unicode="9" horiz-adv-x="1034" d="M84 1028v39q0 84 10 123q0 12 2 20q0 9 4 13l4 12q0 1 4 16t9.5 30t13.5 28l29 41q2 2 8.5 12.5t7.5 11.5q16 26 64 74l8 6l24 23l17 14q57 32 80 41l28 6q20 4 31 4q26 3 64.5 3.5t48.5 -1.5q28 -4 48.5 -10t31 -11t36.5 -20q18 -18 23 -18q37 -13 86 -76q1 -1 4.5 -5.5 t7 -8.5t4.5 -4l9 -11q33 -47 43 -67q19 -38 28 -82l8 -35q17 -76 17 -147v-15q0 -60 -13 -104l-14 -58q-2 -8 -6 -18.5t-13.5 -35t-19.5 -54.5l-18 -43q-6 -6 -6 -12q-24 -49 -43 -97l-21 -43l-22 -47l-31 -59l-6 -17l-29 -49l-35 -84l-78 -155l-8 -17l-4 -8l-6 -10l-20 -39 l-29 -41q-6 -11 -12 -18.5t-14.5 -12.5t-14 -7.5t-17.5 -3.5l-18 -1.5t-22 0t-23 0.5q-61 0 -78.5 18.5t4.5 53.5l56 106l51 111l26 45l31 57q3 9 14 32.5t13 27.5q26 53 31 65l53 109q-67 -41 -135 -31q-3 0 -9.5 1t-9.5 1l-41 10q-56 19 -121 78l-18 23q-27 28 -57 75 t-48 90l-16 52q-6 48 -6 104zM283 1065q0 -49 10 -98l12 -37q6 -20 23.5 -46t36.5 -42q24 -24 58.5 -36.5t61.5 -12.5q2 -2 25 2q4 0 12 2q22 3 40 10t25 13l7 5l18 21l15 18l8 15q7 10 12 26q0 1 2 5t2 5l25 101v6q4 24 4 29q0 11 -4 51q0 5 -1 15.5t-1 15.5 q-3 17 -10.5 40.5t-13.5 38.5l-7 15q-4 6 -9 14t-10 14.5t-6 8.5q-27 32 -57 51q-39 32 -90 28q-1 0 -5 -1t-7 -1q-15 -2 -37 -12l-21 -12l-6 -2q-14 -7 -26 -19l-25 -32l-18 -25l-4 -8l-21 -45l-8 -33q-10 -52 -10 -88z" />
<glyph unicode=":" horiz-adv-x="483" d="M145 98q-1 52 53.5 94.5t104.5 36.5l10 -4l49 -22q22 -20 29.5 -57.5t-2.5 -69.5q-12 -36 -45 -58t-61 -27.5t-50 -4.5q-91 14 -88 112zM156 803q0 45 20.5 88t52.5 61q22 9 43 9q41 0 73.5 -34.5t37.5 -70.5q7 -40 -33 -88t-80 -61q-80 -13 -100 28q-14 31 -14 68z" />
<glyph unicode=";" horiz-adv-x="544" d="M37 -197q3 26 20 50l9 18q4 7 8 13t4 7l8 17l16 39l7 10l16 29q1 5 6.5 17t7.5 17q7 15 19 42.5t20 45.5t10 23q9 16 17 34.5t12 28.5l4 11l68 131q23 54 121 12q28 -13 47.5 -39.5t11.5 -48.5l-8 -18q-2 -3 -6.5 -11t-7 -14t-3.5 -12l-18 -37q-2 -6 -8 -18.5t-8 -18.5 q-9 -9 -22 -36.5t-19 -49.5q-19 -57 -72 -160l-10 -18l-13 -27q-18 -27 -26 -55l-6 -16q-12 -23 -23 -37q-2 -2 -20 -27q-10 -17 -38.5 -12.5t-58 17.5t-50 39.5t-15.5 53.5zM268 756q-21 48 1.5 110t78.5 86q2 0 10 4q20 5 29 5q43 0 75.5 -36t35.5 -73q5 -42 -33.5 -86.5 t-75.5 -56.5q-36 -11 -68.5 4.5t-52.5 42.5z" />
<glyph unicode="&#x3c;" horiz-adv-x="1474" d="M96 569q-1 38 11.5 55.5t44.5 34.5l45 29l317 178l78 41l47 23q24 12 47 26l23 15l16 6l63 33l68 34l27 17l73 37q15 4 28.5 10t31 14t28.5 13l91 34l8 5q19 12 43.5 6t48.5 -41q25 -37 25 -72q0 -28 -8 -38.5t-38 -24.5l-43 -23l-67 -33q-15 -10 -27 -14l-26 -12 l-109 -56l-63 -30l-15 -9l-26 -12l-25 -14q-80 -34 -141 -80q-26 -18 -47 -29l-19 -10l-231 -107q7 -2 16.5 -5.5t11.5 -4.5l162 -55q103 -37 160 -70l16 -8q9 0 33 -12l29 -14q6 -2 18.5 -8.5t18.5 -8.5q10 -8 14 -8l68 -29q57 -31 96 -47q86 -37 168 -82q3 -3 17.5 -11.5 t19.5 -10.5q56 -24 39 -88q-9 -36 -37 -69t-56 -26q-32 7 -61 19q-14 4 -72.5 35.5t-89.5 44.5q-32 13 -93.5 40t-82.5 36l-127 63l-33 14l-145 66l-35 12q-21 7 -41 17l-41 18q-25 10 -41 20l-35 21l-14 6l-51 29q-22 9 -23 10l-34 20q-52 31 -54 80z" />
<glyph unicode="=" horiz-adv-x="1081" d="M94 396v44q4 60 28.5 79.5t74.5 19.5h45q24 -3 116 2q23 2 78 2l66 -2h319q64 4 82.5 -21.5t18.5 -85.5q0 -18 -3 -31.5t-6 -22.5t-14.5 -15t-17.5 -9t-26 -4.5t-30 -1.5h-39q-102 4 -204 4q-117 0 -166 -4q-29 -2 -72 -2l-123 4q-50 0 -75.5 3.5t-38.5 13.5t-13 27z M94 770q0 15 0.5 26.5t4 21t4.5 16.5t8.5 12t10 8.5t15 6t16.5 3.5t21.5 1.5t23.5 0.5h29q108 -4 217 -4q117 0 160 4q20 2 72 2l100 -4q39 1 62 -0.5t42.5 -5.5t27 -12t14 -20.5t4.5 -31.5t-2 -44q-5 -23 -12 -38t-13.5 -22.5t-21 -11t-22.5 -4t-30 -0.5h-55q-16 3 -108 -2 h-459q-66 -4 -87.5 17t-21.5 81z" />
<glyph unicode="&#x3e;" horiz-adv-x="1472" d="M104 113q-17 64 39 88q5 2 19.5 10.5t17.5 11.5q82 45 168 82q39 16 96 47l68 29q4 0 14 8q6 2 18.5 8.5t18.5 8.5l29 14q24 12 33 12l16 8q57 33 160 70l162 55q2 1 11.5 4.5t16.5 5.5l-231 107l-19 10q-21 11 -47 29q-61 46 -141 80l-25 14l-26 12l-15 9l-63 30 l-109 56l-26 12q-12 4 -27 14l-67 33l-43 23q-30 14 -38 24.5t-8 38.5q0 35 25 72q24 35 48.5 41t43.5 -6q6 -5 8 -5l91 -34q11 -5 28.5 -13t31 -14t28.5 -10l73 -37l27 -17l68 -34l63 -33l16 -6l23 -15q23 -14 47 -26l47 -23l78 -41l317 -178l45 -29q32 -17 44.5 -34.5 t11.5 -55.5q-2 -50 -53 -80l-35 -20q-1 -1 -23 -10l-51 -29l-14 -6l-35 -21q-16 -10 -41 -20l-41 -18q-20 -10 -41 -17l-35 -12l-145 -66l-33 -14l-127 -63q-21 -9 -82.5 -36t-93.5 -40q-31 -13 -89.5 -44.5t-72.5 -35.5q-29 -12 -61 -19q-28 -7 -56 26t-37 69z" />
<glyph unicode="?" horiz-adv-x="903" d="M104 1174q16 147 123 243q73 64 148.5 95t175.5 34q24 -1 45.5 -5t31.5 -7l9 -4q67 -18 115 -51l49 -37q38 -26 82 -150q8 -30 14.5 -76t5.5 -69q-3 -68 -56.5 -163t-111.5 -157l-53 -59l-8 -12l-19 -29q-31 -39 -37 -96q-12 -33 -14 -74q0 -27 -2 -35v-8q0 -2 -1 -5.5 t-1 -4.5v-31q0 -39 -17 -58t-75 -26q-41 -4 -73.5 12t-35.5 39l-4 37v12q-2 70 8 109l7 33q11 59 38.5 128t53.5 103l22 39l27 31l41 47l35 41l14 12q29 29 39 43q9 23 15 57t1 54q4 34 -16 65q-61 92 -162 86q-14 -1 -29.5 -6t-38.5 -14t-36 -14q-8 -4 -17 -10.5t-13 -11.5 l-5 -5l-14 -19q-13 -13 -23 -28q-21 -25 -33 -76l-12 -43q-5 -37 -23 -56.5t-59 -19.5q-80 -4 -100 22.5t-11 117.5zM389 102q0 -50 29 -86q12 -19 36.5 -26t57.5 2q34 17 70.5 62t31.5 85q-5 33 -32.5 60.5t-67.5 27.5q-12 0 -47 -10q-34 -9 -56 -42.5t-22 -72.5z" />
<glyph unicode="@" horiz-adv-x="1880" d="M170 674q0 171 43 293l27 67q71 143 137 219l45 45q120 102 251.5 149.5t325.5 47.5l48 -2q84 -9 181 -42.5t163 -78.5l65 -51q38 -24 76 -86l24 -41l13 -14q84 -128 84 -306q0 -39 -2 -55q-3 -42 -14.5 -90t-24.5 -76q-68 -144 -99 -184l-49 -53q-108 -113 -252 -113 q-58 0 -112 31t-76 78l-10 -11q-33 -42 -80 -61q-63 -31 -127 -31q-36 0 -82 12.5t-78 36.5q-52 39 -93.5 122.5t-41.5 185.5q0 71 10.5 125.5t35.5 100.5t52 79.5t74 81.5q77 59 78 59l31 18q93 32 159 27q52 -4 90.5 -28.5t53.5 -55.5l16 37q19 41 53 41q23 0 76 -18 q37 -23 44.5 -35.5t0.5 -46.5l-24 -90l-15 -56l-1 -1q0 -1 -1.5 -4t-2.5 -6.5t-3 -7.5t-3 -7.5t-2.5 -7t-2.5 -5.5l-21 -73l-8 -31l-41 -133l-6 -27q-3 -6 -9.5 -30t-6.5 -31q-1 -29 19 -44.5t40 -15.5q35 0 75 19t68 61q42 71 60.5 110.5t32.5 98.5q14 61 14 125 q0 84 -45 160q-46 81 -168 166q-80 38 -136.5 51.5t-121.5 13.5q-113 0 -168 -14l-23 -8q-73 -19 -129 -52q-16 -10 -33 -24t-26 -22l-10 -9q-59 -47 -123 -153q-36 -64 -62 -146.5t-26 -155.5q0 -131 45 -235t131 -168q31 -19 80 -39l26 -12q83 -40 86 -41l25 -6q2 0 7 -2 t7 -2q33 -17 115 -17h27q111 0 171 11t140 49l41 14l27 14l26 11q24 12 31 12q33 1 46 -8.5t28 -38.5l12 -25q8 -14 12.5 -31t2.5 -35.5t-15 -29.5q-22 -17 -82.5 -50t-83.5 -40l-6 -2q-46 -18 -66 -23h-10l-39 -12q-76 -19 -184 -25l-78 -2l-68 4q-38 4 -93.5 23t-90.5 34 t-100 46l-15 6q-6 0 -12 6q-16 8 -43 19.5t-44.5 20t-31.5 17.5l-24 25l-25 27l-6 6l-8 10q-58 71 -74 98q-37 61 -65.5 163t-28.5 200zM707 680q0 -45 2 -59q4 -12 4 -23q3 -11 7.5 -29t7.5 -25.5t11 -18.5t21 -21l37 -6q22 0 28 6q24 7 46 28t32 38l10 18q37 62 69 160.5 t32 164.5v17q-6 24 -22 38.5t-34 14.5q-39 0 -89.5 -21.5t-71.5 -56.5l-39 -55l-15 -27q-16 -23 -26 -65.5t-10 -77.5z" />
<glyph unicode="A" d="M2 24q-4 6 -4 17q0 18 10 49l12 31l7 14l12 27l6 12l6 16q0 2 2 7.5t2 7.5l19 35v-2q15 31 20 47q7 8 17 34l4 15l32 78l23 45l29 69l30 78l29 76l6 14q22 68 37 99l16 43l43 90l13 28l6 18t11 32t11 28q7 22 23 43q2 4 5 15t5 14l8 20l15 39l8 21q0 15 29 86l6 20 q6 15 6 17l18 43q2 6 8.5 18t8.5 18l8 23l26 45q44 82 89 82q34 0 64.5 -49.5t90.5 -200.5l72 -199l6 -12l21 -69l24 -74l12 -31l15 -41l86 -256l20 -65l17 -47l14 -46q0 -3 6 -18t17 -41t18 -45q3 -7 18 -43.5t21 -54.5l6 -29l2 -12l16 -33l7 -18l16 -54q11 -29 11 -50 q0 -15 -6 -26q-14 -24 -70 -24h-5q-6 0 -18.5 1t-18.5 1l-8 2q-41 0 -64 20.5t-28 51.5q-5 23 -22 45l-7 14q-2 4 -2 6l-14 39q-17 34 -20 43q-7 13 -7 19l-6 14l-10 41q0 2 -2 6l-23 55q-4 4 -4 9q-29 74 -37 110q0 3 -14 31l-8 12h-313q-73 0 -91 -2h3l-25 -2l-2 -4 l-6 -16q-2 -2 -2 -9q-17 -55 -47 -110v2q-3 -13 -9 -19q-6 -9 -24 -51l-12 -31q-3 -9 -16.5 -38t-18.5 -43l-13 -27q-4 -4 -4 -8l-10 -29l-41 -74q-20 -35 -40 -46t-62 -11l-66 2q-39 6 -49 22zM500 731h127q81 0 159 2l-20 60q-4 4 -4 14l-23 72l-18 53l-10 33l-6 18 l-37 141l-13 43l-6 -28l-10 -31q0 -17 -8 -29l-23 -67l-18 -56l-19 -47l-16 -32q-22 -50 -27 -74q-2 -4 -2 -8z" />
<glyph unicode="B" horiz-adv-x="1310" d="M184 516q0 38 4 92q0 7 1 20t1 15v43q1 10 3 16v39q4 46 4 66q1 12 1 29q0 35 -3 92v20q0 1 -1 4.5t-1 5.5v37q-3 44 -3 86v78q0 57 3 94q4 86 4 133q0 31 -2 44v11q1 54 19 74q20 21 87 21h6h37q25 2 76 2h104q98 0 148 -8q2 0 6 -1t6 -1q4 -2 8 -2q11 0 27 -4 q12 -4 14 -4l47 -17l43 -16q56 -17 99 -41q36 -33 84 -86q2 -4 10 -12l33 -50l6 -8q44 -60 47 -180q1 -13 0 -24q0 -52 -10 -90q-14 -46 -50 -93l-55 -53q-66 -41 -121 -55q105 -19 197 -93q38 -38 64 -111t26 -143q0 -44 -8 -77q-27 -142 -146 -252l-45 -29l-12 -8h2 l-24 -14q-100 -49 -205 -58q-76 -6 -326 -6l-51 -2l-74 -2q-47 0 -60.5 18.5t-13.5 71.5l3 154q0 104 -3 131l-2 30v17zM389 659q0 -34 2 -57v-6q0 -2 1 -5t1 -5v-11l2 -24q4 -40 4 -68l-2 -37v-28q-2 -20 -2 -56l-2 -172q39 0 51 -2h41l58 -2q75 0 160.5 25t150.5 57l18 21 q9 9 23 41q30 43 37 78v6q0 22 2 28v56l-2 12q0 4 -4 16.5t-15.5 31.5t-27.5 30l-39 28q-99 46 -187 56q-43 2 -127 2h-86l-57 -2v-13zM395 1239q0 -117 6 -176v-174v-19h97q55 0 80 2h4q87 4 192 50l10 6l27 16q29 13 59 72q27 54 27 87v7q0 27 -12 59l-11 17v-2l-22 33h2 l-45 45q-37 32 -90 49q-89 27 -183 27q-15 0 -30 -1h-111v-98z" />
<glyph unicode="C" horiz-adv-x="1290" d="M82 702q0 121 10 172v-2q16 120 55 235t89 177l30 33l6 6l11 14q6 7 18 25q38 43 68 59h-2q9 5 15 9.5t9.5 7.5t5.5 4l41 33l25 14q102 53 211 57q4 0 12 2l74 2q111 -3 188 -41l101 -53q38 -28 49 -37.5t37 -38.5q8 -9 8 -22q0 -28 -35 -76l-14 -12q-16 -19 -24.5 -26.5 t-27.5 -8.5t-47 12l-37 19q-8 8 -22 14l-43 29l-43 16q-54 14 -94 14l-37 -2q-24 -4 -45 -4q-32 -7 -88 -32.5t-88 -47.5q-48 -50 -131 -170l2 2q-70 -144 -82 -305v-26q-4 -45 -2 -52q3 -76 30 -190q42 -106 64 -143l24 -25q37 -43 64 -68l29 -20q7 -7 19 -13.5t20 -8.5 l8 -3l45 -12q8 -4 26 -4l25 -2q35 -14 162 -14h16l55 14q8 3 27 14t23 13l26 12q9 7 41 29l19 10q25 12 44 12q11 0 20 -4q24 -11 50 -53q13 -24 19 -38q7 -15 7 -32q0 -16 -13 -24l-60 -52q-48 -42 -108 -71l-11 -4h2q-82 -31 -145 -31q-31 0 -49 -2q-30 -3 -55 -3 q-12 0 -23 1q-174 26 -313 90q-68 41 -197 213q-25 41 -49.5 127t-36.5 174v-2q-8 33 -8 110z" />
<glyph unicode="D" horiz-adv-x="1388" d="M190 90v119q0 59 5 309v590l4 143v88l2 72l2 70q-2 27 15 41t54 14h78q139 0 271 -18q235 -39 405 -209l18 -25l48 -51q62 -85 104 -240l6 -24l6 -35q17 -66 17 -148q2 -14 2 -31q0 -32 -6 -79l-7 -78l-18 -74q-2 -21 -27 -78l-18 -38l-8 -17l-8 -14l-21 -39l-18 -21 l-25 -36l-20 -25q-23 -45 -66 -70q-79 -60 -179.5 -111t-187.5 -65q-86 -12 -237 -12q-6 2 -41.5 2t-52.5 -2q-66 3 -81.5 17t-15.5 75zM397 193l135 4q88 0 152 41l64 34l81 60l29 22q28 24 62 68l16 20l18 43q13 24 18.5 36t14.5 41.5t19 74.5q10 40 10 96q0 11 2 17v45 q0 3 -1 10t-1 12q0 4 -1 13t-1 14q-25 109 -41 149l-25 54l-28 45l-41 57l-15 18l-20 29q-32 24 -41 35q-19 18 -41 31l-57 26l-52 12q-3 0 -7 1.5l-12 4.5t-16 5l-28 10q-14 4 -59 7q-27 2 -40 2q-9 0 -12 -1l-73 -2v-104l-3 -31v-109q-4 -46 -4 -67q0 -57 2 -82v-193 q0 -81 -4 -245v-303z" />
<glyph unicode="E" horiz-adv-x="1157" d="M178 748l4 126q0 95 -2 144v90l2 43q0 39 -2 57q-2 29 -2 103q0 98 2 135v8q1 22 3 32.5t10.5 24.5t27.5 19.5t51 5.5q123 0 170 -2q81 -3 115 -3q17 0 23 1q61 4 174 4l139 -2q38 -1 52.5 -2t27.5 -11.5t16 -24.5t8 -48l-2 -33q0 -30 -13 -48.5t-31 -23.5t-38 -7t-34 1 h-9q-67 0 -108 -2q-25 -2 -84 -2q-27 0 -45 -2l-217 -2q-2 0 -6 0.5t-9 0.5t-10 -1q0 -60 4 -96q4 -74 4 -113q0 -36 -4 -82l-1 -4q-1 -4 -1 -8q-4 -55 -4 -87q0 -21 2 -32h148q28 -4 36 -4q34 0 70 4l133 -6q25 -1 40.5 -7.5t22 -19.5t8 -24.5t1.5 -30.5q1 -24 0 -40 t-7 -26.5t-9 -15.5t-17 -7.5t-19 -2.5h-26h-18q-59 -6 -101 -6q-23 0 -41 2h-75q-23 -2 -72 -2l-64 2h-8v-121q1 -5 1 -14q0 -18 -3 -51v-23l-2 -49v-8q0 -24 4 -76q2 -35 2 -115l-2 -57v-4q40 -4 123 -4q8 0 26 -1t27 -1q24 -2 49 -1.5t50 1.5h127l73 -4q6 0 15.5 -1 t11.5 -1q57 -3 69.5 -13t18.5 -63q1 -19 1 -35q0 -38 -6 -50q-8 -16 -44 -28q-6 0 -10 -2q-6 -1 -31 -1q-42 0 -139 3h-195q-104 0 -190 -4h-101q-56 0 -72 23t-16 81v35q2 63 2 187v217q0 61 -2 92z" />
<glyph unicode="F" horiz-adv-x="1118" d="M178 1257v58q0 3 0.5 19t1 43.5t0.5 60.5v9q0 43 17 65q19 24 84 24q237 0 442 -6h80l16 -2q27 2 94 2q44 -5 59 -24.5t19 -80.5q0 -59 -14.5 -75.5t-61.5 -18.5l-106 -2q-106 4 -168 4q-57 0 -82 -2q-20 -2 -50.5 -2.5t-70.5 2.5h-43v-258q0 -92 2 -164h47l105 -2h14 q1 0 5 -1t7 -1l46 2q12 -2 14 0h70q5 0 14.5 -1t13.5 -1q50 -2 61 -10q17 -12 21 -61v-15q0 -64 -15.5 -79t-82.5 -23h-58h-32l-27 -2l-94 2h-105v-39q0 -20 5 -98v-144q0 -55 2 -82q4 -50 4 -75v-70q0 -18 2 -45q0 -35 6 -53q7 -40 3 -62.5t-21.5 -32t-67.5 -18.5l-53 2 q-22 -4 -37 0.5t-21.5 19t-9 25.5t-4.5 31v10q-4 25 -6.5 63.5t-2.5 64.5l-1 26q0 19 -4 47q-2 16 -2 61v45q4 44 2 60v26l2 17l-2 88v59q-5 51 -5 141l-4 146q-8 200 -8 327z" />
<glyph unicode="G" horiz-adv-x="1333" d="M90 711q0 112 10 176v20l6 60q11 83 41 137q33 76 88 162t99 123l14 10l17 14q5 3 38.5 27.5t47.5 32.5q133 71 245 71h9q87 -2 133 -11t100 -38q118 -71 141 -100q19 -27 19.5 -48t-19.5 -57q-16 -36 -34 -47.5t-46 -11.5q-21 0 -45 20q-1 1 -7 6t-11 7l-25 14l-28 16 l-54 21l-16 4q-47 16 -104 16q-27 0 -45 -4q-115 -22 -203 -117q-4 -4 -39 -49l-14 -22q-67 -94 -82 -152q-26 -132 -33 -241q-1 -15 -1 -30q0 -62 13 -130q16 -86 45 -148l21 -39l20 -30h-2l14 -15q60 -60 91 -84q99 -51 133 -61l20 -8q14 -4 29.5 -5t36.5 0t22 1 q77 0 154 47l14 10l12 8l5 4v148q0 49 -2 51l-3 70v34q0 11 1.5 33t1.5 33q2 30 2 59.5t-2 57.5v37q0 34 2 49.5t12.5 28.5t31 16t58.5 2q51 -1 67 -20t21 -64q2 -15 2 -113v-117q4 -94 4 -141q0 -32 -4 -72q0 -16 2 -61t2 -63q0 -32 -4 -48q-7 -23 -32.5 -49.5t-51.5 -44.5 l-14 -14q-133 -92 -278 -92h-15h-43q-29 0 -43 6q-75 10 -117 29l-10 2q-26 7 -43 14q-41 17 -75 38t-49.5 33.5t-57.5 49.5q-40 43 -74.5 98.5t-42.5 85.5q-8 11 -19 35t-14 37l-18 49q-25 118 -25 244z" />
<glyph unicode="H" horiz-adv-x="1404" d="M186 451q-2 16 -2 33t2 34q0 56 2 64v338q0 41 2 57v65q-2 14 -2 43q0 60 2 89q3 27 3 49l2 49q2 16 2 39q2 18 2 86v33q0 25 0.5 35.5t3 25.5t8.5 20.5t16.5 12t27 8.5t40.5 2h20q32 -4 42 -6t25 -10t19 -22.5t5 -41.5v-39q0 -3 1 -10t1 -10v-17q0 -4 -1 -13.5t-1 -14.5 l-3 -47v-80q-2 -63 -2 -148q0 -61 -2 -102q0 -3 -1 -13t-1 -14v-59h256q21 0 59.5 1t51.5 1q25 -2 55 -2q33 0 60 4h20l19 2q0 71 -3 74q0 47 7 141q0 147 -2 149l-2 60l4 137q4 53 24 69q17 13 69 13h21q54 -3 69 -20.5t15 -57.5v-186q0 -90 2 -133v-131l2 -15 q0 -294 2 -411v-195q0 -61 7 -164v-149v-8q-1 -28 -13 -44q-14 -18 -69 -22l-37 -2q-25 0 -40 2t-30 14.5t-16 36.5v113l-2 65l-4 177q0 110 -7 264v12q-8 0 -28 4q-33 3 -51 3q-10 0 -15 -1l-5 -1q-4 -1 -9 -1h-23q-78 -3 -116 -3q-23 0 -31 1q-63 0 -92 2h-35q-4 0 -12 -1 t-11 -1q-20 -4 -34 -4h-58q-2 -27 2 -57v-97l2 -100q-2 -23 -2 -74q0 -57 2 -104q0 -133 2 -164q2 -34 -8 -55t-27 -27q-16 -4 -34 -6q-5 0 -10 -1q-13 0 -25 3h-16q-44 0 -64.5 14.5t-21.5 50.5v87l-5 53q0 80 -2 125q-2 23 -2 123z" />
<glyph unicode="I" horiz-adv-x="583" d="M170 1206v54q0 26 2 38q0 6 1 16t1 11v127q0 56 23 72q18 13 55 13q11 0 24 -1q67 -6 83 -18.5t16 -71.5v-6q1 -17 1 -38q0 -34 -3 -79q-2 -14 -2 -53q0 -42 -2 -62v-20q0 -3 2 -60q4 -106 4 -344v-385q0 -6 2 -16v-12q5 -38 2 -58q0 -31 -2 -39v-18q4 -18 4 -55l2 -19 q2 -12 2 -37v-28v-29.5v-25.5q-1 -22 -9.5 -36.5t-30 -21t-60.5 -6.5q-26 0 -44 2.5t-29.5 11t-18 16t-9.5 25.5t-3.5 32t-0.5 42l-2 8v60q-4 51 -4 170v75q2 39 2 119q0 99 -2 148v90q0 15 -1 46t-1 46v24q0 9 1 29t1 27v96q-2 14 -2 51q0 57 -2 90z" />
<glyph unicode="J" horiz-adv-x="753" d="M-14 258v21q0 57 14 77q17 23 84 23q57 0 72 -13.5t22 -74.5l2 -27q12 -58 58 -80q18 -6 28 -6h27q37 11 55 56q13 34 13 73q0 11 -1 23v39l2 20v8l-2 41q5 63 5 78v189q-5 62 -5 73l-4 96l-2 181q-6 45 -6 76q0 17 2 30v86q-2 16 -2 51v142q0 21 3 36t6 25.5t13.5 17 t14 9.5t20.5 4.5t21.5 1.5h26.5q52 0 66.5 -20t19.5 -97q-1 -6 -1 -15q0 -19 3 -50q2 -16 2 -47v-35q0 -37 2 -64l2 -22v-45q2 -18 2 -66l2 -18v-140l2 -79q0 -154 4 -201q2 -27 2 -92v-84q0 -59 -4 -82v-6q0 -15 -2 -23q-2 -4 -2 -33q0 -27 -2 -39q0 -47 -2 -53 q-3 -30 -12 -55q-4 -32 -25 -67t-49 -62q-24 -21 -103 -43q-33 -8 -90 -8q-100 0 -153 32q-27 22 -56 54.5t-43 60.5l-10 25q-18 52 -20 98z" />
<glyph unicode="K" horiz-adv-x="1234" d="M188 90v295q2 10 2 51v80l3 45v53q1 19 1.5 33t0 19.5t-1 10.5t-0.5 7v47q0 36 0.5 64t1 42t0.5 17v8l-7 178q0 29 2 37v185q0 11 1.5 46t1.5 48v16l-5 70q0 62 16.5 78t84.5 16q57 0 74.5 -10t23.5 -58q4 -33 4 -125l4 -112q-3 -73 -3 -117q0 -26 1 -41v-63v-62l101 105 l24 30l53 56l72 69q4 6 14.5 18.5t14.5 18.5l6 10l31 37q34 29 59 62q4 6 31 28q37 33 49 52l74 65q8 8 14 13t10.5 9t9.5 6.5t7.5 4t8.5 2.5t7.5 1t10 0.5t11.5 0.5q22 2 40 2t32 -2q57 -2 57 -32q0 -17 -20 -44l-33 -39l-35 -43l-43 -51l-55 -63l-57 -60l-99 -110 l-116 -121q-40 -47 -84 -90l-64 -64l-30 -35l-7 -6l5 -2l79 -84l295 -311l80 -88l53 -60l25 -26l45 -49q64 -69 84 -99q15 -23 15 -37q0 -22 -38 -22h-102q-48 0 -68 9.5t-51 41.5l-24 23l-27 24l-37 35l-22 25q-33 27 -56 55l-47 51l-53 58l-20 26l-101 92l-18 23l-27 31 l-10 10l-27 24q-9 10 -32 41q-11 11 -13 15q0 -267 -6 -516q-1 -48 -20.5 -59t-81.5 -11q-54 0 -76.5 18t-22.5 74z" />
<glyph unicode="L" horiz-adv-x="1103" d="M178 852q0 47 2 70q-2 20 -2 65q0 29 2 45q0 23 2 27q0 3 1 8t1 6l2 313l2 68q0 36 11 52.5t49 23.5q24 4 63 4q55 0 70.5 -25t15.5 -92l-2 -231v-49q-6 -42 -6 -60v-471l2 -102q-2 -29 -2 -80q0 -42 2 -62l-2 -81v-37v-2q0 -1 0.5 -3.5t1 -7t0.5 -14v-22.5q23 2 90 2h41 q45 0 76 -2h12q12 -1 26 -2t23 -2t13 -1l219 7q51 0 74.5 -13.5t23.5 -60.5l-2 -57q0 -41 -12.5 -52.5t-42.5 -11.5h-90q-20 -2 -62 -2q-48 0 -73 2h-56q-14 2 -33 2q-26 0 -61 -4q-23 -2 -72 -2l-79 2h-19h-1q-15 -2 -99 -2h-13q-50 0 -68 21q-20 24 -24 83q-2 51 -2 211 l6 168q1 19 1 46q0 54 -3 141v84q0 5 -1 15.5t-1 16.5q-4 50 -4 68z" />
<glyph unicode="M" horiz-adv-x="1759" d="M180 1217l4 215v12q0 48 14 70q16 24 70 24q24 0 40 -9.5t46 -47.5l60 -72l18 -27l57 -73l27 -39l27 -41l28 -45q22 -36 56 -76l53 -74l16 -20l29 -35l37 -57l16 -31l47 -60l15 19l14 14q2 3 7 13t9 16l31 49l64 84q4 7 14 22.5t14 22.5l15 16q14 20 34.5 47t32 43.5 t17.5 28.5q45 68 47 74q38 44 78 111l73 94q15 24 46 39q29 14 59 14h4q18 -1 29 -3t24.5 -8t20 -19.5t6.5 -34.5q0 -76 2 -101q1 -12 1 -36.5t-1 -35.5v-10l-1 -20q0 -19 -0.5 -66.5t-0.5 -116.5q1 -7 1 -23q0 -26 -3 -77v-156q0 -149 -2 -221q-2 -27 -2 -104v-127 q0 -9 -1.5 -31.5t-1.5 -38.5q0 -45 3 -100l2 -29v-100q0 -42 -15.5 -61t-44.5 -21h-21q-22 0 -48 2q-47 6 -61 29t-17 90v61q-2 20 -2 66l-2 53v336l4 55q3 16 0 39v127q2 45 2 154l-2 102l-54 -76l-51 -80q-40 -73 -55 -90l-31 -35q-7 -11 -73 -106q-7 -8 -39 -53l-4 -4 l-15 -23l-26 -33l-19 -20q-3 -4 -11 -13.5t-12 -13.5t-11 -11.5t-11.5 -11t-10.5 -7.5t-11.5 -5.5t-10.5 -1.5q-21 1 -45.5 25t-38.5 47l-16 25q-1 1 -6.5 5.5t-9.5 8.5t-5 6l-28 45l-33 41q-22 36 -27 41q-136 182 -163 219q-3 4 -64 105l-10 20v-6q1 -28 5 -89t5 -91 q4 -102 4 -160v-68q0 -79 2 -104v-139q0 -93 -2 -111v-82q0 -144 6 -209q0 -29 -12.5 -43t-44.5 -14h-43h-8q-29 0 -41 1.5t-25 9.5t-18 26t-6 51q-4 102 -4 209v84q4 34 4 180q0 47 -4 121q0 18 -2 43l-3 41q-3 46 -3 70q0 14 1 20v64q0 84 -4 190q0 25 -4 107z" />
<glyph unicode="N" horiz-adv-x="1462" d="M178 1128v62l2 94l-2 178q0 39 17.5 55.5t52.5 16.5q52 0 79.5 -16t53.5 -58l61 -92l25 -43q4 -6 19 -27t22 -32l57 -92l49 -87l35 -59l8 -12l27 -45l8 -17q37 -71 88 -143l62 -109l26 -36l74 -142l53 -114q-3 62 -10 176l2 131v153q-2 55 -2 164q0 49 -2 78 q-3 69 -3 120q0 25 1 46l6 147q6 67 23 86.5t73 22.5q39 0 61.5 -5t32 -18t11.5 -24.5t2 -36.5v-8l2 -82q0 -71 -2 -96l-4 -308l2 -51v2q2 -10 2 -55v-262q-3 -22 2 -41v-361q2 -16 2 -53v-55q0 -80 -82 -80q-27 0 -47 9.5t-30.5 20.5t-24.5 31l-64 93l-18 26l-74 109 l-98 147l-17 31q-4 9 -47 80l-12 20l-43 78l-21 37l-57 78l-41 80l-16 26l-94 183l-39 81l8 -116q1 -14 4.5 -52.5t3.5 -48.5l2 -69l2 -15l-4 -127q0 -20 2 -32v-13l2 -20q2 -29 2 -86v-27l-2 -143q-5 -40 -2 -55l6 -35l4 -53v-48q0 -16 2 -36l2 -11l-2 -59v-7 q1 -49 -13 -61q-14 -14 -60 -16q-2 0 -7.5 -1t-7.5 -1h-28q-43 7 -60 24t-20 54q-4 40 -4 96q-2 14 -2 70q-4 54 -4 77l-3 127l-2 158v27l-4 110q-4 31 0 58v131l-2 53v23q1 9 1 21q0 24 -3 60q0 9 -1 23t-1 18z" />
<glyph unicode="O" horiz-adv-x="1370" d="M121 829v115q2 15 4 21v28q0 7 2 17v26q2 12 2 25q4 24 4 43q23 171 143 291q73 70 143 106.5t173 42.5l55 2h23q6 0 10 -2h10q97 -7 167.5 -42.5t146.5 -98.5q127 -124 151 -297q0 -15 4 -31v-20q0 -7 2 -19v-47q4 -24 4 -43l2 -78v-231q0 -50 -4 -70q-2 -8 -2 -20 q0 -69 -6 -113q-2 -4 -2 -6q-2 -4 -2 -8q-25 -113 -57 -168q-80 -130 -146 -174l-108 -49l-43 -17q-56 -17 -160 -24h-41q-85 5 -129 24q-81 37 -155 100t-117 132q-24 45 -45 123.5t-25 152.5q-2 27 -2 88v74q0 96 -2 147zM319 575q3 -37 21 -122q3 -33 6 -39 q53 -100 100 -144q41 -38 73.5 -51.5t90.5 -19.5q27 0 37 -2q84 9 115 30l57 29q3 1 9.5 5t9.5 5l20 21q44 50 80 139q2 4 2 16l6 39q4 43 8 54q0 1 1 3t1 3q9 23 9 55v115q-2 16 -2 49q0 116 -13 272q-11 146 -102 217q-88 85 -191 88h-41q-18 0 -24 -2l-27 -2 q-80 -30 -121 -69q-55 -33 -81.5 -116.5t-34.5 -234.5q-6 -63 -6 -112v-176q-3 -30 -3 -50z" />
<glyph unicode="P" horiz-adv-x="1222" d="M186 1399v37q0 33 1.5 46.5t9.5 28.5t25.5 19t49.5 4l148 2q25 -2 29 0q171 0 256 -16q84 -12 180 -82l30 -25q3 -3 15 -12.5t15 -12t12.5 -10t13 -12.5t10.5 -13.5t12 -17.5t11 -20q20 -27 37 -85t22 -106q4 -28 4 -57q0 -35 -4 -63l-4 -17q-15 -66 -52.5 -125 t-76.5 -98q-44 -46 -125.5 -85.5t-145.5 -39.5q-59 0 -92 -2q-62 -4 -96 -4h-74v-41q0 -70 11 -182l6 -56q4 -43 4 -145v-137q0 -38 -21 -56t-92 -18q-31 1 -45.5 3.5t-30 13.5t-21 34.5t-5.5 63.5q2 35 2 116q0 95 -6 150q-4 53 -4 182v152v121v210v33v25q-5 45 -5 59v101 q0 127 -4 137zM397 1331q0 -3 1 -9t1 -9v-25q2 -20 2 -78q0 -49 2 -67v-23q5 -68 5 -80q0 -10 -1 -17l-1 -7v-94q-3 -43 -3 -80v-4h113q78 0 113 4h26l33 8q63 30 82 49l21 14l22 27l18 39q6 6 15 47q6 25 6 47q0 49 -22 98t-44 70q-22 22 -58 44.5t-64 29.5q-68 16 -222 16 h-10l-16 1q-17 0 -19 -1z" />
<glyph unicode="Q" horiz-adv-x="1372" d="M121 834v53q0 33 2 43q2 8 2 22q0 1 1 3t1 3v58q2 10 2 16v43q4 16 4 29q13 98 48.5 168t97.5 129q77 67 146 102.5t167 40.5l53 2h23l22 -2q104 -7 170 -41.5t135 -97.5q67 -61 106 -132t52 -167q0 -15 4 -31v-20l4 -25q0 -19 2 -29v-133q4 -14 4 -34l-2 -105 q6 -41 6 -92q0 -50 -4 -70q-2 -8 -2 -20v-23q0 -3 -1 -9t-1 -9q-4 -40 -4 -66q-31 -134 -67 -180l-7 -8l-26 -39h2q-15 -29 -49 -63l14 -15l35 -35q12 -13 8 -35.5t-19.5 -43t-35 -39t-38.5 -23.5q-7 -2 -13 -2q-11 0 -19 6l-76 76l-55 -19q-35 -20 -69.5 -26t-108.5 -6h-39 q-86 5 -131 24q-188 83 -262 213q-28 55 -51 137.5t-27 157.5q-2 27 -2 88v74q0 101 -2 152zM319 575q7 -87 11 -110l16 -51q63 -118 100 -150q39 -35 67.5 -46t92.5 -21q21 0 33 -2q72 9 94 16q-6 8 -25 30t-26 31l-8 9q-10 20 2.5 47.5t35.5 46.5t48 28t41 -8l82 -84 q9 12 13.5 17.5t7.5 10t3.5 5.5t2 5.5t3.5 8.5l11 25q4 22 8 31l8 22q21 98 23 131v13q0 2 1 6t1 6v106q-4 32 -4 54q0 112 -9 274q-16 152 -102 219q-92 89 -193 92h-41q-16 0 -24 -2q-53 -12 -79 -26t-56 -41l-45 -35q-40 -35 -59.5 -88t-20.5 -164v-16q0 -51 -6 -74v-27 q0 -2 -1 -5t-1 -5v-8q-2 -12 -2 -45v-176q-3 -30 -3 -50z" />
<glyph unicode="R" horiz-adv-x="1304" d="M186 1219l2 229v9q0 75 62 75h143q54 4 82 4q26 0 62 -4h30l31 -2h51q96 -8 162 -39q59 -14 121 -57q98 -86 151 -234q15 -46 15 -104v-17q0 -50 -2 -75l-9 -33q-3 -31 -28 -88q-59 -106 -90 -131q-46 -51 -111 -78l12 -25q20 -58 41 -82l21 -41q9 -21 24 -51l21 -37 l6 -12l6 -10l33 -76q22 -38 29 -55l26 -45l21 -41l14 -27q6 -6 16 -33q28 -50 37 -78q5 -16 5 -27q0 -18 -12 -24q-20 -10 -79 -10h-39q-76 0 -92 35l-8 14q-6 12 -6 14l-33 58l-4 12l-12 19l-13 20q-11 17 -16 29q0 1 -10 26l-17 31l-4 18q-12 16 -12 25l-18 31l-74 143 l-21 43l-32 70q-25 39 -29 51q-33 0 -45 -4q-12 -2 -41 -2q-23 -2 -74 -2l-69 6h-2q0 -8 -1 -23t-1 -22q-3 -47 -3 -103q0 -66 7 -127q2 -51 2 -161l2 -80l-2 -45q0 -53 -21.5 -65.5t-89.5 -12.5h-14q-43 0 -61 11q-20 13 -21 67v125q0 35 -2 55q0 2 -1 7t-1 7v84 q-4 49 -4 172v201q-2 4 -2 127l-2 33v8q-5 94 -5 111l2 53q0 24 -2 45q-2 33 -2 115zM393 1151q0 -26 4 -76v-26q0 -19 4 -23q5 -70 5 -119v-26q-1 -10 -1 -20t1 -17v-8h96q127 0 196.5 11t120.5 44l23 27l6 14l14 24l6 15q21 46 21 100v31q-3 20 -17 53q-31 55 -79 107 q-59 42 -126 54.5t-153 12.5h-117q0 -3 -1 -9t-1 -7v-10q-3 -74 -3 -115q0 -25 1 -37z" />
<glyph unicode="S" horiz-adv-x="1171" d="M131 344q35 40 61 46t54 -17l45 -33l28 -27l33 -26q5 -4 19.5 -15t21.5 -18l29 -16l14 -5q40 -20 66 -20q16 -4 36 -4q30 0 68 10l23 8q2 0 8 2l20 4q45 22 56 35q46 41 53 92v74q-3 35 -13 59t-40 64q-14 21 -49 39l-35 25l-21 16l-33 25l3 -3q-2 1 -6.5 5.5t-6.5 5.5 q-22 19 -37 24l-34 17l-39 18q-24 9 -39 21q-49 20 -62 30q-156 83 -211 203q-24 50 -32 107q-1 16 -1 31q0 53 11 99q14 59 31 87q25 44 89 103t130 97q76 37 191 37h18q43 -1 81.5 -12t58 -21.5t52.5 -31.5l19 -13q87 -90 112 -127q37 -51 37 -77q0 -18 -20 -58l-15 -16 q-31 -39 -62 -39l-40 16l-17 15l-20 26l-29 33q-22 20 -47 47q-34 25 -51 31l-29 8q-8 4 -61 4q-12 0 -22 -0.5t-17 -1.5t-16 -3.5t-13 -3.5t-13 -5t-11.5 -5.5t-13.5 -7.5t-15 -8q-36 -24 -69 -63t-40 -72q-7 -17 4.5 -52.5t28.5 -59.5q49 -42 117.5 -85t116.5 -57 q187 -111 200 -119l37 -28q44 -37 79 -92t50 -109q19 -77 21 -133q1 -16 1 -31q0 -158 -87 -250q-46 -46 -78.5 -72.5t-94 -52t-136.5 -32.5h-8q-37 0 -112 16q-83 18 -112 39q-13 4 -28.5 13t-35.5 23t-28 19q-4 0 -10 6l-82 72l-43 49q-23 26 -23 53q0 29 35 68z" />
<glyph unicode="T" horiz-adv-x="1132" d="M61 1427q0 63 13.5 83.5t70.5 21.5h179q12 0 43 1t51 1q61 0 96 2q27 2 48 2t36 -2q50 -4 111 -4q84 0 120 4h68l39 -2q34 -1 46 -24t15 -85q0 -90 -65 -90h-129q-57 0 -88 -2q-16 -2 -68 -2v-53q2 -14 2 -45v-57q-4 -29 0 -50q0 -79 -2 -114q0 -62 -4 -94v-48 q-2 -33 -2 -67q0 -14 4 -68v-51q4 -42 2 -47q-1 -18 -1 -43q0 -50 3 -127l2 -49v-105q0 -88 2 -123v-28l2 -8l2 -68q0 -56 -17 -72q-16 -15 -79 -14h-8q-26 1 -41.5 3t-31 9t-22.5 21t-7 37l-2 112q-3 21 -3 70q0 90 3 137q-3 21 -3 45v58q0 89 -2 124v54q0 36 -4 65l-2 201 v20q0 15 2 19v20q4 20 4 49q0 23 -2 41q-2 33 -2 107v29l-2 108q-18 0 -22 2q-3 0 -11 1t-10 1h-8l-63 -4h-170q-58 0 -75.5 16.5t-17.5 81.5z" />
<glyph unicode="U" horiz-adv-x="1411" d="M150 559q0 1 1 5t1 9v127q0 78 6 136q0 34 -2 36q-4 40 -4 95v51q-2 22 -2 45t2 45v18q0 11 2 17v139q3 53 3 95q0 25 -1 46v15q0 58 22 76q24 20 84 20q70 0 88.5 -17t18.5 -69v-121q0 -96 -4 -184v-129l4 -213v-123q-4 -74 -4 -125q0 -80 12 -150q32 -102 80 -127 q37 -35 92.5 -57t99.5 -22q11 0 78 10l16 4l13 2l35 10q16 5 59 27q2 2 8 6.5l8 6t6.5 5.5t7 7t5.5 7.5t6 10.5q34 55 39 74l10 34l6 21q19 80 19 170v57q0 53 2 86v19q4 32 4 49v35q0 102 -4 149q-2 27 -2 78v207q0 25 4 45v57q0 8 1 30t1 28q0 68 21 85t79 17 q32 0 46.5 -2t29 -11t19.5 -29t5 -56v-103q0 -3 -1 -9t-1 -9v-62v-30q-2 -29 -2 -78q0 -55 2 -80l2 -213v-104q-2 -37 -2 -125v-97q0 -54 -8 -120q0 -2 -1 -9t-1 -8l-16 -49q-17 -56 -46 -116.5t-57 -88.5q-79 -75 -167.5 -110.5t-206.5 -36.5q-99 0 -172 22 q-124 38 -207 136t-119 229q-18 73 -18 184z" />
<glyph unicode="V" horiz-adv-x="1413" d="M10 1499q0 17 22 27t72 10q57 0 85 -12.5t44 -55.5q2 -3 7.5 -11.5t9.5 -15.5t6 -11l6 -15l33 -59l35 -94l16 -66l12 -27l19 -51q3 -13 12 -22l37 -76l78 -195l41 -116l6 -19l18 -41l15 -37l10 -20l22 -74l9 -20l32 -92l2 -11q0 3 1.5 9t1.5 8l16 53l20 63l25 74l14 41 l8 16q14 25 17 37l51 123l18 53l31 72l21 49q53 107 65 156q4 13 17 42.5t25 52.5l11 24q2 7 10 23.5t9 19.5q26 41 37 75l20 50l25 43q12 28 29 40.5t53 16.5h45q15 1 21 1t19.5 -0.5t19 -2t14.5 -4t12 -7t7 -11.5q3 -6 3 -15q-1 -1 -1 -2q0 -10 -3 -22q-11 -42 -33 -87 l-24 -47l-9 -16q-23 -44 -55 -129l-10 -23q-6 -12 -8 -20l-29 -82l-18 -37l-19 -37q-8 -34 -16 -49l-6 -14l-23 -49l-16 -35l-41 -96l-27 -60l-18 -37l-13 -32l-16 -45l-39 -103q0 -1 -2 -8.5t-6 -13.5q0 -1 -5 -12.5t-5 -12.5q-3 -11 -23 -61l-14 -27l-25 -64l-4 -14 q-4 -8 -4 -12l-14 -39q-9 -31 -25 -59l-33 -74q-2 -2 -4 -8l-22 -41q-19 -35 -60 -35h-6h-3q-16 0 -26 10q-10 12 -36 57l-43 93l-25 53l-4 14q-8 20 -8 23l-17 32l-12 39l-10 33q-6 6 -6 10l-4 11l-21 43l-28 69l-5 15l-6 14q-23 45 -94 231l-4 17q-42 120 -64 166l-14 43 l-18 51q-28 44 -47 108l-13 37l-32 72l-11 25q-5 11 -14 34l-8 23q-2 4 -2 6l-11 29l-6 20l-12 27l-27 59q-8 24 -8 41z" />
<glyph unicode="W" horiz-adv-x="2291" d="M39 1482q1 12 7 24q8 14 33 21t68 7h23q14 1 26 0t22 -4.5t18 -13.5t14 -27l33 -72l4 -16l10 -29l14 -35q7 -28 13 -34l10 -27l14 -43q8 -40 29 -88l37 -92l16 -49l31 -84l20 -46l60 -149q6 -15 13 -40t7 -26l6 -20l15 -39l6 -12q18 -47 28 -76l25 -72l10 -37l35 140 l31 84l6 14l12 31q0 2 2 7.5t2 6.5l9 21l34 98q1 3 8.5 18.5t8.5 20.5l6 14l10 21l8 28q9 17 11 27l8 33l24 57l15 45l16 47l49 117q7 7 12 33l-14 43l-8 24l-8 25l-19 53l-12 41q-10 25 -10 42q-1 18 11 28q18 15 72 14h19q34 -2 51 -5.5t32.5 -14.5t23.5 -33l41 -82 l28 -82q6 -15 23 -49q2 -4 6 -17.5t6 -17.5q0 -15 6 -21l6 -18q7 -25 25 -72l4 -18l8 -21l121 -290l14 -37l5 -21l4 -12l4 -14q10 -47 28 -82l13 -23l10 -28q0 -7 6 -13l6 -16l37 -123l6 16l25 86l45 134l53 147q1 3 5 12t7 16t4 11l9 14q15 38 16 41l19 41l10 37l35 86 l12 29l8 22l18 47l41 103l54 125l41 82q8 20 21.5 33.5t31.5 19t32 7t33 1.5q67 0 85 -16q12 -11 12 -31q0 -8 -2 -16q-1 -5 -14.5 -39.5t-16.5 -47.5l-21 -49l-18 -59l-20 -47l-21 -45l-25 -62l-45 -100l-22 -72l-33 -67l-29 -84q-1 -2 -8 -23q-12 -39 -24 -61l-19 -41 l-6 -17l-70 -178l-10 -35l-6 -22l-8 -18l-29 -72l-31 -92l-57 -158q-22 -49 -22 -51q-14 -29 -24 -36t-30 -7q-22 0 -36 9.5t-27 35.5l-35 69l-6 15q-3 10 -12.5 29.5t-12.5 27.5l-26 74l-11 29q-3 7 -9 24.5t-7 20.5q-3 12 -14 34q-31 69 -45 107l-17 35q-68 153 -96 241 l-4 17l-25 69l-10 19q-17 39 -26 65l-21 54l-6 18l-6 -22q-6 -14 -12 -33t-9 -31l-2 -12l-33 -84l-10 -27l-30 -76q-13 -27 -17 -45l-63 -186q-4 -15 -52 -131l-28 -88q-7 -26 -17 -45q-7 -13 -14 -39l-33 -74l-18 -35q-14 -25 -17.5 -31t-11.5 -16t-14 -12t-17 -4 q-20 -3 -33.5 9t-29.5 42q-2 6 -51 104q-16 32 -37 86q-21 42 -27 58l-12 35l-10 20l-29 68l-16 53l-31 80q-36 75 -66 158l-12 34l-29 74l-10 25q-1 5 -4 11.5t-4 8.5l-18 49l-11 33l-18 51l-29 72l-4 20l-10 45l-43 97l-10 32l-17 50q-7 7 -10 26l-14 35l-8 21l-17 47 l-2 10v-2q-8 25 -8 38z" />
<glyph unicode="X" horiz-adv-x="1220" d="M14 55l27 43q0 1 2 5.5t2 5.5q17 30 25 41q15 33 24 47q0 1 2 5t2 5l21 31q19 28 36 57t24 44l7 15l13 21l51 78l43 75l39 60l41 53q0 6 6 12l6 17l21 37l43 71l-46 82l-24 43l-29 53l-33 66l-47 68l-53 104l-22 37l-25 51q-5 9 -20.5 41.5t-24.5 50.5l-10 25l-6 14 q-2 4 -15 28.5t-18 37.5q-11 32 7 44.5t60 12.5l72 -2q65 0 94 -76l35 -59l25 -45l100 -189q0 -4 35 -71l43 -74l24 -47l52 106q56 112 63 119l4 8q4 4 4 8l27 56l22 37q61 112 64 120q1 1 4 9.5t4 9.5l10 18l23 31q14 20 29 29t41 10q27 2 54 0.5t47 -5.5t29.5 -17t2.5 -35 l-41 -91l-11 -18l-12 -27q-11 -21 -26 -57q-5 -11 -14.5 -30.5t-12.5 -26.5q-6 -14 -20 -37.5t-19 -34.5l-29 -51l-26 -47l-25 -47l-37 -66q-3 -6 -15.5 -28.5t-17.5 -32.5l-18 -29l-18 -33l-25 -43l35 -51l57 -92l23 -33q5 -7 34 -52t44 -69l69 -119q4 -4 11 -14.5 t19 -33.5t21 -38q2 -3 11 -18t12 -18l24 -43q39 -59 70 -119l10 -25q7 -12 7 -21q0 -24 -47 -31q-24 -3 -93 -3q-70 5 -92 41l-45 80l-23 26l-32 56l-23 35l-26 43l-25 36l-29 56l-10 16l2 -2l-12 18q-3 4 -12 17.5t-13 17.5l-16 29l-8 10l-23 45l-35 62l-37 -70 q-8 -14 -20 -43l-18 -27l-7 -8l-16 -30l-10 -21l-17 -27l-41 -59l-36 -59l-76 -123l-19 -35q-2 -4 -11.5 -16.5t-14.5 -20.5q-16 -21 -33.5 -31.5t-29.5 -12t-36 -1.5h-75q-35 0 -52 12q-10 7 -10 21q0 9 4 22z" />
<glyph unicode="Y" horiz-adv-x="1329" d="M4 1489q-2 7 -2 13q0 19 21 26q22 8 69 8h21q42 0 61 -11t35 -38l53 -84l35 -55l4 -9l8 -12l41 -65l21 -35l57 -109l14 -24l29 -41l25 -35l43 -78q4 -5 7.5 -10.5t6.5 -12.5t6 -12l12 -22l15 -31l16 -18l19 -31q5 11 18 33t18 34l15 27l20 35l51 76l78 118l31 60l18 28 l29 37q3 7 12.5 21t12.5 20l51 92l37 66l30 51q12 31 93 35h20q43 0 63 -7q26 -9 26 -28q-1 -20 -15 -51l-74 -154q-28 -44 -35 -61l-14 -25l-21 -39l-12 -24l-20 -35q-65 -97 -80 -115q-2 -4 -21 -33.5t-28 -43.5l-41 -72q-33 -59 -43 -82l-60 -92l-55 -76v-88q0 -18 2 -43 v-31l2 -102l2 -17v-69q-2 -39 -2 -168q1 -50 -20.5 -65t-73.5 -15q-65 0 -86 20.5t-21 71.5v131q-4 70 -4 113v16q-2 7 -2 15q-2 21 -2 39t2 32q4 13 0 49q-4 24 -4 45v58q-12 19 -26.5 37.5t-20.5 29.5l-8 11l-33 57l-14 29l-54 80l-12 20l-53 98q-56 100 -98 152l-97 178 l-16 27l-35 73q-30 46 -47 107z" />
<glyph unicode="Z" horiz-adv-x="1206" d="M16 43q0 29 35 86l58 96l30 56q148 224 148 233l28 43l27 43l59 102l70 113l59 92q5 11 21.5 41.5t21.5 42.5l72 111l43 55l10 21l39 67q7 7 13 19l10 22l10 17l23 26l-218 -6q-14 2 -26 2q-20 2 -41 2q-74 2 -156 2h-108l-92 -2q-28 -1 -41 24.5t-15 61.5v37 q0 35 13.5 53t60.5 23l25 4q66 4 108 4h162q61 -4 65 -4h99l39 -2h155q29 0 64 -2h63q12 -1 29.5 -2.5t26 -2.5t20.5 -3t17.5 -5t11.5 -8t8 -12.5t2 -17.5q0 -41 -10 -66l-47 -106l-17 -33l-20 -37l-27 -41l-47 -70q-12 -24 -72 -121l-20 -34l-31 -43l-29 -45l-10 -17 l-96 -162l-25 -53l-20 -33l-27 -43l-51 -92l-10 -16l-37 -68l-16 -24l-29 -41l-43 -66l-47 -65h69l50 -4q44 3 72 3q17 0 28 -1q6 -1 18.5 -0.5t33.5 1.5t28 1h112q3 0 7 1t6 1l98 -2q1 0 8.5 -0.5t19.5 -1t23 -0.5h56q23 -2 41 -13q22 -16 22 -67q0 -39 -13.5 -73.5 t-35.5 -37.5q-20 -2 -115 -2q-49 2 -104 2q-58 0 -74 -4t-84 -4q-106 0 -160 4q-18 -2 -51 -2l-82 2q-55 0 -57 -2h-29q-20 -1 -54.5 0.5t-45.5 1.5h-8h-14.5h-15.5t-14 0.5t-14 1.5l-12.5 2.5t-11.5 5t-8 7.5t-5.5 10t-1.5 14z" />
<glyph unicode="[" horiz-adv-x="581" d="M164 383q0 49 2 72q0 57 2 65v29l-2 35v61q0 268 2 346v19l2 12v57l-2 45l4 86q4 24 2 37q-4 61 -4 262v133q0 40 15.5 57t64.5 17h233q33 0 56 -6q5 -1 9 -4t7 -6.5t5 -8.5t3.5 -9t2.5 -11t1.5 -11t1 -11.5t0.5 -10.5v-11v-9v-8q0 -42 -10 -61t-41 -19l-67 -2 q-1 0 -6.5 -0.5t-17 -1.5t-24.5 -2h-30v-54l2 -317q-6 -141 -6 -588l-2 -76v-405q2 -14 2 -66h69q81 0 97 -2q27 -4 33.5 -65t-7.5 -90q0 -4 -3.5 -10t-20 -13.5t-43.5 -7.5h-250q-28 -2 -52.5 15.5t-25.5 54.5v442q-2 14 -2 41z" />
<glyph unicode="\" horiz-adv-x="780" d="M35 1477q-3 33 3.5 49t35.5 30q5 0 10 5q2 0 6 2q34 11 45 14q23 7 47 -7t27 -30q0 -4 6 -16l25 -68l4 -22l12 -43l16 -52l35 -120q7 -30 29 -86l12 -52l14 -34l74 -226l25 -96l8 -27l14 -47q1 -2 5 -11t4 -11l4 -13l14 -45l16 -49l11 -33l90 -272l49 -145 q11 -32 -13 -66.5t-55 -44.5q-18 -6 -22 -6l-17 -6q-41 -17 -69 26l-25 68q-7 31 -12 41q-4 8 -4 12l-4 10v-2l-6 19l-13 39l-55 164l-14 34l-23 62l-39 147l-6 27l-51 154q-9 30 -27 79l-33 95l-28 102l-4 18l-6 33l-21 82q-4 14 -14.5 40.5t-14.5 39.5l-20 57l-6 23l-8 24 q-25 77 -31 134z" />
<glyph unicode="]" horiz-adv-x="583" d="M-33 1610v8q0 67 17 84q6 6 14 8q23 6 55 6h234q49 0 64.5 -17t15.5 -57v-133q0 -186 -5 -262q-2 -9 3 -37l4 -86l-2 -45v-57l2 -12v-19q2 -78 2 -346v-61l-2 -35v-29q2 -8 2 -65q2 -23 2 -72q0 -27 -2 -41v-442q-1 -37 -25.5 -54.5t-52.5 -15.5h-250q-27 0 -44 7.5 t-20.5 13.5t-3.5 10q-14 29 -7 90t34 65l96 2h70q0 52 2 66v405l-2 76q0 447 -6 588l2 317v54h-31q-14 1 -24.5 1t-16.5 -1h-6l-68 2q-31 0 -41 21t-10 63z" />
<glyph unicode="^" horiz-adv-x="1011" d="M199 1710l55 66l16 12q13 8 31 33l72 75l12 13q47 47 76 47t78 -49l16 -17q26 -26 29 -30q16 -19 30 -31l48 -45l30 -35l15 -14l24 -27q11 -22 4 -47q-10 -30 -33 -53q-18 -18 -33 -25t-28 -2t-20 10t-19 17l-35 39l-30 30l-39 37l-37 41q-27 -32 -53 -55l-13 -12 q-12 -13 -30 -33l-17 -21l-20 -22l-11 -8q-23 -23 -41 -23q-32 0 -65 41q-43 47 -12 88z" />
<glyph unicode="_" horiz-adv-x="1482" d="M48.5 -85.5q0.5 14.5 2.5 36.5q9 50 28 64.5t83 15.5h354q221 0 379 6q131 0 156 -2l12 -4h18h129q85 0 108 -15.5t23 -87.5q0 -63 -22 -78.5t-100 -15.5q-22 2 -45 2q-34 0 -48 -2h-18l-16 -2q-32 0 -72 4q-55 2 -176 2l-350 -2q-16 0 -39 -4h-17l-59 2l-164 -2h-52 t-40 2.5t-30.5 5.5t-21 10t-14 15t-7 21.5t-2 28z" />
<glyph unicode="`" horiz-adv-x="630" d="M45 1852q-5 17 2 30q5 11 27 45q7 10 11 14.5t11 10.5t14 8t17 1.5t23 -5.5l51 -23l22 -14l10 -6l33 -19l29 -18l6 -4l10 -6q6 -6 13 -6q29 -19 43 -25q13 -6 82 -39q7 -4 30.5 -19.5t38.5 -23.5q15 -10 18 -27t-10 -63q-22 -66 -96 -37l-31 10q-1 0 -13 5t-19 10 q-6 3 -19.5 9t-15.5 7l-13 6l-24 13l-12 8l-17 6l-22 12l-49 31q-16 5 -21 10q-18 9 -50 32t-50 32q-24 18 -29 35z" />
<glyph unicode="a" d="M2 24q-4 6 -4 17q0 18 10 49l12 31l7 14l12 27l6 12l6 16q0 2 2 7.5t2 7.5l19 35v-2q15 31 20 47q7 8 17 34l4 15l32 78l23 45l29 69l30 78l29 76l6 14q22 68 37 99l16 43l43 90l13 28l6 18t11 32t11 28q7 22 23 43q2 4 5 15t5 14l8 20l15 39l8 21q0 15 29 86l6 20 q6 15 6 17l18 43q2 6 8.5 18t8.5 18l8 23l26 45q44 82 89 82q34 0 64.5 -49.5t90.5 -200.5l72 -199l6 -12l21 -69l24 -74l12 -31l15 -41l86 -256l20 -65l17 -47l14 -46q0 -3 6 -18t17 -41t18 -45q3 -7 18 -43.5t21 -54.5l6 -29l2 -12l16 -33l7 -18l16 -54q11 -29 11 -50 q0 -15 -6 -26q-14 -24 -70 -24h-5q-6 0 -18.5 1t-18.5 1l-8 2q-41 0 -64 20.5t-28 51.5q-5 23 -22 45l-7 14q-2 4 -2 6l-14 39q-17 34 -20 43q-7 13 -7 19l-6 14l-10 41q0 2 -2 6l-23 55q-4 4 -4 9q-29 74 -37 110q0 3 -14 31l-8 12h-313q-73 0 -91 -2h3l-25 -2l-2 -4 l-6 -16q-2 -2 -2 -9q-17 -55 -47 -110v2q-3 -13 -9 -19q-6 -9 -24 -51l-12 -31q-3 -9 -16.5 -38t-18.5 -43l-13 -27q-4 -4 -4 -8l-10 -29l-41 -74q-20 -35 -40 -46t-62 -11l-66 2q-39 6 -49 22zM500 731h127q81 0 159 2l-20 60q-4 4 -4 14l-23 72l-18 53l-10 33l-6 18 l-37 141l-13 43l-6 -28l-10 -31q0 -17 -8 -29l-23 -67l-18 -56l-19 -47l-16 -32q-22 -50 -27 -74q-2 -4 -2 -8z" />
<glyph unicode="b" horiz-adv-x="1310" d="M184 516q0 38 4 92q0 7 1 20t1 15v43q1 10 3 16v39q4 46 4 66q1 12 1 29q0 35 -3 92v20q0 1 -1 4.5t-1 5.5v37q-3 44 -3 86v78q0 57 3 94q4 86 4 133q0 31 -2 44v11q1 54 19 74q20 21 87 21h6h37q25 2 76 2h104q98 0 148 -8q2 0 6 -1t6 -1q4 -2 8 -2q11 0 27 -4 q12 -4 14 -4l47 -17l43 -16q56 -17 99 -41q36 -33 84 -86q2 -4 10 -12l33 -50l6 -8q44 -60 47 -180q1 -13 0 -24q0 -52 -10 -90q-14 -46 -50 -93l-55 -53q-66 -41 -121 -55q105 -19 197 -93q38 -38 64 -111t26 -143q0 -44 -8 -77q-27 -142 -146 -252l-45 -29l-12 -8h2 l-24 -14q-100 -49 -205 -58q-76 -6 -326 -6l-51 -2l-74 -2q-47 0 -60.5 18.5t-13.5 71.5l3 154q0 104 -3 131l-2 30v17zM389 659q0 -34 2 -57v-6q0 -2 1 -5t1 -5v-11l2 -24q4 -40 4 -68l-2 -37v-28q-2 -20 -2 -56l-2 -172q39 0 51 -2h41l58 -2q75 0 160.5 25t150.5 57l18 21 q9 9 23 41q30 43 37 78v6q0 22 2 28v56l-2 12q0 4 -4 16.5t-15.5 31.5t-27.5 30l-39 28q-99 46 -187 56q-43 2 -127 2h-86l-57 -2v-13zM395 1239q0 -117 6 -176v-174v-19h97q55 0 80 2h4q87 4 192 50l10 6l27 16q29 13 59 72q27 54 27 87v7q0 27 -12 59l-11 17v-2l-22 33h2 l-45 45q-37 32 -90 49q-89 27 -183 27q-15 0 -30 -1h-111v-98z" />
<glyph unicode="c" horiz-adv-x="1290" d="M82 702q0 121 10 172v-2q16 120 55 235t89 177l30 33l6 6l11 14q6 7 18 25q38 43 68 59h-2q9 5 15 9.5t9.5 7.5t5.5 4l41 33l25 14q102 53 211 57q4 0 12 2l74 2q111 -3 188 -41l101 -53q38 -28 49 -37.5t37 -38.5q8 -9 8 -22q0 -28 -35 -76l-14 -12q-16 -19 -24.5 -26.5 t-27.5 -8.5t-47 12l-37 19q-8 8 -22 14l-43 29l-43 16q-54 14 -94 14l-37 -2q-24 -4 -45 -4q-32 -7 -88 -32.5t-88 -47.5q-48 -50 -131 -170l2 2q-70 -144 -82 -305v-26q-4 -45 -2 -52q3 -76 30 -190q42 -106 64 -143l24 -25q37 -43 64 -68l29 -20q7 -7 19 -13.5t20 -8.5 l8 -3l45 -12q8 -4 26 -4l25 -2q35 -14 162 -14h16l55 14q8 3 27 14t23 13l26 12q9 7 41 29l19 10q25 12 44 12q11 0 20 -4q24 -11 50 -53q13 -24 19 -38q7 -15 7 -32q0 -16 -13 -24l-60 -52q-48 -42 -108 -71l-11 -4h2q-82 -31 -145 -31q-31 0 -49 -2q-30 -3 -55 -3 q-12 0 -23 1q-174 26 -313 90q-68 41 -197 213q-25 41 -49.5 127t-36.5 174v-2q-8 33 -8 110z" />
<glyph unicode="d" horiz-adv-x="1388" d="M190 90v119q0 59 5 309v590l4 143v88l2 72l2 70q-2 27 15 41t54 14h78q139 0 271 -18q235 -39 405 -209l18 -25l48 -51q62 -85 104 -240l6 -24l6 -35q17 -66 17 -148q2 -14 2 -31q0 -32 -6 -79l-7 -78l-18 -74q-2 -21 -27 -78l-18 -38l-8 -17l-8 -14l-21 -39l-18 -21 l-25 -36l-20 -25q-23 -45 -66 -70q-79 -60 -179.5 -111t-187.5 -65q-86 -12 -237 -12q-6 2 -41.5 2t-52.5 -2q-66 3 -81.5 17t-15.5 75zM397 193l135 4q88 0 152 41l64 34l81 60l29 22q28 24 62 68l16 20l18 43q13 24 18.5 36t14.5 41.5t19 74.5q10 40 10 96q0 11 2 17v45 q0 3 -1 10t-1 12q0 4 -1 13t-1 14q-25 109 -41 149l-25 54l-28 45l-41 57l-15 18l-20 29q-32 24 -41 35q-19 18 -41 31l-57 26l-52 12q-3 0 -7 1.5l-12 4.5t-16 5l-28 10q-14 4 -59 7q-27 2 -40 2q-9 0 -12 -1l-73 -2v-104l-3 -31v-109q-4 -46 -4 -67q0 -57 2 -82v-193 q0 -81 -4 -245v-303z" />
<glyph unicode="e" horiz-adv-x="1157" d="M178 748l4 126q0 95 -2 144v90l2 43q0 39 -2 57q-2 29 -2 103q0 98 2 135v8q1 22 3 32.5t10.5 24.5t27.5 19.5t51 5.5q123 0 170 -2q81 -3 115 -3q17 0 23 1q61 4 174 4l139 -2q38 -1 52.5 -2t27.5 -11.5t16 -24.5t8 -48l-2 -33q0 -30 -13 -48.5t-31 -23.5t-38 -7t-34 1 h-9q-67 0 -108 -2q-25 -2 -84 -2q-27 0 -45 -2l-217 -2q-2 0 -6 0.5t-9 0.5t-10 -1q0 -60 4 -96q4 -74 4 -113q0 -36 -4 -82l-1 -4q-1 -4 -1 -8q-4 -56 -4 -88q0 -22 2 -33h148q28 -4 36 -4q34 0 70 4l133 -6q25 -1 40.5 -7.5t22 -19.5t8 -24.5t1.5 -30.5q1 -24 0 -40 t-7 -26.5t-9 -15.5t-17 -7.5t-19 -2.5h-26h-18q-59 -6 -101 -6q-23 0 -41 2h-75q-23 -2 -72 -2l-64 2h-8v-119q1 -5 1 -14q0 -18 -3 -51v-23l-2 -49v-8q0 -24 4 -76q2 -35 2 -115l-2 -57v-4q40 -4 123 -4q8 0 26 -1t27 -1q24 -2 49 -1.5t50 1.5h127l73 -4q6 0 15.5 -1 t11.5 -1q57 -3 69.5 -13t18.5 -63q1 -19 1 -35q0 -38 -6 -50q-8 -16 -44 -28q-6 0 -10 -2q-6 -1 -31 -1q-42 0 -139 3h-195q-104 0 -190 -4h-101q-56 0 -72 23t-16 81v35q2 63 2 187v217q0 61 -2 92z" />
<glyph unicode="f" horiz-adv-x="1118" d="M178 1257v58q0 3 0.5 19t1 43.5t0.5 60.5v9q0 43 17 65q19 24 84 24q237 0 442 -6h80l16 -2q27 2 94 2q44 -5 59 -24.5t19 -80.5q0 -59 -14.5 -75.5t-61.5 -18.5l-106 -2q-106 4 -168 4q-57 0 -82 -2q-20 -3 -50.5 -3t-70.5 3h-43v-258q0 -92 2 -164h47l105 -2h14 q1 0 5 -1t7 -1l46 2q12 -2 14 0h70q5 0 14.5 -1t13.5 -1q50 -2 61 -10q17 -12 21 -61v-15q0 -64 -15.5 -79t-82.5 -23h-58h-32l-27 -2l-94 2h-105v-35q0 -24 5 -102v-144q0 -55 2 -82q4 -50 4 -75v-70q0 -18 2 -45q0 -35 6 -53q7 -40 3 -62.5t-21.5 -32t-67.5 -18.5l-53 2 q-22 -4 -37 0.5t-21.5 19t-9 25.5t-4.5 31v10q-4 25 -6.5 63.5t-2.5 64.5l-1 26q0 19 -4 47q-2 16 -2 61v45q4 44 2 60v26l2 17l-2 88v59q-5 51 -5 141l-4 146q-8 200 -8 327z" />
<glyph unicode="g" horiz-adv-x="1333" d="M90 711q0 112 10 176v20l6 60q11 83 41 137q33 76 88 162t99 123l14 10l17 14q5 3 38.5 27.5t47.5 32.5q133 71 245 71h9q87 -2 133 -11t100 -38q118 -71 141 -100q19 -27 19.5 -48t-19.5 -57q-16 -36 -34 -47.5t-46 -11.5q-21 0 -45 20q-1 1 -7 6t-11 7l-25 14l-28 16 l-54 21l-16 4q-47 16 -104 16q-27 0 -45 -4q-115 -22 -203 -117q-4 -4 -39 -49l-14 -22q-67 -94 -82 -152q-26 -132 -33 -241q-1 -15 -1 -30q0 -62 13 -130q16 -86 45 -148l21 -39l20 -30h-2l14 -15q60 -60 91 -84q99 -51 133 -61l20 -8q14 -4 29.5 -5t36.5 0t22 1 q77 0 154 47l14 10l12 8l5 4v148q0 49 -2 51l-3 70v34q0 11 1.5 33t1.5 33q2 30 2 59.5t-2 57.5v37q0 34 2 49.5t12.5 28.5t31 16t58.5 2q51 -1 67 -20t21 -64q2 -15 2 -113v-117q4 -94 4 -141q0 -32 -4 -72q0 -16 2 -61t2 -63q0 -32 -4 -48q-7 -23 -32.5 -49.5t-51.5 -44.5 l-14 -14q-133 -92 -278 -92h-15h-43q-29 0 -43 6q-75 10 -117 29l-10 2q-26 7 -43 14q-41 17 -75 38t-49.5 33.5t-57.5 49.5q-40 43 -74.5 98.5t-42.5 85.5q-8 11 -19 35t-14 37l-18 49q-25 118 -25 244z" />
<glyph unicode="h" horiz-adv-x="1404" d="M186 451q-2 16 -2 33t2 34q0 56 2 64v338q0 41 2 57v65q-2 14 -2 43q0 60 2 89q3 27 3 49l2 49q2 16 2 39q2 18 2 86v33q0 25 0.5 35.5t3 25.5t8.5 20.5t16.5 12t27 8.5t40.5 2h20q32 -4 42 -6t25 -10t19 -22.5t5 -41.5v-39q0 -3 1 -10t1 -10v-17q0 -4 -1 -13.5t-1 -14.5 l-3 -47v-80q-2 -63 -2 -148q0 -61 -2 -102q0 -3 -1 -13t-1 -14v-59h256q21 0 59.5 1t51.5 1q25 -2 55 -2q33 0 60 4h20l19 2q0 71 -3 74q0 47 7 141q0 147 -2 149l-2 60l4 137q4 53 24 69q17 13 69 13h21q54 -3 69 -20.5t15 -57.5v-186q0 -90 2 -133v-131l2 -15 q0 -294 2 -411v-195q0 -61 7 -164v-149v-8q-1 -28 -13 -44q-14 -18 -69 -22l-37 -2q-25 0 -40 2t-30 14.5t-16 36.5v113l-2 65l-4 177q0 110 -7 264v12q-8 0 -28 4q-33 3 -51 3q-10 0 -15 -1l-5 -1q-4 -1 -9 -1h-23q-78 -3 -116 -3q-23 0 -31 1q-63 0 -92 2h-35q-4 0 -12 -1 t-11 -1q-20 -4 -34 -4h-58q-2 -27 2 -57v-97l2 -100q-2 -23 -2 -74q0 -57 2 -104q0 -133 2 -164q2 -34 -8 -55t-27 -27q-16 -4 -34 -6q-5 0 -10 -1q-13 0 -25 3h-16q-44 0 -64.5 14.5t-21.5 50.5v87l-5 53q0 80 -2 125q-2 23 -2 123z" />
<glyph unicode="i" horiz-adv-x="583" d="M170 1206v54q0 26 2 38q0 6 1 16t1 11v127q0 56 23 72q18 13 55 13q11 0 24 -1q67 -6 83 -18.5t16 -71.5v-6q1 -17 1 -38q0 -34 -3 -79q-2 -14 -2 -53q0 -42 -2 -62v-20q0 -3 2 -60q4 -106 4 -344v-385q0 -6 2 -16v-12q5 -38 2 -58q0 -31 -2 -39v-18q4 -18 4 -55l2 -19 q2 -12 2 -37v-28v-29.5v-25.5q-1 -22 -9.5 -36.5t-30 -21t-60.5 -6.5q-26 0 -44 2.5t-29.5 11t-18 16t-9.5 25.5t-3.5 32t-0.5 42l-2 8v60q-4 51 -4 170v75q2 39 2 119q0 99 -2 148v90q0 15 -1 46t-1 46v24q0 9 1 29t1 27v96q-2 14 -2 51q0 57 -2 90z" />
<glyph unicode="j" horiz-adv-x="753" d="M-14 258v21q0 57 14 77q17 23 84 23q57 0 72 -13.5t22 -74.5l2 -27q12 -58 58 -80q18 -6 28 -6h27q37 11 55 56q13 34 13 73q0 11 -1 23v39l2 20v8l-2 41q5 63 5 78v189q-5 62 -5 73l-4 96l-2 181q-6 45 -6 76q0 17 2 30v86q-2 16 -2 51v142q0 21 3 36t6 25.5t13.5 17 t14 9.5t20.5 4.5t21.5 1.5h26.5q52 0 66.5 -20t19.5 -97q-1 -6 -1 -15q0 -19 3 -50q2 -16 2 -47v-35q0 -37 2 -64l2 -22v-45q2 -18 2 -66l2 -18v-140l2 -79q0 -154 4 -201q2 -27 2 -92v-84q0 -59 -4 -82v-6q0 -15 -2 -23q-2 -4 -2 -33q0 -27 -2 -39q0 -47 -2 -53 q-3 -30 -12 -55q-4 -32 -25 -67t-49 -62q-24 -21 -103 -43q-33 -8 -90 -8q-100 0 -153 32q-27 22 -56 54.5t-43 60.5l-10 25q-18 52 -20 98z" />
<glyph unicode="k" horiz-adv-x="1234" d="M188 90v295q2 10 2 51v80l3 45v53q1 19 1.5 33t0 19.5t-1 10.5t-0.5 7v47q0 36 0.5 64t1 42t0.5 17v8l-7 178q0 29 2 37v185q0 11 1.5 46t1.5 48v16l-5 70q0 62 16.5 78t84.5 16q57 0 74.5 -10t23.5 -58q4 -33 4 -125l4 -112q-3 -73 -3 -117q0 -26 1 -41v-63v-62l101 105 l24 30l53 56l72 69q4 6 14.5 18.5t14.5 18.5l6 10l31 37q34 29 59 62q4 6 31 28q37 33 49 52l74 65q8 8 14 13t10.5 9t9.5 6.5t7.5 4t8.5 2.5t7.5 1t10 0.5t11.5 0.5q22 2 40 2t32 -2q57 -2 57 -32q0 -17 -20 -44l-33 -39l-35 -43l-43 -51l-55 -63l-57 -60l-99 -110 l-116 -121q-40 -47 -84 -90l-64 -64l-30 -35l-7 -6l5 -2l79 -84l295 -311l80 -88l53 -60l25 -26l45 -49q64 -69 84 -99q15 -23 15 -37q0 -22 -38 -22h-102q-48 0 -68 9.5t-51 41.5l-24 23l-27 24l-37 35l-22 25q-33 27 -56 55l-47 51l-53 58l-20 26l-101 92l-18 23l-27 31 l-10 10l-27 24q-9 10 -32 41q-11 11 -13 15q0 -267 -6 -516q-1 -48 -20.5 -59t-81.5 -11q-54 0 -76.5 18t-22.5 74z" />
<glyph unicode="l" horiz-adv-x="1103" d="M178 852q0 47 2 70q-2 20 -2 65q0 29 2 45q0 23 2 27q0 3 1 8t1 6l2 313l2 68q0 36 11 52.5t49 23.5q24 4 63 4q55 0 70.5 -25t15.5 -92l-2 -231v-49q-6 -42 -6 -60v-471l2 -102q-2 -29 -2 -80q0 -42 2 -62l-2 -81v-37v-2q0 -1 0.5 -3.5t1 -7t0.5 -14v-22.5q23 2 90 2h41 q45 0 76 -2h12q12 -1 26 -2t23 -2t13 -1l219 7q51 0 74.5 -13.5t23.5 -60.5l-2 -57q0 -41 -12.5 -52.5t-42.5 -11.5h-90q-20 -2 -62 -2q-48 0 -73 2h-56q-14 2 -33 2q-26 0 -61 -4q-23 -2 -72 -2l-79 2h-19h-1q-15 -2 -99 -2h-13q-50 0 -68 21q-20 24 -24 83q-2 51 -2 211 l6 168q1 19 1 46q0 54 -3 141v84q0 5 -1 15.5t-1 16.5q-4 50 -4 68z" />
<glyph unicode="m" horiz-adv-x="1759" d="M180 1217l4 215v12q0 48 14 70q16 24 70 24q24 0 40 -9.5t46 -47.5l60 -72l18 -27l57 -73l27 -39l27 -41l28 -45q22 -36 56 -76l53 -74l16 -20l29 -35l37 -57l16 -31l47 -60l15 19l14 14q2 3 7 13t9 16l31 49l64 84q4 7 14 22.5t14 22.5l15 16q14 20 34.5 47t32 43.5 t17.5 28.5q45 68 47 74q38 44 78 111l73 94q15 24 46 39q29 14 59 14h4q18 -1 29 -3t24.5 -8t20 -19.5t6.5 -34.5q0 -76 2 -101q1 -12 1 -36.5t-1 -35.5v-10l-1 -20q0 -19 -0.5 -66.5t-0.5 -116.5q1 -7 1 -23q0 -26 -3 -77v-156q0 -149 -2 -221q-2 -27 -2 -104v-127 q0 -9 -1.5 -31.5t-1.5 -38.5q0 -45 3 -100l2 -29v-100q0 -42 -15.5 -61t-44.5 -21h-21q-22 0 -48 2q-47 6 -61 29t-17 90v61q-2 20 -2 66l-2 53v336l4 55q3 16 0 39v127q2 45 2 154l-2 102l-54 -76l-51 -80q-40 -73 -55 -90l-31 -35q-7 -11 -73 -106q-7 -8 -39 -53l-4 -4 l-15 -23l-26 -33l-19 -20q-3 -4 -11 -13.5t-12 -13.5t-11 -11.5t-11.5 -11t-10.5 -7.5t-11.5 -5.5t-10.5 -1.5q-21 1 -45.5 25t-38.5 47l-16 25q-1 1 -6.5 5.5t-9.5 8.5t-5 6l-28 45l-33 41q-22 36 -27 41q-136 182 -163 219q-3 4 -64 105l-10 20v-6q1 -28 5 -89t5 -91 q4 -102 4 -160v-68q0 -79 2 -104v-139q0 -93 -2 -111v-82q0 -144 6 -209q0 -29 -12.5 -43t-44.5 -14h-43h-8q-29 0 -41 1.5t-25 9.5t-18 26t-6 51q-4 102 -4 209v84q4 34 4 180q0 47 -4 121q0 18 -2 43l-3 41q-3 46 -3 70q0 14 1 20v64q0 84 -4 190q0 25 -4 107z" />
<glyph unicode="n" horiz-adv-x="1462" d="M178 1128v62l2 94l-2 178q0 39 17.5 55.5t52.5 16.5q52 0 79.5 -16t53.5 -58l61 -92l25 -43q4 -6 19 -27t22 -32l57 -92l49 -87l35 -59l8 -12l27 -45l8 -17q37 -71 88 -143l62 -109l26 -36l74 -142l53 -114q-3 62 -10 176l2 131v153q-2 55 -2 164q0 49 -2 78 q-3 69 -3 120q0 25 1 46l6 147q6 67 23 86.5t73 22.5q39 0 61.5 -5t32 -18t11.5 -24.5t2 -36.5v-8l2 -82q0 -71 -2 -96l-4 -308l2 -51v2q2 -10 2 -55v-262q-3 -22 2 -41v-361q2 -16 2 -53v-55q0 -80 -82 -80q-27 0 -47 9.5t-30.5 20.5t-24.5 31l-64 93l-18 26l-74 109 l-98 147l-17 31q-4 9 -47 80l-12 20l-43 78l-21 37l-57 78l-41 80l-16 26l-94 183l-39 81l8 -116q1 -14 4.5 -52.5t3.5 -48.5l2 -69l2 -15l-4 -127q0 -20 2 -32v-13l2 -20q2 -29 2 -86v-27l-2 -143q-5 -40 -2 -55l6 -35l4 -53v-48q0 -16 2 -36l2 -11l-2 -59v-7 q1 -49 -13 -61q-14 -14 -60 -16q-2 0 -7.5 -1t-7.5 -1h-28q-43 7 -60 24t-20 54q-4 40 -4 96q-2 14 -2 70q-4 54 -4 77l-3 127l-2 158v27l-4 110q-4 31 0 58v131l-2 53v23q1 9 1 21q0 24 -3 60q0 9 -1 23t-1 18z" />
<glyph unicode="o" horiz-adv-x="1370" d="M121 829v115q2 15 4 21v28q0 7 2 17v26q2 12 2 25q4 24 4 43q23 171 143 291q73 70 143 106.5t173 42.5l55 2h23q6 0 10 -2h10q97 -7 167.5 -42.5t146.5 -98.5q127 -124 151 -297q0 -15 4 -31v-20q0 -7 2 -19v-47q4 -24 4 -43l2 -78v-231q0 -50 -4 -70q-2 -8 -2 -20 q0 -69 -6 -113q-2 -4 -2 -6q-2 -4 -2 -8q-25 -113 -57 -168q-80 -130 -146 -174l-108 -49l-43 -17q-56 -17 -160 -24h-41q-85 5 -129 24q-81 37 -155 100t-117 132q-24 45 -45 123.5t-25 152.5q-2 27 -2 88v74q0 96 -2 147zM319 575q3 -37 21 -122q3 -33 6 -39 q53 -100 100 -144q41 -38 73.5 -51.5t90.5 -19.5q27 0 37 -2q84 9 115 30l57 29q3 1 9.5 5t9.5 5l20 21q44 50 80 139q2 4 2 16l6 39q4 43 8 54q0 1 1 3t1 3q9 23 9 55v115q-2 16 -2 49q0 116 -13 272q-11 146 -102 217q-88 85 -191 88h-41q-18 0 -24 -2l-27 -2 q-80 -30 -121 -69q-55 -33 -81.5 -116.5t-34.5 -234.5q-6 -63 -6 -112v-176q-3 -30 -3 -50z" />
<glyph unicode="p" horiz-adv-x="1222" d="M186 1399v37q0 33 1.5 46.5t9.5 28.5t25.5 19t49.5 4l148 2q25 -2 29 0q171 0 256 -16q84 -12 180 -82l30 -25q3 -3 15 -12.5t15 -12t12.5 -10t13 -12.5t10.5 -13.5t12 -17.5t11 -20q20 -27 37 -85t22 -106q4 -28 4 -57q0 -35 -4 -63l-4 -17q-15 -66 -52.5 -125 t-76.5 -98q-44 -46 -125.5 -85.5t-145.5 -39.5q-59 0 -92 -2q-62 -4 -96 -4h-74v-41q0 -70 11 -182l6 -56q4 -43 4 -145v-137q0 -38 -21 -56t-92 -18q-31 1 -45.5 3.5t-30 13.5t-21 34.5t-5.5 63.5q2 35 2 116q0 95 -6 150q-4 53 -4 182v152v121v210v33v25q-5 45 -5 59v101 q0 127 -4 137zM397 1331q0 -3 1 -9t1 -9v-25q2 -20 2 -78q0 -49 2 -67v-23q5 -68 5 -80q0 -10 -1 -17l-1 -7v-94q-3 -43 -3 -80v-4h113q78 0 113 4h26l33 8q63 30 82 49l21 14l22 27l18 39q6 6 15 47q6 25 6 47q0 49 -22 98t-44 70q-22 22 -58 44.5t-64 29.5q-68 16 -222 16 h-10l-16 1q-17 0 -19 -1z" />
<glyph unicode="q" horiz-adv-x="1372" d="M121 834v53q0 33 2 43q2 8 2 22q0 1 1 3t1 3v58q2 10 2 16v43q4 16 4 29q13 98 48.5 168t97.5 129q77 67 146 102.5t167 40.5l53 2h23l22 -2q104 -7 170 -41.5t135 -97.5q67 -61 106 -132t52 -167q0 -15 4 -31v-20l4 -25q0 -19 2 -29v-133q4 -14 4 -34l-2 -105 q6 -41 6 -92q0 -50 -4 -70q-2 -8 -2 -20v-23q0 -3 -1 -9t-1 -9q-4 -40 -4 -66q-31 -134 -67 -180l-7 -8l-26 -39h2q-15 -29 -49 -63l14 -15l35 -35q12 -13 8 -35.5t-19.5 -43t-35 -39t-38.5 -23.5q-7 -2 -13 -2q-11 0 -19 6l-76 76l-55 -19q-35 -20 -69.5 -26t-108.5 -6h-39 q-86 5 -131 24q-188 83 -262 213q-28 55 -51 137.5t-27 157.5q-2 27 -2 88v74q0 101 -2 152zM319 575q7 -87 11 -110l16 -51q63 -118 100 -150q39 -35 67.5 -46t92.5 -21q21 0 33 -2q72 9 94 16q-6 8 -25 30t-26 31l-8 9q-10 20 2.5 47.5t35.5 46.5t48 28t41 -8l82 -84 q9 12 13.5 17.5t7.5 10t3.5 5.5t2 5.5t3.5 8.5l11 25q4 22 8 31l8 22q21 98 23 131v13q0 2 1 6t1 6v106q-4 32 -4 54q0 112 -9 274q-16 152 -102 219q-92 89 -193 92h-41q-16 0 -24 -2q-53 -12 -79 -26t-56 -41l-45 -35q-40 -35 -59.5 -88t-20.5 -164v-16q0 -51 -6 -74v-27 q0 -2 -1 -5t-1 -5v-8q-2 -12 -2 -45v-176q-3 -30 -3 -50z" />
<glyph unicode="r" horiz-adv-x="1304" d="M186 1219l2 229v9q0 75 62 75h143q54 4 82 4q26 0 62 -4h30l31 -2h51q96 -8 162 -39q59 -14 121 -57q98 -86 151 -234q15 -46 15 -104v-17q0 -50 -2 -75l-9 -33q-3 -31 -28 -88q-59 -106 -90 -131q-46 -51 -111 -78l12 -25q20 -58 41 -82l21 -41q9 -21 24 -51l21 -37 l6 -12l6 -10l33 -76q22 -38 29 -55l26 -45l21 -41l14 -27q6 -6 16 -33q28 -50 37 -78q5 -16 5 -27q0 -18 -12 -24q-20 -10 -79 -10h-39q-76 0 -92 35l-8 14q-6 12 -6 14l-33 58l-4 12l-12 19l-13 20q-11 17 -16 29q0 1 -10 26l-17 31l-4 18q-12 16 -12 25l-18 31l-74 143 l-21 43l-32 70q-25 39 -29 51q-33 0 -45 -4q-12 -2 -41 -2q-23 -2 -74 -2l-69 6h-2q0 -8 -1 -23t-1 -22q-3 -47 -3 -103q0 -66 7 -127q2 -51 2 -161l2 -80l-2 -45q0 -53 -21.5 -65.5t-89.5 -12.5h-14q-43 0 -61 11q-20 13 -21 67v125q0 35 -2 55q0 2 -1 7t-1 7v84 q-4 49 -4 172v201q-2 4 -2 127l-2 33v8q-5 94 -5 111l2 53q0 24 -2 45q-2 33 -2 115zM393 1151q0 -26 4 -76v-26q0 -19 4 -23q5 -70 5 -119v-26q-1 -10 -1 -20t1 -17v-8h96q127 0 196.5 11t120.5 44l23 27l6 14l14 24l6 15q21 46 21 100v31q-3 20 -17 53q-31 55 -79 107 q-59 42 -126 54.5t-153 12.5h-117q0 -3 -1 -9t-1 -7v-10q-3 -74 -3 -115q0 -25 1 -37z" />
<glyph unicode="s" horiz-adv-x="1171" d="M131 344q35 40 61 46t54 -17l45 -33l28 -27l33 -26q5 -4 19.5 -15t21.5 -18l29 -16l14 -5q40 -20 66 -20q16 -4 36 -4q30 0 68 10l23 8q2 0 8 2l20 4q45 22 56 35q46 41 53 92v74q-3 35 -13 59t-40 64q-14 21 -49 39l-35 25l-21 16l-33 25l3 -3q-2 1 -6.5 5.5t-6.5 5.5 q-22 19 -37 24l-34 17l-39 18q-24 9 -39 21q-49 20 -62 30q-156 83 -211 203q-24 50 -32 107q-1 16 -1 31q0 53 11 99q14 59 31 87q25 44 89 103t130 97q76 37 191 37h18q43 -1 81.5 -12t58 -21.5t52.5 -31.5l19 -13q87 -90 112 -127q37 -51 37 -77q0 -18 -20 -58l-15 -16 q-31 -39 -62 -39l-40 16l-17 15l-20 26l-29 33q-22 20 -47 47q-34 25 -51 31l-29 8q-8 4 -61 4q-12 0 -22 -0.5t-17 -1.5t-16 -3.5t-13 -3.5t-13 -5t-11.5 -5.5t-13.5 -7.5t-15 -8q-36 -24 -69 -63t-40 -72q-7 -17 4.5 -52.5t28.5 -59.5q49 -42 117.5 -85t116.5 -57 q187 -111 200 -119l37 -28q44 -37 79 -92t50 -109q19 -77 21 -133q1 -16 1 -31q0 -158 -87 -250q-46 -46 -78.5 -72.5t-94 -52t-136.5 -32.5h-8q-37 0 -112 16q-83 18 -112 39q-13 4 -28.5 13t-35.5 23t-28 19q-4 0 -10 6l-82 72l-43 49q-23 26 -23 53q0 29 35 68z" />
<glyph unicode="t" horiz-adv-x="1132" d="M61 1427q0 63 13.5 83.5t70.5 21.5h179q12 0 43 1t51 1q61 0 96 2q27 2 48 2t36 -2q50 -4 111 -4q84 0 120 4h68l39 -2q34 -1 46 -24t15 -85q0 -90 -65 -90h-129q-57 0 -88 -2q-16 -2 -68 -2v-53q2 -14 2 -45v-57q-4 -29 0 -50q0 -79 -2 -114q0 -62 -4 -94v-48 q-2 -33 -2 -67q0 -14 4 -68v-51q4 -42 2 -47q-1 -18 -1 -43q0 -50 3 -127l2 -49v-105q0 -88 2 -123v-28l2 -8l2 -68q0 -56 -17 -72q-16 -15 -79 -14h-8q-26 1 -41.5 3t-31 9t-22.5 21t-7 37l-2 112q-3 21 -3 70q0 90 3 137q-3 21 -3 45v58q0 89 -2 124v54q0 36 -4 65l-2 201 v20q0 15 2 19v20q4 20 4 49q0 23 -2 41q-2 33 -2 107v29l-2 108q-18 0 -22 2q-3 0 -11 1t-10 1h-8l-63 -4h-170q-58 0 -75.5 16.5t-17.5 81.5z" />
<glyph unicode="u" horiz-adv-x="1411" d="M150 559q0 1 1 5t1 9v127q0 78 6 136q0 34 -2 36q-4 40 -4 95v51q-2 22 -2 45t2 45v18q0 11 2 17v139q3 53 3 95q0 25 -1 46v15q0 58 22 76q24 20 84 20q70 0 88.5 -17t18.5 -69v-121q0 -96 -4 -184v-129l4 -213v-123q-4 -74 -4 -125q0 -80 12 -150q32 -102 80 -127 q37 -35 92.5 -57t99.5 -22q11 0 78 10l16 4l13 2l35 10q16 5 59 27q2 2 8 6.5l8 6t6.5 5.5t7 7t5.5 7.5t6 10.5q34 55 39 74l10 34l6 21q19 80 19 170v57q0 53 2 86v19q4 32 4 49v35q0 102 -4 149q-2 27 -2 78v207q0 25 4 45v57q0 8 1 30t1 28q0 68 21 85t79 17 q32 0 46.5 -2t29 -11t19.5 -29t5 -56v-103q0 -3 -1 -9t-1 -9v-62v-30q-2 -29 -2 -78q0 -55 2 -80l2 -213v-104q-2 -37 -2 -125v-97q0 -54 -8 -120q0 -2 -1 -9t-1 -8l-16 -49q-17 -56 -46 -116.5t-57 -88.5q-79 -75 -167.5 -110.5t-206.5 -36.5q-99 0 -172 22 q-124 38 -207 136t-119 229q-18 73 -18 184z" />
<glyph unicode="v" horiz-adv-x="1413" d="M10 1499q0 17 22 27t72 10q57 0 85 -12.5t44 -55.5q2 -3 7.5 -11.5t9.5 -15.5t6 -11l6 -15l33 -59l35 -94l16 -66l12 -27l19 -51q3 -13 12 -22l37 -76l78 -195l41 -116l6 -19l18 -41l15 -37l10 -20l22 -74l9 -20l32 -92l2 -11q0 3 1.5 9t1.5 8l16 53l20 63l25 74l14 41 l8 16q14 25 17 37l51 123l18 53l31 72l21 49q53 107 65 156q4 13 17 42.5t25 52.5l11 24q2 7 10 23.5t9 19.5q26 41 37 75l20 50l25 43q12 28 29 40.5t53 16.5h45q15 1 21 1t19.5 -0.5t19 -2t14.5 -4t12 -7t7 -11.5q3 -6 3 -15q-1 -1 -1 -2q0 -10 -3 -22q-11 -42 -33 -87 l-24 -47l-9 -16q-23 -44 -55 -129l-10 -23q-6 -12 -8 -20l-29 -82l-18 -37l-19 -37q-8 -34 -16 -49l-6 -14l-23 -49l-16 -35l-41 -96l-27 -60l-18 -37l-13 -32l-16 -45l-39 -103q0 -1 -2 -8.5t-6 -13.5q0 -1 -5 -12.5t-5 -12.5q-3 -11 -23 -61l-14 -27l-25 -64l-4 -14 q-4 -8 -4 -12l-14 -39q-9 -31 -25 -59l-33 -74q-2 -2 -4 -8l-22 -41q-19 -35 -60 -35h-6h-3q-16 0 -26 10q-10 12 -36 57l-43 93l-25 53l-4 14q-8 20 -8 23l-17 32l-12 39l-10 33q-6 6 -6 10l-4 11l-21 43l-28 69l-5 15l-6 14q-23 45 -94 231l-4 17q-42 120 -64 166l-14 43 l-18 51q-28 44 -47 108l-13 37l-32 72l-11 25q-5 11 -14 34l-8 23q-2 4 -2 6l-11 29l-6 20l-12 27l-27 59q-8 24 -8 41z" />
<glyph unicode="w" horiz-adv-x="2291" d="M39 1482q1 12 7 24q8 14 33 21t68 7h23q14 1 26 0t22 -4.5t18 -13.5t14 -27l33 -72l4 -16l10 -29l14 -35q7 -28 13 -34l10 -27l14 -43q8 -40 29 -88l37 -92l16 -49l31 -84l20 -46l60 -149q6 -15 13 -40t7 -26l6 -20l15 -39l6 -12q18 -47 28 -76l25 -72l10 -37l35 140 l31 84l6 14l12 31q0 2 2 7.5t2 6.5l9 21l34 98q1 3 8.5 18.5t8.5 20.5l6 14l10 21l8 28q9 17 11 27l8 33l24 57l15 45l16 47l49 117q7 7 12 33l-14 43l-8 24l-8 25l-19 53l-12 41q-10 25 -10 42q-1 18 11 28q18 15 72 14h19q34 -2 51 -5.5t32.5 -14.5t23.5 -33l41 -82 l28 -82q6 -15 23 -49q2 -4 6 -17.5t6 -17.5q0 -15 6 -21l6 -18q7 -25 25 -72l4 -18l8 -21l121 -290l14 -37l5 -21l4 -12l4 -14q10 -47 28 -82l13 -23l10 -28q0 -7 6 -13l6 -16l37 -123l6 16l25 86l45 134l53 147q1 3 5 12t7 16t4 11l9 14q15 38 16 41l19 41l10 37l35 86 l12 29l8 22l18 47l41 103l54 125l41 82q8 20 21.5 33.5t31.5 19t32 7t33 1.5q67 0 85 -16q12 -11 12 -31q0 -8 -2 -16q-1 -5 -14.5 -39.5t-16.5 -47.5l-21 -49l-18 -59l-20 -47l-21 -45l-25 -62l-45 -100l-22 -72l-33 -67l-29 -84q-1 -2 -8 -23q-12 -39 -24 -61l-19 -41 l-6 -17l-70 -178l-10 -35l-6 -22l-8 -18l-29 -72l-31 -92l-57 -158q-22 -49 -22 -51q-14 -29 -24 -36t-30 -7q-22 0 -36 9.5t-27 35.5l-35 69l-6 15q-3 10 -12.5 29.5t-12.5 27.5l-26 74l-11 29q-3 7 -9 24.5t-7 20.5q-3 12 -14 34q-31 69 -45 107l-17 35q-68 153 -96 241 l-4 17l-25 69l-10 19q-17 39 -26 65l-21 54l-6 18l-6 -22q-6 -14 -12 -33t-9 -31l-2 -12l-33 -84l-10 -27l-30 -76q-13 -27 -17 -45l-63 -186q-4 -15 -52 -131l-28 -88q-7 -26 -17 -45q-7 -13 -14 -39l-33 -74l-18 -35q-14 -25 -17.5 -31t-11.5 -16t-14 -12t-17 -4 q-20 -3 -33.5 9t-29.5 42q-2 6 -51 104q-16 32 -37 86q-21 42 -27 58l-12 35l-10 20l-29 68l-16 53l-31 80q-36 75 -66 158l-12 34l-29 74l-10 25q-1 5 -4 11.5t-4 8.5l-18 49l-11 33l-18 51l-29 72l-4 20l-10 45l-43 97l-10 32l-17 50q-7 7 -10 26l-14 35l-8 21l-17 47 l-2 10v-2q-8 25 -8 38z" />
<glyph unicode="x" horiz-adv-x="1220" d="M14 55l27 43q0 1 2 5.5t2 5.5q17 30 25 41q15 33 24 47q0 1 2 5t2 5l21 31q19 28 36 57t24 44l7 15l13 21l51 78l43 75l39 60l41 53q0 6 6 12l6 17l21 37l43 71l-46 82l-24 43l-29 53l-33 66l-47 68l-53 104l-22 37l-25 51q-5 9 -20.5 41.5t-24.5 50.5l-10 25l-6 14 q-2 4 -15 28.5t-18 37.5q-11 32 7 44.5t60 12.5l72 -2q65 0 94 -76l35 -59l25 -45l100 -189q0 -4 35 -71l43 -74l24 -47l52 106q56 112 63 119l4 8q4 4 4 8l27 56l22 37q61 112 64 120q1 1 4 9.5t4 9.5l10 18l23 31q14 20 29 29t41 10q27 2 54 0.5t47 -5.5t29.5 -17t2.5 -35 l-41 -91l-11 -18l-12 -27q-11 -21 -26 -57q-5 -11 -14.5 -30.5t-12.5 -26.5q-6 -14 -20 -37.5t-19 -34.5l-29 -51l-26 -47l-25 -47l-37 -66q-3 -6 -15.5 -28.5t-17.5 -32.5l-18 -29l-18 -33l-25 -43l35 -51l57 -92l23 -33q5 -7 34 -52t44 -69l69 -119q4 -4 11 -14.5 t19 -33.5t21 -38q2 -3 11 -18t12 -18l24 -43q39 -59 70 -119l10 -25q7 -12 7 -21q0 -24 -47 -31q-24 -3 -93 -3q-70 5 -92 41l-45 80l-23 26l-32 56l-23 35l-26 43l-25 36l-29 56l-10 16l2 -2l-12 18q-3 4 -12 17.5t-13 17.5l-16 29l-8 10l-23 45l-35 62l-37 -70 q-8 -14 -20 -43l-18 -27l-7 -8l-16 -30l-10 -21l-17 -27l-41 -59l-36 -59l-76 -123l-19 -35q-2 -4 -11.5 -16.5t-14.5 -20.5q-16 -21 -33.5 -31.5t-29.5 -12t-36 -1.5h-75q-35 0 -52 12q-10 7 -10 21q0 9 4 22z" />
<glyph unicode="y" horiz-adv-x="1329" d="M4 1489q-2 7 -2 13q0 19 21 26q22 8 69 8h21q42 0 61 -11t35 -38l53 -84l35 -55l4 -9l8 -12l41 -65l21 -35l57 -109l14 -24l29 -41l25 -35l43 -78q4 -5 7.5 -10.5t6.5 -12.5t6 -12l12 -22l15 -31l16 -18l19 -31q5 11 18 33t18 34l15 27l20 35l51 76l78 118l31 60l18 28 l29 37q3 7 12.5 21t12.5 20l51 92l37 66l30 51q12 31 93 35h20q43 0 63 -7q26 -9 26 -28q-1 -20 -15 -51l-74 -154q-28 -44 -35 -61l-14 -25l-21 -39l-12 -24l-20 -35q-65 -97 -80 -115q-2 -4 -21 -33.5t-28 -43.5l-41 -72q-33 -59 -43 -82l-60 -92l-55 -76v-88q0 -18 2 -43 v-31l2 -102l2 -17v-69q-2 -39 -2 -168q1 -50 -20.5 -65t-73.5 -15q-65 0 -86 20.5t-21 71.5v131q-4 70 -4 113v16q-2 7 -2 15q-2 21 -2 39t2 32q4 13 0 49q-4 24 -4 45v58q-12 19 -26.5 37.5t-20.5 29.5l-8 11l-33 57l-14 29l-54 80l-12 20l-53 98q-56 100 -98 152l-97 178 l-16 27l-35 73q-30 46 -47 107z" />
<glyph unicode="z" horiz-adv-x="1206" d="M16 43q0 29 35 86l58 96l30 56q148 224 148 233l28 43l27 43l59 102l70 113l59 92q5 11 21.5 41.5t21.5 42.5l72 111l43 55l10 21l39 67q7 7 13 19l10 22l10 17l23 26l-218 -6q-14 2 -26 2q-20 2 -41 2q-74 2 -156 2h-108l-92 -2q-28 -1 -41 24.5t-15 61.5v37 q0 35 13.5 53t60.5 23l25 4q66 4 108 4h162q61 -4 65 -4h99l39 -2h155q29 0 64 -2h63q12 -1 29.5 -2.5t26 -2.5t20.5 -3t17.5 -5t11.5 -8t8 -12.5t2 -17.5q0 -41 -10 -66l-47 -106l-17 -33l-20 -37l-27 -41l-47 -70q-12 -24 -72 -121l-20 -34l-31 -43l-29 -45l-10 -17 l-96 -162l-25 -53l-20 -33l-27 -43l-51 -92l-10 -16l-37 -68l-16 -24l-29 -41l-43 -66l-47 -65h69l50 -4q44 3 72 3q17 0 28 -1q6 -1 18.5 -0.5t33.5 1.5t28 1h112q3 0 7 1t6 1l98 -2q1 0 8.5 -0.5t19.5 -1t23 -0.5h56q23 -2 41 -13q22 -16 22 -67q0 -39 -13.5 -73.5 t-35.5 -37.5q-20 -2 -115 -2q-49 2 -104 2q-58 0 -74 -4t-84 -4q-106 0 -160 4q-18 -2 -51 -2l-82 2q-55 0 -57 -2h-29q-20 -1 -54.5 0.5t-45.5 1.5h-8h-14.5h-15.5t-14 0.5t-14 1.5l-12.5 2.5t-11.5 5t-8 7.5t-5.5 10t-1.5 14z" />
<glyph unicode="{" horiz-adv-x="665" d="M59 737q0 31 50 64l22 14q31 21 33 27l31 26q51 74 51 172q0 26 -10 62l-5 33q-22 90 -22 161q0 155 131 283q42 44 104.5 77t118.5 42q44 9 73.5 -6.5t43.5 -75.5q6 -42 0 -53.5t-39 -26.5l-16 -10l-31 -17q-49 -25 -102.5 -71t-71.5 -82q-14 -28 -14 -49q6 -49 20 -123 q17 -78 20 -156q3 -133 -63 -231q-15 -20 -66 -54l-6 -4q5 -5 23 -14l35 -29q25 -27 42 -53t21 -39l4 -12q4 -27 4 -84v-12q0 -49 -14 -107l-12 -63l-8 -27q-10 -36 -11 -55q-2 -23 -2 -37v-27q3 -62 52 -110.5t112 -77.5l41 -19q2 -2 21 -12t20 -10q42 -23 49.5 -46.5 t-12.5 -62.5q-21 -45 -43 -56.5t-64 -2.5l-88 35l-30 16q-36 18 -63 34.5t-66 50.5t-64.5 72t-44 97t-18.5 127q0 63 12 98q10 33 10 54l6 28q19 90 19 97v24q1 28 -25 61t-67 56l-19 16l-6 4q-66 45 -66 84z" />
<glyph unicode="|" horiz-adv-x="647" d="M262 666l8 370v54l-2 59q0 57 -2 88q-4 66 -4 221v88l4 31q0 52 15 73.5t73 22.5l13 -2q44 0 62 -14.5t20 -50.5l4 -140q-2 -18 -2 -53l-2 -174q4 -32 4 -78q2 -41 2 -117v-419q4 -70 4 -234q0 -173 -4 -231q0 -37 -2 -41q0 -84 2 -178q-1 -58 -16.5 -71t-80.5 -13 q-58 0 -74 19.5t-16 90.5v226q-8 453 -6 473z" />
<glyph unicode="}" horiz-adv-x="665" d="M-51.5 -95.5q7.5 23.5 49.5 46.5q1 0 19 10t20 12l41 19q64 29 113.5 77.5t52.5 110.5v27q0 14 -2 37q-1 19 -11 55l-8 27l-12 63q-14 58 -14 107v12q0 57 4 84q12 52 67 113q1 1 33 20l21 14q-51 33 -70 58q-65 101 -62 231q3 76 21 156q16 82 20 123q0 21 -14 49 q-18 38 -75 86t-105 69l-27 15l-14 10q-35 15 -40.5 26.5t1.5 59.5q19 47 36 65.5t35 17t44 -6.5q58 -9 120 -42t103 -77q133 -127 133 -283q0 -71 -22 -161q0 -5 -2.5 -17t-2.5 -16q-10 -36 -10 -62q0 -98 51 -172l27 -28q5 -5 35 -25l22 -14q52 -35 52 -64q0 -40 -62 -80 l-10 -6l-29 -20q-40 -23 -62 -54.5t-20 -60.5v-24q0 -7 19 -97l6 -28q0 -21 10 -54q12 -35 12 -98q0 -68 -19 -127.5t-44 -97t-65 -71.5t-66 -50t-62 -35l-30 -16l-90 -35q-41 -9 -62.5 2.5t-42.5 56.5q-20 39 -12.5 62.5z" />
<glyph unicode="~" horiz-adv-x="913" d="M93 1522q-9 33 7 55q44 35 105.5 59.5t97.5 24.5q61 0 113 -29h-4q22 -7 82 -55q45 -25 71 -25q14 1 25.5 6.5t17 10t19.5 16.5l22 19q12 11 38 5t48 -23.5t35.5 -41t-0.5 -47.5q-27 -42 -80.5 -74.5t-118.5 -36.5q-38 -4 -114 35l-23 11l-65 45l2 -2l-35 16q-12 8 -39 8 q-19 0 -58 -17t-63 -32q-20 -12 -47 13.5t-36 58.5z" />
<glyph unicode="&#xa1;" horiz-adv-x="368" d="M176 1397q-7 38 25.5 80.5t62.5 58.5q43 16 76 4.5t49 -43.5l-2 2q23 -33 23 -74q0 -39 -24.5 -72.5t-61.5 -45.5q-28 -7 -39 -7q-40 0 -71.5 30t-37.5 67zM195 799q0 41 2 57q0 39 2 45q0 9 -1 32t-1 32v88q1 20 1.5 28.5t3.5 22t8.5 19t15.5 12t26 8.5t39 2 q26 0 36 -0.5t27 -3.5t23.5 -10.5t12 -21.5t5.5 -36q0 -106 -2 -153q-4 -132 -4 -203q0 -47 4 -105v-16q-3 -37 0 -68q0 -1 0.5 -5.5t1 -14.5t0.5 -25v-77q4 -86 4 -183v-147q3 -33 -13 -54t-50 -22q-34 -3 -68 0q-31 -1 -47 20t-18 54q-6 120 -2 145q2 10 2 45v135l-2 37 q-6 42 0 99q4 41 0 127z" />
<glyph unicode="&#xa2;" horiz-adv-x="1259" d="M104 698q0 124 9 170q15 111 57.5 230.5t93.5 189.5l37 47l14 19q9 14 28.5 33t33.5 28q49 42 49 43l27 19q67 37 90 43v28l2 47q0 45 15 62t56 16h39q25 0 40 -4.5t21.5 -17t8 -22t2.5 -32.5v-53q91 -3 168 -41q55 -20 106 -59q26 -22 41.5 -38.5t27 -37t7.5 -41 t-22 -41.5l-15 -16q-15 -17 -18.5 -20.5t-15 -13t-19 -9t-20.5 3.5t-29 12l-31 21l-14 12l-51 24l-39 19q-47 14 -74 14v-151q2 -16 2 -78q2 -39 2 -117v-381q4 -70 4 -233v-35q0 -20 -1 -70t-1 -73h25l18 2q3 2 11 4t12 4l20 4q23 7 60 27l24 14q11 11 25 18q1 0 3 1t3 1 l14 9q30 20 59 8t50 -49q12 -21 16.5 -34.5t0.5 -35t-23 -41.5l-33 -29q-35 -35 -109 -71l-12 -4q-54 -33 -129 -33h-39q0 -15 -2 -43t-2 -41q0 -44 -18.5 -56t-79.5 -12q-17 0 -32.5 3.5t-30.5 20t-13 44.5q0 18 -1 50t-1 50q-90 21 -148 57q-55 37 -97 85.5t-97 130.5 q-78 172 -98 311q-7 27 -7 108zM322 696q0 -62 26 -188q19 -64 64 -143l18 -27l16 -25l5 -8l30 -39l11 -10q9 -10 19.5 -18t16.5 -10l7 -3l12 -4l2 758l2 43q-2 8 -2 37v31q0 57 -2 90q-2 8 -2 53q0 9 -1 23t-1 24q-7 -4 -51 -35q-43 -48 -82 -137l-15 -29 q-60 -135 -73 -303v-80z" />
<glyph unicode="&#xa3;" horiz-adv-x="1224" d="M45 190q5 82 75 151t183 69h6l6 172q0 46 -4 73v17h-84q-31 0 -45.5 2t-29.5 11t-20 28.5t-5 54.5q0 38 4.5 59t19 30.5t27 11t42.5 1.5h7h52h14v7v30q0 68 -2 107v57q0 268 158 404l32 26q19 15 45 25q54 20 127 20q194 0 279 -231l4 -15v3l8 -27q6 -18 6 -31 q0 -10 2 -18q8 -47 -15.5 -68t-74.5 -31q-38 -8 -58 1.5t-40 58.5q0 1 -10.5 29.5t-12.5 31.5q-10 24 -16 35.5t-17.5 26t-29 20.5t-41.5 6q-22 0 -40.5 -10.5t-30.5 -25t-23.5 -39.5t-17.5 -44t-15 -49l-8 -26q-1 -1 -3.5 -14t-2.5 -15q0 -52 -4 -72q-2 -2 2 -20v-23 q-2 -10 2 -79l2 -19v-29q23 0 42.5 -1t20.5 -1h41l14 2l93 -4q40 -3 54.5 -24t14.5 -68q0 -68 -22.5 -85t-81.5 -15h-45l-66 -2h-55l8 -189q0 -71 -2 -104l-6 -55l29 -19l10 -8l47 -37l10 -8l29 -23q28 -28 84 -28q48 0 80 22.5t65 71.5l-2 -2q1 3 4 7t7 10t6 10 q12 16 16 28q16 29 59 29q42 0 81.5 -25t33.5 -53q-22 -84 -94 -184q-45 -62 -113 -92.5t-141 -30.5q-120 0 -236 88q-6 5 -16.5 15.5t-17.5 15.5q-36 -58 -93 -91.5t-116 -33.5q-92 0 -143.5 52t-51.5 150zM219 188q-1 -7 9.5 -13.5t15.5 -6.5q14 0 29 16.5t22 44.5 q-31 0 -43 -4q-19 -6 -25 -14t-8 -23z" />
<glyph unicode="&#xa5;" horiz-adv-x="1464" d="M4 1489q-8 30 19 39.5t90 7.5q42 0 61 -11t35 -38l53 -84l35 -55l4 -9l8 -12l41 -65l21 -35l57 -109l14 -24l29 -41l25 -35l43 -78q4 -5 7.5 -10.5t6.5 -12.5t6 -12l12 -22l15 -31l16 -18l19 -31q5 11 18 33t18 34l15 27l20 35l51 76l78 118l31 60l18 28l29 37 q3 7 12.5 21t12.5 20l51 92l37 66l30 51q12 31 93 35q58 2 83.5 -7t25 -29t-14.5 -50l-74 -154q-28 -44 -35 -61l-14 -25l-21 -39l-12 -24l-20 -35q-65 -97 -80 -115q-2 -4 -21 -33.5t-28 -43.5l-41 -72q-33 -59 -43 -82l-60 -92l-6 -8l162 -4q34 -4 44 -27t7 -72 q-2 -27 -9 -42.5t-17 -21.5t-24 -7.5t-30 0.5h-55q-9 2 -98 -3h-29q0 -14 2 -22v-18h195q34 -3 47.5 -21.5t13.5 -69.5q0 -21 -0.5 -33.5t-6 -22t-8 -13.5t-17.5 -6t-21.5 -2h-32.5h-29q-57 2 -137 4v-37q-2 -39 -2 -168q1 -50 -20.5 -65t-73.5 -15q-65 0 -86 20.5t-21 71.5 v131l-4 60h-22q-25 -2 -62 -2q-43 0 -51 2q-51 0 -77 3.5t-39 13t-13 26.5v43q2 25 8 42t13 25.5t23 13t27 5t34 0.5h45q4 0 9 -1l5 -1q4 -2 31 -2q7 2 65 2h2v34q-2 0 -2 2h-151q-68 -3 -89.5 10t-21.5 68q0 28 4.5 45t10 27t24 14.5t32 5t47.5 0.5h17h76l-6 9l-33 57 l-14 29l-54 80l-12 20l-53 98q-56 100 -98 152l-97 178l-16 27l-35 73q-30 46 -47 107z" />
<glyph unicode="&#xa7;" horiz-adv-x="1081" d="M87.5 -147q2.5 28 35.5 65q35 39 61.5 45t53.5 -18l45 -33l28 -27l33 -28q6 -6 19.5 -16.5t19.5 -16.5l29 -17l14 -4q38 -19 66 -22q42 -11 104 6l22 8q3 0 9 2l20 2q43 22 55 35q49 39 56 92v74q-2 35 -11.5 59t-39.5 64q-11 17 -48 39l-34 26l-21 17l-33 24l2 -2 q-2 1 -6 5.5t-6 5.5q-22 19 -37 24l-35 17l-38 20q-22 9 -37 20q-46 19 -62 31q-158 87 -209 207q-25 51 -30 107q-4 71 10.5 129.5t32.5 87.5q14 24 30 43q-23 33 -36 65q-25 53 -33 107q-3 71 12 129.5t33 87.5q25 43 90.5 101.5t130.5 94.5q78 38 209 35 q43 -2 81.5 -13.5t58 -22t52.5 -31.5l19 -15q85 -90 110 -127q37 -51 37 -78q-2 -17 -22 -57l-15 -16q-51 -64 -102 -23l-16 17l-21 26l-29 33q-20 20 -45 47q-34 25 -51 31l-28 10q-8 4 -62 4q-30 0 -51.5 -4.5t-31.5 -9t-38 -19.5q-36 -24 -69.5 -62.5t-40.5 -70.5 q-7 -18 3.5 -54.5t26.5 -59.5q51 -44 117.5 -87t114.5 -57q26 -16 97 -58.5t101 -62.5l37 -30q44 -37 77.5 -92t49.5 -111q16 -67 19 -133q3 -143 -51 -230q16 -31 26 -69q19 -78 19 -133q9 -179 -88 -279q-47 -46 -80.5 -72t-95 -50.5t-136.5 -30.5q-37 -2 -119.5 16 t-111.5 41q-13 5 -28.5 15t-35 23l-28.5 19q-5 0 -11 6l-79 74l-43 49q-24 28 -21.5 56zM322 731q-7 -17 4 -53.5t26 -61.5q49 -42 117.5 -85.5t116.5 -57.5q33 -22 93.5 -57.5t84.5 -50.5v67q-3 36 -12.5 60t-38.5 63q-14 21 -49 39l-35 27l-51 41l2 -3q-2 1 -6.5 5.5 t-6.5 5.5q-22 19 -37 24l-34 17l-39 20q-24 9 -39 21q-49 20 -62 30q-1 0 -3 1t-3 1q-22 -28 -28 -53z" />
<glyph unicode="&#xa8;" horiz-adv-x="892" d="M137 1759q0 39 24.5 74t59.5 45q9 0 19 1l10 1h6q45 0 70.5 -27t31.5 -59q4 -47 -27 -86t-67 -49q-34 -8 -68.5 4t-48.5 43q-10 25 -10 53zM470.5 1793.5q15.5 45.5 53.5 70.5q23 16 49 16q43 0 74 -27t33 -57q5 -39 -31.5 -80.5t-70.5 -54.5q-25 -8 -55 3.5t-46 39.5 q-22 44 -6.5 89.5z" />
<glyph unicode="&#xab;" horiz-adv-x="1193" d="M23 678q0 28 7.5 47t16 27t33.5 30l135 113l201 154l18 12l45 29q51 34 86 34q19 0 32 -11t34 -40q43 -64 -6 -106l-70 -58l-10 -8l-41 -29l-53 -49l-37 -24l-17 -8l-59 -43l-45 -35l-15 -10q-13 -10 -20 -17l23 -14q13 -11 35 -27t38 -27l15 -10l51 -33l18 -14l51 -33 l50 -39l18 -12q6 -6 14 -10l29 -23q3 -2 8.5 -7t7.5 -7t6.5 -5.5t6 -5.5t4.5 -5.5t4.5 -5.5t3.5 -5.5t2.5 -6t1 -6t0.5 -7.5q0 -28 -20 -64q-15 -27 -37.5 -42t-42.5 -9q-47 14 -78 39l-21 15l-100 65q-29 27 -47 37q-27 15 -55 43l-11 6q-9 9 -47.5 40.5t-40.5 31.5l-63 49 q-59 42 -59 84zM451 678q0 28 7.5 47t16 27t33.5 30l135 113l201 154l18 12l45 29q51 34 86 34q19 0 32 -11t34 -40q43 -64 -6 -106l-70 -58l-10 -8l-41 -29l-53 -49l-37 -24l-17 -8l-59 -43l-45 -35l-15 -10q-13 -10 -20 -17l23 -14q13 -11 35 -27t38 -27l15 -10l51 -33 l18 -14l52 -33l49 -39l18 -12q6 -6 14 -10l29 -23q3 -2 8.5 -7t7.5 -7t6.5 -5.5t6 -5.5t4.5 -5.5t4.5 -5.5t3.5 -5.5t2.5 -6t1 -6t0.5 -7.5q0 -28 -20 -64q-15 -27 -37.5 -42t-42.5 -9q-47 14 -78 39l-21 15l-100 65q-29 27 -47 37q-27 15 -55 43l-10 6q-9 9 -48 40.5 t-41 31.5l-63 49q-59 42 -59 84z" />
<glyph unicode="&#xad;" horiz-adv-x="1038" d="M53 655q5 28 18 45.5t33.5 24t36 8.5t39.5 2h23q23 -3 114 2q25 2 82 2l62 -2l303 -6q54 0 86 -19t31 -77q-4 -67 -28 -82.5t-101 -15.5q-107 4 -207 4q-117 0 -168 -4q-20 -2 -72 -2l-100 4q-74 -1 -106.5 9t-41 32.5t-4.5 74.5z" />
<glyph unicode="&#xaf;" horiz-adv-x="1148" d="M293 1626v10q0 43 13 59t54 15h35q35 2 97 2h81l23 -2l29 -2q1 0 19 1t30 1l47 -6q20 0 26.5 -0.5t17.5 -6t13.5 -20.5t1.5 -41q-4 -85 -53 -82h-68l-32 2h-23l-88 -4l-176 4q-47 -5 -47 70z" />
<glyph unicode="&#xb0;" horiz-adv-x="460" d="M-12 1311q0 77 40.5 132.5t112.5 82.5q47 14 82 14q51 0 88 -12l11 -2q111 -72 114 -207q-1 -68 -31 -113.5t-86 -83.5q-15 -11 -48.5 -18.5t-47.5 -7.5q-63 0 -121 26.5t-86 65.5q-28 45 -28 123zM145 1298q5 -27 26.5 -43t45.5 -10q21 2 38.5 18t20.5 46l7 20 q0 29 -7 39q-12 23 -59 23q-27 0 -39 -3.5t-20 -17.5l-11 -14q-8 -8 -2 -58z" />
<glyph unicode="&#xb1;" horiz-adv-x="993" d="M53 102q5 28 18 45.5t33.5 24t36 8.5t39.5 2h23q23 -3 114 2q25 2 82 2l62 -2l303 -6q54 0 86 -19t31 -77q-4 -67 -28 -82.5t-101 -15.5q-107 4 -207 4q-117 0 -168 -4q-20 -2 -72 -2l-100 4q-74 -1 -106.5 9t-41 32.5t-4.5 74.5zM72 623v8q0 32 5.5 52t16.5 29.5 t21.5 12.5t27.5 4q61 4 207 4l12 -2v19l-2 208q3 68 22.5 89t74.5 18q62 -3 80 -20.5t18 -55.5v-8l2 -121q0 -5 4 -55v-33q2 -10 2 -41h53q4 0 15 -1t16 -1h68h12q42 0 58.5 -1t35 -9t25 -25t10.5 -49q0 -71 -18.5 -86.5t-94.5 -15.5h-14q-16 -2 -106 -2q-46 0 -64 2 q0 -100 -2 -123q0 -2 1 -7t1 -7l2 -23v-39q0 -53 -20.5 -78.5t-83.5 -25.5q-60 0 -77.5 23t-17.5 73l-4 205h-88l-151 6q-21 2 -32 14.5t-13 25.5t-2 36z" />
<glyph unicode="&#xb4;" horiz-adv-x="630" d="M72 1665q-25 73 20 100l62 37q19 4 82 41l36 17l21 12l6 4q16 12 35 20l28 13l33 18l45 21q58 22 84 -19q20 -29 27 -45q14 -47 -25 -74l-104 -61q-4 -5 -21 -10l-49 -27l-24 -12l-21 -8l-6 -4l-25 -15l-20 -8q-1 0 -2 -0.5t-5.5 -2.5t-12.5 -5q-9 -6 -39 -21l-27 -8 q-14 -6 -21.5 -7.5t-24.5 -3t-30 11t-22 36.5z" />
<glyph unicode="&#xb7;" horiz-adv-x="718" d="M215 868q23 64 74 84q8 0 16 4q20 5 29 5q40 0 72.5 -35.5t35.5 -73.5q5 -42 -30.5 -87t-67.5 -56q-82 -24 -125 45q-27 50 -4 114z" />
<glyph unicode="&#xb8;" horiz-adv-x="712" d="M51.5 -392.5q1.5 19.5 22.5 52.5q24 44 44.5 53t47.5 -10l45 -18q26 -14 49.5 -15t33.5 5l11 6q22 11 29 32l6 25q10 39 -31 65q-18 11 -37 11l-8 1q-8 1 -12 1q-24 4 -43 4l-80 -2q-18 0 -32.5 12.5t-14.5 36.5v321l184 -16l2 -201h13q69 -5 77 -8q10 0 37 -12 q122 -58 125 -182q3 -69 -14 -113q-21 -44 -55 -83.5t-70 -57.5q-5 -2 -16 -7.5t-21 -9.5t-16 -6l-39 -4q-37 0 -53 2q-53 4 -70 14q-8 5 -19 9q-40 16 -79 55q-18 20 -16.5 39.5z" />
<glyph unicode="&#xbb;" horiz-adv-x="1193" d="M47 383q0 4 0.5 7.5t1 6t2.5 6t3.5 5.5t4.5 5.5t4.5 5.5t6 5.5t6.5 5.5t7.5 7t8.5 7l29 23q8 4 14 10l19 12l49 39l51 33l18 14l52 33q59 39 88 64l22 14q-22 21 -35 27l-45 35l-59 43l-16 8l-37 24l-54 49l-41 29l-10 8l-69 58q-50 42 -7 106q21 29 34 40t32 11 q35 0 86 -34l45 -29l18 -12q140 -107 201 -154l135 -113q26 -22 34 -30t16 -27t8 -47q0 -41 -60 -84l-63 -49q-2 0 -40.5 -31.5t-47.5 -40.5l-10 -6q-27 -27 -56 -43q-8 -4 -19.5 -13.5t-19.5 -16.5l-8 -7l-100 -65l-21 -15q-31 -25 -78 -39q-20 -6 -41.5 9t-37.5 42 q-21 37 -21 64zM475 383q0 4 0.5 7.5t1 6t2.5 6t3.5 5.5t4.5 5.5t4.5 5.5t6 5.5t6.5 5.5t7.5 7t8.5 7l29 23q8 4 14 10l19 12l49 39l51 33l18 14l52 33q59 39 88 64l22 14q-22 21 -35 27l-45 35l-59 43l-16 8l-37 24l-54 49l-41 29l-10 8l-69 58q-50 42 -7 106q21 29 34 40 t32 11q35 0 86 -34l45 -29l19 -12q139 -107 200 -154l135 -113q26 -22 34 -30t16 -27t8 -47q0 -41 -60 -84l-63 -49q-2 0 -40.5 -31.5t-47.5 -40.5l-10 -6q-27 -27 -56 -43q-8 -4 -19.5 -13.5t-19.5 -16.5l-8 -7l-100 -65l-21 -15q-31 -25 -78 -39q-20 -6 -41.5 9t-37.5 42 q-21 38 -21 64z" />
<glyph unicode="&#xbf;" horiz-adv-x="1013" d="M25 397q3 68 56.5 163t111.5 157l53 59l8 12l18 29q31 39 37 96q13 33 15 74q0 27 2 35v8q0 2 1 5.5t1 4.5v31q0 39 17 58t75 26q41 4 73 -12t35 -39l4 -37v-12q2 -70 -8 -109l-6 -33q-11 -59 -38.5 -128t-53.5 -103l-23 -39l-26 -31l-41 -47l-35 -41l-14 -12 q-29 -29 -39 -43q-28 -70 -17 -111q-3 -34 17 -65q61 -92 162 -86q14 1 29.5 6t38 14.5t36.5 14.5q8 4 16.5 10.5t13.5 11.5l5 4l14 19q13 13 23 28q20 24 32 76l13 43q5 37 23 56.5t59 19.5q80 4 99.5 -22t10.5 -117q-16 -148 -123 -244q-73 -64 -148 -95t-175 -34 q-24 1 -45.5 5t-31.5 7l-9 4q-64 18 -115 52l-49 36q-38 26 -82 150q-8 30 -14.5 76t-5.5 69zM313 1405q-5 39 32 84t71 63q33 9 57.5 2t36.5 -26q29 -36 29 -86q0 -39 -22 -72.5t-56 -42.5q-35 -10 -47 -10q-40 0 -68 27.5t-33 60.5z" />
<glyph unicode="&#xc0;" d="M11.5 24q-9.5 16 6.5 66l13 31l6 14l12 27l6 12l6 16q0 2 2.5 7.5t2.5 7.5l18 35v-2q15 31 20 47q7 8 17 34l4 15l33 78l22 45l29 69l31 78l28 76l6 14q22 68 37 99l17 43l43 90l12 28l6 18t11.5 32t11.5 28q8 25 22 43q2 4 5 15t5 14l9 20l14 39l8 21q0 15 29 86l6 20 q6 15 6 17l19 43q2 6 8 18t8 18l8 23l27 45q44 82 88 82q34 0 64.5 -49.5t90.5 -200.5l72 -199l6 -12l21 -69l24 -74l13 -31l14 -41l86 -256l20 -65l17 -47l14 -46q0 -3 6 -18t17 -41t18 -45q3 -7 18 -43.5t21 -54.5l6 -29l2 -12l17 -33l6 -18l16 -54q20 -51 5.5 -76 t-74.5 -24q-6 0 -18.5 1t-18.5 1l-9 2q-41 0 -64 20.5t-28 51.5q-5 23 -22 45l-6 14q-2 4 -2 6l-15 39q-17 34 -20 43q-6 13 -6 19l-7 14l-10 41q0 2 -2 6l-22 55q-4 4 -4 9q-29 74 -37 110q0 4 -2.5 9.5t-7 12.5t-5.5 9l-8 12h-313q-72 0 -90 -2h2l-25 -2l-2 -4l-6 -16 q-2 -2 -2 -9q-17 -55 -47 -110v2q-4 -15 -8 -19q-9 -13 -25 -51l-12 -31q-3 -9 -16.5 -38t-18.5 -43l-12 -27q-4 -4 -4 -8l-11 -29l-41 -74q-20 -35 -40 -46t-62 -11l-66 2q-40 6 -49.5 22zM372.5 1856q-4.5 17 2.5 30q6 15 26 45q7 10 11 14.5t11 10.5t14 8t17 1.5t23 -5.5 l51 -23l23 -14l10 -6l33 -19l29 -18l6 -4l10 -6q6 -6 12 -6q29 -19 43 -25q13 -6 82 -39q8 -4 31.5 -19.5t38.5 -23.5q15 -10 18 -27t-10 -63q-22 -66 -96 -37l-31 10q-1 1 -13.5 5.5t-19.5 9.5q-6 3 -19.5 9t-15.5 7l-12 6l-24 13l-13 8l-16 6l-23 12l-49 31q-15 5 -20 10 q-17 9 -50 32t-51 32q-24 18 -28.5 35zM510 731h127q82 0 160 2l-21 60q-4 4 -4 14l-22 72l-19 53l-10 33l-6 18l-37 141l-12 43l-7 -28l-10 -31q0 -17 -8 -29l-23 -67l-18 -56l-18 -47l-17 -32q-20 -46 -26 -74q-2 -4 -2 -8z" />
<glyph unicode="&#xc1;" d="M11.5 24q-9.5 16 6.5 66l13 31l6 14l12 27l6 12l6 16q0 2 2.5 7.5t2.5 7.5l18 35v-2q15 31 20 47q7 8 17 34l4 15l33 78l22 45l29 69l31 78l28 76l6 14q22 68 37 99l17 43l43 90l12 28l6 18t11.5 32t11.5 28q8 25 22 43q2 4 5 15t5 14l9 20l14 39l8 21q0 15 29 86l6 20 q6 15 6 17l19 43q2 6 8 18t8 18l8 23l27 45q44 82 88 82q34 0 64.5 -49.5t90.5 -200.5l72 -199l6 -12l21 -69l24 -74l13 -31l14 -41l86 -256l20 -65l17 -47l14 -46q0 -3 6 -18t17 -41t18 -45q3 -7 18 -43.5t21 -54.5l6 -29l2 -12l17 -33l6 -18l16 -54q20 -51 5.5 -76 t-74.5 -24q-6 0 -18.5 1t-18.5 1l-9 2q-41 0 -64 20.5t-28 51.5q-5 23 -22 45l-6 14q-2 4 -2 6l-15 39q-17 34 -20 43q-6 13 -6 19l-7 14l-10 41q0 2 -2 6l-22 55q-4 4 -4 9q-29 74 -37 110q0 4 -2.5 9.5t-7 12.5t-5.5 9l-8 12h-313q-72 0 -90 -2h2l-25 -2l-2 -4l-6 -16 q-2 -2 -2 -9q-17 -55 -47 -110v2q-4 -15 -8 -19q-9 -13 -25 -51l-12 -31q-3 -9 -16.5 -38t-18.5 -43l-12 -27q-4 -4 -4 -8l-11 -29l-41 -74q-20 -35 -40 -46t-62 -11l-66 2q-40 6 -49.5 22zM473 1665q-25 73 21 100l61 37q19 4 82 41l37 17l20 12l6 4q16 12 35 20l29 13 l33 18l45 21q58 22 84 -19q18 -25 26 -45q14 -48 -24 -74l-105 -61q-5 -5 -20 -10l-49 -27l-25 -12l-20 -8l-7 -4l-24 -15l-21 -8q-1 0 -2 -0.5t-5.5 -2.5t-12.5 -5q-9 -6 -39 -21l-27 -8q-14 -6 -21.5 -7.5t-24.5 -3t-30 11t-22 36.5zM510 731h127q82 0 160 2l-21 60 q-4 4 -4 14l-22 72l-19 53l-10 33l-6 18l-37 141l-12 43l-7 -28l-10 -31q0 -17 -8 -29l-23 -67l-18 -56l-18 -47l-17 -32q-20 -46 -26 -74q-2 -4 -2 -8z" />
<glyph unicode="&#xc2;" d="M11.5 24q-9.5 16 6.5 66l13 31l6 14l12 27l6 12l6 16q0 2 2.5 7.5t2.5 7.5l18 35v-2q15 31 20 47q7 8 17 34l4 15l33 78l22 45l29 69l31 78l28 76l6 14q22 68 37 99l17 43l43 90l12 28l6 18t11.5 32t11.5 28q8 25 22 43q2 4 5 15t5 14l9 20l14 39l8 21q0 15 29 86l6 20 q6 15 6 17l19 43q2 6 8 18t8 18l8 23l27 45q44 82 88 82q34 0 64.5 -49.5t90.5 -200.5l72 -199l6 -12l21 -69l24 -74l13 -31l14 -41l86 -256l20 -65l17 -47l14 -46q0 -3 6 -18t17 -41t18 -45q3 -7 18 -43.5t21 -54.5l6 -29l2 -12l17 -33l6 -18l16 -54q20 -51 5.5 -76 t-74.5 -24q-6 0 -18.5 1t-18.5 1l-9 2q-41 0 -64 20.5t-28 51.5q-5 23 -22 45l-6 14q-2 4 -2 6l-15 39q-17 34 -20 43q-6 13 -6 19l-7 14l-10 41q0 2 -2 6l-22 55q-4 4 -4 9q-29 74 -37 110q0 4 -2.5 9.5t-7 12.5t-5.5 9l-8 12h-313q-72 0 -90 -2h2l-25 -2l-2 -4l-6 -16 q-2 -2 -2 -9q-17 -55 -47 -110v2q-4 -15 -8 -19q-9 -13 -25 -51l-12 -31q-3 -9 -16.5 -38t-18.5 -43l-12 -27q-4 -4 -4 -8l-11 -29l-41 -74q-20 -35 -40 -46t-62 -11l-66 2q-40 6 -49.5 22zM397 1714l43 49l25 25q23 23 31 33l59 63l35 33q1 1 7.5 8t8 8t6.5 5.5t7 5.5 t6.5 4t8 3.5t8 1.5t9.5 1q15 0 26.5 -5t17 -10t20.5 -20l30 -31q26 -26 29 -30q14 -17 31 -31l39 -45l30 -35l15 -14l20 -23q22 -22 13 -53q-5 -15 -41 -51q-22 -19 -43.5 -17t-40.5 21l-80 78l-29 34l-37 37q-2 -2 -22 -24.5t-31 -36.5l-12 -12q-5 -5 -23 -25l-16 -21 l-21 -22l-10 -8q-23 -23 -41 -23q-24 0 -65 41q-46 49 -13 86zM510 731h127q82 0 160 2l-21 60q-4 4 -4 14l-22 72l-19 53l-10 33l-6 18l-37 141l-12 43l-7 -28l-10 -31q0 -17 -8 -29l-23 -67l-18 -56l-18 -47l-17 -32q-20 -46 -26 -74q-2 -4 -2 -8z" />
<glyph unicode="&#xc3;" d="M11.5 24q-9.5 16 6.5 66l13 31l6 14l12 27l6 12l6 16q0 2 2.5 7.5t2.5 7.5l18 35v-2q15 31 20 47q7 8 17 34l4 15l33 78l22 45l29 69l31 78l28 76l6 14q22 68 37 99l17 43l43 90l12 28l6 18t11.5 32t11.5 28q8 25 22 43q2 4 5 15t5 14l9 20l14 39l8 21q0 15 29 86l6 20 q6 15 6 17l19 43q2 6 8 18t8 18l8 23l27 45q44 82 88 82q34 0 64.5 -49.5t90.5 -200.5l72 -199l6 -12l21 -69l24 -74l13 -31l14 -41l86 -256l20 -65l17 -47l14 -46q0 -3 6 -18t17 -41t18 -45q3 -7 18 -43.5t21 -54.5l6 -29l2 -12l17 -33l6 -18l16 -54q20 -51 5.5 -76 t-74.5 -24q-6 0 -18.5 1t-18.5 1l-9 2q-41 0 -64 20.5t-28 51.5q-5 23 -22 45l-6 14q-2 4 -2 6l-15 39q-17 34 -20 43q-6 13 -6 19l-7 14l-10 41q0 2 -2 6l-22 55q-4 4 -4 9q-29 74 -37 110q0 4 -2.5 9.5t-7 12.5t-5.5 9l-8 12h-313q-72 0 -90 -2h2l-25 -2l-2 -4l-6 -16 q-2 -2 -2 -9q-17 -55 -47 -110v2q-4 -15 -8 -19q-9 -13 -25 -51l-12 -31q-3 -9 -16.5 -38t-18.5 -43l-12 -27q-4 -4 -4 -8l-11 -29l-41 -74q-20 -35 -40 -46t-62 -11l-66 2q-40 6 -49.5 22zM344 1772q37 42 99.5 76t97.5 34q67 0 108 -29q16 -5 76 -53q43 -24 72 -24 q21 0 40.5 13t47.5 46q12 15 36.5 10.5t49 -17t38.5 -36t5 -47.5q-23 -46 -82 -89.5t-123 -47.5q-41 -4 -115 34l-76 54l-32 16q-12 8 -39 8q-30 0 -109 -63q-18 -15 -47.5 5.5t-46 55t-0.5 54.5zM510 731h127q82 0 160 2l-21 60q-4 4 -4 14l-22 72l-19 53l-10 33l-6 18 l-37 141l-12 43l-7 -28l-10 -31q0 -17 -8 -29l-23 -67l-18 -56l-18 -47l-17 -32q-20 -46 -26 -74q-2 -4 -2 -8z" />
<glyph unicode="&#xc4;" d="M11.5 24q-9.5 16 6.5 66l13 31l6 14l12 27l6 12l6 16q0 2 2.5 7.5t2.5 7.5l18 35v-2q15 31 20 47q7 8 17 34l4 15l33 78l22 45l29 69l31 78l28 76l6 14q22 68 37 99l17 43l43 90l12 28l6 18t11.5 32t11.5 28q8 25 22 43q2 4 5 15t5 14l9 20l14 39l8 21q0 15 29 86l6 20 q6 15 6 17l19 43q2 6 8 18t8 18l8 23l27 45q44 82 88 82q34 0 64.5 -49.5t90.5 -200.5l72 -199l6 -12l21 -69l24 -74l13 -31l14 -41l86 -256l20 -65l17 -47l14 -46q0 -3 6 -18t17 -41t18 -45q3 -7 18 -43.5t21 -54.5l6 -29l2 -12l17 -33l6 -18l16 -54q20 -51 5.5 -76 t-74.5 -24q-6 0 -18.5 1t-18.5 1l-9 2q-41 0 -64 20.5t-28 51.5q-5 23 -22 45l-6 14q-2 4 -2 6l-15 39q-17 34 -20 43q-6 13 -6 19l-7 14l-10 41q0 2 -2 6l-22 55q-4 4 -4 9q-29 74 -37 110q0 4 -2.5 9.5t-7 12.5t-5.5 9l-8 12h-313q-72 0 -90 -2h2l-25 -2l-2 -4l-6 -16 q-2 -2 -2 -9q-17 -55 -47 -110v2q-4 -15 -8 -19q-9 -13 -25 -51l-12 -31q-3 -9 -16.5 -38t-18.5 -43l-12 -27q-4 -4 -4 -8l-11 -29l-41 -74q-20 -35 -40 -46t-62 -11l-66 2q-40 6 -49.5 22zM401 1747q0 39 24.5 74t59.5 45q9 0 19 1l10 1h6q45 0 71 -27t32 -59 q4 -47 -27.5 -86t-67.5 -49q-34 -8 -68 4t-48 43q-11 28 -11 53zM510 731h127q82 0 160 2l-21 60q-4 4 -4 14l-22 72l-19 53l-10 33l-6 18l-37 141l-12 43l-7 -28l-10 -31q0 -17 -8 -29l-23 -67l-18 -56l-18 -47l-17 -32q-20 -46 -26 -74q-2 -4 -2 -8zM734.5 1781.5 q15.5 44.5 53.5 69.5q24 17 50 17q43 0 73.5 -27t32.5 -57q5 -39 -31.5 -80.5t-70.5 -54.5q-25 -8 -55 3.5t-46 39.5q-22 45 -6.5 89.5z" />
<glyph unicode="&#xc5;" d="M11.5 24q-9.5 16 6.5 66l13 31l6 14l12 27l6 12l6 16q0 2 2.5 7.5t2.5 7.5l18 35v-2q15 31 20 47q7 8 17 34l4 15l33 78l22 45l29 69l31 78l28 76l6 14q22 68 37 99l17 43l43 90l12 28l6 18t11.5 32t11.5 28q8 25 22 43q2 4 5 15t5 14l9 20l14 39l8 21q0 15 29 86l6 20 q6 15 6 17l19 43q2 6 8 18t8 18l8 23l27 45q44 82 88 82q34 0 64.5 -49.5t90.5 -200.5l72 -199l6 -12l21 -69l24 -74l13 -31l14 -41l86 -256l20 -65l17 -47l14 -46q0 -3 6 -18t17 -41t18 -45q3 -7 18 -43.5t21 -54.5l6 -29l2 -12l17 -33l6 -18l16 -54q20 -51 5.5 -76 t-74.5 -24q-6 0 -18.5 1t-18.5 1l-9 2q-41 0 -64 20.5t-28 51.5q-5 23 -22 45l-6 14q-2 4 -2 6l-15 39q-17 34 -20 43q-6 13 -6 19l-7 14l-10 41q0 2 -2 6l-22 55q-4 4 -4 9q-29 74 -37 110q0 4 -2.5 9.5t-7 12.5t-5.5 9l-8 12h-313q-72 0 -90 -2h2l-25 -2l-2 -4l-6 -16 q-2 -2 -2 -9q-17 -55 -47 -110v2q-4 -15 -8 -19q-9 -13 -25 -51l-12 -31q-3 -9 -16.5 -38t-18.5 -43l-12 -27q-4 -4 -4 -8l-11 -29l-41 -74q-20 -35 -40 -46t-62 -11l-66 2q-40 6 -49.5 22zM465 1761q0 71 36.5 122.5t106.5 74.5q32 12 68 12q60 0 98 -28q86 -48 90 -170 q-1 -68 -25.5 -105.5t-74.5 -71.5q-16 -8 -45 -15t-43 -7q-62 0 -111 20t-71 60q-29 48 -29 108zM510 731h127q82 0 160 2l-21 60q-4 4 -4 14l-22 72l-19 53l-10 33l-6 18l-37 141l-12 43l-7 -28l-10 -31q0 -17 -8 -29l-23 -67l-18 -56l-18 -47l-17 -32q-20 -46 -26 -74 q-2 -4 -2 -8zM604 1796q-7 -10 2 -45q3 -17 27.5 -28t48.5 -11q17 1 27.5 13t19.5 36q3 7 -1.5 25t-10.5 29q-3 4 -33 14q-39 7 -63 -8q-9 -6 -17 -25z" />
<glyph unicode="&#xc6;" horiz-adv-x="1570" d="M-4.5 24.5q-9.5 15.5 6.5 65.5l16 45l13 27l6 12l6 16q0 2 5 13.5t5 13.5l13 23q1 1 3.5 6.5t6.5 14t6 13.5q10 17 20 48q0 2 2 6t2 6l33 78l23 45l31 69l30 78l27 76l6 14q22 68 37 99l59 133l13 28l6 18t11 32t11 28q7 22 23 43l12 29l8 20l15 39l8 21q0 18 28 86l5 20 q6 15 6 17l18 43q2 6 8 18t8 18l9 23l26 45q44 82 88 82h105q123 0 172 -2q118 -4 135 -2q61 4 174 4l174 -2q40 0 55 -18t15 -68l-2 -33q0 -30 -13 -48.5t-31 -23.5t-38 -7t-35 1h-8q-68 0 -109 -2q-25 -2 -82 -2q-29 0 -47 -2h-88l-127 -2h-26q0 -60 4 -96q4 -74 4 -113 q0 -36 -4 -82l-1 -4q-1 -4 -1 -8v-108q-5 -15 -2 -35h147q28 -4 37 -4q34 0 70 4l141 -4q18 0 30 -5t18.5 -12t10 -20t4 -22.5t0.5 -24.5q1 -35 -1.5 -55t-14.5 -28.5t-22.5 -10t-36.5 -1.5h-29q-85 -9 -133 -4h-76q-23 -2 -70 -2l-65 2h-8v-94q2 -16 -2 -65v-23l-2 -49 q-1 -22 4 -84q2 -35 2 -115l-2 -55v-4q46 -4 123 -4q8 0 26 -1t27 -1q48 -3 100 0h125l74 -4q5 0 14.5 -1t13.5 -1q55 -3 67.5 -13.5t18.5 -64.5q3 -68 -4.5 -84.5t-42.5 -28.5q-6 0 -10 -2q-16 -3 -172 2h-194q-103 0 -191 -4h-100q-55 0 -70.5 23t-15.5 81v35q2 63 2 187 v192h-72q-129 0 -160 -2q-2 -2 -24 -2l-2 -4l-6 -16q-2 -2 -2 -9q-15 -51 -48 -110q-4 -13 -8 -17q-6 -9 -24 -51l-13 -31l-47 -108q-4 -4 -4 -8l-10 -29l-49 -88q-18 -31 -31.5 -37t-50.5 -6h-12l-66 2q-38 7 -47.5 22.5zM489 727h54q17 0 41 -1t34 -1h52v18l2 131 q0 95 -2 144l4 229l-37 -108l-10 -31q0 -16 -9 -29l-22 -67l-18 -56l-15 -47l-16 -32q-22 -48 -27 -72q0 -2 -1 -5.5t-1 -4.5z" />
<glyph unicode="&#xc7;" horiz-adv-x="1290" d="M82 702q0 121 10 172v-2q16 120 55 235t89 177l30 33l6 6l11 14q6 7 18 25q38 43 68 59h-2q9 5 15 9.5t9.5 7.5t5.5 4l41 33l25 14q102 53 211 57q4 0 12 2l74 2q111 -3 188 -41l101 -53q38 -28 49 -37.5t37 -38.5q24 -27 -27 -98l-14 -12q-16 -19 -24.5 -26.5 t-27.5 -8.5t-47 12l-37 19q-8 8 -22 14l-43 29l-43 16q-54 14 -94 14l-37 -2q-24 -4 -45 -4q-32 -7 -88 -32.5t-88 -47.5q-48 -50 -131 -170l2 2q-70 -144 -82 -305v-26q-4 -45 -2 -52q3 -76 30 -190q42 -106 64 -143l24 -25q37 -43 64 -68l29 -20q7 -7 19 -13.5t20 -8.5 l8 -3l45 -12q8 -4 26 -4l25 -2q35 -14 162 -14h16l55 14q8 3 27 14t23 13l26 12q9 7 41 29l19 10q40 19 64 8t50 -53q13 -24 19 -38t6.5 -31t-12.5 -25l-60 -52q-48 -42 -108 -71l-11 -4h2q-82 -31 -145 -31q-31 0 -49 -2q-45 -4 -78 -2l-20 4v-33h12q71 -5 78 -8 q10 0 37 -12q122 -58 125 -183q3 -66 -15 -112q-21 -44 -55 -84t-70 -58q-48 -21 -53 -22l-39 -4q-37 0 -53 2q-53 4 -70 14q-6 4 -18 8q-40 16 -80 56q-18 20 -16.5 39.5t22.5 52.5q24 44 44.5 53t47.5 -10l45 -19q26 -14 49.5 -15t34.5 5l10 6q22 11 29 33l6 25 q10 40 -30 65q-17 10 -37 10l-9 1q-9 1 -12 1q-30 5 -43 5l-80 -3q-17 0 -32 13t-15 37v180q-48 16 -106 43q-68 41 -197 213q-25 41 -49.5 127t-36.5 174v-2q-8 33 -8 110z" />
<glyph unicode="&#xc8;" horiz-adv-x="1157" d="M178 748l4 126q0 95 -2 144v90l2 43q0 39 -2 57q-2 29 -2 103q0 98 2 135v8q1 22 3 32.5t10.5 24.5t27.5 19.5t51 5.5q123 0 170 -2q121 -4 138 -2q61 4 174 4l139 -2q38 -1 52.5 -2t27.5 -11.5t16 -24.5t8 -48l-2 -33q0 -30 -13 -48.5t-31 -23.5t-38 -7t-34 1h-9 q-67 0 -108 -2q-25 -2 -84 -2q-27 0 -45 -2l-217 -2q-2 0 -6 0.5t-9 0.5t-10 -1q0 -60 4 -96q4 -74 4 -113q0 -36 -4 -82l-1 -4q-1 -4 -1 -8q-6 -92 -2 -119h148q28 -4 36 -4q34 0 70 4l133 -6q25 -1 40.5 -7.5t22 -19.5t8 -24.5t1.5 -30.5q1 -24 0 -40t-7 -26.5t-9 -15.5 t-17 -7.5t-19 -2.5h-26h-18q-92 -9 -142 -4h-75q-23 -2 -72 -2l-64 2h-8v-121q2 -16 -2 -65v-23l-2 -49q-1 -22 4 -84q2 -35 2 -115l-2 -57v-4q40 -4 123 -4q8 0 26 -1t27 -1q49 -3 99 0h127l73 -4q6 0 15.5 -1t11.5 -1q57 -3 69.5 -13t18.5 -63q3 -68 -4.5 -84.5 t-44.5 -28.5q-6 0 -10 -2q-16 -3 -170 2h-195q-104 0 -190 -4h-101q-56 0 -72 23t-16 81v35q2 63 2 187v217q0 61 -2 92zM303 1862q-5 17 2 30q5 11 27 45q7 10 11 14.5t11 10.5t14 8t17 1.5t23 -5.5l51 -22l22 -15l11 -6l32 -18l29 -19l6 -4l10 -6q6 -6 13 -6 q29 -19 43 -25q13 -6 82 -39q7 -4 30.5 -19.5t38.5 -23.5q15 -10 18 -27t-10 -63q-22 -66 -96 -37l-31 11q-2 1 -13.5 5t-18.5 9q-6 3 -19.5 9t-15.5 7l-12 6l-25 13l-12 8l-17 6l-22 12l-49 31q-16 5 -21 10q-17 9 -50 32t-50 32q-24 18 -29 35z" />
<glyph unicode="&#xc9;" horiz-adv-x="1157" d="M178 748l4 126q0 95 -2 144v90l2 43q0 39 -2 57q-2 29 -2 103q0 98 2 135v8q1 22 3 32.5t10.5 24.5t27.5 19.5t51 5.5q123 0 170 -2q121 -4 138 -2q61 4 174 4l139 -2q38 -1 52.5 -2t27.5 -11.5t16 -24.5t8 -48l-2 -33q0 -30 -13 -48.5t-31 -23.5t-38 -7t-34 1h-9 q-67 0 -108 -2q-25 -2 -84 -2q-27 0 -45 -2l-217 -2q-2 0 -6 0.5t-9 0.5t-10 -1q0 -60 4 -96q4 -74 4 -113q0 -36 -4 -82l-1 -4q-1 -4 -1 -8q-6 -92 -2 -119h148q28 -4 36 -4q34 0 70 4l133 -6q25 -1 40.5 -7.5t22 -19.5t8 -24.5t1.5 -30.5q1 -24 0 -40t-7 -26.5t-9 -15.5 t-17 -7.5t-19 -2.5h-26h-18q-92 -9 -142 -4h-75q-23 -2 -72 -2l-64 2h-8v-121q2 -16 -2 -65v-23l-2 -49q-1 -22 4 -84q2 -35 2 -115l-2 -57v-4q40 -4 123 -4q8 0 26 -1t27 -1q49 -3 99 0h127l73 -4q6 0 15.5 -1t11.5 -1q57 -3 69.5 -13t18.5 -63q3 -68 -4.5 -84.5 t-44.5 -28.5q-6 0 -10 -2q-16 -3 -170 2h-195q-104 0 -190 -4h-101q-56 0 -72 23t-16 81v35q2 63 2 187v217q0 61 -2 92zM434 1669q-25 73 21 100l61 37q19 4 82 41l37 17l20 12l7 4q20 15 34 21l29 12l33 18l45 21q58 22 84 -19q18 -25 26 -45q14 -47 -24 -73l-105 -62 q-5 -5 -20 -10l-49 -27l-25 -12l-20 -8l-6 -4l-25 -15l-21 -8q-1 0 -2 -0.5t-5.5 -2.5t-12.5 -5q-9 -6 -39 -21l-27 -8q-14 -6 -21.5 -7.5t-24.5 -3t-30 11t-22 36.5z" />
<glyph unicode="&#xca;" horiz-adv-x="1157" d="M178 748l2 -113q2 -31 2 -92v-217q0 -124 -2 -187v-35q0 -58 16 -81t72 -23h101q86 4 190 4h195q154 -5 170 -2q4 2 10 2q37 12 44.5 28.5t4.5 84.5q-6 53 -18.5 63t-69.5 13q-2 0 -11.5 1t-15.5 1l-73 4h-127q-50 -3 -99 0q-9 0 -27 1t-26 1q-83 0 -123 4v4l2 57 q0 80 -2 115q-5 62 -4 84l2 49v23q4 49 2 65v121h8l64 -2q49 0 72 2h75q50 -5 142 4h18h26t19 2.5t17 7.5t9 15.5t7 26.5t0 40q0 19 -1.5 30.5t-8 24.5t-22 19.5t-40.5 7.5l-133 6q-36 -4 -70 -4q-8 0 -36 4h-148q-4 27 2 119q0 4 1 8l1 4q4 46 4 82q0 39 -4 113 q-4 36 -4 96q5 1 10 1t9 -0.5t6 -0.5l217 2q18 2 45 2q59 0 84 2q41 2 108 2h9q14 -3 34 -1t38 7t31 23.5t13 48.5l2 33q-5 34 -8 48t-16 24.5t-27.5 11.5t-52.5 2q-59 2 -139 2q-113 0 -174 -4q-17 -2 -138 2q-47 2 -170 2q-32 0 -51 -5.5t-27.5 -19.5t-10.5 -24.5 t-3 -32.5v-8q-2 -37 -2 -135q0 -74 2 -103q2 -18 2 -57l-2 -43v-90q2 -49 2 -144zM360 1749l43 49l25 25q27 27 31 32l59 64l35 33q1 1 7.5 8t8 8t6.5 5.5t7 5.5t6.5 4t8 3.5t8 1.5t9.5 1q15 0 26.5 -5t17 -10t20.5 -20l31 -31q19 -19 28 -31q12 -14 31 -30l39 -45l31 -35 l14 -15l20 -22q22 -22 13 -53q-5 -16 -41 -52q-22 -19 -43.5 -16.5t-40.5 21.5l-80 77l-29 35l-37 37q-2 -2 -22 -24.5t-31 -36.5l-12 -13q-5 -4 -23 -24l-16 -21l-21 -22l-10 -8q-23 -23 -41 -23q-24 0 -65 41q-46 49 -13 86z" />
<glyph unicode="&#xcb;" horiz-adv-x="1157" d="M178 748l4 126q0 95 -2 144v90l2 43q0 39 -2 57q-2 29 -2 103q0 98 2 135v8q1 22 3 32.5t10.5 24.5t27.5 19.5t51 5.5q123 0 170 -2q121 -4 138 -2q61 4 174 4l139 -2q38 -1 52.5 -2t27.5 -11.5t16 -24.5t8 -48l-2 -33q0 -30 -13 -48.5t-31 -23.5t-38 -7t-34 1h-9 q-67 0 -108 -2q-25 -2 -84 -2q-27 0 -45 -2l-217 -2q-2 0 -6 0.5t-9 0.5t-10 -1q0 -60 4 -96q4 -74 4 -113q0 -36 -4 -82l-1 -4q-1 -4 -1 -8q-6 -92 -2 -119h148q28 -4 36 -4q34 0 70 4l133 -6q25 -1 40.5 -7.5t22 -19.5t8 -24.5t1.5 -30.5q1 -24 0 -40t-7 -26.5t-9 -15.5 t-17 -7.5t-19 -2.5h-26h-18q-92 -9 -142 -4h-75q-23 -2 -72 -2l-64 2h-8v-121q2 -16 -2 -65v-23l-2 -49q-1 -22 4 -84q2 -35 2 -115l-2 -57v-4q40 -4 123 -4q8 0 26 -1t27 -1q49 -3 99 0h127l73 -4q6 0 15.5 -1t11.5 -1q57 -3 69.5 -13t18.5 -63q3 -68 -4.5 -84.5 t-44.5 -28.5q-6 0 -10 -2q-16 -3 -170 2h-195q-104 0 -190 -4h-101q-56 0 -72 23t-16 81v35q2 63 2 187v217q0 61 -2 92zM346 1755q0 39 24.5 74t59.5 45q10 0 19 1t10 1h6q45 0 70.5 -27t31.5 -59q4 -47 -27 -86t-67 -49q-34 -8 -68.5 4t-48.5 43q-10 25 -10 53z M679.5 1789.5q15.5 45.5 53.5 70.5q23 16 49 16q43 0 74 -27t33 -57q5 -39 -32 -80.5t-71 -54.5q-25 -8 -54.5 3.5t-45.5 39.5q-22 44 -6.5 89.5z" />
<glyph unicode="&#xcc;" horiz-adv-x="583" d="M24.5 1870.5q-4.5 17.5 2.5 30.5q6 15 26 45q8 12 13.5 17.5t14.5 11.5t20.5 5.5t27.5 -6.5l51 -22l23 -15l10 -6l33 -18l28 -19l7 -4l10 -6q6 -6 12 -6q29 -19 43 -25q48 -22 82 -38q8 -4 31.5 -19.5t38.5 -23.5q32 -21 8 -91q-22 -66 -96 -36l-31 10q-2 1 -14 5t-19 9 q-6 4 -20 10.5t-15 6.5l-12 6l-25 12l-12 8l-16 6l-23 13l-49 30q-13 5 -20 11q-17 9 -50.5 31.5t-50.5 31.5q-24 18 -28.5 35.5zM170 1206v54q0 26 2 38q0 6 1 16t1 11v127q0 56 23 72.5t79 11.5q67 -6 83 -18.5t16 -71.5v-6q3 -45 -2 -117q-2 -14 -2 -53q0 -42 -2 -62v-20 q0 -3 2 -60q4 -106 4 -344v-385q0 -6 2 -16v-12q5 -38 2 -58q0 -31 -2 -39v-18q4 -18 4 -55l2 -19q2 -12 2 -37v-28q1 -32 0 -54.5t-9.5 -37t-30 -21t-60.5 -6.5q-26 0 -44 2.5t-29.5 11t-18 16t-9.5 25.5t-3.5 32t-0.5 42l-2 8v60q-4 51 -4 170v75q2 39 2 119q0 99 -2 148 v90q0 15 -1 46t-1 46v24q0 9 1 29t1 27v96q-2 14 -2 51q0 57 -2 90z" />
<glyph unicode="&#xcd;" horiz-adv-x="583" d="M53 1671q-25 73 21 101l61 36q19 4 82 41l37 17l20 12l7 4q20 15 34 21l29 12l33 18l45 21q58 22 84 -19q18 -25 26 -45q14 -47 -24 -73l-105 -62q-5 -5 -20 -10l-49 -27l-25 -12l-20 -8l-6 -4l-25 -15l-20 -8q-1 0 -2 -0.5t-6 -2.5t-13 -5q-9 -6 -39 -21l-26 -8 q-14 -6 -21.5 -8t-25 -3t-30.5 11.5t-22 36.5zM170 1206v54q0 26 2 38q0 6 1 16t1 11v127q0 56 23 72.5t79 11.5q67 -6 83 -18.5t16 -71.5v-6q3 -45 -2 -117q-2 -14 -2 -53q0 -42 -2 -62v-20q0 -3 2 -60q4 -106 4 -344v-385q0 -6 2 -16v-12q5 -38 2 -58q0 -31 -2 -39v-18 q4 -18 4 -55l2 -19q2 -12 2 -37v-28q1 -32 0 -54.5t-9.5 -37t-30 -21t-60.5 -6.5q-26 0 -44 2.5t-29.5 11t-18 16t-9.5 25.5t-3.5 32t-0.5 42l-2 8v60q-4 51 -4 170v75q2 39 2 119q0 99 -2 148v90q0 15 -1 46t-1 46v24q0 9 1 29t1 27v96q-2 14 -2 51q0 57 -2 90z" />
<glyph unicode="&#xce;" horiz-adv-x="583" d="M-18 1767l43 50l24 24q23 23 31 33l59 63l35 33l4 4q13 13 19.5 18.5t16.5 10t22 4.5q5 0 9 -0.5t7 -1t7 -2t6 -2t5.5 -3.5t5 -4t5.5 -4.5t5.5 -5l6 -6l6.5 -6.5l31 -30q19 -19 28 -31q14 -17 31 -31l39 -45l31 -35l14 -14l21 -23q21 -21 12 -53q-5 -15 -41 -51 q-22 -19 -43.5 -17t-40.5 21l-80 78l-29 35l-36 36q-2 -3 -22.5 -25.5t-31.5 -35.5l-12 -12q-5 -5 -23 -25l-16 -20l-20 -23l-11 -8q-23 -23 -41 -23q-24 0 -65 41q-45 48 -12 86zM170 1206q2 -33 2 -90q0 -37 2 -51v-96q0 -7 -1 -27t-1 -29v-24q0 -15 1 -46t1 -46v-90 q2 -49 2 -148q0 -80 -2 -119v-75q0 -119 4 -170v-60l2 -8q0 -28 0.5 -42t3.5 -32t9.5 -25.5t18 -16t29.5 -11t44 -2.5q39 0 60.5 6.5t30 21t9.5 37t0 54.5v28q0 25 -2 37l-2 19q0 37 -4 55v18q2 8 2 39q3 20 -2 58v12q-2 10 -2 16v385q0 238 -4 344q-2 57 -2 60v20 q2 20 2 62q0 39 2 53q5 72 2 117v6q0 59 -16 71.5t-83 18.5q-56 5 -79 -11.5t-23 -72.5v-127q0 -1 -1 -11t-1 -16l-2 -38v-54z" />
<glyph unicode="&#xcf;" horiz-adv-x="583" d="M-23 1776q0 38 24.5 73t59.5 45q9 0 19 1l10 1h6q45 0 71 -27t32 -59q4 -47 -27.5 -86t-67.5 -49q-34 -8 -68 4t-48 43q-11 28 -11 54zM170 1206v54q0 26 2 38q0 6 1 16t1 11v127q0 56 23 72.5t79 11.5q67 -6 83 -18.5t16 -71.5v-6q3 -45 -2 -117q-2 -14 -2 -53 q0 -42 -2 -62v-20q0 -3 2 -60q4 -106 4 -344v-385q0 -6 2 -16v-12q5 -38 2 -58q0 -31 -2 -39v-18q4 -18 4 -55l2 -19q2 -12 2 -37v-28q1 -32 0 -54.5t-9.5 -37t-30 -21t-60.5 -6.5q-26 0 -44 2.5t-29.5 11t-18 16t-9.5 25.5t-3.5 32t-0.5 42l-2 8v60q-4 51 -4 170v75 q2 39 2 119q0 99 -2 148v90q0 15 -1 46t-1 46v24q0 9 1 29t1 27v96q-2 14 -2 51q0 57 -2 90zM311 1810q16 45 54 70q23 16 49 16q43 0 73.5 -27t32.5 -57q5 -39 -31.5 -80.5t-70.5 -54.5q-25 -8 -55 3.5t-46 39.5q-22 45 -6 90z" />
<glyph unicode="&#xd0;" horiz-adv-x="1388" d="M-8 778q10 54 26.5 64t75.5 10h17q46 4 84 4v252l4 143v88l2 72l2 70q-2 27 15 41t54 14h78q139 0 271 -18q235 -39 405 -209l18 -25l48 -51q62 -85 104 -240l6 -24l6 -35q17 -66 17 -148q5 -38 -4 -110l-7 -78l-18 -74q-2 -21 -27 -78l-18 -38l-8 -17l-8 -14l-21 -39 l-18 -21l-25 -36l-20 -25q-23 -45 -66 -70q-79 -60 -179.5 -111t-187.5 -65q-86 -12 -237 -12q-6 2 -41.5 2t-52.5 -2q-66 3 -81.5 17t-15.5 75v119q0 59 5 309v135h-105q-67 4 -85.5 27.5t-12.5 97.5zM397 193l135 4q88 0 152 41l64 34l81 60l29 22q28 24 62 68l16 20 l18 43q13 24 18.5 36t14.5 41.5t19 74.5q10 40 10 96q0 11 2 17v45q0 3 -1 10t-1 12q0 4 -1 13t-1 14q-25 109 -41 149l-25 54l-28 45l-41 57l-15 18l-20 29q-32 24 -41 35q-19 18 -41 31l-57 26l-52 12q-3 0 -7 1.5l-12 4.5t-16 5l-28 10q-14 4 -59 7t-52 1l-73 -2v-104 l-3 -31v-109q-4 -46 -4 -67q0 -57 2 -82v-78q88 0 111 -2h55q35 1 52.5 -1t35.5 -12t24.5 -33t6.5 -63q0 -60 -26 -78t-89 -18h-170q-4 -102 -4 -153v-303z" />
<glyph unicode="&#xd1;" horiz-adv-x="1462" d="M178 1128q0 -4 1 -18t1 -23q4 -53 2 -81v-23l2 -53v-131q-4 -27 0 -58l4 -110v-27l2 -158l3 -127q0 -23 4 -77q0 -56 2 -70q0 -56 4 -96q3 -37 20 -54t60 -24h28q2 0 7.5 1t7.5 1q45 3 59.5 16.5t13.5 67.5l2 59l-2 11q-2 20 -2 36v48l-4 53l-6 35q-3 15 2 55l2 143v27 q0 57 -2 86l-2 20v13q-2 12 -2 32l4 127l-2 15l-2 69q0 10 -3.5 48.5t-4.5 52.5l-8 116l39 -81l94 -183l16 -26l41 -80l57 -78l21 -37l43 -78l12 -20q43 -71 47 -80l17 -31l98 -147l74 -109l18 -26q37 -54 64 -93q14 -20 24.5 -31t30.5 -20.5t47 -9.5q82 0 82 80v55 q0 37 -2 53v361q-5 19 -2 41v262q0 45 -2 55v-2l-2 51q0 193 4 308q2 25 2 96l-2 82v8q0 25 -2 36.5t-11.5 24.5t-32 18t-61.5 5q-56 -3 -73 -22.5t-23 -86.5l-6 -147q-2 -62 2 -166q2 -29 2 -78q0 -109 2 -164v-153l-2 -131q7 -114 10 -176l-53 114l-74 142l-26 36l-62 109 q-51 72 -88 143l-8 17l-27 45l-8 12l-35 59l-49 87l-57 92q-7 11 -22 32t-19 27l-25 43l-61 92q-26 42 -53.5 58t-79.5 16q-35 0 -52.5 -16.5t-17.5 -55.5q0 -139 2 -178l-2 -94v-62zM350 1753q37 42 99.5 76.5t97.5 34.5q67 0 108 -29q16 -5 76 -53q45 -25 72 -25 q21 0 40 13.5t48 46.5q12 15 36.5 10t49 -17t38.5 -36t5 -48q-23 -46 -82 -89.5t-123 -47.5q-39 -4 -115 35l-75 53l-33 17q-12 8 -39 8q-29 0 -109 -64q-18 -15 -47.5 5.5t-46 55t-0.5 54.5z" />
<glyph unicode="&#xd2;" horiz-adv-x="1370" d="M121 829v115q2 15 4 21v28q0 7 2 17v26q2 12 2 25q4 24 4 43q23 171 143 291q73 70 143 106.5t173 42.5l55 2h23q6 0 10 -2h10q97 -7 167.5 -42.5t146.5 -98.5q127 -124 151 -297q0 -15 4 -31v-20q0 -7 2 -19v-47q4 -24 4 -43l2 -78v-231q0 -50 -4 -70q-2 -8 -2 -20 q0 -69 -6 -113q-2 -4 -2 -6q-2 -4 -2 -8q-25 -113 -57 -168q-80 -130 -146 -174l-108 -49l-43 -17q-56 -17 -160 -24h-41q-85 5 -129 24q-81 37 -155 100t-117 132q-24 45 -45 123.5t-25 152.5q-2 27 -2 88v74q0 96 -2 147zM319 575q3 -37 21 -122q3 -33 6 -39 q53 -100 100 -144q41 -38 73.5 -51.5t90.5 -19.5q27 0 37 -2q84 9 115 30l57 29q3 1 9.5 5t9.5 5l20 21q44 50 80 139q2 4 2 16l6 39q4 43 8 54q0 1 1 3t1 3q9 23 9 55v115q-2 16 -2 49q0 116 -13 272q-11 146 -102 217q-88 85 -191 88h-41q-18 0 -24 -2l-27 -2 q-80 -30 -121 -69q-55 -33 -81.5 -116.5t-34.5 -234.5q-6 -63 -6 -112v-176q-3 -30 -3 -50zM354 1909q4 11 27 45q8 12 13.5 17.5t14.5 11.5t20.5 5.5t27.5 -6.5l51 -22l22 -14l11 -7l32 -18l29 -18l6 -5l10 -6q6 -6 13 -6q29 -18 43 -24q13 -6 82 -39q7 -4 30.5 -19.5 t38.5 -23.5q32 -21 9 -90q-23 -67 -97 -37l-30 10q-2 1 -14 5t-19 9q-6 4 -20 10.5t-15 6.5l-12 6l-25 12l-12 8l-17 6l-22 13l-49 30q-15 5 -21 11q-18 9 -50.5 31.5t-49.5 31.5q-38 29 -27 66z" />
<glyph unicode="&#xd3;" horiz-adv-x="1370" d="M121 829v115q2 15 4 21v28q0 7 2 17v26q2 12 2 25q4 24 4 43q23 171 143 291q73 70 143 106.5t173 42.5l55 2h23q6 0 10 -2h10q97 -7 167.5 -42.5t146.5 -98.5q127 -124 151 -297q0 -15 4 -31v-20q0 -7 2 -19v-47q4 -24 4 -43l2 -78v-231q0 -50 -4 -70q-2 -8 -2 -20 q0 -69 -6 -113q-2 -4 -2 -6q-2 -4 -2 -8q-25 -113 -57 -168q-80 -130 -146 -174l-108 -49l-43 -17q-56 -17 -160 -24h-41q-85 5 -129 24q-81 37 -155 100t-117 132q-24 45 -45 123.5t-25 152.5q-2 27 -2 88v74q0 96 -2 147zM319 575q3 -37 21 -122q3 -33 6 -39 q53 -100 100 -144q41 -38 73.5 -51.5t90.5 -19.5q27 0 37 -2q84 9 115 30l57 29q3 1 9.5 5t9.5 5l20 21q44 50 80 139q2 4 2 16l6 39q4 43 8 54q0 1 1 3t1 3q9 23 9 55v115q-2 16 -2 49q0 116 -13 272q-11 146 -102 217q-88 85 -191 88h-41q-18 0 -24 -2l-27 -2 q-80 -30 -121 -69q-55 -33 -81.5 -116.5t-34.5 -234.5q-6 -63 -6 -112v-176q-3 -30 -3 -50zM471 1688q-25 73 21 100l61 37q19 4 82 41l37 16l20 12l6 4q19 14 35 21l29 12l33 19l45 20q59 22 84 -18q18 -25 26 -45q14 -48 -24 -74l-105 -61q-6 -6 -20 -11l-49 -26l-25 -13 l-20 -8l-7 -4l-24 -14l-21 -8q-1 0 -2 -1t-5.5 -3t-12.5 -5q-3 -2 -39 -20l-27 -8q-14 -6 -21.5 -7.5t-24.5 -3t-30 11t-22 36.5z" />
<glyph unicode="&#xd4;" horiz-adv-x="1370" d="M121 829v115q2 15 4 21v28q0 7 2 17v26q2 12 2 25q4 24 4 43q23 171 143 291q73 70 143 106.5t173 42.5l55 2h23q6 0 10 -2h10q97 -7 167.5 -42.5t146.5 -98.5q127 -124 151 -297q0 -15 4 -31v-20q0 -7 2 -19v-47q4 -24 4 -43l2 -78v-231q0 -50 -4 -70q-2 -8 -2 -20 q0 -69 -6 -113q-2 -4 -2 -6q-2 -4 -2 -8q-25 -113 -57 -168q-80 -130 -146 -174l-108 -49l-43 -17q-56 -17 -160 -24h-41q-85 5 -129 24q-81 37 -155 100t-117 132q-24 45 -45 123.5t-25 152.5q-2 27 -2 88v74q0 96 -2 147zM319 575q3 -37 21 -122q3 -33 6 -39 q53 -100 100 -144q41 -38 73.5 -51.5t90.5 -19.5q27 0 37 -2q84 9 115 30l57 29q3 1 9.5 5t9.5 5l20 21q44 50 80 139q2 4 2 16l6 39q4 43 8 54q0 1 1 3t1 3q9 23 9 55v115q-2 16 -2 49q0 116 -13 272q-11 146 -102 217q-88 85 -191 88h-41q-18 0 -24 -2l-27 -2 q-80 -30 -121 -69q-55 -33 -81.5 -116.5t-34.5 -234.5q-6 -63 -6 -112v-176q-3 -30 -3 -50zM395 1753l43 49l25 25q23 23 31 33l59 63l35 33q1 1 7.5 8t8 8t6.5 5.5t7 5.5t6.5 4t8 3.5t8 1.5t9.5 1q15 0 26.5 -5t17 -10t20.5 -20l30 -31q23 -23 29 -31q12 -14 31 -30l39 -45 l30 -35l15 -14l20 -23q22 -22 13 -53q-5 -15 -41 -51q-22 -19 -43.5 -17t-40.5 21l-80 77l-29 35l-37 37q-2 -2 -22 -24.5t-31 -36.5l-12 -13q-5 -4 -23 -24l-16 -21l-21 -22l-10 -8q-23 -23 -41 -23q-24 0 -65 41q-46 49 -13 86z" />
<glyph unicode="&#xd5;" horiz-adv-x="1370" d="M121 829v115q2 15 4 21v28q0 7 2 17v26q2 12 2 25q4 24 4 43q23 171 143 291q73 70 143 106.5t173 42.5l55 2h23q6 0 10 -2h10q97 -7 167.5 -42.5t146.5 -98.5q127 -124 151 -297q0 -15 4 -31v-20q0 -7 2 -19v-47q4 -24 4 -43l2 -78v-231q0 -50 -4 -70q-2 -8 -2 -20 q0 -69 -6 -113q-2 -4 -2 -6q-2 -4 -2 -8q-25 -113 -57 -168q-80 -130 -146 -174l-108 -49l-43 -17q-56 -17 -160 -24h-41q-85 5 -129 24q-81 37 -155 100t-117 132q-24 45 -45 123.5t-25 152.5q-2 27 -2 88v74q0 96 -2 147zM319 575q3 -37 21 -122q3 -33 6 -39 q53 -100 100 -144q41 -38 73.5 -51.5t90.5 -19.5q27 0 37 -2q84 9 115 30l57 29q3 1 9.5 5t9.5 5l20 21q44 50 80 139q2 4 2 16l6 39q4 43 8 54q0 1 1 3t1 3q9 23 9 55v115q-2 16 -2 49q0 116 -13 272q-11 146 -102 217q-88 85 -191 88h-41q-18 0 -24 -2l-27 -2 q-80 -30 -121 -69q-55 -33 -81.5 -116.5t-34.5 -234.5q-6 -63 -6 -112v-176q-3 -30 -3 -50zM322 1804q37 42 99 76.5t97 34.5q68 0 109 -29q14 -5 75 -53q45 -25 72 -25q21 0 40 13.5t48 46.5q12 15 36.5 10.5t49 -17t38.5 -36t5 -47.5q-23 -46 -82 -90t-123 -48 q-38 -4 -114 35l-76 54l-33 16q-12 8 -39 8q-29 0 -108 -63q-18 -15 -47.5 5t-46 54.5t-0.5 54.5z" />
<glyph unicode="&#xd6;" horiz-adv-x="1370" d="M121 829v115q2 15 4 21v28q0 7 2 17v26q2 12 2 25q4 24 4 43q23 171 143 291q73 70 143 106.5t173 42.5l55 2h23q6 0 10 -2h10q97 -7 167.5 -42.5t146.5 -98.5q127 -124 151 -297q0 -15 4 -31v-20q0 -7 2 -19v-47q4 -24 4 -43l2 -78v-231q0 -50 -4 -70q-2 -8 -2 -20 q0 -69 -6 -113q-2 -4 -2 -6q-2 -4 -2 -8q-25 -113 -57 -168q-80 -130 -146 -174l-108 -49l-43 -17q-56 -17 -160 -24h-41q-85 5 -129 24q-81 37 -155 100t-117 132q-24 45 -45 123.5t-25 152.5q-2 27 -2 88v74q0 96 -2 147zM319 575q3 -37 21 -122q3 -33 6 -39 q53 -100 100 -144q41 -38 73.5 -51.5t90.5 -19.5q27 0 37 -2q84 9 115 30l57 29q3 1 9.5 5t9.5 5l20 21q44 50 80 139q2 4 2 16l6 39q4 43 8 54q0 1 1 3t1 3q9 23 9 55v115q-2 16 -2 49q0 116 -13 272q-11 146 -102 217q-88 85 -191 88h-41q-18 0 -24 -2l-27 -2 q-80 -30 -121 -69q-55 -33 -81.5 -116.5t-34.5 -234.5q-6 -63 -6 -112v-176q-3 -30 -3 -50zM389 1765q0 39 24.5 74t59.5 45q9 0 19 1l10 1h6q45 0 70.5 -27t31.5 -59q4 -47 -27 -86t-67 -49q-34 -8 -68.5 4t-48.5 43q-10 25 -10 53zM722.5 1799.5q15.5 45.5 53.5 70.5 q23 16 49 16q43 0 74 -27t33 -57q5 -39 -32 -80.5t-71 -54.5q-25 -8 -54.5 3.5t-45.5 39.5q-22 44 -6.5 89.5z" />
<glyph unicode="&#xd7;" horiz-adv-x="966" d="M102 414q0 28 39 67l160 162l-37 37l-26 31q-17 16 -42.5 44t-41.5 48l-17 20q-34 41 13 103q39 39 69 39q31 0 78 -47l143 -144l13 12q30 27 56.5 53.5l38.5 38.5l11 13l25 20q62 58 90 58t67 -39t39 -72q0 -13 -6 -25t-12.5 -19t-22.5 -23l-67 -66l-41 -45l-25 -23 l-26 -32q5 -8 20 -22.5t25 -20.5q13 -17 34 -31l46 -53q21 -21 31 -32t19 -25.5t9 -26.5q0 -27 -29 -60q-45 -45 -73 -45q-13 0 -26.5 7t-22.5 15t-33 31l-41 41q-38 19 -99 97q-82 -82 -98 -99l-6 -8l-14 -18l-31 -27q-38 -47 -74 -47t-78 45q-37 34 -37 68z" />
<glyph unicode="&#xd8;" horiz-adv-x="1370" d="M121 829v115q2 15 4 21v28q0 7 2 17v26q2 12 2 25q4 24 4 43q23 171 143 291q73 70 143 106.5t173 42.5l55 2h23q6 0 10 -2h10q98 -9 168 -43l8 17l17 24q12 25 18.5 36t20 21t32.5 8t47 -14l13 -6q40 -20 50 -41t-3 -53l-45 -104q114 -118 139 -283q0 -15 4 -31v-20 q0 -7 2 -19v-47q4 -24 4 -43l2 -78v-231q0 -50 -4 -70q-2 -8 -2 -20q0 -69 -6 -113q-2 -4 -2 -6q-2 -4 -2 -8q-25 -113 -57 -168q-80 -130 -146 -174l-108 -49l-43 -17q-56 -17 -160 -24h-41q-85 5 -129 24q-17 7 -57 29l-29 -68q-26 -52 -44.5 -57.5t-76.5 21.5 q-54 25 -61 48.5t22 88.5l39 86q-42 42 -65 84q-24 45 -45 123.5t-25 152.5q-2 27 -2 88v74q0 96 -2 147zM319 575q3 -37 21 -122q3 -33 6 -39l14 -27q40 96 89 207.5t55 120.5l160 334l22 49l23 53q30 76 32 82l31 74q-52 27 -115 30h-41q-18 0 -24 -2l-27 -2 q-80 -30 -121 -69q-55 -33 -81.5 -116.5t-34.5 -234.5q-6 -63 -6 -112v-176q-3 -30 -3 -50zM498 229q45 -25 112 -30q27 0 37 -2q84 9 115 30l57 29q3 1 9.5 5t9.5 5l20 21q44 50 80 139q2 4 2 16l6 39q4 43 8 54q0 1 1 3t1 3q9 23 9 55v115q-2 16 -2 49q0 116 -13 272 q-6 72 -37 135l-4 -8q-2 -8 -26 -72q-7 -16 -18.5 -42t-19.5 -44.5t-9 -21.5l-172 -381q-43 -107 -95 -215z" />
<glyph unicode="&#xd9;" horiz-adv-x="1411" d="M150 559q0 1 1 5t1 9v127q0 78 6 136q0 34 -2 36q-4 40 -4 95v51q-4 45 0 90v18q0 11 2 17v139q5 85 2 141q-3 71 21.5 91t84.5 20q70 0 88.5 -17t18.5 -69v-121q0 -96 -4 -184v-129l4 -213v-123q-4 -74 -4 -125q0 -80 12 -150q32 -102 80 -127q37 -35 92.5 -57t99.5 -22 q11 0 78 10l16 4l13 2l35 10q16 5 59 27q2 2 8 6.5l8 6t6.5 5.5t7 7t5.5 7.5t6 10.5q34 55 39 74l10 34l6 21q19 80 19 170v57q0 53 2 86v19q4 32 4 49v35q0 102 -4 149q-2 27 -2 78v207q0 25 4 45v57q0 8 1 30t1 28q0 68 21 85t79 17q32 0 46.5 -2t29 -11t19.5 -29t5 -56 v-103q0 -3 -1 -9t-1 -9v-62v-30q-2 -29 -2 -78q0 -55 2 -80l2 -213v-104q-2 -37 -2 -125v-97q0 -54 -8 -120q0 -2 -1 -9t-1 -8l-16 -49q-17 -56 -46 -116.5t-57 -88.5q-79 -75 -167.5 -110.5t-206.5 -36.5q-99 0 -172 22q-124 38 -207 136t-119 229q-18 73 -18 184z M358 1858q-5 17 2 30q4 11 27 45q7 10 11 14.5t11 10.5t14 8t17 1.5t23 -5.5l51 -23l23 -14l10 -6l33 -18l28 -19l6 -4l11 -6q6 -6 12 -6q29 -19 43 -25q13 -6 82 -39q7 -4 30.5 -19.5t38.5 -23.5q32 -21 9 -90q-23 -67 -97 -37l-30 10q-1 1 -13.5 5.5t-19.5 9.5 q-6 3 -19.5 9t-15.5 7l-12 6l-25 13l-12 8l-16 6l-23 12l-49 31q-17 5 -21 10q-18 9 -50 32t-50 32q-24 18 -29 35z" />
<glyph unicode="&#xda;" horiz-adv-x="1411" d="M150 559q0 1 1 5t1 9v127q0 78 6 136q0 34 -2 36q-4 40 -4 95v51q-4 45 0 90v18q0 11 2 17v139q5 85 2 141q-3 71 21.5 91t84.5 20q70 0 88.5 -17t18.5 -69v-121q0 -96 -4 -184v-129l4 -213v-123q-4 -74 -4 -125q0 -80 12 -150q32 -102 80 -127q37 -35 92.5 -57t99.5 -22 q11 0 78 10l16 4l13 2l35 10q16 5 59 27q2 2 8 6.5l8 6t6.5 5.5t7 7t5.5 7.5t6 10.5q34 55 39 74l10 34l6 21q19 80 19 170v57q0 53 2 86v19q4 32 4 49v35q0 102 -4 149q-2 27 -2 78v207q0 25 4 45v57q0 8 1 30t1 28q0 68 21 85t79 17q32 0 46.5 -2t29 -11t19.5 -29t5 -56 v-103q0 -3 -1 -9t-1 -9v-62v-30q-2 -29 -2 -78q0 -55 2 -80l2 -213v-104q-2 -37 -2 -125v-97q0 -54 -8 -120q0 -2 -1 -9t-1 -8l-16 -49q-17 -56 -46 -116.5t-57 -88.5q-79 -75 -167.5 -110.5t-206.5 -36.5q-99 0 -172 22q-124 38 -207 136t-119 229q-18 73 -18 184z M522 1649q-25 73 21 100l61 37q19 4 82 41l37 16l20 12l7 5q17 13 34 20l29 12l33 19l45 20q59 22 84 -18q18 -25 26 -45q14 -48 -24 -74l-105 -61q-6 -7 -20 -11l-49 -26l-25 -13l-20 -8l-6 -4l-25 -14l-20 -8q-1 0 -2 -1t-6 -3t-13 -5q-3 -2 -39 -20l-26 -8 q-14 -6 -21.5 -8t-25 -3t-30.5 11.5t-22 36.5z" />
<glyph unicode="&#xdb;" horiz-adv-x="1411" d="M150 559q0 -111 18 -184q36 -131 119 -229t207 -136q73 -22 172 -22q118 1 206.5 36.5t167.5 110.5q28 28 57 88.5t46 116.5l16 49q0 1 1 8t1 9q8 66 8 120v97q0 88 2 125v104l-2 213q-2 25 -2 80q0 49 2 78v30v62q0 3 1 9t1 9v103q0 36 -5 56t-19.5 29t-29 11t-46.5 2 q-58 0 -79 -17t-21 -85q0 -6 -1 -28t-1 -30v-57q-4 -20 -4 -45v-207q0 -51 2 -78q4 -47 4 -149v-35q0 -17 -4 -49v-19q-2 -33 -2 -86v-57q0 -90 -19 -170l-6 -21l-10 -34q-5 -19 -39 -74q-3 -6 -6 -10.5t-5.5 -7.5t-7 -7t-6.5 -5.5l-8 -6t-8 -6.5q-43 -22 -59 -27l-35 -10 l-13 -2l-16 -4q-67 -10 -78 -10q-44 0 -99.5 22t-92.5 57q-48 25 -80 127q-12 70 -12 150q0 51 4 125v123l-4 213v129q4 88 4 184v121q0 52 -18.5 69t-88.5 17q-60 0 -84.5 -20t-21.5 -91q3 -56 -2 -141v-139l-2 -17v-18q-4 -45 0 -90v-51q0 -55 4 -95q2 -2 2 -36 q-6 -58 -6 -136v-127q0 -5 -1 -9t-1 -5zM401 1769l43 50l25 24q23 23 31 33l59 63l35 33q1 1 7.5 8t8 8t6.5 5.5t7 5.5t6.5 4t8 3.5t8 1.5t9.5 1q15 0 26.5 -5t17 -10t20.5 -20l31 -30q19 -19 28 -31q14 -17 31 -31l39 -45l31 -35l14 -14l20 -23q22 -22 13 -53 q-5 -15 -41 -51q-22 -19 -43.5 -17t-40.5 21l-80 78l-29 35l-37 37q-1 -1 -21.5 -24.5t-31.5 -37.5l-12 -12q-5 -5 -23 -25l-16 -20l-21 -23l-10 -8q-23 -23 -41 -23q-24 0 -65 41q-46 49 -13 86z" />
<glyph unicode="&#xdc;" horiz-adv-x="1411" d="M150 559q0 1 1 5t1 9v127q0 78 6 136q0 34 -2 36q-4 40 -4 95v51q-4 45 0 90v18q0 11 2 17v139q5 85 2 141q-3 71 21.5 91t84.5 20q70 0 88.5 -17t18.5 -69v-121q0 -96 -4 -184v-129l4 -213v-123q-4 -74 -4 -125q0 -80 12 -150q32 -102 80 -127q37 -35 92.5 -57t99.5 -22 q11 0 78 10l16 4l13 2l35 10q16 5 59 27q2 2 8 6.5l8 6t6.5 5.5t7 7t5.5 7.5t6 10.5q34 55 39 74l10 34l6 21q19 80 19 170v57q0 53 2 86v19q4 32 4 49v35q0 102 -4 149q-2 27 -2 78v207q0 25 4 45v57q0 8 1 30t1 28q0 68 21 85t79 17q32 0 46.5 -2t29 -11t19.5 -29t5 -56 v-103q0 -3 -1 -9t-1 -9v-62v-30q-2 -29 -2 -78q0 -55 2 -80l2 -213v-104q-2 -37 -2 -125v-97q0 -54 -8 -120q0 -2 -1 -9t-1 -8l-16 -49q-17 -56 -46 -116.5t-57 -88.5q-79 -75 -167.5 -110.5t-206.5 -36.5q-99 0 -172 22q-124 38 -207 136t-119 229q-18 73 -18 184z M412 1767q0 39 24.5 74t59.5 45q10 0 19 1l9 1h6q45 0 71 -27t32 -59q4 -47 -27 -86t-67 -49q-34 -8 -68.5 4t-48.5 43q-10 25 -10 53zM745.5 1801.5q15.5 45.5 53.5 70.5q23 16 49 16q43 0 73.5 -27t32.5 -57q5 -39 -31.5 -80.5t-70.5 -54.5q-25 -8 -54.5 3.5t-45.5 39.5 q-22 44 -6.5 89.5z" />
<glyph unicode="&#xdd;" horiz-adv-x="1329" d="M4 1489q-8 30 19 39.5t90 7.5q42 0 61 -11t35 -38l53 -84l35 -55l4 -9l8 -12l41 -65l21 -35l57 -109l14 -24l29 -41l25 -35l43 -78q4 -5 7.5 -10.5t6.5 -12.5t6 -12l12 -22l15 -31l16 -18l19 -31q5 11 18 33t18 34l15 27l20 35l51 76l78 118l31 60l18 28l29 37 q3 7 12.5 21t12.5 20l51 92l37 66l30 51q12 31 93 35q58 2 83.5 -7t25 -29t-14.5 -50l-74 -154q-28 -44 -35 -61l-14 -25l-21 -39l-12 -24l-20 -35q-65 -97 -80 -115q-2 -4 -21 -33.5t-28 -43.5l-41 -72q-33 -59 -43 -82l-60 -92l-55 -76v-88q0 -18 2 -43v-31l2 -102l2 -17 v-69q-2 -39 -2 -168q1 -50 -20.5 -65t-73.5 -15q-65 0 -86 20.5t-21 71.5v131q-4 70 -4 113v16q-2 7 -2 15q-4 42 0 71q4 13 0 49q-4 24 -4 45v58q-12 19 -26.5 37.5t-20.5 29.5l-8 11l-33 57l-14 29l-54 80l-12 20l-53 98q-56 100 -98 152l-97 178l-16 27l-35 73 q-30 46 -47 107zM471 1622q-25 73 21 100l61 37q19 4 82 41l37 17l20 12l6 4q16 12 35 20l29 13l33 18l45 21q58 22 84 -19q18 -25 26 -45q14 -48 -24 -74l-105 -61q-5 -5 -20 -10l-49 -27l-25 -12l-20 -8l-7 -4l-24 -15l-21 -8q-1 0 -2 -0.5t-5.5 -2.5t-12.5 -5 q-9 -6 -39 -21l-27 -8q-14 -6 -21.5 -7.5t-24.5 -3t-30 11t-22 36.5z" />
<glyph unicode="&#xde;" horiz-adv-x="1224" d="M188 1425v9q0 39 1.5 54t12 29t30 16.5t59.5 2.5q60 -3 79 -17.5t19 -62.5l8 -145l-2 -90h6h60q138 0 235 -17q81 -12 176 -76q85 -72 132 -149q18 -29 33 -74t18 -82q4 -32 4 -65q0 -36 -4 -64q-2 -2 -2 -10l-2 -8q-30 -108 -125 -217q-41 -47 -120.5 -80t-146.5 -33 q-69 0 -94 -2q-50 -4 -94 -4h-55v-39q0 -11 1 -35.5t1 -38.5q2 -45 2 -145q0 -52 -19 -68t-92 -16q-55 0 -79.5 12t-24.5 49q2 37 2 179q0 78 -6 143q-4 51 -4 145v518q-4 37 -4 52v8q0 6 -1.5 20.5t-1.5 20.5v184q-2 29 -2 96zM401 1024q2 -47 2 -123q0 -33 3 -63v-7 q4 -58 4 -96q0 -7 -1 -14.5t-1 -9.5v-95q-2 -20 -2 -73v-8h75q109 0 154 8q45 9 67 20l58 33l16 8l10 10q15 15 19 29q13 20 21 39.5t10 29.5l2 9q6 25 6 47q0 46 -21.5 94.5t-44.5 71.5q-14 19 -49 41.5t-63 32.5q-84 16 -224 16h-12l-13 1q-13 1 -16 -1z" />
<glyph unicode="&#xdf;" horiz-adv-x="1243" d="M162 561v88l2 58v47q2 14 2 75v177q0 63 4 92q5 89 31 173.5t67 129.5q43 46 106 82.5t136 50.5q20 4 61 4q48 0 68 -4h-2q2 -2 10 -2q4 -2 8 -2q41 -4 90.5 -31t88.5 -61l14 -15q24 -25 37 -42t26.5 -50.5t20.5 -77.5q18 -126 -43 -237q-47 -66 -94 -103q-4 -4 -11 -9 t-14.5 -10t-9.5 -7q-8 -4 -19 -15l-28 -18l-23 -29q0 -12 6.5 -25t12.5 -16l8 -6t9 -6t7 -4l12 -12q35 -30 37 -31q275 -212 273 -369q-3 -136 -76 -239q-22 -28 -66.5 -59t-89.5 -50q-64 -22 -114 -22q-61 0 -134 32q-36 22 -79 68l-23 18q-12 12 -34 46t-33 61v-2 q-8 13 3.5 31t34 31.5t47.5 23t47.5 7.5t30.5 -17v2l17 -27q18 -23 30 -35q13 -15 42 -26t53 -11q3 0 24.5 4t24.5 7q25 10 33 18l12 14q23 25 29 37q7 9 10 78q2 52 -72 121q-8 6 -27 25q-31 35 -57 55l-8 6q-8 6 -27 25l-41 32l-10 8q-47 40 -80.5 95.5t-36.5 99.5 q-4 52 23 96.5t63 73.5q7 6 25 23.5t25 23.5l34 27l31 26q47 33 47 109q0 17 -4 37q-7 26 -31 54.5t-51 35.5q-46 16 -88 16q-49 0 -89.5 -29t-63.5 -65l-3 -8q-9 -14 -22 -70q0 -13 -4 -37l-2 -32l-2 -43q-2 -20 -2 -35v-15l-2 -57v-39l-2 -61q-2 -2 -2 -49v-35 q0 -30 -3 -64v-73q4 -55 0 -111v-92q3 -35 3 -68l-3 -20v-234q2 -60 -16.5 -79t-93.5 -19q-62 0 -75 12t-13 74v326z" />
<glyph unicode="&#xe0;" d="M11.5 24q-9.5 16 6.5 66l13 31l6 14l12 27l6 12l6 16q0 2 2.5 7.5t2.5 7.5l18 35v-2q15 31 20 47q7 8 17 34l4 15l33 78l22 45l29 69l31 78l28 76l6 14q22 68 37 99l17 43l43 90l12 28l6 18t11.5 32t11.5 28q8 25 22 43q2 4 5 15t5 14l9 20l14 39l8 21q0 15 29 86l6 20 q6 15 6 17l19 43q2 6 8 18t8 18l8 23l27 45q44 82 88 82q34 0 64.5 -49.5t90.5 -200.5l72 -199l6 -12l21 -69l24 -74l13 -31l14 -41l86 -256l20 -65l17 -47l14 -46q0 -3 6 -18t17 -41t18 -45q3 -7 18 -43.5t21 -54.5l6 -29l2 -12l17 -33l6 -18l16 -54q20 -51 5.5 -76 t-74.5 -24q-6 0 -18.5 1t-18.5 1l-9 2q-41 0 -64 20.5t-28 51.5q-5 23 -22 45l-6 14q-2 4 -2 6l-15 39q-17 34 -20 43q-6 13 -6 19l-7 14l-10 41q0 2 -2 6l-22 55q-4 4 -4 9q-29 74 -37 110q0 4 -2.5 9.5t-7 12.5t-5.5 9l-8 12h-313q-72 0 -90 -2h2l-25 -2l-2 -4l-6 -16 q-2 -2 -2 -9q-17 -55 -47 -110v2q-4 -15 -8 -19q-9 -13 -25 -51l-12 -31q-3 -9 -16.5 -38t-18.5 -43l-12 -27q-4 -4 -4 -8l-11 -29l-41 -74q-20 -35 -40 -46t-62 -11l-66 2q-40 6 -49.5 22zM395 1862q5 11 27 45q8 12 13.5 17.5t14.5 11.5t20.5 5.5t27.5 -6.5l51 -22l22 -15 l11 -6l32 -18l29 -19l6 -4l10 -6q6 -6 13 -6q29 -18 43 -24q13 -6 82 -39q8 -4 31 -19.5t38 -23.5q32 -21 8 -91q-22 -66 -96 -36l-30 10q-2 1 -14 5t-19 9q-6 4 -21 10l-14 7l-12 6l-25 12l-12 8l-17 6l-22 13l-49 30q-15 5 -21 11q-18 9 -50 31.5t-50 31.5q-38 29 -27 66z M510 731h127q82 0 160 2l-21 60q-4 4 -4 14l-22 72l-19 53l-10 33l-6 18l-37 141l-12 43l-7 -28l-10 -31q0 -17 -8 -29l-23 -67l-18 -56l-18 -47l-17 -32q-20 -46 -26 -74q-2 -4 -2 -8z" />
<glyph unicode="&#xe1;" d="M11.5 24q-9.5 16 6.5 66l13 31l6 14l12 27l6 12l6 16q0 2 2.5 7.5t2.5 7.5l18 35v-2q15 31 20 47q7 8 17 34l4 15l33 78l22 45l29 69l31 78l28 76l6 14q22 68 37 99l17 43l43 90l12 28l6 18t11.5 32t11.5 28q8 25 22 43q2 4 5 15t5 14l9 20l14 39l8 21q0 15 29 86l6 20 q6 15 6 17l19 43q2 6 8 18t8 18l8 23l27 45q44 82 88 82q34 0 64.5 -49.5t90.5 -200.5l72 -199l6 -12l21 -69l24 -74l13 -31l14 -41l86 -256l20 -65l17 -47l14 -46q0 -3 6 -18t17 -41t18 -45q3 -7 18 -43.5t21 -54.5l6 -29l2 -12l17 -33l6 -18l16 -54q20 -51 5.5 -76 t-74.5 -24q-6 0 -18.5 1t-18.5 1l-9 2q-41 0 -64 20.5t-28 51.5q-5 23 -22 45l-6 14q-2 4 -2 6l-15 39q-17 34 -20 43q-6 13 -6 19l-7 14l-10 41q0 2 -2 6l-22 55q-4 4 -4 9q-29 74 -37 110q0 4 -2.5 9.5t-7 12.5t-5.5 9l-8 12h-313q-72 0 -90 -2h2l-25 -2l-2 -4l-6 -16 q-2 -2 -2 -9q-17 -55 -47 -110v2q-4 -15 -8 -19q-9 -13 -25 -51l-12 -31q-3 -9 -16.5 -38t-18.5 -43l-12 -27q-4 -4 -4 -8l-11 -29l-41 -74q-20 -35 -40 -46t-62 -11l-66 2q-40 6 -49.5 22zM498 1634q-25 74 20 101l62 37q19 3 82 40l36 17l21 12l6 4q19 14 35 21l28 12 l33 18l45 21q58 22 84 -19q20 -29 27 -45q14 -47 -25 -73l-104 -62q-4 -4 -21 -10l-49 -27l-24 -12l-21 -8l-6 -4l-25 -15l-20 -8q-1 0 -2 -0.5t-5.5 -2.5t-12.5 -5q-3 -2 -39 -20l-27 -9q-14 -6 -21.5 -7.5t-24.5 -3t-30 11t-22 36.5zM510 731h127q82 0 160 2l-21 60 q-4 4 -4 14l-22 72l-19 53l-10 33l-6 18l-37 141l-12 43l-7 -28l-10 -31q0 -17 -8 -29l-23 -67l-18 -56l-18 -47l-17 -32q-20 -46 -26 -74q-2 -4 -2 -8z" />
<glyph unicode="&#xe2;" d="M11.5 24q-9.5 16 6.5 66l13 31l6 14l12 27l6 12l6 16q0 2 2.5 7.5t2.5 7.5l18 35v-2q15 31 20 47q7 8 17 34l4 15l33 78l22 45l29 69l31 78l28 76l6 14q22 68 37 99l17 43l43 90l12 28l6 18t11.5 32t11.5 28q8 25 22 43q2 4 5 15t5 14l9 20l14 39l8 21q0 15 29 86l6 20 q6 15 6 17l19 43q2 6 8 18t8 18l8 23l27 45q44 82 88 82q34 0 64.5 -49.5t90.5 -200.5l72 -199l6 -12l21 -69l24 -74l13 -31l14 -41l86 -256l20 -65l17 -47l14 -46q0 -3 6 -18t17 -41t18 -45q3 -7 18 -43.5t21 -54.5l6 -29l2 -12l17 -33l6 -18l16 -54q20 -51 5.5 -76 t-74.5 -24q-6 0 -18.5 1t-18.5 1l-9 2q-41 0 -64 20.5t-28 51.5q-5 23 -22 45l-6 14q-2 4 -2 6l-15 39q-17 34 -20 43q-6 13 -6 19l-7 14l-10 41q0 2 -2 6l-22 55q-4 4 -4 9q-29 74 -37 110q0 4 -2.5 9.5t-7 12.5t-5.5 9l-8 12h-313q-72 0 -90 -2h2l-25 -2l-2 -4l-6 -16 q-2 -2 -2 -9q-17 -55 -47 -110v2q-4 -15 -8 -19q-9 -13 -25 -51l-12 -31q-3 -9 -16.5 -38t-18.5 -43l-12 -27q-4 -4 -4 -8l-11 -29l-41 -74q-20 -35 -40 -46t-62 -11l-66 2q-40 6 -49.5 22zM406 1696l43 49l24 24q23 23 31 33l59 64l35 32q1 1 7.5 8t8 8t6.5 5.5t7 5.5 t6.5 4t8 3.5t8 1.5t9.5 1q15 0 26 -4.5t17 -9.5t21 -20l31 -31q19 -19 28 -31q14 -17 31 -31l39 -45l31 -34l14 -15l21 -22q21 -21 12 -54q-5 -15 -41 -51q-22 -19 -43.5 -17t-40.5 21l-80 78l-29 35l-37 37q-1 -1 -21.5 -24.5t-31.5 -37.5l-12 -12q-5 -5 -23 -25l-16 -20 l-20 -23l-11 -8q-22 -22 -41 -22q-24 0 -65 41q-45 48 -12 86zM510 731h127q82 0 160 2l-21 60q-4 4 -4 14l-22 72l-19 53l-10 33l-6 18l-37 141l-12 43l-7 -28l-10 -31q0 -17 -8 -29l-23 -67l-18 -56l-18 -47l-17 -32q-20 -46 -26 -74q-2 -4 -2 -8z" />
<glyph unicode="&#xe3;" d="M11.5 24q-9.5 16 6.5 66l13 31l6 14l12 27l6 12l6 16q0 2 2.5 7.5t2.5 7.5l18 35v-2q15 31 20 47q7 8 17 34l4 15l33 78l22 45l29 69l31 78l28 76l6 14q22 68 37 99l17 43l43 90l12 28l6 18t11.5 32t11.5 28q8 25 22 43q2 4 5 15t5 14l9 20l14 39l8 21q0 15 29 86l6 20 q6 15 6 17l19 43q2 6 8 18t8 18l8 23l27 45q44 82 88 82q34 0 64.5 -49.5t90.5 -200.5l72 -199l6 -12l21 -69l24 -74l13 -31l14 -41l86 -256l20 -65l17 -47l14 -46q0 -3 6 -18t17 -41t18 -45q3 -7 18 -43.5t21 -54.5l6 -29l2 -12l17 -33l6 -18l16 -54q20 -51 5.5 -76 t-74.5 -24q-6 0 -18.5 1t-18.5 1l-9 2q-41 0 -64 20.5t-28 51.5q-5 23 -22 45l-6 14q-2 4 -2 6l-15 39q-17 34 -20 43q-6 13 -6 19l-7 14l-10 41q0 2 -2 6l-22 55q-4 4 -4 9q-29 74 -37 110q0 4 -2.5 9.5t-7 12.5t-5.5 9l-8 12h-313q-72 0 -90 -2h2l-25 -2l-2 -4l-6 -16 q-2 -2 -2 -9q-17 -55 -47 -110v2q-4 -15 -8 -19q-9 -13 -25 -51l-12 -31q-3 -9 -16.5 -38t-18.5 -43l-12 -27q-4 -4 -4 -8l-11 -29l-41 -74q-20 -35 -40 -46t-62 -11l-66 2q-40 6 -49.5 22zM358 1804q37 42 99.5 76.5t97.5 34.5q68 0 109 -29q14 -5 75 -53q45 -25 72 -25 q21 0 40 13.5t48 46.5q12 15 36.5 10.5t49 -17t38.5 -36t5 -47.5q-23 -46 -82 -90t-123 -48q-38 -4 -114 35l-76 54l-33 16q-12 8 -39 8q-29 0 -108 -63q-18 -15 -48 5t-46.5 54.5t-0.5 54.5zM510 731h127q82 0 160 2l-21 60q-4 4 -4 14l-22 72l-19 53l-10 33l-6 18l-37 141 l-12 43l-7 -28l-10 -31q0 -17 -8 -29l-23 -67l-18 -56l-18 -47l-17 -32q-20 -46 -26 -74q-2 -4 -2 -8z" />
<glyph unicode="&#xe4;" d="M11.5 24q-9.5 16 6.5 66l13 31l6 14l12 27l6 12l6 16q0 2 2.5 7.5t2.5 7.5l18 35v-2q15 31 20 47q7 8 17 34l4 15l33 78l22 45l29 69l31 78l28 76l6 14q22 68 37 99l17 43l43 90l12 28l6 18t11.5 32t11.5 28q8 25 22 43q2 4 5 15t5 14l9 20l14 39l8 21q0 15 29 86l6 20 q6 15 6 17l19 43q2 6 8 18t8 18l8 23l27 45q44 82 88 82q34 0 64.5 -49.5t90.5 -200.5l72 -199l6 -12l21 -69l24 -74l13 -31l14 -41l86 -256l20 -65l17 -47l14 -46q0 -3 6 -18t17 -41t18 -45q3 -7 18 -43.5t21 -54.5l6 -29l2 -12l17 -33l6 -18l16 -54q20 -51 5.5 -76 t-74.5 -24q-6 0 -18.5 1t-18.5 1l-9 2q-41 0 -64 20.5t-28 51.5q-5 23 -22 45l-6 14q-2 4 -2 6l-15 39q-17 34 -20 43q-6 13 -6 19l-7 14l-10 41q0 2 -2 6l-22 55q-4 4 -4 9q-29 74 -37 110q0 4 -2.5 9.5t-7 12.5t-5.5 9l-8 12h-313q-72 0 -90 -2h2l-25 -2l-2 -4l-6 -16 q-2 -2 -2 -9q-17 -55 -47 -110v2q-4 -15 -8 -19q-9 -13 -25 -51l-12 -31q-3 -9 -16.5 -38t-18.5 -43l-12 -27q-4 -4 -4 -8l-11 -29l-41 -74q-20 -35 -40 -46t-62 -11l-66 2q-40 6 -49.5 22zM389 1753q0 39 24.5 74t59.5 45q9 0 19 1l10 1h6q45 0 70.5 -27t31.5 -59 q4 -47 -27 -86t-67 -49q-34 -8 -68.5 4t-48.5 43q-10 25 -10 53zM510 731h127q82 0 160 2l-21 60q-4 4 -4 14l-22 72l-19 53l-10 33l-6 18l-37 141l-12 43l-7 -28l-10 -31q0 -17 -8 -29l-23 -67l-18 -56l-18 -47l-17 -32q-20 -46 -26 -74q-2 -4 -2 -8zM722.5 1787.5 q15.5 45.5 53.5 70.5q23 16 49 16q43 0 74 -27t33 -57q5 -39 -32 -80.5t-71 -54.5q-25 -8 -54.5 3.5t-45.5 39.5q-22 44 -6.5 89.5z" />
<glyph unicode="&#xe5;" d="M11.5 24q-9.5 16 6.5 66l13 31l6 14l12 27l6 12l6 16q0 2 2.5 7.5t2.5 7.5l18 35v-2q15 31 20 47q7 8 17 34l4 15l33 78l22 45l29 69l31 78l28 76l6 14q22 68 37 99l17 43l43 90l12 28l6 18t11.5 32t11.5 28q8 25 22 43q2 4 5 15t5 14l9 20l14 39l8 21q0 15 29 86l6 20 q6 15 6 17l19 43q2 6 8 18t8 18l8 23l27 45q44 82 88 82q34 0 64.5 -49.5t90.5 -200.5l72 -199l6 -12l21 -69l24 -74l13 -31l14 -41l86 -256l20 -65l17 -47l14 -46q0 -3 6 -18t17 -41t18 -45q3 -7 18 -43.5t21 -54.5l6 -29l2 -12l17 -33l6 -18l16 -54q20 -51 5.5 -76 t-74.5 -24q-6 0 -18.5 1t-18.5 1l-9 2q-41 0 -64 20.5t-28 51.5q-5 23 -22 45l-6 14q-2 4 -2 6l-15 39q-17 34 -20 43q-6 13 -6 19l-7 14l-10 41q0 2 -2 6l-22 55q-4 4 -4 9q-29 74 -37 110q0 4 -2.5 9.5t-7 12.5t-5.5 9l-8 12h-313q-72 0 -90 -2h2l-25 -2l-2 -4l-6 -16 q-2 -2 -2 -9q-17 -55 -47 -110v2q-4 -15 -8 -19q-9 -13 -25 -51l-12 -31q-3 -9 -16.5 -38t-18.5 -43l-12 -27q-4 -4 -4 -8l-11 -29l-41 -74q-20 -35 -40 -46t-62 -11l-66 2q-40 6 -49.5 22zM473 1772q0 71 36 122t107 74q32 12 68 12q60 0 98 -28q86 -48 90 -170 q-1 -67 -25.5 -104.5t-74.5 -71.5q-16 -8 -45.5 -15.5t-42.5 -7.5q-62 0 -111 20t-71 60q-29 48 -29 109zM510 731h127q82 0 160 2l-21 60q-4 4 -4 14l-22 72l-19 53l-10 33l-6 18l-37 141l-12 43l-7 -28l-10 -31q0 -17 -8 -29l-23 -67l-18 -56l-18 -47l-17 -32 q-20 -46 -26 -74q-2 -4 -2 -8zM612 1806q-7 -10 2 -45q3 -17 27.5 -28t48.5 -11q29 2 47 50q3 7 -1.5 24.5t-10.5 28.5q-3 4 -33 14q-39 7 -63 -8q-9 -6 -17 -25z" />
<glyph unicode="&#xe6;" horiz-adv-x="1570" d="M-4.5 24.5q-9.5 15.5 6.5 65.5l16 45l13 27l6 12l6 16q0 2 5 13.5t5 13.5l13 23q1 1 3.5 6.5t6.5 14t6 13.5q10 17 20 48q0 2 2 6t2 6l33 78l23 45l31 69l30 78l27 76l6 14q22 68 37 99l59 133l13 28l6 18t11 32t11 28q7 22 23 43l12 29l8 20l15 39l8 21q0 18 28 86l5 20 q6 15 6 17l18 43q2 6 8 18t8 18l9 23l26 45q44 82 88 82h105q123 0 172 -2q118 -4 135 -2q61 4 174 4l174 -2q40 0 55 -18t15 -68l-2 -33q0 -30 -13 -48.5t-31 -23.5t-38 -7t-35 1h-8q-68 0 -109 -2q-25 -2 -82 -2q-29 0 -47 -2h-88l-127 -2h-26q0 -60 4 -96q4 -74 4 -113 q0 -36 -4 -82l-1 -4q-1 -4 -1 -8v-108q-5 -15 -2 -35h147q28 -4 37 -4q34 0 70 4l141 -4q18 0 30 -5t18.5 -12t10 -20t4 -22.5t0.5 -24.5q1 -35 -1.5 -55t-14.5 -28.5t-22.5 -10t-36.5 -1.5h-29q-85 -9 -133 -4h-76q-23 -2 -70 -2l-65 2h-8v-94q2 -16 -2 -65v-23l-2 -49 q-1 -22 4 -84q2 -35 2 -115l-2 -55v-4q46 -4 123 -4q8 0 26 -1t27 -1q48 -3 100 0h125l74 -4q5 0 14.5 -1t13.5 -1q55 -3 67.5 -13.5t18.5 -64.5q3 -68 -4.5 -84.5t-42.5 -28.5q-6 0 -10 -2q-16 -3 -172 2h-194q-103 0 -191 -4h-100q-55 0 -70.5 23t-15.5 81v35q2 63 2 187 v192h-72q-129 0 -160 -2q-2 -2 -24 -2l-2 -4l-6 -16q-2 -2 -2 -9q-15 -51 -48 -110q-4 -13 -8 -17q-6 -9 -24 -51l-13 -31l-47 -108q-4 -4 -4 -8l-10 -29l-49 -88q-18 -31 -31.5 -37t-50.5 -6h-12l-66 2q-38 7 -47.5 22.5zM489 727h54q17 0 41 -1t34 -1h52v18l2 131 q0 95 -2 144l4 229l-37 -108l-10 -31q0 -16 -9 -29l-22 -67l-18 -56l-15 -47l-16 -32q-22 -48 -27 -72q0 -2 -1 -5.5t-1 -4.5z" />
<glyph unicode="&#xe7;" horiz-adv-x="1290" d="M82 702q0 121 10 172v-2q16 120 55 235t89 177l30 33l6 6l11 14q6 7 18 25q38 43 68 59h-2q9 5 15 9.5t9.5 7.5t5.5 4l41 33l25 14q102 53 211 57q4 0 12 2l74 2q111 -3 188 -41l101 -53q38 -28 49 -37.5t37 -38.5q24 -27 -27 -98l-14 -12q-16 -19 -24.5 -26.5 t-27.5 -8.5t-47 12l-37 19q-8 8 -22 14l-43 29l-43 16q-54 14 -94 14l-37 -2q-24 -4 -45 -4q-32 -7 -88 -32.5t-88 -47.5q-48 -50 -131 -170l2 2q-70 -144 -82 -305v-26q-4 -45 -2 -52q3 -76 30 -190q42 -106 64 -143l24 -25q37 -43 64 -68l29 -20q7 -7 19 -13.5t20 -8.5 l8 -3l45 -12q8 -4 26 -4l25 -2q35 -14 162 -14h16l55 14q8 3 27 14t23 13l26 12q9 7 41 29l19 10q40 19 64 8t50 -53q13 -24 19 -38t6.5 -31t-12.5 -25l-60 -52q-48 -42 -108 -71l-11 -4h2q-82 -31 -145 -31q-31 0 -49 -2q-45 -4 -78 -2l-20 4v-33h12q71 -5 78 -8 q10 0 37 -12q122 -58 125 -183q3 -66 -15 -112q-21 -44 -55 -84t-70 -58q-48 -21 -53 -22l-39 -4q-37 0 -53 2q-53 4 -70 14q-6 4 -18 8q-40 16 -80 56q-18 20 -16.5 39.5t22.5 52.5q24 44 44.5 53t47.5 -10l45 -19q26 -14 49.5 -15t34.5 5l10 6q22 11 29 33l6 25 q10 40 -30 65q-17 10 -37 10l-9 1q-9 1 -12 1q-30 5 -43 5l-80 -3q-17 0 -32 13t-15 37v180q-48 16 -106 43q-68 41 -197 213q-25 41 -49.5 127t-36.5 174v-2q-8 33 -8 110z" />
<glyph unicode="&#xe8;" horiz-adv-x="1157" d="M178 748l4 126q0 95 -2 144v90l2 43q0 39 -2 57q-2 29 -2 103q0 98 2 135v8q1 22 3 32.5t10.5 24.5t27.5 19.5t51 5.5q123 0 170 -2q121 -4 138 -2q61 4 174 4l139 -2q38 -1 52.5 -2t27.5 -11.5t16 -24.5t8 -48l-2 -33q0 -30 -13 -48.5t-31 -23.5t-38 -7t-34 1h-9 q-67 0 -108 -2q-25 -2 -84 -2q-27 0 -45 -2l-217 -2q-2 0 -6 0.5t-9 0.5t-10 -1q0 -60 4 -96q4 -74 4 -113q0 -36 -4 -82l-1 -4q-1 -4 -1 -8q-6 -92 -2 -119h148q28 -4 36 -4q34 0 70 4l133 -6q25 -1 40.5 -7.5t22 -19.5t8 -24.5t1.5 -30.5q1 -24 0 -40t-7 -26.5t-9 -15.5 t-17 -7.5t-19 -2.5h-26h-18q-92 -9 -142 -4h-75q-23 -2 -72 -2l-64 2h-8v-121q2 -16 -2 -65v-23l-2 -49q-1 -22 4 -84q2 -35 2 -115l-2 -57v-4q40 -4 123 -4q8 0 26 -1t27 -1q49 -3 99 0h127l73 -4q6 0 15.5 -1t11.5 -1q57 -3 69.5 -13t18.5 -63q3 -68 -4.5 -84.5 t-44.5 -28.5q-6 0 -10 -2q-16 -3 -170 2h-195q-104 0 -190 -4h-101q-56 0 -72 23t-16 81v35q2 63 2 187v217q0 61 -2 92zM319 1901q5 11 27 45q8 12 13.5 17.5t14.5 11.5t20.5 5.5t27.5 -6.5l51 -22l23 -15l10 -6l33 -18l28 -19l6 -4l11 -6q6 -6 12 -6q29 -19 43 -25 q48 -22 82 -38q8 -4 31.5 -19.5t38.5 -23.5q32 -21 8 -91q-22 -66 -97 -36l-30 10q-2 1 -14 5t-19 9q-6 4 -20 10.5t-15 6.5l-12 6l-25 12l-12 8l-16 6l-23 13l-49 30q-15 5 -21 11q-18 9 -50.5 31.5t-49.5 31.5q-38 29 -27 66z" />
<glyph unicode="&#xe9;" horiz-adv-x="1157" d="M178 748l4 126q0 95 -2 144v90l2 43q0 39 -2 57q-2 29 -2 103q0 98 2 135v8q1 22 3 32.5t10.5 24.5t27.5 19.5t51 5.5q123 0 170 -2q121 -4 138 -2q61 4 174 4l139 -2q38 -1 52.5 -2t27.5 -11.5t16 -24.5t8 -48l-2 -33q0 -30 -13 -48.5t-31 -23.5t-38 -7t-34 1h-9 q-67 0 -108 -2q-25 -2 -84 -2q-27 0 -45 -2l-217 -2q-2 0 -6 0.5t-9 0.5t-10 -1q0 -60 4 -96q4 -74 4 -113q0 -36 -4 -82l-1 -4q-1 -4 -1 -8q-6 -92 -2 -119h148q28 -4 36 -4q34 0 70 4l133 -6q25 -1 40.5 -7.5t22 -19.5t8 -24.5t1.5 -30.5q1 -24 0 -40t-7 -26.5t-9 -15.5 t-17 -7.5t-19 -2.5h-26h-18q-92 -9 -142 -4h-75q-23 -2 -72 -2l-64 2h-8v-121q2 -16 -2 -65v-23l-2 -49q-1 -22 4 -84q2 -35 2 -115l-2 -57v-4q40 -4 123 -4q8 0 26 -1t27 -1q49 -3 99 0h127l73 -4q6 0 15.5 -1t11.5 -1q57 -3 69.5 -13t18.5 -63q3 -68 -4.5 -84.5 t-44.5 -28.5q-6 0 -10 -2q-16 -3 -170 2h-195q-104 0 -190 -4h-101q-56 0 -72 23t-16 81v35q2 63 2 187v217q0 61 -2 92zM406 1665q-25 73 20 100l61 37q19 4 82 41l37 17l21 12l6 4q16 12 35 20l28 13l33 18l45 21q58 22 84 -19q20 -29 27 -45q14 -47 -25 -74l-104 -61 q-4 -5 -21 -10l-49 -27l-24 -12l-21 -8l-6 -4l-25 -15l-20 -8q-1 0 -2 -0.5t-6 -2.5t-13 -5q-9 -6 -39 -21l-26 -8q-14 -6 -21.5 -7.5t-24.5 -3t-30 11t-22 36.5z" />
<glyph unicode="&#xea;" horiz-adv-x="1157" d="M178 748l2 -113q2 -31 2 -92v-217q0 -124 -2 -187v-35q0 -58 16 -81t72 -23h101q86 4 190 4h195q154 -5 170 -2q4 2 10 2q37 12 44.5 28.5t4.5 84.5q-6 53 -18.5 63t-69.5 13q-2 0 -11.5 1t-15.5 1l-73 4h-127q-50 -3 -99 0q-9 0 -27 1t-26 1q-83 0 -123 4v4l2 57 q0 80 -2 115q-5 62 -4 84l2 49v23q4 49 2 65v121h8l64 -2q49 0 72 2h75q50 -5 142 4h18h26t19 2.5t17 7.5t9 15.5t7 26.5t0 40q0 19 -1.5 30.5t-8 24.5t-22 19.5t-40.5 7.5l-133 6q-36 -4 -70 -4q-8 0 -36 4h-148q-4 27 2 119q0 4 1 8l1 4q4 46 4 82q0 39 -4 113 q-4 36 -4 96q5 1 10 1t9 -0.5t6 -0.5l217 2q18 2 45 2q59 0 84 2q41 2 108 2h9q14 -3 34 -1t38 7t31 23.5t13 48.5l2 33q-5 34 -8 48t-16 24.5t-27.5 11.5t-52.5 2q-59 2 -139 2q-113 0 -174 -4q-17 -2 -138 2q-47 2 -170 2q-32 0 -51 -5.5t-27.5 -19.5t-10.5 -24.5 t-3 -32.5v-8q-2 -37 -2 -135q0 -74 2 -103q2 -18 2 -57l-2 -43v-90q2 -49 2 -144zM367 1747l43 49l24 25q27 27 31 32l59 64l35 33q2 1 4 4q13 13 19.5 18.5t16.5 10t22 4.5q5 0 9 -0.5t7 -1t7 -2t6 -2t5.5 -3.5t5 -4t5.5 -4.5t5.5 -5l6 -6l6.5 -6.5l31 -31q19 -19 28 -31 q12 -14 31 -30l39 -45l31 -35l14 -15l21 -22q21 -21 12 -53q-5 -16 -41 -52q-22 -19 -43.5 -17t-40.5 21l-80 78l-29 35l-36 37q-2 -3 -22.5 -25.5t-31.5 -35.5l-12 -13q-5 -4 -23 -24l-16 -21l-20 -22l-11 -9q-22 -22 -41 -22q-24 0 -65 41q-45 48 -12 86z" />
<glyph unicode="&#xeb;" horiz-adv-x="1157" d="M178 748l4 126q0 95 -2 144v90l2 43q0 39 -2 57q-2 29 -2 103q0 98 2 135v8q1 22 3 32.5t10.5 24.5t27.5 19.5t51 5.5q123 0 170 -2q121 -4 138 -2q61 4 174 4l139 -2q38 -1 52.5 -2t27.5 -11.5t16 -24.5t8 -48l-2 -33q0 -30 -13 -48.5t-31 -23.5t-38 -7t-34 1h-9 q-67 0 -108 -2q-25 -2 -84 -2q-27 0 -45 -2l-217 -2q-2 0 -6 0.5t-9 0.5t-10 -1q0 -60 4 -96q4 -74 4 -113q0 -36 -4 -82l-1 -4q-1 -4 -1 -8q-6 -92 -2 -119h148q28 -4 36 -4q34 0 70 4l133 -6q25 -1 40.5 -7.5t22 -19.5t8 -24.5t1.5 -30.5q1 -24 0 -40t-7 -26.5t-9 -15.5 t-17 -7.5t-19 -2.5h-26h-18q-92 -9 -142 -4h-75q-23 -2 -72 -2l-64 2h-8v-121q2 -16 -2 -65v-23l-2 -49q-1 -22 4 -84q2 -35 2 -115l-2 -57v-4q40 -4 123 -4q8 0 26 -1t27 -1q49 -3 99 0h127l73 -4q6 0 15.5 -1t11.5 -1q57 -3 69.5 -13t18.5 -63q3 -68 -4.5 -84.5 t-44.5 -28.5q-6 0 -10 -2q-16 -3 -170 2h-195q-104 0 -190 -4h-101q-56 0 -72 23t-16 81v35q2 63 2 187v217q0 61 -2 92zM336 1759q0 39 24.5 74t59.5 45q10 0 19 1t10 1h6q45 0 70.5 -27t31.5 -59q4 -47 -27 -86t-67 -49q-34 -8 -68.5 4t-48.5 43q-10 25 -10 53z M669.5 1793.5q15.5 45.5 53.5 70.5q23 16 49 16q43 0 74 -27t33 -57q5 -39 -32 -80.5t-71 -54.5q-25 -8 -54.5 3.5t-45.5 39.5q-22 44 -6.5 89.5z" />
<glyph unicode="&#xec;" horiz-adv-x="583" d="M-31 1852q-5 17 2 30q5 11 27 45q7 10 11 14.5t11 10.5t14 8t17 1.5t23 -5.5l51 -23l22 -14l11 -6l32 -19l29 -18l6 -4l11 -6q6 -6 12 -6q29 -19 43 -25q13 -6 82 -39q8 -4 31 -19.5t38 -23.5q32 -21 9 -90q-23 -67 -97 -37l-30 10q-1 1 -13.5 5.5t-19.5 9.5 q-6 3 -19.5 9t-15.5 7l-12 6l-25 13l-12 8l-17 6l-22 12l-49 31q-16 5 -21 10q-18 9 -50.5 32t-49.5 32q-24 18 -29 35zM170 1206v54q0 26 2 38q0 6 1 16t1 11v127q0 56 23 72.5t79 11.5q67 -6 83 -18.5t16 -71.5v-6q3 -45 -2 -117q-2 -14 -2 -53q0 -42 -2 -62v-20 q0 -3 2 -60q4 -106 4 -344v-385q0 -6 2 -16v-12q5 -38 2 -58q0 -31 -2 -39v-18q4 -18 4 -55l2 -19q2 -12 2 -37v-28q1 -32 0 -54.5t-9.5 -37t-30 -21t-60.5 -6.5q-26 0 -44 2.5t-29.5 11t-18 16t-9.5 25.5t-3.5 32t-0.5 42l-2 8v60q-4 51 -4 170v75q2 39 2 119q0 99 -2 148 v90q0 15 -1 46t-1 46v24q0 9 1 29t1 27v96q-2 14 -2 51q0 57 -2 90z" />
<glyph unicode="&#xed;" horiz-adv-x="583" d="M57 1665q-25 73 21 100l61 37q19 4 82 41l37 17l21 12l6 4q17 13 34 20l29 13l33 18l45 21q58 22 84 -19q20 -29 27 -45q14 -47 -25 -74l-104 -61q-4 -5 -21 -10l-49 -27l-25 -12l-20 -8l-6 -4l-25 -15l-20 -8q-1 0 -2 -0.5t-6 -2.5t-13 -5q-9 -6 -39 -21l-26 -8 q-14 -6 -21.5 -8t-25 -3t-30.5 11.5t-22 36.5zM170 1206v54q0 26 2 38q0 6 1 16t1 11v127q0 56 23 72.5t79 11.5q67 -6 83 -18.5t16 -71.5v-6q3 -45 -2 -117q-2 -14 -2 -53q0 -42 -2 -62v-20q0 -3 2 -60q4 -106 4 -344v-385q0 -6 2 -16v-12q5 -38 2 -58q0 -31 -2 -39v-18 q4 -18 4 -55l2 -19q2 -12 2 -37v-28q1 -32 0 -54.5t-9.5 -37t-30 -21t-60.5 -6.5q-26 0 -44 2.5t-29.5 11t-18 16t-9.5 25.5t-3.5 32t-0.5 42l-2 8v60q-4 51 -4 170v75q2 39 2 119q0 99 -2 148v90q0 15 -1 46t-1 46v24q0 9 1 29t1 27v96q-2 14 -2 51q0 57 -2 90z" />
<glyph unicode="&#xee;" horiz-adv-x="583" d="M-2 1747l43 49l25 25q22 22 30 32l60 64l34 33q2 1 4 4q13 13 19.5 18.5t16.5 10t22 4.5q5 0 9 -0.5t7 -1t7 -2t6 -2t5.5 -3.5t5 -4t5.5 -4.5t5.5 -5l6 -6l6.5 -6.5l31 -31q23 -23 29 -31q12 -14 31 -30l38 -45l31 -35l14 -15l21 -22q21 -21 12 -53q-6 -16 -41 -52 q-22 -19 -43.5 -17t-40.5 21l-80 78l-28 35l-37 37q-2 -2 -22 -24.5t-31 -36.5l-13 -13q-4 -4 -22 -24l-17 -21l-20 -22l-10 -9q-22 -22 -41 -22q-25 0 -66 41q-45 48 -12 86zM170 1206q2 -33 2 -90q0 -37 2 -51v-96q0 -7 -1 -27t-1 -29v-24q0 -15 1 -46t1 -46v-90 q2 -49 2 -148q0 -80 -2 -119v-75q0 -119 4 -170v-60l2 -8q0 -28 0.5 -42t3.5 -32t9.5 -25.5t18 -16t29.5 -11t44 -2.5q39 0 60.5 6.5t30 21t9.5 37t0 54.5v28q0 25 -2 37l-2 19q0 37 -4 55v18q2 8 2 39q3 20 -2 58v12q-2 10 -2 16v385q0 238 -4 344q-2 57 -2 60v20 q2 20 2 62q0 39 2 53q5 72 2 117v6q0 59 -16 71.5t-83 18.5q-56 5 -79 -11.5t-23 -72.5v-127q0 -1 -1 -11t-1 -16l-2 -38v-54z" />
<glyph unicode="&#xef;" horiz-adv-x="583" d="M-18 1767q0 39 24.5 74t59.5 45q10 0 19 1l9 1h6q45 0 71 -27t32 -59q4 -47 -27 -86t-67 -49q-34 -8 -68.5 4t-48.5 43q-10 25 -10 53zM170 1206v54q0 26 2 38q0 6 1 16t1 11v127q0 56 23 72.5t79 11.5q67 -6 83 -18.5t16 -71.5v-6q3 -45 -2 -117q-2 -14 -2 -53 q0 -42 -2 -62v-20q0 -3 2 -60q4 -106 4 -344v-385q0 -6 2 -16v-12q5 -38 2 -58q0 -31 -2 -39v-18q4 -18 4 -55l2 -19q2 -12 2 -37v-28q1 -32 0 -54.5t-9.5 -37t-30 -21t-60.5 -6.5q-26 0 -44 2.5t-29.5 11t-18 16t-9.5 25.5t-3.5 32t-0.5 42l-2 8v60q-4 51 -4 170v75 q2 39 2 119q0 99 -2 148v90q0 15 -1 46t-1 46v24q0 9 1 29t1 27v96q-2 14 -2 51q0 57 -2 90zM315.5 1801.5q15.5 45.5 53.5 70.5q23 16 49 16q43 0 73.5 -27t32.5 -57q5 -39 -31.5 -80.5t-70.5 -54.5q-25 -8 -54.5 3.5t-45.5 39.5q-22 44 -6.5 89.5z" />
<glyph unicode="&#xf0;" horiz-adv-x="1388" d="M-8 778q10 54 26.5 64t75.5 10h17q46 4 84 4v252l4 143v88l2 72l2 70q-2 27 15 41t54 14h78q139 0 271 -18q235 -39 405 -209l18 -25l48 -51q62 -85 104 -240l6 -24l6 -35q17 -66 17 -148q5 -38 -4 -110l-7 -78l-18 -74q-2 -21 -27 -78l-18 -38l-8 -17l-8 -14l-21 -39 l-18 -21l-25 -36l-20 -25q-23 -45 -66 -70q-79 -60 -179.5 -111t-187.5 -65q-86 -12 -237 -12q-6 2 -41.5 2t-52.5 -2q-66 3 -81.5 17t-15.5 75v119q0 59 5 309v135h-105q-67 4 -85.5 27.5t-12.5 97.5zM397 193l135 4q88 0 152 41l64 34l81 60l29 22q28 24 62 68l16 20 l18 43q13 24 18.5 36t14.5 41.5t19 74.5q10 40 10 96q0 11 2 17v45q0 3 -1 10t-1 12q0 4 -1 13t-1 14q-25 109 -41 149l-25 54l-28 45l-41 57l-15 18l-20 29q-32 24 -41 35q-19 18 -41 31l-57 26l-52 12q-3 0 -7 1.5l-12 4.5t-16 5l-28 10q-14 4 -59 7t-52 1l-73 -2v-104 l-3 -31v-109q-4 -46 -4 -67q0 -57 2 -82v-78q88 0 111 -2h55q35 1 52.5 -1t35.5 -12t24.5 -33t6.5 -63q0 -60 -26 -78t-89 -18h-170q-4 -102 -4 -153v-303z" />
<glyph unicode="&#xf1;" horiz-adv-x="1462" d="M178 1128q0 -4 1 -18t1 -23q4 -53 2 -81v-23l2 -53v-131q-4 -27 0 -58l4 -110v-27l2 -158l3 -127q0 -23 4 -77q0 -56 2 -70q0 -56 4 -96q3 -37 20 -54t60 -24h28q2 0 7.5 1t7.5 1q45 3 59.5 16.5t13.5 67.5l2 59l-2 11q-2 20 -2 36v48l-4 53l-6 35q-3 15 2 55l2 143v27 q0 57 -2 86l-2 20v13q-2 12 -2 32l4 127l-2 15l-2 69q0 10 -3.5 48.5t-4.5 52.5l-8 116l39 -81l94 -183l16 -26l41 -80l57 -78l21 -37l43 -78l12 -20q43 -71 47 -80l17 -31l98 -147l74 -109l18 -26q37 -54 64 -93q14 -20 24.5 -31t30.5 -20.5t47 -9.5q82 0 82 80v55 q0 37 -2 53v361q-5 19 -2 41v262q0 45 -2 55v-2l-2 51q0 193 4 308q2 25 2 96l-2 82v8q0 25 -2 36.5t-11.5 24.5t-32 18t-61.5 5q-56 -3 -73 -22.5t-23 -86.5l-6 -147q-2 -62 2 -166q2 -29 2 -78q0 -109 2 -164v-153l-2 -131q7 -114 10 -176l-53 114l-74 142l-26 36l-62 109 q-51 72 -88 143l-8 17l-27 45l-8 12l-35 59l-49 87l-57 92q-7 11 -22 32t-19 27l-25 43l-61 92q-26 42 -53.5 58t-79.5 16q-35 0 -52.5 -16.5t-17.5 -55.5q0 -139 2 -178l-2 -94v-62zM344 1759q37 42 99.5 76.5t97.5 34.5q67 0 108 -29q16 -5 76 -53q45 -25 72 -25 q21 0 40 13.5t48 46.5q12 15 36.5 10.5t49 -17t38.5 -36t5 -47.5q-23 -46 -82 -90t-123 -48q-39 -4 -115 35l-76 53l-32 17q-12 8 -39 8q-30 0 -109 -63q-18 -15 -47.5 5t-46 54.5t-0.5 54.5z" />
<glyph unicode="&#xf2;" horiz-adv-x="1370" d="M121 829v115q2 15 4 21v28q0 7 2 17v26q2 12 2 25q4 24 4 43q23 171 143 291q73 70 143 106.5t173 42.5l55 2h23q6 0 10 -2h10q97 -7 167.5 -42.5t146.5 -98.5q127 -124 151 -297q0 -15 4 -31v-20q0 -7 2 -19v-47q4 -24 4 -43l2 -78v-231q0 -50 -4 -70q-2 -8 -2 -20 q0 -69 -6 -113q-2 -4 -2 -6q-2 -4 -2 -8q-25 -113 -57 -168q-80 -130 -146 -174l-108 -49l-43 -17q-56 -17 -160 -24h-41q-85 5 -129 24q-81 37 -155 100t-117 132q-24 45 -45 123.5t-25 152.5q-2 27 -2 88v74q0 96 -2 147zM319 575q3 -37 21 -122q3 -33 6 -39 q53 -100 100 -144q41 -38 73.5 -51.5t90.5 -19.5q27 0 37 -2q84 9 115 30l57 29q3 1 9.5 5t9.5 5l20 21q44 50 80 139q2 4 2 16l6 39q4 43 8 54q0 1 1 3t1 3q9 23 9 55v115q-2 16 -2 49q0 116 -13 272q-11 146 -102 217q-88 85 -191 88h-41q-18 0 -24 -2l-27 -2 q-80 -30 -121 -69q-55 -33 -81.5 -116.5t-34.5 -234.5q-6 -63 -6 -112v-176q-3 -30 -3 -50zM360 1860q-5 17 2 30q4 11 27 45q7 10 11 14.5t11 10.5t14 8t17 1.5t23 -5.5l51 -22l23 -15l10 -6l33 -18l28 -19l6 -4l11 -6q6 -6 12 -6q29 -19 43 -25q13 -6 82 -39 q8 -4 31.5 -19.5t38.5 -23.5q15 -10 18 -27t-10 -63q-23 -67 -97 -37l-30 11q-2 1 -14 5t-19 9q-6 3 -19.5 9t-15.5 7l-12 6l-25 13l-12 8l-16 6l-23 12l-49 31q-16 5 -21 10q-17 9 -49.5 32t-50.5 32q-24 18 -29 35z" />
<glyph unicode="&#xf3;" horiz-adv-x="1370" d="M121 829v115q2 15 4 21v28q0 7 2 17v26q2 12 2 25q4 24 4 43q23 171 143 291q73 70 143 106.5t173 42.5l55 2h23q6 0 10 -2h10q97 -7 167.5 -42.5t146.5 -98.5q127 -124 151 -297q0 -15 4 -31v-20q0 -7 2 -19v-47q4 -24 4 -43l2 -78v-231q0 -50 -4 -70q-2 -8 -2 -20 q0 -69 -6 -113q-2 -4 -2 -6q-2 -4 -2 -8q-25 -113 -57 -168q-80 -130 -146 -174l-108 -49l-43 -17q-56 -17 -160 -24h-41q-85 5 -129 24q-81 37 -155 100t-117 132q-24 45 -45 123.5t-25 152.5q-2 27 -2 88v74q0 96 -2 147zM319 575q3 -37 21 -122q3 -33 6 -39 q53 -100 100 -144q41 -38 73.5 -51.5t90.5 -19.5q27 0 37 -2q84 9 115 30l57 29q3 1 9.5 5t9.5 5l20 21q44 50 80 139q2 4 2 16l6 39q4 43 8 54q0 1 1 3t1 3q9 23 9 55v115q-2 16 -2 49q0 116 -13 272q-11 146 -102 217q-88 85 -191 88h-41q-18 0 -24 -2l-27 -2 q-80 -30 -121 -69q-55 -33 -81.5 -116.5t-34.5 -234.5q-6 -63 -6 -112v-176q-3 -30 -3 -50zM469 1686q-25 73 20 100l62 37q19 4 82 41l37 16l20 12l6 4q19 14 35 21l29 12l33 19l45 20q59 22 84 -18q18 -25 26 -45q14 -48 -24 -74l-105 -62q-5 -5 -20 -10l-49 -26l-25 -13 l-20 -8l-7 -4l-24 -14l-21 -8q-1 0 -2 -1t-5.5 -3t-12.5 -5q-3 -2 -39 -20l-27 -8q-14 -6 -21.5 -7.5t-24.5 -3t-30 11t-22 36.5z" />
<glyph unicode="&#xf4;" horiz-adv-x="1370" d="M121 829v115q2 15 4 21v28q0 7 2 17v26q2 12 2 25q4 24 4 43q23 171 143 291q73 70 143 106.5t173 42.5l55 2h23q6 0 10 -2h10q97 -7 167.5 -42.5t146.5 -98.5q127 -124 151 -297q0 -15 4 -31v-20q0 -7 2 -19v-47q4 -24 4 -43l2 -78v-231q0 -50 -4 -70q-2 -8 -2 -20 q0 -69 -6 -113q-2 -4 -2 -6q-2 -4 -2 -8q-25 -113 -57 -168q-80 -130 -146 -174l-108 -49l-43 -17q-56 -17 -160 -24h-41q-85 5 -129 24q-81 37 -155 100t-117 132q-24 45 -45 123.5t-25 152.5q-2 27 -2 88v74q0 96 -2 147zM319 575q3 -37 21 -122q3 -33 6 -39 q53 -100 100 -144q41 -38 73.5 -51.5t90.5 -19.5q27 0 37 -2q84 9 115 30l57 29q3 1 9.5 5t9.5 5l20 21q44 50 80 139q2 4 2 16l6 39q4 43 8 54q0 1 1 3t1 3q9 23 9 55v115q-2 16 -2 49q0 116 -13 272q-11 146 -102 217q-88 85 -191 88h-41q-18 0 -24 -2l-27 -2 q-80 -30 -121 -69q-55 -33 -81.5 -116.5t-34.5 -234.5q-6 -63 -6 -112v-176q-3 -30 -3 -50zM393 1737l43 49l25 24q23 23 31 33l59 64l35 32q1 1 7.5 8t8 8t6.5 5.5t7 5.5t6.5 4t8 3.5t8 1.5t9.5 1q15 0 26 -4.5t17 -9.5t21 -20l30 -31q23 -23 29 -31q14 -17 31 -31l39 -45 l30 -35l15 -14l20 -22q22 -22 13 -54q-5 -15 -41 -51q-22 -19 -43.5 -17t-40.5 21l-80 78l-29 35l-37 37q-1 -1 -21.5 -24.5t-31.5 -37.5l-12 -12q-5 -5 -23 -25l-16 -20l-21 -23l-10 -8q-22 -22 -41 -22q-24 0 -65 41q-46 49 -13 86z" />
<glyph unicode="&#xf5;" horiz-adv-x="1370" d="M121 829v115q2 15 4 21v28q0 7 2 17v26q2 12 2 25q4 24 4 43q23 171 143 291q73 70 143 106.5t173 42.5l55 2h23q6 0 10 -2h10q97 -7 167.5 -42.5t146.5 -98.5q127 -124 151 -297q0 -15 4 -31v-20q0 -7 2 -19v-47q4 -24 4 -43l2 -78v-231q0 -50 -4 -70q-2 -8 -2 -20 q0 -69 -6 -113q-2 -4 -2 -6q-2 -4 -2 -8q-25 -113 -57 -168q-80 -130 -146 -174l-108 -49l-43 -17q-56 -17 -160 -24h-41q-85 5 -129 24q-81 37 -155 100t-117 132q-24 45 -45 123.5t-25 152.5q-2 27 -2 88v74q0 96 -2 147zM319 575q3 -37 21 -122q3 -33 6 -39 q53 -100 100 -144q41 -38 73.5 -51.5t90.5 -19.5q27 0 37 -2q84 9 115 30l57 29q3 1 9.5 5t9.5 5l20 21q44 50 80 139q2 4 2 16l6 39q4 43 8 54q0 1 1 3t1 3q9 23 9 55v115q-2 16 -2 49q0 116 -13 272q-11 146 -102 217q-88 85 -191 88h-41q-18 0 -24 -2l-27 -2 q-80 -30 -121 -69q-55 -33 -81.5 -116.5t-34.5 -234.5q-6 -63 -6 -112v-176q-3 -30 -3 -50zM338 1800q37 42 99.5 76.5t97.5 34.5q67 0 108 -29q16 -5 76 -53q45 -25 72 -25q21 0 40 13.5t48 46.5q12 15 36.5 10.5t49 -17t38.5 -36t5 -47.5q-23 -46 -82 -90t-123 -48 q-39 -4 -115 35l-76 53l-32 17q-12 8 -39 8q-30 0 -109 -63q-18 -15 -47.5 5t-46 54.5t-0.5 54.5z" />
<glyph unicode="&#xf6;" horiz-adv-x="1370" d="M121 829v115q2 15 4 21v28q0 7 2 17v26q2 12 2 25q4 24 4 43q23 171 143 291q73 70 143 106.5t173 42.5l55 2h23q6 0 10 -2h10q97 -7 167.5 -42.5t146.5 -98.5q127 -124 151 -297q0 -15 4 -31v-20q0 -7 2 -19v-47q4 -24 4 -43l2 -78v-231q0 -50 -4 -70q-2 -8 -2 -20 q0 -69 -6 -113q-2 -4 -2 -6q-2 -4 -2 -8q-25 -113 -57 -168q-80 -130 -146 -174l-108 -49l-43 -17q-56 -17 -160 -24h-41q-85 5 -129 24q-81 37 -155 100t-117 132q-24 45 -45 123.5t-25 152.5q-2 27 -2 88v74q0 96 -2 147zM319 575q3 -37 21 -122q3 -33 6 -39 q53 -100 100 -144q41 -38 73.5 -51.5t90.5 -19.5q27 0 37 -2q84 9 115 30l57 29q3 1 9.5 5t9.5 5l20 21q44 50 80 139q2 4 2 16l6 39q4 43 8 54q0 1 1 3t1 3q9 23 9 55v115q-2 16 -2 49q0 116 -13 272q-11 146 -102 217q-88 85 -191 88h-41q-18 0 -24 -2l-27 -2 q-80 -30 -121 -69q-55 -33 -81.5 -116.5t-34.5 -234.5q-6 -63 -6 -112v-176q-3 -30 -3 -50zM373 1741q0 39 24.5 74t59.5 45q9 0 18 1t10 1h7q45 0 70.5 -27t31.5 -59q4 -47 -27.5 -86.5t-66.5 -49.5q-34 -8 -68.5 4.5t-48.5 43.5q-10 25 -10 53zM706.5 1775.5 q15.5 44.5 53.5 69.5q24 17 49 17q43 0 73.5 -27t32.5 -57q5 -39 -31.5 -81t-70.5 -55q-24 -8 -53.5 4t-46.5 40q-22 45 -6.5 89.5z" />
<glyph unicode="&#xf7;" horiz-adv-x="962" d="M55 582q-2 23 0 59q5 28 18 45.5t33.5 24t36 8.5t39.5 2h23q23 -3 114 2q25 2 82 2l62 -2l303 -6q54 0 86 -19t31 -77q-4 -67 -28 -83t-101 -16q-107 4 -207 4q-117 0 -168 -4q-20 -2 -72 -2l-100 4q-56 -1 -86 4t-47 18t-19 36zM354 227q-1 52 53.5 94.5t104.5 36.5 l10 -4l49 -22q22 -20 29.5 -57.5t-2.5 -69.5q-12 -36 -45 -58t-61 -27.5t-50 -4.5q-91 14 -88 112zM365 932q0 45 20.5 88t52.5 61q23 9 43 9q41 0 73.5 -34.5t37.5 -70.5q7 -40 -33 -88t-80 -61q-80 -13 -100 28q-14 32 -14 68z" />
<glyph unicode="&#xf8;" horiz-adv-x="1370" d="M121 829v115q2 15 4 21v28q0 7 2 17v26q2 12 2 25q4 24 4 43q23 171 143 291q73 70 143 106.5t173 42.5l55 2h23q6 0 10 -2h10q98 -9 168 -43l8 17l17 24q12 25 18.5 36t20 21t32.5 8t47 -14l13 -6q40 -20 50 -41t-3 -53l-45 -104q114 -118 139 -283q0 -15 4 -31v-20 q0 -7 2 -19v-47q4 -24 4 -43l2 -78v-231q0 -50 -4 -70q-2 -8 -2 -20q0 -69 -6 -113q-2 -4 -2 -6q-2 -4 -2 -8q-25 -113 -57 -168q-80 -130 -146 -174l-108 -49l-43 -17q-56 -17 -160 -24h-41q-85 5 -129 24q-17 7 -57 29l-29 -68q-26 -52 -44.5 -57.5t-76.5 21.5 q-54 25 -61 48.5t22 88.5l39 86q-42 42 -65 84q-24 45 -45 123.5t-25 152.5q-2 27 -2 88v74q0 96 -2 147zM319 575q3 -37 21 -122q3 -33 6 -39l14 -27q40 96 89 207.5t55 120.5l160 334l22 49l23 53q30 76 32 82l31 74q-52 27 -115 30h-41q-18 0 -24 -2l-27 -2 q-80 -30 -121 -69q-55 -33 -81.5 -116.5t-34.5 -234.5q-6 -63 -6 -112v-176q-3 -30 -3 -50zM498 229q45 -25 112 -30q27 0 37 -2q84 9 115 30l57 29q3 1 9.5 5t9.5 5l20 21q44 50 80 139q2 4 2 16l6 39q4 43 8 54q0 1 1 3t1 3q9 23 9 55v115q-2 16 -2 49q0 116 -13 272 q-6 72 -37 135l-4 -8q-2 -8 -26 -72q-7 -16 -18.5 -42t-19.5 -44.5t-9 -21.5l-172 -381q-43 -107 -95 -215z" />
<glyph unicode="&#xf9;" horiz-adv-x="1411" d="M150 559q0 1 1 5t1 9v127q0 78 6 136q0 34 -2 36q-4 40 -4 95v51q-4 45 0 90v18q0 11 2 17v139q5 85 2 141q-3 71 21.5 91t84.5 20q70 0 88.5 -17t18.5 -69v-121q0 -96 -4 -184v-129l4 -213v-123q-4 -74 -4 -125q0 -80 12 -150q32 -102 80 -127q37 -35 92.5 -57t99.5 -22 q11 0 78 10l16 4l13 2l35 10q16 5 59 27q2 2 8 6.5l8 6t6.5 5.5t7 7t5.5 7.5t6 10.5q34 55 39 74l10 34l6 21q19 80 19 170v57q0 53 2 86v19q4 32 4 49v35q0 102 -4 149q-2 27 -2 78v207q0 25 4 45v57q0 8 1 30t1 28q0 68 21 85t79 17q32 0 46.5 -2t29 -11t19.5 -29t5 -56 v-103q0 -3 -1 -9t-1 -9v-62v-30q-2 -29 -2 -78q0 -55 2 -80l2 -213v-104q-2 -37 -2 -125v-97q0 -54 -8 -120q0 -2 -1 -9t-1 -8l-16 -49q-17 -56 -46 -116.5t-57 -88.5q-79 -75 -167.5 -110.5t-206.5 -36.5q-99 0 -172 22q-124 38 -207 136t-119 229q-18 73 -18 184z M403.5 1852q-4.5 17 2.5 30q6 15 26 45q7 10 11 14.5t11 10.5t14 8t17 1.5t23 -5.5l51 -23l23 -14l10 -6l33 -19l28 -18l6 -4l11 -6q6 -6 12 -6q29 -19 43 -25q13 -6 82 -39q8 -4 31.5 -19.5t38.5 -23.5q15 -10 18 -27t-10 -63q-23 -67 -97 -37l-30 10q-1 1 -13.5 5.5 t-19.5 9.5q-6 3 -19.5 9t-15.5 7l-12 6l-25 13l-12 8l-16 6l-23 12l-49 31q-17 5 -21 10q-17 9 -49.5 32t-50.5 32q-24 18 -28.5 35z" />
<glyph unicode="&#xfa;" horiz-adv-x="1411" d="M150 559q0 1 1 5t1 9v127q0 78 6 136q0 34 -2 36q-4 40 -4 95v51q-4 45 0 90v18q0 11 2 17v139q5 85 2 141q-3 71 21.5 91t84.5 20q70 0 88.5 -17t18.5 -69v-121q0 -96 -4 -184v-129l4 -213v-123q-4 -74 -4 -125q0 -80 12 -150q32 -102 80 -127q37 -35 92.5 -57t99.5 -22 q11 0 78 10l16 4l13 2l35 10q16 5 59 27q2 2 8 6.5l8 6t6.5 5.5t7 7t5.5 7.5t6 10.5q34 55 39 74l10 34l6 21q19 80 19 170v57q0 53 2 86v19q4 32 4 49v35q0 102 -4 149q-2 27 -2 78v207q0 25 4 45v57q0 8 1 30t1 28q0 68 21 85t79 17q32 0 46.5 -2t29 -11t19.5 -29t5 -56 v-103q0 -3 -1 -9t-1 -9v-62v-30q-2 -29 -2 -78q0 -55 2 -80l2 -213v-104q-2 -37 -2 -125v-97q0 -54 -8 -120q0 -2 -1 -9t-1 -8l-16 -49q-17 -56 -46 -116.5t-57 -88.5q-79 -75 -167.5 -110.5t-206.5 -36.5q-99 0 -172 22q-124 38 -207 136t-119 229q-18 73 -18 184z M512 1665q-25 73 20 100l62 37q19 4 82 41l37 17l20 12l6 4q16 12 35 20l29 13l33 18l45 21q58 22 84 -19q18 -25 26 -45q14 -48 -24 -74l-105 -61q-5 -5 -20 -10l-49 -27l-25 -12l-20 -8l-7 -4l-24 -15l-21 -8q-1 0 -2 -0.5t-5.5 -2.5t-12.5 -5q-9 -6 -39 -21l-27 -8 q-14 -6 -21.5 -7.5t-24.5 -3t-30 11t-22 36.5z" />
<glyph unicode="&#xfb;" horiz-adv-x="1411" d="M150 559q0 -111 18 -184q36 -131 119 -229t207 -136q73 -22 172 -22q118 1 206.5 36.5t167.5 110.5q28 28 57 88.5t46 116.5l16 49q0 1 1 8t1 9q8 66 8 120v97q0 88 2 125v104l-2 213q-2 25 -2 80q0 49 2 78v30v62q0 3 1 9t1 9v103q0 36 -5 56t-19.5 29t-29 11t-46.5 2 q-58 0 -79 -17t-21 -85q0 -6 -1 -28t-1 -30v-57q-4 -20 -4 -45v-207q0 -51 2 -78q4 -47 4 -149v-35q0 -17 -4 -49v-19q-2 -33 -2 -86v-57q0 -90 -19 -170l-6 -21l-10 -34q-5 -19 -39 -74q-3 -6 -6 -10.5t-5.5 -7.5t-7 -7t-6.5 -5.5l-8 -6t-8 -6.5q-43 -22 -59 -27l-35 -10 l-13 -2l-16 -4q-67 -10 -78 -10q-44 0 -99.5 22t-92.5 57q-48 25 -80 127q-12 70 -12 150q0 51 4 125v123l-4 213v129q4 88 4 184v121q0 52 -18.5 69t-88.5 17q-60 0 -84.5 -20t-21.5 -91q3 -56 -2 -141v-139l-2 -17v-18q-4 -45 0 -90v-51q0 -55 4 -95q2 -2 2 -36 q-6 -58 -6 -136v-127q0 -5 -1 -9t-1 -5zM408 1747l43 49l24 25q27 27 31 32l59 64l35 33q2 1 4 4q13 13 19.5 18.5t16.5 10t22 4.5q5 0 9 -0.5t7 -1t7 -2t6 -2t5.5 -3.5t5 -4t5.5 -4.5t5.5 -5l6 -6l6.5 -6.5l31 -31q19 -19 28 -31q12 -14 31 -30l39 -45l31 -35l14 -15 l21 -22q21 -21 12 -53q-6 -16 -41 -52q-22 -19 -43.5 -17t-40.5 21l-80 78l-29 35l-36 37q-2 -3 -22.5 -25.5t-31.5 -35.5l-12 -13q-5 -4 -23 -24l-16 -21l-20 -22l-11 -9q-22 -22 -41 -22q-24 0 -65 41q-45 48 -12 86z" />
<glyph unicode="&#xfc;" horiz-adv-x="1411" d="M150 559q0 1 1 5t1 9v127q0 78 6 136q0 34 -2 36q-4 40 -4 95v51q-4 45 0 90v18q0 11 2 17v139q5 85 2 141q-3 71 21.5 91t84.5 20q70 0 88.5 -17t18.5 -69v-121q0 -96 -4 -184v-129l4 -213v-123q-4 -74 -4 -125q0 -80 12 -150q32 -102 80 -127q37 -35 92.5 -57t99.5 -22 q11 0 78 10l16 4l13 2l35 10q16 5 59 27q2 2 8 6.5l8 6t6.5 5.5t7 7t5.5 7.5t6 10.5q34 55 39 74l10 34l6 21q19 80 19 170v57q0 53 2 86v19q4 32 4 49v35q0 102 -4 149q-2 27 -2 78v207q0 25 4 45v57q0 8 1 30t1 28q0 68 21 85t79 17q32 0 46.5 -2t29 -11t19.5 -29t5 -56 v-103q0 -3 -1 -9t-1 -9v-62v-30q-2 -29 -2 -78q0 -55 2 -80l2 -213v-104q-2 -37 -2 -125v-97q0 -54 -8 -120q0 -2 -1 -9t-1 -8l-16 -49q-17 -56 -46 -116.5t-57 -88.5q-79 -75 -167.5 -110.5t-206.5 -36.5q-99 0 -172 22q-124 38 -207 136t-119 229q-18 73 -18 184z M397 1759q0 39 24.5 74t59.5 45q9 0 19 1l10 1h6q45 0 70.5 -27t31.5 -59q4 -47 -27 -86t-67 -49q-34 -8 -68 4t-48 43q-11 28 -11 53zM730.5 1793.5q15.5 45.5 53.5 70.5q23 16 50 16q43 0 73.5 -27t32.5 -57q5 -39 -31.5 -80.5t-70.5 -54.5q-25 -8 -55 3.5t-46 39.5 q-22 44 -6.5 89.5z" />
<glyph unicode="&#xfd;" horiz-adv-x="1329" d="M4 1489q-8 30 19 39.5t90 7.5q42 0 61 -11t35 -38l53 -84l35 -55l4 -9l8 -12l41 -65l21 -35l57 -109l14 -24l29 -41l25 -35l43 -78q4 -5 7.5 -10.5t6.5 -12.5t6 -12l12 -22l15 -31l16 -18l19 -31q5 11 18 33t18 34l15 27l20 35l51 76l78 118l31 60l18 28l29 37 q3 7 12.5 21t12.5 20l51 92l37 66l30 51q12 31 93 35q58 2 83.5 -7t25 -29t-14.5 -50l-74 -154q-28 -44 -35 -61l-14 -25l-21 -39l-12 -24l-20 -35q-65 -97 -80 -115q-2 -4 -21 -33.5t-28 -43.5l-41 -72q-33 -59 -43 -82l-60 -92l-55 -76v-88q0 -18 2 -43v-31l2 -102l2 -17 v-69q-2 -39 -2 -168q1 -50 -20.5 -65t-73.5 -15q-65 0 -86 20.5t-21 71.5v131q-4 70 -4 113v16q-2 7 -2 15q-4 42 0 71q4 13 0 49q-4 24 -4 45v58q-12 19 -26.5 37.5t-20.5 29.5l-8 11l-33 57l-14 29l-54 80l-12 20l-53 98q-56 100 -98 152l-97 178l-16 27l-35 73 q-30 46 -47 107zM492 1645q-25 73 20 100l61 37q19 4 82 41l37 16l21 12l6 4q19 14 35 21l28 12l33 19l45 20q59 22 84 -18q20 -29 27 -45q14 -47 -25 -74l-104 -61q-6 -6 -21 -11l-49 -26l-24 -13l-21 -8l-6 -4l-25 -14l-20 -8q-1 0 -2 -1t-6 -3t-13 -5q-3 -2 -39 -20 l-26 -8q-14 -6 -21.5 -7.5t-24.5 -3t-30 11t-22 36.5z" />
<glyph unicode="&#xfe;" horiz-adv-x="1224" d="M188 1425v9q0 39 1.5 54t12 29t30 16.5t59.5 2.5q60 -3 79 -17.5t19 -62.5l8 -145l-2 -90h6h60q138 0 235 -17q81 -12 176 -76q85 -72 132 -149q18 -29 33 -74t18 -82q4 -32 4 -65q0 -36 -4 -64q-2 -2 -2 -10l-2 -8q-30 -108 -125 -217q-41 -47 -120.5 -80t-146.5 -33 q-69 0 -94 -2q-50 -4 -94 -4h-55v-39q0 -11 1 -35.5t1 -38.5q2 -45 2 -145q0 -52 -19 -68t-92 -16q-55 0 -79.5 12t-24.5 49q2 37 2 179q0 78 -6 143q-4 51 -4 145v518q-4 37 -4 52v8q0 6 -1.5 20.5t-1.5 20.5v184q-2 29 -2 96zM401 1024q2 -47 2 -123q0 -33 3 -63v-7 q4 -58 4 -96q0 -7 -1 -14.5t-1 -9.5v-95q-2 -20 -2 -73v-8h75q109 0 154 8q45 9 67 20l58 33l16 8l10 10q15 15 19 29q13 20 21 39.5t10 29.5l2 9q6 25 6 47q0 46 -21.5 94.5t-44.5 71.5q-14 19 -49 41.5t-63 32.5q-84 16 -224 16h-12l-13 1q-13 1 -16 -1z" />
<glyph unicode="&#xff;" horiz-adv-x="1329" d="M4 1489q-8 30 19 39.5t90 7.5q42 0 61 -11t35 -38l53 -84l35 -55l4 -9l8 -12l41 -65l21 -35l57 -109l14 -24l29 -41l25 -35l43 -78q4 -5 7.5 -10.5t6.5 -12.5t6 -12l12 -22l15 -31l16 -18l19 -31q5 11 18 33t18 34l15 27l20 35l51 76l78 118l31 60l18 28l29 37 q3 7 12.5 21t12.5 20l51 92l37 66l30 51q12 31 93 35q58 2 83.5 -7t25 -29t-14.5 -50l-74 -154q-28 -44 -35 -61l-14 -25l-21 -39l-12 -24l-20 -35q-65 -97 -80 -115q-2 -4 -21 -33.5t-28 -43.5l-41 -72q-33 -59 -43 -82l-60 -92l-55 -76v-88q0 -18 2 -43v-31l2 -102l2 -17 v-69q-2 -39 -2 -168q1 -50 -20.5 -65t-73.5 -15q-65 0 -86 20.5t-21 71.5v131q-4 70 -4 113v16q-2 7 -2 15q-4 42 0 71q4 13 0 49q-4 24 -4 45v58q-12 19 -26.5 37.5t-20.5 29.5l-8 11l-33 57l-14 29l-54 80l-12 20l-53 98q-56 100 -98 152l-97 178l-16 27l-35 73 q-30 46 -47 107zM369 1724q0 39 24.5 74t59.5 45q9 0 18 1t10 1h6q45 0 71 -27t32 -59q4 -47 -27 -86t-67 -49q-34 -8 -68.5 4t-48.5 43q-10 25 -10 53zM702.5 1758.5q15.5 45.5 53.5 70.5q23 16 49 16q43 0 73.5 -27t32.5 -57q5 -39 -31.5 -80.5t-70.5 -54.5 q-25 -8 -54.5 3.5t-45.5 39.5q-22 44 -6.5 89.5z" />
<glyph unicode="&#x152;" horiz-adv-x="2023" d="M121 829v115q2 15 4 21v28q0 7 2 17v26q2 12 2 25q4 24 4 43q23 168 146 291q71 69 141.5 106t173.5 43l53 2h23q6 0 10 -2h12q83 -7 163 -52t108 -91v14q0 8 1 19t1 12v8q1 22 3 32.5t10.5 24.5t27.5 19.5t51 5.5q121 0 170 -2q119 -4 135 -2q61 4 176 4l176 -2 q37 -1 51.5 -20.5t16.5 -65.5l-2 -33q0 -31 -6 -49t-15.5 -23t-22.5 -6.5t-28 0.5h-55q-68 0 -107 -2q-25 -2 -84 -2q-29 0 -47 -2q-1 0 -3.5 -1t-4.5 -1h-207q-3 0 -7.5 0.5t-9 0.5t-9.5 -1q0 -60 4 -96q4 -74 4 -113q0 -36 -4 -82l-1 -4q-1 -4 -1 -8v-108q-5 -15 -2 -35 h147q28 -4 37 -4q33 0 69 4l154 -6q26 -1 38.5 -24.5t12.5 -57.5q1 -35 -3 -55t-18.5 -28.5t-25.5 -10t-37 -1.5h-18q-89 -9 -135 -4h-76q-20 -2 -70 -2l-65 2h-8v-94q2 -16 -2 -65v-23l-3 -49q-1 -15 5 -84q2 -35 2 -115l-2 -55v-4q46 -4 124 -4q6 0 24 -1t28 -1 q48 -3 100 0h125l74 -4q5 0 14.5 -1t13.5 -1q56 -3 69 -13.5t19 -64.5q3 -68 -4.5 -84.5t-44.5 -28.5q-6 0 -10 -2q-17 -3 -170 2h-197q-102 0 -190 -4h-98q-19 0 -32.5 2.5t-27.5 9t-21 21t-7 37.5q0 17 -2 28.5t-2 24.5q-12 -21 -43.5 -44.5t-57.5 -36.5l-26 -13l-41 -17 q-59 -17 -156 -24h-41q-84 5 -127 24q-82 36 -155.5 99t-118.5 133q-24 45 -45 123.5t-25 152.5q-2 27 -2 88v74q0 96 -2 147zM322 575q4 -45 20 -122q3 -33 6 -39q19 -39 48.5 -81.5t52.5 -62.5q41 -38 73 -51.5t88 -19.5q27 0 37 -2q86 8 117 30l57 29q3 1 9.5 5.5 t7.5 4.5l20 21q41 46 82 139q6 12 6 31l2 24q4 43 8 54q0 1 1 3t1 3q1 3 5 45q0 3 1 15t1 15v19l-2 113l2 55q-2 64 -13 229q-11 144 -104 217q-85 85 -191 88h-41q-18 0 -22 -2l-27 -2q-80 -30 -121 -69q-56 -33 -82 -116t-34 -235q-6 -63 -6 -112v-176q-2 -20 -2 -50z" />
<glyph unicode="&#x153;" horiz-adv-x="2023" d="M121 829v115q2 15 4 21v28q0 7 2 17v26q2 12 2 25q4 24 4 43q23 168 146 291q71 69 141.5 106t173.5 43l53 2h23q6 0 10 -2h12q83 -7 163 -52t108 -91v14q0 8 1 19t1 12v8q1 22 3 32.5t10.5 24.5t27.5 19.5t51 5.5q121 0 170 -2q119 -4 135 -2q61 4 176 4l176 -2 q37 -1 51.5 -20.5t16.5 -65.5l-2 -33q0 -31 -6 -49t-15.5 -23t-22.5 -6.5t-28 0.5h-55q-68 0 -107 -2q-25 -2 -84 -2q-29 0 -47 -2q-1 0 -3.5 -1t-4.5 -1h-207q-3 0 -7.5 0.5t-9 0.5t-9.5 -1q0 -60 4 -96q4 -74 4 -113q0 -36 -4 -82l-1 -4q-1 -4 -1 -8v-108q-5 -15 -2 -35 h147q28 -4 37 -4q33 0 69 4l154 -6q26 -1 38.5 -24.5t12.5 -57.5q1 -35 -3 -55t-18.5 -28.5t-25.5 -10t-37 -1.5h-18q-89 -9 -135 -4h-76q-20 -2 -70 -2l-65 2h-8v-94q2 -16 -2 -65v-23l-3 -49q-1 -15 5 -84q2 -35 2 -115l-2 -55v-4q46 -4 124 -4q6 0 24 -1t28 -1 q48 -3 100 0h125l74 -4q5 0 14.5 -1t13.5 -1q56 -3 69 -13.5t19 -64.5q3 -68 -4.5 -84.5t-44.5 -28.5q-6 0 -10 -2q-17 -3 -170 2h-197q-102 0 -190 -4h-98q-19 0 -32.5 2.5t-27.5 9t-21 21t-7 37.5q0 17 -2 28.5t-2 24.5q-12 -21 -43.5 -44.5t-57.5 -36.5l-26 -13l-41 -17 q-59 -17 -156 -24h-41q-84 5 -127 24q-82 36 -155.5 99t-118.5 133q-24 45 -45 123.5t-25 152.5q-2 27 -2 88v74q0 96 -2 147zM322 575q4 -45 20 -122q3 -33 6 -39q19 -39 48.5 -81.5t52.5 -62.5q41 -38 73 -51.5t88 -19.5q27 0 37 -2q86 8 117 30l57 29q3 1 9.5 5.5 t7.5 4.5l20 21q41 46 82 139q6 12 6 31l2 24q4 43 8 54q0 1 1 3t1 3q1 3 5 45q0 3 1 15t1 15v19l-2 113l2 55q-2 64 -13 229q-11 144 -104 217q-85 85 -191 88h-41q-18 0 -22 -2l-27 -2q-80 -30 -121 -69q-56 -33 -82 -116t-34 -235q-6 -63 -6 -112v-176q-2 -20 -2 -50z" />
<glyph unicode="&#x178;" horiz-adv-x="1329" d="M4 1489q-8 30 19 39.5t90 7.5q42 0 61 -11t35 -38l53 -84l35 -55l4 -9l8 -12l41 -65l21 -35l57 -109l14 -24l29 -41l25 -35l43 -78q4 -5 7.5 -10.5t6.5 -12.5t6 -12l12 -22l15 -31l16 -18l19 -31q5 11 18 33t18 34l15 27l20 35l51 76l78 118l31 60l18 28l29 37 q3 7 12.5 21t12.5 20l51 92l37 66l30 51q12 31 93 35q58 2 83.5 -7t25 -29t-14.5 -50l-74 -154q-28 -44 -35 -61l-14 -25l-21 -39l-12 -24l-20 -35q-65 -97 -80 -115q-2 -4 -21 -33.5t-28 -43.5l-41 -72q-33 -59 -43 -82l-60 -92l-55 -76v-88q0 -18 2 -43v-31l2 -102l2 -17 v-69q-2 -39 -2 -168q1 -50 -20.5 -65t-73.5 -15q-65 0 -86 20.5t-21 71.5v131q-4 70 -4 113v16q-2 7 -2 15q-4 42 0 71q4 13 0 49q-4 24 -4 45v58q-12 19 -26.5 37.5t-20.5 29.5l-8 11l-33 57l-14 29l-54 80l-12 20l-53 98q-56 100 -98 152l-97 178l-16 27l-35 73 q-30 46 -47 107zM346 1743q0 39 24.5 74t59.5 45q10 0 19 1t10 1h6q45 0 70.5 -27t31.5 -59q4 -47 -27.5 -86.5t-66.5 -49.5q-34 -8 -68.5 4.5t-48.5 43.5q-10 25 -10 53zM679.5 1777.5q15.5 44.5 53.5 69.5q24 17 49 17q43 0 74 -27t33 -57q5 -39 -32 -80.5t-71 -54.5 q-25 -8 -54.5 3.5t-45.5 39.5q-22 45 -6.5 89.5z" />
<glyph unicode="&#x2c6;" horiz-adv-x="940" d="M197 1747l43 49l24 25q27 27 31 32l59 64l35 33q2 1 4 4q13 13 19.5 18.5t16.5 10t22 4.5q5 0 9 -0.5t7 -1t7 -2t6 -2t5.5 -3.5t5 -4t5.5 -4.5t5.5 -5l6 -6l6.5 -6.5l31 -31q19 -19 28 -31q12 -14 31 -30l39 -45l31 -35l14 -15l21 -22q21 -21 12 -53q-5 -16 -41 -52 q-22 -19 -43.5 -17t-40.5 21l-80 78l-29 35l-36 37q-2 -3 -22.5 -25.5t-31.5 -35.5l-12 -13q-5 -4 -23 -24l-16 -21l-20 -22l-11 -9q-22 -22 -41 -22q-24 0 -65 41q-45 48 -12 86z" />
<glyph unicode="&#x2dc;" horiz-adv-x="903" d="M119 1612q37 42 99 76t97 34q69 0 109 -28q14 -5 76 -54q43 -24 71 -24q21 0 40.5 13t47.5 46q12 15 36.5 10.5t49 -17t38.5 -36t5 -47.5q-23 -46 -81.5 -89.5t-122.5 -47.5q-39 -4 -115 35l-76 53l-33 16q-11 9 -38 9q-29 0 -109 -64q-18 -15 -47.5 5.5t-46 55 t-0.5 54.5z" />
<glyph unicode="&#x2000;" horiz-adv-x="1004" />
<glyph unicode="&#x2001;" horiz-adv-x="2009" />
<glyph unicode="&#x2002;" horiz-adv-x="1004" />
<glyph unicode="&#x2003;" horiz-adv-x="2009" />
<glyph unicode="&#x2004;" horiz-adv-x="669" />
<glyph unicode="&#x2005;" horiz-adv-x="502" />
<glyph unicode="&#x2006;" horiz-adv-x="334" />
<glyph unicode="&#x2007;" horiz-adv-x="334" />
<glyph unicode="&#x2008;" horiz-adv-x="251" />
<glyph unicode="&#x2009;" horiz-adv-x="401" />
<glyph unicode="&#x200a;" horiz-adv-x="111" />
<glyph unicode="&#x2010;" horiz-adv-x="1038" d="M53 655q5 28 18 45.5t33.5 24t36 8.5t39.5 2h23q23 -3 114 2q25 2 82 2l62 -2l303 -6q54 0 86 -19t31 -77q-4 -67 -28 -82.5t-101 -15.5q-107 4 -207 4q-117 0 -168 -4q-20 -2 -72 -2l-100 4q-74 -1 -106.5 9t-41 32.5t-4.5 74.5z" />
<glyph unicode="&#x2011;" horiz-adv-x="1038" d="M53 655q5 28 18 45.5t33.5 24t36 8.5t39.5 2h23q23 -3 114 2q25 2 82 2l62 -2l303 -6q54 0 86 -19t31 -77q-4 -67 -28 -82.5t-101 -15.5q-107 4 -207 4q-117 0 -168 -4q-20 -2 -72 -2l-100 4q-74 -1 -106.5 9t-41 32.5t-4.5 74.5z" />
<glyph unicode="&#x2012;" horiz-adv-x="1038" d="M53 655q5 28 18 45.5t33.5 24t36 8.5t39.5 2h23q23 -3 114 2q25 2 82 2l62 -2l303 -6q54 0 86 -19t31 -77q-4 -67 -28 -82.5t-101 -15.5q-107 4 -207 4q-117 0 -168 -4q-20 -2 -72 -2l-100 4q-74 -1 -106.5 9t-41 32.5t-4.5 74.5z" />
<glyph unicode="&#x2013;" horiz-adv-x="993" d="M39 647q17 63 32 75.5t68 12.5h17q58 4 92 0q14 -2 51 -2q23 0 39 4l209 -4q51 0 53 2q32 3 111 -2h49q28 2 51 0t39.5 -9.5t25.5 -29t9 -59.5q0 -67 -23.5 -83.5t-103.5 -16.5q-162 2 -266 2q-107 0 -130 -2l-194 2q-59 -1 -86.5 10.5t-35 32.5t-7.5 67z" />
<glyph unicode="&#x2014;" horiz-adv-x="1116" d="M35 598q0 21 12 53q0 7 4 11q32 83 99 86q113 6 444 6q50 0 168 -4h12q10 0 14 -2h89q82 -2 115.5 -23.5t33.5 -87.5q0 -28 -1 -40t-5.5 -28t-15 -22.5t-29 -12.5t-47.5 -8q-27 -2 -148 -2q-57 0 -80 2q-25 2 -88 2q-100 0 -157 -2q-1 0 -3 -1t-3 -1h-76l-213 6 q-125 -3 -125 68z" />
<glyph unicode="&#x2018;" horiz-adv-x="432" d="M4 1440q-8 22 11.5 48.5t47.5 39.5q99 42 119 -12l70 -132q13 -36 33 -73q4 -12 51 -113q13 -26 18 -39q18 -26 21 -49q5 -27 -13 -54.5t-45 -42t-56 -18.5t-46 17q-15 21 -20 26q-6 8 -21 37l-8 17l-62 133q-6 22 -19 49.5t-22 36.5q-2 6 -8 18.5t-8 18.5l-18 36 q-1 6 -3.5 12t-7 14t-6.5 11z" />
<glyph unicode="&#x2019;" horiz-adv-x="432" d="M57 1110q3 23 21 49q5 13 18 39q47 101 51 113l33 73l70 132q20 54 119 12q28 -13 47.5 -39.5t11.5 -48.5l-8 -19q-2 -3 -6.5 -11t-7 -14t-3.5 -12l-18 -36q-2 -6 -8 -18.5t-8 -18.5q-9 -9 -22 -36.5t-19 -49.5l-62 -133l-8 -17q-16 -32 -20 -37q-8 -8 -21 -26 q-17 -21 -46 -17t-56 18.5t-45 42t-13 54.5z" />
<glyph unicode="&#x201a;" horiz-adv-x="432" d="M57 -88q3 23 21 49q5 13 18 39q47 101 51 113l33 73l70 131q20 55 119 13q28 -13 47.5 -39.5t11.5 -48.5l-8 -19q-2 -3 -6.5 -11t-7 -14t-3.5 -12l-18 -36q-2 -6 -8 -18.5t-8 -18.5q-9 -9 -22 -36.5t-19 -49.5l-62 -133l-8 -17q-16 -33 -20 -37q-8 -8 -21 -26 q-17 -21 -46 -17t-56 18.5t-45 42t-13 54.5z" />
<glyph unicode="&#x201c;" horiz-adv-x="659" d="M-4 1440q-8 22 11.5 48.5t47.5 39.5q99 42 119 -12l70 -132q12 -36 32 -73q2 -5 52 -113q13 -26 18 -39q18 -26 21 -49q5 -27 -13 -54.5t-45 -42t-56 -18.5t-46 17q-13 18 -21 26q-4 5 -20 37l-8 17l-62 133q-6 22 -19 49.5t-22 36.5q-2 6 -8 18.5t-8 18.5l-19 36 q-1 7 -16 37zM287 1440q-8 22 11.5 48.5t47.5 39.5q99 42 119 -12l70 -132q12 -36 32 -73q4 -12 51 -113q17 -35 19 -39q17 -24 20 -49q5 -27 -12.5 -54.5t-45 -42t-56 -18.5t-45.5 17q-13 18 -21 26q-4 5 -20 37l-8 17l-62 133q-6 22 -19 49.5t-22 36.5q-2 6 -8 18.5 t-8 18.5l-19 36q-1 7 -16 37z" />
<glyph unicode="&#x201d;" horiz-adv-x="659" d="M2 1110q3 23 21 49q5 13 18 39q47 101 51 113l33 73l70 132q20 54 118 12q29 -13 48.5 -39.5t11.5 -48.5l-8 -19q-2 -3 -6.5 -11t-7 -14t-3.5 -12l-18 -36q-2 -6 -8.5 -18.5t-8.5 -18.5q-9 -9 -22 -36.5t-19 -49.5q-31 -66 -57 -123l-8 -19v1l5 9l-1 -1l-8 -17 q-15 -29 -21 -37q-5 -5 -20 -26q-17 -21 -46 -17t-56 18.5t-45 42t-13 54.5zM293 1110q3 25 20 49q2 4 19 39q47 101 51 113l33 73l69 132q20 54 119 12q29 -13 48.5 -39.5t11.5 -48.5l-9 -19q-15 -30 -16 -37l-18 -36q-2 -6 -8.5 -18.5t-8.5 -18.5q-9 -9 -22 -36.5 t-19 -49.5q-31 -66 -57 -123l-8 -19v1l5 9l-1 -1l-8 -17q-15 -29 -21 -37q-5 -5 -20 -26q-17 -21 -46 -17t-56 18.5t-45 42t-13 54.5z" />
<glyph unicode="&#x201e;" horiz-adv-x="659" d="M2 -102q3 23 21 49q5 13 18 39q48 103 51 112q9 16 17 34.5t12 29.5l4 10l70 131q20 54 118 12q29 -13 48.5 -39.5t11.5 -48.5l-8 -18q-2 -3 -6.5 -11t-7 -14t-3.5 -12l-18 -37q-2 -6 -8.5 -18.5t-8.5 -18.5q-9 -9 -22 -36.5t-19 -49.5q-31 -66 -57 -123l-8 -19v1l5 9 l-1 -1l-8 -16q-15 -30 -21 -37q-2 -2 -20 -27q-17 -21 -46 -17t-56 19t-45 42.5t-13 54.5zM293 -102q3 25 20 49q2 4 19 39q48 103 51 112q9 16 17 34.5t12 29.5l4 10l69 131q20 54 119 12q29 -13 48.5 -39.5t11.5 -48.5l-9 -18q-15 -30 -16 -37l-18 -37q-2 -6 -8.5 -18.5 t-8.5 -18.5q-9 -9 -22 -36.5t-19 -49.5q-31 -66 -57 -123l-8 -19v1l5 9l-1 -1l-8 -16q-15 -30 -21 -37q-2 -2 -20 -27q-17 -21 -46 -17t-56 19t-45 42.5t-13 54.5z" />
<glyph unicode="&#x2026;" horiz-adv-x="1017" d="M84 106q0 45 25 87t63 55h10l11 2l6 2l20 4q52 0 83 -30.5t34 -84.5q3 -40 -33.5 -83t-71.5 -62q-27 -13 -47 -15.5t-36 5.5t-27.5 22t-24.5 39q-12 24 -12 59zM375 121q3 65 54.5 98.5t119.5 18.5l45 -15q41 -26 41 -100q0 -21 -19 -80q-17 -28 -68 -41.5t-89 -9.5 q-44 14 -64 43.5t-20 85.5zM676 92q-13 100 78 144q37 10 75.5 4t70 -38t36.5 -79v-17q0 -54 -32.5 -85t-86.5 -31q-46 -1 -89 34.5t-52 67.5z" />
<glyph unicode="&#x202f;" horiz-adv-x="401" />
<glyph unicode="&#x2039;" horiz-adv-x="894" d="M63 678q0 28 8 47t16 27t34 30l135 113l201 154l18 12l45 29q51 34 86 34q19 0 32 -11t34 -40q43 -64 -6 -106l-70 -58l-10 -8l-41 -29l-53 -49l-37 -24l-17 -8l-59 -43l-45 -35l-15 -10q-13 -10 -20 -17l23 -14q13 -11 35 -27t37 -27l16 -10l51 -33l18 -14l51 -33 l50 -39l18 -12q6 -6 14 -10l29 -23q3 -2 8.5 -7t7.5 -7t6.5 -5.5t6 -5.5t4.5 -5.5t4.5 -5.5t3.5 -5.5t2.5 -6t1 -6t0.5 -7.5q0 -28 -20 -64q-15 -27 -37.5 -42t-42.5 -9q-47 14 -78 39l-21 15l-100 65q-29 27 -47 37q-27 15 -55 43l-11 6q-9 9 -47.5 40.5t-40.5 31.5l-63 49 q-60 43 -60 84z" />
<glyph unicode="&#x203a;" horiz-adv-x="880" d="M63 383q0 5 1 9.5t3.5 9.5t4 7.5t7.5 8t8 7.5t10.5 9t11.5 10l28 23q10 5 15 10l18 12l49 39l51 33l19 14l51 33q59 39 88 64l23 14q-22 21 -35 27l-45 35l-60 43l-16 8l-37 24l-53 49l-41 29l-10 8l-70 58q-49 42 -6 106q21 29 33.5 40t31.5 11q35 0 86 -34l45 -29 l19 -12q140 -107 201 -154l135 -113q25 -22 33.5 -30t16 -27t7.5 -47q0 -42 -59 -84l-64 -49q-2 0 -40.5 -31.5t-47.5 -40.5l-10 -6q-28 -28 -55 -43q-8 -4 -20 -13.5t-20 -16.5l-8 -7l-100 -65l-20 -15q-31 -25 -78 -39q-20 -6 -42.5 9t-37.5 42q-21 38 -21 64z" />
<glyph unicode="&#x205f;" horiz-adv-x="502" />
<glyph unicode="&#x20ac;" horiz-adv-x="1361" d="M51 616q-2 35 3.5 54t19 26.5t35 8.5t51.5 0h43q15 -3 24 -3q0 53 2 84h-67q-40 0 -63 6.5t-32.5 21t-11 36t1.5 51.5q3 44 21 58t65 14l47 -2h23q6 0 15 1l10 1h16q56 210 131 315l21 25l18 24l6 11q28 41 66 67q5 4 24 19.5t27 23.5l26 19q108 60 195 63q2 0 10 2l27 2 h39q90 -3 168 -41q18 -9 54.5 -29.5t55.5 -29.5q25 -22 39.5 -38t24.5 -36t6 -40.5t-21 -43.5l-14 -16q-17 -20 -30 -29.5t-30 -10t-38 12.5l-31 21l-16 12l-92 43q-44 14 -80 14l-31 -2q-24 -4 -43 -4q-6 0 -10 -2q-100 -26 -146 -80q-21 -31 -49 -84l-41 -82 q-10 -24 -20 -61q-12 -36 -15 -43q82 -4 109 -4l133 -6q66 -1 83 -15.5t26 -68.5q9 -58 -8 -79t-60 -18q-52 0 -157 1t-158 1v-38q0 -3 -1 -10t-1 -11v-20h20q3 0 10 -1t11 -1q28 -5 34 -3q46 5 105 5q5 0 63 -5h49q41 -1 60.5 -3t31.5 -12t14 -22.5t3 -41.5 q0 -54 -13.5 -76.5t-52.5 -22.5q-16 0 -51 -1t-53 -1q-122 -4 -195 -4l-12 -2v-18l2 -4l12 -35q28 -78 39 -94l23 -27q4 -5 22 -35l11 -16l16 -21l10 -10q7 -7 18 -15t18 -12l7 -4l39 -10q12 -4 21 -4l41 -10q23 -12 82 -8q7 0 22 1t23 1h14l20 6l25 8q8 0 55 27l31 14 q11 11 25 18q1 0 3 1t3 1l24 13q33 20 54.5 9t42.5 -54q38 -76 -9 -111l-28 -29q-30 -30 -109 -71l-4 -2l-14 -9q-53 -26 -123 -26q-27 0 -43 -2q-42 -4 -70 -2q-162 26 -258 77q-53 36 -92.5 83t-97.5 133q-47 83 -84 239h-68q-85 0 -105.5 15.5t-21.5 82.5z" />
<glyph unicode="&#x25fc;" horiz-adv-x="1536" d="M0 0v1536h1536v-1536h-1536z" />
</font>
</defs>
</svg>
